<svg xmlns="http://www.w3.org/2000/svg" xmlns:xlink="http://www.w3.org/1999/xlink" viewBox="0 0 22784 3679">
<title>Ascii Art To SVG</title>
<g transform="matrix(1,0,0,1,0,2752)">
  		<path character="A" fill="#CAD1D8" fill-opacity="1.0" stroke="none" stroke-width="10px" stroke-linecap="butt" stroke-opacity="1.0" transform="matrix(1,0,0,1,0,0)" d="M 10 0 L 10 -164 L 245 -164 L 931 -1984 L 1240 -1984 L 1936 -164 L 2155 -164 L 2155 0 L 1313 0 L 1313 -164 L 1603 -164 L 1422 -661 L 669 -661 L 499 -164 L 827 -164 L 827 0 L 10 0 M 731 -832 L 1357 -832 L 1035 -1723 L 731 -832 Z"/>
		<path character="s" fill="#CAD1D8" fill-opacity="1.0" stroke="none" stroke-width="10px" stroke-linecap="butt" stroke-opacity="1.0" transform="matrix(1,0,0,1,2189,0)" d="M 669 32 Q 460 32 292 -47 Q 204 -87 153 -158 Q 103 -229 103 -319 Q 103 -373 127 -418 Q 152 -463 193 -487 Q 234 -512 281 -512 Q 358 -512 407 -469 Q 457 -426 457 -350 Q 457 -306 439 -270 Q 422 -234 392 -213 Q 362 -192 329 -192 Q 380 -166 465 -149 Q 551 -132 635 -132 Q 744 -132 820 -152 Q 896 -173 949 -224 Q 1005 -275 1005 -359 Q 1005 -420 967 -469 Q 930 -518 866 -546 Q 724 -609 560 -652 Q 475 -674 395 -707 Q 315 -741 254 -782 Q 189 -825 152 -893 Q 115 -961 115 -1047 Q 115 -1132 152 -1202 Q 189 -1272 250 -1317 Q 307 -1359 382 -1388 Q 457 -1418 529 -1430 Q 602 -1440 662 -1440 Q 755 -1440 851 -1418 Q 947 -1397 1030 -1358 Q 1115 -1317 1165 -1252 Q 1216 -1187 1216 -1113 Q 1216 -1055 1193 -1009 Q 1171 -963 1132 -937 Q 1093 -912 1048 -912 Q 971 -912 920 -956 Q 870 -1000 870 -1073 Q 870 -1106 887 -1136 Q 904 -1167 923 -1182 L 969 -1212 Q 840 -1276 677 -1276 Q 587 -1276 514 -1250 Q 441 -1224 399 -1174 Q 358 -1124 358 -1056 Q 358 -1007 396 -967 Q 434 -928 499 -905 Q 650 -847 806 -806 Q 889 -783 970 -746 Q 1051 -709 1115 -663 Q 1180 -617 1217 -543 Q 1254 -470 1254 -380 Q 1254 -289 1220 -216 Q 1186 -143 1129 -96 Q 1076 -51 999 -21 Q 922 9 839 20 Q 759 32 669 32 Z"/>
		<path character="c" fill="#CAD1D8" fill-opacity="1.0" stroke="none" stroke-width="10px" stroke-linecap="butt" stroke-opacity="1.0" transform="matrix(1,0,0,1,3546,0)" d="M 771 32 Q 633 32 508 -17 Q 384 -67 293 -158 Q 201 -250 148 -385 Q 96 -520 96 -676 Q 96 -827 142 -962 Q 188 -1098 273 -1207 Q 361 -1316 498 -1378 Q 635 -1440 802 -1440 Q 897 -1440 993 -1412 Q 1089 -1384 1169 -1330 Q 1254 -1273 1304 -1182 Q 1354 -1091 1354 -981 Q 1354 -927 1329 -877 Q 1305 -828 1258 -798 Q 1211 -768 1150 -768 Q 1064 -768 1006 -822 Q 949 -876 949 -963 Q 949 -1050 1007 -1101 Q 1065 -1152 1150 -1152 Q 1106 -1208 1026 -1242 Q 947 -1276 848 -1276 Q 737 -1276 646 -1227 Q 556 -1178 501 -1093 Q 448 -1011 420 -909 Q 392 -808 392 -701 Q 392 -534 444 -412 Q 496 -291 594 -225 Q 693 -160 830 -160 Q 906 -160 980 -192 Q 1054 -225 1107 -279 Q 1156 -330 1190 -381 Q 1224 -432 1237 -475 L 1384 -426 Q 1350 -286 1267 -183 Q 1184 -81 1057 -24 Q 931 32 771 32 Z"/>
		<path character="i" fill="#CAD1D8" fill-opacity="1.0" stroke="none" stroke-width="10px" stroke-linecap="butt" stroke-opacity="1.0" transform="matrix(1,0,0,1,5030,0)" d="M 438 -1632 Q 385 -1632 341 -1658 Q 297 -1684 271 -1728 Q 245 -1772 245 -1822 Q 245 -1875 271 -1919 Q 297 -1964 341 -1990 Q 385 -2016 438 -2016 Q 488 -2016 533 -1989 Q 578 -1963 605 -1918 Q 632 -1874 632 -1822 Q 632 -1772 605 -1728 Q 578 -1684 533 -1658 Q 488 -1632 438 -1632 M 72 0 L 72 -164 L 323 -164 L 323 -1244 L 69 -1244 L 69 -1408 L 603 -1408 L 603 -164 L 858 -164 L 858 0 L 72 0 Z"/>
		<path character="i" fill="#CAD1D8" fill-opacity="1.0" stroke="none" stroke-width="10px" stroke-linecap="butt" stroke-opacity="1.0" transform="matrix(1,0,0,1,5939,0)" d="M 438 -1632 Q 385 -1632 341 -1658 Q 297 -1684 271 -1728 Q 245 -1772 245 -1822 Q 245 -1875 271 -1919 Q 297 -1964 341 -1990 Q 385 -2016 438 -2016 Q 488 -2016 533 -1989 Q 578 -1963 605 -1918 Q 632 -1874 632 -1822 Q 632 -1772 605 -1728 Q 578 -1684 533 -1658 Q 488 -1632 438 -1632 M 72 0 L 72 -164 L 323 -164 L 323 -1244 L 69 -1244 L 69 -1408 L 603 -1408 L 603 -164 L 858 -164 L 858 0 L 72 0 Z"/>
		<path character="A" fill="#CAD1D8" fill-opacity="1.0" stroke="none" stroke-width="10px" stroke-linecap="butt" stroke-opacity="1.0" transform="matrix(1,0,0,1,7501,0)" d="M 10 0 L 10 -164 L 245 -164 L 931 -1984 L 1240 -1984 L 1936 -164 L 2155 -164 L 2155 0 L 1313 0 L 1313 -164 L 1603 -164 L 1422 -661 L 669 -661 L 499 -164 L 827 -164 L 827 0 L 10 0 M 731 -832 L 1357 -832 L 1035 -1723 L 731 -832 Z"/>
		<path character="r" fill="#CAD1D8" fill-opacity="1.0" stroke="none" stroke-width="10px" stroke-linecap="butt" stroke-opacity="1.0" transform="matrix(1,0,0,1,9690,0)" d="M 64 -164 L 318 -164 L 318 -1244 L 64 -1244 L 64 -1408 L 557 -1408 L 593 -1108 Q 625 -1223 711 -1324 Q 757 -1378 824 -1409 Q 891 -1440 968 -1440 Q 1039 -1440 1097 -1412 Q 1156 -1385 1190 -1333 Q 1225 -1281 1225 -1211 Q 1225 -1144 1198 -1094 Q 1172 -1044 1126 -1018 Q 1081 -992 1026 -992 Q 949 -992 895 -1040 Q 841 -1088 841 -1164 Q 841 -1189 853 -1217 Q 866 -1246 880 -1265 L 895 -1279 Q 818 -1279 758 -1232 Q 698 -1186 664 -1104 Q 598 -946 598 -754 L 598 -164 L 891 -164 L 891 0 L 64 0 L 64 -164 Z"/>
		<path character="t" fill="#CAD1D8" fill-opacity="1.0" stroke="none" stroke-width="10px" stroke-linecap="butt" stroke-opacity="1.0" transform="matrix(1,0,0,1,10918,0)" d="M 662 32 Q 494 32 374 -66 Q 311 -117 275 -199 Q 240 -282 240 -384 L 240 -1244 L -26 -1244 L -26 -1312 Q 70 -1342 152 -1420 Q 234 -1499 286 -1597 Q 335 -1687 372 -1778 Q 421 -1893 438 -1926 Q 465 -1984 486 -1984 Q 501 -1984 510 -1972 Q 520 -1960 520 -1937 L 520 -1408 L 1033 -1408 L 1033 -1244 L 520 -1244 L 520 -363 Q 520 -250 570 -191 Q 621 -132 710 -132 Q 818 -132 869 -203 Q 921 -275 921 -443 L 921 -632 L 1077 -632 L 1077 -475 Q 1077 -302 1036 -191 Q 996 -80 905 -24 Q 814 32 662 32 Z"/>
		<path character="T" fill="#CAD1D8" fill-opacity="1.0" stroke="none" stroke-width="10px" stroke-linecap="butt" stroke-opacity="1.0" transform="matrix(1,0,0,1,12736,0)" d="M 483 0 L 483 -164 L 787 -164 L 787 -1820 L 288 -1820 L 288 -1188 L 46 -1188 L 46 -1984 L 1824 -1984 L 1824 -1188 L 1581 -1188 L 1581 -1820 L 1094 -1820 L 1094 -164 L 1405 -164 L 1405 0 L 483 0 Z"/>
		<path character="o" fill="#CAD1D8" fill-opacity="1.0" stroke="none" stroke-width="10px" stroke-linecap="butt" stroke-opacity="1.0" transform="matrix(1,0,0,1,14605,0)" d="M 779 32 Q 574 32 419 -62 Q 264 -157 180 -324 Q 96 -491 96 -703 Q 96 -915 176 -1080 Q 257 -1246 412 -1342 Q 568 -1440 776 -1440 Q 930 -1440 1059 -1384 Q 1189 -1328 1276 -1227 Q 1362 -1128 1407 -993 Q 1453 -858 1453 -703 Q 1453 -493 1373 -328 Q 1294 -164 1141 -67 Q 987 32 779 32 M 779 -132 Q 893 -132 978 -200 Q 1064 -268 1109 -392 Q 1155 -517 1155 -681 Q 1155 -861 1116 -990 Q 1077 -1119 992 -1197 Q 905 -1276 776 -1276 Q 650 -1276 561 -1198 Q 473 -1121 434 -986 Q 395 -856 395 -681 Q 395 -517 441 -392 Q 487 -268 574 -200 Q 662 -132 779 -132 Z"/>
		<path character="S" fill="#CAD1D8" fill-opacity="1.0" stroke="none" stroke-width="10px" stroke-linecap="butt" stroke-opacity="1.0" transform="matrix(1,0,0,1,16806,0)" d="M 880 32 Q 727 32 587 3 Q 447 -26 331 -82 Q 212 -140 144 -234 Q 77 -328 77 -443 Q 77 -514 109 -571 Q 142 -628 196 -660 Q 250 -692 313 -692 Q 369 -692 416 -660 Q 464 -628 492 -575 Q 520 -523 520 -466 Q 520 -379 471 -330 Q 423 -281 336 -269 Q 431 -201 547 -166 Q 664 -132 837 -132 Q 1129 -132 1261 -275 Q 1331 -353 1331 -462 Q 1331 -585 1250 -663 Q 1214 -697 1146 -729 Q 1078 -762 996 -787 Q 902 -815 800 -842 Q 538 -908 381 -996 Q 224 -1084 163 -1194 Q 102 -1302 102 -1455 Q 102 -1615 197 -1743 Q 292 -1872 462 -1944 Q 633 -2016 850 -2016 Q 1039 -2016 1227 -1958 Q 1334 -1925 1410 -1877 Q 1487 -1830 1535 -1760 Q 1585 -1685 1585 -1598 Q 1585 -1483 1525 -1413 Q 1466 -1344 1363 -1344 Q 1305 -1344 1255 -1366 Q 1205 -1389 1175 -1431 Q 1145 -1473 1145 -1526 Q 1145 -1625 1195 -1676 Q 1246 -1728 1323 -1728 Q 1169 -1852 883 -1852 Q 757 -1852 652 -1814 Q 547 -1777 481 -1704 Q 413 -1630 413 -1530 Q 413 -1480 421 -1445 Q 430 -1411 457 -1374 Q 484 -1334 533 -1301 Q 582 -1269 667 -1238 Q 750 -1205 870 -1178 Q 1245 -1092 1430 -973 Q 1516 -917 1569 -845 Q 1623 -774 1645 -698 Q 1664 -625 1664 -529 Q 1664 -355 1573 -228 Q 1482 -102 1306 -35 Q 1130 32 880 32 Z"/>
		<path character="V" fill="#CAD1D8" fill-opacity="1.0" stroke="none" stroke-width="10px" stroke-linecap="butt" stroke-opacity="1.0" transform="matrix(1,0,0,1,18547,0)" d="M 1069 32 Q 1000 32 957 -10 Q 915 -53 880 -155 L 293 -1820 L -5 -1820 L -5 -1984 L 929 -1984 L 929 -1820 L 654 -1820 L 1128 -398 L 1587 -1820 L 1242 -1820 L 1242 -1984 L 2125 -1984 L 2125 -1820 L 1809 -1820 L 1248 -155 Q 1223 -83 1200 -43 Q 1177 -4 1146 14 Q 1116 32 1069 32 Z"/>
		<path character="G" fill="#CAD1D8" fill-opacity="1.0" stroke="none" stroke-width="10px" stroke-linecap="butt" stroke-opacity="1.0" transform="matrix(1,0,0,1,20672,0)" d="M 1026 32 Q 850 32 697 -26 Q 544 -85 436 -188 Q 331 -289 255 -422 Q 180 -555 145 -702 Q 109 -847 109 -999 Q 109 -1197 179 -1380 Q 249 -1563 375 -1705 Q 503 -1850 695 -1933 Q 888 -2016 1113 -2016 Q 1327 -2016 1501 -1936 Q 1676 -1856 1772 -1721 Q 1867 -1585 1867 -1424 Q 1867 -1369 1839 -1319 Q 1811 -1269 1760 -1238 Q 1709 -1207 1643 -1207 Q 1582 -1207 1532 -1237 Q 1482 -1268 1453 -1316 Q 1425 -1365 1425 -1419 Q 1425 -1479 1451 -1528 Q 1477 -1578 1516 -1607 Q 1555 -1636 1590 -1636 L 1595 -1636 Q 1543 -1712 1456 -1765 Q 1370 -1818 1289 -1836 Q 1214 -1852 1138 -1852 Q 931 -1852 772 -1742 Q 613 -1632 531 -1442 Q 451 -1254 451 -1022 Q 451 -868 499 -722 Q 548 -577 635 -466 Q 723 -354 847 -289 Q 971 -224 1110 -224 Q 1207 -224 1301 -261 Q 1395 -299 1460 -360 Q 1524 -419 1561 -486 Q 1598 -553 1598 -611 L 1598 -796 L 1229 -796 L 1229 -960 L 2077 -960 L 2077 -796 L 1865 -796 L 1865 0 L 1707 0 L 1643 -302 Q 1600 -211 1528 -142 Q 1456 -73 1369 -37 Q 1203 32 1026 32 Z"/>
</g>
</svg>