<svg xmlns="http://www.w3.org/2000/svg" xmlns:xlink="http://www.w3.org/1999/xlink" viewBox="0 0 9280 3679">
<title>Coding</title>
<g transform="matrix(1,0,0,1,0,2752)">
  		<path character="C" fill="#CAD1D8" fill-opacity="1.0" stroke="none" stroke-width="10px" stroke-linecap="butt" stroke-opacity="1.0" transform="matrix(1,0,0,1,-64,0)" d="M 1035 32 Q 837 32 662 -50 Q 487 -133 365 -277 Q 244 -420 176 -610 Q 109 -801 109 -1010 Q 109 -1225 177 -1411 Q 246 -1597 371 -1732 Q 497 -1867 676 -1941 Q 856 -2016 1064 -2016 Q 1245 -2016 1408 -1943 Q 1572 -1871 1677 -1739 Q 1784 -1607 1784 -1442 Q 1784 -1385 1752 -1332 Q 1720 -1280 1661 -1248 Q 1603 -1216 1529 -1216 Q 1429 -1216 1368 -1278 Q 1307 -1340 1307 -1444 Q 1307 -1511 1342 -1561 Q 1378 -1612 1431 -1638 Q 1485 -1664 1539 -1664 Q 1473 -1747 1346 -1799 Q 1219 -1852 1061 -1852 Q 886 -1852 747 -1749 Q 608 -1647 530 -1458 Q 453 -1269 453 -1021 Q 453 -876 498 -736 Q 544 -596 626 -480 Q 711 -362 839 -293 Q 968 -224 1117 -224 Q 1229 -224 1330 -267 Q 1431 -311 1503 -384 Q 1572 -455 1619 -538 Q 1666 -621 1688 -710 L 1862 -623 Q 1792 -308 1580 -138 Q 1369 32 1035 32 Z"/>
		<path character="o" fill="#CAD1D8" fill-opacity="1.0" stroke="none" stroke-width="10px" stroke-linecap="butt" stroke-opacity="1.0" transform="matrix(1,0,0,1,1805,0)" d="M 779 32 Q 574 32 419 -62 Q 264 -157 180 -324 Q 96 -491 96 -703 Q 96 -915 176 -1080 Q 257 -1246 412 -1342 Q 568 -1440 776 -1440 Q 930 -1440 1059 -1384 Q 1189 -1328 1276 -1227 Q 1362 -1128 1407 -993 Q 1453 -858 1453 -703 Q 1453 -493 1373 -328 Q 1294 -164 1141 -67 Q 987 32 779 32 M 779 -132 Q 893 -132 978 -200 Q 1064 -268 1109 -392 Q 1155 -517 1155 -681 Q 1155 -861 1116 -990 Q 1077 -1119 992 -1197 Q 905 -1276 776 -1276 Q 650 -1276 561 -1198 Q 473 -1121 434 -986 Q 395 -856 395 -681 Q 395 -517 441 -392 Q 487 -268 574 -200 Q 662 -132 779 -132 Z"/>
		<path character="d" fill="#CAD1D8" fill-opacity="1.0" stroke="none" stroke-width="10px" stroke-linecap="butt" stroke-opacity="1.0" transform="matrix(1,0,0,1,3354,0)" d="M 677 32 Q 507 32 376 -59 Q 246 -151 175 -317 Q 104 -484 104 -703 Q 104 -924 176 -1090 Q 249 -1257 383 -1348 Q 517 -1440 697 -1440 Q 806 -1440 910 -1376 Q 1014 -1313 1080 -1204 L 1080 -1820 L 774 -1820 L 774 -1984 L 1360 -1984 L 1360 -164 L 1595 -164 L 1595 0 L 1133 0 L 1082 -236 Q 1017 -111 905 -39 Q 794 32 677 32 M 733 -132 Q 837 -132 921 -206 Q 1005 -281 1052 -413 Q 1099 -545 1099 -710 Q 1099 -925 1016 -1091 Q 973 -1177 902 -1226 Q 831 -1276 744 -1276 Q 656 -1276 588 -1226 Q 520 -1176 479 -1087 Q 402 -916 402 -688 Q 402 -370 548 -216 Q 625 -132 733 -132 Z"/>
		<path character="i" fill="#CAD1D8" fill-opacity="1.0" stroke="none" stroke-width="10px" stroke-linecap="butt" stroke-opacity="1.0" transform="matrix(1,0,0,1,4966,0)" d="M 438 -1632 Q 385 -1632 341 -1658 Q 297 -1684 271 -1728 Q 245 -1772 245 -1822 Q 245 -1875 271 -1919 Q 297 -1964 341 -1990 Q 385 -2016 438 -2016 Q 488 -2016 533 -1989 Q 578 -1963 605 -1918 Q 632 -1874 632 -1822 Q 632 -1772 605 -1728 Q 578 -1684 533 -1658 Q 488 -1632 438 -1632 M 72 0 L 72 -164 L 323 -164 L 323 -1244 L 69 -1244 L 69 -1408 L 603 -1408 L 603 -164 L 858 -164 L 858 0 L 72 0 Z"/>
		<path character="n" fill="#CAD1D8" fill-opacity="1.0" stroke="none" stroke-width="10px" stroke-linecap="butt" stroke-opacity="1.0" transform="matrix(1,0,0,1,5875,0)" d="M 64 -164 L 318 -164 L 318 -1276 L 64 -1276 L 64 -1408 L 557 -1408 L 590 -1148 Q 630 -1239 704 -1305 Q 779 -1371 870 -1405 Q 961 -1440 1054 -1440 Q 1098 -1440 1132 -1436 Q 1167 -1432 1208 -1419 Q 1255 -1405 1291 -1383 Q 1327 -1361 1365 -1324 Q 1404 -1284 1428 -1233 Q 1453 -1182 1470 -1107 Q 1486 -1033 1486 -939 L 1486 -164 L 1753 -164 L 1753 0 L 968 0 L 968 -164 L 1206 -164 L 1206 -945 Q 1206 -1110 1141 -1193 Q 1076 -1276 957 -1276 Q 884 -1276 822 -1248 Q 761 -1221 719 -1173 Q 678 -1126 650 -1061 Q 622 -997 611 -927 Q 598 -861 598 -782 L 598 -164 L 835 -164 L 835 0 L 64 0 L 64 -164 Z"/>
		<path character="g" fill="#CAD1D8" fill-opacity="1.0" stroke="none" stroke-width="10px" stroke-linecap="butt" stroke-opacity="1.0" transform="matrix(1,0,0,1,7680,0)" d="M 718 716 Q 436 716 302 576 Q 229 501 229 394 Q 229 294 291 239 Q 353 184 448 184 Q 496 184 536 208 Q 577 233 600 276 Q 624 319 624 373 Q 624 424 589 477 Q 555 531 514 547 Q 596 576 675 576 Q 875 576 977 419 Q 1080 262 1080 -26 L 1080 -263 Q 1051 -180 990 -113 Q 930 -46 847 -7 Q 764 32 672 32 Q 564 32 470 -8 Q 376 -48 310 -119 Q 244 -188 197 -280 Q 151 -373 129 -480 Q 107 -589 107 -697 Q 107 -839 143 -970 Q 180 -1101 250 -1207 Q 322 -1315 434 -1377 Q 546 -1440 680 -1440 Q 759 -1440 842 -1403 Q 925 -1366 988 -1298 Q 1052 -1231 1080 -1142 L 1112 -1408 L 1547 -1408 L 1547 -1244 L 1360 -1244 L 1360 -55 Q 1360 201 1268 387 Q 1218 490 1144 561 Q 1070 632 964 673 Q 852 716 718 716 M 728 -132 Q 840 -132 925 -211 Q 1011 -290 1051 -415 Q 1089 -537 1089 -674 Q 1089 -852 1044 -988 Q 1000 -1125 919 -1200 Q 839 -1276 733 -1276 Q 630 -1276 549 -1197 Q 469 -1119 430 -993 Q 392 -868 392 -726 Q 392 -491 465 -323 Q 504 -233 571 -182 Q 639 -132 728 -132 Z"/>
</g>
</svg>