<svg xmlns="http://www.w3.org/2000/svg" xmlns:xlink="http://www.w3.org/1999/xlink" viewBox="0 0 44148 3679">
<title>EVM Sanction Check For Node.js</title>
<g transform="matrix(1,0,0,1,0,2752)">
  		<path character="E" fill="#CAD1D8" fill-opacity="1.0" stroke="none" stroke-width="10px" stroke-linecap="butt" stroke-opacity="1.0" transform="matrix(1,0,0,1,0,0)" d="M 43 0 L 43 -190 L 363 -190 L 363 -1820 L 43 -1820 L 43 -1984 L 1814 -1984 L 1814 -1226 L 1578 -1226 L 1578 -1820 L 669 -1820 L 669 -1088 L 1155 -1088 L 1155 -1408 L 1328 -1408 L 1328 -576 L 1155 -576 L 1155 -924 L 669 -924 L 669 -190 L 1578 -190 L 1578 -744 L 1814 -744 L 1814 0 L 43 0 Z"/>
		<path character="V" fill="#CAD1D8" fill-opacity="1.0" stroke="none" stroke-width="10px" stroke-linecap="butt" stroke-opacity="1.0" transform="matrix(1,0,0,1,1933,0)" d="M 1069 32 Q 1000 32 957 -10 Q 915 -53 880 -155 L 293 -1820 L -5 -1820 L -5 -1984 L 929 -1984 L 929 -1820 L 654 -1820 L 1128 -398 L 1587 -1820 L 1242 -1820 L 1242 -1984 L 2125 -1984 L 2125 -1820 L 1809 -1820 L 1248 -155 Q 1223 -83 1200 -43 Q 1177 -4 1146 14 Q 1116 32 1069 32 Z"/>
		<path character="M" fill="#CAD1D8" fill-opacity="1.0" stroke="none" stroke-width="10px" stroke-linecap="butt" stroke-opacity="1.0" transform="matrix(1,0,0,1,4058,0)" d="M 66 -164 L 352 -164 L 352 -1820 L 43 -1820 L 43 -1984 L 832 -1984 L 1296 -725 L 1728 -1984 L 2461 -1984 L 2461 -1820 L 2158 -1820 L 2158 -164 L 2481 -164 L 2481 0 L 1578 0 L 1578 -164 L 1865 -164 L 1865 -1773 L 1357 -320 Q 1320 -217 1262 -217 Q 1232 -217 1204 -243 Q 1176 -270 1160 -312 L 590 -1815 L 590 -164 L 918 -164 L 918 0 L 66 0 L 66 -164 Z"/>
		<path character="S" fill="#CAD1D8" fill-opacity="1.0" stroke="none" stroke-width="10px" stroke-linecap="butt" stroke-opacity="1.0" transform="matrix(1,0,0,1,7219,0)" d="M 880 32 Q 727 32 587 3 Q 447 -26 331 -82 Q 212 -140 144 -234 Q 77 -328 77 -443 Q 77 -514 109 -571 Q 142 -628 196 -660 Q 250 -692 313 -692 Q 369 -692 416 -660 Q 464 -628 492 -575 Q 520 -523 520 -466 Q 520 -379 471 -330 Q 423 -281 336 -269 Q 431 -201 547 -166 Q 664 -132 837 -132 Q 1129 -132 1261 -275 Q 1331 -353 1331 -462 Q 1331 -585 1250 -663 Q 1214 -697 1146 -729 Q 1078 -762 996 -787 Q 902 -815 800 -842 Q 538 -908 381 -996 Q 224 -1084 163 -1194 Q 102 -1302 102 -1455 Q 102 -1615 197 -1743 Q 292 -1872 462 -1944 Q 633 -2016 850 -2016 Q 1039 -2016 1227 -1958 Q 1334 -1925 1410 -1877 Q 1487 -1830 1535 -1760 Q 1585 -1685 1585 -1598 Q 1585 -1483 1525 -1413 Q 1466 -1344 1363 -1344 Q 1305 -1344 1255 -1366 Q 1205 -1389 1175 -1431 Q 1145 -1473 1145 -1526 Q 1145 -1625 1195 -1676 Q 1246 -1728 1323 -1728 Q 1169 -1852 883 -1852 Q 757 -1852 652 -1814 Q 547 -1777 481 -1704 Q 413 -1630 413 -1530 Q 413 -1480 421 -1445 Q 430 -1411 457 -1374 Q 484 -1334 533 -1301 Q 582 -1269 667 -1238 Q 750 -1205 870 -1178 Q 1245 -1092 1430 -973 Q 1516 -917 1569 -845 Q 1623 -774 1645 -698 Q 1664 -625 1664 -529 Q 1664 -355 1573 -228 Q 1482 -102 1306 -35 Q 1130 32 880 32 Z"/>
		<path character="a" fill="#CAD1D8" fill-opacity="1.0" stroke="none" stroke-width="10px" stroke-linecap="butt" stroke-opacity="1.0" transform="matrix(1,0,0,1,8960,0)" d="M 464 32 Q 357 32 275 -5 Q 193 -43 147 -114 Q 102 -186 102 -282 Q 102 -358 136 -421 Q 171 -484 230 -527 Q 288 -570 361 -608 Q 435 -646 512 -674 Q 668 -729 793 -801 Q 853 -835 887 -883 Q 921 -932 921 -989 Q 921 -1132 849 -1204 Q 777 -1276 643 -1276 Q 550 -1276 467 -1260 Q 384 -1244 339 -1216 Q 419 -1216 469 -1174 Q 520 -1133 520 -1072 Q 520 -1021 495 -981 Q 471 -941 429 -918 Q 388 -896 339 -896 Q 258 -896 202 -948 Q 147 -1001 147 -1093 Q 147 -1143 182 -1201 Q 217 -1259 281 -1313 Q 348 -1371 459 -1405 Q 570 -1440 699 -1440 Q 807 -1440 894 -1415 Q 982 -1391 1052 -1338 Q 1124 -1284 1162 -1188 Q 1201 -1093 1201 -964 L 1201 -355 Q 1201 -298 1214 -252 Q 1228 -206 1262 -170 Q 1300 -132 1354 -132 Q 1520 -132 1520 -384 L 1520 -595 L 1662 -595 L 1662 -423 Q 1662 -290 1634 -197 Q 1607 -104 1555 -56 Q 1504 -9 1443 11 Q 1382 32 1298 32 Q 1208 32 1133 -2 Q 1059 -36 1007 -107 Q 951 -181 942 -283 Q 905 -192 831 -120 Q 758 -49 661 -8 Q 565 32 464 32 M 531 -132 Q 616 -132 708 -187 Q 801 -243 861 -329 Q 921 -413 921 -492 L 921 -794 Q 846 -713 741 -642 Q 637 -571 551 -529 Q 474 -492 426 -432 Q 379 -372 379 -291 Q 379 -218 418 -175 Q 458 -132 531 -132 Z"/>
		<path character="n" fill="#CAD1D8" fill-opacity="1.0" stroke="none" stroke-width="10px" stroke-linecap="butt" stroke-opacity="1.0" transform="matrix(1,0,0,1,10637,0)" d="M 64 -164 L 318 -164 L 318 -1276 L 64 -1276 L 64 -1408 L 557 -1408 L 590 -1148 Q 630 -1239 704 -1305 Q 779 -1371 870 -1405 Q 961 -1440 1054 -1440 Q 1098 -1440 1132 -1436 Q 1167 -1432 1208 -1419 Q 1255 -1405 1291 -1383 Q 1327 -1361 1365 -1324 Q 1404 -1284 1428 -1233 Q 1453 -1182 1470 -1107 Q 1486 -1033 1486 -939 L 1486 -164 L 1753 -164 L 1753 0 L 968 0 L 968 -164 L 1206 -164 L 1206 -945 Q 1206 -1110 1141 -1193 Q 1076 -1276 957 -1276 Q 884 -1276 822 -1248 Q 761 -1221 719 -1173 Q 678 -1126 650 -1061 Q 622 -997 611 -927 Q 598 -861 598 -782 L 598 -164 L 835 -164 L 835 0 L 64 0 L 64 -164 Z"/>
		<path character="c" fill="#CAD1D8" fill-opacity="1.0" stroke="none" stroke-width="10px" stroke-linecap="butt" stroke-opacity="1.0" transform="matrix(1,0,0,1,12442,0)" d="M 771 32 Q 633 32 508 -17 Q 384 -67 293 -158 Q 201 -250 148 -385 Q 96 -520 96 -676 Q 96 -827 142 -962 Q 188 -1098 273 -1207 Q 361 -1316 498 -1378 Q 635 -1440 802 -1440 Q 897 -1440 993 -1412 Q 1089 -1384 1169 -1330 Q 1254 -1273 1304 -1182 Q 1354 -1091 1354 -981 Q 1354 -927 1329 -877 Q 1305 -828 1258 -798 Q 1211 -768 1150 -768 Q 1064 -768 1006 -822 Q 949 -876 949 -963 Q 949 -1050 1007 -1101 Q 1065 -1152 1150 -1152 Q 1106 -1208 1026 -1242 Q 947 -1276 848 -1276 Q 737 -1276 646 -1227 Q 556 -1178 501 -1093 Q 448 -1011 420 -909 Q 392 -808 392 -701 Q 392 -534 444 -412 Q 496 -291 594 -225 Q 693 -160 830 -160 Q 906 -160 980 -192 Q 1054 -225 1107 -279 Q 1156 -330 1190 -381 Q 1224 -432 1237 -475 L 1384 -426 Q 1350 -286 1267 -183 Q 1184 -81 1057 -24 Q 931 32 771 32 Z"/>
		<path character="t" fill="#CAD1D8" fill-opacity="1.0" stroke="none" stroke-width="10px" stroke-linecap="butt" stroke-opacity="1.0" transform="matrix(1,0,0,1,13926,0)" d="M 662 32 Q 494 32 374 -66 Q 311 -117 275 -199 Q 240 -282 240 -384 L 240 -1244 L -26 -1244 L -26 -1312 Q 70 -1342 152 -1420 Q 234 -1499 286 -1597 Q 335 -1687 372 -1778 Q 421 -1893 438 -1926 Q 465 -1984 486 -1984 Q 501 -1984 510 -1972 Q 520 -1960 520 -1937 L 520 -1408 L 1033 -1408 L 1033 -1244 L 520 -1244 L 520 -363 Q 520 -250 570 -191 Q 621 -132 710 -132 Q 818 -132 869 -203 Q 921 -275 921 -443 L 921 -632 L 1077 -632 L 1077 -475 Q 1077 -302 1036 -191 Q 996 -80 905 -24 Q 814 32 662 32 Z"/>
		<path character="i" fill="#CAD1D8" fill-opacity="1.0" stroke="none" stroke-width="10px" stroke-linecap="butt" stroke-opacity="1.0" transform="matrix(1,0,0,1,15091,0)" d="M 438 -1632 Q 385 -1632 341 -1658 Q 297 -1684 271 -1728 Q 245 -1772 245 -1822 Q 245 -1875 271 -1919 Q 297 -1964 341 -1990 Q 385 -2016 438 -2016 Q 488 -2016 533 -1989 Q 578 -1963 605 -1918 Q 632 -1874 632 -1822 Q 632 -1772 605 -1728 Q 578 -1684 533 -1658 Q 488 -1632 438 -1632 M 72 0 L 72 -164 L 323 -164 L 323 -1244 L 69 -1244 L 69 -1408 L 603 -1408 L 603 -164 L 858 -164 L 858 0 L 72 0 Z"/>
		<path character="o" fill="#CAD1D8" fill-opacity="1.0" stroke="none" stroke-width="10px" stroke-linecap="butt" stroke-opacity="1.0" transform="matrix(1,0,0,1,16000,0)" d="M 779 32 Q 574 32 419 -62 Q 264 -157 180 -324 Q 96 -491 96 -703 Q 96 -915 176 -1080 Q 257 -1246 412 -1342 Q 568 -1440 776 -1440 Q 930 -1440 1059 -1384 Q 1189 -1328 1276 -1227 Q 1362 -1128 1407 -993 Q 1453 -858 1453 -703 Q 1453 -493 1373 -328 Q 1294 -164 1141 -67 Q 987 32 779 32 M 779 -132 Q 893 -132 978 -200 Q 1064 -268 1109 -392 Q 1155 -517 1155 -681 Q 1155 -861 1116 -990 Q 1077 -1119 992 -1197 Q 905 -1276 776 -1276 Q 650 -1276 561 -1198 Q 473 -1121 434 -986 Q 395 -856 395 -681 Q 395 -517 441 -392 Q 487 -268 574 -200 Q 662 -132 779 -132 Z"/>
		<path character="n" fill="#CAD1D8" fill-opacity="1.0" stroke="none" stroke-width="10px" stroke-linecap="butt" stroke-opacity="1.0" transform="matrix(1,0,0,1,17549,0)" d="M 64 -164 L 318 -164 L 318 -1276 L 64 -1276 L 64 -1408 L 557 -1408 L 590 -1148 Q 630 -1239 704 -1305 Q 779 -1371 870 -1405 Q 961 -1440 1054 -1440 Q 1098 -1440 1132 -1436 Q 1167 -1432 1208 -1419 Q 1255 -1405 1291 -1383 Q 1327 -1361 1365 -1324 Q 1404 -1284 1428 -1233 Q 1453 -1182 1470 -1107 Q 1486 -1033 1486 -939 L 1486 -164 L 1753 -164 L 1753 0 L 968 0 L 968 -164 L 1206 -164 L 1206 -945 Q 1206 -1110 1141 -1193 Q 1076 -1276 957 -1276 Q 884 -1276 822 -1248 Q 761 -1221 719 -1173 Q 678 -1126 650 -1061 Q 622 -997 611 -927 Q 598 -861 598 -782 L 598 -164 L 835 -164 L 835 0 L 64 0 L 64 -164 Z"/>
		<path character="C" fill="#CAD1D8" fill-opacity="1.0" stroke="none" stroke-width="10px" stroke-linecap="butt" stroke-opacity="1.0" transform="matrix(1,0,0,1,20006,0)" d="M 1035 32 Q 837 32 662 -50 Q 487 -133 365 -277 Q 244 -420 176 -610 Q 109 -801 109 -1010 Q 109 -1225 177 -1411 Q 246 -1597 371 -1732 Q 497 -1867 676 -1941 Q 856 -2016 1064 -2016 Q 1245 -2016 1408 -1943 Q 1572 -1871 1677 -1739 Q 1784 -1607 1784 -1442 Q 1784 -1385 1752 -1332 Q 1720 -1280 1661 -1248 Q 1603 -1216 1529 -1216 Q 1429 -1216 1368 -1278 Q 1307 -1340 1307 -1444 Q 1307 -1511 1342 -1561 Q 1378 -1612 1431 -1638 Q 1485 -1664 1539 -1664 Q 1473 -1747 1346 -1799 Q 1219 -1852 1061 -1852 Q 886 -1852 747 -1749 Q 608 -1647 530 -1458 Q 453 -1269 453 -1021 Q 453 -876 498 -736 Q 544 -596 626 -480 Q 711 -362 839 -293 Q 968 -224 1117 -224 Q 1229 -224 1330 -267 Q 1431 -311 1503 -384 Q 1572 -455 1619 -538 Q 1666 -621 1688 -710 L 1862 -623 Q 1792 -308 1580 -138 Q 1369 32 1035 32 Z"/>
		<path character="h" fill="#CAD1D8" fill-opacity="1.0" stroke="none" stroke-width="10px" stroke-linecap="butt" stroke-opacity="1.0" transform="matrix(1,0,0,1,21875,0)" d="M 59 -164 L 298 -164 L 298 -1820 L 43 -1820 L 43 -1984 L 578 -1984 L 578 -1162 Q 626 -1257 705 -1323 Q 785 -1389 871 -1416 Q 949 -1440 1035 -1440 Q 1098 -1440 1145 -1431 Q 1193 -1422 1251 -1395 Q 1318 -1363 1361 -1312 Q 1405 -1262 1435 -1172 Q 1466 -1078 1466 -952 L 1466 -164 L 1746 -164 L 1746 0 L 934 0 L 934 -164 L 1186 -164 L 1186 -975 Q 1186 -1123 1131 -1199 Q 1076 -1276 979 -1276 Q 914 -1276 843 -1239 Q 772 -1203 712 -1140 Q 651 -1074 614 -984 Q 578 -895 578 -801 L 578 -164 L 832 -164 L 832 0 L 59 0 L 59 -164 Z"/>
		<path character="e" fill="#CAD1D8" fill-opacity="1.0" stroke="none" stroke-width="10px" stroke-linecap="butt" stroke-opacity="1.0" transform="matrix(1,0,0,1,23680,0)" d="M 776 32 Q 620 32 488 -27 Q 357 -87 271 -191 Q 186 -293 141 -420 Q 96 -548 96 -685 Q 96 -804 124 -914 Q 152 -1025 207 -1119 Q 327 -1324 527 -1400 Q 633 -1440 761 -1440 Q 893 -1440 1008 -1393 Q 1123 -1347 1208 -1260 Q 1296 -1170 1346 -1034 Q 1396 -898 1399 -732 L 395 -732 L 395 -721 Q 395 -477 491 -310 Q 539 -226 620 -179 Q 701 -132 803 -132 Q 895 -132 980 -173 Q 1065 -215 1128 -294 Q 1192 -373 1219 -479 L 1371 -427 Q 1337 -287 1255 -183 Q 1173 -80 1051 -24 Q 929 32 776 32 M 1112 -896 Q 1110 -1007 1063 -1093 Q 1017 -1180 939 -1228 Q 862 -1276 768 -1276 Q 673 -1276 593 -1228 Q 514 -1180 464 -1093 Q 414 -1007 404 -896 L 1112 -896 Z"/>
		<path character="c" fill="#CAD1D8" fill-opacity="1.0" stroke="none" stroke-width="10px" stroke-linecap="butt" stroke-opacity="1.0" transform="matrix(1,0,0,1,25165,0)" d="M 771 32 Q 633 32 508 -17 Q 384 -67 293 -158 Q 201 -250 148 -385 Q 96 -520 96 -676 Q 96 -827 142 -962 Q 188 -1098 273 -1207 Q 361 -1316 498 -1378 Q 635 -1440 802 -1440 Q 897 -1440 993 -1412 Q 1089 -1384 1169 -1330 Q 1254 -1273 1304 -1182 Q 1354 -1091 1354 -981 Q 1354 -927 1329 -877 Q 1305 -828 1258 -798 Q 1211 -768 1150 -768 Q 1064 -768 1006 -822 Q 949 -876 949 -963 Q 949 -1050 1007 -1101 Q 1065 -1152 1150 -1152 Q 1106 -1208 1026 -1242 Q 947 -1276 848 -1276 Q 737 -1276 646 -1227 Q 556 -1178 501 -1093 Q 448 -1011 420 -909 Q 392 -808 392 -701 Q 392 -534 444 -412 Q 496 -291 594 -225 Q 693 -160 830 -160 Q 906 -160 980 -192 Q 1054 -225 1107 -279 Q 1156 -330 1190 -381 Q 1224 -432 1237 -475 L 1384 -426 Q 1350 -286 1267 -183 Q 1184 -81 1057 -24 Q 931 32 771 32 Z"/>
		<path character="k" fill="#CAD1D8" fill-opacity="1.0" stroke="none" stroke-width="10px" stroke-linecap="butt" stroke-opacity="1.0" transform="matrix(1,0,0,1,26650,0)" d="M 1472 32 Q 1336 32 1236 -37 Q 1136 -107 1051 -251 L 789 -697 L 573 -530 L 573 -164 L 794 -164 L 794 0 L 30 0 L 30 -164 L 293 -164 L 293 -1820 L 30 -1820 L 30 -1984 L 573 -1984 L 573 -732 L 1117 -1244 L 873 -1244 L 873 -1408 L 1654 -1408 L 1654 -1244 L 1405 -1244 L 955 -808 Q 992 -755 1057 -649 Q 1126 -535 1174 -464 Q 1222 -393 1279 -321 Q 1340 -243 1404 -201 Q 1469 -160 1531 -160 Q 1607 -160 1667 -189 L 1705 -33 Q 1645 6 1595 19 Q 1546 32 1472 32 Z"/>
		<path character="F" fill="#CAD1D8" fill-opacity="1.0" stroke="none" stroke-width="10px" stroke-linecap="butt" stroke-opacity="1.0" transform="matrix(1,0,0,1,28979,0)" d="M 43 0 L 43 -164 L 359 -164 L 359 -1820 L 43 -1820 L 43 -1984 L 1789 -1984 L 1789 -1275 L 1552 -1275 L 1552 -1820 L 667 -1820 L 667 -1124 L 1136 -1124 L 1136 -1408 L 1315 -1408 L 1315 -640 L 1136 -640 L 1136 -960 L 667 -960 L 667 -164 L 1005 -164 L 1005 0 L 43 0 Z"/>
		<path character="o" fill="#CAD1D8" fill-opacity="1.0" stroke="none" stroke-width="10px" stroke-linecap="butt" stroke-opacity="1.0" transform="matrix(1,0,0,1,30848,0)" d="M 779 32 Q 574 32 419 -62 Q 264 -157 180 -324 Q 96 -491 96 -703 Q 96 -915 176 -1080 Q 257 -1246 412 -1342 Q 568 -1440 776 -1440 Q 930 -1440 1059 -1384 Q 1189 -1328 1276 -1227 Q 1362 -1128 1407 -993 Q 1453 -858 1453 -703 Q 1453 -493 1373 -328 Q 1294 -164 1141 -67 Q 987 32 779 32 M 779 -132 Q 893 -132 978 -200 Q 1064 -268 1109 -392 Q 1155 -517 1155 -681 Q 1155 -861 1116 -990 Q 1077 -1119 992 -1197 Q 905 -1276 776 -1276 Q 650 -1276 561 -1198 Q 473 -1121 434 -986 Q 395 -856 395 -681 Q 395 -517 441 -392 Q 487 -268 574 -200 Q 662 -132 779 -132 Z"/>
		<path character="r" fill="#CAD1D8" fill-opacity="1.0" stroke="none" stroke-width="10px" stroke-linecap="butt" stroke-opacity="1.0" transform="matrix(1,0,0,1,32397,0)" d="M 64 -164 L 318 -164 L 318 -1244 L 64 -1244 L 64 -1408 L 557 -1408 L 593 -1108 Q 625 -1223 711 -1324 Q 757 -1378 824 -1409 Q 891 -1440 968 -1440 Q 1039 -1440 1097 -1412 Q 1156 -1385 1190 -1333 Q 1225 -1281 1225 -1211 Q 1225 -1144 1198 -1094 Q 1172 -1044 1126 -1018 Q 1081 -992 1026 -992 Q 949 -992 895 -1040 Q 841 -1088 841 -1164 Q 841 -1189 853 -1217 Q 866 -1246 880 -1265 L 895 -1279 Q 818 -1279 758 -1232 Q 698 -1186 664 -1104 Q 598 -946 598 -754 L 598 -164 L 891 -164 L 891 0 L 64 0 L 64 -164 Z"/>
		<path character="N" fill="#CAD1D8" fill-opacity="1.0" stroke="none" stroke-width="10px" stroke-linecap="butt" stroke-opacity="1.0" transform="matrix(1,0,0,1,34278,0)" d="M 43 0 L 43 -164 L 357 -164 L 357 -1820 L 43 -1820 L 43 -1984 L 746 -1984 L 1672 -331 L 1672 -1820 L 1354 -1820 L 1354 -1984 L 2219 -1984 L 2219 -1820 L 1921 -1820 L 1921 0 L 1573 0 L 606 -1724 L 606 -164 L 904 -164 L 904 0 L 43 0 Z"/>
		<path character="o" fill="#CAD1D8" fill-opacity="1.0" stroke="none" stroke-width="10px" stroke-linecap="butt" stroke-opacity="1.0" transform="matrix(1,0,0,1,36531,0)" d="M 779 32 Q 574 32 419 -62 Q 264 -157 180 -324 Q 96 -491 96 -703 Q 96 -915 176 -1080 Q 257 -1246 412 -1342 Q 568 -1440 776 -1440 Q 930 -1440 1059 -1384 Q 1189 -1328 1276 -1227 Q 1362 -1128 1407 -993 Q 1453 -858 1453 -703 Q 1453 -493 1373 -328 Q 1294 -164 1141 -67 Q 987 32 779 32 M 779 -132 Q 893 -132 978 -200 Q 1064 -268 1109 -392 Q 1155 -517 1155 -681 Q 1155 -861 1116 -990 Q 1077 -1119 992 -1197 Q 905 -1276 776 -1276 Q 650 -1276 561 -1198 Q 473 -1121 434 -986 Q 395 -856 395 -681 Q 395 -517 441 -392 Q 487 -268 574 -200 Q 662 -132 779 -132 Z"/>
		<path character="d" fill="#CAD1D8" fill-opacity="1.0" stroke="none" stroke-width="10px" stroke-linecap="butt" stroke-opacity="1.0" transform="matrix(1,0,0,1,38080,0)" d="M 677 32 Q 507 32 376 -59 Q 246 -151 175 -317 Q 104 -484 104 -703 Q 104 -924 176 -1090 Q 249 -1257 383 -1348 Q 517 -1440 697 -1440 Q 806 -1440 910 -1376 Q 1014 -1313 1080 -1204 L 1080 -1820 L 774 -1820 L 774 -1984 L 1360 -1984 L 1360 -164 L 1595 -164 L 1595 0 L 1133 0 L 1082 -236 Q 1017 -111 905 -39 Q 794 32 677 32 M 733 -132 Q 837 -132 921 -206 Q 1005 -281 1052 -413 Q 1099 -545 1099 -710 Q 1099 -925 1016 -1091 Q 973 -1177 902 -1226 Q 831 -1276 744 -1276 Q 656 -1276 588 -1226 Q 520 -1176 479 -1087 Q 402 -916 402 -688 Q 402 -370 548 -216 Q 625 -132 733 -132 Z"/>
		<path character="e" fill="#CAD1D8" fill-opacity="1.0" stroke="none" stroke-width="10px" stroke-linecap="butt" stroke-opacity="1.0" transform="matrix(1,0,0,1,39693,0)" d="M 776 32 Q 620 32 488 -27 Q 357 -87 271 -191 Q 186 -293 141 -420 Q 96 -548 96 -685 Q 96 -804 124 -914 Q 152 -1025 207 -1119 Q 327 -1324 527 -1400 Q 633 -1440 761 -1440 Q 893 -1440 1008 -1393 Q 1123 -1347 1208 -1260 Q 1296 -1170 1346 -1034 Q 1396 -898 1399 -732 L 395 -732 L 395 -721 Q 395 -477 491 -310 Q 539 -226 620 -179 Q 701 -132 803 -132 Q 895 -132 980 -173 Q 1065 -215 1128 -294 Q 1192 -373 1219 -479 L 1371 -427 Q 1337 -287 1255 -183 Q 1173 -80 1051 -24 Q 929 32 776 32 M 1112 -896 Q 1110 -1007 1063 -1093 Q 1017 -1180 939 -1228 Q 862 -1276 768 -1276 Q 673 -1276 593 -1228 Q 514 -1180 464 -1093 Q 414 -1007 404 -896 L 1112 -896 Z"/>
		<path character="." fill="#CAD1D8" fill-opacity="1.0" stroke="none" stroke-width="10px" stroke-linecap="butt" stroke-opacity="1.0" transform="matrix(1,0,0,1,41178,0)" d="M 382 32 Q 329 32 285 6 Q 242 -20 216 -64 Q 190 -108 190 -159 Q 190 -212 216 -256 Q 242 -300 285 -326 Q 329 -352 382 -352 Q 432 -352 478 -325 Q 524 -299 550 -255 Q 577 -211 577 -159 Q 577 -108 550 -64 Q 524 -20 478 6 Q 432 32 382 32 Z"/>
		<path character="j" fill="#CAD1D8" fill-opacity="1.0" stroke="none" stroke-width="10px" stroke-linecap="butt" stroke-opacity="1.0" transform="matrix(1,0,0,1,41958,0)" d="M 488 -1632 Q 436 -1632 392 -1658 Q 348 -1684 322 -1728 Q 296 -1772 296 -1822 Q 296 -1875 322 -1919 Q 348 -1964 392 -1990 Q 436 -2016 488 -2016 Q 539 -2016 584 -1989 Q 629 -1963 655 -1918 Q 682 -1874 682 -1822 Q 682 -1772 655 -1728 Q 629 -1684 584 -1658 Q 539 -1632 488 -1632 M 208 657 Q 18 657 -84 581 Q -186 505 -186 368 Q -186 311 -160 268 Q -134 225 -91 202 Q -48 180 3 180 Q 68 180 111 220 Q 155 260 155 327 Q 155 464 79 497 Q 122 512 173 512 Q 214 512 247 498 Q 280 485 314 455 Q 349 423 368 355 Q 387 288 387 192 L 387 -1244 L 69 -1244 L 69 -1408 L 667 -1408 L 667 147 Q 667 308 610 423 Q 553 538 449 597 Q 346 657 208 657 Z"/>
		<path character="s" fill="#CAD1D8" fill-opacity="1.0" stroke="none" stroke-width="10px" stroke-linecap="butt" stroke-opacity="1.0" transform="matrix(1,0,0,1,42867,0)" d="M 669 32 Q 460 32 292 -47 Q 204 -87 153 -158 Q 103 -229 103 -319 Q 103 -373 127 -418 Q 152 -463 193 -487 Q 234 -512 281 -512 Q 358 -512 407 -469 Q 457 -426 457 -350 Q 457 -306 439 -270 Q 422 -234 392 -213 Q 362 -192 329 -192 Q 380 -166 465 -149 Q 551 -132 635 -132 Q 744 -132 820 -152 Q 896 -173 949 -224 Q 1005 -275 1005 -359 Q 1005 -420 967 -469 Q 930 -518 866 -546 Q 724 -609 560 -652 Q 475 -674 395 -707 Q 315 -741 254 -782 Q 189 -825 152 -893 Q 115 -961 115 -1047 Q 115 -1132 152 -1202 Q 189 -1272 250 -1317 Q 307 -1359 382 -1388 Q 457 -1418 529 -1430 Q 602 -1440 662 -1440 Q 755 -1440 851 -1418 Q 947 -1397 1030 -1358 Q 1115 -1317 1165 -1252 Q 1216 -1187 1216 -1113 Q 1216 -1055 1193 -1009 Q 1171 -963 1132 -937 Q 1093 -912 1048 -912 Q 971 -912 920 -956 Q 870 -1000 870 -1073 Q 870 -1106 887 -1136 Q 904 -1167 923 -1182 L 969 -1212 Q 840 -1276 677 -1276 Q 587 -1276 514 -1250 Q 441 -1224 399 -1174 Q 358 -1124 358 -1056 Q 358 -1007 396 -967 Q 434 -928 499 -905 Q 650 -847 806 -806 Q 889 -783 970 -746 Q 1051 -709 1115 -663 Q 1180 -617 1217 -543 Q 1254 -470 1254 -380 Q 1254 -289 1220 -216 Q 1186 -143 1129 -96 Q 1076 -51 999 -21 Q 922 9 839 20 Q 759 32 669 32 Z"/>
</g>
</svg>