<svg xmlns="http://www.w3.org/2000/svg" xmlns:xlink="http://www.w3.org/1999/xlink" viewBox="0 0 22733 3679">
<title>Hi! My Name is...</title>
<g transform="matrix(1,0,0,1,0,2752)">
  		<path character="H" fill="#CAD1D8" fill-opacity="1.0" stroke="none" stroke-width="10px" stroke-linecap="butt" stroke-opacity="1.0" transform="matrix(1,0,0,1,0,0)" d="M 43 0 L 43 -164 L 359 -164 L 359 -1820 L 43 -1820 L 43 -1984 L 965 -1984 L 965 -1820 L 667 -1820 L 667 -1124 L 1488 -1124 L 1488 -1820 L 1186 -1820 L 1186 -1984 L 2112 -1984 L 2112 -1820 L 1794 -1820 L 1794 -164 L 2112 -164 L 2112 0 L 1186 0 L 1186 -164 L 1488 -164 L 1488 -960 L 667 -960 L 667 -164 L 965 -164 L 965 0 L 43 0 Z"/>
		<path character="i" fill="#CAD1D8" fill-opacity="1.0" stroke="none" stroke-width="10px" stroke-linecap="butt" stroke-opacity="1.0" transform="matrix(1,0,0,1,2189,0)" d="M 438 -1632 Q 385 -1632 341 -1658 Q 297 -1684 271 -1728 Q 245 -1772 245 -1822 Q 245 -1875 271 -1919 Q 297 -1964 341 -1990 Q 385 -2016 438 -2016 Q 488 -2016 533 -1989 Q 578 -1963 605 -1918 Q 632 -1874 632 -1822 Q 632 -1772 605 -1728 Q 578 -1684 533 -1658 Q 488 -1632 438 -1632 M 72 0 L 72 -164 L 323 -164 L 323 -1244 L 69 -1244 L 69 -1408 L 603 -1408 L 603 -164 L 858 -164 L 858 0 L 72 0 Z"/>
		<path character="!" fill="#CAD1D8" fill-opacity="1.0" stroke="none" stroke-width="10px" stroke-linecap="butt" stroke-opacity="1.0" transform="matrix(1,0,0,1,3098,0)" d="M 520 -640 L 397 -1984 L 736 -1984 L 613 -640 L 520 -640 M 570 32 Q 518 32 474 6 Q 431 -20 405 -64 Q 379 -108 379 -159 Q 379 -212 405 -256 Q 431 -300 474 -326 Q 518 -352 570 -352 Q 621 -352 666 -325 Q 712 -299 739 -255 Q 766 -211 766 -159 Q 766 -108 739 -64 Q 712 -20 666 6 Q 621 32 570 32 Z"/>
		<path character="M" fill="#CAD1D8" fill-opacity="1.0" stroke="none" stroke-width="10px" stroke-linecap="butt" stroke-opacity="1.0" transform="matrix(1,0,0,1,4851,0)" d="M 66 -164 L 352 -164 L 352 -1820 L 43 -1820 L 43 -1984 L 832 -1984 L 1296 -725 L 1728 -1984 L 2461 -1984 L 2461 -1820 L 2158 -1820 L 2158 -164 L 2481 -164 L 2481 0 L 1578 0 L 1578 -164 L 1865 -164 L 1865 -1773 L 1357 -320 Q 1320 -217 1262 -217 Q 1232 -217 1204 -243 Q 1176 -270 1160 -312 L 590 -1815 L 590 -164 L 918 -164 L 918 0 L 66 0 L 66 -164 Z"/>
		<path character="y" fill="#CAD1D8" fill-opacity="1.0" stroke="none" stroke-width="10px" stroke-linecap="butt" stroke-opacity="1.0" transform="matrix(1,0,0,1,7360,0)" d="M 469 652 Q 350 652 258 614 Q 167 576 115 508 Q 64 441 64 354 Q 64 260 124 200 Q 185 141 288 141 Q 366 141 408 195 Q 451 250 451 335 Q 451 382 421 421 Q 391 460 341 484 Q 395 512 427 512 Q 544 512 622 405 Q 701 298 741 62 L 224 -1244 L -35 -1244 L -35 -1408 L 768 -1408 L 768 -1244 L 531 -1244 L 909 -198 L 1232 -1244 L 1016 -1244 L 1016 -1408 L 1685 -1408 L 1685 -1244 L 1461 -1244 L 1013 37 Q 936 264 855 398 Q 775 533 681 592 Q 587 652 469 652 Z"/>
		<path character="N" fill="#CAD1D8" fill-opacity="1.0" stroke="none" stroke-width="10px" stroke-linecap="butt" stroke-opacity="1.0" transform="matrix(1,0,0,1,9690,0)" d="M 43 0 L 43 -164 L 357 -164 L 357 -1820 L 43 -1820 L 43 -1984 L 746 -1984 L 1672 -331 L 1672 -1820 L 1354 -1820 L 1354 -1984 L 2219 -1984 L 2219 -1820 L 1921 -1820 L 1921 0 L 1573 0 L 606 -1724 L 606 -164 L 904 -164 L 904 0 L 43 0 Z"/>
		<path character="a" fill="#CAD1D8" fill-opacity="1.0" stroke="none" stroke-width="10px" stroke-linecap="butt" stroke-opacity="1.0" transform="matrix(1,0,0,1,11942,0)" d="M 464 32 Q 357 32 275 -5 Q 193 -43 147 -114 Q 102 -186 102 -282 Q 102 -358 136 -421 Q 171 -484 230 -527 Q 288 -570 361 -608 Q 435 -646 512 -674 Q 668 -729 793 -801 Q 853 -835 887 -883 Q 921 -932 921 -989 Q 921 -1132 849 -1204 Q 777 -1276 643 -1276 Q 550 -1276 467 -1260 Q 384 -1244 339 -1216 Q 419 -1216 469 -1174 Q 520 -1133 520 -1072 Q 520 -1021 495 -981 Q 471 -941 429 -918 Q 388 -896 339 -896 Q 258 -896 202 -948 Q 147 -1001 147 -1093 Q 147 -1143 182 -1201 Q 217 -1259 281 -1313 Q 348 -1371 459 -1405 Q 570 -1440 699 -1440 Q 807 -1440 894 -1415 Q 982 -1391 1052 -1338 Q 1124 -1284 1162 -1188 Q 1201 -1093 1201 -964 L 1201 -355 Q 1201 -298 1214 -252 Q 1228 -206 1262 -170 Q 1300 -132 1354 -132 Q 1520 -132 1520 -384 L 1520 -595 L 1662 -595 L 1662 -423 Q 1662 -290 1634 -197 Q 1607 -104 1555 -56 Q 1504 -9 1443 11 Q 1382 32 1298 32 Q 1208 32 1133 -2 Q 1059 -36 1007 -107 Q 951 -181 942 -283 Q 905 -192 831 -120 Q 758 -49 661 -8 Q 565 32 464 32 M 531 -132 Q 616 -132 708 -187 Q 801 -243 861 -329 Q 921 -413 921 -492 L 921 -794 Q 846 -713 741 -642 Q 637 -571 551 -529 Q 474 -492 426 -432 Q 379 -372 379 -291 Q 379 -218 418 -175 Q 458 -132 531 -132 Z"/>
		<path character="m" fill="#CAD1D8" fill-opacity="1.0" stroke="none" stroke-width="10px" stroke-linecap="butt" stroke-opacity="1.0" transform="matrix(1,0,0,1,13619,0)" d="M 64 -164 L 318 -164 L 318 -1276 L 64 -1276 L 64 -1408 L 557 -1408 L 590 -1148 Q 616 -1223 665 -1282 Q 715 -1341 777 -1375 Q 897 -1440 1030 -1440 Q 1081 -1440 1116 -1435 Q 1151 -1431 1195 -1417 Q 1245 -1401 1281 -1373 Q 1317 -1345 1350 -1294 Q 1383 -1244 1405 -1170 Q 1466 -1306 1575 -1373 Q 1684 -1440 1822 -1440 Q 1866 -1440 1900 -1436 Q 1935 -1432 1977 -1419 Q 2024 -1405 2059 -1383 Q 2095 -1361 2133 -1324 Q 2172 -1284 2197 -1233 Q 2222 -1182 2239 -1107 Q 2254 -1033 2254 -939 L 2254 -164 L 2494 -164 L 2494 0 L 1763 0 L 1763 -164 L 1974 -164 L 1974 -945 Q 1974 -1110 1909 -1193 Q 1844 -1276 1725 -1276 Q 1636 -1276 1569 -1237 Q 1503 -1198 1467 -1129 Q 1432 -1060 1432 -971 L 1432 -164 L 1656 -164 L 1656 0 L 929 0 L 929 -164 L 1152 -164 L 1152 -945 Q 1152 -1110 1087 -1193 Q 1022 -1276 904 -1276 Q 831 -1276 774 -1248 Q 718 -1220 684 -1173 Q 652 -1129 632 -1063 Q 612 -997 604 -928 Q 598 -854 598 -782 L 598 -164 L 822 -164 L 822 0 L 64 0 L 64 -164 Z"/>
		<path character="e" fill="#CAD1D8" fill-opacity="1.0" stroke="none" stroke-width="10px" stroke-linecap="butt" stroke-opacity="1.0" transform="matrix(1,0,0,1,16128,0)" d="M 776 32 Q 620 32 488 -27 Q 357 -87 271 -191 Q 186 -293 141 -420 Q 96 -548 96 -685 Q 96 -804 124 -914 Q 152 -1025 207 -1119 Q 327 -1324 527 -1400 Q 633 -1440 761 -1440 Q 893 -1440 1008 -1393 Q 1123 -1347 1208 -1260 Q 1296 -1170 1346 -1034 Q 1396 -898 1399 -732 L 395 -732 L 395 -721 Q 395 -477 491 -310 Q 539 -226 620 -179 Q 701 -132 803 -132 Q 895 -132 980 -173 Q 1065 -215 1128 -294 Q 1192 -373 1219 -479 L 1371 -427 Q 1337 -287 1255 -183 Q 1173 -80 1051 -24 Q 929 32 776 32 M 1112 -896 Q 1110 -1007 1063 -1093 Q 1017 -1180 939 -1228 Q 862 -1276 768 -1276 Q 673 -1276 593 -1228 Q 514 -1180 464 -1093 Q 414 -1007 404 -896 L 1112 -896 Z"/>
		<path character="i" fill="#CAD1D8" fill-opacity="1.0" stroke="none" stroke-width="10px" stroke-linecap="butt" stroke-opacity="1.0" transform="matrix(1,0,0,1,18266,0)" d="M 438 -1632 Q 385 -1632 341 -1658 Q 297 -1684 271 -1728 Q 245 -1772 245 -1822 Q 245 -1875 271 -1919 Q 297 -1964 341 -1990 Q 385 -2016 438 -2016 Q 488 -2016 533 -1989 Q 578 -1963 605 -1918 Q 632 -1874 632 -1822 Q 632 -1772 605 -1728 Q 578 -1684 533 -1658 Q 488 -1632 438 -1632 M 72 0 L 72 -164 L 323 -164 L 323 -1244 L 69 -1244 L 69 -1408 L 603 -1408 L 603 -164 L 858 -164 L 858 0 L 72 0 Z"/>
		<path character="s" fill="#CAD1D8" fill-opacity="1.0" stroke="none" stroke-width="10px" stroke-linecap="butt" stroke-opacity="1.0" transform="matrix(1,0,0,1,19174,0)" d="M 669 32 Q 460 32 292 -47 Q 204 -87 153 -158 Q 103 -229 103 -319 Q 103 -373 127 -418 Q 152 -463 193 -487 Q 234 -512 281 -512 Q 358 -512 407 -469 Q 457 -426 457 -350 Q 457 -306 439 -270 Q 422 -234 392 -213 Q 362 -192 329 -192 Q 380 -166 465 -149 Q 551 -132 635 -132 Q 744 -132 820 -152 Q 896 -173 949 -224 Q 1005 -275 1005 -359 Q 1005 -420 967 -469 Q 930 -518 866 -546 Q 724 -609 560 -652 Q 475 -674 395 -707 Q 315 -741 254 -782 Q 189 -825 152 -893 Q 115 -961 115 -1047 Q 115 -1132 152 -1202 Q 189 -1272 250 -1317 Q 307 -1359 382 -1388 Q 457 -1418 529 -1430 Q 602 -1440 662 -1440 Q 755 -1440 851 -1418 Q 947 -1397 1030 -1358 Q 1115 -1317 1165 -1252 Q 1216 -1187 1216 -1113 Q 1216 -1055 1193 -1009 Q 1171 -963 1132 -937 Q 1093 -912 1048 -912 Q 971 -912 920 -956 Q 870 -1000 870 -1073 Q 870 -1106 887 -1136 Q 904 -1167 923 -1182 L 969 -1212 Q 840 -1276 677 -1276 Q 587 -1276 514 -1250 Q 441 -1224 399 -1174 Q 358 -1124 358 -1056 Q 358 -1007 396 -967 Q 434 -928 499 -905 Q 650 -847 806 -806 Q 889 -783 970 -746 Q 1051 -709 1115 -663 Q 1180 -617 1217 -543 Q 1254 -470 1254 -380 Q 1254 -289 1220 -216 Q 1186 -143 1129 -96 Q 1076 -51 999 -21 Q 922 9 839 20 Q 759 32 669 32 Z"/>
		<path character="." fill="#CAD1D8" fill-opacity="1.0" stroke="none" stroke-width="10px" stroke-linecap="butt" stroke-opacity="1.0" transform="matrix(1,0,0,1,20531,0)" d="M 382 32 Q 329 32 285 6 Q 242 -20 216 -64 Q 190 -108 190 -159 Q 190 -212 216 -256 Q 242 -300 285 -326 Q 329 -352 382 -352 Q 432 -352 478 -325 Q 524 -299 550 -255 Q 577 -211 577 -159 Q 577 -108 550 -64 Q 524 -20 478 6 Q 432 32 382 32 Z"/>
		<path character="." fill="#CAD1D8" fill-opacity="1.0" stroke="none" stroke-width="10px" stroke-linecap="butt" stroke-opacity="1.0" transform="matrix(1,0,0,1,21312,0)" d="M 382 32 Q 329 32 285 6 Q 242 -20 216 -64 Q 190 -108 190 -159 Q 190 -212 216 -256 Q 242 -300 285 -326 Q 329 -352 382 -352 Q 432 -352 478 -325 Q 524 -299 550 -255 Q 577 -211 577 -159 Q 577 -108 550 -64 Q 524 -20 478 6 Q 432 32 382 32 Z"/>
		<path character="." fill="#CAD1D8" fill-opacity="1.0" stroke="none" stroke-width="10px" stroke-linecap="butt" stroke-opacity="1.0" transform="matrix(1,0,0,1,22093,0)" d="M 382 32 Q 329 32 285 6 Q 242 -20 216 -64 Q 190 -108 190 -159 Q 190 -212 216 -256 Q 242 -300 285 -326 Q 329 -352 382 -352 Q 432 -352 478 -325 Q 524 -299 550 -255 Q 577 -211 577 -159 Q 577 -108 550 -64 Q 524 -20 478 6 Q 432 32 382 32 Z"/>
</g>
</svg>