<svg xmlns="http://www.w3.org/2000/svg" xmlns:xlink="http://www.w3.org/1999/xlink" viewBox="0 0 37645 3679">
<title>Local Path Builder For Ruby</title>
<g transform="matrix(1,0,0,1,0,2752)">
  		<path character="L" fill="#CAD1D8" fill-opacity="1.0" stroke="none" stroke-width="10px" stroke-linecap="butt" stroke-opacity="1.0" transform="matrix(1,0,0,1,0,0)" d="M 43 0 L 43 -190 L 359 -190 L 359 -1820 L 43 -1820 L 43 -1984 L 965 -1984 L 965 -1820 L 667 -1820 L 667 -190 L 1403 -190 L 1403 -834 L 1646 -834 L 1646 0 L 43 0 Z"/>
		<path character="o" fill="#CAD1D8" fill-opacity="1.0" stroke="none" stroke-width="10px" stroke-linecap="butt" stroke-opacity="1.0" transform="matrix(1,0,0,1,1677,0)" d="M 779 32 Q 574 32 419 -62 Q 264 -157 180 -324 Q 96 -491 96 -703 Q 96 -915 176 -1080 Q 257 -1246 412 -1342 Q 568 -1440 776 -1440 Q 930 -1440 1059 -1384 Q 1189 -1328 1276 -1227 Q 1362 -1128 1407 -993 Q 1453 -858 1453 -703 Q 1453 -493 1373 -328 Q 1294 -164 1141 -67 Q 987 32 779 32 M 779 -132 Q 893 -132 978 -200 Q 1064 -268 1109 -392 Q 1155 -517 1155 -681 Q 1155 -861 1116 -990 Q 1077 -1119 992 -1197 Q 905 -1276 776 -1276 Q 650 -1276 561 -1198 Q 473 -1121 434 -986 Q 395 -856 395 -681 Q 395 -517 441 -392 Q 487 -268 574 -200 Q 662 -132 779 -132 Z"/>
		<path character="c" fill="#CAD1D8" fill-opacity="1.0" stroke="none" stroke-width="10px" stroke-linecap="butt" stroke-opacity="1.0" transform="matrix(1,0,0,1,3226,0)" d="M 771 32 Q 633 32 508 -17 Q 384 -67 293 -158 Q 201 -250 148 -385 Q 96 -520 96 -676 Q 96 -827 142 -962 Q 188 -1098 273 -1207 Q 361 -1316 498 -1378 Q 635 -1440 802 -1440 Q 897 -1440 993 -1412 Q 1089 -1384 1169 -1330 Q 1254 -1273 1304 -1182 Q 1354 -1091 1354 -981 Q 1354 -927 1329 -877 Q 1305 -828 1258 -798 Q 1211 -768 1150 -768 Q 1064 -768 1006 -822 Q 949 -876 949 -963 Q 949 -1050 1007 -1101 Q 1065 -1152 1150 -1152 Q 1106 -1208 1026 -1242 Q 947 -1276 848 -1276 Q 737 -1276 646 -1227 Q 556 -1178 501 -1093 Q 448 -1011 420 -909 Q 392 -808 392 -701 Q 392 -534 444 -412 Q 496 -291 594 -225 Q 693 -160 830 -160 Q 906 -160 980 -192 Q 1054 -225 1107 -279 Q 1156 -330 1190 -381 Q 1224 -432 1237 -475 L 1384 -426 Q 1350 -286 1267 -183 Q 1184 -81 1057 -24 Q 931 32 771 32 Z"/>
		<path character="a" fill="#CAD1D8" fill-opacity="1.0" stroke="none" stroke-width="10px" stroke-linecap="butt" stroke-opacity="1.0" transform="matrix(1,0,0,1,4710,0)" d="M 464 32 Q 357 32 275 -5 Q 193 -43 147 -114 Q 102 -186 102 -282 Q 102 -358 136 -421 Q 171 -484 230 -527 Q 288 -570 361 -608 Q 435 -646 512 -674 Q 668 -729 793 -801 Q 853 -835 887 -883 Q 921 -932 921 -989 Q 921 -1132 849 -1204 Q 777 -1276 643 -1276 Q 550 -1276 467 -1260 Q 384 -1244 339 -1216 Q 419 -1216 469 -1174 Q 520 -1133 520 -1072 Q 520 -1021 495 -981 Q 471 -941 429 -918 Q 388 -896 339 -896 Q 258 -896 202 -948 Q 147 -1001 147 -1093 Q 147 -1143 182 -1201 Q 217 -1259 281 -1313 Q 348 -1371 459 -1405 Q 570 -1440 699 -1440 Q 807 -1440 894 -1415 Q 982 -1391 1052 -1338 Q 1124 -1284 1162 -1188 Q 1201 -1093 1201 -964 L 1201 -355 Q 1201 -298 1214 -252 Q 1228 -206 1262 -170 Q 1300 -132 1354 -132 Q 1520 -132 1520 -384 L 1520 -595 L 1662 -595 L 1662 -423 Q 1662 -290 1634 -197 Q 1607 -104 1555 -56 Q 1504 -9 1443 11 Q 1382 32 1298 32 Q 1208 32 1133 -2 Q 1059 -36 1007 -107 Q 951 -181 942 -283 Q 905 -192 831 -120 Q 758 -49 661 -8 Q 565 32 464 32 M 531 -132 Q 616 -132 708 -187 Q 801 -243 861 -329 Q 921 -413 921 -492 L 921 -794 Q 846 -713 741 -642 Q 637 -571 551 -529 Q 474 -492 426 -432 Q 379 -372 379 -291 Q 379 -218 418 -175 Q 458 -132 531 -132 Z"/>
		<path character="l" fill="#CAD1D8" fill-opacity="1.0" stroke="none" stroke-width="10px" stroke-linecap="butt" stroke-opacity="1.0" transform="matrix(1,0,0,1,6387,0)" d="M 48 0 L 48 -164 L 339 -164 L 339 -1820 L 48 -1820 L 48 -1984 L 619 -1984 L 619 -164 L 899 -164 L 899 0 L 48 0 Z"/>
		<path character="P" fill="#CAD1D8" fill-opacity="1.0" stroke="none" stroke-width="10px" stroke-linecap="butt" stroke-opacity="1.0" transform="matrix(1,0,0,1,7949,0)" d="M 43 -164 L 359 -164 L 359 -1820 L 43 -1820 L 43 -1984 L 843 -1984 Q 938 -1984 999 -1984 Q 1061 -1984 1151 -1973 Q 1248 -1961 1318 -1940 Q 1389 -1920 1468 -1881 Q 1547 -1839 1597 -1783 Q 1647 -1728 1680 -1643 Q 1712 -1559 1712 -1449 Q 1712 -1344 1683 -1258 Q 1655 -1172 1606 -1111 Q 1560 -1057 1485 -1013 Q 1410 -970 1330 -945 Q 1261 -924 1158 -910 Q 1056 -896 965 -896 Q 882 -896 771 -896 L 667 -896 L 667 -164 L 992 -164 L 992 0 L 43 0 L 43 -164 M 848 -1060 Q 1397 -1060 1397 -1451 Q 1397 -1559 1358 -1647 Q 1330 -1709 1249 -1758 Q 1203 -1786 1086 -1808 Q 1020 -1820 882 -1820 Q 852 -1820 770 -1820 L 667 -1820 L 667 -1060 L 848 -1060 Z"/>
		<path character="a" fill="#CAD1D8" fill-opacity="1.0" stroke="none" stroke-width="10px" stroke-linecap="butt" stroke-opacity="1.0" transform="matrix(1,0,0,1,9690,0)" d="M 464 32 Q 357 32 275 -5 Q 193 -43 147 -114 Q 102 -186 102 -282 Q 102 -358 136 -421 Q 171 -484 230 -527 Q 288 -570 361 -608 Q 435 -646 512 -674 Q 668 -729 793 -801 Q 853 -835 887 -883 Q 921 -932 921 -989 Q 921 -1132 849 -1204 Q 777 -1276 643 -1276 Q 550 -1276 467 -1260 Q 384 -1244 339 -1216 Q 419 -1216 469 -1174 Q 520 -1133 520 -1072 Q 520 -1021 495 -981 Q 471 -941 429 -918 Q 388 -896 339 -896 Q 258 -896 202 -948 Q 147 -1001 147 -1093 Q 147 -1143 182 -1201 Q 217 -1259 281 -1313 Q 348 -1371 459 -1405 Q 570 -1440 699 -1440 Q 807 -1440 894 -1415 Q 982 -1391 1052 -1338 Q 1124 -1284 1162 -1188 Q 1201 -1093 1201 -964 L 1201 -355 Q 1201 -298 1214 -252 Q 1228 -206 1262 -170 Q 1300 -132 1354 -132 Q 1520 -132 1520 -384 L 1520 -595 L 1662 -595 L 1662 -423 Q 1662 -290 1634 -197 Q 1607 -104 1555 -56 Q 1504 -9 1443 11 Q 1382 32 1298 32 Q 1208 32 1133 -2 Q 1059 -36 1007 -107 Q 951 -181 942 -283 Q 905 -192 831 -120 Q 758 -49 661 -8 Q 565 32 464 32 M 531 -132 Q 616 -132 708 -187 Q 801 -243 861 -329 Q 921 -413 921 -492 L 921 -794 Q 846 -713 741 -642 Q 637 -571 551 -529 Q 474 -492 426 -432 Q 379 -372 379 -291 Q 379 -218 418 -175 Q 458 -132 531 -132 Z"/>
		<path character="t" fill="#CAD1D8" fill-opacity="1.0" stroke="none" stroke-width="10px" stroke-linecap="butt" stroke-opacity="1.0" transform="matrix(1,0,0,1,11366,0)" d="M 662 32 Q 494 32 374 -66 Q 311 -117 275 -199 Q 240 -282 240 -384 L 240 -1244 L -26 -1244 L -26 -1312 Q 70 -1342 152 -1420 Q 234 -1499 286 -1597 Q 335 -1687 372 -1778 Q 421 -1893 438 -1926 Q 465 -1984 486 -1984 Q 501 -1984 510 -1972 Q 520 -1960 520 -1937 L 520 -1408 L 1033 -1408 L 1033 -1244 L 520 -1244 L 520 -363 Q 520 -250 570 -191 Q 621 -132 710 -132 Q 818 -132 869 -203 Q 921 -275 921 -443 L 921 -632 L 1077 -632 L 1077 -475 Q 1077 -302 1036 -191 Q 996 -80 905 -24 Q 814 32 662 32 Z"/>
		<path character="h" fill="#CAD1D8" fill-opacity="1.0" stroke="none" stroke-width="10px" stroke-linecap="butt" stroke-opacity="1.0" transform="matrix(1,0,0,1,12531,0)" d="M 59 -164 L 298 -164 L 298 -1820 L 43 -1820 L 43 -1984 L 578 -1984 L 578 -1162 Q 626 -1257 705 -1323 Q 785 -1389 871 -1416 Q 949 -1440 1035 -1440 Q 1098 -1440 1145 -1431 Q 1193 -1422 1251 -1395 Q 1318 -1363 1361 -1312 Q 1405 -1262 1435 -1172 Q 1466 -1078 1466 -952 L 1466 -164 L 1746 -164 L 1746 0 L 934 0 L 934 -164 L 1186 -164 L 1186 -975 Q 1186 -1123 1131 -1199 Q 1076 -1276 979 -1276 Q 914 -1276 843 -1239 Q 772 -1203 712 -1140 Q 651 -1074 614 -984 Q 578 -895 578 -801 L 578 -164 L 832 -164 L 832 0 L 59 0 L 59 -164 Z"/>
		<path character="B" fill="#CAD1D8" fill-opacity="1.0" stroke="none" stroke-width="10px" stroke-linecap="butt" stroke-opacity="1.0" transform="matrix(1,0,0,1,14989,0)" d="M 43 -164 L 363 -164 L 363 -1820 L 43 -1820 L 43 -1984 L 896 -1984 Q 1070 -1984 1241 -1950 Q 1419 -1916 1551 -1811 Q 1615 -1760 1650 -1680 Q 1685 -1601 1685 -1504 Q 1685 -1341 1595 -1239 Q 1505 -1138 1326 -1086 Q 1552 -1028 1670 -893 Q 1789 -759 1789 -550 Q 1789 -444 1758 -356 Q 1728 -269 1676 -209 Q 1629 -155 1553 -112 Q 1478 -69 1400 -46 Q 1332 -26 1237 -13 Q 1142 0 1065 0 Q 974 0 906 0 L 43 0 L 43 -164 M 952 -1152 Q 1124 -1152 1257 -1224 Q 1324 -1261 1363 -1326 Q 1403 -1392 1403 -1476 Q 1403 -1606 1348 -1688 Q 1302 -1753 1186 -1794 Q 1107 -1820 934 -1820 Q 845 -1820 774 -1820 L 669 -1820 L 669 -1152 L 952 -1152 M 824 -164 Q 995 -164 1111 -177 Q 1175 -184 1222 -196 Q 1270 -209 1317 -230 Q 1360 -248 1388 -276 Q 1417 -305 1442 -347 Q 1483 -419 1483 -554 Q 1483 -660 1439 -745 Q 1395 -831 1317 -884 Q 1240 -935 1147 -961 Q 1054 -988 952 -988 L 669 -988 L 669 -164 L 824 -164 Z"/>
		<path character="u" fill="#CAD1D8" fill-opacity="1.0" stroke="none" stroke-width="10px" stroke-linecap="butt" stroke-opacity="1.0" transform="matrix(1,0,0,1,16858,0)" d="M 1147 -242 Q 983 32 677 32 Q 630 32 588 25 Q 547 19 495 2 Q 398 -27 319 -140 Q 281 -193 260 -277 Q 240 -362 240 -468 L 240 -1244 L -5 -1244 L -5 -1408 L 520 -1408 L 520 -464 Q 520 -289 574 -210 Q 629 -132 746 -132 Q 830 -132 921 -182 Q 1013 -232 1076 -313 Q 1138 -394 1138 -476 L 1138 -1244 L 901 -1244 L 901 -1408 L 1419 -1408 L 1419 -133 L 1672 -108 L 1672 2 L 1147 36 L 1147 -242 Z"/>
		<path character="i" fill="#CAD1D8" fill-opacity="1.0" stroke="none" stroke-width="10px" stroke-linecap="butt" stroke-opacity="1.0" transform="matrix(1,0,0,1,18534,0)" d="M 438 -1632 Q 385 -1632 341 -1658 Q 297 -1684 271 -1728 Q 245 -1772 245 -1822 Q 245 -1875 271 -1919 Q 297 -1964 341 -1990 Q 385 -2016 438 -2016 Q 488 -2016 533 -1989 Q 578 -1963 605 -1918 Q 632 -1874 632 -1822 Q 632 -1772 605 -1728 Q 578 -1684 533 -1658 Q 488 -1632 438 -1632 M 72 0 L 72 -164 L 323 -164 L 323 -1244 L 69 -1244 L 69 -1408 L 603 -1408 L 603 -164 L 858 -164 L 858 0 L 72 0 Z"/>
		<path character="l" fill="#CAD1D8" fill-opacity="1.0" stroke="none" stroke-width="10px" stroke-linecap="butt" stroke-opacity="1.0" transform="matrix(1,0,0,1,19443,0)" d="M 48 0 L 48 -164 L 339 -164 L 339 -1820 L 48 -1820 L 48 -1984 L 619 -1984 L 619 -164 L 899 -164 L 899 0 L 48 0 Z"/>
		<path character="d" fill="#CAD1D8" fill-opacity="1.0" stroke="none" stroke-width="10px" stroke-linecap="butt" stroke-opacity="1.0" transform="matrix(1,0,0,1,20352,0)" d="M 677 32 Q 507 32 376 -59 Q 246 -151 175 -317 Q 104 -484 104 -703 Q 104 -924 176 -1090 Q 249 -1257 383 -1348 Q 517 -1440 697 -1440 Q 806 -1440 910 -1376 Q 1014 -1313 1080 -1204 L 1080 -1820 L 774 -1820 L 774 -1984 L 1360 -1984 L 1360 -164 L 1595 -164 L 1595 0 L 1133 0 L 1082 -236 Q 1017 -111 905 -39 Q 794 32 677 32 M 733 -132 Q 837 -132 921 -206 Q 1005 -281 1052 -413 Q 1099 -545 1099 -710 Q 1099 -925 1016 -1091 Q 973 -1177 902 -1226 Q 831 -1276 744 -1276 Q 656 -1276 588 -1226 Q 520 -1176 479 -1087 Q 402 -916 402 -688 Q 402 -370 548 -216 Q 625 -132 733 -132 Z"/>
		<path character="e" fill="#CAD1D8" fill-opacity="1.0" stroke="none" stroke-width="10px" stroke-linecap="butt" stroke-opacity="1.0" transform="matrix(1,0,0,1,21965,0)" d="M 776 32 Q 620 32 488 -27 Q 357 -87 271 -191 Q 186 -293 141 -420 Q 96 -548 96 -685 Q 96 -804 124 -914 Q 152 -1025 207 -1119 Q 327 -1324 527 -1400 Q 633 -1440 761 -1440 Q 893 -1440 1008 -1393 Q 1123 -1347 1208 -1260 Q 1296 -1170 1346 -1034 Q 1396 -898 1399 -732 L 395 -732 L 395 -721 Q 395 -477 491 -310 Q 539 -226 620 -179 Q 701 -132 803 -132 Q 895 -132 980 -173 Q 1065 -215 1128 -294 Q 1192 -373 1219 -479 L 1371 -427 Q 1337 -287 1255 -183 Q 1173 -80 1051 -24 Q 929 32 776 32 M 1112 -896 Q 1110 -1007 1063 -1093 Q 1017 -1180 939 -1228 Q 862 -1276 768 -1276 Q 673 -1276 593 -1228 Q 514 -1180 464 -1093 Q 414 -1007 404 -896 L 1112 -896 Z"/>
		<path character="r" fill="#CAD1D8" fill-opacity="1.0" stroke="none" stroke-width="10px" stroke-linecap="butt" stroke-opacity="1.0" transform="matrix(1,0,0,1,23450,0)" d="M 64 -164 L 318 -164 L 318 -1244 L 64 -1244 L 64 -1408 L 557 -1408 L 593 -1108 Q 625 -1223 711 -1324 Q 757 -1378 824 -1409 Q 891 -1440 968 -1440 Q 1039 -1440 1097 -1412 Q 1156 -1385 1190 -1333 Q 1225 -1281 1225 -1211 Q 1225 -1144 1198 -1094 Q 1172 -1044 1126 -1018 Q 1081 -992 1026 -992 Q 949 -992 895 -1040 Q 841 -1088 841 -1164 Q 841 -1189 853 -1217 Q 866 -1246 880 -1265 L 895 -1279 Q 818 -1279 758 -1232 Q 698 -1186 664 -1104 Q 598 -946 598 -754 L 598 -164 L 891 -164 L 891 0 L 64 0 L 64 -164 Z"/>
		<path character="F" fill="#CAD1D8" fill-opacity="1.0" stroke="none" stroke-width="10px" stroke-linecap="butt" stroke-opacity="1.0" transform="matrix(1,0,0,1,25331,0)" d="M 43 0 L 43 -164 L 359 -164 L 359 -1820 L 43 -1820 L 43 -1984 L 1789 -1984 L 1789 -1275 L 1552 -1275 L 1552 -1820 L 667 -1820 L 667 -1124 L 1136 -1124 L 1136 -1408 L 1315 -1408 L 1315 -640 L 1136 -640 L 1136 -960 L 667 -960 L 667 -164 L 1005 -164 L 1005 0 L 43 0 Z"/>
		<path character="o" fill="#CAD1D8" fill-opacity="1.0" stroke="none" stroke-width="10px" stroke-linecap="butt" stroke-opacity="1.0" transform="matrix(1,0,0,1,27200,0)" d="M 779 32 Q 574 32 419 -62 Q 264 -157 180 -324 Q 96 -491 96 -703 Q 96 -915 176 -1080 Q 257 -1246 412 -1342 Q 568 -1440 776 -1440 Q 930 -1440 1059 -1384 Q 1189 -1328 1276 -1227 Q 1362 -1128 1407 -993 Q 1453 -858 1453 -703 Q 1453 -493 1373 -328 Q 1294 -164 1141 -67 Q 987 32 779 32 M 779 -132 Q 893 -132 978 -200 Q 1064 -268 1109 -392 Q 1155 -517 1155 -681 Q 1155 -861 1116 -990 Q 1077 -1119 992 -1197 Q 905 -1276 776 -1276 Q 650 -1276 561 -1198 Q 473 -1121 434 -986 Q 395 -856 395 -681 Q 395 -517 441 -392 Q 487 -268 574 -200 Q 662 -132 779 -132 Z"/>
		<path character="r" fill="#CAD1D8" fill-opacity="1.0" stroke="none" stroke-width="10px" stroke-linecap="butt" stroke-opacity="1.0" transform="matrix(1,0,0,1,28749,0)" d="M 64 -164 L 318 -164 L 318 -1244 L 64 -1244 L 64 -1408 L 557 -1408 L 593 -1108 Q 625 -1223 711 -1324 Q 757 -1378 824 -1409 Q 891 -1440 968 -1440 Q 1039 -1440 1097 -1412 Q 1156 -1385 1190 -1333 Q 1225 -1281 1225 -1211 Q 1225 -1144 1198 -1094 Q 1172 -1044 1126 -1018 Q 1081 -992 1026 -992 Q 949 -992 895 -1040 Q 841 -1088 841 -1164 Q 841 -1189 853 -1217 Q 866 -1246 880 -1265 L 895 -1279 Q 818 -1279 758 -1232 Q 698 -1186 664 -1104 Q 598 -946 598 -754 L 598 -164 L 891 -164 L 891 0 L 64 0 L 64 -164 Z"/>
		<path character="R" fill="#CAD1D8" fill-opacity="1.0" stroke="none" stroke-width="10px" stroke-linecap="butt" stroke-opacity="1.0" transform="matrix(1,0,0,1,30630,0)" d="M 1669 32 Q 1590 32 1525 1 Q 1461 -29 1417 -83 Q 1375 -133 1341 -219 Q 1307 -306 1284 -408 Q 1258 -524 1240 -639 Q 1228 -720 1199 -788 Q 1171 -856 1138 -893 Q 1107 -927 1072 -951 Q 1037 -975 1013 -982 Q 992 -988 974 -988 L 667 -988 L 667 -190 L 962 -190 L 962 0 L 43 0 L 43 -190 L 359 -190 L 359 -1820 L 43 -1820 L 43 -1984 L 792 -1984 L 853 -1984 Q 939 -1984 997 -1984 Q 1055 -1984 1143 -1977 Q 1251 -1967 1321 -1949 Q 1391 -1932 1477 -1895 Q 1559 -1860 1607 -1810 Q 1656 -1760 1690 -1680 Q 1723 -1602 1723 -1500 Q 1723 -1284 1581 -1178 Q 1512 -1128 1431 -1096 Q 1350 -1065 1237 -1043 Q 1313 -1026 1363 -995 Q 1414 -965 1449 -917 Q 1482 -869 1502 -816 Q 1522 -763 1544 -675 Q 1561 -605 1593 -443 Q 1600 -394 1616 -342 Q 1632 -291 1647 -262 Q 1664 -230 1690 -210 Q 1716 -190 1749 -190 Q 1883 -190 1883 -467 L 1883 -671 L 2059 -671 L 2059 -466 Q 2059 32 1669 32 M 830 -1152 Q 1039 -1152 1169 -1182 Q 1300 -1212 1373 -1283 Q 1448 -1355 1448 -1475 Q 1448 -1577 1410 -1644 Q 1373 -1712 1291 -1751 Q 1210 -1788 1100 -1804 Q 990 -1820 819 -1820 L 667 -1820 L 667 -1152 L 830 -1152 Z"/>
		<path character="u" fill="#CAD1D8" fill-opacity="1.0" stroke="none" stroke-width="10px" stroke-linecap="butt" stroke-opacity="1.0" transform="matrix(1,0,0,1,32691,0)" d="M 1147 -242 Q 983 32 677 32 Q 630 32 588 25 Q 547 19 495 2 Q 398 -27 319 -140 Q 281 -193 260 -277 Q 240 -362 240 -468 L 240 -1244 L -5 -1244 L -5 -1408 L 520 -1408 L 520 -464 Q 520 -289 574 -210 Q 629 -132 746 -132 Q 830 -132 921 -182 Q 1013 -232 1076 -313 Q 1138 -394 1138 -476 L 1138 -1244 L 901 -1244 L 901 -1408 L 1419 -1408 L 1419 -133 L 1672 -108 L 1672 2 L 1147 36 L 1147 -242 Z"/>
		<path character="b" fill="#CAD1D8" fill-opacity="1.0" stroke="none" stroke-width="10px" stroke-linecap="butt" stroke-opacity="1.0" transform="matrix(1,0,0,1,34368,0)" d="M 856 32 Q 706 32 582 -43 Q 458 -119 397 -265 L 296 0 L 176 0 L 176 -1820 L -94 -1820 L -94 -1984 L 456 -1984 L 456 -1212 Q 522 -1319 624 -1379 Q 727 -1440 843 -1440 Q 1021 -1440 1157 -1347 Q 1294 -1254 1368 -1086 Q 1443 -918 1443 -703 Q 1443 -496 1369 -329 Q 1296 -162 1162 -66 Q 1027 32 856 32 M 802 -132 Q 905 -132 986 -211 Q 1068 -290 1107 -418 Q 1145 -544 1145 -682 Q 1145 -908 1069 -1083 Q 1029 -1172 960 -1224 Q 891 -1276 802 -1276 Q 719 -1276 648 -1227 Q 578 -1178 538 -1096 Q 497 -1017 476 -930 Q 456 -843 456 -758 Q 456 -583 497 -442 Q 539 -301 617 -218 Q 697 -132 802 -132 Z"/>
		<path character="y" fill="#CAD1D8" fill-opacity="1.0" stroke="none" stroke-width="10px" stroke-linecap="butt" stroke-opacity="1.0" transform="matrix(1,0,0,1,35917,0)" d="M 469 652 Q 350 652 258 614 Q 167 576 115 508 Q 64 441 64 354 Q 64 260 124 200 Q 185 141 288 141 Q 366 141 408 195 Q 451 250 451 335 Q 451 382 421 421 Q 391 460 341 484 Q 395 512 427 512 Q 544 512 622 405 Q 701 298 741 62 L 224 -1244 L -35 -1244 L -35 -1408 L 768 -1408 L 768 -1244 L 531 -1244 L 909 -198 L 1232 -1244 L 1016 -1244 L 1016 -1408 L 1685 -1408 L 1685 -1244 L 1461 -1244 L 1013 37 Q 936 264 855 398 Q 775 533 681 592 Q 587 652 469 652 Z"/>
</g>
</svg>