<svg xmlns="http://www.w3.org/2000/svg" xmlns:xlink="http://www.w3.org/1999/xlink" viewBox="0 0 21940 3679">
<title>Mina Quickstart</title>
<g transform="matrix(1,0,0,1,0,2752)">
  		<path character="M" fill="#CAD1D8" fill-opacity="1.0" stroke="none" stroke-width="10px" stroke-linecap="butt" stroke-opacity="1.0" transform="matrix(1,0,0,1,0,0)" d="M 66 -164 L 352 -164 L 352 -1820 L 43 -1820 L 43 -1984 L 832 -1984 L 1296 -725 L 1728 -1984 L 2461 -1984 L 2461 -1820 L 2158 -1820 L 2158 -164 L 2481 -164 L 2481 0 L 1578 0 L 1578 -164 L 1865 -164 L 1865 -1773 L 1357 -320 Q 1320 -217 1262 -217 Q 1232 -217 1204 -243 Q 1176 -270 1160 -312 L 590 -1815 L 590 -164 L 918 -164 L 918 0 L 66 0 L 66 -164 Z"/>
		<path character="i" fill="#CAD1D8" fill-opacity="1.0" stroke="none" stroke-width="10px" stroke-linecap="butt" stroke-opacity="1.0" transform="matrix(1,0,0,1,2509,0)" d="M 438 -1632 Q 385 -1632 341 -1658 Q 297 -1684 271 -1728 Q 245 -1772 245 -1822 Q 245 -1875 271 -1919 Q 297 -1964 341 -1990 Q 385 -2016 438 -2016 Q 488 -2016 533 -1989 Q 578 -1963 605 -1918 Q 632 -1874 632 -1822 Q 632 -1772 605 -1728 Q 578 -1684 533 -1658 Q 488 -1632 438 -1632 M 72 0 L 72 -164 L 323 -164 L 323 -1244 L 69 -1244 L 69 -1408 L 603 -1408 L 603 -164 L 858 -164 L 858 0 L 72 0 Z"/>
		<path character="n" fill="#CAD1D8" fill-opacity="1.0" stroke="none" stroke-width="10px" stroke-linecap="butt" stroke-opacity="1.0" transform="matrix(1,0,0,1,3418,0)" d="M 64 -164 L 318 -164 L 318 -1276 L 64 -1276 L 64 -1408 L 557 -1408 L 590 -1148 Q 630 -1239 704 -1305 Q 779 -1371 870 -1405 Q 961 -1440 1054 -1440 Q 1098 -1440 1132 -1436 Q 1167 -1432 1208 -1419 Q 1255 -1405 1291 -1383 Q 1327 -1361 1365 -1324 Q 1404 -1284 1428 -1233 Q 1453 -1182 1470 -1107 Q 1486 -1033 1486 -939 L 1486 -164 L 1753 -164 L 1753 0 L 968 0 L 968 -164 L 1206 -164 L 1206 -945 Q 1206 -1110 1141 -1193 Q 1076 -1276 957 -1276 Q 884 -1276 822 -1248 Q 761 -1221 719 -1173 Q 678 -1126 650 -1061 Q 622 -997 611 -927 Q 598 -861 598 -782 L 598 -164 L 835 -164 L 835 0 L 64 0 L 64 -164 Z"/>
		<path character="a" fill="#CAD1D8" fill-opacity="1.0" stroke="none" stroke-width="10px" stroke-linecap="butt" stroke-opacity="1.0" transform="matrix(1,0,0,1,5222,0)" d="M 464 32 Q 357 32 275 -5 Q 193 -43 147 -114 Q 102 -186 102 -282 Q 102 -358 136 -421 Q 171 -484 230 -527 Q 288 -570 361 -608 Q 435 -646 512 -674 Q 668 -729 793 -801 Q 853 -835 887 -883 Q 921 -932 921 -989 Q 921 -1132 849 -1204 Q 777 -1276 643 -1276 Q 550 -1276 467 -1260 Q 384 -1244 339 -1216 Q 419 -1216 469 -1174 Q 520 -1133 520 -1072 Q 520 -1021 495 -981 Q 471 -941 429 -918 Q 388 -896 339 -896 Q 258 -896 202 -948 Q 147 -1001 147 -1093 Q 147 -1143 182 -1201 Q 217 -1259 281 -1313 Q 348 -1371 459 -1405 Q 570 -1440 699 -1440 Q 807 -1440 894 -1415 Q 982 -1391 1052 -1338 Q 1124 -1284 1162 -1188 Q 1201 -1093 1201 -964 L 1201 -355 Q 1201 -298 1214 -252 Q 1228 -206 1262 -170 Q 1300 -132 1354 -132 Q 1520 -132 1520 -384 L 1520 -595 L 1662 -595 L 1662 -423 Q 1662 -290 1634 -197 Q 1607 -104 1555 -56 Q 1504 -9 1443 11 Q 1382 32 1298 32 Q 1208 32 1133 -2 Q 1059 -36 1007 -107 Q 951 -181 942 -283 Q 905 -192 831 -120 Q 758 -49 661 -8 Q 565 32 464 32 M 531 -132 Q 616 -132 708 -187 Q 801 -243 861 -329 Q 921 -413 921 -492 L 921 -794 Q 846 -713 741 -642 Q 637 -571 551 -529 Q 474 -492 426 -432 Q 379 -372 379 -291 Q 379 -218 418 -175 Q 458 -132 531 -132 Z"/>
		<path character="Q" fill="#CAD1D8" fill-opacity="1.0" stroke="none" stroke-width="10px" stroke-linecap="butt" stroke-opacity="1.0" transform="matrix(1,0,0,1,7552,0)" d="M 1768 320 Q 1653 320 1559 237 Q 1465 155 1366 -14 Q 1214 32 1035 32 Q 858 32 704 -25 Q 551 -82 440 -183 Q 333 -281 257 -413 Q 181 -545 146 -691 Q 109 -837 109 -991 Q 109 -1311 257 -1569 Q 335 -1705 443 -1803 Q 552 -1901 701 -1958 Q 857 -2016 1035 -2016 Q 1212 -2016 1366 -1958 Q 1521 -1900 1630 -1798 Q 1737 -1699 1812 -1566 Q 1888 -1433 1925 -1285 Q 1960 -1137 1960 -982 Q 1960 -732 1869 -508 Q 1778 -285 1611 -145 Q 1680 -35 1730 14 Q 1780 64 1830 64 L 1840 64 Q 1892 58 1932 9 Q 1973 -39 1995 -119 Q 2018 -200 2018 -301 L 2018 -333 L 2176 -333 L 2176 -301 Q 2176 74 2065 204 Q 2011 269 1942 294 Q 1874 320 1768 320 M 1459 -386 Q 1539 -496 1583 -659 Q 1627 -823 1627 -999 Q 1627 -1129 1602 -1252 Q 1578 -1375 1529 -1481 Q 1421 -1714 1244 -1804 Q 1149 -1852 1035 -1852 Q 899 -1852 784 -1781 Q 669 -1711 594 -1588 Q 521 -1468 482 -1318 Q 443 -1168 443 -1007 Q 443 -845 480 -690 Q 518 -536 587 -424 Q 609 -467 638 -505 Q 667 -543 712 -583 Q 761 -626 835 -651 Q 910 -676 998 -676 Q 1134 -676 1243 -602 Q 1353 -529 1459 -386 M 1035 -132 Q 1158 -132 1257 -189 Q 1168 -354 1092 -433 Q 1017 -512 929 -512 Q 794 -512 685 -290 Q 828 -132 1035 -132 Z"/>
		<path character="u" fill="#CAD1D8" fill-opacity="1.0" stroke="none" stroke-width="10px" stroke-linecap="butt" stroke-opacity="1.0" transform="matrix(1,0,0,1,9677,0)" d="M 1147 -242 Q 983 32 677 32 Q 630 32 588 25 Q 547 19 495 2 Q 398 -27 319 -140 Q 281 -193 260 -277 Q 240 -362 240 -468 L 240 -1244 L -5 -1244 L -5 -1408 L 520 -1408 L 520 -464 Q 520 -289 574 -210 Q 629 -132 746 -132 Q 830 -132 921 -182 Q 1013 -232 1076 -313 Q 1138 -394 1138 -476 L 1138 -1244 L 901 -1244 L 901 -1408 L 1419 -1408 L 1419 -133 L 1672 -108 L 1672 2 L 1147 36 L 1147 -242 Z"/>
		<path character="i" fill="#CAD1D8" fill-opacity="1.0" stroke="none" stroke-width="10px" stroke-linecap="butt" stroke-opacity="1.0" transform="matrix(1,0,0,1,11354,0)" d="M 438 -1632 Q 385 -1632 341 -1658 Q 297 -1684 271 -1728 Q 245 -1772 245 -1822 Q 245 -1875 271 -1919 Q 297 -1964 341 -1990 Q 385 -2016 438 -2016 Q 488 -2016 533 -1989 Q 578 -1963 605 -1918 Q 632 -1874 632 -1822 Q 632 -1772 605 -1728 Q 578 -1684 533 -1658 Q 488 -1632 438 -1632 M 72 0 L 72 -164 L 323 -164 L 323 -1244 L 69 -1244 L 69 -1408 L 603 -1408 L 603 -164 L 858 -164 L 858 0 L 72 0 Z"/>
		<path character="c" fill="#CAD1D8" fill-opacity="1.0" stroke="none" stroke-width="10px" stroke-linecap="butt" stroke-opacity="1.0" transform="matrix(1,0,0,1,12262,0)" d="M 771 32 Q 633 32 508 -17 Q 384 -67 293 -158 Q 201 -250 148 -385 Q 96 -520 96 -676 Q 96 -827 142 -962 Q 188 -1098 273 -1207 Q 361 -1316 498 -1378 Q 635 -1440 802 -1440 Q 897 -1440 993 -1412 Q 1089 -1384 1169 -1330 Q 1254 -1273 1304 -1182 Q 1354 -1091 1354 -981 Q 1354 -927 1329 -877 Q 1305 -828 1258 -798 Q 1211 -768 1150 -768 Q 1064 -768 1006 -822 Q 949 -876 949 -963 Q 949 -1050 1007 -1101 Q 1065 -1152 1150 -1152 Q 1106 -1208 1026 -1242 Q 947 -1276 848 -1276 Q 737 -1276 646 -1227 Q 556 -1178 501 -1093 Q 448 -1011 420 -909 Q 392 -808 392 -701 Q 392 -534 444 -412 Q 496 -291 594 -225 Q 693 -160 830 -160 Q 906 -160 980 -192 Q 1054 -225 1107 -279 Q 1156 -330 1190 -381 Q 1224 -432 1237 -475 L 1384 -426 Q 1350 -286 1267 -183 Q 1184 -81 1057 -24 Q 931 32 771 32 Z"/>
		<path character="k" fill="#CAD1D8" fill-opacity="1.0" stroke="none" stroke-width="10px" stroke-linecap="butt" stroke-opacity="1.0" transform="matrix(1,0,0,1,13747,0)" d="M 1472 32 Q 1336 32 1236 -37 Q 1136 -107 1051 -251 L 789 -697 L 573 -530 L 573 -164 L 794 -164 L 794 0 L 30 0 L 30 -164 L 293 -164 L 293 -1820 L 30 -1820 L 30 -1984 L 573 -1984 L 573 -732 L 1117 -1244 L 873 -1244 L 873 -1408 L 1654 -1408 L 1654 -1244 L 1405 -1244 L 955 -808 Q 992 -755 1057 -649 Q 1126 -535 1174 -464 Q 1222 -393 1279 -321 Q 1340 -243 1404 -201 Q 1469 -160 1531 -160 Q 1607 -160 1667 -189 L 1705 -33 Q 1645 6 1595 19 Q 1546 32 1472 32 Z"/>
		<path character="s" fill="#CAD1D8" fill-opacity="1.0" stroke="none" stroke-width="10px" stroke-linecap="butt" stroke-opacity="1.0" transform="matrix(1,0,0,1,15424,0)" d="M 669 32 Q 460 32 292 -47 Q 204 -87 153 -158 Q 103 -229 103 -319 Q 103 -373 127 -418 Q 152 -463 193 -487 Q 234 -512 281 -512 Q 358 -512 407 -469 Q 457 -426 457 -350 Q 457 -306 439 -270 Q 422 -234 392 -213 Q 362 -192 329 -192 Q 380 -166 465 -149 Q 551 -132 635 -132 Q 744 -132 820 -152 Q 896 -173 949 -224 Q 1005 -275 1005 -359 Q 1005 -420 967 -469 Q 930 -518 866 -546 Q 724 -609 560 -652 Q 475 -674 395 -707 Q 315 -741 254 -782 Q 189 -825 152 -893 Q 115 -961 115 -1047 Q 115 -1132 152 -1202 Q 189 -1272 250 -1317 Q 307 -1359 382 -1388 Q 457 -1418 529 -1430 Q 602 -1440 662 -1440 Q 755 -1440 851 -1418 Q 947 -1397 1030 -1358 Q 1115 -1317 1165 -1252 Q 1216 -1187 1216 -1113 Q 1216 -1055 1193 -1009 Q 1171 -963 1132 -937 Q 1093 -912 1048 -912 Q 971 -912 920 -956 Q 870 -1000 870 -1073 Q 870 -1106 887 -1136 Q 904 -1167 923 -1182 L 969 -1212 Q 840 -1276 677 -1276 Q 587 -1276 514 -1250 Q 441 -1224 399 -1174 Q 358 -1124 358 -1056 Q 358 -1007 396 -967 Q 434 -928 499 -905 Q 650 -847 806 -806 Q 889 -783 970 -746 Q 1051 -709 1115 -663 Q 1180 -617 1217 -543 Q 1254 -470 1254 -380 Q 1254 -289 1220 -216 Q 1186 -143 1129 -96 Q 1076 -51 999 -21 Q 922 9 839 20 Q 759 32 669 32 Z"/>
		<path character="t" fill="#CAD1D8" fill-opacity="1.0" stroke="none" stroke-width="10px" stroke-linecap="butt" stroke-opacity="1.0" transform="matrix(1,0,0,1,16781,0)" d="M 662 32 Q 494 32 374 -66 Q 311 -117 275 -199 Q 240 -282 240 -384 L 240 -1244 L -26 -1244 L -26 -1312 Q 70 -1342 152 -1420 Q 234 -1499 286 -1597 Q 335 -1687 372 -1778 Q 421 -1893 438 -1926 Q 465 -1984 486 -1984 Q 501 -1984 510 -1972 Q 520 -1960 520 -1937 L 520 -1408 L 1033 -1408 L 1033 -1244 L 520 -1244 L 520 -363 Q 520 -250 570 -191 Q 621 -132 710 -132 Q 818 -132 869 -203 Q 921 -275 921 -443 L 921 -632 L 1077 -632 L 1077 -475 Q 1077 -302 1036 -191 Q 996 -80 905 -24 Q 814 32 662 32 Z"/>
		<path character="a" fill="#CAD1D8" fill-opacity="1.0" stroke="none" stroke-width="10px" stroke-linecap="butt" stroke-opacity="1.0" transform="matrix(1,0,0,1,17946,0)" d="M 464 32 Q 357 32 275 -5 Q 193 -43 147 -114 Q 102 -186 102 -282 Q 102 -358 136 -421 Q 171 -484 230 -527 Q 288 -570 361 -608 Q 435 -646 512 -674 Q 668 -729 793 -801 Q 853 -835 887 -883 Q 921 -932 921 -989 Q 921 -1132 849 -1204 Q 777 -1276 643 -1276 Q 550 -1276 467 -1260 Q 384 -1244 339 -1216 Q 419 -1216 469 -1174 Q 520 -1133 520 -1072 Q 520 -1021 495 -981 Q 471 -941 429 -918 Q 388 -896 339 -896 Q 258 -896 202 -948 Q 147 -1001 147 -1093 Q 147 -1143 182 -1201 Q 217 -1259 281 -1313 Q 348 -1371 459 -1405 Q 570 -1440 699 -1440 Q 807 -1440 894 -1415 Q 982 -1391 1052 -1338 Q 1124 -1284 1162 -1188 Q 1201 -1093 1201 -964 L 1201 -355 Q 1201 -298 1214 -252 Q 1228 -206 1262 -170 Q 1300 -132 1354 -132 Q 1520 -132 1520 -384 L 1520 -595 L 1662 -595 L 1662 -423 Q 1662 -290 1634 -197 Q 1607 -104 1555 -56 Q 1504 -9 1443 11 Q 1382 32 1298 32 Q 1208 32 1133 -2 Q 1059 -36 1007 -107 Q 951 -181 942 -283 Q 905 -192 831 -120 Q 758 -49 661 -8 Q 565 32 464 32 M 531 -132 Q 616 -132 708 -187 Q 801 -243 861 -329 Q 921 -413 921 -492 L 921 -794 Q 846 -713 741 -642 Q 637 -571 551 -529 Q 474 -492 426 -432 Q 379 -372 379 -291 Q 379 -218 418 -175 Q 458 -132 531 -132 Z"/>
		<path character="r" fill="#CAD1D8" fill-opacity="1.0" stroke="none" stroke-width="10px" stroke-linecap="butt" stroke-opacity="1.0" transform="matrix(1,0,0,1,19622,0)" d="M 64 -164 L 318 -164 L 318 -1244 L 64 -1244 L 64 -1408 L 557 -1408 L 593 -1108 Q 625 -1223 711 -1324 Q 757 -1378 824 -1409 Q 891 -1440 968 -1440 Q 1039 -1440 1097 -1412 Q 1156 -1385 1190 -1333 Q 1225 -1281 1225 -1211 Q 1225 -1144 1198 -1094 Q 1172 -1044 1126 -1018 Q 1081 -992 1026 -992 Q 949 -992 895 -1040 Q 841 -1088 841 -1164 Q 841 -1189 853 -1217 Q 866 -1246 880 -1265 L 895 -1279 Q 818 -1279 758 -1232 Q 698 -1186 664 -1104 Q 598 -946 598 -754 L 598 -164 L 891 -164 L 891 0 L 64 0 L 64 -164 Z"/>
		<path character="t" fill="#CAD1D8" fill-opacity="1.0" stroke="none" stroke-width="10px" stroke-linecap="butt" stroke-opacity="1.0" transform="matrix(1,0,0,1,20851,0)" d="M 662 32 Q 494 32 374 -66 Q 311 -117 275 -199 Q 240 -282 240 -384 L 240 -1244 L -26 -1244 L -26 -1312 Q 70 -1342 152 -1420 Q 234 -1499 286 -1597 Q 335 -1687 372 -1778 Q 421 -1893 438 -1926 Q 465 -1984 486 -1984 Q 501 -1984 510 -1972 Q 520 -1960 520 -1937 L 520 -1408 L 1033 -1408 L 1033 -1244 L 520 -1244 L 520 -363 Q 520 -250 570 -191 Q 621 -132 710 -132 Q 818 -132 869 -203 Q 921 -275 921 -443 L 921 -632 L 1077 -632 L 1077 -475 Q 1077 -302 1036 -191 Q 996 -80 905 -24 Q 814 32 662 32 Z"/>
</g>
</svg>