<svg xmlns="http://www.w3.org/2000/svg" xmlns:xlink="http://www.w3.org/1999/xlink" viewBox="0 0 16640 3679">
<title>Open Source</title>
<g transform="matrix(1,0,0,1,0,2752)">
  		<path character="O" fill="#CAD1D8" fill-opacity="1.0" stroke="none" stroke-width="10px" stroke-linecap="butt" stroke-opacity="1.0" transform="matrix(1,0,0,1,-64,0)" d="M 1035 32 Q 858 32 704 -25 Q 551 -82 440 -183 Q 333 -281 257 -413 Q 181 -545 146 -691 Q 109 -837 109 -991 Q 109 -1311 257 -1569 Q 335 -1705 443 -1803 Q 552 -1901 701 -1958 Q 857 -2016 1035 -2016 Q 1212 -2016 1366 -1958 Q 1521 -1901 1630 -1800 Q 1737 -1702 1812 -1570 Q 1888 -1438 1925 -1291 Q 1960 -1145 1960 -991 Q 1960 -672 1813 -414 Q 1735 -277 1626 -180 Q 1518 -83 1370 -27 Q 1216 32 1035 32 M 1035 -132 Q 1172 -132 1287 -203 Q 1403 -275 1477 -400 Q 1550 -521 1588 -673 Q 1627 -825 1627 -989 Q 1627 -1120 1602 -1244 Q 1578 -1369 1529 -1477 Q 1421 -1713 1244 -1804 Q 1149 -1852 1035 -1852 Q 899 -1852 784 -1780 Q 669 -1709 594 -1584 Q 521 -1462 482 -1310 Q 443 -1158 443 -994 Q 443 -717 542 -503 Q 594 -388 663 -307 Q 733 -226 827 -180 Q 923 -132 1035 -132 Z"/>
		<path character="p" fill="#CAD1D8" fill-opacity="1.0" stroke="none" stroke-width="10px" stroke-linecap="butt" stroke-opacity="1.0" transform="matrix(1,0,0,1,1997,0)" d="M -69 384 L 237 384 L 237 -1258 L -16 -1258 L -16 -1403 L 509 -1440 L 509 -1170 Q 579 -1302 688 -1371 Q 797 -1440 934 -1440 Q 1095 -1440 1224 -1343 Q 1353 -1246 1425 -1076 Q 1494 -908 1494 -706 Q 1494 -490 1421 -322 Q 1348 -154 1214 -61 Q 1080 32 901 32 Q 785 32 684 -27 Q 583 -87 517 -192 L 517 384 L 805 384 L 805 548 L -69 548 L -69 384 M 850 -132 Q 939 -132 1008 -184 Q 1077 -236 1117 -326 Q 1195 -504 1195 -730 Q 1195 -877 1156 -997 Q 1117 -1118 1038 -1196 Q 957 -1276 850 -1276 Q 747 -1276 667 -1203 Q 587 -1131 543 -1001 Q 499 -871 499 -706 Q 499 -492 579 -321 Q 620 -234 691 -183 Q 762 -132 850 -132 Z"/>
		<path character="e" fill="#CAD1D8" fill-opacity="1.0" stroke="none" stroke-width="10px" stroke-linecap="butt" stroke-opacity="1.0" transform="matrix(1,0,0,1,3610,0)" d="M 776 32 Q 620 32 488 -27 Q 357 -87 271 -191 Q 186 -293 141 -420 Q 96 -548 96 -685 Q 96 -804 124 -914 Q 152 -1025 207 -1119 Q 327 -1324 527 -1400 Q 633 -1440 761 -1440 Q 893 -1440 1008 -1393 Q 1123 -1347 1208 -1260 Q 1296 -1170 1346 -1034 Q 1396 -898 1399 -732 L 395 -732 L 395 -721 Q 395 -477 491 -310 Q 539 -226 620 -179 Q 701 -132 803 -132 Q 895 -132 980 -173 Q 1065 -215 1128 -294 Q 1192 -373 1219 -479 L 1371 -427 Q 1337 -287 1255 -183 Q 1173 -80 1051 -24 Q 929 32 776 32 M 1112 -896 Q 1110 -1007 1063 -1093 Q 1017 -1180 939 -1228 Q 862 -1276 768 -1276 Q 673 -1276 593 -1228 Q 514 -1180 464 -1093 Q 414 -1007 404 -896 L 1112 -896 Z"/>
		<path character="n" fill="#CAD1D8" fill-opacity="1.0" stroke="none" stroke-width="10px" stroke-linecap="butt" stroke-opacity="1.0" transform="matrix(1,0,0,1,5094,0)" d="M 64 -164 L 318 -164 L 318 -1276 L 64 -1276 L 64 -1408 L 557 -1408 L 590 -1148 Q 630 -1239 704 -1305 Q 779 -1371 870 -1405 Q 961 -1440 1054 -1440 Q 1098 -1440 1132 -1436 Q 1167 -1432 1208 -1419 Q 1255 -1405 1291 -1383 Q 1327 -1361 1365 -1324 Q 1404 -1284 1428 -1233 Q 1453 -1182 1470 -1107 Q 1486 -1033 1486 -939 L 1486 -164 L 1753 -164 L 1753 0 L 968 0 L 968 -164 L 1206 -164 L 1206 -945 Q 1206 -1110 1141 -1193 Q 1076 -1276 957 -1276 Q 884 -1276 822 -1248 Q 761 -1221 719 -1173 Q 678 -1126 650 -1061 Q 622 -997 611 -927 Q 598 -861 598 -782 L 598 -164 L 835 -164 L 835 0 L 64 0 L 64 -164 Z"/>
		<path character="S" fill="#CAD1D8" fill-opacity="1.0" stroke="none" stroke-width="10px" stroke-linecap="butt" stroke-opacity="1.0" transform="matrix(1,0,0,1,7552,0)" d="M 880 32 Q 727 32 587 3 Q 447 -26 331 -82 Q 212 -140 144 -234 Q 77 -328 77 -443 Q 77 -514 109 -571 Q 142 -628 196 -660 Q 250 -692 313 -692 Q 369 -692 416 -660 Q 464 -628 492 -575 Q 520 -523 520 -466 Q 520 -379 471 -330 Q 423 -281 336 -269 Q 431 -201 547 -166 Q 664 -132 837 -132 Q 1129 -132 1261 -275 Q 1331 -353 1331 -462 Q 1331 -585 1250 -663 Q 1214 -697 1146 -729 Q 1078 -762 996 -787 Q 902 -815 800 -842 Q 538 -908 381 -996 Q 224 -1084 163 -1194 Q 102 -1302 102 -1455 Q 102 -1615 197 -1743 Q 292 -1872 462 -1944 Q 633 -2016 850 -2016 Q 1039 -2016 1227 -1958 Q 1334 -1925 1410 -1877 Q 1487 -1830 1535 -1760 Q 1585 -1685 1585 -1598 Q 1585 -1483 1525 -1413 Q 1466 -1344 1363 -1344 Q 1305 -1344 1255 -1366 Q 1205 -1389 1175 -1431 Q 1145 -1473 1145 -1526 Q 1145 -1625 1195 -1676 Q 1246 -1728 1323 -1728 Q 1169 -1852 883 -1852 Q 757 -1852 652 -1814 Q 547 -1777 481 -1704 Q 413 -1630 413 -1530 Q 413 -1480 421 -1445 Q 430 -1411 457 -1374 Q 484 -1334 533 -1301 Q 582 -1269 667 -1238 Q 750 -1205 870 -1178 Q 1245 -1092 1430 -973 Q 1516 -917 1569 -845 Q 1623 -774 1645 -698 Q 1664 -625 1664 -529 Q 1664 -355 1573 -228 Q 1482 -102 1306 -35 Q 1130 32 880 32 Z"/>
		<path character="o" fill="#CAD1D8" fill-opacity="1.0" stroke="none" stroke-width="10px" stroke-linecap="butt" stroke-opacity="1.0" transform="matrix(1,0,0,1,9293,0)" d="M 779 32 Q 574 32 419 -62 Q 264 -157 180 -324 Q 96 -491 96 -703 Q 96 -915 176 -1080 Q 257 -1246 412 -1342 Q 568 -1440 776 -1440 Q 930 -1440 1059 -1384 Q 1189 -1328 1276 -1227 Q 1362 -1128 1407 -993 Q 1453 -858 1453 -703 Q 1453 -493 1373 -328 Q 1294 -164 1141 -67 Q 987 32 779 32 M 779 -132 Q 893 -132 978 -200 Q 1064 -268 1109 -392 Q 1155 -517 1155 -681 Q 1155 -861 1116 -990 Q 1077 -1119 992 -1197 Q 905 -1276 776 -1276 Q 650 -1276 561 -1198 Q 473 -1121 434 -986 Q 395 -856 395 -681 Q 395 -517 441 -392 Q 487 -268 574 -200 Q 662 -132 779 -132 Z"/>
		<path character="u" fill="#CAD1D8" fill-opacity="1.0" stroke="none" stroke-width="10px" stroke-linecap="butt" stroke-opacity="1.0" transform="matrix(1,0,0,1,10842,0)" d="M 1147 -242 Q 983 32 677 32 Q 630 32 588 25 Q 547 19 495 2 Q 398 -27 319 -140 Q 281 -193 260 -277 Q 240 -362 240 -468 L 240 -1244 L -5 -1244 L -5 -1408 L 520 -1408 L 520 -464 Q 520 -289 574 -210 Q 629 -132 746 -132 Q 830 -132 921 -182 Q 1013 -232 1076 -313 Q 1138 -394 1138 -476 L 1138 -1244 L 901 -1244 L 901 -1408 L 1419 -1408 L 1419 -133 L 1672 -108 L 1672 2 L 1147 36 L 1147 -242 Z"/>
		<path character="r" fill="#CAD1D8" fill-opacity="1.0" stroke="none" stroke-width="10px" stroke-linecap="butt" stroke-opacity="1.0" transform="matrix(1,0,0,1,12518,0)" d="M 64 -164 L 318 -164 L 318 -1244 L 64 -1244 L 64 -1408 L 557 -1408 L 593 -1108 Q 625 -1223 711 -1324 Q 757 -1378 824 -1409 Q 891 -1440 968 -1440 Q 1039 -1440 1097 -1412 Q 1156 -1385 1190 -1333 Q 1225 -1281 1225 -1211 Q 1225 -1144 1198 -1094 Q 1172 -1044 1126 -1018 Q 1081 -992 1026 -992 Q 949 -992 895 -1040 Q 841 -1088 841 -1164 Q 841 -1189 853 -1217 Q 866 -1246 880 -1265 L 895 -1279 Q 818 -1279 758 -1232 Q 698 -1186 664 -1104 Q 598 -946 598 -754 L 598 -164 L 891 -164 L 891 0 L 64 0 L 64 -164 Z"/>
		<path character="c" fill="#CAD1D8" fill-opacity="1.0" stroke="none" stroke-width="10px" stroke-linecap="butt" stroke-opacity="1.0" transform="matrix(1,0,0,1,13747,0)" d="M 771 32 Q 633 32 508 -17 Q 384 -67 293 -158 Q 201 -250 148 -385 Q 96 -520 96 -676 Q 96 -827 142 -962 Q 188 -1098 273 -1207 Q 361 -1316 498 -1378 Q 635 -1440 802 -1440 Q 897 -1440 993 -1412 Q 1089 -1384 1169 -1330 Q 1254 -1273 1304 -1182 Q 1354 -1091 1354 -981 Q 1354 -927 1329 -877 Q 1305 -828 1258 -798 Q 1211 -768 1150 -768 Q 1064 -768 1006 -822 Q 949 -876 949 -963 Q 949 -1050 1007 -1101 Q 1065 -1152 1150 -1152 Q 1106 -1208 1026 -1242 Q 947 -1276 848 -1276 Q 737 -1276 646 -1227 Q 556 -1178 501 -1093 Q 448 -1011 420 -909 Q 392 -808 392 -701 Q 392 -534 444 -412 Q 496 -291 594 -225 Q 693 -160 830 -160 Q 906 -160 980 -192 Q 1054 -225 1107 -279 Q 1156 -330 1190 -381 Q 1224 -432 1237 -475 L 1384 -426 Q 1350 -286 1267 -183 Q 1184 -81 1057 -24 Q 931 32 771 32 Z"/>
		<path character="e" fill="#CAD1D8" fill-opacity="1.0" stroke="none" stroke-width="10px" stroke-linecap="butt" stroke-opacity="1.0" transform="matrix(1,0,0,1,15232,0)" d="M 776 32 Q 620 32 488 -27 Q 357 -87 271 -191 Q 186 -293 141 -420 Q 96 -548 96 -685 Q 96 -804 124 -914 Q 152 -1025 207 -1119 Q 327 -1324 527 -1400 Q 633 -1440 761 -1440 Q 893 -1440 1008 -1393 Q 1123 -1347 1208 -1260 Q 1296 -1170 1346 -1034 Q 1396 -898 1399 -732 L 395 -732 L 395 -721 Q 395 -477 491 -310 Q 539 -226 620 -179 Q 701 -132 803 -132 Q 895 -132 980 -173 Q 1065 -215 1128 -294 Q 1192 -373 1219 -479 L 1371 -427 Q 1337 -287 1255 -183 Q 1173 -80 1051 -24 Q 929 32 776 32 M 1112 -896 Q 1110 -1007 1063 -1093 Q 1017 -1180 939 -1228 Q 862 -1276 768 -1276 Q 673 -1276 593 -1228 Q 514 -1180 464 -1093 Q 414 -1007 404 -896 L 1112 -896 Z"/>
</g>
</svg>