<svg xmlns="http://www.w3.org/2000/svg" xmlns:xlink="http://www.w3.org/1999/xlink" viewBox="0 0 23296 3679">
<title>Statosio Sandbox</title>
<g transform="matrix(1,0,0,1,0,2752)">
  		<path character="S" fill="#FFFFFF" fill-opacity="1.0" stroke="none" stroke-width="10px" stroke-linecap="butt" stroke-opacity="1.0" transform="matrix(1,0,0,1,-64,0)" d="M 880 32 Q 727 32 587 3 Q 447 -26 331 -82 Q 212 -140 144 -234 Q 77 -328 77 -443 Q 77 -514 109 -571 Q 142 -628 196 -660 Q 250 -692 313 -692 Q 369 -692 416 -660 Q 464 -628 492 -575 Q 520 -523 520 -466 Q 520 -379 471 -330 Q 423 -281 336 -269 Q 431 -201 547 -166 Q 664 -132 837 -132 Q 1129 -132 1261 -275 Q 1331 -353 1331 -462 Q 1331 -585 1250 -663 Q 1214 -697 1146 -729 Q 1078 -762 996 -787 Q 902 -815 800 -842 Q 538 -908 381 -996 Q 224 -1084 163 -1194 Q 102 -1302 102 -1455 Q 102 -1615 197 -1743 Q 292 -1872 462 -1944 Q 633 -2016 850 -2016 Q 1039 -2016 1227 -1958 Q 1334 -1925 1410 -1877 Q 1487 -1830 1535 -1760 Q 1585 -1685 1585 -1598 Q 1585 -1483 1525 -1413 Q 1466 -1344 1363 -1344 Q 1305 -1344 1255 -1366 Q 1205 -1389 1175 -1431 Q 1145 -1473 1145 -1526 Q 1145 -1625 1195 -1676 Q 1246 -1728 1323 -1728 Q 1169 -1852 883 -1852 Q 757 -1852 652 -1814 Q 547 -1777 481 -1704 Q 413 -1630 413 -1530 Q 413 -1480 421 -1445 Q 430 -1411 457 -1374 Q 484 -1334 533 -1301 Q 582 -1269 667 -1238 Q 750 -1205 870 -1178 Q 1245 -1092 1430 -973 Q 1516 -917 1569 -845 Q 1623 -774 1645 -698 Q 1664 -625 1664 -529 Q 1664 -355 1573 -228 Q 1482 -102 1306 -35 Q 1130 32 880 32 Z"/>
		<path character="t" fill="#FFFFFF" fill-opacity="1.0" stroke="none" stroke-width="10px" stroke-linecap="butt" stroke-opacity="1.0" transform="matrix(1,0,0,1,1677,0)" d="M 662 32 Q 494 32 374 -66 Q 311 -117 275 -199 Q 240 -282 240 -384 L 240 -1244 L -26 -1244 L -26 -1312 Q 70 -1342 152 -1420 Q 234 -1499 286 -1597 Q 335 -1687 372 -1778 Q 421 -1893 438 -1926 Q 465 -1984 486 -1984 Q 501 -1984 510 -1972 Q 520 -1960 520 -1937 L 520 -1408 L 1033 -1408 L 1033 -1244 L 520 -1244 L 520 -363 Q 520 -250 570 -191 Q 621 -132 710 -132 Q 818 -132 869 -203 Q 921 -275 921 -443 L 921 -632 L 1077 -632 L 1077 -475 Q 1077 -302 1036 -191 Q 996 -80 905 -24 Q 814 32 662 32 Z"/>
		<path character="a" fill="#FFFFFF" fill-opacity="1.0" stroke="none" stroke-width="10px" stroke-linecap="butt" stroke-opacity="1.0" transform="matrix(1,0,0,1,2842,0)" d="M 464 32 Q 357 32 275 -5 Q 193 -43 147 -114 Q 102 -186 102 -282 Q 102 -358 136 -421 Q 171 -484 230 -527 Q 288 -570 361 -608 Q 435 -646 512 -674 Q 668 -729 793 -801 Q 853 -835 887 -883 Q 921 -932 921 -989 Q 921 -1132 849 -1204 Q 777 -1276 643 -1276 Q 550 -1276 467 -1260 Q 384 -1244 339 -1216 Q 419 -1216 469 -1174 Q 520 -1133 520 -1072 Q 520 -1021 495 -981 Q 471 -941 429 -918 Q 388 -896 339 -896 Q 258 -896 202 -948 Q 147 -1001 147 -1093 Q 147 -1143 182 -1201 Q 217 -1259 281 -1313 Q 348 -1371 459 -1405 Q 570 -1440 699 -1440 Q 807 -1440 894 -1415 Q 982 -1391 1052 -1338 Q 1124 -1284 1162 -1188 Q 1201 -1093 1201 -964 L 1201 -355 Q 1201 -298 1214 -252 Q 1228 -206 1262 -170 Q 1300 -132 1354 -132 Q 1520 -132 1520 -384 L 1520 -595 L 1662 -595 L 1662 -423 Q 1662 -290 1634 -197 Q 1607 -104 1555 -56 Q 1504 -9 1443 11 Q 1382 32 1298 32 Q 1208 32 1133 -2 Q 1059 -36 1007 -107 Q 951 -181 942 -283 Q 905 -192 831 -120 Q 758 -49 661 -8 Q 565 32 464 32 M 531 -132 Q 616 -132 708 -187 Q 801 -243 861 -329 Q 921 -413 921 -492 L 921 -794 Q 846 -713 741 -642 Q 637 -571 551 -529 Q 474 -492 426 -432 Q 379 -372 379 -291 Q 379 -218 418 -175 Q 458 -132 531 -132 Z"/>
		<path character="t" fill="#FFFFFF" fill-opacity="1.0" stroke="none" stroke-width="10px" stroke-linecap="butt" stroke-opacity="1.0" transform="matrix(1,0,0,1,4518,0)" d="M 662 32 Q 494 32 374 -66 Q 311 -117 275 -199 Q 240 -282 240 -384 L 240 -1244 L -26 -1244 L -26 -1312 Q 70 -1342 152 -1420 Q 234 -1499 286 -1597 Q 335 -1687 372 -1778 Q 421 -1893 438 -1926 Q 465 -1984 486 -1984 Q 501 -1984 510 -1972 Q 520 -1960 520 -1937 L 520 -1408 L 1033 -1408 L 1033 -1244 L 520 -1244 L 520 -363 Q 520 -250 570 -191 Q 621 -132 710 -132 Q 818 -132 869 -203 Q 921 -275 921 -443 L 921 -632 L 1077 -632 L 1077 -475 Q 1077 -302 1036 -191 Q 996 -80 905 -24 Q 814 32 662 32 Z"/>
		<path character="o" fill="#FFFFFF" fill-opacity="1.0" stroke="none" stroke-width="10px" stroke-linecap="butt" stroke-opacity="1.0" transform="matrix(1,0,0,1,5683,0)" d="M 779 32 Q 574 32 419 -62 Q 264 -157 180 -324 Q 96 -491 96 -703 Q 96 -915 176 -1080 Q 257 -1246 412 -1342 Q 568 -1440 776 -1440 Q 930 -1440 1059 -1384 Q 1189 -1328 1276 -1227 Q 1362 -1128 1407 -993 Q 1453 -858 1453 -703 Q 1453 -493 1373 -328 Q 1294 -164 1141 -67 Q 987 32 779 32 M 779 -132 Q 893 -132 978 -200 Q 1064 -268 1109 -392 Q 1155 -517 1155 -681 Q 1155 -861 1116 -990 Q 1077 -1119 992 -1197 Q 905 -1276 776 -1276 Q 650 -1276 561 -1198 Q 473 -1121 434 -986 Q 395 -856 395 -681 Q 395 -517 441 -392 Q 487 -268 574 -200 Q 662 -132 779 -132 Z"/>
		<path character="s" fill="#FFFFFF" fill-opacity="1.0" stroke="none" stroke-width="10px" stroke-linecap="butt" stroke-opacity="1.0" transform="matrix(1,0,0,1,7232,0)" d="M 669 32 Q 460 32 292 -47 Q 204 -87 153 -158 Q 103 -229 103 -319 Q 103 -373 127 -418 Q 152 -463 193 -487 Q 234 -512 281 -512 Q 358 -512 407 -469 Q 457 -426 457 -350 Q 457 -306 439 -270 Q 422 -234 392 -213 Q 362 -192 329 -192 Q 380 -166 465 -149 Q 551 -132 635 -132 Q 744 -132 820 -152 Q 896 -173 949 -224 Q 1005 -275 1005 -359 Q 1005 -420 967 -469 Q 930 -518 866 -546 Q 724 -609 560 -652 Q 475 -674 395 -707 Q 315 -741 254 -782 Q 189 -825 152 -893 Q 115 -961 115 -1047 Q 115 -1132 152 -1202 Q 189 -1272 250 -1317 Q 307 -1359 382 -1388 Q 457 -1418 529 -1430 Q 602 -1440 662 -1440 Q 755 -1440 851 -1418 Q 947 -1397 1030 -1358 Q 1115 -1317 1165 -1252 Q 1216 -1187 1216 -1113 Q 1216 -1055 1193 -1009 Q 1171 -963 1132 -937 Q 1093 -912 1048 -912 Q 971 -912 920 -956 Q 870 -1000 870 -1073 Q 870 -1106 887 -1136 Q 904 -1167 923 -1182 L 969 -1212 Q 840 -1276 677 -1276 Q 587 -1276 514 -1250 Q 441 -1224 399 -1174 Q 358 -1124 358 -1056 Q 358 -1007 396 -967 Q 434 -928 499 -905 Q 650 -847 806 -806 Q 889 -783 970 -746 Q 1051 -709 1115 -663 Q 1180 -617 1217 -543 Q 1254 -470 1254 -380 Q 1254 -289 1220 -216 Q 1186 -143 1129 -96 Q 1076 -51 999 -21 Q 922 9 839 20 Q 759 32 669 32 Z"/>
		<path character="i" fill="#FFFFFF" fill-opacity="1.0" stroke="none" stroke-width="10px" stroke-linecap="butt" stroke-opacity="1.0" transform="matrix(1,0,0,1,8589,0)" d="M 438 -1632 Q 385 -1632 341 -1658 Q 297 -1684 271 -1728 Q 245 -1772 245 -1822 Q 245 -1875 271 -1919 Q 297 -1964 341 -1990 Q 385 -2016 438 -2016 Q 488 -2016 533 -1989 Q 578 -1963 605 -1918 Q 632 -1874 632 -1822 Q 632 -1772 605 -1728 Q 578 -1684 533 -1658 Q 488 -1632 438 -1632 M 72 0 L 72 -164 L 323 -164 L 323 -1244 L 69 -1244 L 69 -1408 L 603 -1408 L 603 -164 L 858 -164 L 858 0 L 72 0 Z"/>
		<path character="o" fill="#FFFFFF" fill-opacity="1.0" stroke="none" stroke-width="10px" stroke-linecap="butt" stroke-opacity="1.0" transform="matrix(1,0,0,1,9498,0)" d="M 779 32 Q 574 32 419 -62 Q 264 -157 180 -324 Q 96 -491 96 -703 Q 96 -915 176 -1080 Q 257 -1246 412 -1342 Q 568 -1440 776 -1440 Q 930 -1440 1059 -1384 Q 1189 -1328 1276 -1227 Q 1362 -1128 1407 -993 Q 1453 -858 1453 -703 Q 1453 -493 1373 -328 Q 1294 -164 1141 -67 Q 987 32 779 32 M 779 -132 Q 893 -132 978 -200 Q 1064 -268 1109 -392 Q 1155 -517 1155 -681 Q 1155 -861 1116 -990 Q 1077 -1119 992 -1197 Q 905 -1276 776 -1276 Q 650 -1276 561 -1198 Q 473 -1121 434 -986 Q 395 -856 395 -681 Q 395 -517 441 -392 Q 487 -268 574 -200 Q 662 -132 779 -132 Z"/>
		<path character="S" fill="#FFFFFF" fill-opacity="1.0" stroke="none" stroke-width="10px" stroke-linecap="butt" stroke-opacity="1.0" transform="matrix(1,0,0,1,11699,0)" d="M 880 32 Q 727 32 587 3 Q 447 -26 331 -82 Q 212 -140 144 -234 Q 77 -328 77 -443 Q 77 -514 109 -571 Q 142 -628 196 -660 Q 250 -692 313 -692 Q 369 -692 416 -660 Q 464 -628 492 -575 Q 520 -523 520 -466 Q 520 -379 471 -330 Q 423 -281 336 -269 Q 431 -201 547 -166 Q 664 -132 837 -132 Q 1129 -132 1261 -275 Q 1331 -353 1331 -462 Q 1331 -585 1250 -663 Q 1214 -697 1146 -729 Q 1078 -762 996 -787 Q 902 -815 800 -842 Q 538 -908 381 -996 Q 224 -1084 163 -1194 Q 102 -1302 102 -1455 Q 102 -1615 197 -1743 Q 292 -1872 462 -1944 Q 633 -2016 850 -2016 Q 1039 -2016 1227 -1958 Q 1334 -1925 1410 -1877 Q 1487 -1830 1535 -1760 Q 1585 -1685 1585 -1598 Q 1585 -1483 1525 -1413 Q 1466 -1344 1363 -1344 Q 1305 -1344 1255 -1366 Q 1205 -1389 1175 -1431 Q 1145 -1473 1145 -1526 Q 1145 -1625 1195 -1676 Q 1246 -1728 1323 -1728 Q 1169 -1852 883 -1852 Q 757 -1852 652 -1814 Q 547 -1777 481 -1704 Q 413 -1630 413 -1530 Q 413 -1480 421 -1445 Q 430 -1411 457 -1374 Q 484 -1334 533 -1301 Q 582 -1269 667 -1238 Q 750 -1205 870 -1178 Q 1245 -1092 1430 -973 Q 1516 -917 1569 -845 Q 1623 -774 1645 -698 Q 1664 -625 1664 -529 Q 1664 -355 1573 -228 Q 1482 -102 1306 -35 Q 1130 32 880 32 Z"/>
		<path character="a" fill="#FFFFFF" fill-opacity="1.0" stroke="none" stroke-width="10px" stroke-linecap="butt" stroke-opacity="1.0" transform="matrix(1,0,0,1,13440,0)" d="M 464 32 Q 357 32 275 -5 Q 193 -43 147 -114 Q 102 -186 102 -282 Q 102 -358 136 -421 Q 171 -484 230 -527 Q 288 -570 361 -608 Q 435 -646 512 -674 Q 668 -729 793 -801 Q 853 -835 887 -883 Q 921 -932 921 -989 Q 921 -1132 849 -1204 Q 777 -1276 643 -1276 Q 550 -1276 467 -1260 Q 384 -1244 339 -1216 Q 419 -1216 469 -1174 Q 520 -1133 520 -1072 Q 520 -1021 495 -981 Q 471 -941 429 -918 Q 388 -896 339 -896 Q 258 -896 202 -948 Q 147 -1001 147 -1093 Q 147 -1143 182 -1201 Q 217 -1259 281 -1313 Q 348 -1371 459 -1405 Q 570 -1440 699 -1440 Q 807 -1440 894 -1415 Q 982 -1391 1052 -1338 Q 1124 -1284 1162 -1188 Q 1201 -1093 1201 -964 L 1201 -355 Q 1201 -298 1214 -252 Q 1228 -206 1262 -170 Q 1300 -132 1354 -132 Q 1520 -132 1520 -384 L 1520 -595 L 1662 -595 L 1662 -423 Q 1662 -290 1634 -197 Q 1607 -104 1555 -56 Q 1504 -9 1443 11 Q 1382 32 1298 32 Q 1208 32 1133 -2 Q 1059 -36 1007 -107 Q 951 -181 942 -283 Q 905 -192 831 -120 Q 758 -49 661 -8 Q 565 32 464 32 M 531 -132 Q 616 -132 708 -187 Q 801 -243 861 -329 Q 921 -413 921 -492 L 921 -794 Q 846 -713 741 -642 Q 637 -571 551 -529 Q 474 -492 426 -432 Q 379 -372 379 -291 Q 379 -218 418 -175 Q 458 -132 531 -132 Z"/>
		<path character="n" fill="#FFFFFF" fill-opacity="1.0" stroke="none" stroke-width="10px" stroke-linecap="butt" stroke-opacity="1.0" transform="matrix(1,0,0,1,15117,0)" d="M 64 -164 L 318 -164 L 318 -1276 L 64 -1276 L 64 -1408 L 557 -1408 L 590 -1148 Q 630 -1239 704 -1305 Q 779 -1371 870 -1405 Q 961 -1440 1054 -1440 Q 1098 -1440 1132 -1436 Q 1167 -1432 1208 -1419 Q 1255 -1405 1291 -1383 Q 1327 -1361 1365 -1324 Q 1404 -1284 1428 -1233 Q 1453 -1182 1470 -1107 Q 1486 -1033 1486 -939 L 1486 -164 L 1753 -164 L 1753 0 L 968 0 L 968 -164 L 1206 -164 L 1206 -945 Q 1206 -1110 1141 -1193 Q 1076 -1276 957 -1276 Q 884 -1276 822 -1248 Q 761 -1221 719 -1173 Q 678 -1126 650 -1061 Q 622 -997 611 -927 Q 598 -861 598 -782 L 598 -164 L 835 -164 L 835 0 L 64 0 L 64 -164 Z"/>
		<path character="d" fill="#FFFFFF" fill-opacity="1.0" stroke="none" stroke-width="10px" stroke-linecap="butt" stroke-opacity="1.0" transform="matrix(1,0,0,1,16922,0)" d="M 677 32 Q 507 32 376 -59 Q 246 -151 175 -317 Q 104 -484 104 -703 Q 104 -924 176 -1090 Q 249 -1257 383 -1348 Q 517 -1440 697 -1440 Q 806 -1440 910 -1376 Q 1014 -1313 1080 -1204 L 1080 -1820 L 774 -1820 L 774 -1984 L 1360 -1984 L 1360 -164 L 1595 -164 L 1595 0 L 1133 0 L 1082 -236 Q 1017 -111 905 -39 Q 794 32 677 32 M 733 -132 Q 837 -132 921 -206 Q 1005 -281 1052 -413 Q 1099 -545 1099 -710 Q 1099 -925 1016 -1091 Q 973 -1177 902 -1226 Q 831 -1276 744 -1276 Q 656 -1276 588 -1226 Q 520 -1176 479 -1087 Q 402 -916 402 -688 Q 402 -370 548 -216 Q 625 -132 733 -132 Z"/>
		<path character="b" fill="#FFFFFF" fill-opacity="1.0" stroke="none" stroke-width="10px" stroke-linecap="butt" stroke-opacity="1.0" transform="matrix(1,0,0,1,18534,0)" d="M 856 32 Q 706 32 582 -43 Q 458 -119 397 -265 L 296 0 L 176 0 L 176 -1820 L -94 -1820 L -94 -1984 L 456 -1984 L 456 -1212 Q 522 -1319 624 -1379 Q 727 -1440 843 -1440 Q 1021 -1440 1157 -1347 Q 1294 -1254 1368 -1086 Q 1443 -918 1443 -703 Q 1443 -496 1369 -329 Q 1296 -162 1162 -66 Q 1027 32 856 32 M 802 -132 Q 905 -132 986 -211 Q 1068 -290 1107 -418 Q 1145 -544 1145 -682 Q 1145 -908 1069 -1083 Q 1029 -1172 960 -1224 Q 891 -1276 802 -1276 Q 719 -1276 648 -1227 Q 578 -1178 538 -1096 Q 497 -1017 476 -930 Q 456 -843 456 -758 Q 456 -583 497 -442 Q 539 -301 617 -218 Q 697 -132 802 -132 Z"/>
		<path character="o" fill="#FFFFFF" fill-opacity="1.0" stroke="none" stroke-width="10px" stroke-linecap="butt" stroke-opacity="1.0" transform="matrix(1,0,0,1,20083,0)" d="M 779 32 Q 574 32 419 -62 Q 264 -157 180 -324 Q 96 -491 96 -703 Q 96 -915 176 -1080 Q 257 -1246 412 -1342 Q 568 -1440 776 -1440 Q 930 -1440 1059 -1384 Q 1189 -1328 1276 -1227 Q 1362 -1128 1407 -993 Q 1453 -858 1453 -703 Q 1453 -493 1373 -328 Q 1294 -164 1141 -67 Q 987 32 779 32 M 779 -132 Q 893 -132 978 -200 Q 1064 -268 1109 -392 Q 1155 -517 1155 -681 Q 1155 -861 1116 -990 Q 1077 -1119 992 -1197 Q 905 -1276 776 -1276 Q 650 -1276 561 -1198 Q 473 -1121 434 -986 Q 395 -856 395 -681 Q 395 -517 441 -392 Q 487 -268 574 -200 Q 662 -132 779 -132 Z"/>
		<path character="x" fill="#FFFFFF" fill-opacity="1.0" stroke="none" stroke-width="10px" stroke-linecap="butt" stroke-opacity="1.0" transform="matrix(1,0,0,1,21632,0)" d="M 35 0 L 35 -164 L 240 -164 L 680 -682 L 219 -1244 L 5 -1244 L 5 -1408 L 744 -1408 L 744 -1244 L 550 -1244 L 843 -849 L 1138 -1244 L 929 -1244 L 929 -1408 L 1585 -1408 L 1585 -1244 L 1371 -1244 L 960 -741 L 1445 -164 L 1662 -164 L 1662 0 L 888 0 L 888 -164 L 1120 -164 L 810 -575 L 471 -164 L 707 -164 L 707 0 L 35 0 Z"/>
</g>
</svg>