<svg xmlns="http://www.w3.org/2000/svg" xmlns:xlink="http://www.w3.org/1999/xlink" viewBox="0 0 22708 3679">
<title>Support my work</title>
<g transform="matrix(1,0,0,1,0,2752)">
  		<path character="S" fill="#CAD1D8" fill-opacity="1.0" stroke="none" stroke-width="10px" stroke-linecap="butt" stroke-opacity="1.0" transform="matrix(1,0,0,1,-64,0)" d="M 880 32 Q 727 32 587 3 Q 447 -26 331 -82 Q 212 -140 144 -234 Q 77 -328 77 -443 Q 77 -514 109 -571 Q 142 -628 196 -660 Q 250 -692 313 -692 Q 369 -692 416 -660 Q 464 -628 492 -575 Q 520 -523 520 -466 Q 520 -379 471 -330 Q 423 -281 336 -269 Q 431 -201 547 -166 Q 664 -132 837 -132 Q 1129 -132 1261 -275 Q 1331 -353 1331 -462 Q 1331 -585 1250 -663 Q 1214 -697 1146 -729 Q 1078 -762 996 -787 Q 902 -815 800 -842 Q 538 -908 381 -996 Q 224 -1084 163 -1194 Q 102 -1302 102 -1455 Q 102 -1615 197 -1743 Q 292 -1872 462 -1944 Q 633 -2016 850 -2016 Q 1039 -2016 1227 -1958 Q 1334 -1925 1410 -1877 Q 1487 -1830 1535 -1760 Q 1585 -1685 1585 -1598 Q 1585 -1483 1525 -1413 Q 1466 -1344 1363 -1344 Q 1305 -1344 1255 -1366 Q 1205 -1389 1175 -1431 Q 1145 -1473 1145 -1526 Q 1145 -1625 1195 -1676 Q 1246 -1728 1323 -1728 Q 1169 -1852 883 -1852 Q 757 -1852 652 -1814 Q 547 -1777 481 -1704 Q 413 -1630 413 -1530 Q 413 -1480 421 -1445 Q 430 -1411 457 -1374 Q 484 -1334 533 -1301 Q 582 -1269 667 -1238 Q 750 -1205 870 -1178 Q 1245 -1092 1430 -973 Q 1516 -917 1569 -845 Q 1623 -774 1645 -698 Q 1664 -625 1664 -529 Q 1664 -355 1573 -228 Q 1482 -102 1306 -35 Q 1130 32 880 32 Z"/>
		<path character="u" fill="#CAD1D8" fill-opacity="1.0" stroke="none" stroke-width="10px" stroke-linecap="butt" stroke-opacity="1.0" transform="matrix(1,0,0,1,1677,0)" d="M 1147 -242 Q 983 32 677 32 Q 630 32 588 25 Q 547 19 495 2 Q 398 -27 319 -140 Q 281 -193 260 -277 Q 240 -362 240 -468 L 240 -1244 L -5 -1244 L -5 -1408 L 520 -1408 L 520 -464 Q 520 -289 574 -210 Q 629 -132 746 -132 Q 830 -132 921 -182 Q 1013 -232 1076 -313 Q 1138 -394 1138 -476 L 1138 -1244 L 901 -1244 L 901 -1408 L 1419 -1408 L 1419 -133 L 1672 -108 L 1672 2 L 1147 36 L 1147 -242 Z"/>
		<path character="p" fill="#CAD1D8" fill-opacity="1.0" stroke="none" stroke-width="10px" stroke-linecap="butt" stroke-opacity="1.0" transform="matrix(1,0,0,1,3354,0)" d="M -69 384 L 237 384 L 237 -1258 L -16 -1258 L -16 -1403 L 509 -1440 L 509 -1170 Q 579 -1302 688 -1371 Q 797 -1440 934 -1440 Q 1095 -1440 1224 -1343 Q 1353 -1246 1425 -1076 Q 1494 -908 1494 -706 Q 1494 -490 1421 -322 Q 1348 -154 1214 -61 Q 1080 32 901 32 Q 785 32 684 -27 Q 583 -87 517 -192 L 517 384 L 805 384 L 805 548 L -69 548 L -69 384 M 850 -132 Q 939 -132 1008 -184 Q 1077 -236 1117 -326 Q 1195 -504 1195 -730 Q 1195 -877 1156 -997 Q 1117 -1118 1038 -1196 Q 957 -1276 850 -1276 Q 747 -1276 667 -1203 Q 587 -1131 543 -1001 Q 499 -871 499 -706 Q 499 -492 579 -321 Q 620 -234 691 -183 Q 762 -132 850 -132 Z"/>
		<path character="p" fill="#CAD1D8" fill-opacity="1.0" stroke="none" stroke-width="10px" stroke-linecap="butt" stroke-opacity="1.0" transform="matrix(1,0,0,1,4966,0)" d="M -69 384 L 237 384 L 237 -1258 L -16 -1258 L -16 -1403 L 509 -1440 L 509 -1170 Q 579 -1302 688 -1371 Q 797 -1440 934 -1440 Q 1095 -1440 1224 -1343 Q 1353 -1246 1425 -1076 Q 1494 -908 1494 -706 Q 1494 -490 1421 -322 Q 1348 -154 1214 -61 Q 1080 32 901 32 Q 785 32 684 -27 Q 583 -87 517 -192 L 517 384 L 805 384 L 805 548 L -69 548 L -69 384 M 850 -132 Q 939 -132 1008 -184 Q 1077 -236 1117 -326 Q 1195 -504 1195 -730 Q 1195 -877 1156 -997 Q 1117 -1118 1038 -1196 Q 957 -1276 850 -1276 Q 747 -1276 667 -1203 Q 587 -1131 543 -1001 Q 499 -871 499 -706 Q 499 -492 579 -321 Q 620 -234 691 -183 Q 762 -132 850 -132 Z"/>
		<path character="o" fill="#CAD1D8" fill-opacity="1.0" stroke="none" stroke-width="10px" stroke-linecap="butt" stroke-opacity="1.0" transform="matrix(1,0,0,1,6579,0)" d="M 779 32 Q 574 32 419 -62 Q 264 -157 180 -324 Q 96 -491 96 -703 Q 96 -915 176 -1080 Q 257 -1246 412 -1342 Q 568 -1440 776 -1440 Q 930 -1440 1059 -1384 Q 1189 -1328 1276 -1227 Q 1362 -1128 1407 -993 Q 1453 -858 1453 -703 Q 1453 -493 1373 -328 Q 1294 -164 1141 -67 Q 987 32 779 32 M 779 -132 Q 893 -132 978 -200 Q 1064 -268 1109 -392 Q 1155 -517 1155 -681 Q 1155 -861 1116 -990 Q 1077 -1119 992 -1197 Q 905 -1276 776 -1276 Q 650 -1276 561 -1198 Q 473 -1121 434 -986 Q 395 -856 395 -681 Q 395 -517 441 -392 Q 487 -268 574 -200 Q 662 -132 779 -132 Z"/>
		<path character="r" fill="#CAD1D8" fill-opacity="1.0" stroke="none" stroke-width="10px" stroke-linecap="butt" stroke-opacity="1.0" transform="matrix(1,0,0,1,8128,0)" d="M 64 -164 L 318 -164 L 318 -1244 L 64 -1244 L 64 -1408 L 557 -1408 L 593 -1108 Q 625 -1223 711 -1324 Q 757 -1378 824 -1409 Q 891 -1440 968 -1440 Q 1039 -1440 1097 -1412 Q 1156 -1385 1190 -1333 Q 1225 -1281 1225 -1211 Q 1225 -1144 1198 -1094 Q 1172 -1044 1126 -1018 Q 1081 -992 1026 -992 Q 949 -992 895 -1040 Q 841 -1088 841 -1164 Q 841 -1189 853 -1217 Q 866 -1246 880 -1265 L 895 -1279 Q 818 -1279 758 -1232 Q 698 -1186 664 -1104 Q 598 -946 598 -754 L 598 -164 L 891 -164 L 891 0 L 64 0 L 64 -164 Z"/>
		<path character="t" fill="#CAD1D8" fill-opacity="1.0" stroke="none" stroke-width="10px" stroke-linecap="butt" stroke-opacity="1.0" transform="matrix(1,0,0,1,9357,0)" d="M 662 32 Q 494 32 374 -66 Q 311 -117 275 -199 Q 240 -282 240 -384 L 240 -1244 L -26 -1244 L -26 -1312 Q 70 -1342 152 -1420 Q 234 -1499 286 -1597 Q 335 -1687 372 -1778 Q 421 -1893 438 -1926 Q 465 -1984 486 -1984 Q 501 -1984 510 -1972 Q 520 -1960 520 -1937 L 520 -1408 L 1033 -1408 L 1033 -1244 L 520 -1244 L 520 -363 Q 520 -250 570 -191 Q 621 -132 710 -132 Q 818 -132 869 -203 Q 921 -275 921 -443 L 921 -632 L 1077 -632 L 1077 -475 Q 1077 -302 1036 -191 Q 996 -80 905 -24 Q 814 32 662 32 Z"/>
		<path character="m" fill="#CAD1D8" fill-opacity="1.0" stroke="none" stroke-width="10px" stroke-linecap="butt" stroke-opacity="1.0" transform="matrix(1,0,0,1,11174,0)" d="M 64 -164 L 318 -164 L 318 -1276 L 64 -1276 L 64 -1408 L 557 -1408 L 590 -1148 Q 616 -1223 665 -1282 Q 715 -1341 777 -1375 Q 897 -1440 1030 -1440 Q 1081 -1440 1116 -1435 Q 1151 -1431 1195 -1417 Q 1245 -1401 1281 -1373 Q 1317 -1345 1350 -1294 Q 1383 -1244 1405 -1170 Q 1466 -1306 1575 -1373 Q 1684 -1440 1822 -1440 Q 1866 -1440 1900 -1436 Q 1935 -1432 1977 -1419 Q 2024 -1405 2059 -1383 Q 2095 -1361 2133 -1324 Q 2172 -1284 2197 -1233 Q 2222 -1182 2239 -1107 Q 2254 -1033 2254 -939 L 2254 -164 L 2494 -164 L 2494 0 L 1763 0 L 1763 -164 L 1974 -164 L 1974 -945 Q 1974 -1110 1909 -1193 Q 1844 -1276 1725 -1276 Q 1636 -1276 1569 -1237 Q 1503 -1198 1467 -1129 Q 1432 -1060 1432 -971 L 1432 -164 L 1656 -164 L 1656 0 L 929 0 L 929 -164 L 1152 -164 L 1152 -945 Q 1152 -1110 1087 -1193 Q 1022 -1276 904 -1276 Q 831 -1276 774 -1248 Q 718 -1220 684 -1173 Q 652 -1129 632 -1063 Q 612 -997 604 -928 Q 598 -854 598 -782 L 598 -164 L 822 -164 L 822 0 L 64 0 L 64 -164 Z"/>
		<path character="y" fill="#CAD1D8" fill-opacity="1.0" stroke="none" stroke-width="10px" stroke-linecap="butt" stroke-opacity="1.0" transform="matrix(1,0,0,1,13683,0)" d="M 469 652 Q 350 652 258 614 Q 167 576 115 508 Q 64 441 64 354 Q 64 260 124 200 Q 185 141 288 141 Q 366 141 408 195 Q 451 250 451 335 Q 451 382 421 421 Q 391 460 341 484 Q 395 512 427 512 Q 544 512 622 405 Q 701 298 741 62 L 224 -1244 L -35 -1244 L -35 -1408 L 768 -1408 L 768 -1244 L 531 -1244 L 909 -198 L 1232 -1244 L 1016 -1244 L 1016 -1408 L 1685 -1408 L 1685 -1244 L 1461 -1244 L 1013 37 Q 936 264 855 398 Q 775 533 681 592 Q 587 652 469 652 Z"/>
		<path character="w" fill="#CAD1D8" fill-opacity="1.0" stroke="none" stroke-width="10px" stroke-linecap="butt" stroke-opacity="1.0" transform="matrix(1,0,0,1,16013,0)" d="M 690 32 Q 628 32 590 -9 Q 552 -51 525 -150 L 229 -1244 L 10 -1244 L 10 -1408 L 741 -1408 L 741 -1244 L 531 -1244 L 749 -295 L 1054 -1242 L 1291 -1242 L 1573 -287 L 1817 -1244 L 1598 -1244 L 1598 -1408 L 2198 -1408 L 2198 -1244 L 2013 -1244 L 1718 -157 Q 1698 -82 1677 -41 Q 1656 -1 1625 15 Q 1595 32 1547 32 Q 1481 32 1442 -8 Q 1404 -49 1376 -147 L 1147 -969 L 878 -159 Q 853 -85 829 -44 Q 805 -4 772 14 Q 740 32 690 32 Z"/>
		<path character="o" fill="#CAD1D8" fill-opacity="1.0" stroke="none" stroke-width="10px" stroke-linecap="butt" stroke-opacity="1.0" transform="matrix(1,0,0,1,18202,0)" d="M 779 32 Q 574 32 419 -62 Q 264 -157 180 -324 Q 96 -491 96 -703 Q 96 -915 176 -1080 Q 257 -1246 412 -1342 Q 568 -1440 776 -1440 Q 930 -1440 1059 -1384 Q 1189 -1328 1276 -1227 Q 1362 -1128 1407 -993 Q 1453 -858 1453 -703 Q 1453 -493 1373 -328 Q 1294 -164 1141 -67 Q 987 32 779 32 M 779 -132 Q 893 -132 978 -200 Q 1064 -268 1109 -392 Q 1155 -517 1155 -681 Q 1155 -861 1116 -990 Q 1077 -1119 992 -1197 Q 905 -1276 776 -1276 Q 650 -1276 561 -1198 Q 473 -1121 434 -986 Q 395 -856 395 -681 Q 395 -517 441 -392 Q 487 -268 574 -200 Q 662 -132 779 -132 Z"/>
		<path character="r" fill="#CAD1D8" fill-opacity="1.0" stroke="none" stroke-width="10px" stroke-linecap="butt" stroke-opacity="1.0" transform="matrix(1,0,0,1,19750,0)" d="M 64 -164 L 318 -164 L 318 -1244 L 64 -1244 L 64 -1408 L 557 -1408 L 593 -1108 Q 625 -1223 711 -1324 Q 757 -1378 824 -1409 Q 891 -1440 968 -1440 Q 1039 -1440 1097 -1412 Q 1156 -1385 1190 -1333 Q 1225 -1281 1225 -1211 Q 1225 -1144 1198 -1094 Q 1172 -1044 1126 -1018 Q 1081 -992 1026 -992 Q 949 -992 895 -1040 Q 841 -1088 841 -1164 Q 841 -1189 853 -1217 Q 866 -1246 880 -1265 L 895 -1279 Q 818 -1279 758 -1232 Q 698 -1186 664 -1104 Q 598 -946 598 -754 L 598 -164 L 891 -164 L 891 0 L 64 0 L 64 -164 Z"/>
		<path character="k" fill="#CAD1D8" fill-opacity="1.0" stroke="none" stroke-width="10px" stroke-linecap="butt" stroke-opacity="1.0" transform="matrix(1,0,0,1,20979,0)" d="M 1472 32 Q 1336 32 1236 -37 Q 1136 -107 1051 -251 L 789 -697 L 573 -530 L 573 -164 L 794 -164 L 794 0 L 30 0 L 30 -164 L 293 -164 L 293 -1820 L 30 -1820 L 30 -1984 L 573 -1984 L 573 -732 L 1117 -1244 L 873 -1244 L 873 -1408 L 1654 -1408 L 1654 -1244 L 1405 -1244 L 955 -808 Q 992 -755 1057 -649 Q 1126 -535 1174 -464 Q 1222 -393 1279 -321 Q 1340 -243 1404 -201 Q 1469 -160 1531 -160 Q 1607 -160 1667 -189 L 1705 -33 Q 1645 6 1595 19 Q 1546 32 1472 32 Z"/>
</g>
</svg>