<svg xmlns="http://www.w3.org/2000/svg" xmlns:xlink="http://www.w3.org/1999/xlink" viewBox="0 0 12301 3679">
<title>Welcome</title>
<g transform="matrix(1,0,0,1,0,2752)">
  		<path character="W" fill="#CAD1D8" fill-opacity="1.0" stroke="none" stroke-width="10px" stroke-linecap="butt" stroke-opacity="1.0" transform="matrix(1,0,0,1,0,0)" d="M 2878 -1984 L 2878 -1820 L 2641 -1820 L 2186 -155 Q 2160 -78 2140 -40 Q 2120 -2 2092 15 Q 2064 32 2018 32 Q 1974 32 1948 15 Q 1923 -1 1905 -38 Q 1887 -76 1865 -153 L 1520 -1343 Q 1520 -1340 1466 -1149 L 1439 -1046 L 1409 -940 Q 1352 -731 1274 -450 L 1192 -153 Q 1164 -53 1123 -10 Q 1083 32 1013 32 Q 947 32 909 -9 Q 871 -50 840 -155 L 336 -1820 L 38 -1820 L 38 -1984 L 944 -1984 L 944 -1820 L 669 -1820 L 1048 -417 L 1425 -1820 L 1685 -1820 L 2064 -417 L 2420 -1820 L 2155 -1820 L 2155 -1984 L 2878 -1984 Z"/>
		<path character="e" fill="#CAD1D8" fill-opacity="1.0" stroke="none" stroke-width="10px" stroke-linecap="butt" stroke-opacity="1.0" transform="matrix(1,0,0,1,2957,0)" d="M 776 32 Q 620 32 488 -27 Q 357 -87 271 -191 Q 186 -293 141 -420 Q 96 -548 96 -685 Q 96 -804 124 -914 Q 152 -1025 207 -1119 Q 327 -1324 527 -1400 Q 633 -1440 761 -1440 Q 893 -1440 1008 -1393 Q 1123 -1347 1208 -1260 Q 1296 -1170 1346 -1034 Q 1396 -898 1399 -732 L 395 -732 L 395 -721 Q 395 -477 491 -310 Q 539 -226 620 -179 Q 701 -132 803 -132 Q 895 -132 980 -173 Q 1065 -215 1128 -294 Q 1192 -373 1219 -479 L 1371 -427 Q 1337 -287 1255 -183 Q 1173 -80 1051 -24 Q 929 32 776 32 M 1112 -896 Q 1110 -1007 1063 -1093 Q 1017 -1180 939 -1228 Q 862 -1276 768 -1276 Q 673 -1276 593 -1228 Q 514 -1180 464 -1093 Q 414 -1007 404 -896 L 1112 -896 Z"/>
		<path character="l" fill="#CAD1D8" fill-opacity="1.0" stroke="none" stroke-width="10px" stroke-linecap="butt" stroke-opacity="1.0" transform="matrix(1,0,0,1,4442,0)" d="M 48 0 L 48 -164 L 339 -164 L 339 -1820 L 48 -1820 L 48 -1984 L 619 -1984 L 619 -164 L 899 -164 L 899 0 L 48 0 Z"/>
		<path character="c" fill="#CAD1D8" fill-opacity="1.0" stroke="none" stroke-width="10px" stroke-linecap="butt" stroke-opacity="1.0" transform="matrix(1,0,0,1,5350,0)" d="M 771 32 Q 633 32 508 -17 Q 384 -67 293 -158 Q 201 -250 148 -385 Q 96 -520 96 -676 Q 96 -827 142 -962 Q 188 -1098 273 -1207 Q 361 -1316 498 -1378 Q 635 -1440 802 -1440 Q 897 -1440 993 -1412 Q 1089 -1384 1169 -1330 Q 1254 -1273 1304 -1182 Q 1354 -1091 1354 -981 Q 1354 -927 1329 -877 Q 1305 -828 1258 -798 Q 1211 -768 1150 -768 Q 1064 -768 1006 -822 Q 949 -876 949 -963 Q 949 -1050 1007 -1101 Q 1065 -1152 1150 -1152 Q 1106 -1208 1026 -1242 Q 947 -1276 848 -1276 Q 737 -1276 646 -1227 Q 556 -1178 501 -1093 Q 448 -1011 420 -909 Q 392 -808 392 -701 Q 392 -534 444 -412 Q 496 -291 594 -225 Q 693 -160 830 -160 Q 906 -160 980 -192 Q 1054 -225 1107 -279 Q 1156 -330 1190 -381 Q 1224 -432 1237 -475 L 1384 -426 Q 1350 -286 1267 -183 Q 1184 -81 1057 -24 Q 931 32 771 32 Z"/>
		<path character="o" fill="#CAD1D8" fill-opacity="1.0" stroke="none" stroke-width="10px" stroke-linecap="butt" stroke-opacity="1.0" transform="matrix(1,0,0,1,6835,0)" d="M 779 32 Q 574 32 419 -62 Q 264 -157 180 -324 Q 96 -491 96 -703 Q 96 -915 176 -1080 Q 257 -1246 412 -1342 Q 568 -1440 776 -1440 Q 930 -1440 1059 -1384 Q 1189 -1328 1276 -1227 Q 1362 -1128 1407 -993 Q 1453 -858 1453 -703 Q 1453 -493 1373 -328 Q 1294 -164 1141 -67 Q 987 32 779 32 M 779 -132 Q 893 -132 978 -200 Q 1064 -268 1109 -392 Q 1155 -517 1155 -681 Q 1155 -861 1116 -990 Q 1077 -1119 992 -1197 Q 905 -1276 776 -1276 Q 650 -1276 561 -1198 Q 473 -1121 434 -986 Q 395 -856 395 -681 Q 395 -517 441 -392 Q 487 -268 574 -200 Q 662 -132 779 -132 Z"/>
		<path character="m" fill="#CAD1D8" fill-opacity="1.0" stroke="none" stroke-width="10px" stroke-linecap="butt" stroke-opacity="1.0" transform="matrix(1,0,0,1,8384,0)" d="M 64 -164 L 318 -164 L 318 -1276 L 64 -1276 L 64 -1408 L 557 -1408 L 590 -1148 Q 616 -1223 665 -1282 Q 715 -1341 777 -1375 Q 897 -1440 1030 -1440 Q 1081 -1440 1116 -1435 Q 1151 -1431 1195 -1417 Q 1245 -1401 1281 -1373 Q 1317 -1345 1350 -1294 Q 1383 -1244 1405 -1170 Q 1466 -1306 1575 -1373 Q 1684 -1440 1822 -1440 Q 1866 -1440 1900 -1436 Q 1935 -1432 1977 -1419 Q 2024 -1405 2059 -1383 Q 2095 -1361 2133 -1324 Q 2172 -1284 2197 -1233 Q 2222 -1182 2239 -1107 Q 2254 -1033 2254 -939 L 2254 -164 L 2494 -164 L 2494 0 L 1763 0 L 1763 -164 L 1974 -164 L 1974 -945 Q 1974 -1110 1909 -1193 Q 1844 -1276 1725 -1276 Q 1636 -1276 1569 -1237 Q 1503 -1198 1467 -1129 Q 1432 -1060 1432 -971 L 1432 -164 L 1656 -164 L 1656 0 L 929 0 L 929 -164 L 1152 -164 L 1152 -945 Q 1152 -1110 1087 -1193 Q 1022 -1276 904 -1276 Q 831 -1276 774 -1248 Q 718 -1220 684 -1173 Q 652 -1129 632 -1063 Q 612 -997 604 -928 Q 598 -854 598 -782 L 598 -164 L 822 -164 L 822 0 L 64 0 L 64 -164 Z"/>
		<path character="e" fill="#CAD1D8" fill-opacity="1.0" stroke="none" stroke-width="10px" stroke-linecap="butt" stroke-opacity="1.0" transform="matrix(1,0,0,1,10893,0)" d="M 776 32 Q 620 32 488 -27 Q 357 -87 271 -191 Q 186 -293 141 -420 Q 96 -548 96 -685 Q 96 -804 124 -914 Q 152 -1025 207 -1119 Q 327 -1324 527 -1400 Q 633 -1440 761 -1440 Q 893 -1440 1008 -1393 Q 1123 -1347 1208 -1260 Q 1296 -1170 1346 -1034 Q 1396 -898 1399 -732 L 395 -732 L 395 -721 Q 395 -477 491 -310 Q 539 -226 620 -179 Q 701 -132 803 -132 Q 895 -132 980 -173 Q 1065 -215 1128 -294 Q 1192 -373 1219 -479 L 1371 -427 Q 1337 -287 1255 -183 Q 1173 -80 1051 -24 Q 929 32 776 32 M 1112 -896 Q 1110 -1007 1063 -1093 Q 1017 -1180 939 -1228 Q 862 -1276 768 -1276 Q 673 -1276 593 -1228 Q 514 -1180 464 -1093 Q 414 -1007 404 -896 L 1112 -896 Z"/>
</g>
</svg>