<svg xmlns="http://www.w3.org/2000/svg" xmlns:xlink="http://www.w3.org/1999/xlink" viewBox="0 0 31309 3679">
<title>Write Invoice For Ruby</title>
<g transform="matrix(1,0,0,1,0,2752)">
  		<path character="W" fill="#CAD1D8" fill-opacity="1.0" stroke="none" stroke-width="10px" stroke-linecap="butt" stroke-opacity="1.0" transform="matrix(1,0,0,1,0,0)" d="M 2878 -1984 L 2878 -1820 L 2641 -1820 L 2186 -155 Q 2160 -78 2140 -40 Q 2120 -2 2092 15 Q 2064 32 2018 32 Q 1974 32 1948 15 Q 1923 -1 1905 -38 Q 1887 -76 1865 -153 L 1520 -1343 Q 1520 -1340 1466 -1149 L 1439 -1046 L 1409 -940 Q 1352 -731 1274 -450 L 1192 -153 Q 1164 -53 1123 -10 Q 1083 32 1013 32 Q 947 32 909 -9 Q 871 -50 840 -155 L 336 -1820 L 38 -1820 L 38 -1984 L 944 -1984 L 944 -1820 L 669 -1820 L 1048 -417 L 1425 -1820 L 1685 -1820 L 2064 -417 L 2420 -1820 L 2155 -1820 L 2155 -1984 L 2878 -1984 Z"/>
		<path character="r" fill="#CAD1D8" fill-opacity="1.0" stroke="none" stroke-width="10px" stroke-linecap="butt" stroke-opacity="1.0" transform="matrix(1,0,0,1,2957,0)" d="M 64 -164 L 318 -164 L 318 -1244 L 64 -1244 L 64 -1408 L 557 -1408 L 593 -1108 Q 625 -1223 711 -1324 Q 757 -1378 824 -1409 Q 891 -1440 968 -1440 Q 1039 -1440 1097 -1412 Q 1156 -1385 1190 -1333 Q 1225 -1281 1225 -1211 Q 1225 -1144 1198 -1094 Q 1172 -1044 1126 -1018 Q 1081 -992 1026 -992 Q 949 -992 895 -1040 Q 841 -1088 841 -1164 Q 841 -1189 853 -1217 Q 866 -1246 880 -1265 L 895 -1279 Q 818 -1279 758 -1232 Q 698 -1186 664 -1104 Q 598 -946 598 -754 L 598 -164 L 891 -164 L 891 0 L 64 0 L 64 -164 Z"/>
		<path character="i" fill="#CAD1D8" fill-opacity="1.0" stroke="none" stroke-width="10px" stroke-linecap="butt" stroke-opacity="1.0" transform="matrix(1,0,0,1,4186,0)" d="M 438 -1632 Q 385 -1632 341 -1658 Q 297 -1684 271 -1728 Q 245 -1772 245 -1822 Q 245 -1875 271 -1919 Q 297 -1964 341 -1990 Q 385 -2016 438 -2016 Q 488 -2016 533 -1989 Q 578 -1963 605 -1918 Q 632 -1874 632 -1822 Q 632 -1772 605 -1728 Q 578 -1684 533 -1658 Q 488 -1632 438 -1632 M 72 0 L 72 -164 L 323 -164 L 323 -1244 L 69 -1244 L 69 -1408 L 603 -1408 L 603 -164 L 858 -164 L 858 0 L 72 0 Z"/>
		<path character="t" fill="#CAD1D8" fill-opacity="1.0" stroke="none" stroke-width="10px" stroke-linecap="butt" stroke-opacity="1.0" transform="matrix(1,0,0,1,5094,0)" d="M 662 32 Q 494 32 374 -66 Q 311 -117 275 -199 Q 240 -282 240 -384 L 240 -1244 L -26 -1244 L -26 -1312 Q 70 -1342 152 -1420 Q 234 -1499 286 -1597 Q 335 -1687 372 -1778 Q 421 -1893 438 -1926 Q 465 -1984 486 -1984 Q 501 -1984 510 -1972 Q 520 -1960 520 -1937 L 520 -1408 L 1033 -1408 L 1033 -1244 L 520 -1244 L 520 -363 Q 520 -250 570 -191 Q 621 -132 710 -132 Q 818 -132 869 -203 Q 921 -275 921 -443 L 921 -632 L 1077 -632 L 1077 -475 Q 1077 -302 1036 -191 Q 996 -80 905 -24 Q 814 32 662 32 Z"/>
		<path character="e" fill="#CAD1D8" fill-opacity="1.0" stroke="none" stroke-width="10px" stroke-linecap="butt" stroke-opacity="1.0" transform="matrix(1,0,0,1,6259,0)" d="M 776 32 Q 620 32 488 -27 Q 357 -87 271 -191 Q 186 -293 141 -420 Q 96 -548 96 -685 Q 96 -804 124 -914 Q 152 -1025 207 -1119 Q 327 -1324 527 -1400 Q 633 -1440 761 -1440 Q 893 -1440 1008 -1393 Q 1123 -1347 1208 -1260 Q 1296 -1170 1346 -1034 Q 1396 -898 1399 -732 L 395 -732 L 395 -721 Q 395 -477 491 -310 Q 539 -226 620 -179 Q 701 -132 803 -132 Q 895 -132 980 -173 Q 1065 -215 1128 -294 Q 1192 -373 1219 -479 L 1371 -427 Q 1337 -287 1255 -183 Q 1173 -80 1051 -24 Q 929 32 776 32 M 1112 -896 Q 1110 -1007 1063 -1093 Q 1017 -1180 939 -1228 Q 862 -1276 768 -1276 Q 673 -1276 593 -1228 Q 514 -1180 464 -1093 Q 414 -1007 404 -896 L 1112 -896 Z"/>
		<path character="I" fill="#CAD1D8" fill-opacity="1.0" stroke="none" stroke-width="10px" stroke-linecap="butt" stroke-opacity="1.0" transform="matrix(1,0,0,1,8397,0)" d="M 39 0 L 39 -164 L 357 -164 L 357 -1820 L 39 -1820 L 39 -1984 L 962 -1984 L 962 -1820 L 663 -1820 L 663 -164 L 962 -164 L 962 0 L 39 0 Z"/>
		<path character="n" fill="#CAD1D8" fill-opacity="1.0" stroke="none" stroke-width="10px" stroke-linecap="butt" stroke-opacity="1.0" transform="matrix(1,0,0,1,9434,0)" d="M 64 -164 L 318 -164 L 318 -1276 L 64 -1276 L 64 -1408 L 557 -1408 L 590 -1148 Q 630 -1239 704 -1305 Q 779 -1371 870 -1405 Q 961 -1440 1054 -1440 Q 1098 -1440 1132 -1436 Q 1167 -1432 1208 -1419 Q 1255 -1405 1291 -1383 Q 1327 -1361 1365 -1324 Q 1404 -1284 1428 -1233 Q 1453 -1182 1470 -1107 Q 1486 -1033 1486 -939 L 1486 -164 L 1753 -164 L 1753 0 L 968 0 L 968 -164 L 1206 -164 L 1206 -945 Q 1206 -1110 1141 -1193 Q 1076 -1276 957 -1276 Q 884 -1276 822 -1248 Q 761 -1221 719 -1173 Q 678 -1126 650 -1061 Q 622 -997 611 -927 Q 598 -861 598 -782 L 598 -164 L 835 -164 L 835 0 L 64 0 L 64 -164 Z"/>
		<path character="v" fill="#CAD1D8" fill-opacity="1.0" stroke="none" stroke-width="10px" stroke-linecap="butt" stroke-opacity="1.0" transform="matrix(1,0,0,1,11238,0)" d="M 827 32 Q 759 32 712 -12 Q 665 -57 629 -156 L 221 -1244 L -18 -1244 L -18 -1408 L 768 -1408 L 768 -1244 L 531 -1244 L 875 -217 L 1208 -1244 L 987 -1244 L 987 -1408 L 1654 -1408 L 1654 -1244 L 1430 -1244 L 1046 -165 Q 1008 -60 958 -14 Q 909 32 835 32 L 827 32 Z"/>
		<path character="o" fill="#CAD1D8" fill-opacity="1.0" stroke="none" stroke-width="10px" stroke-linecap="butt" stroke-opacity="1.0" transform="matrix(1,0,0,1,12915,0)" d="M 779 32 Q 574 32 419 -62 Q 264 -157 180 -324 Q 96 -491 96 -703 Q 96 -915 176 -1080 Q 257 -1246 412 -1342 Q 568 -1440 776 -1440 Q 930 -1440 1059 -1384 Q 1189 -1328 1276 -1227 Q 1362 -1128 1407 -993 Q 1453 -858 1453 -703 Q 1453 -493 1373 -328 Q 1294 -164 1141 -67 Q 987 32 779 32 M 779 -132 Q 893 -132 978 -200 Q 1064 -268 1109 -392 Q 1155 -517 1155 -681 Q 1155 -861 1116 -990 Q 1077 -1119 992 -1197 Q 905 -1276 776 -1276 Q 650 -1276 561 -1198 Q 473 -1121 434 -986 Q 395 -856 395 -681 Q 395 -517 441 -392 Q 487 -268 574 -200 Q 662 -132 779 -132 Z"/>
		<path character="i" fill="#CAD1D8" fill-opacity="1.0" stroke="none" stroke-width="10px" stroke-linecap="butt" stroke-opacity="1.0" transform="matrix(1,0,0,1,14464,0)" d="M 438 -1632 Q 385 -1632 341 -1658 Q 297 -1684 271 -1728 Q 245 -1772 245 -1822 Q 245 -1875 271 -1919 Q 297 -1964 341 -1990 Q 385 -2016 438 -2016 Q 488 -2016 533 -1989 Q 578 -1963 605 -1918 Q 632 -1874 632 -1822 Q 632 -1772 605 -1728 Q 578 -1684 533 -1658 Q 488 -1632 438 -1632 M 72 0 L 72 -164 L 323 -164 L 323 -1244 L 69 -1244 L 69 -1408 L 603 -1408 L 603 -164 L 858 -164 L 858 0 L 72 0 Z"/>
		<path character="c" fill="#CAD1D8" fill-opacity="1.0" stroke="none" stroke-width="10px" stroke-linecap="butt" stroke-opacity="1.0" transform="matrix(1,0,0,1,15373,0)" d="M 771 32 Q 633 32 508 -17 Q 384 -67 293 -158 Q 201 -250 148 -385 Q 96 -520 96 -676 Q 96 -827 142 -962 Q 188 -1098 273 -1207 Q 361 -1316 498 -1378 Q 635 -1440 802 -1440 Q 897 -1440 993 -1412 Q 1089 -1384 1169 -1330 Q 1254 -1273 1304 -1182 Q 1354 -1091 1354 -981 Q 1354 -927 1329 -877 Q 1305 -828 1258 -798 Q 1211 -768 1150 -768 Q 1064 -768 1006 -822 Q 949 -876 949 -963 Q 949 -1050 1007 -1101 Q 1065 -1152 1150 -1152 Q 1106 -1208 1026 -1242 Q 947 -1276 848 -1276 Q 737 -1276 646 -1227 Q 556 -1178 501 -1093 Q 448 -1011 420 -909 Q 392 -808 392 -701 Q 392 -534 444 -412 Q 496 -291 594 -225 Q 693 -160 830 -160 Q 906 -160 980 -192 Q 1054 -225 1107 -279 Q 1156 -330 1190 -381 Q 1224 -432 1237 -475 L 1384 -426 Q 1350 -286 1267 -183 Q 1184 -81 1057 -24 Q 931 32 771 32 Z"/>
		<path character="e" fill="#CAD1D8" fill-opacity="1.0" stroke="none" stroke-width="10px" stroke-linecap="butt" stroke-opacity="1.0" transform="matrix(1,0,0,1,16858,0)" d="M 776 32 Q 620 32 488 -27 Q 357 -87 271 -191 Q 186 -293 141 -420 Q 96 -548 96 -685 Q 96 -804 124 -914 Q 152 -1025 207 -1119 Q 327 -1324 527 -1400 Q 633 -1440 761 -1440 Q 893 -1440 1008 -1393 Q 1123 -1347 1208 -1260 Q 1296 -1170 1346 -1034 Q 1396 -898 1399 -732 L 395 -732 L 395 -721 Q 395 -477 491 -310 Q 539 -226 620 -179 Q 701 -132 803 -132 Q 895 -132 980 -173 Q 1065 -215 1128 -294 Q 1192 -373 1219 -479 L 1371 -427 Q 1337 -287 1255 -183 Q 1173 -80 1051 -24 Q 929 32 776 32 M 1112 -896 Q 1110 -1007 1063 -1093 Q 1017 -1180 939 -1228 Q 862 -1276 768 -1276 Q 673 -1276 593 -1228 Q 514 -1180 464 -1093 Q 414 -1007 404 -896 L 1112 -896 Z"/>
		<path character="F" fill="#CAD1D8" fill-opacity="1.0" stroke="none" stroke-width="10px" stroke-linecap="butt" stroke-opacity="1.0" transform="matrix(1,0,0,1,18995,0)" d="M 43 0 L 43 -164 L 359 -164 L 359 -1820 L 43 -1820 L 43 -1984 L 1789 -1984 L 1789 -1275 L 1552 -1275 L 1552 -1820 L 667 -1820 L 667 -1124 L 1136 -1124 L 1136 -1408 L 1315 -1408 L 1315 -640 L 1136 -640 L 1136 -960 L 667 -960 L 667 -164 L 1005 -164 L 1005 0 L 43 0 Z"/>
		<path character="o" fill="#CAD1D8" fill-opacity="1.0" stroke="none" stroke-width="10px" stroke-linecap="butt" stroke-opacity="1.0" transform="matrix(1,0,0,1,20864,0)" d="M 779 32 Q 574 32 419 -62 Q 264 -157 180 -324 Q 96 -491 96 -703 Q 96 -915 176 -1080 Q 257 -1246 412 -1342 Q 568 -1440 776 -1440 Q 930 -1440 1059 -1384 Q 1189 -1328 1276 -1227 Q 1362 -1128 1407 -993 Q 1453 -858 1453 -703 Q 1453 -493 1373 -328 Q 1294 -164 1141 -67 Q 987 32 779 32 M 779 -132 Q 893 -132 978 -200 Q 1064 -268 1109 -392 Q 1155 -517 1155 -681 Q 1155 -861 1116 -990 Q 1077 -1119 992 -1197 Q 905 -1276 776 -1276 Q 650 -1276 561 -1198 Q 473 -1121 434 -986 Q 395 -856 395 -681 Q 395 -517 441 -392 Q 487 -268 574 -200 Q 662 -132 779 -132 Z"/>
		<path character="r" fill="#CAD1D8" fill-opacity="1.0" stroke="none" stroke-width="10px" stroke-linecap="butt" stroke-opacity="1.0" transform="matrix(1,0,0,1,22413,0)" d="M 64 -164 L 318 -164 L 318 -1244 L 64 -1244 L 64 -1408 L 557 -1408 L 593 -1108 Q 625 -1223 711 -1324 Q 757 -1378 824 -1409 Q 891 -1440 968 -1440 Q 1039 -1440 1097 -1412 Q 1156 -1385 1190 -1333 Q 1225 -1281 1225 -1211 Q 1225 -1144 1198 -1094 Q 1172 -1044 1126 -1018 Q 1081 -992 1026 -992 Q 949 -992 895 -1040 Q 841 -1088 841 -1164 Q 841 -1189 853 -1217 Q 866 -1246 880 -1265 L 895 -1279 Q 818 -1279 758 -1232 Q 698 -1186 664 -1104 Q 598 -946 598 -754 L 598 -164 L 891 -164 L 891 0 L 64 0 L 64 -164 Z"/>
		<path character="R" fill="#CAD1D8" fill-opacity="1.0" stroke="none" stroke-width="10px" stroke-linecap="butt" stroke-opacity="1.0" transform="matrix(1,0,0,1,24294,0)" d="M 1669 32 Q 1590 32 1525 1 Q 1461 -29 1417 -83 Q 1375 -133 1341 -219 Q 1307 -306 1284 -408 Q 1258 -524 1240 -639 Q 1228 -720 1199 -788 Q 1171 -856 1138 -893 Q 1107 -927 1072 -951 Q 1037 -975 1013 -982 Q 992 -988 974 -988 L 667 -988 L 667 -190 L 962 -190 L 962 0 L 43 0 L 43 -190 L 359 -190 L 359 -1820 L 43 -1820 L 43 -1984 L 792 -1984 L 853 -1984 Q 939 -1984 997 -1984 Q 1055 -1984 1143 -1977 Q 1251 -1967 1321 -1949 Q 1391 -1932 1477 -1895 Q 1559 -1860 1607 -1810 Q 1656 -1760 1690 -1680 Q 1723 -1602 1723 -1500 Q 1723 -1284 1581 -1178 Q 1512 -1128 1431 -1096 Q 1350 -1065 1237 -1043 Q 1313 -1026 1363 -995 Q 1414 -965 1449 -917 Q 1482 -869 1502 -816 Q 1522 -763 1544 -675 Q 1561 -605 1593 -443 Q 1600 -394 1616 -342 Q 1632 -291 1647 -262 Q 1664 -230 1690 -210 Q 1716 -190 1749 -190 Q 1883 -190 1883 -467 L 1883 -671 L 2059 -671 L 2059 -466 Q 2059 32 1669 32 M 830 -1152 Q 1039 -1152 1169 -1182 Q 1300 -1212 1373 -1283 Q 1448 -1355 1448 -1475 Q 1448 -1577 1410 -1644 Q 1373 -1712 1291 -1751 Q 1210 -1788 1100 -1804 Q 990 -1820 819 -1820 L 667 -1820 L 667 -1152 L 830 -1152 Z"/>
		<path character="u" fill="#CAD1D8" fill-opacity="1.0" stroke="none" stroke-width="10px" stroke-linecap="butt" stroke-opacity="1.0" transform="matrix(1,0,0,1,26355,0)" d="M 1147 -242 Q 983 32 677 32 Q 630 32 588 25 Q 547 19 495 2 Q 398 -27 319 -140 Q 281 -193 260 -277 Q 240 -362 240 -468 L 240 -1244 L -5 -1244 L -5 -1408 L 520 -1408 L 520 -464 Q 520 -289 574 -210 Q 629 -132 746 -132 Q 830 -132 921 -182 Q 1013 -232 1076 -313 Q 1138 -394 1138 -476 L 1138 -1244 L 901 -1244 L 901 -1408 L 1419 -1408 L 1419 -133 L 1672 -108 L 1672 2 L 1147 36 L 1147 -242 Z"/>
		<path character="b" fill="#CAD1D8" fill-opacity="1.0" stroke="none" stroke-width="10px" stroke-linecap="butt" stroke-opacity="1.0" transform="matrix(1,0,0,1,28032,0)" d="M 856 32 Q 706 32 582 -43 Q 458 -119 397 -265 L 296 0 L 176 0 L 176 -1820 L -94 -1820 L -94 -1984 L 456 -1984 L 456 -1212 Q 522 -1319 624 -1379 Q 727 -1440 843 -1440 Q 1021 -1440 1157 -1347 Q 1294 -1254 1368 -1086 Q 1443 -918 1443 -703 Q 1443 -496 1369 -329 Q 1296 -162 1162 -66 Q 1027 32 856 32 M 802 -132 Q 905 -132 986 -211 Q 1068 -290 1107 -418 Q 1145 -544 1145 -682 Q 1145 -908 1069 -1083 Q 1029 -1172 960 -1224 Q 891 -1276 802 -1276 Q 719 -1276 648 -1227 Q 578 -1178 538 -1096 Q 497 -1017 476 -930 Q 456 -843 456 -758 Q 456 -583 497 -442 Q 539 -301 617 -218 Q 697 -132 802 -132 Z"/>
		<path character="y" fill="#CAD1D8" fill-opacity="1.0" stroke="none" stroke-width="10px" stroke-linecap="butt" stroke-opacity="1.0" transform="matrix(1,0,0,1,29581,0)" d="M 469 652 Q 350 652 258 614 Q 167 576 115 508 Q 64 441 64 354 Q 64 260 124 200 Q 185 141 288 141 Q 366 141 408 195 Q 451 250 451 335 Q 451 382 421 421 Q 391 460 341 484 Q 395 512 427 512 Q 544 512 622 405 Q 701 298 741 62 L 224 -1244 L -35 -1244 L -35 -1408 L 768 -1408 L 768 -1244 L 531 -1244 L 909 -198 L 1232 -1244 L 1016 -1244 L 1016 -1408 L 1685 -1408 L 1685 -1244 L 1461 -1244 L 1013 37 Q 936 264 855 398 Q 775 533 681 592 Q 587 652 469 652 Z"/>
</g>
</svg>