<svg xmlns="http://www.w3.org/2000/svg" xmlns:xlink="http://www.w3.org/1999/xlink" viewBox="0 0 17816 3482">
<title>Ascii Art To Svg</title>
<g transform="matrix(1,0,0,1,0,2560)">
  		<path character="A" fill="#A5834B" fill-opacity="1.0" stroke="none" stroke-width="0px" stroke-linecap="butt" stroke-opacity="1.0" transform="matrix(1,0,0,1,0,0)" d="M 1237 -448 L 555 -448 L 384 0 L 41 0 L 745 -1728 L 1044 -1728 L 1748 0 L 1408 0 L 1237 -448 M 896 -1344 Q 787 -1059 717 -873 L 653 -704 L 1140 -704 L 1072 -881 Q 1001 -1068 896 -1344 L 896 -1344 Z"/>
		<path character="s" fill="#A5834B" fill-opacity="1.0" stroke="none" stroke-width="0px" stroke-linecap="butt" stroke-opacity="1.0" transform="matrix(1,0,0,1,1804,0)" d="M 704 -366 Q 704 -403 682 -427 Q 661 -451 626 -467 Q 591 -483 545 -495 Q 499 -507 449 -519 Q 386 -536 327 -558 Q 269 -580 224 -615 Q 180 -651 154 -705 Q 128 -760 128 -839 Q 128 -936 168 -1007 Q 209 -1078 278 -1124 Q 347 -1171 436 -1193 Q 526 -1216 622 -1216 Q 739 -1216 841 -1197 Q 943 -1178 1026 -1148 L 1026 -896 Q 983 -909 935 -920 Q 887 -932 837 -940 Q 788 -949 739 -954 Q 691 -960 648 -960 Q 593 -960 555 -952 Q 517 -945 493 -933 Q 469 -921 458 -904 Q 448 -888 448 -871 Q 448 -832 469 -806 Q 490 -781 527 -765 Q 565 -750 606 -740 Q 647 -730 685 -720 Q 746 -706 806 -685 Q 866 -665 914 -629 Q 963 -593 993 -535 Q 1024 -477 1024 -387 Q 1024 -289 981 -216 Q 939 -143 863 -95 Q 787 -47 683 -23 Q 580 0 458 0 Q 338 0 241 -19 Q 145 -38 82 -67 L 82 -320 Q 184 -283 270 -269 Q 357 -256 432 -256 Q 490 -256 540 -262 Q 590 -269 626 -282 Q 662 -296 683 -316 Q 704 -337 704 -366 Z"/>
		<path character="c" fill="#A5834B" fill-opacity="1.0" stroke="none" stroke-width="0px" stroke-linecap="butt" stroke-opacity="1.0" transform="matrix(1,0,0,1,2967,0)" d="M 1108 -62 Q 1049 -36 963 -18 Q 878 0 784 0 Q 646 0 527 -36 Q 408 -72 319 -144 Q 230 -217 179 -329 Q 128 -441 128 -590 Q 128 -757 187 -876 Q 246 -996 339 -1071 Q 432 -1146 549 -1181 Q 667 -1216 781 -1216 Q 866 -1216 945 -1200 Q 1024 -1185 1088 -1158 L 1088 -896 Q 1030 -925 965 -942 Q 900 -960 826 -960 Q 751 -960 682 -940 Q 614 -921 561 -878 Q 509 -836 478 -766 Q 448 -696 448 -598 Q 448 -526 471 -463 Q 495 -400 540 -355 Q 585 -311 655 -283 Q 726 -256 822 -256 Q 907 -256 976 -274 Q 1046 -293 1108 -320 L 1108 -62 Z"/>
		<path character="i" fill="#A5834B" fill-opacity="1.0" stroke="none" stroke-width="0px" stroke-linecap="butt" stroke-opacity="1.0" transform="matrix(1,0,0,1,4195,0)" d="M 192 -1216 L 512 -1216 L 512 0 L 192 0 L 192 -1216 M 184 -1856 L 504 -1856 L 504 -1536 L 184 -1536 L 184 -1856 Z"/>
		<path character="i" fill="#A5834B" fill-opacity="1.0" stroke="none" stroke-width="0px" stroke-linecap="butt" stroke-opacity="1.0" transform="matrix(1,0,0,1,4846,0)" d="M 192 -1216 L 512 -1216 L 512 0 L 192 0 L 192 -1216 M 184 -1856 L 504 -1856 L 504 -1536 L 184 -1536 L 184 -1856 Z"/>
		<path character="A" fill="#A5834B" fill-opacity="1.0" stroke="none" stroke-width="0px" stroke-linecap="butt" stroke-opacity="1.0" transform="matrix(1,0,0,1,5968,0)" d="M 1237 -448 L 555 -448 L 384 0 L 41 0 L 745 -1728 L 1044 -1728 L 1748 0 L 1408 0 L 1237 -448 M 896 -1344 Q 787 -1059 717 -873 L 653 -704 L 1140 -704 L 1072 -881 Q 1001 -1068 896 -1344 L 896 -1344 Z"/>
		<path character="r" fill="#A5834B" fill-opacity="1.0" stroke="none" stroke-width="0px" stroke-linecap="butt" stroke-opacity="1.0" transform="matrix(1,0,0,1,7772,0)" d="M 957 -960 L 930 -960 Q 787 -960 679 -919 Q 571 -879 512 -795 L 512 0 L 192 0 L 192 -1216 L 457 -1216 L 487 -1021 L 492 -1021 Q 547 -1112 643 -1164 Q 740 -1216 875 -1216 Q 923 -1216 957 -1211 L 957 -960 Z"/>
		<path character="t" fill="#A5834B" fill-opacity="1.0" stroke="none" stroke-width="0px" stroke-linecap="butt" stroke-opacity="1.0" transform="matrix(1,0,0,1,8743,0)" d="M 962 -33 Q 909 -18 836 -9 Q 763 0 700 0 Q 540 0 435 -47 Q 330 -95 287 -184 Q 256 -248 256 -357 L 256 -960 L 18 -960 L 18 -1216 L 256 -1216 L 256 -1600 L 576 -1600 L 576 -1216 L 943 -1216 L 943 -960 L 576 -960 L 576 -407 Q 576 -342 598 -310 Q 637 -256 754 -256 Q 808 -256 861 -264 Q 914 -273 962 -287 L 962 -33 Z"/>
		<path character="T" fill="#A5834B" fill-opacity="1.0" stroke="none" stroke-width="0px" stroke-linecap="butt" stroke-opacity="1.0" transform="matrix(1,0,0,1,10184,0)" d="M 896 0 L 576 0 L 576 -1472 L 9 -1472 L 9 -1728 L 1462 -1728 L 1462 -1472 L 896 -1472 L 896 0 Z"/>
		<path character="o" fill="#A5834B" fill-opacity="1.0" stroke="none" stroke-width="0px" stroke-linecap="butt" stroke-opacity="1.0" transform="matrix(1,0,0,1,11563,0)" d="M 1088 -608 Q 1088 -694 1064 -760 Q 1040 -826 998 -870 Q 956 -915 896 -937 Q 837 -960 767 -960 Q 698 -960 639 -937 Q 580 -915 538 -870 Q 496 -826 472 -760 Q 448 -694 448 -608 Q 448 -522 472 -456 Q 496 -390 539 -346 Q 582 -302 640 -279 Q 699 -256 769 -256 Q 839 -256 897 -279 Q 956 -302 998 -346 Q 1040 -390 1064 -456 Q 1088 -522 1088 -608 M 1408 -608 Q 1408 -472 1363 -359 Q 1319 -247 1235 -167 Q 1152 -87 1033 -43 Q 915 0 769 0 Q 619 0 500 -43 Q 382 -87 299 -167 Q 216 -247 172 -359 Q 128 -472 128 -608 Q 128 -744 172 -856 Q 217 -969 300 -1049 Q 384 -1129 502 -1172 Q 621 -1216 767 -1216 Q 916 -1216 1035 -1172 Q 1154 -1129 1237 -1049 Q 1320 -969 1364 -856 Q 1408 -744 1408 -608 Z"/>
		<path character="S" fill="#A5834B" fill-opacity="1.0" stroke="none" stroke-width="0px" stroke-linecap="butt" stroke-opacity="1.0" transform="matrix(1,0,0,1,13569,0)" d="M 1088 -509 Q 1088 -573 1055 -612 Q 1023 -651 967 -676 Q 912 -701 843 -716 Q 774 -732 698 -747 Q 597 -768 505 -797 Q 414 -827 344 -878 Q 275 -930 233 -1009 Q 192 -1089 192 -1209 Q 192 -1341 239 -1438 Q 287 -1536 368 -1600 Q 450 -1665 561 -1696 Q 673 -1728 813 -1728 Q 954 -1728 1095 -1704 Q 1237 -1681 1340 -1644 L 1340 -1408 Q 1203 -1442 1078 -1457 Q 953 -1472 842 -1472 Q 684 -1472 598 -1416 Q 512 -1361 512 -1251 Q 512 -1188 539 -1146 Q 567 -1105 614 -1078 Q 662 -1052 724 -1036 Q 786 -1020 855 -1006 Q 964 -984 1064 -954 Q 1164 -925 1241 -873 Q 1318 -821 1363 -737 Q 1408 -653 1408 -522 Q 1408 -387 1357 -289 Q 1306 -191 1213 -126 Q 1120 -62 982 -31 Q 845 0 681 0 Q 538 0 399 -24 Q 261 -48 169 -91 L 169 -320 Q 299 -286 422 -271 Q 546 -256 677 -256 Q 753 -256 826 -268 Q 900 -280 958 -308 Q 1017 -337 1052 -386 Q 1088 -436 1088 -509 Z"/>
		<path character="v" fill="#A5834B" fill-opacity="1.0" stroke="none" stroke-width="0px" stroke-linecap="butt" stroke-opacity="1.0" transform="matrix(1,0,0,1,15116,0)" d="M 1280 -1216 L 793 0 L 488 0 L 0 -1216 L 320 -1216 L 499 -752 Q 575 -556 639 -360 L 644 -360 Q 700 -529 781 -744 L 960 -1216 L 1280 -1216 Z"/>
		<path character="g" fill="#A5834B" fill-opacity="1.0" stroke="none" stroke-width="0px" stroke-linecap="butt" stroke-opacity="1.0" transform="matrix(1,0,0,1,16472,0)" d="M 1024 0 Q 1024 -26 1025 -65 Q 1026 -104 1028 -130 L 1025 -130 Q 996 -107 958 -84 Q 921 -61 876 -41 Q 831 -22 777 -11 Q 723 0 666 0 Q 565 0 468 -33 Q 371 -66 295 -137 Q 220 -208 174 -319 Q 128 -430 128 -587 Q 128 -743 175 -860 Q 222 -978 299 -1057 Q 377 -1136 478 -1176 Q 579 -1216 686 -1216 Q 804 -1216 895 -1178 Q 986 -1141 1044 -1083 L 1049 -1083 L 1063 -1216 L 1344 -1216 L 1344 40 Q 1344 148 1325 225 Q 1306 303 1270 363 Q 1227 433 1160 485 Q 1093 537 1008 571 Q 924 606 824 623 Q 725 640 613 640 Q 550 640 490 635 Q 430 631 376 622 Q 323 613 279 601 Q 235 590 205 578 L 205 320 Q 292 351 387 367 Q 482 384 587 384 Q 796 384 910 297 Q 1024 210 1024 33 L 1024 0 M 743 -256 Q 790 -256 832 -266 Q 875 -276 911 -291 Q 947 -307 975 -326 Q 1004 -345 1024 -363 L 1024 -843 Q 974 -892 899 -925 Q 825 -959 741 -960 Q 712 -960 679 -954 Q 647 -948 614 -932 Q 581 -917 551 -891 Q 521 -865 498 -825 Q 476 -785 462 -729 Q 448 -674 448 -601 Q 448 -521 466 -457 Q 485 -393 522 -348 Q 559 -304 614 -280 Q 670 -256 743 -256 Z"/>
</g>
</svg>