<svg xmlns="http://www.w3.org/2000/svg" xmlns:xlink="http://www.w3.org/1999/xlink" viewBox="0 0 19130 3546">
<title>Ascii Art To Svg</title>
<g transform="matrix(1,0,0,1,0,2624)">
  		<path character="A" fill="#EA8872" fill-opacity="1.0" stroke="none" stroke-width="0px" stroke-linecap="butt" stroke-opacity="1.0" transform="matrix(1,0,0,1,256,0)" d="M 980 -303 Q 980 -475 1081 -832 Q 764 -832 596 -832 Q 545 -739 503 -656 L 422 -495 Q 260 -179 132 -78 Q 33 0 -77 0 Q -161 0 -204 -54 Q -220 -76 -222 -96 Q -225 -116 -214 -122 Q -63 -178 32 -291 Q 115 -392 197 -539 L 346 -799 L 263 -787 Q 184 -773 184 -812 Q 184 -852 231 -888 Q 314 -950 393 -970 L 449 -983 Q 665 -1341 778 -1484 Q 892 -1627 985 -1722 Q 1079 -1818 1183 -1891 Q 1410 -2048 1631 -2048 Q 1697 -2048 1721 -2021 Q 1760 -1978 1746 -1929 Q 1732 -1880 1699 -1789 Q 1489 -1223 1443 -1088 Q 1464 -1088 1481 -1088 L 1510 -1088 Q 1657 -1088 1667 -1054 Q 1670 -1044 1670 -1015 Q 1670 -987 1655 -950 Q 1640 -913 1606 -887 Q 1536 -832 1372 -832 Q 1283 -549 1270 -440 Q 1258 -332 1278 -294 Q 1298 -256 1335 -256 Q 1373 -256 1397 -263 Q 1421 -270 1439 -279 L 1473 -294 Q 1486 -301 1500 -301 Q 1514 -301 1523 -282 Q 1532 -263 1532 -231 Q 1532 -200 1508 -157 Q 1484 -114 1444 -80 Q 1352 0 1237 0 Q 1060 0 1001 -153 Q 980 -207 980 -249 L 980 -303 M 717 -1043 Q 951 -1088 1150 -1088 Q 1187 -1199 1229 -1307 L 1310 -1514 Q 1352 -1612 1393 -1699 L 1469 -1858 Q 1196 -1787 930 -1389 Q 873 -1306 819 -1217 L 717 -1043 Z"/>
		<path character="s" fill="#EA8872" fill-opacity="1.0" stroke="none" stroke-width="0px" stroke-linecap="butt" stroke-opacity="1.0" transform="matrix(1,0,0,1,1937,0)" d="M 32 -240 Q 32 -280 49 -314 Q 67 -349 93 -372 Q 148 -423 209 -423 Q 261 -423 261 -370 Q 261 -235 352 -182 Q 385 -163 420 -163 Q 455 -163 480 -170 Q 505 -178 526 -195 Q 574 -232 574 -283 Q 574 -335 550 -378 Q 526 -421 491 -469 L 416 -572 Q 259 -777 259 -951 Q 259 -1095 383 -1212 Q 525 -1344 747 -1344 Q 941 -1344 1050 -1254 Q 1139 -1181 1139 -1081 Q 1139 -978 1061 -916 Q 990 -861 919 -875 Q 887 -882 870 -907 Q 853 -933 863 -966 Q 874 -999 874 -1034 Q 874 -1070 861 -1100 Q 848 -1130 826 -1151 Q 780 -1194 729 -1194 Q 679 -1194 646 -1183 Q 613 -1172 588 -1151 Q 537 -1105 537 -1037 Q 537 -969 560 -919 Q 584 -870 619 -821 Q 654 -772 694 -721 Q 735 -671 769 -615 Q 852 -484 852 -385 Q 852 -286 810 -219 Q 768 -153 701 -105 Q 558 0 381 0 Q 211 0 113 -80 Q 32 -148 32 -240 Z"/>
		<path character="c" fill="#EA8872" fill-opacity="1.0" stroke="none" stroke-width="0px" stroke-linecap="butt" stroke-opacity="1.0" transform="matrix(1,0,0,1,3105,0)" d="M 89 -457 Q 92 -568 125 -679 Q 159 -791 214 -890 Q 270 -989 347 -1072 Q 424 -1156 514 -1217 Q 703 -1344 912 -1344 Q 1127 -1344 1205 -1178 Q 1232 -1118 1230 -1042 Q 1228 -967 1204 -904 Q 1181 -841 1146 -792 Q 1066 -680 984 -680 Q 894 -680 850 -730 Q 812 -773 827 -830 Q 831 -847 850 -861 Q 870 -875 900 -905 Q 985 -994 989 -1113 Q 992 -1194 890 -1194 Q 779 -1194 659 -1071 Q 483 -892 411 -613 Q 348 -370 434 -257 Q 485 -192 573 -192 Q 722 -192 859 -296 Q 901 -329 927 -363 Q 954 -397 976 -397 Q 999 -397 1014 -375 Q 1029 -354 1029 -320 Q 1029 -243 959 -169 Q 781 0 530 0 Q 316 0 199 -120 Q 84 -238 89 -457 Z"/>
		<path character="i" fill="#EA8872" fill-opacity="1.0" stroke="none" stroke-width="0px" stroke-linecap="butt" stroke-opacity="1.0" transform="matrix(1,0,0,1,4402,0)" d="M 803 -1732 Q 774 -1701 737 -1682 Q 701 -1663 660 -1658 Q 620 -1654 583 -1671 Q 547 -1688 521 -1720 Q 465 -1785 465 -1852 Q 465 -1919 486 -1952 Q 508 -1986 541 -2007 Q 604 -2048 659 -2048 Q 715 -2048 746 -2040 Q 777 -2032 803 -2014 Q 868 -1970 868 -1908 Q 868 -1846 850 -1804 Q 832 -1763 803 -1732 M 534 -256 Q 568 -256 568 -212 Q 568 -153 515 -91 Q 436 0 303 0 Q 151 0 95 -121 Q 74 -163 74 -223 Q 74 -284 95 -358 Q 117 -432 149 -513 Q 181 -595 219 -679 L 289 -841 Q 365 -1022 365 -1080 Q 365 -1138 352 -1157 Q 340 -1176 326 -1186 L 299 -1204 Q 286 -1213 286 -1235 Q 286 -1258 304 -1278 Q 322 -1299 350 -1314 Q 410 -1344 488 -1344 Q 681 -1344 681 -1248 Q 681 -1135 619 -990 Q 558 -846 515 -757 L 436 -585 Q 349 -395 349 -311 Q 349 -256 407 -256 Q 463 -256 492 -256 Q 521 -256 534 -256 Z"/>
		<path character="i" fill="#EA8872" fill-opacity="1.0" stroke="none" stroke-width="0px" stroke-linecap="butt" stroke-opacity="1.0" transform="matrix(1,0,0,1,5187,0)" d="M 803 -1732 Q 774 -1701 737 -1682 Q 701 -1663 660 -1658 Q 620 -1654 583 -1671 Q 547 -1688 521 -1720 Q 465 -1785 465 -1852 Q 465 -1919 486 -1952 Q 508 -1986 541 -2007 Q 604 -2048 659 -2048 Q 715 -2048 746 -2040 Q 777 -2032 803 -2014 Q 868 -1970 868 -1908 Q 868 -1846 850 -1804 Q 832 -1763 803 -1732 M 534 -256 Q 568 -256 568 -212 Q 568 -153 515 -91 Q 436 0 303 0 Q 151 0 95 -121 Q 74 -163 74 -223 Q 74 -284 95 -358 Q 117 -432 149 -513 Q 181 -595 219 -679 L 289 -841 Q 365 -1022 365 -1080 Q 365 -1138 352 -1157 Q 340 -1176 326 -1186 L 299 -1204 Q 286 -1213 286 -1235 Q 286 -1258 304 -1278 Q 322 -1299 350 -1314 Q 410 -1344 488 -1344 Q 681 -1344 681 -1248 Q 681 -1135 619 -990 Q 558 -846 515 -757 L 436 -585 Q 349 -395 349 -311 Q 349 -256 407 -256 Q 463 -256 492 -256 Q 521 -256 534 -256 Z"/>
		<path character="A" fill="#EA8872" fill-opacity="1.0" stroke="none" stroke-width="0px" stroke-linecap="butt" stroke-opacity="1.0" transform="matrix(1,0,0,1,6820,0)" d="M 980 -303 Q 980 -475 1081 -832 Q 764 -832 596 -832 Q 545 -739 503 -656 L 422 -495 Q 260 -179 132 -78 Q 33 0 -77 0 Q -161 0 -204 -54 Q -220 -76 -222 -96 Q -225 -116 -214 -122 Q -63 -178 32 -291 Q 115 -392 197 -539 L 346 -799 L 263 -787 Q 184 -773 184 -812 Q 184 -852 231 -888 Q 314 -950 393 -970 L 449 -983 Q 665 -1341 778 -1484 Q 892 -1627 985 -1722 Q 1079 -1818 1183 -1891 Q 1410 -2048 1631 -2048 Q 1697 -2048 1721 -2021 Q 1760 -1978 1746 -1929 Q 1732 -1880 1699 -1789 Q 1489 -1223 1443 -1088 Q 1464 -1088 1481 -1088 L 1510 -1088 Q 1657 -1088 1667 -1054 Q 1670 -1044 1670 -1015 Q 1670 -987 1655 -950 Q 1640 -913 1606 -887 Q 1536 -832 1372 -832 Q 1283 -549 1270 -440 Q 1258 -332 1278 -294 Q 1298 -256 1335 -256 Q 1373 -256 1397 -263 Q 1421 -270 1439 -279 L 1473 -294 Q 1486 -301 1500 -301 Q 1514 -301 1523 -282 Q 1532 -263 1532 -231 Q 1532 -200 1508 -157 Q 1484 -114 1444 -80 Q 1352 0 1237 0 Q 1060 0 1001 -153 Q 980 -207 980 -249 L 980 -303 M 717 -1043 Q 951 -1088 1150 -1088 Q 1187 -1199 1229 -1307 L 1310 -1514 Q 1352 -1612 1393 -1699 L 1469 -1858 Q 1196 -1787 930 -1389 Q 873 -1306 819 -1217 L 717 -1043 Z"/>
		<path character="r" fill="#EA8872" fill-opacity="1.0" stroke="none" stroke-width="0px" stroke-linecap="butt" stroke-opacity="1.0" transform="matrix(1,0,0,1,8500,0)" d="M 99 -43 Q 73 -63 57 -87 Q 42 -111 40 -128 Q 39 -145 47 -170 Q 56 -195 71 -232 Q 338 -877 338 -1098 Q 334 -1160 295 -1186 L 269 -1204 Q 257 -1213 256 -1235 Q 256 -1258 273 -1278 Q 290 -1299 317 -1314 Q 374 -1344 433 -1344 Q 493 -1344 526 -1331 Q 560 -1318 584 -1296 Q 634 -1250 634 -1198 Q 635 -1146 622 -1093 Q 610 -1040 593 -989 Q 576 -938 559 -892 Q 542 -846 537 -824 Q 526 -779 529 -767 Q 560 -794 567 -820 L 618 -916 Q 789 -1219 951 -1317 Q 999 -1344 1065 -1344 Q 1131 -1344 1171 -1298 Q 1212 -1252 1214 -1196 Q 1216 -1140 1206 -1102 Q 1197 -1065 1177 -1033 Q 1134 -960 1072 -960 Q 1055 -960 1041 -972 L 1012 -997 Q 968 -1035 928 -1035 Q 888 -1035 831 -983 Q 774 -932 712 -852 Q 505 -584 374 -251 L 316 -103 Q 294 -47 277 -23 Q 260 0 226 0 Q 193 0 159 -12 Q 126 -24 99 -43 Z"/>
		<path character="t" fill="#EA8872" fill-opacity="1.0" stroke="none" stroke-width="0px" stroke-linecap="butt" stroke-opacity="1.0" transform="matrix(1,0,0,1,9605,0)" d="M 858 -382 Q 897 -382 897 -327 Q 897 -281 870 -237 Q 835 -156 729 -83 Q 608 0 486 0 Q 274 0 218 -193 Q 151 -421 419 -1162 Q 268 -1175 255 -1214 Q 251 -1226 251 -1239 Q 251 -1253 263 -1271 Q 276 -1289 295 -1306 Q 341 -1344 389 -1344 L 492 -1344 Q 634 -1637 694 -1677 Q 723 -1696 758 -1696 Q 794 -1696 817 -1688 Q 841 -1680 860 -1664 Q 902 -1629 902 -1586 Q 902 -1563 886 -1532 L 789 -1344 L 820 -1344 Q 902 -1344 952 -1344 Q 952 -1344 1026 -1344 Q 1051 -1344 1088 -1344 Q 1126 -1344 1126 -1318 Q 1126 -1153 717 -1153 L 706 -1153 L 617 -923 Q 466 -516 466 -353 Q 466 -307 487 -281 Q 508 -256 566 -256 Q 624 -256 671 -275 Q 718 -295 753 -319 Q 789 -343 814 -362 Q 840 -382 858 -382 Z"/>
		<path character="T" fill="#EA8872" fill-opacity="1.0" stroke="none" stroke-width="0px" stroke-linecap="butt" stroke-opacity="1.0" transform="matrix(1,0,0,1,11430,0)" d="M 1600 -1790 Q 1562 -1759 1511 -1743 Q 1461 -1728 1376 -1728 Q 1292 -1728 1156 -1744 Q 1125 -1659 1092 -1546 L 941 -1037 Q 662 -121 345 -9 Q 323 0 288 0 Q 253 0 231 -8 Q 210 -17 196 -30 Q 167 -54 167 -77 Q 167 -101 179 -109 L 213 -130 Q 402 -252 559 -784 L 654 -1103 Q 781 -1533 891 -1779 Q 788 -1792 734 -1792 Q 579 -1792 511 -1745 Q 444 -1698 417 -1643 Q 390 -1589 389 -1568 Q 385 -1532 365 -1522 Q 345 -1513 317 -1513 Q 289 -1513 258 -1534 Q 228 -1555 209 -1587 Q 167 -1654 176 -1737 Q 185 -1820 229 -1880 Q 273 -1940 333 -1978 Q 445 -2048 569 -2048 Q 693 -2048 804 -2028 Q 915 -2008 1025 -1983 Q 1318 -1920 1398 -1920 Q 1478 -1920 1516 -1937 Q 1555 -1955 1582 -1990 Q 1610 -2025 1621 -2036 Q 1633 -2048 1658 -2048 Q 1697 -2048 1692 -1982 Q 1687 -1916 1663 -1868 Q 1639 -1821 1600 -1790 Z"/>
		<path character="o" fill="#EA8872" fill-opacity="1.0" stroke="none" stroke-width="0px" stroke-linecap="butt" stroke-opacity="1.0" transform="matrix(1,0,0,1,12727,0)" d="M 216 -100 Q 161 -152 129 -231 Q 98 -310 97 -418 Q 96 -526 124 -636 Q 152 -747 204 -850 Q 256 -953 328 -1043 Q 401 -1133 489 -1200 Q 681 -1344 887 -1344 Q 1157 -1344 1253 -1111 Q 1321 -943 1261 -704 Q 1206 -484 1059 -300 Q 913 -116 715 -39 Q 615 0 518 0 Q 422 0 346 -24 Q 271 -49 216 -100 M 467 -724 Q 428 -629 405 -529 Q 382 -429 383 -340 Q 384 -251 411 -200 Q 438 -150 498 -150 Q 559 -150 617 -190 Q 676 -231 731 -297 Q 786 -364 834 -451 Q 883 -538 920 -633 Q 1000 -839 997 -999 Q 997 -1140 938 -1179 Q 915 -1194 872 -1194 Q 829 -1194 774 -1156 Q 719 -1118 664 -1054 Q 609 -990 557 -904 Q 506 -819 467 -724 Z"/>
		<path character="S" fill="#EA8872" fill-opacity="1.0" stroke="none" stroke-width="0px" stroke-linecap="butt" stroke-opacity="1.0" transform="matrix(1,0,0,1,15000,0)" d="M 331 -494 L 319 -391 Q 319 -229 425 -170 Q 462 -150 513 -150 Q 564 -150 605 -168 Q 646 -186 672 -215 Q 727 -275 727 -354 Q 727 -433 695 -497 Q 664 -561 617 -625 L 512 -755 Q 385 -910 341 -1037 Q 298 -1164 298 -1271 Q 298 -1378 323 -1473 Q 349 -1568 395 -1654 Q 441 -1740 505 -1812 Q 570 -1884 648 -1936 Q 812 -2048 973 -2048 Q 1135 -2048 1225 -2003 Q 1316 -1959 1372 -1891 Q 1474 -1763 1474 -1581 Q 1474 -1412 1378 -1263 Q 1290 -1126 1181 -1090 Q 1158 -1078 1116 -1078 Q 1075 -1078 1047 -1091 Q 1019 -1104 998 -1126 Q 952 -1173 952 -1229 Q 952 -1267 974 -1280 Q 1074 -1335 1147 -1442 Q 1227 -1557 1231 -1672 Q 1235 -1788 1178 -1843 Q 1121 -1898 1026 -1898 Q 932 -1898 856 -1855 Q 780 -1812 725 -1738 Q 606 -1581 606 -1367 Q 606 -1225 704 -1067 Q 744 -999 792 -933 Q 840 -867 882 -798 Q 978 -637 978 -509 Q 978 -382 932 -294 Q 887 -206 812 -141 Q 651 0 445 0 Q 251 0 146 -109 Q 62 -197 62 -300 Q 62 -411 129 -488 Q 180 -549 227 -561 Q 331 -588 331 -494 Z"/>
		<path character="v" fill="#EA8872" fill-opacity="1.0" stroke="none" stroke-width="0px" stroke-linecap="butt" stroke-opacity="1.0" transform="matrix(1,0,0,1,16297,0)" d="M 100 -138 Q 80 -180 80 -238 Q 80 -296 98 -366 Q 117 -436 146 -509 Q 175 -583 210 -658 L 277 -808 Q 407 -1102 373 -1155 Q 357 -1179 312 -1204 Q 298 -1213 298 -1235 Q 298 -1258 317 -1278 Q 336 -1299 368 -1314 Q 431 -1344 495 -1344 Q 559 -1344 592 -1330 Q 626 -1317 648 -1296 Q 690 -1254 690 -1193 Q 690 -1133 666 -1057 Q 643 -981 607 -897 Q 572 -814 530 -726 L 453 -558 Q 370 -371 370 -310 Q 370 -192 455 -192 Q 675 -192 866 -447 Q 978 -595 1026 -769 Q 1049 -851 1049 -918 Q 1049 -986 1044 -1031 Q 1040 -1076 1029 -1111 Q 1012 -1173 971 -1218 Q 944 -1251 996 -1296 Q 1054 -1344 1160 -1344 Q 1226 -1344 1276 -1284 Q 1339 -1212 1339 -1077 Q 1339 -943 1298 -813 Q 1257 -684 1186 -565 Q 1116 -446 1019 -343 Q 923 -241 811 -165 Q 572 0 333 0 Q 161 0 100 -138 Z"/>
		<path character="g" fill="#EA8872" fill-opacity="1.0" stroke="none" stroke-width="0px" stroke-linecap="butt" stroke-opacity="1.0" transform="matrix(1,0,0,1,17658,0)" d="M 864 -260 Q 664 0 421 0 Q 202 0 126 -229 Q 100 -307 100 -421 Q 100 -536 133 -651 Q 167 -767 224 -869 Q 282 -972 360 -1059 Q 438 -1146 528 -1209 Q 714 -1344 898 -1344 Q 1082 -1344 1160 -1165 Q 1176 -1183 1189 -1202 Q 1202 -1221 1218 -1238 Q 1252 -1274 1277 -1274 Q 1303 -1274 1331 -1264 Q 1360 -1255 1386 -1239 Q 1450 -1201 1435 -1168 Q 1362 -1010 1314 -857 L 1120 -231 Q 890 474 537 680 Q 444 735 375 743 Q 307 752 277 744 Q 247 736 223 722 Q 172 689 172 663 Q 172 617 233 606 Q 294 596 361 557 Q 428 518 488 463 Q 736 233 864 -260 M 470 -722 Q 436 -626 416 -525 Q 396 -425 396 -361 Q 396 -298 400 -264 Q 404 -231 416 -206 Q 442 -150 493 -150 Q 545 -150 594 -186 Q 644 -223 699 -287 Q 755 -351 810 -437 Q 865 -524 915 -623 Q 1025 -844 1070 -1045 Q 1063 -1082 1025 -1121 Q 950 -1194 890 -1194 Q 830 -1194 769 -1156 Q 709 -1118 654 -1053 Q 600 -989 552 -903 Q 505 -818 470 -722 Z"/>
</g>
</svg>