<svg xmlns="http://www.w3.org/2000/svg" xmlns:xlink="http://www.w3.org/1999/xlink" viewBox="0 0 5997 3597">
<title>Naming</title>
<g transform="matrix(1,0,0,1,0,2752)">
  		<path character="N" fill="#A5834B" fill-opacity="1.0" stroke="none" stroke-width="0px" stroke-linecap="butt" stroke-opacity="1.0" transform="matrix(1,0,0,1,-128,0)" d="M 725 0 Q 707 0 691 -18 Q 675 -37 669 -61 L 661 -112 Q 653 -143 653 -151 Q 355 -1217 325 -1347 Q 301 -1442 216 -1878 Q 213 -1862 213 -1767 L 213 -790 L 219 -404 L 224 -21 L 208 0 L 147 0 L 139 -21 Q 144 -48 144 -129 L 141 -599 L 136 -1068 L 136 -1422 L 136 -1678 Q 133 -1792 133 -1932 Q 133 -1948 131 -1961 L 131 -1989 Q 131 -2023 148 -2035 Q 165 -2048 203 -2048 Q 219 -2048 239 -2032 Q 259 -2016 264 -1997 L 320 -1736 Q 357 -1549 384 -1453 Q 440 -1231 576 -727 Q 653 -397 715 -221 Q 731 -261 731 -349 Q 731 -607 736 -813 L 741 -1277 Q 741 -1392 744 -1485 L 744 -1690 L 741 -2080 Q 755 -2144 797 -2144 Q 819 -2144 819 -2023 Q 819 -1988 816 -1967 Q 816 -1946 814 -1936 Q 813 -1927 813 -1924 L 813 -1754 Q 813 -1401 811 -1124 Q 808 -845 808 -497 Q 808 -431 800 -287 L 795 -77 Q 795 0 725 0 Z"/>
		<path character="a" fill="#A5834B" fill-opacity="1.0" stroke="none" stroke-width="0px" stroke-linecap="butt" stroke-opacity="1.0" transform="matrix(1,0,0,1,905,0)" d="M 717 0 Q 677 0 666 -9 Q 656 -19 651 -60 Q 627 -261 621 -310 L 608 -420 Q 549 -434 475 -434 L 379 -434 Q 315 -434 285 -434 Q 269 -434 267 -421 Q 267 -413 264 -413 L 259 -362 Q 256 -312 229 -163 Q 216 -88 197 -47 Q 176 0 157 0 Q 141 0 122 -14 Q 104 -29 104 -45 L 107 -53 L 109 -61 Q 157 -251 189 -438 L 221 -604 L 253 -807 Q 253 -807 283 -983 Q 296 -1055 331 -1215 Q 368 -1397 376 -1464 Q 379 -1472 387 -1562 Q 397 -1664 405 -1712 Q 413 -1781 421 -1792 L 440 -1792 Q 448 -1792 459 -1792 Q 491 -1792 507 -1807 Q 525 -1807 540 -1795 Q 555 -1783 555 -1767 Q 555 -1639 573 -1473 Q 584 -1387 589 -1331 Q 619 -986 739 -37 L 739 -31 Q 739 -10 717 0 M 595 -514 Q 568 -884 493 -1607 L 349 -920 Q 288 -624 288 -547 Q 288 -534 389 -524 Q 491 -514 568 -514 L 595 -514 Z"/>
		<path character="m" fill="#A5834B" fill-opacity="1.0" stroke="none" stroke-width="0px" stroke-linecap="butt" stroke-opacity="1.0" transform="matrix(1,0,0,1,1746,0)" d="M 1245 127 Q 1192 127 1192 -44 L 1192 -221 Q 1192 -606 1176 -823 L 1168 -921 Q 1157 -988 1157 -1039 Q 1157 -1130 1163 -1205 L 1168 -1371 Q 1168 -1454 1157 -1496 Q 1104 -1459 835 -376 L 832 -335 Q 824 -269 811 -229 Q 803 -200 788 -184 Q 773 -168 755 -168 Q 712 -168 693 -189 Q 675 -211 675 -256 Q 675 -327 607 -627 Q 539 -928 460 -1204 Q 381 -1481 352 -1510 Q 349 -1417 331 -1071 Q 293 -459 293 -108 L 296 -2 Q 285 32 240 32 Q 232 32 213 17 Q 195 3 195 -5 Q 195 -244 237 -845 Q 277 -1404 277 -1683 Q 277 -1699 272 -1715 Q 264 -1734 264 -1744 Q 264 -1792 333 -1792 Q 379 -1792 387 -1746 Q 397 -1684 397 -1653 L 400 -1621 Q 413 -1552 477 -1409 Q 528 -1294 555 -1209 Q 571 -1146 584 -1106 Q 627 -952 640 -877 L 675 -808 Q 683 -768 707 -678 Q 731 -577 741 -513 Q 752 -449 752 -391 Q 781 -437 918 -944 Q 1056 -1451 1080 -1592 Q 1083 -1597 1084 -1606 Q 1085 -1616 1088 -1632 Q 1093 -1668 1112 -1738 Q 1133 -1792 1176 -1792 Q 1195 -1792 1219 -1775 Q 1243 -1759 1243 -1743 Q 1243 -614 1277 -549 L 1277 -410 Q 1275 -349 1275 -269 Q 1275 -99 1293 -13 Q 1296 -11 1297 -5 Q 1299 0 1301 8 Q 1304 19 1304 32 Q 1304 64 1286 95 Q 1269 127 1245 127 M 1157 -1496 L 1155 -1496 L 1149 -1494 L 1157 -1491 L 1157 -1496 Z"/>
		<path character="i" fill="#A5834B" fill-opacity="1.0" stroke="none" stroke-width="0px" stroke-linecap="butt" stroke-opacity="1.0" transform="matrix(1,0,0,1,3291,0)" d="M 336 0 Q 275 0 264 -53 Q 251 -53 243 -50 L 221 -50 Q 163 -50 147 -80 Q 147 -101 168 -115 L 181 -130 L 259 -130 L 269 -141 L 275 -164 L 277 -196 Q 277 -358 269 -485 L 264 -584 L 259 -777 Q 259 -881 267 -1088 L 272 -1396 Q 272 -1598 259 -1704 Q 235 -1712 179 -1712 L 149 -1712 Q 133 -1712 115 -1712 Q 64 -1712 64 -1757 Q 64 -1769 88 -1780 Q 112 -1792 128 -1792 Q 229 -1792 331 -1792 Q 392 -1792 453 -1766 Q 501 -1747 501 -1712 Q 501 -1705 493 -1685 L 432 -1678 Q 413 -1712 355 -1712 L 341 -1704 Q 349 -1680 349 -1561 Q 349 -1384 347 -1242 L 341 -922 Q 341 -801 352 -629 Q 360 -432 360 -333 L 360 -298 Q 357 -279 357 -250 Q 357 -188 365 -174 L 363 -169 Q 363 -130 421 -130 Q 445 -130 461 -130 L 501 -130 Q 579 -130 579 -97 Q 579 -76 563 -63 Q 547 -50 520 -50 Q 496 -50 477 -50 Q 456 -50 432 -50 Q 416 -50 384 -27 Q 352 0 336 0 Z"/>
		<path character="n" fill="#A5834B" fill-opacity="1.0" stroke="none" stroke-width="0px" stroke-linecap="butt" stroke-opacity="1.0" transform="matrix(1,0,0,1,3940,0)" d="M 872 -10 Q 851 -10 841 -26 Q 832 -42 824 -74 Q 821 -96 813 -112 L 816 -120 Q 795 -245 725 -426 L 677 -565 Q 672 -570 627 -701 L 605 -765 Q 365 -1507 304 -1569 Q 283 -1496 283 -1380 Q 283 -1317 285 -1271 L 288 -1166 L 285 -1101 Q 283 -1071 283 -1036 Q 283 -977 288 -934 Q 293 -848 293 -848 L 285 -848 Q 285 -398 304 -352 L 304 -109 Q 315 -87 315 -52 Q 315 -31 300 -15 Q 285 0 264 0 Q 208 0 208 -144 L 213 -230 Q 219 -270 219 -318 Q 219 -446 211 -702 Q 203 -958 203 -1086 Q 203 -1163 211 -1324 Q 219 -1481 219 -1558 L 219 -1593 Q 219 -1724 267 -1764 L 275 -1756 L 301 -1761 Q 312 -1758 325 -1745 Q 336 -1734 336 -1721 L 341 -1705 Q 341 -1700 342 -1696 Q 344 -1692 344 -1692 Q 387 -1502 536 -1161 Q 688 -801 725 -683 Q 752 -590 768 -518 Q 819 -291 888 -168 L 893 -176 Q 955 -775 955 -1647 L 952 -1680 Q 949 -1693 949 -1715 Q 949 -1792 987 -1792 Q 1011 -1792 1028 -1766 Q 1045 -1740 1045 -1707 L 1045 -1512 L 1032 -1491 Q 1032 -1237 1002 -658 Q 973 -80 947 -29 L 901 -18 L 901 -16 L 899 -18 L 872 -10 Z"/>
		<path character="g" fill="#A5834B" fill-opacity="1.0" stroke="none" stroke-width="0px" stroke-linecap="butt" stroke-opacity="1.0" transform="matrix(1,0,0,1,5165,0)" d="M 507 0 Q 384 0 325 -30 Q 267 -60 239 -145 Q 211 -231 189 -418 Q 157 -692 157 -844 Q 157 -936 168 -1055 L 184 -1226 Q 197 -1423 214 -1523 Q 232 -1624 292 -1701 Q 352 -1779 477 -1792 Q 491 -1792 520 -1792 Q 603 -1792 603 -1753 Q 603 -1737 585 -1724 Q 568 -1712 549 -1712 L 523 -1712 L 499 -1712 Q 453 -1712 417 -1682 Q 381 -1653 357 -1598 Q 301 -1464 285 -1337 Q 264 -1169 259 -1044 L 256 -839 Q 256 -708 264 -644 Q 283 -615 289 -555 Q 296 -495 301 -391 Q 307 -298 325 -233 Q 344 -168 392 -125 Q 445 -80 539 -80 Q 616 -80 648 -168 Q 685 -261 691 -360 Q 699 -483 699 -568 L 699 -719 Q 672 -754 605 -754 L 584 -754 Q 571 -754 555 -754 Q 491 -754 491 -787 Q 491 -834 555 -834 Q 600 -834 629 -834 L 688 -834 Q 739 -826 768 -814 Q 800 -803 800 -783 Q 800 -747 784 -680 Q 771 -601 771 -573 Q 771 -455 776 -359 Q 779 -261 779 -143 Q 643 0 507 0 Z"/>
</g>
</svg>