<svg xmlns="http://www.w3.org/2000/svg" xmlns:xlink="http://www.w3.org/1999/xlink" viewBox="0 0 9635 3597">
<title>Installation</title>
<g transform="matrix(1,0,0,1,0,2752)">
  		<path character="I" fill="#EA8872" fill-opacity="1.0" stroke="none" stroke-width="10px" stroke-linecap="butt" stroke-opacity="1.0" transform="matrix(1,0,0,1,-128,0)" d="M 381 0 Q 317 0 219 0 Q 200 0 185 -14 Q 171 -28 171 -44 Q 171 -80 216 -80 L 320 -80 Q 320 -394 301 -872 Q 291 -1255 280 -1473 L 283 -1613 L 283 -1793 Q 283 -1930 277 -1968 L 184 -1968 Q 157 -1968 157 -2004 Q 157 -2027 179 -2040 Q 197 -2048 277 -2048 L 352 -2048 Q 392 -2048 453 -2048 Q 475 -2048 488 -2038 Q 501 -2029 501 -2011 Q 501 -1995 493 -1981 Q 485 -1968 469 -1968 Q 451 -1968 437 -1968 L 405 -1968 L 379 -1968 Q 352 -1968 347 -1955 L 341 -1930 Q 341 -1719 376 -1080 Q 408 -489 408 -230 L 408 -154 Q 405 -118 405 -80 L 501 -80 Q 563 -80 563 -44 Q 563 -28 551 -14 Q 539 0 525 0 L 381 0 Z"/>
		<path character="n" fill="#EA8872" fill-opacity="1.0" stroke="none" stroke-width="10px" stroke-linecap="butt" stroke-opacity="1.0" transform="matrix(1,0,0,1,585,0)" d="M 872 -10 Q 851 -10 841 -26 Q 832 -42 824 -74 Q 821 -96 813 -112 L 816 -120 Q 795 -245 725 -426 L 677 -565 Q 672 -570 627 -701 L 605 -765 Q 365 -1507 304 -1569 Q 283 -1496 283 -1380 Q 283 -1317 285 -1271 L 288 -1166 L 285 -1101 Q 283 -1071 283 -1036 Q 283 -977 288 -934 Q 293 -848 293 -848 L 285 -848 Q 285 -398 304 -352 L 304 -109 Q 315 -87 315 -52 Q 315 -31 300 -15 Q 285 0 264 0 Q 208 0 208 -144 L 213 -230 Q 219 -270 219 -318 Q 219 -446 211 -702 Q 203 -958 203 -1086 Q 203 -1163 211 -1324 Q 219 -1481 219 -1558 L 219 -1593 Q 219 -1724 267 -1764 L 275 -1756 L 301 -1761 Q 312 -1758 325 -1745 Q 336 -1734 336 -1721 L 341 -1705 Q 341 -1700 342 -1696 Q 344 -1692 344 -1692 Q 387 -1502 536 -1161 Q 688 -801 725 -683 Q 752 -590 768 -518 Q 819 -291 888 -168 L 893 -176 Q 955 -775 955 -1647 L 952 -1680 Q 949 -1693 949 -1715 Q 949 -1792 987 -1792 Q 1011 -1792 1028 -1766 Q 1045 -1740 1045 -1707 L 1045 -1512 L 1032 -1491 Q 1032 -1237 1002 -658 Q 973 -80 947 -29 L 901 -18 L 901 -16 L 899 -18 L 872 -10 Z"/>
		<path character="s" fill="#EA8872" fill-opacity="1.0" stroke="none" stroke-width="10px" stroke-linecap="butt" stroke-opacity="1.0" transform="matrix(1,0,0,1,1810,0)" d="M 221 0 Q 192 0 165 -22 Q 139 -45 136 -76 L 149 -97 Q 160 -97 197 -90 Q 227 -80 245 -80 Q 304 -80 349 -125 Q 395 -171 419 -243 Q 456 -378 456 -498 Q 456 -677 344 -882 Q 275 -1001 237 -1071 Q 200 -1141 171 -1232 Q 136 -1338 136 -1437 Q 136 -1530 184 -1657 Q 208 -1717 252 -1754 Q 296 -1792 347 -1792 Q 381 -1792 414 -1768 Q 448 -1744 448 -1717 Q 448 -1685 413 -1685 Q 403 -1685 387 -1699 Q 371 -1712 357 -1712 Q 317 -1712 285 -1680 Q 253 -1649 237 -1599 Q 205 -1502 205 -1421 Q 205 -1371 219 -1319 Q 221 -1303 224 -1292 Q 227 -1282 227 -1277 L 243 -1224 L 256 -1177 L 277 -1130 Q 285 -1112 294 -1097 Q 304 -1083 312 -1070 L 344 -1015 Q 355 -999 389 -940 Q 424 -881 453 -815 Q 480 -760 493 -711 Q 507 -663 517 -595 Q 525 -530 525 -451 Q 525 -325 491 -215 Q 443 -84 352 -31 Q 301 0 235 0 L 221 0 M 435 -1707 Q 435 -1710 432 -1710 L 432 -1707 L 435 -1707 Z"/>
		<path character="t" fill="#EA8872" fill-opacity="1.0" stroke="none" stroke-width="10px" stroke-linecap="butt" stroke-opacity="1.0" transform="matrix(1,0,0,1,2459,0)" d="M 368 -38 L 365 -138 Q 363 -181 363 -235 Q 363 -262 365 -280 L 368 -329 Q 368 -356 357 -394 Q 357 -575 331 -1067 Q 304 -1542 301 -1712 Q 136 -1712 80 -1723 Q 27 -1742 27 -1783 Q 40 -1792 77 -1792 Q 157 -1792 309 -1792 Q 448 -1792 541 -1792 L 597 -1792 L 653 -1792 Q 701 -1792 701 -1745 Q 701 -1730 684 -1721 Q 667 -1712 643 -1712 Q 589 -1712 531 -1712 L 416 -1712 Q 405 -1712 405 -1704 Q 403 -1696 403 -1653 Q 403 -1391 435 -859 Q 464 -308 464 -68 Q 464 -49 441 -33 Q 419 -17 397 -17 L 368 -38 Z"/>
		<path character="a" fill="#EA8872" fill-opacity="1.0" stroke="none" stroke-width="10px" stroke-linecap="butt" stroke-opacity="1.0" transform="matrix(1,0,0,1,3236,0)" d="M 717 0 Q 677 0 666 -9 Q 656 -19 651 -60 Q 627 -261 621 -310 L 608 -420 Q 549 -434 475 -434 L 379 -434 Q 315 -434 285 -434 Q 269 -434 267 -421 Q 267 -413 264 -413 L 259 -362 Q 256 -312 229 -163 Q 216 -88 197 -47 Q 176 0 157 0 Q 141 0 122 -14 Q 104 -29 104 -45 L 107 -53 L 109 -61 Q 157 -251 189 -438 L 221 -604 L 253 -807 Q 253 -807 283 -983 Q 296 -1055 331 -1215 Q 368 -1397 376 -1464 Q 379 -1472 387 -1562 Q 397 -1664 405 -1712 Q 413 -1781 421 -1792 L 440 -1792 Q 448 -1792 459 -1792 Q 491 -1792 507 -1807 Q 525 -1807 540 -1795 Q 555 -1783 555 -1767 Q 555 -1639 573 -1473 Q 584 -1387 589 -1331 Q 619 -986 739 -37 L 739 -31 Q 739 -10 717 0 M 595 -514 Q 568 -884 493 -1607 L 349 -920 Q 288 -624 288 -547 Q 288 -534 389 -524 Q 491 -514 568 -514 L 595 -514 Z"/>
		<path character="l" fill="#EA8872" fill-opacity="1.0" stroke="none" stroke-width="10px" stroke-linecap="butt" stroke-opacity="1.0" transform="matrix(1,0,0,1,4077,0)" d="M 240 0 Q 203 0 195 -50 Q 200 -66 200 -139 Q 200 -387 208 -875 Q 216 -1361 216 -1577 L 221 -1674 L 229 -1755 Q 229 -1774 248 -1774 Q 261 -1774 285 -1766 L 293 -1763 Q 293 -1704 291 -1655 L 291 -1550 L 291 -1256 Q 293 -1126 293 -961 Q 291 -948 291 -902 L 288 -845 Q 285 -791 285 -734 Q 285 -672 288 -621 L 291 -505 L 283 -484 L 285 -487 Q 285 -479 283 -476 L 283 -465 Q 283 -443 291 -427 L 283 -165 L 283 -148 Q 283 -102 285 -94 Q 285 -80 299 -80 L 437 -80 Q 499 -80 521 -80 Q 544 -80 549 -80 L 557 -80 Q 571 -80 584 -65 Q 597 -50 597 -33 Q 597 0 555 0 Q 509 0 333 0 L 339 0 Q 312 0 288 0 Q 267 0 240 0 Z"/>
		<path character="l" fill="#EA8872" fill-opacity="1.0" stroke="none" stroke-width="10px" stroke-linecap="butt" stroke-opacity="1.0" transform="matrix(1,0,0,1,4726,0)" d="M 240 0 Q 203 0 195 -50 Q 200 -66 200 -139 Q 200 -387 208 -875 Q 216 -1361 216 -1577 L 221 -1674 L 229 -1755 Q 229 -1774 248 -1774 Q 261 -1774 285 -1766 L 293 -1763 Q 293 -1704 291 -1655 L 291 -1550 L 291 -1256 Q 293 -1126 293 -961 Q 291 -948 291 -902 L 288 -845 Q 285 -791 285 -734 Q 285 -672 288 -621 L 291 -505 L 283 -484 L 285 -487 Q 285 -479 283 -476 L 283 -465 Q 283 -443 291 -427 L 283 -165 L 283 -148 Q 283 -102 285 -94 Q 285 -80 299 -80 L 437 -80 Q 499 -80 521 -80 Q 544 -80 549 -80 L 557 -80 Q 571 -80 584 -65 Q 597 -50 597 -33 Q 597 0 555 0 Q 509 0 333 0 L 339 0 Q 312 0 288 0 Q 267 0 240 0 Z"/>
		<path character="a" fill="#EA8872" fill-opacity="1.0" stroke="none" stroke-width="10px" stroke-linecap="butt" stroke-opacity="1.0" transform="matrix(1,0,0,1,5375,0)" d="M 717 0 Q 677 0 666 -9 Q 656 -19 651 -60 Q 627 -261 621 -310 L 608 -420 Q 549 -434 475 -434 L 379 -434 Q 315 -434 285 -434 Q 269 -434 267 -421 Q 267 -413 264 -413 L 259 -362 Q 256 -312 229 -163 Q 216 -88 197 -47 Q 176 0 157 0 Q 141 0 122 -14 Q 104 -29 104 -45 L 107 -53 L 109 -61 Q 157 -251 189 -438 L 221 -604 L 253 -807 Q 253 -807 283 -983 Q 296 -1055 331 -1215 Q 368 -1397 376 -1464 Q 379 -1472 387 -1562 Q 397 -1664 405 -1712 Q 413 -1781 421 -1792 L 440 -1792 Q 448 -1792 459 -1792 Q 491 -1792 507 -1807 Q 525 -1807 540 -1795 Q 555 -1783 555 -1767 Q 555 -1639 573 -1473 Q 584 -1387 589 -1331 Q 619 -986 739 -37 L 739 -31 Q 739 -10 717 0 M 595 -514 Q 568 -884 493 -1607 L 349 -920 Q 288 -624 288 -547 Q 288 -534 389 -524 Q 491 -514 568 -514 L 595 -514 Z"/>
		<path character="t" fill="#EA8872" fill-opacity="1.0" stroke="none" stroke-width="10px" stroke-linecap="butt" stroke-opacity="1.0" transform="matrix(1,0,0,1,6216,0)" d="M 368 -38 L 365 -138 Q 363 -181 363 -235 Q 363 -262 365 -280 L 368 -329 Q 368 -356 357 -394 Q 357 -575 331 -1067 Q 304 -1542 301 -1712 Q 136 -1712 80 -1723 Q 27 -1742 27 -1783 Q 40 -1792 77 -1792 Q 157 -1792 309 -1792 Q 448 -1792 541 -1792 L 597 -1792 L 653 -1792 Q 701 -1792 701 -1745 Q 701 -1730 684 -1721 Q 667 -1712 643 -1712 Q 589 -1712 531 -1712 L 416 -1712 Q 405 -1712 405 -1704 Q 403 -1696 403 -1653 Q 403 -1391 435 -859 Q 464 -308 464 -68 Q 464 -49 441 -33 Q 419 -17 397 -17 L 368 -38 Z"/>
		<path character="i" fill="#EA8872" fill-opacity="1.0" stroke="none" stroke-width="10px" stroke-linecap="butt" stroke-opacity="1.0" transform="matrix(1,0,0,1,6993,0)" d="M 336 0 Q 275 0 264 -53 Q 251 -53 243 -50 L 221 -50 Q 163 -50 147 -80 Q 147 -101 168 -115 L 181 -130 L 259 -130 L 269 -141 L 275 -164 L 277 -196 Q 277 -358 269 -485 L 264 -584 L 259 -777 Q 259 -881 267 -1088 L 272 -1396 Q 272 -1598 259 -1704 Q 235 -1712 179 -1712 L 149 -1712 Q 133 -1712 115 -1712 Q 64 -1712 64 -1757 Q 64 -1769 88 -1780 Q 112 -1792 128 -1792 Q 229 -1792 331 -1792 Q 392 -1792 453 -1766 Q 501 -1747 501 -1712 Q 501 -1705 493 -1685 L 432 -1678 Q 413 -1712 355 -1712 L 341 -1704 Q 349 -1680 349 -1561 Q 349 -1384 347 -1242 L 341 -922 Q 341 -801 352 -629 Q 360 -432 360 -333 L 360 -298 Q 357 -279 357 -250 Q 357 -188 365 -174 L 363 -169 Q 363 -130 421 -130 Q 445 -130 461 -130 L 501 -130 Q 579 -130 579 -97 Q 579 -76 563 -63 Q 547 -50 520 -50 Q 496 -50 477 -50 Q 456 -50 432 -50 Q 416 -50 384 -27 Q 352 0 336 0 Z"/>
		<path character="o" fill="#EA8872" fill-opacity="1.0" stroke="none" stroke-width="10px" stroke-linecap="butt" stroke-opacity="1.0" transform="matrix(1,0,0,1,7642,0)" d="M 469 32 Q 157 32 157 -952 L 157 -1046 Q 157 -1792 349 -1792 Q 363 -1792 387 -1784 Q 472 -1755 555 -1747 Q 605 -1736 656 -1642 Q 712 -1546 740 -1388 Q 768 -1230 768 -1065 L 763 -1051 Q 763 -963 765 -893 L 768 -733 Q 768 -597 757 -487 Q 741 -321 704 -201 Q 680 -128 649 -80 Q 619 -32 573 0 Q 531 32 469 32 M 459 -48 Q 563 -48 613 -194 Q 664 -343 675 -497 Q 685 -656 685 -752 Q 685 -858 669 -1065 Q 656 -1297 656 -1379 L 645 -1400 L 651 -1414 Q 651 -1535 585 -1623 Q 520 -1712 427 -1712 Q 304 -1712 280 -1589 Q 275 -1547 269 -1469 Q 269 -1273 253 -1201 Q 253 -1161 245 -1076 L 240 -951 Q 240 -893 243 -848 L 245 -741 Q 245 -616 267 -454 Q 283 -335 304 -252 Q 325 -170 365 -112 Q 405 -48 459 -48 Z"/>
		<path character="n" fill="#EA8872" fill-opacity="1.0" stroke="none" stroke-width="10px" stroke-linecap="butt" stroke-opacity="1.0" transform="matrix(1,0,0,1,8547,0)" d="M 872 -10 Q 851 -10 841 -26 Q 832 -42 824 -74 Q 821 -96 813 -112 L 816 -120 Q 795 -245 725 -426 L 677 -565 Q 672 -570 627 -701 L 605 -765 Q 365 -1507 304 -1569 Q 283 -1496 283 -1380 Q 283 -1317 285 -1271 L 288 -1166 L 285 -1101 Q 283 -1071 283 -1036 Q 283 -977 288 -934 Q 293 -848 293 -848 L 285 -848 Q 285 -398 304 -352 L 304 -109 Q 315 -87 315 -52 Q 315 -31 300 -15 Q 285 0 264 0 Q 208 0 208 -144 L 213 -230 Q 219 -270 219 -318 Q 219 -446 211 -702 Q 203 -958 203 -1086 Q 203 -1163 211 -1324 Q 219 -1481 219 -1558 L 219 -1593 Q 219 -1724 267 -1764 L 275 -1756 L 301 -1761 Q 312 -1758 325 -1745 Q 336 -1734 336 -1721 L 341 -1705 Q 341 -1700 342 -1696 Q 344 -1692 344 -1692 Q 387 -1502 536 -1161 Q 688 -801 725 -683 Q 752 -590 768 -518 Q 819 -291 888 -168 L 893 -176 Q 955 -775 955 -1647 L 952 -1680 Q 949 -1693 949 -1715 Q 949 -1792 987 -1792 Q 1011 -1792 1028 -1766 Q 1045 -1740 1045 -1707 L 1045 -1512 L 1032 -1491 Q 1032 -1237 1002 -658 Q 973 -80 947 -29 L 901 -18 L 901 -16 L 899 -18 L 872 -10 Z"/>
</g>
</svg>