<svg xmlns="http://www.w3.org/2000/svg" xmlns:xlink="http://www.w3.org/1999/xlink" viewBox="0 0 5686 3597">
<title>Options</title>
<g transform="matrix(1,0,0,1,0,2752)">
  		<path character="O" fill="#EA8872" fill-opacity="1.0" stroke="none" stroke-width="10px" stroke-linecap="butt" stroke-opacity="1.0" transform="matrix(1,0,0,1,-128,0)" d="M 533 64 Q 163 64 163 -1245 L 163 -1354 Q 163 -1582 189 -1751 Q 205 -1857 233 -1925 Q 261 -1993 309 -2034 Q 355 -2080 427 -2080 Q 491 -2080 544 -2054 Q 597 -2028 632 -1987 Q 661 -1949 685 -1886 Q 709 -1824 723 -1767 L 744 -1639 Q 808 -1174 808 -815 L 808 -807 Q 808 -671 803 -556 Q 797 -420 773 -271 Q 763 -197 743 -142 Q 723 -88 691 -34 Q 635 64 533 64 M 539 -16 Q 581 -16 616 -66 Q 651 -116 669 -205 Q 712 -394 723 -576 Q 728 -721 728 -859 L 728 -870 L 725 -1140 Q 720 -1286 693 -1519 Q 672 -1684 605 -1857 Q 579 -1924 535 -1962 Q 491 -2000 440 -2000 Q 395 -2000 360 -1957 Q 325 -1914 304 -1835 Q 256 -1654 251 -1500 Q 243 -1368 243 -1227 L 243 -1094 Q 243 -913 277 -635 Q 299 -459 331 -329 Q 363 -200 416 -111 Q 469 -16 539 -16 Z"/>
		<path character="p" fill="#EA8872" fill-opacity="1.0" stroke="none" stroke-width="10px" stroke-linecap="butt" stroke-opacity="1.0" transform="matrix(1,0,0,1,841,0)" d="M 229 42 Q 200 -130 200 -352 Q 200 -439 208 -606 L 213 -860 Q 195 -898 195 -922 Q 221 -967 221 -1181 Q 221 -1693 208 -1727 Q 232 -1792 245 -1792 L 363 -1792 Q 392 -1792 446 -1762 Q 501 -1733 539 -1700 Q 605 -1636 605 -1371 Q 605 -1228 597 -1153 Q 592 -1100 580 -1069 Q 568 -1038 544 -999 Q 504 -935 408 -888 Q 368 -865 296 -843 L 296 -518 Q 296 -450 309 -250 L 315 -163 L 320 15 Q 320 64 269 64 L 229 42 M 315 -948 Q 392 -948 445 -1023 Q 464 -1051 480 -1098 Q 496 -1145 501 -1190 Q 517 -1270 517 -1376 L 517 -1451 Q 517 -1490 514 -1526 Q 512 -1562 504 -1595 Q 493 -1631 476 -1655 Q 459 -1679 429 -1695 Q 397 -1712 352 -1712 Q 320 -1712 306 -1695 Q 293 -1679 293 -1637 Q 293 -1570 301 -1436 L 307 -1235 Q 307 -1163 301 -1104 L 296 -975 L 315 -948 Z"/>
		<path character="t" fill="#EA8872" fill-opacity="1.0" stroke="none" stroke-width="10px" stroke-linecap="butt" stroke-opacity="1.0" transform="matrix(1,0,0,1,1554,0)" d="M 368 -38 L 365 -138 Q 363 -181 363 -235 Q 363 -262 365 -280 L 368 -329 Q 368 -356 357 -394 Q 357 -575 331 -1067 Q 304 -1542 301 -1712 Q 136 -1712 80 -1723 Q 27 -1742 27 -1783 Q 40 -1792 77 -1792 Q 157 -1792 309 -1792 Q 448 -1792 541 -1792 L 597 -1792 L 653 -1792 Q 701 -1792 701 -1745 Q 701 -1730 684 -1721 Q 667 -1712 643 -1712 Q 589 -1712 531 -1712 L 416 -1712 Q 405 -1712 405 -1704 Q 403 -1696 403 -1653 Q 403 -1391 435 -859 Q 464 -308 464 -68 Q 464 -49 441 -33 Q 419 -17 397 -17 L 368 -38 Z"/>
		<path character="i" fill="#EA8872" fill-opacity="1.0" stroke="none" stroke-width="10px" stroke-linecap="butt" stroke-opacity="1.0" transform="matrix(1,0,0,1,2331,0)" d="M 336 0 Q 275 0 264 -53 Q 251 -53 243 -50 L 221 -50 Q 163 -50 147 -80 Q 147 -101 168 -115 L 181 -130 L 259 -130 L 269 -141 L 275 -164 L 277 -196 Q 277 -358 269 -485 L 264 -584 L 259 -777 Q 259 -881 267 -1088 L 272 -1396 Q 272 -1598 259 -1704 Q 235 -1712 179 -1712 L 149 -1712 Q 133 -1712 115 -1712 Q 64 -1712 64 -1757 Q 64 -1769 88 -1780 Q 112 -1792 128 -1792 Q 229 -1792 331 -1792 Q 392 -1792 453 -1766 Q 501 -1747 501 -1712 Q 501 -1705 493 -1685 L 432 -1678 Q 413 -1712 355 -1712 L 341 -1704 Q 349 -1680 349 -1561 Q 349 -1384 347 -1242 L 341 -922 Q 341 -801 352 -629 Q 360 -432 360 -333 L 360 -298 Q 357 -279 357 -250 Q 357 -188 365 -174 L 363 -169 Q 363 -130 421 -130 Q 445 -130 461 -130 L 501 -130 Q 579 -130 579 -97 Q 579 -76 563 -63 Q 547 -50 520 -50 Q 496 -50 477 -50 Q 456 -50 432 -50 Q 416 -50 384 -27 Q 352 0 336 0 Z"/>
		<path character="o" fill="#EA8872" fill-opacity="1.0" stroke="none" stroke-width="10px" stroke-linecap="butt" stroke-opacity="1.0" transform="matrix(1,0,0,1,2980,0)" d="M 469 32 Q 157 32 157 -952 L 157 -1046 Q 157 -1792 349 -1792 Q 363 -1792 387 -1784 Q 472 -1755 555 -1747 Q 605 -1736 656 -1642 Q 712 -1546 740 -1388 Q 768 -1230 768 -1065 L 763 -1051 Q 763 -963 765 -893 L 768 -733 Q 768 -597 757 -487 Q 741 -321 704 -201 Q 680 -128 649 -80 Q 619 -32 573 0 Q 531 32 469 32 M 459 -48 Q 563 -48 613 -194 Q 664 -343 675 -497 Q 685 -656 685 -752 Q 685 -858 669 -1065 Q 656 -1297 656 -1379 L 645 -1400 L 651 -1414 Q 651 -1535 585 -1623 Q 520 -1712 427 -1712 Q 304 -1712 280 -1589 Q 275 -1547 269 -1469 Q 269 -1273 253 -1201 Q 253 -1161 245 -1076 L 240 -951 Q 240 -893 243 -848 L 245 -741 Q 245 -616 267 -454 Q 283 -335 304 -252 Q 325 -170 365 -112 Q 405 -48 459 -48 Z"/>
		<path character="n" fill="#EA8872" fill-opacity="1.0" stroke="none" stroke-width="10px" stroke-linecap="butt" stroke-opacity="1.0" transform="matrix(1,0,0,1,3885,0)" d="M 872 -10 Q 851 -10 841 -26 Q 832 -42 824 -74 Q 821 -96 813 -112 L 816 -120 Q 795 -245 725 -426 L 677 -565 Q 672 -570 627 -701 L 605 -765 Q 365 -1507 304 -1569 Q 283 -1496 283 -1380 Q 283 -1317 285 -1271 L 288 -1166 L 285 -1101 Q 283 -1071 283 -1036 Q 283 -977 288 -934 Q 293 -848 293 -848 L 285 -848 Q 285 -398 304 -352 L 304 -109 Q 315 -87 315 -52 Q 315 -31 300 -15 Q 285 0 264 0 Q 208 0 208 -144 L 213 -230 Q 219 -270 219 -318 Q 219 -446 211 -702 Q 203 -958 203 -1086 Q 203 -1163 211 -1324 Q 219 -1481 219 -1558 L 219 -1593 Q 219 -1724 267 -1764 L 275 -1756 L 301 -1761 Q 312 -1758 325 -1745 Q 336 -1734 336 -1721 L 341 -1705 Q 341 -1700 342 -1696 Q 344 -1692 344 -1692 Q 387 -1502 536 -1161 Q 688 -801 725 -683 Q 752 -590 768 -518 Q 819 -291 888 -168 L 893 -176 Q 955 -775 955 -1647 L 952 -1680 Q 949 -1693 949 -1715 Q 949 -1792 987 -1792 Q 1011 -1792 1028 -1766 Q 1045 -1740 1045 -1707 L 1045 -1512 L 1032 -1491 Q 1032 -1237 1002 -658 Q 973 -80 947 -29 L 901 -18 L 901 -16 L 899 -18 L 872 -10 Z"/>
		<path character="s" fill="#EA8872" fill-opacity="1.0" stroke="none" stroke-width="10px" stroke-linecap="butt" stroke-opacity="1.0" transform="matrix(1,0,0,1,5110,0)" d="M 221 0 Q 192 0 165 -22 Q 139 -45 136 -76 L 149 -97 Q 160 -97 197 -90 Q 227 -80 245 -80 Q 304 -80 349 -125 Q 395 -171 419 -243 Q 456 -378 456 -498 Q 456 -677 344 -882 Q 275 -1001 237 -1071 Q 200 -1141 171 -1232 Q 136 -1338 136 -1437 Q 136 -1530 184 -1657 Q 208 -1717 252 -1754 Q 296 -1792 347 -1792 Q 381 -1792 414 -1768 Q 448 -1744 448 -1717 Q 448 -1685 413 -1685 Q 403 -1685 387 -1699 Q 371 -1712 357 -1712 Q 317 -1712 285 -1680 Q 253 -1649 237 -1599 Q 205 -1502 205 -1421 Q 205 -1371 219 -1319 Q 221 -1303 224 -1292 Q 227 -1282 227 -1277 L 243 -1224 L 256 -1177 L 277 -1130 Q 285 -1112 294 -1097 Q 304 -1083 312 -1070 L 344 -1015 Q 355 -999 389 -940 Q 424 -881 453 -815 Q 480 -760 493 -711 Q 507 -663 517 -595 Q 525 -530 525 -451 Q 525 -325 491 -215 Q 443 -84 352 -31 Q 301 0 235 0 L 221 0 M 435 -1707 Q 435 -1710 432 -1710 L 432 -1707 L 435 -1707 Z"/>
</g>
</svg>