<svg xmlns="http://www.w3.org/2000/svg" xmlns:xlink="http://www.w3.org/1999/xlink" viewBox="0 0 3812 3597">
<title>Setup</title>
<g transform="matrix(1,0,0,1,0,2752)">
  		<path character="S" fill="#EA8872" fill-opacity="1.0" stroke="none" stroke-width="10px" stroke-linecap="butt" stroke-opacity="1.0" transform="matrix(1,0,0,1,-128,0)" d="M 307 64 Q 259 64 233 58 Q 208 53 179 36 Q 147 15 131 -24 Q 131 -56 160 -56 Q 189 -56 235 -37 Q 277 -16 307 -16 Q 365 -16 414 -64 Q 464 -113 491 -191 Q 544 -344 544 -462 Q 544 -594 506 -728 Q 469 -863 408 -981 Q 395 -1010 363 -1070 Q 296 -1204 261 -1279 Q 227 -1354 200 -1446 Q 163 -1567 163 -1706 Q 163 -1795 191 -1877 Q 219 -1959 280 -2018 Q 347 -2080 429 -2080 Q 461 -2080 506 -2047 Q 552 -2014 552 -1982 Q 552 -1961 536 -1961 Q 520 -1961 493 -1980 Q 469 -2000 448 -2000 Q 387 -2000 340 -1954 Q 293 -1908 272 -1841 Q 253 -1784 253 -1716 Q 253 -1611 280 -1499 Q 307 -1387 352 -1289 L 445 -1092 L 472 -1036 Q 528 -919 558 -843 Q 589 -768 611 -674 Q 640 -547 640 -430 Q 640 -274 560 -112 Q 520 -33 453 15 Q 387 64 307 64 Z"/>
		<path character="e" fill="#EA8872" fill-opacity="1.0" stroke="none" stroke-width="10px" stroke-linecap="butt" stroke-opacity="1.0" transform="matrix(1,0,0,1,713,0)" d="M 243 0 Q 195 0 189 -56 L 189 -92 Q 192 -105 192 -124 L 181 -135 Q 203 -191 203 -245 Q 203 -306 195 -421 L 189 -598 Q 189 -732 197 -1000 Q 208 -1238 208 -1404 L 203 -1565 Q 197 -1635 197 -1720 Q 197 -1758 216 -1775 Q 235 -1792 275 -1792 Q 301 -1792 317 -1777 Q 323 -1774 395 -1767 Q 461 -1759 509 -1744 Q 560 -1729 560 -1706 Q 560 -1681 509 -1656 Q 357 -1712 293 -1712 L 280 -1689 Q 283 -1665 283 -1575 Q 283 -1461 277 -1371 Q 275 -1278 275 -1164 Q 275 -1090 312 -1090 L 355 -1090 Q 376 -1090 400 -1090 Q 504 -1090 504 -1057 Q 504 -1037 490 -1023 Q 477 -1010 451 -1010 Q 411 -1010 389 -1025 L 304 -1034 L 291 -1034 L 277 -1025 L 277 -1017 Q 283 -970 283 -798 Q 283 -690 280 -602 L 277 -405 Q 277 -297 285 -184 Q 288 -121 312 -100 Q 336 -80 400 -80 L 448 -80 Q 472 -80 501 -80 Q 579 -80 579 -46 Q 579 0 461 0 L 243 0 Z"/>
		<path character="t" fill="#EA8872" fill-opacity="1.0" stroke="none" stroke-width="10px" stroke-linecap="butt" stroke-opacity="1.0" transform="matrix(1,0,0,1,1426,0)" d="M 368 -38 L 365 -138 Q 363 -181 363 -235 Q 363 -262 365 -280 L 368 -329 Q 368 -356 357 -394 Q 357 -575 331 -1067 Q 304 -1542 301 -1712 Q 136 -1712 80 -1723 Q 27 -1742 27 -1783 Q 40 -1792 77 -1792 Q 157 -1792 309 -1792 Q 448 -1792 541 -1792 L 597 -1792 L 653 -1792 Q 701 -1792 701 -1745 Q 701 -1730 684 -1721 Q 667 -1712 643 -1712 Q 589 -1712 531 -1712 L 416 -1712 Q 405 -1712 405 -1704 Q 403 -1696 403 -1653 Q 403 -1391 435 -859 Q 464 -308 464 -68 Q 464 -49 441 -33 Q 419 -17 397 -17 L 368 -38 Z"/>
		<path character="u" fill="#EA8872" fill-opacity="1.0" stroke="none" stroke-width="10px" stroke-linecap="butt" stroke-opacity="1.0" transform="matrix(1,0,0,1,2203,0)" d="M 472 0 Q 429 0 380 -28 Q 331 -56 299 -94 Q 261 -142 240 -364 Q 219 -586 213 -873 Q 213 -937 211 -969 Q 205 -1637 189 -1759 L 205 -1796 Q 267 -1788 267 -1650 L 275 -946 Q 275 -872 288 -665 Q 304 -479 304 -383 Q 304 -80 504 -80 Q 627 -80 661 -638 L 664 -691 Q 683 -1421 683 -1772 L 680 -1796 Q 677 -1807 677 -1820 Q 677 -1856 723 -1856 Q 755 -1856 763 -1840 Q 768 -1813 768 -1745 Q 768 -1539 752 -1469 L 755 -1453 Q 755 -1419 747 -1347 L 741 -1241 L 741 -1214 Q 744 -1203 744 -1187 Q 739 -1123 739 -1064 Q 736 -1045 736 -1005 Q 731 -751 725 -564 Q 717 -332 661 -171 Q 603 0 472 0 Z"/>
		<path character="p" fill="#EA8872" fill-opacity="1.0" stroke="none" stroke-width="10px" stroke-linecap="butt" stroke-opacity="1.0" transform="matrix(1,0,0,1,3172,0)" d="M 229 42 Q 200 -130 200 -352 Q 200 -439 208 -606 L 213 -860 Q 195 -898 195 -922 Q 221 -967 221 -1181 Q 221 -1693 208 -1727 Q 232 -1792 245 -1792 L 363 -1792 Q 392 -1792 446 -1762 Q 501 -1733 539 -1700 Q 605 -1636 605 -1371 Q 605 -1228 597 -1153 Q 592 -1100 580 -1069 Q 568 -1038 544 -999 Q 504 -935 408 -888 Q 368 -865 296 -843 L 296 -518 Q 296 -450 309 -250 L 315 -163 L 320 15 Q 320 64 269 64 L 229 42 M 315 -948 Q 392 -948 445 -1023 Q 464 -1051 480 -1098 Q 496 -1145 501 -1190 Q 517 -1270 517 -1376 L 517 -1451 Q 517 -1490 514 -1526 Q 512 -1562 504 -1595 Q 493 -1631 476 -1655 Q 459 -1679 429 -1695 Q 397 -1712 352 -1712 Q 320 -1712 306 -1695 Q 293 -1679 293 -1637 Q 293 -1570 301 -1436 L 307 -1235 Q 307 -1163 301 -1104 L 296 -975 L 315 -948 Z"/>
</g>
</svg>