<svg xmlns="http://www.w3.org/2000/svg" xmlns:xlink="http://www.w3.org/1999/xlink" viewBox="0 0 40708 3546">
<title>Markdown Titles to .svg for Ruby</title>
<g transform="matrix(1,0,0,1,0,2624)">
  		<path character="M" fill="#EA8872" fill-opacity="1.0" stroke="none" stroke-width="0px" stroke-linecap="butt" stroke-opacity="1.0" transform="matrix(1,0,0,1,320,0)" d="M 2360 -304 Q 2393 -304 2393 -253 Q 2393 -202 2376 -169 Q 2359 -136 2336 -109 Q 2314 -82 2280 -57 Q 2200 0 2111 0 Q 2023 0 1971 -22 Q 1919 -44 1881 -88 Q 1799 -181 1799 -344 Q 1799 -517 1865 -768 Q 1931 -1019 1992 -1197 Q 2053 -1376 2117 -1538 L 2235 -1844 Q 2041 -1666 1743 -1097 L 1425 -484 Q 1171 0 1062 0 Q 956 0 916 -94 Q 881 -183 881 -397 Q 881 -612 914 -809 Q 948 -1007 999 -1195 Q 1088 -1528 1230 -1856 Q 1092 -1777 924 -1504 Q 795 -1286 743 -1186 L 404 -551 Q 193 -159 64 -67 Q -29 0 -137 0 Q -228 0 -269 -58 Q -285 -81 -285 -100 Q -285 -120 -273 -124 Q -192 -147 -158 -171 Q -125 -195 -92 -220 Q -59 -246 4 -329 Q 67 -412 140 -529 Q 214 -646 294 -792 L 461 -1098 Q 692 -1543 944 -1811 Q 1033 -1907 1120 -1959 Q 1206 -2021 1320 -2041 Q 1352 -2048 1379 -2048 Q 1406 -2048 1439 -2040 Q 1473 -2033 1498 -2016 Q 1555 -1977 1532 -1913 Q 1521 -1874 1491 -1797 L 1420 -1613 Q 1172 -940 1148 -389 Q 1218 -510 1289 -653 L 1437 -950 L 1593 -1251 Q 1954 -1928 2264 -2027 Q 2328 -2048 2371 -2048 Q 2415 -2048 2440 -2036 Q 2465 -2025 2485 -2008 Q 2531 -1966 2516 -1921 Q 2502 -1877 2478 -1808 L 2288 -1246 L 2219 -1026 Q 2107 -644 2086 -439 Q 2078 -353 2105 -304 Q 2132 -256 2179 -256 Q 2226 -256 2253 -263 Q 2280 -271 2300 -280 L 2334 -296 Q 2348 -304 2360 -304 Z"/>
		<path character="a" fill="#EA8872" fill-opacity="1.0" stroke="none" stroke-width="0px" stroke-linecap="butt" stroke-opacity="1.0" transform="matrix(1,0,0,1,2833,0)" d="M 1108 -353 Q 1108 -233 1193 -233 Q 1252 -233 1291 -251 Q 1330 -270 1343 -270 Q 1370 -270 1370 -241 Q 1370 -128 1252 -47 Q 1128 38 998 -5 Q 912 -35 872 -135 Q 852 -186 852 -228 Q 852 -296 865 -372 Q 743 -128 562 -36 Q 490 0 408 0 Q 327 0 267 -33 Q 208 -66 166 -123 Q 80 -244 88 -427 Q 96 -656 226 -876 Q 345 -1082 528 -1212 Q 710 -1344 869 -1344 Q 1028 -1344 1125 -1216 Q 1216 -1344 1285 -1344 Q 1360 -1344 1398 -1317 Q 1470 -1265 1449 -1227 Q 1120 -564 1111 -402 Q 1108 -379 1108 -353 M 379 -350 Q 379 -192 481 -192 Q 558 -192 671 -322 Q 836 -513 964 -836 Q 1004 -938 1032 -1039 Q 1027 -1134 957 -1179 Q 933 -1194 886 -1194 Q 840 -1194 777 -1160 Q 715 -1126 657 -1067 Q 599 -1008 548 -927 Q 498 -846 460 -751 Q 379 -549 379 -350 Z"/>
		<path character="r" fill="#EA8872" fill-opacity="1.0" stroke="none" stroke-width="0px" stroke-linecap="butt" stroke-opacity="1.0" transform="matrix(1,0,0,1,4321,0)" d="M 99 -43 Q 73 -63 57 -87 Q 42 -111 40 -128 Q 39 -145 47 -170 Q 56 -195 71 -232 Q 338 -877 338 -1098 Q 334 -1160 295 -1186 L 269 -1204 Q 257 -1213 256 -1235 Q 256 -1258 273 -1278 Q 290 -1299 317 -1314 Q 374 -1344 433 -1344 Q 493 -1344 526 -1331 Q 560 -1318 584 -1296 Q 634 -1250 634 -1198 Q 635 -1146 622 -1093 Q 610 -1040 593 -989 Q 576 -938 559 -892 Q 542 -846 537 -824 Q 526 -779 529 -767 Q 560 -794 567 -820 L 618 -916 Q 789 -1219 951 -1317 Q 999 -1344 1065 -1344 Q 1131 -1344 1171 -1298 Q 1212 -1252 1214 -1196 Q 1216 -1140 1206 -1102 Q 1197 -1065 1177 -1033 Q 1134 -960 1072 -960 Q 1055 -960 1041 -972 L 1012 -997 Q 968 -1035 928 -1035 Q 888 -1035 831 -983 Q 774 -932 712 -852 Q 505 -584 374 -251 L 316 -103 Q 294 -47 277 -23 Q 260 0 226 0 Q 193 0 159 -12 Q 126 -24 99 -43 Z"/>
		<path character="k" fill="#EA8872" fill-opacity="1.0" stroke="none" stroke-width="0px" stroke-linecap="butt" stroke-opacity="1.0" transform="matrix(1,0,0,1,5426,0)" d="M 963 0 Q 665 0 488 -575 Q 419 -445 373 -338 L 294 -157 Q 260 -83 230 -41 Q 201 0 164 0 Q 127 0 97 -12 Q 67 -25 45 -44 Q -1 -86 -1 -135 Q -1 -155 26 -212 L 79 -318 Q 324 -819 524 -1588 Q 597 -1872 630 -2099 Q 644 -2208 738 -2208 Q 793 -2208 830 -2179 Q 900 -2124 897 -2059 Q 895 -1995 880 -1914 Q 865 -1834 840 -1738 Q 815 -1643 784 -1539 Q 698 -1268 656 -1152 L 533 -816 Q 509 -756 496 -729 Q 801 -845 953 -991 Q 1045 -1079 1045 -1156 Q 1045 -1195 1018 -1213 Q 991 -1231 981 -1240 Q 971 -1249 979 -1274 Q 988 -1299 1029 -1321 Q 1070 -1344 1127 -1344 Q 1185 -1344 1224 -1334 Q 1263 -1324 1292 -1302 Q 1356 -1258 1356 -1177 Q 1356 -1097 1320 -1030 Q 1285 -963 1210 -900 Q 1062 -779 735 -666 Q 776 -501 885 -375 Q 988 -256 1075 -256 Q 1121 -256 1154 -271 L 1201 -294 Q 1215 -302 1229 -302 Q 1261 -302 1261 -259 Q 1261 -222 1249 -194 Q 1238 -166 1216 -134 Q 1194 -103 1160 -73 Q 1075 0 963 0 Z"/>
		<path character="d" fill="#EA8872" fill-opacity="1.0" stroke="none" stroke-width="0px" stroke-linecap="butt" stroke-opacity="1.0" transform="matrix(1,0,0,1,6787,0)" d="M 1406 -302 Q 1433 -302 1433 -271 Q 1433 -148 1316 -60 Q 1239 0 1170 0 Q 1101 0 1060 -16 Q 1020 -33 987 -69 Q 914 -152 914 -297 Q 914 -326 924 -390 Q 818 -217 742 -147 Q 588 0 441 0 Q 209 0 137 -206 Q 110 -282 110 -396 Q 110 -511 145 -628 Q 181 -745 242 -850 Q 303 -956 384 -1046 Q 465 -1137 554 -1204 Q 746 -1344 900 -1344 Q 1055 -1344 1148 -1233 Q 1377 -2011 1492 -2151 Q 1541 -2208 1595 -2208 Q 1684 -2208 1730 -2158 Q 1744 -2141 1744 -2124 Q 1744 -2108 1723 -2063 Q 1702 -2018 1662 -1918 Q 1545 -1616 1498 -1476 Q 1377 -1118 1335 -983 L 1263 -745 Q 1169 -428 1169 -342 Q 1169 -256 1234 -256 Q 1293 -256 1328 -271 L 1378 -294 Q 1393 -302 1406 -302 M 504 -192 Q 639 -192 814 -455 Q 996 -727 1068 -1047 Q 1063 -1137 994 -1179 Q 970 -1194 922 -1194 Q 874 -1194 810 -1159 Q 747 -1125 687 -1066 Q 627 -1007 575 -927 Q 524 -848 486 -759 Q 403 -565 403 -378 Q 403 -192 504 -192 Z"/>
		<path character="o" fill="#EA8872" fill-opacity="1.0" stroke="none" stroke-width="0px" stroke-linecap="butt" stroke-opacity="1.0" transform="matrix(1,0,0,1,8275,0)" d="M 216 -100 Q 161 -152 129 -231 Q 98 -310 97 -418 Q 96 -526 124 -636 Q 152 -747 204 -850 Q 256 -953 328 -1043 Q 401 -1133 489 -1200 Q 681 -1344 887 -1344 Q 1157 -1344 1253 -1111 Q 1321 -943 1261 -704 Q 1206 -484 1059 -300 Q 913 -116 715 -39 Q 615 0 518 0 Q 422 0 346 -24 Q 271 -49 216 -100 M 467 -724 Q 428 -629 405 -529 Q 382 -429 383 -340 Q 384 -251 411 -200 Q 438 -150 498 -150 Q 559 -150 617 -190 Q 676 -231 731 -297 Q 786 -364 834 -451 Q 883 -538 920 -633 Q 1000 -839 997 -999 Q 997 -1140 938 -1179 Q 915 -1194 872 -1194 Q 829 -1194 774 -1156 Q 719 -1118 664 -1054 Q 609 -990 557 -904 Q 506 -819 467 -724 Z"/>
		<path character="w" fill="#EA8872" fill-opacity="1.0" stroke="none" stroke-width="0px" stroke-linecap="butt" stroke-opacity="1.0" transform="matrix(1,0,0,1,9700,0)" d="M 529 -153 Q 350 0 248 0 Q 147 0 108 -103 Q 93 -139 93 -170 Q 93 -254 120 -333 Q 147 -412 173 -480 L 289 -773 Q 356 -953 370 -1024 Q 385 -1095 366 -1120 Q 348 -1145 323 -1164 Q 299 -1183 277 -1197 Q 256 -1212 256 -1234 Q 256 -1257 275 -1278 Q 294 -1299 326 -1314 Q 389 -1344 456 -1344 Q 524 -1344 562 -1330 Q 601 -1317 626 -1296 Q 675 -1253 675 -1192 Q 675 -1132 654 -1056 Q 634 -981 603 -896 Q 572 -812 534 -721 L 462 -541 Q 377 -324 358 -216 Q 482 -257 685 -514 Q 907 -795 1078 -1156 Q 1097 -1201 1126 -1214 Q 1173 -1236 1246 -1236 Q 1360 -1236 1364 -1169 Q 1366 -1129 1342 -1080 Q 1318 -1031 1302 -998 L 1251 -894 Q 1097 -585 1097 -392 Q 1097 -257 1171 -208 Q 1192 -192 1235 -192 Q 1278 -192 1337 -222 Q 1397 -253 1450 -306 Q 1504 -360 1550 -431 Q 1597 -502 1631 -583 Q 1704 -753 1704 -885 Q 1704 -1110 1618 -1216 Q 1589 -1250 1635 -1296 Q 1684 -1344 1788 -1344 Q 1915 -1344 1961 -1204 Q 1979 -1151 1979 -1045 Q 1979 -940 1941 -811 Q 1903 -682 1838 -563 Q 1773 -444 1688 -341 Q 1604 -238 1511 -162 Q 1311 0 1141 0 Q 848 0 848 -363 Q 848 -447 864 -526 Q 709 -307 529 -153 Z"/>
		<path character="n" fill="#EA8872" fill-opacity="1.0" stroke="none" stroke-width="0px" stroke-linecap="butt" stroke-opacity="1.0" transform="matrix(1,0,0,1,11764,0)" d="M 1041 -1088 Q 1000 -1088 925 -1012 Q 851 -937 795 -874 L 684 -745 L 469 -479 Q 392 -339 349 -247 L 278 -99 Q 251 -44 230 -22 Q 210 0 175 0 Q 140 0 108 -12 Q 76 -24 53 -44 Q 3 -85 3 -134 Q 3 -153 32 -210 L 81 -314 Q 105 -360 137 -432 L 210 -608 Q 365 -988 365 -1098 Q 365 -1158 326 -1186 L 299 -1204 Q 286 -1213 286 -1235 Q 286 -1258 304 -1278 Q 322 -1299 350 -1314 Q 410 -1344 469 -1344 Q 529 -1344 562 -1331 Q 595 -1318 617 -1296 Q 665 -1250 665 -1200 Q 665 -1150 653 -1099 Q 641 -1049 621 -997 Q 602 -945 581 -895 Q 560 -846 543 -809 L 517 -753 Q 507 -732 512 -739 Q 658 -942 704 -999 L 795 -1110 Q 896 -1228 954 -1266 Q 1071 -1344 1138 -1344 Q 1205 -1344 1251 -1327 Q 1297 -1311 1331 -1281 Q 1403 -1218 1403 -1119 Q 1403 -1020 1356 -912 Q 1309 -805 1274 -738 Q 1239 -671 1208 -602 Q 1109 -394 1109 -299 Q 1109 -256 1180 -256 Q 1235 -256 1280 -278 Q 1326 -301 1339 -301 Q 1366 -301 1366 -271 Q 1366 -144 1247 -58 Q 1167 0 1100 0 Q 1033 0 989 -14 Q 945 -28 911 -58 Q 833 -126 833 -247 Q 833 -394 929 -615 Q 999 -766 1028 -822 L 1072 -913 Q 1113 -994 1113 -1041 Q 1113 -1088 1041 -1088 Z"/>
		<path character="T" fill="#EA8872" fill-opacity="1.0" stroke="none" stroke-width="0px" stroke-linecap="butt" stroke-opacity="1.0" transform="matrix(1,0,0,1,14166,0)" d="M 1600 -1790 Q 1562 -1759 1511 -1743 Q 1461 -1728 1376 -1728 Q 1292 -1728 1156 -1744 Q 1125 -1659 1092 -1546 L 941 -1037 Q 662 -121 345 -9 Q 323 0 288 0 Q 253 0 231 -8 Q 210 -17 196 -30 Q 167 -54 167 -77 Q 167 -101 179 -109 L 213 -130 Q 402 -252 559 -784 L 654 -1103 Q 781 -1533 891 -1779 Q 788 -1792 734 -1792 Q 579 -1792 511 -1745 Q 444 -1698 417 -1643 Q 390 -1589 389 -1568 Q 385 -1532 365 -1522 Q 345 -1513 317 -1513 Q 289 -1513 258 -1534 Q 228 -1555 209 -1587 Q 167 -1654 176 -1737 Q 185 -1820 229 -1880 Q 273 -1940 333 -1978 Q 445 -2048 569 -2048 Q 693 -2048 804 -2028 Q 915 -2008 1025 -1983 Q 1318 -1920 1398 -1920 Q 1478 -1920 1516 -1937 Q 1555 -1955 1582 -1990 Q 1610 -2025 1621 -2036 Q 1633 -2048 1658 -2048 Q 1697 -2048 1692 -1982 Q 1687 -1916 1663 -1868 Q 1639 -1821 1600 -1790 Z"/>
		<path character="i" fill="#EA8872" fill-opacity="1.0" stroke="none" stroke-width="0px" stroke-linecap="butt" stroke-opacity="1.0" transform="matrix(1,0,0,1,15462,0)" d="M 803 -1732 Q 774 -1701 737 -1682 Q 701 -1663 660 -1658 Q 620 -1654 583 -1671 Q 547 -1688 521 -1720 Q 465 -1785 465 -1852 Q 465 -1919 486 -1952 Q 508 -1986 541 -2007 Q 604 -2048 659 -2048 Q 715 -2048 746 -2040 Q 777 -2032 803 -2014 Q 868 -1970 868 -1908 Q 868 -1846 850 -1804 Q 832 -1763 803 -1732 M 534 -256 Q 568 -256 568 -212 Q 568 -153 515 -91 Q 436 0 303 0 Q 151 0 95 -121 Q 74 -163 74 -223 Q 74 -284 95 -358 Q 117 -432 149 -513 Q 181 -595 219 -679 L 289 -841 Q 365 -1022 365 -1080 Q 365 -1138 352 -1157 Q 340 -1176 326 -1186 L 299 -1204 Q 286 -1213 286 -1235 Q 286 -1258 304 -1278 Q 322 -1299 350 -1314 Q 410 -1344 488 -1344 Q 681 -1344 681 -1248 Q 681 -1135 619 -990 Q 558 -846 515 -757 L 436 -585 Q 349 -395 349 -311 Q 349 -256 407 -256 Q 463 -256 492 -256 Q 521 -256 534 -256 Z"/>
		<path character="t" fill="#EA8872" fill-opacity="1.0" stroke="none" stroke-width="0px" stroke-linecap="butt" stroke-opacity="1.0" transform="matrix(1,0,0,1,16247,0)" d="M 858 -382 Q 897 -382 897 -327 Q 897 -281 870 -237 Q 835 -156 729 -83 Q 608 0 486 0 Q 274 0 218 -193 Q 151 -421 419 -1162 Q 268 -1175 255 -1214 Q 251 -1226 251 -1239 Q 251 -1253 263 -1271 Q 276 -1289 295 -1306 Q 341 -1344 389 -1344 L 492 -1344 Q 634 -1637 694 -1677 Q 723 -1696 758 -1696 Q 794 -1696 817 -1688 Q 841 -1680 860 -1664 Q 902 -1629 902 -1586 Q 902 -1563 886 -1532 L 789 -1344 L 820 -1344 Q 902 -1344 952 -1344 Q 952 -1344 1026 -1344 Q 1051 -1344 1088 -1344 Q 1126 -1344 1126 -1318 Q 1126 -1153 717 -1153 L 706 -1153 L 617 -923 Q 466 -516 466 -353 Q 466 -307 487 -281 Q 508 -256 566 -256 Q 624 -256 671 -275 Q 718 -295 753 -319 Q 789 -343 814 -362 Q 840 -382 858 -382 Z"/>
		<path character="l" fill="#EA8872" fill-opacity="1.0" stroke="none" stroke-width="0px" stroke-linecap="butt" stroke-opacity="1.0" transform="matrix(1,0,0,1,17224,0)" d="M 159 -65 Q 126 -99 105 -151 Q 85 -204 85 -274 Q 85 -344 117 -461 Q 150 -578 200 -728 L 310 -1052 Q 545 -1729 581 -2099 Q 593 -2208 689 -2208 Q 749 -2208 789 -2180 Q 865 -2123 862 -2054 Q 860 -1985 837 -1885 Q 815 -1786 779 -1668 Q 744 -1551 698 -1420 L 517 -899 Q 361 -455 361 -325 Q 361 -256 419 -256 Q 474 -256 519 -272 Q 564 -288 578 -288 Q 605 -288 605 -259 Q 605 -138 486 -56 Q 406 0 339 0 Q 273 0 232 -15 Q 192 -31 159 -65 Z"/>
		<path character="e" fill="#EA8872" fill-opacity="1.0" stroke="none" stroke-width="0px" stroke-linecap="butt" stroke-opacity="1.0" transform="matrix(1,0,0,1,18008,0)" d="M 108 -463 Q 113 -575 146 -677 Q 179 -779 234 -875 Q 289 -971 363 -1056 Q 437 -1142 524 -1206 Q 712 -1344 903 -1344 Q 1128 -1344 1202 -1164 Q 1229 -1102 1227 -1018 Q 1226 -935 1194 -864 Q 1163 -793 1107 -735 Q 1051 -677 974 -631 Q 898 -585 807 -553 Q 621 -489 408 -489 Q 403 -471 401 -434 Q 400 -397 409 -351 Q 419 -306 441 -271 Q 488 -192 578 -192 Q 730 -192 874 -281 Q 925 -311 957 -343 Q 990 -375 1013 -375 Q 1037 -375 1054 -347 Q 1072 -319 1072 -284 Q 1072 -215 1033 -164 Q 868 0 541 0 Q 348 0 231 -113 Q 100 -242 108 -463 M 874 -1194 Q 736 -1194 609 -1004 Q 502 -841 436 -617 Q 655 -639 817 -791 Q 965 -933 965 -1063 Q 965 -1194 874 -1194 Z"/>
		<path character="s" fill="#EA8872" fill-opacity="1.0" stroke="none" stroke-width="0px" stroke-linecap="butt" stroke-opacity="1.0" transform="matrix(1,0,0,1,19305,0)" d="M 32 -240 Q 32 -280 49 -314 Q 67 -349 93 -372 Q 148 -423 209 -423 Q 261 -423 261 -370 Q 261 -235 352 -182 Q 385 -163 420 -163 Q 455 -163 480 -170 Q 505 -178 526 -195 Q 574 -232 574 -283 Q 574 -335 550 -378 Q 526 -421 491 -469 L 416 -572 Q 259 -777 259 -951 Q 259 -1095 383 -1212 Q 525 -1344 747 -1344 Q 941 -1344 1050 -1254 Q 1139 -1181 1139 -1081 Q 1139 -978 1061 -916 Q 990 -861 919 -875 Q 887 -882 870 -907 Q 853 -933 863 -966 Q 874 -999 874 -1034 Q 874 -1070 861 -1100 Q 848 -1130 826 -1151 Q 780 -1194 729 -1194 Q 679 -1194 646 -1183 Q 613 -1172 588 -1151 Q 537 -1105 537 -1037 Q 537 -969 560 -919 Q 584 -870 619 -821 Q 654 -772 694 -721 Q 735 -671 769 -615 Q 852 -484 852 -385 Q 852 -286 810 -219 Q 768 -153 701 -105 Q 558 0 381 0 Q 211 0 113 -80 Q 32 -148 32 -240 Z"/>
		<path character="t" fill="#EA8872" fill-opacity="1.0" stroke="none" stroke-width="0px" stroke-linecap="butt" stroke-opacity="1.0" transform="matrix(1,0,0,1,21322,0)" d="M 858 -382 Q 897 -382 897 -327 Q 897 -281 870 -237 Q 835 -156 729 -83 Q 608 0 486 0 Q 274 0 218 -193 Q 151 -421 419 -1162 Q 268 -1175 255 -1214 Q 251 -1226 251 -1239 Q 251 -1253 263 -1271 Q 276 -1289 295 -1306 Q 341 -1344 389 -1344 L 492 -1344 Q 634 -1637 694 -1677 Q 723 -1696 758 -1696 Q 794 -1696 817 -1688 Q 841 -1680 860 -1664 Q 902 -1629 902 -1586 Q 902 -1563 886 -1532 L 789 -1344 L 820 -1344 Q 902 -1344 952 -1344 Q 952 -1344 1026 -1344 Q 1051 -1344 1088 -1344 Q 1126 -1344 1126 -1318 Q 1126 -1153 717 -1153 L 706 -1153 L 617 -923 Q 466 -516 466 -353 Q 466 -307 487 -281 Q 508 -256 566 -256 Q 624 -256 671 -275 Q 718 -295 753 -319 Q 789 -343 814 -362 Q 840 -382 858 -382 Z"/>
		<path character="o" fill="#EA8872" fill-opacity="1.0" stroke="none" stroke-width="0px" stroke-linecap="butt" stroke-opacity="1.0" transform="matrix(1,0,0,1,22299,0)" d="M 216 -100 Q 161 -152 129 -231 Q 98 -310 97 -418 Q 96 -526 124 -636 Q 152 -747 204 -850 Q 256 -953 328 -1043 Q 401 -1133 489 -1200 Q 681 -1344 887 -1344 Q 1157 -1344 1253 -1111 Q 1321 -943 1261 -704 Q 1206 -484 1059 -300 Q 913 -116 715 -39 Q 615 0 518 0 Q 422 0 346 -24 Q 271 -49 216 -100 M 467 -724 Q 428 -629 405 -529 Q 382 -429 383 -340 Q 384 -251 411 -200 Q 438 -150 498 -150 Q 559 -150 617 -190 Q 676 -231 731 -297 Q 786 -364 834 -451 Q 883 -538 920 -633 Q 1000 -839 997 -999 Q 997 -1140 938 -1179 Q 915 -1194 872 -1194 Q 829 -1194 774 -1156 Q 719 -1118 664 -1054 Q 609 -990 557 -904 Q 506 -819 467 -724 Z"/>
		<path character="." fill="#EA8872" fill-opacity="1.0" stroke="none" stroke-width="0px" stroke-linecap="butt" stroke-opacity="1.0" transform="matrix(1,0,0,1,24572,0)" d="M 128 -39 Q 98 -68 81 -105 Q 64 -142 64 -191 Q 64 -241 83 -279 Q 102 -318 131 -342 Q 182 -384 239 -384 Q 297 -384 337 -376 Q 377 -368 412 -351 Q 494 -309 494 -230 Q 494 -132 429 -58 Q 369 10 304 16 Q 239 23 198 6 Q 158 -10 128 -39 Z"/>
		<path character="s" fill="#EA8872" fill-opacity="1.0" stroke="none" stroke-width="0px" stroke-linecap="butt" stroke-opacity="1.0" transform="matrix(1,0,0,1,25293,0)" d="M 32 -240 Q 32 -280 49 -314 Q 67 -349 93 -372 Q 148 -423 209 -423 Q 261 -423 261 -370 Q 261 -235 352 -182 Q 385 -163 420 -163 Q 455 -163 480 -170 Q 505 -178 526 -195 Q 574 -232 574 -283 Q 574 -335 550 -378 Q 526 -421 491 -469 L 416 -572 Q 259 -777 259 -951 Q 259 -1095 383 -1212 Q 525 -1344 747 -1344 Q 941 -1344 1050 -1254 Q 1139 -1181 1139 -1081 Q 1139 -978 1061 -916 Q 990 -861 919 -875 Q 887 -882 870 -907 Q 853 -933 863 -966 Q 874 -999 874 -1034 Q 874 -1070 861 -1100 Q 848 -1130 826 -1151 Q 780 -1194 729 -1194 Q 679 -1194 646 -1183 Q 613 -1172 588 -1151 Q 537 -1105 537 -1037 Q 537 -969 560 -919 Q 584 -870 619 -821 Q 654 -772 694 -721 Q 735 -671 769 -615 Q 852 -484 852 -385 Q 852 -286 810 -219 Q 768 -153 701 -105 Q 558 0 381 0 Q 211 0 113 -80 Q 32 -148 32 -240 Z"/>
		<path character="v" fill="#EA8872" fill-opacity="1.0" stroke="none" stroke-width="0px" stroke-linecap="butt" stroke-opacity="1.0" transform="matrix(1,0,0,1,26461,0)" d="M 100 -138 Q 80 -180 80 -238 Q 80 -296 98 -366 Q 117 -436 146 -509 Q 175 -583 210 -658 L 277 -808 Q 407 -1102 373 -1155 Q 357 -1179 312 -1204 Q 298 -1213 298 -1235 Q 298 -1258 317 -1278 Q 336 -1299 368 -1314 Q 431 -1344 495 -1344 Q 559 -1344 592 -1330 Q 626 -1317 648 -1296 Q 690 -1254 690 -1193 Q 690 -1133 666 -1057 Q 643 -981 607 -897 Q 572 -814 530 -726 L 453 -558 Q 370 -371 370 -310 Q 370 -192 455 -192 Q 675 -192 866 -447 Q 978 -595 1026 -769 Q 1049 -851 1049 -918 Q 1049 -986 1044 -1031 Q 1040 -1076 1029 -1111 Q 1012 -1173 971 -1218 Q 944 -1251 996 -1296 Q 1054 -1344 1160 -1344 Q 1226 -1344 1276 -1284 Q 1339 -1212 1339 -1077 Q 1339 -943 1298 -813 Q 1257 -684 1186 -565 Q 1116 -446 1019 -343 Q 923 -241 811 -165 Q 572 0 333 0 Q 161 0 100 -138 Z"/>
		<path character="g" fill="#EA8872" fill-opacity="1.0" stroke="none" stroke-width="0px" stroke-linecap="butt" stroke-opacity="1.0" transform="matrix(1,0,0,1,27822,0)" d="M 864 -260 Q 664 0 421 0 Q 202 0 126 -229 Q 100 -307 100 -421 Q 100 -536 133 -651 Q 167 -767 224 -869 Q 282 -972 360 -1059 Q 438 -1146 528 -1209 Q 714 -1344 898 -1344 Q 1082 -1344 1160 -1165 Q 1176 -1183 1189 -1202 Q 1202 -1221 1218 -1238 Q 1252 -1274 1277 -1274 Q 1303 -1274 1331 -1264 Q 1360 -1255 1386 -1239 Q 1450 -1201 1435 -1168 Q 1362 -1010 1314 -857 L 1120 -231 Q 890 474 537 680 Q 444 735 375 743 Q 307 752 277 744 Q 247 736 223 722 Q 172 689 172 663 Q 172 617 233 606 Q 294 596 361 557 Q 428 518 488 463 Q 736 233 864 -260 M 470 -722 Q 436 -626 416 -525 Q 396 -425 396 -361 Q 396 -298 400 -264 Q 404 -231 416 -206 Q 442 -150 493 -150 Q 545 -150 594 -186 Q 644 -223 699 -287 Q 755 -351 810 -437 Q 865 -524 915 -623 Q 1025 -844 1070 -1045 Q 1063 -1082 1025 -1121 Q 950 -1194 890 -1194 Q 830 -1194 769 -1156 Q 709 -1118 654 -1053 Q 600 -989 552 -903 Q 505 -818 470 -722 Z"/>
		<path character="f" fill="#EA8872" fill-opacity="1.0" stroke="none" stroke-width="0px" stroke-linecap="butt" stroke-opacity="1.0" transform="matrix(1,0,0,1,30095,0)" d="M -54 305 Q -54 278 -12 197 Q 29 116 78 -9 Q 127 -135 172 -271 Q 217 -408 263 -563 L 365 -905 L 228 -869 Q 177 -869 144 -923 Q 137 -937 137 -956 Q 137 -976 168 -1003 Q 200 -1030 245 -1053 Q 337 -1100 434 -1125 L 446 -1162 Q 482 -1272 514 -1390 Q 546 -1508 582 -1620 Q 618 -1733 664 -1834 Q 710 -1936 772 -2011 Q 908 -2176 1114 -2176 Q 1267 -2176 1356 -2095 Q 1445 -2014 1445 -1876 Q 1445 -1732 1362 -1626 Q 1293 -1539 1208 -1539 Q 1101 -1539 1063 -1633 Q 1053 -1657 1053 -1674 Q 1053 -1702 1092 -1725 Q 1164 -1778 1193 -1867 Q 1202 -1895 1202 -1922 Q 1202 -2026 1118 -2026 Q 1003 -2026 906 -1772 Q 877 -1695 848 -1602 L 725 -1195 Q 844 -1216 898 -1216 Q 953 -1216 995 -1203 Q 1037 -1190 1071 -1167 Q 1148 -1114 1148 -1037 Q 1148 -960 1075 -960 L 908 -960 Q 772 -960 656 -948 L 549 -574 Q 442 -192 376 -19 Q 310 154 247 274 Q 188 384 67 384 Q -54 384 -54 305 Z"/>
		<path character="o" fill="#EA8872" fill-opacity="1.0" stroke="none" stroke-width="0px" stroke-linecap="butt" stroke-opacity="1.0" transform="matrix(1,0,0,1,31200,0)" d="M 216 -100 Q 161 -152 129 -231 Q 98 -310 97 -418 Q 96 -526 124 -636 Q 152 -747 204 -850 Q 256 -953 328 -1043 Q 401 -1133 489 -1200 Q 681 -1344 887 -1344 Q 1157 -1344 1253 -1111 Q 1321 -943 1261 -704 Q 1206 -484 1059 -300 Q 913 -116 715 -39 Q 615 0 518 0 Q 422 0 346 -24 Q 271 -49 216 -100 M 467 -724 Q 428 -629 405 -529 Q 382 -429 383 -340 Q 384 -251 411 -200 Q 438 -150 498 -150 Q 559 -150 617 -190 Q 676 -231 731 -297 Q 786 -364 834 -451 Q 883 -538 920 -633 Q 1000 -839 997 -999 Q 997 -1140 938 -1179 Q 915 -1194 872 -1194 Q 829 -1194 774 -1156 Q 719 -1118 664 -1054 Q 609 -990 557 -904 Q 506 -819 467 -724 Z"/>
		<path character="r" fill="#EA8872" fill-opacity="1.0" stroke="none" stroke-width="0px" stroke-linecap="butt" stroke-opacity="1.0" transform="matrix(1,0,0,1,32625,0)" d="M 99 -43 Q 73 -63 57 -87 Q 42 -111 40 -128 Q 39 -145 47 -170 Q 56 -195 71 -232 Q 338 -877 338 -1098 Q 334 -1160 295 -1186 L 269 -1204 Q 257 -1213 256 -1235 Q 256 -1258 273 -1278 Q 290 -1299 317 -1314 Q 374 -1344 433 -1344 Q 493 -1344 526 -1331 Q 560 -1318 584 -1296 Q 634 -1250 634 -1198 Q 635 -1146 622 -1093 Q 610 -1040 593 -989 Q 576 -938 559 -892 Q 542 -846 537 -824 Q 526 -779 529 -767 Q 560 -794 567 -820 L 618 -916 Q 789 -1219 951 -1317 Q 999 -1344 1065 -1344 Q 1131 -1344 1171 -1298 Q 1212 -1252 1214 -1196 Q 1216 -1140 1206 -1102 Q 1197 -1065 1177 -1033 Q 1134 -960 1072 -960 Q 1055 -960 1041 -972 L 1012 -997 Q 968 -1035 928 -1035 Q 888 -1035 831 -983 Q 774 -932 712 -852 Q 505 -584 374 -251 L 316 -103 Q 294 -47 277 -23 Q 260 0 226 0 Q 193 0 159 -12 Q 126 -24 99 -43 Z"/>
		<path character="R" fill="#EA8872" fill-opacity="1.0" stroke="none" stroke-width="0px" stroke-linecap="butt" stroke-opacity="1.0" transform="matrix(1,0,0,1,34578,0)" d="M 1406 -1595 Q 1406 -1858 1061 -1858 Q 844 -1858 622 -1727 Q 558 -1689 522 -1657 Q 486 -1625 453 -1625 Q 420 -1625 390 -1641 Q 360 -1658 336 -1682 Q 249 -1778 354 -1867 Q 512 -2001 877 -2040 Q 950 -2048 1063 -2048 Q 1176 -2048 1301 -2007 Q 1427 -1966 1512 -1896 Q 1683 -1755 1683 -1537 Q 1683 -1277 1446 -1064 Q 1242 -876 962 -796 Q 1038 -734 1105 -617 L 1210 -431 Q 1348 -177 1457 -155 Q 1495 -148 1535 -157 Q 1576 -167 1588 -167 Q 1601 -167 1605 -146 Q 1610 -125 1594 -93 Q 1579 -62 1544 -34 Q 1461 32 1362 24 Q 1264 17 1203 -16 Q 1142 -50 1094 -101 Q 1046 -153 1008 -215 Q 971 -278 940 -344 L 881 -472 Q 853 -535 829 -580 Q 806 -626 789 -663 Q 772 -701 751 -731 Q 706 -799 637 -818 Q 361 -109 76 -9 Q 53 0 28 0 Q 4 0 -15 -8 Q -35 -17 -49 -30 Q -76 -55 -76 -85 Q -76 -115 -56 -130 Q 140 -273 381 -964 L 459 -1186 Q 595 -1569 688 -1658 Q 721 -1683 756 -1683 Q 791 -1683 817 -1671 Q 844 -1660 864 -1643 Q 908 -1604 908 -1562 Q 908 -1521 890 -1489 Q 873 -1457 851 -1398 Q 786 -1229 751 -1127 L 684 -936 Q 963 -973 1179 -1157 Q 1406 -1350 1406 -1595 Z"/>
		<path character="u" fill="#EA8872" fill-opacity="1.0" stroke="none" stroke-width="0px" stroke-linecap="butt" stroke-opacity="1.0" transform="matrix(1,0,0,1,36259,0)" d="M 1319 -292 Q 1349 -292 1349 -260 Q 1349 -137 1236 -54 Q 1160 0 1058 0 Q 974 0 929 -39 Q 849 -110 849 -213 Q 849 -342 958 -610 Q 756 -337 674 -247 Q 593 -157 533 -108 Q 402 0 295 0 Q 133 0 79 -138 Q 63 -180 63 -234 Q 63 -289 82 -356 Q 101 -424 131 -497 Q 161 -571 197 -648 L 268 -803 Q 404 -1100 369 -1155 Q 353 -1179 310 -1204 Q 294 -1213 294 -1235 Q 294 -1258 313 -1278 Q 332 -1299 362 -1314 Q 427 -1344 491 -1344 Q 555 -1344 588 -1331 Q 622 -1318 643 -1298 Q 686 -1256 686 -1206 Q 686 -1156 669 -1093 Q 652 -1031 624 -958 Q 597 -885 564 -808 Q 474 -604 442 -539 L 394 -442 Q 353 -355 353 -320 Q 353 -285 365 -270 Q 377 -256 407 -256 Q 438 -256 479 -283 Q 520 -311 568 -357 Q 617 -404 669 -465 Q 722 -526 772 -591 Q 870 -720 916 -797 Q 1194 -1269 1213 -1290 Q 1255 -1344 1299 -1344 Q 1343 -1344 1375 -1334 Q 1408 -1325 1432 -1308 Q 1487 -1269 1467 -1230 Q 1147 -593 1122 -429 Q 1116 -372 1116 -351 Q 1116 -256 1176 -256 Q 1232 -256 1269 -274 Q 1306 -292 1319 -292 Z"/>
		<path character="b" fill="#EA8872" fill-opacity="1.0" stroke="none" stroke-width="0px" stroke-linecap="butt" stroke-opacity="1.0" transform="matrix(1,0,0,1,37747,0)" d="M 106 -383 Q 106 -458 117 -527 Q 129 -596 146 -666 Q 164 -737 186 -807 L 333 -1252 Q 508 -1794 553 -2099 Q 567 -2208 660 -2208 Q 715 -2208 753 -2179 Q 823 -2122 821 -2058 Q 819 -1994 802 -1916 Q 786 -1838 760 -1745 Q 735 -1653 702 -1551 Q 614 -1290 571 -1174 L 496 -978 Q 610 -1153 683 -1218 Q 827 -1344 983 -1344 Q 1213 -1344 1289 -1109 Q 1314 -1028 1314 -907 Q 1314 -786 1278 -667 Q 1242 -548 1180 -445 Q 1118 -343 1036 -261 Q 954 -179 864 -121 Q 672 0 492 0 Q 311 0 207 -109 Q 106 -219 106 -383 M 474 -170 Q 597 -170 725 -278 Q 919 -442 986 -748 Q 1008 -848 1008 -956 Q 1008 -1065 983 -1108 Q 958 -1152 906 -1152 Q 854 -1152 798 -1111 Q 742 -1070 680 -1002 Q 618 -935 557 -847 Q 497 -759 449 -665 Q 343 -459 343 -314 Q 343 -170 474 -170 Z"/>
		<path character="y" fill="#EA8872" fill-opacity="1.0" stroke="none" stroke-width="0px" stroke-linecap="butt" stroke-opacity="1.0" transform="matrix(1,0,0,1,39172,0)" d="M 92 -138 Q 76 -180 76 -234 Q 76 -289 95 -356 Q 114 -424 144 -497 Q 175 -571 210 -648 L 281 -803 Q 417 -1100 382 -1155 Q 366 -1179 323 -1204 Q 307 -1213 307 -1235 Q 307 -1258 326 -1278 Q 345 -1299 375 -1314 Q 440 -1344 504 -1344 Q 568 -1344 601 -1331 Q 635 -1318 656 -1298 Q 700 -1256 700 -1206 Q 700 -1156 682 -1093 Q 665 -1031 637 -958 Q 610 -885 578 -808 Q 487 -604 455 -539 L 407 -442 Q 366 -355 366 -320 Q 366 -285 378 -270 Q 390 -256 421 -256 Q 452 -256 489 -278 Q 526 -301 569 -339 Q 613 -377 659 -426 Q 706 -476 751 -530 Q 868 -668 924 -767 Q 1208 -1267 1225 -1290 Q 1268 -1344 1312 -1344 Q 1356 -1344 1388 -1334 Q 1421 -1325 1445 -1307 Q 1498 -1271 1477 -1225 Q 1457 -1180 1428 -1100 Q 1179 -397 1104 -218 Q 1030 -40 975 68 Q 920 177 846 287 Q 772 397 688 488 Q 496 692 328 707 Q 264 712 226 689 Q 160 649 160 614 Q 160 578 220 564 Q 280 551 343 509 Q 407 468 466 413 Q 639 248 735 53 Q 816 -117 866 -270 L 969 -582 Q 931 -536 885 -474 L 790 -348 Q 667 -191 585 -125 Q 431 0 308 0 Q 146 0 92 -138 Z"/>
</g>
</svg>