<svg xmlns="http://www.w3.org/2000/svg" xmlns:xlink="http://www.w3.org/1999/xlink" xmlns:jfreesvg="http://www.jfree.org/jfreesvg/svg" width="600" height="144" text-rendering="auto" shape-rendering="auto">
  <defs></defs><rect x="0" y="0" width="600" height="144" style="fill: rgb(255,255,255); fill-opacity: 1.0" transform="matrix(1,0,0,1,0,0)" /><rect x="0" y="0" width="18" height="18" style="fill: rgb(0,0,0); fill-opacity: 1.0" transform="matrix(1,0,0,1,0,0)" /><rect x="18" y="0" width="18" height="18" style="fill: rgb(0,0,0); fill-opacity: 1.0" transform="matrix(1,0,0,1,0,0)" /><ellipse cx="45" cy="9" rx="9" ry="9" style="stroke-width: 2.0;stroke: rgb(0,0,0);stroke-opacity: 1.0;stroke-linecap: square;; fill: none" transform="matrix(1,0,0,1,0,0)" /><rect x="54" y="0" width="18" height="18" style="fill: rgb(0,0,0); fill-opacity: 1.0" transform="matrix(1,0,0,1,0,0)" /><ellipse cx="81" cy="9" rx="9" ry="9" style="stroke-width: 2.0;stroke: rgb(0,0,0);stroke-opacity: 1.0;stroke-linecap: square;; fill: none" transform="matrix(1,0,0,1,0,0)" /><rect x="90" y="0" width="18" height="18" style="fill: rgb(0,0,0); fill-opacity: 1.0" transform="matrix(1,0,0,1,0,0)" /><ellipse cx="117" cy="9" rx="9" ry="9" style="stroke-width: 2.0;stroke: rgb(0,0,0);stroke-opacity: 1.0;stroke-linecap: square;; fill: none" transform="matrix(1,0,0,1,0,0)" /><ellipse cx="135" cy="9" rx="9" ry="9" style="stroke-width: 2.0;stroke: rgb(0,0,0);stroke-opacity: 1.0;stroke-linecap: square;; fill: none" transform="matrix(1,0,0,1,0,0)" /><rect x="144" y="0" width="18" height="18" style="fill: rgb(0,0,0); fill-opacity: 1.0" transform="matrix(1,0,0,1,0,0)" /><rect x="162" y="0" width="18" height="18" style="fill: rgb(0,0,0); fill-opacity: 1.0" transform="matrix(1,0,0,1,0,0)" /><ellipse cx="189" cy="9" rx="9" ry="9" style="stroke-width: 2.0;stroke: rgb(0,0,0);stroke-opacity: 1.0;stroke-linecap: square;; fill: none" transform="matrix(1,0,0,1,0,0)" /><ellipse cx="207" cy="9" rx="9" ry="9" style="stroke-width: 2.0;stroke: rgb(0,0,0);stroke-opacity: 1.0;stroke-linecap: square;; fill: none" transform="matrix(1,0,0,1,0,0)" /><rect x="216" y="0" width="18" height="18" style="fill: rgb(0,0,0); fill-opacity: 1.0" transform="matrix(1,0,0,1,0,0)" /><ellipse cx="243" cy="9" rx="9" ry="9" style="stroke-width: 2.0;stroke: rgb(0,0,0);stroke-opacity: 1.0;stroke-linecap: square;; fill: none" transform="matrix(1,0,0,1,0,0)" /><rect x="252" y="0" width="18" height="18" style="fill: rgb(0,0,0); fill-opacity: 1.0" transform="matrix(1,0,0,1,0,0)" /><ellipse cx="279" cy="9" rx="9" ry="9" style="stroke-width: 2.0;stroke: rgb(0,0,0);stroke-opacity: 1.0;stroke-linecap: square;; fill: none" transform="matrix(1,0,0,1,0,0)" /><ellipse cx="297" cy="9" rx="9" ry="9" style="stroke-width: 2.0;stroke: rgb(0,0,0);stroke-opacity: 1.0;stroke-linecap: square;; fill: none" transform="matrix(1,0,0,1,0,0)" /><rect x="306" y="0" width="18" height="18" style="fill: rgb(0,0,0); fill-opacity: 1.0" transform="matrix(1,0,0,1,0,0)" /><ellipse cx="333" cy="9" rx="9" ry="9" style="stroke-width: 2.0;stroke: rgb(0,0,0);stroke-opacity: 1.0;stroke-linecap: square;; fill: none" transform="matrix(1,0,0,1,0,0)" /><ellipse cx="351" cy="9" rx="9" ry="9" style="stroke-width: 2.0;stroke: rgb(0,0,0);stroke-opacity: 1.0;stroke-linecap: square;; fill: none" transform="matrix(1,0,0,1,0,0)" /><rect x="360" y="0" width="18" height="18" style="fill: rgb(0,0,0); fill-opacity: 1.0" transform="matrix(1,0,0,1,0,0)" /><ellipse cx="387" cy="9" rx="9" ry="9" style="stroke-width: 2.0;stroke: rgb(0,0,0);stroke-opacity: 1.0;stroke-linecap: square;; fill: none" transform="matrix(1,0,0,1,0,0)" /><ellipse cx="405" cy="9" rx="9" ry="9" style="stroke-width: 2.0;stroke: rgb(0,0,0);stroke-opacity: 1.0;stroke-linecap: square;; fill: none" transform="matrix(1,0,0,1,0,0)" /><rect x="414" y="0" width="18" height="18" style="fill: rgb(0,0,0); fill-opacity: 1.0" transform="matrix(1,0,0,1,0,0)" /><rect x="432" y="0" width="18" height="18" style="fill: rgb(0,0,0); fill-opacity: 1.0" transform="matrix(1,0,0,1,0,0)" /><ellipse cx="459" cy="9" rx="9" ry="9" style="stroke-width: 2.0;stroke: rgb(0,0,0);stroke-opacity: 1.0;stroke-linecap: square;; fill: none" transform="matrix(1,0,0,1,0,0)" /><rect x="468" y="0" width="18" height="18" style="fill: rgb(0,0,0); fill-opacity: 1.0" transform="matrix(1,0,0,1,0,0)" /><ellipse cx="495" cy="9" rx="9" ry="9" style="stroke-width: 2.0;stroke: rgb(0,0,0);stroke-opacity: 1.0;stroke-linecap: square;; fill: none" transform="matrix(1,0,0,1,0,0)" /><rect x="504" y="0" width="18" height="18" style="fill: rgb(0,0,0); fill-opacity: 1.0" transform="matrix(1,0,0,1,0,0)" /><rect x="522" y="0" width="18" height="18" style="fill: rgb(0,0,0); fill-opacity: 1.0" transform="matrix(1,0,0,1,0,0)" /><rect x="540" y="0" width="18" height="18" style="fill: rgb(0,0,0); fill-opacity: 1.0" transform="matrix(1,0,0,1,0,0)" /><ellipse cx="567" cy="9" rx="9" ry="9" style="stroke-width: 2.0;stroke: rgb(0,0,0);stroke-opacity: 1.0;stroke-linecap: square;; fill: none" transform="matrix(1,0,0,1,0,0)" /><ellipse cx="9" cy="27" rx="9" ry="9" style="stroke-width: 2.0;stroke: rgb(0,0,0);stroke-opacity: 1.0;stroke-linecap: square;; fill: none" transform="matrix(1,0,0,1,0,0)" /><rect x="18" y="18" width="18" height="18" style="fill: rgb(0,0,0); fill-opacity: 1.0" transform="matrix(1,0,0,1,0,0)" /><rect x="36" y="18" width="18" height="18" style="fill: rgb(0,0,0); fill-opacity: 1.0" transform="matrix(1,0,0,1,0,0)" /><rect x="54" y="18" width="18" height="18" style="fill: rgb(0,0,0); fill-opacity: 1.0" transform="matrix(1,0,0,1,0,0)" /><rect x="72" y="18" width="18" height="18" style="fill: rgb(0,0,0); fill-opacity: 1.0" transform="matrix(1,0,0,1,0,0)" /><rect x="90" y="18" width="18" height="18" style="fill: rgb(0,0,0); fill-opacity: 1.0" transform="matrix(1,0,0,1,0,0)" /><ellipse cx="117" cy="27" rx="9" ry="9" style="stroke-width: 2.0;stroke: rgb(0,0,0);stroke-opacity: 1.0;stroke-linecap: square;; fill: none" transform="matrix(1,0,0,1,0,0)" /><ellipse cx="135" cy="27" rx="9" ry="9" style="stroke-width: 2.0;stroke: rgb(0,0,0);stroke-opacity: 1.0;stroke-linecap: square;; fill: none" transform="matrix(1,0,0,1,0,0)" /><ellipse cx="153" cy="27" rx="9" ry="9" style="stroke-width: 2.0;stroke: rgb(0,0,0);stroke-opacity: 1.0;stroke-linecap: square;; fill: none" transform="matrix(1,0,0,1,0,0)" /><ellipse cx="171" cy="27" rx="9" ry="9" style="stroke-width: 2.0;stroke: rgb(0,0,0);stroke-opacity: 1.0;stroke-linecap: square;; fill: none" transform="matrix(1,0,0,1,0,0)" /><rect x="180" y="18" width="18" height="18" style="fill: rgb(0,0,0); fill-opacity: 1.0" transform="matrix(1,0,0,1,0,0)" /><ellipse cx="207" cy="27" rx="9" ry="9" style="stroke-width: 2.0;stroke: rgb(0,0,0);stroke-opacity: 1.0;stroke-linecap: square;; fill: none" transform="matrix(1,0,0,1,0,0)" /><rect x="216" y="18" width="18" height="18" style="fill: rgb(0,0,0); fill-opacity: 1.0" transform="matrix(1,0,0,1,0,0)" /><rect x="234" y="18" width="18" height="18" style="fill: rgb(0,0,0); fill-opacity: 1.0" transform="matrix(1,0,0,1,0,0)" /><rect x="252" y="18" width="18" height="18" style="fill: rgb(0,0,0); fill-opacity: 1.0" transform="matrix(1,0,0,1,0,0)" /><ellipse cx="279" cy="27" rx="9" ry="9" style="stroke-width: 2.0;stroke: rgb(0,0,0);stroke-opacity: 1.0;stroke-linecap: square;; fill: none" transform="matrix(1,0,0,1,0,0)" /><rect x="288" y="18" width="18" height="18" style="fill: rgb(0,0,0); fill-opacity: 1.0" transform="matrix(1,0,0,1,0,0)" /><rect x="306" y="18" width="18" height="18" style="fill: rgb(0,0,0); fill-opacity: 1.0" transform="matrix(1,0,0,1,0,0)" /><rect x="324" y="18" width="18" height="18" style="fill: rgb(0,0,0); fill-opacity: 1.0" transform="matrix(1,0,0,1,0,0)" /><rect x="342" y="18" width="18" height="18" style="fill: rgb(0,0,0); fill-opacity: 1.0" transform="matrix(1,0,0,1,0,0)" /><rect x="360" y="18" width="18" height="18" style="fill: rgb(0,0,0); fill-opacity: 1.0" transform="matrix(1,0,0,1,0,0)" /><rect x="378" y="18" width="18" height="18" style="fill: rgb(0,0,0); fill-opacity: 1.0" transform="matrix(1,0,0,1,0,0)" /><ellipse cx="405" cy="27" rx="9" ry="9" style="stroke-width: 2.0;stroke: rgb(0,0,0);stroke-opacity: 1.0;stroke-linecap: square;; fill: none" transform="matrix(1,0,0,1,0,0)" /><ellipse cx="423" cy="27" rx="9" ry="9" style="stroke-width: 2.0;stroke: rgb(0,0,0);stroke-opacity: 1.0;stroke-linecap: square;; fill: none" transform="matrix(1,0,0,1,0,0)" /><ellipse cx="441" cy="27" rx="9" ry="9" style="stroke-width: 2.0;stroke: rgb(0,0,0);stroke-opacity: 1.0;stroke-linecap: square;; fill: none" transform="matrix(1,0,0,1,0,0)" /><rect x="450" y="18" width="18" height="18" style="fill: rgb(0,0,0); fill-opacity: 1.0" transform="matrix(1,0,0,1,0,0)" /><rect x="468" y="18" width="18" height="18" style="fill: rgb(0,0,0); fill-opacity: 1.0" transform="matrix(1,0,0,1,0,0)" /><rect x="486" y="18" width="18" height="18" style="fill: rgb(0,0,0); fill-opacity: 1.0" transform="matrix(1,0,0,1,0,0)" /><ellipse cx="513" cy="27" rx="9" ry="9" style="stroke-width: 2.0;stroke: rgb(0,0,0);stroke-opacity: 1.0;stroke-linecap: square;; fill: none" transform="matrix(1,0,0,1,0,0)" /><rect x="522" y="18" width="18" height="18" style="fill: rgb(0,0,0); fill-opacity: 1.0" transform="matrix(1,0,0,1,0,0)" /><ellipse cx="549" cy="27" rx="9" ry="9" style="stroke-width: 2.0;stroke: rgb(0,0,0);stroke-opacity: 1.0;stroke-linecap: square;; fill: none" transform="matrix(1,0,0,1,0,0)" /><rect x="558" y="18" width="18" height="18" style="fill: rgb(0,0,0); fill-opacity: 1.0" transform="matrix(1,0,0,1,0,0)" /><ellipse cx="9" cy="45" rx="9" ry="9" style="stroke-width: 2.0;stroke: rgb(0,0,0);stroke-opacity: 1.0;stroke-linecap: square;; fill: none" transform="matrix(1,0,0,1,0,0)" /><ellipse cx="27" cy="45" rx="9" ry="9" style="stroke-width: 2.0;stroke: rgb(0,0,0);stroke-opacity: 1.0;stroke-linecap: square;; fill: none" transform="matrix(1,0,0,1,0,0)" /><ellipse cx="45" cy="45" rx="9" ry="9" style="stroke-width: 2.0;stroke: rgb(0,0,0);stroke-opacity: 1.0;stroke-linecap: square;; fill: none" transform="matrix(1,0,0,1,0,0)" /><ellipse cx="63" cy="45" rx="9" ry="9" style="stroke-width: 2.0;stroke: rgb(0,0,0);stroke-opacity: 1.0;stroke-linecap: square;; fill: none" transform="matrix(1,0,0,1,0,0)" /><rect x="72" y="36" width="18" height="18" style="fill: rgb(0,0,0); fill-opacity: 1.0" transform="matrix(1,0,0,1,0,0)" /><ellipse cx="99" cy="45" rx="9" ry="9" style="stroke-width: 2.0;stroke: rgb(0,0,0);stroke-opacity: 1.0;stroke-linecap: square;; fill: none" transform="matrix(1,0,0,1,0,0)" /><rect x="108" y="36" width="18" height="18" style="fill: rgb(0,0,0); fill-opacity: 1.0" transform="matrix(1,0,0,1,0,0)" /><rect x="126" y="36" width="18" height="18" style="fill: rgb(0,0,0); fill-opacity: 1.0" transform="matrix(1,0,0,1,0,0)" /><ellipse cx="153" cy="45" rx="9" ry="9" style="stroke-width: 2.0;stroke: rgb(0,0,0);stroke-opacity: 1.0;stroke-linecap: square;; fill: none" transform="matrix(1,0,0,1,0,0)" /><rect x="162" y="36" width="18" height="18" style="fill: rgb(0,0,0); fill-opacity: 1.0" transform="matrix(1,0,0,1,0,0)" /><ellipse cx="189" cy="45" rx="9" ry="9" style="stroke-width: 2.0;stroke: rgb(0,0,0);stroke-opacity: 1.0;stroke-linecap: square;; fill: none" transform="matrix(1,0,0,1,0,0)" /><rect x="198" y="36" width="18" height="18" style="fill: rgb(0,0,0); fill-opacity: 1.0" transform="matrix(1,0,0,1,0,0)" /><ellipse cx="225" cy="45" rx="9" ry="9" style="stroke-width: 2.0;stroke: rgb(0,0,0);stroke-opacity: 1.0;stroke-linecap: square;; fill: none" transform="matrix(1,0,0,1,0,0)" /><ellipse cx="243" cy="45" rx="9" ry="9" style="stroke-width: 2.0;stroke: rgb(0,0,0);stroke-opacity: 1.0;stroke-linecap: square;; fill: none" transform="matrix(1,0,0,1,0,0)" /><ellipse cx="261" cy="45" rx="9" ry="9" style="stroke-width: 2.0;stroke: rgb(0,0,0);stroke-opacity: 1.0;stroke-linecap: square;; fill: none" transform="matrix(1,0,0,1,0,0)" /><rect x="270" y="36" width="18" height="18" style="fill: rgb(0,0,0); fill-opacity: 1.0" transform="matrix(1,0,0,1,0,0)" /><ellipse cx="297" cy="45" rx="9" ry="9" style="stroke-width: 2.0;stroke: rgb(0,0,0);stroke-opacity: 1.0;stroke-linecap: square;; fill: none" transform="matrix(1,0,0,1,0,0)" /><ellipse cx="315" cy="45" rx="9" ry="9" style="stroke-width: 2.0;stroke: rgb(0,0,0);stroke-opacity: 1.0;stroke-linecap: square;; fill: none" transform="matrix(1,0,0,1,0,0)" /><rect x="324" y="36" width="18" height="18" style="fill: rgb(0,0,0); fill-opacity: 1.0" transform="matrix(1,0,0,1,0,0)" /><ellipse cx="351" cy="45" rx="9" ry="9" style="stroke-width: 2.0;stroke: rgb(0,0,0);stroke-opacity: 1.0;stroke-linecap: square;; fill: none" transform="matrix(1,0,0,1,0,0)" /><rect x="360" y="36" width="18" height="18" style="fill: rgb(0,0,0); fill-opacity: 1.0" transform="matrix(1,0,0,1,0,0)" /><rect x="378" y="36" width="18" height="18" style="fill: rgb(0,0,0); fill-opacity: 1.0" transform="matrix(1,0,0,1,0,0)" /><rect x="396" y="36" width="18" height="18" style="fill: rgb(0,0,0); fill-opacity: 1.0" transform="matrix(1,0,0,1,0,0)" /><rect x="414" y="36" width="18" height="18" style="fill: rgb(0,0,0); fill-opacity: 1.0" transform="matrix(1,0,0,1,0,0)" /><rect x="432" y="36" width="18" height="18" style="fill: rgb(0,0,0); fill-opacity: 1.0" transform="matrix(1,0,0,1,0,0)" /><ellipse cx="459" cy="45" rx="9" ry="9" style="stroke-width: 2.0;stroke: rgb(0,0,0);stroke-opacity: 1.0;stroke-linecap: square;; fill: none" transform="matrix(1,0,0,1,0,0)" /><rect x="468" y="36" width="18" height="18" style="fill: rgb(0,0,0); fill-opacity: 1.0" transform="matrix(1,0,0,1,0,0)" /><ellipse cx="495" cy="45" rx="9" ry="9" style="stroke-width: 2.0;stroke: rgb(0,0,0);stroke-opacity: 1.0;stroke-linecap: square;; fill: none" transform="matrix(1,0,0,1,0,0)" /><rect x="504" y="36" width="18" height="18" style="fill: rgb(0,0,0); fill-opacity: 1.0" transform="matrix(1,0,0,1,0,0)" /><ellipse cx="531" cy="45" rx="9" ry="9" style="stroke-width: 2.0;stroke: rgb(0,0,0);stroke-opacity: 1.0;stroke-linecap: square;; fill: none" transform="matrix(1,0,0,1,0,0)" /><rect x="540" y="36" width="18" height="18" style="fill: rgb(0,0,0); fill-opacity: 1.0" transform="matrix(1,0,0,1,0,0)" /><rect x="558" y="36" width="18" height="18" style="fill: rgb(0,0,0); fill-opacity: 1.0" transform="matrix(1,0,0,1,0,0)" /><ellipse cx="9" cy="63" rx="9" ry="9" style="stroke-width: 2.0;stroke: rgb(0,0,0);stroke-opacity: 1.0;stroke-linecap: square;; fill: none" transform="matrix(1,0,0,1,0,0)" /><rect x="18" y="54" width="18" height="18" style="fill: rgb(0,0,0); fill-opacity: 1.0" transform="matrix(1,0,0,1,0,0)" /><rect x="36" y="54" width="18" height="18" style="fill: rgb(0,0,0); fill-opacity: 1.0" transform="matrix(1,0,0,1,0,0)" /><ellipse cx="63" cy="63" rx="9" ry="9" style="stroke-width: 2.0;stroke: rgb(0,0,0);stroke-opacity: 1.0;stroke-linecap: square;; fill: none" transform="matrix(1,0,0,1,0,0)" /><rect x="72" y="54" width="18" height="18" style="fill: rgb(0,0,0); fill-opacity: 1.0" transform="matrix(1,0,0,1,0,0)" /><ellipse cx="99" cy="63" rx="9" ry="9" style="stroke-width: 2.0;stroke: rgb(0,0,0);stroke-opacity: 1.0;stroke-linecap: square;; fill: none" transform="matrix(1,0,0,1,0,0)" /><rect x="108" y="54" width="18" height="18" style="fill: rgb(0,0,0); fill-opacity: 1.0" transform="matrix(1,0,0,1,0,0)" /><rect x="126" y="54" width="18" height="18" style="fill: rgb(0,0,0); fill-opacity: 1.0" transform="matrix(1,0,0,1,0,0)" /><ellipse cx="153" cy="63" rx="9" ry="9" style="stroke-width: 2.0;stroke: rgb(0,0,0);stroke-opacity: 1.0;stroke-linecap: square;; fill: none" transform="matrix(1,0,0,1,0,0)" /><ellipse cx="171" cy="63" rx="9" ry="9" style="stroke-width: 2.0;stroke: rgb(0,0,0);stroke-opacity: 1.0;stroke-linecap: square;; fill: none" transform="matrix(1,0,0,1,0,0)" /><rect x="180" y="54" width="18" height="18" style="fill: rgb(0,0,0); fill-opacity: 1.0" transform="matrix(1,0,0,1,0,0)" /><ellipse cx="207" cy="63" rx="9" ry="9" style="stroke-width: 2.0;stroke: rgb(0,0,0);stroke-opacity: 1.0;stroke-linecap: square;; fill: none" transform="matrix(1,0,0,1,0,0)" /><ellipse cx="225" cy="63" rx="9" ry="9" style="stroke-width: 2.0;stroke: rgb(0,0,0);stroke-opacity: 1.0;stroke-linecap: square;; fill: none" transform="matrix(1,0,0,1,0,0)" /><rect x="234" y="54" width="18" height="18" style="fill: rgb(0,0,0); fill-opacity: 1.0" transform="matrix(1,0,0,1,0,0)" /><ellipse cx="261" cy="63" rx="9" ry="9" style="stroke-width: 2.0;stroke: rgb(0,0,0);stroke-opacity: 1.0;stroke-linecap: square;; fill: none" transform="matrix(1,0,0,1,0,0)" /><rect x="270" y="54" width="18" height="18" style="fill: rgb(0,0,0); fill-opacity: 1.0" transform="matrix(1,0,0,1,0,0)" /><rect x="288" y="54" width="18" height="18" style="fill: rgb(0,0,0); fill-opacity: 1.0" transform="matrix(1,0,0,1,0,0)" /><ellipse cx="315" cy="63" rx="9" ry="9" style="stroke-width: 2.0;stroke: rgb(0,0,0);stroke-opacity: 1.0;stroke-linecap: square;; fill: none" transform="matrix(1,0,0,1,0,0)" /><rect x="324" y="54" width="18" height="18" style="fill: rgb(0,0,0); fill-opacity: 1.0" transform="matrix(1,0,0,1,0,0)" /><ellipse cx="351" cy="63" rx="9" ry="9" style="stroke-width: 2.0;stroke: rgb(0,0,0);stroke-opacity: 1.0;stroke-linecap: square;; fill: none" transform="matrix(1,0,0,1,0,0)" /><rect x="360" y="54" width="18" height="18" style="fill: rgb(0,0,0); fill-opacity: 1.0" transform="matrix(1,0,0,1,0,0)" /><ellipse cx="387" cy="63" rx="9" ry="9" style="stroke-width: 2.0;stroke: rgb(0,0,0);stroke-opacity: 1.0;stroke-linecap: square;; fill: none" transform="matrix(1,0,0,1,0,0)" /><rect x="396" y="54" width="18" height="18" style="fill: rgb(0,0,0); fill-opacity: 1.0" transform="matrix(1,0,0,1,0,0)" /><ellipse cx="423" cy="63" rx="9" ry="9" style="stroke-width: 2.0;stroke: rgb(0,0,0);stroke-opacity: 1.0;stroke-linecap: square;; fill: none" transform="matrix(1,0,0,1,0,0)" /><ellipse cx="441" cy="63" rx="9" ry="9" style="stroke-width: 2.0;stroke: rgb(0,0,0);stroke-opacity: 1.0;stroke-linecap: square;; fill: none" transform="matrix(1,0,0,1,0,0)" /><ellipse cx="459" cy="63" rx="9" ry="9" style="stroke-width: 2.0;stroke: rgb(0,0,0);stroke-opacity: 1.0;stroke-linecap: square;; fill: none" transform="matrix(1,0,0,1,0,0)" /><rect x="468" y="54" width="18" height="18" style="fill: rgb(0,0,0); fill-opacity: 1.0" transform="matrix(1,0,0,1,0,0)" /><rect x="486" y="54" width="18" height="18" style="fill: rgb(0,0,0); fill-opacity: 1.0" transform="matrix(1,0,0,1,0,0)" /><ellipse cx="513" cy="63" rx="9" ry="9" style="stroke-width: 2.0;stroke: rgb(0,0,0);stroke-opacity: 1.0;stroke-linecap: square;; fill: none" transform="matrix(1,0,0,1,0,0)" /><ellipse cx="531" cy="63" rx="9" ry="9" style="stroke-width: 2.0;stroke: rgb(0,0,0);stroke-opacity: 1.0;stroke-linecap: square;; fill: none" transform="matrix(1,0,0,1,0,0)" /><ellipse cx="549" cy="63" rx="9" ry="9" style="stroke-width: 2.0;stroke: rgb(0,0,0);stroke-opacity: 1.0;stroke-linecap: square;; fill: none" transform="matrix(1,0,0,1,0,0)" /><rect x="558" y="54" width="18" height="18" style="fill: rgb(0,0,0); fill-opacity: 1.0" transform="matrix(1,0,0,1,0,0)" /><ellipse cx="9" cy="81" rx="9" ry="9" style="stroke-width: 2.0;stroke: rgb(0,0,0);stroke-opacity: 1.0;stroke-linecap: square;; fill: none" transform="matrix(1,0,0,1,0,0)" /><rect x="18" y="72" width="18" height="18" style="fill: rgb(0,0,0); fill-opacity: 1.0" transform="matrix(1,0,0,1,0,0)" /><ellipse cx="45" cy="81" rx="9" ry="9" style="stroke-width: 2.0;stroke: rgb(0,0,0);stroke-opacity: 1.0;stroke-linecap: square;; fill: none" transform="matrix(1,0,0,1,0,0)" /><rect x="54" y="72" width="18" height="18" style="fill: rgb(0,0,0); fill-opacity: 1.0" transform="matrix(1,0,0,1,0,0)" /><rect x="72" y="72" width="18" height="18" style="fill: rgb(0,0,0); fill-opacity: 1.0" transform="matrix(1,0,0,1,0,0)" /><ellipse cx="99" cy="81" rx="9" ry="9" style="stroke-width: 2.0;stroke: rgb(0,0,0);stroke-opacity: 1.0;stroke-linecap: square;; fill: none" transform="matrix(1,0,0,1,0,0)" /><ellipse cx="117" cy="81" rx="9" ry="9" style="stroke-width: 2.0;stroke: rgb(0,0,0);stroke-opacity: 1.0;stroke-linecap: square;; fill: none" transform="matrix(1,0,0,1,0,0)" /><rect x="126" y="72" width="18" height="18" style="fill: rgb(0,0,0); fill-opacity: 1.0" transform="matrix(1,0,0,1,0,0)" /><rect x="144" y="72" width="18" height="18" style="fill: rgb(0,0,0); fill-opacity: 1.0" transform="matrix(1,0,0,1,0,0)" /><ellipse cx="171" cy="81" rx="9" ry="9" style="stroke-width: 2.0;stroke: rgb(0,0,0);stroke-opacity: 1.0;stroke-linecap: square;; fill: none" transform="matrix(1,0,0,1,0,0)" /><rect x="180" y="72" width="18" height="18" style="fill: rgb(0,0,0); fill-opacity: 1.0" transform="matrix(1,0,0,1,0,0)" /><rect x="198" y="72" width="18" height="18" style="fill: rgb(0,0,0); fill-opacity: 1.0" transform="matrix(1,0,0,1,0,0)" /><rect x="216" y="72" width="18" height="18" style="fill: rgb(0,0,0); fill-opacity: 1.0" transform="matrix(1,0,0,1,0,0)" /><ellipse cx="243" cy="81" rx="9" ry="9" style="stroke-width: 2.0;stroke: rgb(0,0,0);stroke-opacity: 1.0;stroke-linecap: square;; fill: none" transform="matrix(1,0,0,1,0,0)" /><rect x="252" y="72" width="18" height="18" style="fill: rgb(0,0,0); fill-opacity: 1.0" transform="matrix(1,0,0,1,0,0)" /><rect x="270" y="72" width="18" height="18" style="fill: rgb(0,0,0); fill-opacity: 1.0" transform="matrix(1,0,0,1,0,0)" /><ellipse cx="297" cy="81" rx="9" ry="9" style="stroke-width: 2.0;stroke: rgb(0,0,0);stroke-opacity: 1.0;stroke-linecap: square;; fill: none" transform="matrix(1,0,0,1,0,0)" /><rect x="306" y="72" width="18" height="18" style="fill: rgb(0,0,0); fill-opacity: 1.0" transform="matrix(1,0,0,1,0,0)" /><rect x="324" y="72" width="18" height="18" style="fill: rgb(0,0,0); fill-opacity: 1.0" transform="matrix(1,0,0,1,0,0)" /><ellipse cx="351" cy="81" rx="9" ry="9" style="stroke-width: 2.0;stroke: rgb(0,0,0);stroke-opacity: 1.0;stroke-linecap: square;; fill: none" transform="matrix(1,0,0,1,0,0)" /><rect x="360" y="72" width="18" height="18" style="fill: rgb(0,0,0); fill-opacity: 1.0" transform="matrix(1,0,0,1,0,0)" /><ellipse cx="387" cy="81" rx="9" ry="9" style="stroke-width: 2.0;stroke: rgb(0,0,0);stroke-opacity: 1.0;stroke-linecap: square;; fill: none" transform="matrix(1,0,0,1,0,0)" /><ellipse cx="405" cy="81" rx="9" ry="9" style="stroke-width: 2.0;stroke: rgb(0,0,0);stroke-opacity: 1.0;stroke-linecap: square;; fill: none" transform="matrix(1,0,0,1,0,0)" /><ellipse cx="423" cy="81" rx="9" ry="9" style="stroke-width: 2.0;stroke: rgb(0,0,0);stroke-opacity: 1.0;stroke-linecap: square;; fill: none" transform="matrix(1,0,0,1,0,0)" /><rect x="432" y="72" width="18" height="18" style="fill: rgb(0,0,0); fill-opacity: 1.0" transform="matrix(1,0,0,1,0,0)" /><ellipse cx="459" cy="81" rx="9" ry="9" style="stroke-width: 2.0;stroke: rgb(0,0,0);stroke-opacity: 1.0;stroke-linecap: square;; fill: none" transform="matrix(1,0,0,1,0,0)" /><rect x="468" y="72" width="18" height="18" style="fill: rgb(0,0,0); fill-opacity: 1.0" transform="matrix(1,0,0,1,0,0)" /><rect x="486" y="72" width="18" height="18" style="fill: rgb(0,0,0); fill-opacity: 1.0" transform="matrix(1,0,0,1,0,0)" /><ellipse cx="513" cy="81" rx="9" ry="9" style="stroke-width: 2.0;stroke: rgb(0,0,0);stroke-opacity: 1.0;stroke-linecap: square;; fill: none" transform="matrix(1,0,0,1,0,0)" /><ellipse cx="531" cy="81" rx="9" ry="9" style="stroke-width: 2.0;stroke: rgb(0,0,0);stroke-opacity: 1.0;stroke-linecap: square;; fill: none" transform="matrix(1,0,0,1,0,0)" /><rect x="540" y="72" width="18" height="18" style="fill: rgb(0,0,0); fill-opacity: 1.0" transform="matrix(1,0,0,1,0,0)" /><ellipse cx="567" cy="81" rx="9" ry="9" style="stroke-width: 2.0;stroke: rgb(0,0,0);stroke-opacity: 1.0;stroke-linecap: square;; fill: none" transform="matrix(1,0,0,1,0,0)" /><rect x="0" y="90" width="18" height="18" style="fill: rgb(0,0,0); fill-opacity: 1.0" transform="matrix(1,0,0,1,0,0)" /><rect x="18" y="90" width="18" height="18" style="fill: rgb(0,0,0); fill-opacity: 1.0" transform="matrix(1,0,0,1,0,0)" /><rect x="36" y="90" width="18" height="18" style="fill: rgb(0,0,0); fill-opacity: 1.0" transform="matrix(1,0,0,1,0,0)" /><rect x="54" y="90" width="18" height="18" style="fill: rgb(0,0,0); fill-opacity: 1.0" transform="matrix(1,0,0,1,0,0)" /><rect x="72" y="90" width="18" height="18" style="fill: rgb(0,0,0); fill-opacity: 1.0" transform="matrix(1,0,0,1,0,0)" /><ellipse cx="99" cy="99" rx="9" ry="9" style="stroke-width: 2.0;stroke: rgb(0,0,0);stroke-opacity: 1.0;stroke-linecap: square;; fill: none" transform="matrix(1,0,0,1,0,0)" /><ellipse cx="117" cy="99" rx="9" ry="9" style="stroke-width: 2.0;stroke: rgb(0,0,0);stroke-opacity: 1.0;stroke-linecap: square;; fill: none" transform="matrix(1,0,0,1,0,0)" /><rect x="126" y="90" width="18" height="18" style="fill: rgb(0,0,0); fill-opacity: 1.0" transform="matrix(1,0,0,1,0,0)" /><rect x="144" y="90" width="18" height="18" style="fill: rgb(0,0,0); fill-opacity: 1.0" transform="matrix(1,0,0,1,0,0)" /><rect x="162" y="90" width="18" height="18" style="fill: rgb(0,0,0); fill-opacity: 1.0" transform="matrix(1,0,0,1,0,0)" /><rect x="180" y="90" width="18" height="18" style="fill: rgb(0,0,0); fill-opacity: 1.0" transform="matrix(1,0,0,1,0,0)" /><rect x="198" y="90" width="18" height="18" style="fill: rgb(0,0,0); fill-opacity: 1.0" transform="matrix(1,0,0,1,0,0)" /><rect x="216" y="90" width="18" height="18" style="fill: rgb(0,0,0); fill-opacity: 1.0" transform="matrix(1,0,0,1,0,0)" /><rect x="234" y="90" width="18" height="18" style="fill: rgb(0,0,0); fill-opacity: 1.0" transform="matrix(1,0,0,1,0,0)" /><ellipse cx="261" cy="99" rx="9" ry="9" style="stroke-width: 2.0;stroke: rgb(0,0,0);stroke-opacity: 1.0;stroke-linecap: square;; fill: none" transform="matrix(1,0,0,1,0,0)" /><rect x="270" y="90" width="18" height="18" style="fill: rgb(0,0,0); fill-opacity: 1.0" transform="matrix(1,0,0,1,0,0)" /><ellipse cx="297" cy="99" rx="9" ry="9" style="stroke-width: 2.0;stroke: rgb(0,0,0);stroke-opacity: 1.0;stroke-linecap: square;; fill: none" transform="matrix(1,0,0,1,0,0)" /><rect x="306" y="90" width="18" height="18" style="fill: rgb(0,0,0); fill-opacity: 1.0" transform="matrix(1,0,0,1,0,0)" /><rect x="324" y="90" width="18" height="18" style="fill: rgb(0,0,0); fill-opacity: 1.0" transform="matrix(1,0,0,1,0,0)" /><ellipse cx="351" cy="99" rx="9" ry="9" style="stroke-width: 2.0;stroke: rgb(0,0,0);stroke-opacity: 1.0;stroke-linecap: square;; fill: none" transform="matrix(1,0,0,1,0,0)" /><rect x="360" y="90" width="18" height="18" style="fill: rgb(0,0,0); fill-opacity: 1.0" transform="matrix(1,0,0,1,0,0)" /><rect x="378" y="90" width="18" height="18" style="fill: rgb(0,0,0); fill-opacity: 1.0" transform="matrix(1,0,0,1,0,0)" /><rect x="396" y="90" width="18" height="18" style="fill: rgb(0,0,0); fill-opacity: 1.0" transform="matrix(1,0,0,1,0,0)" /><ellipse cx="423" cy="99" rx="9" ry="9" style="stroke-width: 2.0;stroke: rgb(0,0,0);stroke-opacity: 1.0;stroke-linecap: square;; fill: none" transform="matrix(1,0,0,1,0,0)" /><ellipse cx="441" cy="99" rx="9" ry="9" style="stroke-width: 2.0;stroke: rgb(0,0,0);stroke-opacity: 1.0;stroke-linecap: square;; fill: none" transform="matrix(1,0,0,1,0,0)" /><ellipse cx="459" cy="99" rx="9" ry="9" style="stroke-width: 2.0;stroke: rgb(0,0,0);stroke-opacity: 1.0;stroke-linecap: square;; fill: none" transform="matrix(1,0,0,1,0,0)" /><rect x="468" y="90" width="18" height="18" style="fill: rgb(0,0,0); fill-opacity: 1.0" transform="matrix(1,0,0,1,0,0)" /><rect x="486" y="90" width="18" height="18" style="fill: rgb(0,0,0); fill-opacity: 1.0" transform="matrix(1,0,0,1,0,0)" /><rect x="504" y="90" width="18" height="18" style="fill: rgb(0,0,0); fill-opacity: 1.0" transform="matrix(1,0,0,1,0,0)" /><rect x="522" y="90" width="18" height="18" style="fill: rgb(0,0,0); fill-opacity: 1.0" transform="matrix(1,0,0,1,0,0)" /><ellipse cx="549" cy="99" rx="9" ry="9" style="stroke-width: 2.0;stroke: rgb(0,0,0);stroke-opacity: 1.0;stroke-linecap: square;; fill: none" transform="matrix(1,0,0,1,0,0)" /><rect x="558" y="90" width="18" height="18" style="fill: rgb(0,0,0); fill-opacity: 1.0" transform="matrix(1,0,0,1,0,0)" /><rect x="0" y="108" width="18" height="18" style="fill: rgb(0,0,0); fill-opacity: 1.0" transform="matrix(1,0,0,1,0,0)" /><ellipse cx="27" cy="117" rx="9" ry="9" style="stroke-width: 2.0;stroke: rgb(0,0,0);stroke-opacity: 1.0;stroke-linecap: square;; fill: none" transform="matrix(1,0,0,1,0,0)" /><ellipse cx="45" cy="117" rx="9" ry="9" style="stroke-width: 2.0;stroke: rgb(0,0,0);stroke-opacity: 1.0;stroke-linecap: square;; fill: none" transform="matrix(1,0,0,1,0,0)" /><rect x="54" y="108" width="18" height="18" style="fill: rgb(0,0,0); fill-opacity: 1.0" transform="matrix(1,0,0,1,0,0)" /><ellipse cx="81" cy="117" rx="9" ry="9" style="stroke-width: 2.0;stroke: rgb(0,0,0);stroke-opacity: 1.0;stroke-linecap: square;; fill: none" transform="matrix(1,0,0,1,0,0)" /><rect x="90" y="108" width="18" height="18" style="fill: rgb(0,0,0); fill-opacity: 1.0" transform="matrix(1,0,0,1,0,0)" /><ellipse cx="117" cy="117" rx="9" ry="9" style="stroke-width: 2.0;stroke: rgb(0,0,0);stroke-opacity: 1.0;stroke-linecap: square;; fill: none" transform="matrix(1,0,0,1,0,0)" /><ellipse cx="135" cy="117" rx="9" ry="9" style="stroke-width: 2.0;stroke: rgb(0,0,0);stroke-opacity: 1.0;stroke-linecap: square;; fill: none" transform="matrix(1,0,0,1,0,0)" /><rect x="144" y="108" width="18" height="18" style="fill: rgb(0,0,0); fill-opacity: 1.0" transform="matrix(1,0,0,1,0,0)" /><rect x="162" y="108" width="18" height="18" style="fill: rgb(0,0,0); fill-opacity: 1.0" transform="matrix(1,0,0,1,0,0)" /><rect x="180" y="108" width="18" height="18" style="fill: rgb(0,0,0); fill-opacity: 1.0" transform="matrix(1,0,0,1,0,0)" /><ellipse cx="207" cy="117" rx="9" ry="9" style="stroke-width: 2.0;stroke: rgb(0,0,0);stroke-opacity: 1.0;stroke-linecap: square;; fill: none" transform="matrix(1,0,0,1,0,0)" /><rect x="216" y="108" width="18" height="18" style="fill: rgb(0,0,0); fill-opacity: 1.0" transform="matrix(1,0,0,1,0,0)" /><rect x="234" y="108" width="18" height="18" style="fill: rgb(0,0,0); fill-opacity: 1.0" transform="matrix(1,0,0,1,0,0)" /><ellipse cx="261" cy="117" rx="9" ry="9" style="stroke-width: 2.0;stroke: rgb(0,0,0);stroke-opacity: 1.0;stroke-linecap: square;; fill: none" transform="matrix(1,0,0,1,0,0)" /><rect x="270" y="108" width="18" height="18" style="fill: rgb(0,0,0); fill-opacity: 1.0" transform="matrix(1,0,0,1,0,0)" /><rect x="288" y="108" width="18" height="18" style="fill: rgb(0,0,0); fill-opacity: 1.0" transform="matrix(1,0,0,1,0,0)" /><rect x="306" y="108" width="18" height="18" style="fill: rgb(0,0,0); fill-opacity: 1.0" transform="matrix(1,0,0,1,0,0)" /><ellipse cx="333" cy="117" rx="9" ry="9" style="stroke-width: 2.0;stroke: rgb(0,0,0);stroke-opacity: 1.0;stroke-linecap: square;; fill: none" transform="matrix(1,0,0,1,0,0)" /><rect x="342" y="108" width="18" height="18" style="fill: rgb(0,0,0); fill-opacity: 1.0" transform="matrix(1,0,0,1,0,0)" /><rect x="360" y="108" width="18" height="18" style="fill: rgb(0,0,0); fill-opacity: 1.0" transform="matrix(1,0,0,1,0,0)" /><rect x="378" y="108" width="18" height="18" style="fill: rgb(0,0,0); fill-opacity: 1.0" transform="matrix(1,0,0,1,0,0)" /><rect x="396" y="108" width="18" height="18" style="fill: rgb(0,0,0); fill-opacity: 1.0" transform="matrix(1,0,0,1,0,0)" /><rect x="414" y="108" width="18" height="18" style="fill: rgb(0,0,0); fill-opacity: 1.0" transform="matrix(1,0,0,1,0,0)" /><rect x="432" y="108" width="18" height="18" style="fill: rgb(0,0,0); fill-opacity: 1.0" transform="matrix(1,0,0,1,0,0)" /><ellipse cx="459" cy="117" rx="9" ry="9" style="stroke-width: 2.0;stroke: rgb(0,0,0);stroke-opacity: 1.0;stroke-linecap: square;; fill: none" transform="matrix(1,0,0,1,0,0)" /><ellipse cx="477" cy="117" rx="9" ry="9" style="stroke-width: 2.0;stroke: rgb(0,0,0);stroke-opacity: 1.0;stroke-linecap: square;; fill: none" transform="matrix(1,0,0,1,0,0)" /><ellipse cx="495" cy="117" rx="9" ry="9" style="stroke-width: 2.0;stroke: rgb(0,0,0);stroke-opacity: 1.0;stroke-linecap: square;; fill: none" transform="matrix(1,0,0,1,0,0)" /><ellipse cx="513" cy="117" rx="9" ry="9" style="stroke-width: 2.0;stroke: rgb(0,0,0);stroke-opacity: 1.0;stroke-linecap: square;; fill: none" transform="matrix(1,0,0,1,0,0)" /><ellipse cx="531" cy="117" rx="9" ry="9" style="stroke-width: 2.0;stroke: rgb(0,0,0);stroke-opacity: 1.0;stroke-linecap: square;; fill: none" transform="matrix(1,0,0,1,0,0)" /><rect x="540" y="108" width="18" height="18" style="fill: rgb(0,0,0); fill-opacity: 1.0" transform="matrix(1,0,0,1,0,0)" /><ellipse cx="567" cy="117" rx="9" ry="9" style="stroke-width: 2.0;stroke: rgb(0,0,0);stroke-opacity: 1.0;stroke-linecap: square;; fill: none" transform="matrix(1,0,0,1,0,0)" /><ellipse cx="9" cy="135" rx="9" ry="9" style="stroke-width: 2.0;stroke: rgb(0,0,0);stroke-opacity: 1.0;stroke-linecap: square;; fill: none" transform="matrix(1,0,0,1,0,0)" /><rect x="18" y="126" width="18" height="18" style="fill: rgb(0,0,0); fill-opacity: 1.0" transform="matrix(1,0,0,1,0,0)" /><rect x="36" y="126" width="18" height="18" style="fill: rgb(0,0,0); fill-opacity: 1.0" transform="matrix(1,0,0,1,0,0)" /><ellipse cx="63" cy="135" rx="9" ry="9" style="stroke-width: 2.0;stroke: rgb(0,0,0);stroke-opacity: 1.0;stroke-linecap: square;; fill: none" transform="matrix(1,0,0,1,0,0)" /><rect x="72" y="126" width="18" height="18" style="fill: rgb(0,0,0); fill-opacity: 1.0" transform="matrix(1,0,0,1,0,0)" /><rect x="90" y="126" width="18" height="18" style="fill: rgb(0,0,0); fill-opacity: 1.0" transform="matrix(1,0,0,1,0,0)" /><rect x="108" y="126" width="18" height="18" style="fill: rgb(0,0,0); fill-opacity: 1.0" transform="matrix(1,0,0,1,0,0)" /><rect x="126" y="126" width="18" height="18" style="fill: rgb(0,0,0); fill-opacity: 1.0" transform="matrix(1,0,0,1,0,0)" /><rect x="144" y="126" width="18" height="18" style="fill: rgb(0,0,0); fill-opacity: 1.0" transform="matrix(1,0,0,1,0,0)" /><ellipse cx="171" cy="135" rx="9" ry="9" style="stroke-width: 2.0;stroke: rgb(0,0,0);stroke-opacity: 1.0;stroke-linecap: square;; fill: none" transform="matrix(1,0,0,1,0,0)" /><rect x="180" y="126" width="18" height="18" style="fill: rgb(0,0,0); fill-opacity: 1.0" transform="matrix(1,0,0,1,0,0)" /><ellipse cx="207" cy="135" rx="9" ry="9" style="stroke-width: 2.0;stroke: rgb(0,0,0);stroke-opacity: 1.0;stroke-linecap: square;; fill: none" transform="matrix(1,0,0,1,0,0)" /><ellipse cx="225" cy="135" rx="9" ry="9" style="stroke-width: 2.0;stroke: rgb(0,0,0);stroke-opacity: 1.0;stroke-linecap: square;; fill: none" transform="matrix(1,0,0,1,0,0)" /><rect x="234" y="126" width="18" height="18" style="fill: rgb(0,0,0); fill-opacity: 1.0" transform="matrix(1,0,0,1,0,0)" /><rect x="252" y="126" width="18" height="18" style="fill: rgb(0,0,0); fill-opacity: 1.0" transform="matrix(1,0,0,1,0,0)" /><rect x="270" y="126" width="18" height="18" style="fill: rgb(0,0,0); fill-opacity: 1.0" transform="matrix(1,0,0,1,0,0)" /><ellipse cx="297" cy="135" rx="9" ry="9" style="stroke-width: 2.0;stroke: rgb(0,0,0);stroke-opacity: 1.0;stroke-linecap: square;; fill: none" transform="matrix(1,0,0,1,0,0)" /><rect x="306" y="126" width="18" height="18" style="fill: rgb(0,0,0); fill-opacity: 1.0" transform="matrix(1,0,0,1,0,0)" /><rect x="324" y="126" width="18" height="18" style="fill: rgb(0,0,0); fill-opacity: 1.0" transform="matrix(1,0,0,1,0,0)" /><ellipse cx="351" cy="135" rx="9" ry="9" style="stroke-width: 2.0;stroke: rgb(0,0,0);stroke-opacity: 1.0;stroke-linecap: square;; fill: none" transform="matrix(1,0,0,1,0,0)" /><ellipse cx="369" cy="135" rx="9" ry="9" style="stroke-width: 2.0;stroke: rgb(0,0,0);stroke-opacity: 1.0;stroke-linecap: square;; fill: none" transform="matrix(1,0,0,1,0,0)" /><rect x="378" y="126" width="18" height="18" style="fill: rgb(0,0,0); fill-opacity: 1.0" transform="matrix(1,0,0,1,0,0)" /><rect x="396" y="126" width="18" height="18" style="fill: rgb(0,0,0); fill-opacity: 1.0" transform="matrix(1,0,0,1,0,0)" /><rect x="414" y="126" width="18" height="18" style="fill: rgb(0,0,0); fill-opacity: 1.0" transform="matrix(1,0,0,1,0,0)" /><ellipse cx="441" cy="135" rx="9" ry="9" style="stroke-width: 2.0;stroke: rgb(0,0,0);stroke-opacity: 1.0;stroke-linecap: square;; fill: none" transform="matrix(1,0,0,1,0,0)" /><rect x="450" y="126" width="18" height="18" style="fill: rgb(0,0,0); fill-opacity: 1.0" transform="matrix(1,0,0,1,0,0)" /><rect x="468" y="126" width="18" height="18" style="fill: rgb(0,0,0); fill-opacity: 1.0" transform="matrix(1,0,0,1,0,0)" /><rect x="486" y="126" width="18" height="18" style="fill: rgb(0,0,0); fill-opacity: 1.0" transform="matrix(1,0,0,1,0,0)" /><rect x="504" y="126" width="18" height="18" style="fill: rgb(0,0,0); fill-opacity: 1.0" transform="matrix(1,0,0,1,0,0)" /><rect x="522" y="126" width="18" height="18" style="fill: rgb(0,0,0); fill-opacity: 1.0" transform="matrix(1,0,0,1,0,0)" /><rect x="540" y="126" width="18" height="18" style="fill: rgb(0,0,0); fill-opacity: 1.0" transform="matrix(1,0,0,1,0,0)" /><ellipse cx="567" cy="135" rx="9" ry="9" style="stroke-width: 2.0;stroke: rgb(0,0,0);stroke-opacity: 1.0;stroke-linecap: square;; fill: none" transform="matrix(1,0,0,1,0,0)" /></svg>