<svg xmlns="http://www.w3.org/2000/svg" xmlns:xlink="http://www.w3.org/1999/xlink" viewBox="0 0 7560 3623">
<title>headline</title>
<g transform="matrix(1,0,0,1,0,2240)">
  		<path character="h" fill="#CAD1D8" fill-opacity="1.0" stroke="none" stroke-width="0" stroke-linecap="butt" stroke-opacity="1.0" transform="matrix(1,0,0,1,192,0)" d="M 637 -11 Q 478 -11 478 -196 Q 478 -301 552 -428 Q 626 -556 734 -728 Q 390 -556 110 -220 Q -46 13 -73 13 Q -151 13 -151 -32 Q -151 -56 -118 -118 Q 142 -583 277 -798 Q 597 -1312 728 -1355 Q 734 -1357 739 -1357 Q 774 -1357 788 -1301 Q 780 -1245 508 -892 Q 226 -535 188 -425 Q 288 -497 535 -669 Q 801 -855 887 -855 Q 973 -855 973 -788 Q 973 -777 971 -773 Q 970 -769 784 -519 Q 599 -269 599 -151 Q 599 -89 645 -89 Q 790 -94 1081 -438 Q 1105 -462 1117 -462 Q 1129 -462 1129 -446 Q 1129 -392 863 -156 Q 696 -11 637 -11 Z"/>
		<path character="e" fill="#CAD1D8" fill-opacity="1.0" stroke="none" stroke-width="0" stroke-linecap="butt" stroke-opacity="1.0" transform="matrix(1,0,0,1,1226,0)" d="M 137 35 Q 108 35 83 27 Q -89 -22 -89 -167 Q -89 -355 147 -602 Q 384 -849 573 -849 Q 634 -849 673 -815 Q 712 -782 712 -734 Q 712 -583 485 -446 Q 258 -309 116 -309 Q 94 -309 78 -314 Q 38 -242 38 -161 Q 38 -22 171 -22 Q 304 -22 516 -202 Q 680 -333 796 -481 Q 820 -513 837 -513 Q 855 -513 855 -497 Q 855 -481 833 -452 Q 688 -261 484 -113 Q 280 35 137 35 M 645 -739 Q 645 -771 576 -771 Q 508 -771 382 -667 Q 212 -527 118 -374 Q 134 -368 153 -368 Q 255 -368 426 -477 Q 597 -586 640 -715 Q 645 -728 645 -739 Z"/>
		<path character="a" fill="#CAD1D8" fill-opacity="1.0" stroke="none" stroke-width="0" stroke-linecap="butt" stroke-opacity="1.0" transform="matrix(1,0,0,1,1940,0)" d="M 895 -804 L 933 -812 Q 963 -812 989 -787 Q 1016 -763 1016 -750 Q 1016 -737 849 -491 Q 683 -245 683 -148 Q 683 -140 686 -132 Q 699 -70 745 -70 Q 885 -70 1256 -532 Q 1264 -543 1274 -543 Q 1285 -543 1285 -523 Q 1285 -503 1261 -470 Q 917 -11 737 -11 Q 713 -11 691 -19 Q 573 -65 573 -196 Q 573 -242 584 -288 L 417 -126 Q 258 13 187 13 Q 116 13 51 -32 Q -21 -86 -21 -175 Q -21 -371 253 -644 Q 527 -917 756 -917 Q 844 -917 874 -855 Q 882 -833 887 -818 Q 893 -804 895 -804 M 92 -142 Q 92 -46 159 -46 Q 315 -46 584 -387 L 869 -780 Q 847 -817 799 -817 Q 635 -817 363 -563 Q 92 -309 92 -142 Z"/>
		<path character="d" fill="#CAD1D8" fill-opacity="1.0" stroke="none" stroke-width="0" stroke-linecap="butt" stroke-opacity="1.0" transform="matrix(1,0,0,1,3039,0)" d="M 885 -814 Q 1186 -1304 1304 -1304 Q 1323 -1304 1356 -1291 Q 1390 -1279 1390 -1255 Q 1390 -1242 1377 -1220 Q 1162 -957 1057 -825 Q 740 -425 707 -250 Q 699 -212 699 -175 Q 699 -54 799 -54 Q 998 -54 1317 -422 Q 1344 -449 1363 -453 Q 1382 -457 1382 -443 Q 1382 -430 1366 -411 Q 1054 -38 812 5 Q 799 8 774 8 Q 691 8 649 -50 Q 608 -108 608 -175 Q 608 -250 637 -341 L 420 -124 Q 272 13 187 13 Q 102 13 46 -32 Q -21 -83 -21 -175 Q -21 -371 253 -644 Q 527 -917 756 -917 Q 831 -917 860 -876 Q 871 -863 885 -814 M 92 -142 Q 92 -46 159 -46 Q 274 -46 543 -363 Q 592 -419 866 -785 Q 847 -817 801 -817 Q 635 -817 363 -563 Q 92 -309 92 -142 Z"/>
		<path character="l" fill="#CAD1D8" fill-opacity="1.0" stroke="none" stroke-width="0" stroke-linecap="butt" stroke-opacity="1.0" transform="matrix(1,0,0,1,4329,0)" d="M 105 -134 Q 105 -54 193 -54 Q 282 -54 422 -148 Q 562 -242 694 -403 Q 726 -446 744 -446 Q 763 -446 763 -430 Q 763 -414 653 -290 Q 384 5 204 5 Q 116 5 54 -36 Q -8 -78 -8 -165 Q -8 -253 38 -368 Q 116 -551 288 -828 Q 602 -1339 734 -1339 Q 761 -1339 789 -1318 Q 817 -1298 820 -1274 Q 758 -1191 582 -954 Q 406 -718 338 -614 Q 271 -511 237 -460 Q 204 -409 188 -380 Q 172 -352 151 -306 Q 105 -215 105 -134 Z"/>
		<path character="i" fill="#CAD1D8" fill-opacity="1.0" stroke="none" stroke-width="0" stroke-linecap="butt" stroke-opacity="1.0" transform="matrix(1,0,0,1,4979,0)" d="M 583 -1097 Q 624 -1097 660 -1071 Q 696 -1046 696 -1011 Q 696 -976 662 -950 Q 629 -925 588 -925 Q 548 -925 514 -954 Q 481 -984 481 -1021 Q 481 -1097 583 -1097 M 97 30 Q -40 30 -40 -148 Q -40 -293 118 -549 Q 277 -806 374 -809 Q 401 -809 434 -787 Q 468 -766 468 -745 Q 454 -726 435 -703 Q 417 -680 395 -653 Q 374 -626 336 -576 Q 298 -527 263 -481 Q 62 -220 62 -122 Q 62 -24 129 -24 Q 185 -24 282 -86 Q 508 -226 640 -392 Q 688 -454 705 -454 Q 723 -454 723 -432 Q 723 -411 661 -346 Q 599 -282 563 -244 Q 527 -207 513 -195 Q 500 -183 463 -149 Q 427 -116 408 -102 Q 390 -89 355 -62 Q 320 -35 293 -23 Q 266 -11 231 5 Q 175 30 97 30 Z"/>
		<path character="n" fill="#CAD1D8" fill-opacity="1.0" stroke="none" stroke-width="0" stroke-linecap="butt" stroke-opacity="1.0" transform="matrix(1,0,0,1,5565,0)" d="M 433 -849 Q 505 -849 505 -793 Q 505 -777 497 -761 Q 255 -425 207 -253 Q 833 -879 968 -879 Q 981 -882 992 -882 Q 1067 -882 1067 -814 Q 1067 -801 1061 -787 Q 1056 -774 954 -642 Q 836 -503 754 -374 Q 672 -245 672 -159 Q 672 -73 710 -73 Q 828 -73 1121 -398 Q 1126 -403 1140 -422 Q 1180 -470 1188 -470 Q 1196 -470 1196 -443 Q 1196 -417 1159 -374 Q 825 5 685 5 Q 554 5 554 -140 Q 554 -285 661 -473 L 833 -753 Q 650 -618 508 -458 Q 366 -298 249 -147 Q 132 3 113 3 Q 73 3 50 -31 Q 27 -65 27 -114 Q 27 -164 62 -247 Q 97 -331 151 -449 L -11 -280 Q -70 -220 -84 -220 Q -99 -220 -99 -237 Q -99 -255 -78 -277 Q 22 -376 94 -468 Q 164 -559 382 -817 Q 406 -849 433 -849 Z"/>
		<path character="e" fill="#CAD1D8" fill-opacity="1.0" stroke="none" stroke-width="0" stroke-linecap="butt" stroke-opacity="1.0" transform="matrix(1,0,0,1,6664,0)" d="M 137 35 Q 108 35 83 27 Q -89 -22 -89 -167 Q -89 -355 147 -602 Q 384 -849 573 -849 Q 634 -849 673 -815 Q 712 -782 712 -734 Q 712 -583 485 -446 Q 258 -309 116 -309 Q 94 -309 78 -314 Q 38 -242 38 -161 Q 38 -22 171 -22 Q 304 -22 516 -202 Q 680 -333 796 -481 Q 820 -513 837 -513 Q 855 -513 855 -497 Q 855 -481 833 -452 Q 688 -261 484 -113 Q 280 35 137 35 M 645 -739 Q 645 -771 576 -771 Q 508 -771 382 -667 Q 212 -527 118 -374 Q 134 -368 153 -368 Q 255 -368 426 -477 Q 597 -586 640 -715 Q 645 -728 645 -739 Z"/>
</g>
</svg>