<svg xmlns="http://www.w3.org/2000/svg" xmlns:xlink="http://www.w3.org/1999/xlink" viewBox="0 0 8794 4173">
<title>headline</title>
<g transform="matrix(1,0,0,1,0,2944)">
  		<path character="h" fill="#CAD1D8" fill-opacity="1.0" stroke="none" stroke-width="0" stroke-linecap="butt" stroke-opacity="1.0" transform="matrix(1,0,0,1,-256,0)" d="M 258 -47 Q 258 -142 277 -270 Q 296 -398 332 -543 Q 368 -689 418 -848 Q 468 -1007 530 -1167 Q 583 -1310 654 -1455 Q 726 -1601 809 -1741 Q 892 -1881 982 -2008 Q 1073 -2135 1164 -2240 Q 1207 -2240 1256 -2228 Q 1306 -2217 1353 -2198 Q 1400 -2180 1439 -2154 Q 1478 -2128 1503 -2102 Q 1301 -1895 1139 -1684 Q 978 -1474 884 -1289 Q 833 -1187 791 -1098 Q 750 -1010 715 -923 Q 680 -836 652 -749 Q 624 -662 599 -565 Q 1116 -1216 1366 -1216 Q 1435 -1216 1516 -1173 Q 1597 -1130 1658 -1056 Q 1575 -964 1486 -834 Q 1398 -705 1324 -574 Q 1250 -443 1203 -331 Q 1156 -219 1156 -165 Q 1156 -138 1164 -128 Q 1172 -119 1199 -119 Q 1239 -119 1263 -130 Q 1288 -141 1293 -141 Q 1306 -119 1309 -111 Q 1312 -103 1312 -98 Q 1312 -87 1279 -67 Q 1247 -47 1203 -26 Q 1159 -6 1116 10 Q 1073 26 1051 26 Q 1024 26 997 11 Q 970 -4 950 -28 Q 930 -52 918 -82 Q 906 -112 906 -144 Q 906 -185 929 -264 Q 952 -344 992 -450 Q 1032 -557 1088 -684 Q 1145 -811 1210 -943 Q 1210 -960 1199 -960 Q 1191 -960 1157 -938 Q 1124 -917 1094 -895 Q 997 -822 899 -714 Q 801 -607 708 -479 Q 616 -352 534 -209 Q 452 -67 392 76 Q 384 95 368 111 Q 352 128 341 128 Q 333 128 318 109 Q 304 90 292 62 Q 280 34 269 4 Q 258 -26 258 -47 Z"/>
		<path character="e" fill="#CAD1D8" fill-opacity="1.0" stroke="none" stroke-width="0" stroke-linecap="butt" stroke-opacity="1.0" transform="matrix(1,0,0,1,1165,0)" d="M 1223 -1120 Q 1212 -952 1164 -832 Q 1116 -712 1025 -621 Q 935 -531 806 -458 Q 677 -385 505 -317 Q 505 -301 504 -283 Q 503 -266 503 -247 Q 503 -212 508 -174 Q 513 -137 526 -104 Q 540 -72 564 -52 Q 589 -32 626 -32 Q 699 -32 769 -64 Q 839 -97 902 -144 Q 965 -191 1020 -246 Q 1075 -301 1118 -347 Q 1145 -323 1164 -301 Q 1043 -139 899 -33 Q 755 73 626 103 Q 441 81 337 -34 Q 234 -149 234 -312 Q 234 -423 265 -538 Q 296 -654 351 -761 Q 406 -868 480 -963 Q 554 -1058 638 -1128 Q 723 -1199 813 -1239 Q 903 -1280 992 -1280 Q 1116 -1263 1223 -1120 M 1038 -1030 Q 965 -1019 887 -970 Q 809 -922 740 -841 Q 672 -760 615 -652 Q 559 -544 527 -420 Q 742 -528 884 -686 Q 1027 -844 1038 -1030 Z"/>
		<path character="a" fill="#CAD1D8" fill-opacity="1.0" stroke="none" stroke-width="0" stroke-linecap="butt" stroke-opacity="1.0" transform="matrix(1,0,0,1,2266,0)" d="M 1188 -1075 Q 1215 -1075 1251 -1064 Q 1288 -1054 1317 -1037 Q 1347 -1021 1367 -1003 Q 1387 -985 1387 -970 Q 1333 -858 1287 -745 Q 1242 -632 1209 -528 Q 1177 -425 1159 -334 Q 1142 -244 1142 -178 Q 1142 -104 1158 -54 Q 1175 -5 1212 16 Q 1180 37 1129 50 Q 1078 64 1038 64 Q 892 64 892 -132 Q 892 -283 995 -546 Q 941 -425 871 -318 Q 801 -212 728 -130 Q 656 -49 582 2 Q 508 53 446 64 Q 347 64 285 -26 Q 223 -116 223 -256 Q 223 -407 287 -573 Q 352 -740 453 -882 Q 554 -1025 672 -1120 Q 790 -1216 900 -1216 Q 927 -1208 961 -1184 Q 995 -1160 1025 -1127 Q 1056 -1095 1077 -1061 Q 1099 -1028 1102 -1004 Q 995 -988 880 -899 Q 766 -811 673 -686 Q 581 -562 521 -420 Q 462 -278 462 -154 Q 462 -103 500 -90 Q 578 -106 680 -223 Q 782 -340 927 -585 Q 954 -634 987 -693 Q 1021 -752 1056 -816 Q 1091 -881 1125 -947 Q 1159 -1013 1188 -1075 Z"/>
		<path character="d" fill="#CAD1D8" fill-opacity="1.0" stroke="none" stroke-width="0" stroke-linecap="butt" stroke-opacity="1.0" transform="matrix(1,0,0,1,3558,0)" d="M 847 -1280 Q 900 -1280 970 -1248 Q 1040 -1216 1094 -1165 Q 1081 -1273 1060 -1369 Q 1040 -1465 1001 -1567 Q 962 -1670 897 -1791 Q 833 -1912 737 -2069 Q 745 -2093 773 -2125 Q 801 -2158 837 -2186 Q 874 -2215 913 -2237 Q 952 -2259 986 -2264 Q 1062 -2180 1129 -2054 Q 1196 -1929 1247 -1784 Q 1298 -1640 1326 -1486 Q 1355 -1333 1355 -1192 Q 1355 -1052 1324 -903 Q 1293 -755 1238 -613 Q 1183 -472 1110 -345 Q 1038 -218 953 -118 Q 868 -18 776 45 Q 685 109 594 125 Q 409 103 310 5 Q 212 -93 212 -266 Q 212 -358 240 -465 Q 269 -573 316 -679 Q 363 -786 426 -887 Q 489 -989 560 -1070 Q 632 -1151 704 -1207 Q 777 -1264 847 -1280 M 573 18 Q 667 -14 761 -125 Q 855 -236 930 -385 Q 1005 -535 1052 -706 Q 1099 -878 1099 -1038 Q 1099 -1084 1099 -1094 Q 1099 -1105 1097 -1116 Q 1032 -1089 959 -1024 Q 887 -959 814 -874 Q 742 -789 677 -689 Q 613 -589 562 -489 Q 511 -390 481 -298 Q 452 -206 452 -136 Q 452 -1 573 18 Z"/>
		<path character="l" fill="#CAD1D8" fill-opacity="1.0" stroke="none" stroke-width="0" stroke-linecap="butt" stroke-opacity="1.0" transform="matrix(1,0,0,1,4723,0)" d="M 258 -172 Q 258 -290 314 -504 Q 371 -718 473 -1003 Q 640 -1457 786 -1759 Q 933 -2062 1073 -2231 Q 1105 -2226 1152 -2204 Q 1199 -2183 1244 -2157 Q 1290 -2132 1326 -2105 Q 1363 -2078 1374 -2062 Q 1164 -1814 1005 -1529 Q 847 -1245 715 -876 Q 602 -559 543 -305 Q 484 -51 484 118 Q 484 164 484 174 Q 484 185 487 196 Q 449 191 422 177 Q 395 164 387 145 Q 382 132 357 106 Q 333 81 314 67 Q 290 51 274 -17 Q 258 -86 258 -172 Z"/>
		<path character="i" fill="#CAD1D8" fill-opacity="1.0" stroke="none" stroke-width="0" stroke-linecap="butt" stroke-opacity="1.0" transform="matrix(1,0,0,1,5376,0)" d="M 263 -162 Q 263 -186 267 -222 Q 271 -258 282 -317 Q 293 -377 310 -462 Q 328 -547 355 -667 Q 360 -693 379 -751 Q 398 -810 429 -875 Q 460 -941 504 -1002 Q 548 -1063 610 -1092 Q 656 -1081 731 -1037 Q 806 -993 860 -915 Q 798 -846 756 -777 Q 715 -708 681 -633 Q 648 -559 619 -479 Q 591 -400 556 -313 Q 527 -238 502 -160 Q 478 -82 476 -24 Q 476 24 474 44 Q 473 64 460 64 Q 449 64 416 50 Q 384 37 350 9 Q 317 -18 290 -60 Q 263 -103 263 -162 M 777 -1314 Q 777 -1330 785 -1362 Q 771 -1376 762 -1404 Q 753 -1432 753 -1455 Q 753 -1480 759 -1524 Q 766 -1568 777 -1618 Q 788 -1669 804 -1724 Q 820 -1779 836 -1824 Q 868 -1824 915 -1804 Q 962 -1785 1010 -1753 Q 1059 -1721 1099 -1683 Q 1140 -1645 1161 -1612 Q 1132 -1583 1083 -1531 Q 1035 -1479 989 -1421 Q 943 -1364 905 -1313 Q 868 -1263 857 -1242 Q 825 -1247 801 -1270 Q 777 -1293 777 -1314 Z"/>
		<path character="n" fill="#CAD1D8" fill-opacity="1.0" stroke="none" stroke-width="0" stroke-linecap="butt" stroke-opacity="1.0" transform="matrix(1,0,0,1,6029,0)" d="M 696 -1331 Q 766 -1309 828 -1234 Q 890 -1160 919 -1071 Q 890 -999 828 -897 Q 766 -795 704 -689 Q 642 -583 592 -488 Q 543 -393 535 -331 Q 578 -377 630 -437 Q 683 -497 732 -557 Q 782 -618 825 -667 Q 868 -717 892 -742 Q 943 -795 1013 -866 Q 1083 -937 1159 -1000 Q 1236 -1063 1314 -1107 Q 1392 -1152 1457 -1152 Q 1527 -1152 1574 -1105 Q 1621 -1058 1648 -1007 Q 1648 -1002 1627 -992 Q 1607 -983 1570 -939 Q 1532 -891 1485 -805 Q 1438 -720 1393 -621 Q 1349 -523 1319 -420 Q 1290 -317 1290 -233 Q 1290 -166 1307 -147 Q 1325 -128 1357 -128 Q 1387 -128 1419 -144 Q 1452 -160 1470 -160 Q 1481 -154 1488 -135 Q 1495 -116 1495 -102 Q 1473 -85 1443 -67 Q 1414 -50 1381 -35 Q 1349 -20 1318 -10 Q 1288 0 1263 0 Q 1185 0 1135 -23 Q 1086 -46 1058 -83 Q 1030 -121 1019 -173 Q 1008 -226 1008 -285 Q 1008 -317 1013 -357 Q 1019 -397 1035 -452 Q 1051 -508 1080 -584 Q 1110 -661 1156 -768 Q 1150 -768 1083 -730 Q 1016 -693 938 -615 Q 812 -494 711 -376 Q 610 -258 505 -113 Q 446 -30 402 27 Q 358 85 325 104 Q 269 73 242 17 Q 215 -38 202 -97 Q 202 -148 216 -226 Q 231 -305 256 -401 Q 282 -497 320 -602 Q 358 -707 403 -813 Q 505 -1050 590 -1185 Q 675 -1320 696 -1331 Z"/>
		<path character="e" fill="#CAD1D8" fill-opacity="1.0" stroke="none" stroke-width="0" stroke-linecap="butt" stroke-opacity="1.0" transform="matrix(1,0,0,1,7514,0)" d="M 1223 -1120 Q 1212 -952 1164 -832 Q 1116 -712 1025 -621 Q 935 -531 806 -458 Q 677 -385 505 -317 Q 505 -301 504 -283 Q 503 -266 503 -247 Q 503 -212 508 -174 Q 513 -137 526 -104 Q 540 -72 564 -52 Q 589 -32 626 -32 Q 699 -32 769 -64 Q 839 -97 902 -144 Q 965 -191 1020 -246 Q 1075 -301 1118 -347 Q 1145 -323 1164 -301 Q 1043 -139 899 -33 Q 755 73 626 103 Q 441 81 337 -34 Q 234 -149 234 -312 Q 234 -423 265 -538 Q 296 -654 351 -761 Q 406 -868 480 -963 Q 554 -1058 638 -1128 Q 723 -1199 813 -1239 Q 903 -1280 992 -1280 Q 1116 -1263 1223 -1120 M 1038 -1030 Q 965 -1019 887 -970 Q 809 -922 740 -841 Q 672 -760 615 -652 Q 559 -544 527 -420 Q 742 -528 884 -686 Q 1027 -844 1038 -1030 Z"/>
</g>
</svg>