<svg xmlns="http://www.w3.org/2000/svg" xmlns:xlink="http://www.w3.org/1999/xlink" viewBox="0 0 11784 2919">
<title>headline</title>
<g transform="matrix(1,0,0,1,0,1920)">
  		<path character="h" fill="#CAD1D8" fill-opacity="1.0" stroke="none" stroke-width="0" stroke-linecap="butt" stroke-opacity="1.0" transform="matrix(1,0,0,1,0,0)" d="M 1625 -53 L 969 -21 L 963 -575 L 662 -575 L 643 0 L 55 0 L 105 -1845 L 730 -1817 L 690 -874 L 982 -874 L 984 -1861 L 1583 -1845 L 1625 -53 Z"/>
		<path character="e" fill="#CAD1D8" fill-opacity="1.0" stroke="none" stroke-width="0" stroke-linecap="butt" stroke-opacity="1.0" transform="matrix(1,0,0,1,1674,0)" d="M 1532 -1061 Q 1532 -946 1516 -832 Q 1292 -818 1070 -785 Q 848 -753 626 -722 Q 660 -627 733 -571 Q 806 -515 907 -515 Q 959 -515 1021 -534 Q 1084 -554 1146 -583 Q 1208 -613 1264 -647 Q 1320 -681 1361 -709 L 1298 -113 Q 1247 -74 1187 -46 Q 1127 -18 1063 -1 Q 999 16 933 24 Q 868 32 805 32 Q 675 32 567 -3 Q 459 -39 372 -103 Q 285 -167 219 -253 Q 154 -340 110 -442 Q 67 -545 44 -659 Q 22 -773 22 -890 Q 22 -1012 44 -1134 Q 67 -1256 112 -1369 Q 158 -1482 226 -1578 Q 295 -1675 387 -1747 Q 479 -1819 595 -1860 Q 711 -1901 852 -1901 Q 969 -1901 1065 -1868 Q 1162 -1836 1237 -1779 Q 1313 -1722 1368 -1643 Q 1424 -1565 1460 -1471 Q 1496 -1377 1514 -1272 Q 1532 -1168 1532 -1061 M 1007 -1129 Q 1007 -1166 999 -1204 Q 991 -1243 973 -1274 Q 956 -1306 927 -1326 Q 898 -1347 854 -1347 Q 802 -1347 762 -1318 Q 722 -1290 693 -1247 Q 664 -1205 645 -1155 Q 627 -1105 618 -1063 L 1007 -1100 L 1007 -1129 Z"/>
		<path character="a" fill="#CAD1D8" fill-opacity="1.0" stroke="none" stroke-width="0" stroke-linecap="butt" stroke-opacity="1.0" transform="matrix(1,0,0,1,3220,0)" d="M 1722 -113 L 1071 -29 L 992 -326 L 693 -326 L 627 -29 L -42 -95 L 480 -1843 L 1210 -1880 L 1722 -113 M 945 -727 L 845 -1184 L 748 -727 L 945 -727 Z"/>
		<path character="d" fill="#CAD1D8" fill-opacity="1.0" stroke="none" stroke-width="0" stroke-linecap="butt" stroke-opacity="1.0" transform="matrix(1,0,0,1,4895,0)" d="M 1554 -1042 Q 1554 -858 1507 -712 Q 1460 -567 1375 -455 Q 1290 -343 1173 -264 Q 1057 -185 917 -134 Q 778 -84 621 -60 Q 465 -37 299 -37 Q 238 -37 178 -40 Q 119 -43 58 -50 L 95 -1759 Q 239 -1805 392 -1824 Q 545 -1843 696 -1843 Q 883 -1843 1040 -1790 Q 1198 -1738 1312 -1636 Q 1427 -1534 1490 -1385 Q 1554 -1236 1554 -1042 M 662 -538 Q 740 -550 805 -586 Q 870 -622 917 -675 Q 965 -728 990 -796 Q 1016 -864 1016 -940 Q 1016 -1015 1000 -1080 Q 984 -1145 949 -1192 Q 914 -1240 856 -1268 Q 798 -1297 714 -1299 L 662 -538 Z"/>
		<path character="l" fill="#CAD1D8" fill-opacity="1.0" stroke="none" stroke-width="0" stroke-linecap="butt" stroke-opacity="1.0" transform="matrix(1,0,0,1,6505,0)" d="M 1218 -696 L 1163 -113 L 58 -26 L 100 -1901 L 782 -1901 L 685 -696 L 1218 -696 Z"/>
		<path character="i" fill="#CAD1D8" fill-opacity="1.0" stroke="none" stroke-width="0" stroke-linecap="butt" stroke-opacity="1.0" transform="matrix(1,0,0,1,7731,0)" d="M 752 -1848 L 660 -60 L 106 -32 L 54 -1811 L 752 -1848 Z"/>
		<path character="n" fill="#CAD1D8" fill-opacity="1.0" stroke="none" stroke-width="0" stroke-linecap="butt" stroke-opacity="1.0" transform="matrix(1,0,0,1,8509,0)" d="M 1696 -664 Q 1696 -516 1692 -371 Q 1689 -226 1683 -79 L 927 -92 Q 966 -324 995 -556 Q 1024 -788 1024 -1024 Q 1024 -1041 1022 -1079 Q 1021 -1117 1017 -1165 Q 1013 -1213 1006 -1263 Q 999 -1314 986 -1356 Q 974 -1398 956 -1425 Q 938 -1452 914 -1452 Q 869 -1452 838 -1425 Q 807 -1399 787 -1357 Q 767 -1316 755 -1265 Q 743 -1214 737 -1163 Q 731 -1112 729 -1066 Q 727 -1021 727 -992 Q 721 -760 717 -531 Q 713 -302 706 -68 L 37 -39 Q 63 -503 87 -961 Q 112 -1419 126 -1882 L 746 -1914 L 740 -1704 Q 777 -1748 819 -1787 Q 862 -1827 910 -1855 Q 959 -1883 1013 -1899 Q 1068 -1916 1129 -1916 Q 1240 -1916 1324 -1879 Q 1408 -1843 1468 -1780 Q 1529 -1717 1569 -1631 Q 1610 -1545 1635 -1448 Q 1660 -1351 1673 -1245 Q 1687 -1139 1691 -1037 Q 1696 -935 1696 -839 Q 1696 -743 1696 -664 Z"/>
		<path character="e" fill="#CAD1D8" fill-opacity="1.0" stroke="none" stroke-width="0" stroke-linecap="butt" stroke-opacity="1.0" transform="matrix(1,0,0,1,10248,0)" d="M 1532 -1061 Q 1532 -946 1516 -832 Q 1292 -818 1070 -785 Q 848 -753 626 -722 Q 660 -627 733 -571 Q 806 -515 907 -515 Q 959 -515 1021 -534 Q 1084 -554 1146 -583 Q 1208 -613 1264 -647 Q 1320 -681 1361 -709 L 1298 -113 Q 1247 -74 1187 -46 Q 1127 -18 1063 -1 Q 999 16 933 24 Q 868 32 805 32 Q 675 32 567 -3 Q 459 -39 372 -103 Q 285 -167 219 -253 Q 154 -340 110 -442 Q 67 -545 44 -659 Q 22 -773 22 -890 Q 22 -1012 44 -1134 Q 67 -1256 112 -1369 Q 158 -1482 226 -1578 Q 295 -1675 387 -1747 Q 479 -1819 595 -1860 Q 711 -1901 852 -1901 Q 969 -1901 1065 -1868 Q 1162 -1836 1237 -1779 Q 1313 -1722 1368 -1643 Q 1424 -1565 1460 -1471 Q 1496 -1377 1514 -1272 Q 1532 -1168 1532 -1061 M 1007 -1129 Q 1007 -1166 999 -1204 Q 991 -1243 973 -1274 Q 956 -1306 927 -1326 Q 898 -1347 854 -1347 Q 802 -1347 762 -1318 Q 722 -1290 693 -1247 Q 664 -1205 645 -1155 Q 627 -1105 618 -1063 L 1007 -1100 L 1007 -1129 Z"/>
</g>
</svg>