<svg xmlns="http://www.w3.org/2000/svg" xmlns:xlink="http://www.w3.org/1999/xlink" viewBox="0 0 10229 3546">
<title>headline</title>
<g transform="matrix(1,0,0,1,0,2624)">
  		<path character="h" fill="#CAD1D8" fill-opacity="1.0" stroke="none" stroke-width="0" stroke-linecap="butt" stroke-opacity="1.0" transform="matrix(1,0,0,1,-128,0)" d="M 1105 -885 Q 1105 -1058 1035 -1139 Q 966 -1221 849 -1221 Q 806 -1221 753 -1203 Q 700 -1185 644 -1155 Q 588 -1125 533 -1085 Q 478 -1045 431 -1000 L 431 -513 Q 431 -402 433 -318 Q 436 -235 441 -174 Q 446 -114 452 -73 Q 459 -33 467 -5 L 467 0 L 164 0 L 164 -5 Q 172 -33 179 -73 Q 186 -114 191 -174 Q 196 -235 199 -318 Q 202 -402 202 -513 L 202 -1449 Q 202 -1561 199 -1644 Q 196 -1727 191 -1787 Q 186 -1848 179 -1888 Q 172 -1929 164 -1957 L 164 -1962 L 467 -1962 L 467 -1957 Q 459 -1929 452 -1888 Q 446 -1848 441 -1787 Q 436 -1727 433 -1644 Q 431 -1561 431 -1449 L 431 -1113 Q 483 -1160 546 -1206 Q 610 -1252 678 -1289 Q 747 -1326 818 -1348 Q 889 -1370 957 -1370 Q 1059 -1370 1130 -1334 Q 1202 -1299 1247 -1241 Q 1293 -1184 1313 -1110 Q 1334 -1036 1334 -959 L 1334 -513 Q 1334 -402 1336 -318 Q 1339 -235 1344 -174 Q 1349 -114 1355 -73 Q 1362 -33 1370 -5 L 1370 0 L 1067 0 L 1067 -5 Q 1075 -33 1082 -73 Q 1089 -114 1094 -174 Q 1099 -235 1102 -318 Q 1105 -402 1105 -513 L 1105 -885 Z"/>
		<path character="e" fill="#CAD1D8" fill-opacity="1.0" stroke="none" stroke-width="0" stroke-linecap="butt" stroke-opacity="1.0" transform="matrix(1,0,0,1,1425,0)" d="M 790 24 Q 644 24 517 -22 Q 390 -68 295 -156 Q 201 -245 146 -376 Q 92 -507 92 -675 Q 92 -823 142 -949 Q 192 -1076 280 -1169 Q 368 -1263 485 -1315 Q 602 -1368 739 -1368 Q 874 -1368 989 -1321 Q 1105 -1274 1189 -1185 Q 1274 -1097 1323 -966 Q 1373 -836 1377 -669 Q 1229 -672 1080 -673 Q 932 -675 772 -675 Q 658 -675 549 -673 Q 441 -672 354 -669 Q 362 -533 397 -422 Q 432 -312 493 -234 Q 554 -156 641 -114 Q 728 -72 839 -72 Q 915 -72 982 -90 Q 1050 -108 1105 -139 Q 1160 -171 1203 -213 Q 1247 -256 1277 -306 L 1293 -298 L 1196 -64 Q 1125 -28 1026 -2 Q 928 24 790 24 M 616 -777 Q 747 -777 879 -777 Q 1011 -778 1118 -782 Q 1106 -896 1073 -987 Q 1041 -1078 989 -1141 Q 938 -1204 868 -1238 Q 799 -1272 715 -1272 Q 639 -1272 575 -1238 Q 512 -1205 464 -1142 Q 417 -1079 388 -987 Q 360 -896 354 -780 Q 413 -777 479 -777 Q 545 -777 616 -777 Z"/>
		<path character="a" fill="#CAD1D8" fill-opacity="1.0" stroke="none" stroke-width="0" stroke-linecap="butt" stroke-opacity="1.0" transform="matrix(1,0,0,1,2913,0)" d="M 97 -387 Q 97 -491 139 -567 Q 182 -643 253 -697 Q 324 -751 414 -784 Q 505 -818 602 -837 Q 700 -856 794 -863 Q 889 -870 967 -872 L 967 -938 Q 967 -1025 945 -1088 Q 923 -1151 882 -1192 Q 841 -1234 784 -1254 Q 727 -1274 659 -1274 Q 612 -1274 566 -1266 Q 520 -1259 470 -1240 Q 421 -1222 366 -1190 Q 312 -1159 249 -1110 L 236 -1118 L 326 -1303 Q 369 -1323 411 -1335 Q 453 -1348 496 -1356 Q 539 -1364 584 -1367 Q 630 -1370 680 -1370 Q 818 -1370 915 -1336 Q 1013 -1303 1075 -1245 Q 1138 -1187 1167 -1108 Q 1196 -1030 1196 -941 L 1196 -513 Q 1196 -402 1199 -318 Q 1202 -235 1206 -174 Q 1211 -114 1218 -73 Q 1226 -33 1234 -5 L 1234 0 L 944 0 L 944 -5 Q 950 -26 953 -52 Q 957 -79 959 -116 Q 932 -92 894 -67 Q 857 -42 809 -21 Q 761 -1 702 11 Q 644 24 575 24 Q 347 24 222 -83 Q 97 -190 97 -387 M 967 -769 Q 848 -768 737 -755 Q 627 -743 542 -703 Q 458 -664 407 -591 Q 357 -518 357 -398 Q 357 -243 434 -161 Q 512 -80 648 -80 Q 711 -80 763 -98 Q 815 -116 855 -142 Q 895 -169 922 -201 Q 950 -234 965 -264 Q 967 -314 967 -375 Q 967 -436 967 -513 L 967 -769 Z"/>
		<path character="d" fill="#CAD1D8" fill-opacity="1.0" stroke="none" stroke-width="0" stroke-linecap="butt" stroke-opacity="1.0" transform="matrix(1,0,0,1,4338,0)" d="M 801 -1368 Q 854 -1368 908 -1358 Q 962 -1349 1013 -1332 Q 1064 -1315 1110 -1290 Q 1156 -1265 1193 -1234 L 1193 -1449 Q 1193 -1561 1190 -1644 Q 1188 -1727 1182 -1787 Q 1177 -1848 1170 -1888 Q 1164 -1929 1156 -1957 L 1156 -1962 L 1460 -1962 L 1460 -1957 Q 1452 -1929 1444 -1888 Q 1437 -1848 1432 -1787 Q 1428 -1727 1424 -1644 Q 1421 -1561 1421 -1449 L 1421 -513 Q 1421 -402 1424 -318 Q 1428 -235 1432 -174 Q 1437 -114 1444 -73 Q 1452 -33 1460 -5 L 1460 0 L 1169 0 L 1169 -5 Q 1173 -16 1176 -36 Q 1179 -56 1183 -87 Q 1116 -45 1015 -10 Q 914 24 780 24 Q 623 24 496 -25 Q 369 -74 279 -164 Q 189 -255 140 -384 Q 92 -513 92 -675 Q 92 -823 144 -949 Q 197 -1076 291 -1169 Q 386 -1263 516 -1315 Q 646 -1368 801 -1368 M 1193 -1003 Q 1141 -1141 1043 -1206 Q 945 -1272 823 -1272 Q 721 -1272 634 -1236 Q 547 -1200 485 -1131 Q 424 -1063 389 -964 Q 354 -865 354 -739 Q 354 -597 385 -475 Q 417 -353 478 -263 Q 539 -173 630 -122 Q 721 -72 839 -72 Q 900 -72 954 -86 Q 1008 -101 1052 -123 Q 1097 -146 1131 -173 Q 1166 -200 1188 -226 Q 1190 -282 1191 -354 Q 1193 -427 1193 -513 L 1193 -1003 Z"/>
		<path character="l" fill="#CAD1D8" fill-opacity="1.0" stroke="none" stroke-width="0" stroke-linecap="butt" stroke-opacity="1.0" transform="matrix(1,0,0,1,5955,0)" d="M 210 -1449 Q 210 -1561 206 -1644 Q 203 -1727 198 -1787 Q 194 -1848 187 -1888 Q 180 -1929 172 -1957 L 172 -1962 L 475 -1962 L 475 -1957 Q 467 -1929 460 -1888 Q 454 -1848 449 -1787 Q 444 -1727 441 -1644 Q 438 -1561 438 -1449 L 438 -513 Q 438 -402 441 -318 Q 444 -235 449 -174 Q 454 -114 460 -73 Q 467 -33 475 -5 L 475 0 L 172 0 L 172 -5 Q 180 -33 187 -73 Q 194 -114 198 -174 Q 203 -235 206 -318 Q 210 -402 210 -513 L 210 -1449 Z"/>
		<path character="i" fill="#CAD1D8" fill-opacity="1.0" stroke="none" stroke-width="0" stroke-linecap="butt" stroke-opacity="1.0" transform="matrix(1,0,0,1,6611,0)" d="M 210 -831 Q 210 -942 206 -1025 Q 203 -1109 198 -1169 Q 194 -1230 187 -1270 Q 180 -1311 172 -1339 L 172 -1344 L 475 -1344 L 475 -1339 Q 467 -1311 460 -1270 Q 454 -1230 449 -1169 Q 444 -1109 441 -1025 Q 438 -942 438 -831 L 438 -513 Q 438 -402 441 -318 Q 444 -235 449 -174 Q 454 -114 460 -73 Q 467 -33 475 -5 L 475 0 L 172 0 L 172 -5 Q 180 -33 187 -73 Q 194 -114 198 -174 Q 203 -235 206 -318 Q 210 -402 210 -513 L 210 -831 M 182 -1742 Q 182 -1771 193 -1796 Q 205 -1822 223 -1841 Q 242 -1860 267 -1871 Q 293 -1882 323 -1882 Q 353 -1882 378 -1871 Q 404 -1860 423 -1841 Q 442 -1822 453 -1796 Q 465 -1771 465 -1742 Q 465 -1681 424 -1640 Q 383 -1600 323 -1600 Q 293 -1600 267 -1611 Q 242 -1622 223 -1641 Q 205 -1660 193 -1686 Q 182 -1712 182 -1742 Z"/>
		<path character="n" fill="#CAD1D8" fill-opacity="1.0" stroke="none" stroke-width="0" stroke-linecap="butt" stroke-opacity="1.0" transform="matrix(1,0,0,1,7268,0)" d="M 1105 -885 Q 1105 -1058 1035 -1139 Q 966 -1221 849 -1221 Q 807 -1221 754 -1203 Q 702 -1185 647 -1155 Q 592 -1126 537 -1086 Q 482 -1047 433 -1003 L 431 -831 L 431 -513 Q 431 -402 433 -318 Q 436 -235 441 -174 Q 446 -114 452 -73 Q 459 -33 467 -5 L 467 0 L 164 0 L 164 -5 Q 172 -33 179 -73 Q 186 -114 191 -174 Q 196 -235 199 -318 Q 202 -402 202 -513 L 202 -831 Q 202 -942 199 -1025 Q 196 -1109 191 -1169 Q 186 -1230 179 -1270 Q 172 -1311 164 -1339 L 164 -1344 L 467 -1344 L 467 -1339 Q 457 -1306 451 -1255 Q 445 -1205 438 -1124 Q 492 -1168 554 -1212 Q 617 -1257 684 -1292 Q 751 -1327 820 -1348 Q 890 -1370 957 -1370 Q 1059 -1370 1130 -1334 Q 1202 -1299 1247 -1241 Q 1293 -1184 1313 -1110 Q 1334 -1036 1334 -959 L 1334 -513 Q 1334 -402 1336 -318 Q 1339 -235 1344 -174 Q 1349 -114 1355 -73 Q 1362 -33 1370 -5 L 1370 0 L 1067 0 L 1067 -5 Q 1075 -33 1082 -73 Q 1089 -114 1094 -174 Q 1099 -235 1102 -318 Q 1105 -402 1105 -513 L 1105 -885 Z"/>
		<path character="e" fill="#CAD1D8" fill-opacity="1.0" stroke="none" stroke-width="0" stroke-linecap="butt" stroke-opacity="1.0" transform="matrix(1,0,0,1,8820,0)" d="M 790 24 Q 644 24 517 -22 Q 390 -68 295 -156 Q 201 -245 146 -376 Q 92 -507 92 -675 Q 92 -823 142 -949 Q 192 -1076 280 -1169 Q 368 -1263 485 -1315 Q 602 -1368 739 -1368 Q 874 -1368 989 -1321 Q 1105 -1274 1189 -1185 Q 1274 -1097 1323 -966 Q 1373 -836 1377 -669 Q 1229 -672 1080 -673 Q 932 -675 772 -675 Q 658 -675 549 -673 Q 441 -672 354 -669 Q 362 -533 397 -422 Q 432 -312 493 -234 Q 554 -156 641 -114 Q 728 -72 839 -72 Q 915 -72 982 -90 Q 1050 -108 1105 -139 Q 1160 -171 1203 -213 Q 1247 -256 1277 -306 L 1293 -298 L 1196 -64 Q 1125 -28 1026 -2 Q 928 24 790 24 M 616 -777 Q 747 -777 879 -777 Q 1011 -778 1118 -782 Q 1106 -896 1073 -987 Q 1041 -1078 989 -1141 Q 938 -1204 868 -1238 Q 799 -1272 715 -1272 Q 639 -1272 575 -1238 Q 512 -1205 464 -1142 Q 417 -1079 388 -987 Q 360 -896 354 -780 Q 413 -777 479 -777 Q 545 -777 616 -777 Z"/>
</g>
</svg>