<svg xmlns="http://www.w3.org/2000/svg" xmlns:xlink="http://www.w3.org/1999/xlink" viewBox="0 0 11280 4084">
<title>headline</title>
<g transform="matrix(1,0,0,1,0,3008)">
  		<path character="h" fill="#CAD1D8" fill-opacity="1.0" stroke="none" stroke-width="0" stroke-linecap="butt" stroke-opacity="1.0" transform="matrix(1,0,0,1,64,0)" d="M 1344 -255 Q 1349 -186 1328 -141 Q 1307 -97 1270 -65 Q 1234 -34 1186 -15 Q 1139 3 1095 18 Q 1074 5 1054 -9 Q 1034 -24 1008 -32 Q 974 -95 942 -143 Q 911 -192 914 -255 Q 914 -257 917 -283 Q 921 -310 928 -341 Q 935 -373 938 -400 Q 942 -428 942 -431 Q 882 -425 816 -404 Q 751 -383 689 -354 Q 627 -326 573 -297 Q 520 -268 486 -247 Q 486 -239 475 -209 Q 465 -179 449 -146 Q 433 -113 414 -86 Q 396 -60 378 -60 Q 381 -53 386 -45 Q 391 -37 386 -24 Q 349 -13 320 4 Q 291 21 259 33 Q 228 45 191 45 Q 155 45 105 18 Q 105 3 92 -9 Q 79 -21 64 -30 Q 50 -39 39 -46 Q 29 -53 29 -58 Q 16 -55 18 -76 Q 21 -97 39 -87 Q 11 -123 4 -151 Q -3 -179 -26 -221 Q -21 -226 -17 -239 Q -13 -252 -10 -262 Q -8 -273 -2 -278 Q 3 -284 11 -276 Q 5 -299 10 -315 Q 16 -331 21 -344 Q 26 -357 29 -370 Q 32 -383 21 -399 Q 63 -457 76 -524 Q 89 -591 92 -646 Q 110 -664 124 -698 Q 139 -732 147 -767 Q 155 -803 153 -836 Q 152 -869 144 -890 Q 147 -903 173 -898 Q 189 -984 195 -1093 Q 202 -1202 218 -1300 Q 234 -1399 270 -1474 Q 307 -1549 389 -1572 Q 404 -1517 429 -1475 Q 454 -1433 484 -1395 Q 515 -1357 545 -1317 Q 575 -1278 601 -1229 Q 599 -1179 591 -1113 Q 583 -1047 571 -979 Q 559 -911 547 -848 Q 536 -785 525 -740 Q 528 -727 539 -724 Q 551 -722 543 -701 Q 606 -717 674 -730 Q 743 -743 811 -758 Q 879 -774 943 -794 Q 1008 -814 1063 -843 Q 1076 -945 1097 -1047 Q 1118 -1150 1103 -1257 Q 1116 -1268 1123 -1283 Q 1131 -1299 1150 -1305 Q 1137 -1355 1139 -1410 Q 1142 -1465 1159 -1515 Q 1176 -1565 1209 -1600 Q 1242 -1635 1289 -1646 Q 1318 -1604 1339 -1555 Q 1360 -1507 1382 -1458 Q 1404 -1410 1429 -1366 Q 1454 -1323 1494 -1292 Q 1502 -1215 1505 -1134 Q 1509 -1053 1512 -969 Q 1491 -869 1466 -776 Q 1441 -683 1431 -578 Q 1412 -557 1401 -530 Q 1391 -504 1380 -476 Q 1370 -449 1357 -424 Q 1344 -399 1326 -381 Q 1336 -349 1329 -321 Q 1323 -294 1344 -255 Z"/>
		<path character="e" fill="#CAD1D8" fill-opacity="1.0" stroke="none" stroke-width="0" stroke-linecap="butt" stroke-opacity="1.0" transform="matrix(1,0,0,1,1620,0)" d="M 1465 -1478 Q 1467 -1460 1466 -1450 Q 1465 -1441 1463 -1433 Q 1462 -1425 1462 -1416 Q 1462 -1407 1467 -1389 Q 1412 -1299 1340 -1266 Q 1268 -1234 1184 -1219 Q 1100 -1205 1012 -1189 Q 924 -1173 837 -1121 Q 803 -1134 775 -1121 Q 748 -1108 696 -1113 Q 680 -1097 656 -1090 Q 633 -1084 609 -1076 Q 620 -1053 618 -1028 Q 617 -1003 625 -987 Q 717 -979 828 -989 Q 940 -1000 1047 -1003 Q 1050 -990 1045 -986 Q 1040 -982 1042 -971 Q 1061 -958 1079 -938 Q 1097 -919 1115 -900 Q 1134 -882 1153 -870 Q 1173 -858 1200 -861 Q 1210 -840 1214 -815 Q 1218 -790 1208 -764 Q 1166 -735 1124 -705 Q 1082 -675 1036 -651 Q 990 -627 938 -613 Q 887 -599 824 -601 Q 811 -601 804 -601 Q 798 -601 788 -609 Q 767 -596 728 -601 Q 690 -606 669 -593 Q 641 -606 600 -605 Q 559 -604 528 -614 Q 486 -559 451 -496 Q 417 -433 391 -362 Q 480 -349 539 -351 Q 599 -354 651 -361 Q 704 -368 759 -374 Q 814 -381 898 -378 Q 950 -407 1022 -416 Q 1095 -425 1155 -446 Q 1176 -438 1192 -418 Q 1208 -399 1222 -382 Q 1236 -365 1252 -352 Q 1268 -339 1292 -341 Q 1302 -331 1306 -316 Q 1310 -302 1312 -289 Q 1315 -276 1321 -266 Q 1328 -257 1344 -260 Q 1305 -173 1253 -127 Q 1202 -81 1136 -57 Q 1071 -34 991 -21 Q 911 -8 814 11 Q 790 16 774 9 Q 759 3 738 3 Q 677 16 593 26 Q 509 37 422 34 Q 336 32 257 12 Q 179 -8 129 -58 Q 108 -76 101 -101 Q 95 -126 66 -139 Q 63 -173 55 -215 Q 47 -257 39 -303 Q 32 -349 28 -393 Q 24 -438 32 -475 Q 39 -515 64 -546 Q 89 -578 81 -614 Q 95 -617 97 -629 Q 100 -641 118 -638 Q 134 -685 152 -727 Q 171 -769 190 -808 Q 210 -848 229 -888 Q 249 -929 268 -979 Q 231 -1013 214 -1054 Q 197 -1095 189 -1135 Q 181 -1176 176 -1219 Q 171 -1263 158 -1307 Q 184 -1347 222 -1372 Q 260 -1397 304 -1412 Q 349 -1428 401 -1438 Q 454 -1449 512 -1462 Q 617 -1496 699 -1514 Q 782 -1533 862 -1545 Q 942 -1557 1029 -1567 Q 1116 -1578 1226 -1599 Q 1250 -1575 1271 -1575 Q 1281 -1599 1295 -1589 Q 1310 -1580 1307 -1604 Q 1334 -1559 1374 -1529 Q 1415 -1499 1465 -1478 Z"/>
		<path character="a" fill="#CAD1D8" fill-opacity="1.0" stroke="none" stroke-width="0" stroke-linecap="butt" stroke-opacity="1.0" transform="matrix(1,0,0,1,3049,0)" d="M 1389 -221 Q 1373 -176 1343 -130 Q 1313 -84 1272 -48 Q 1231 -13 1181 10 Q 1131 34 1076 37 Q 1042 29 1030 20 Q 1019 11 1005 3 Q 998 -3 991 -7 Q 984 -11 979 -13 L 948 -26 L 958 -60 Q 963 -81 955 -93 Q 948 -105 924 -126 Q 916 -134 908 -142 Q 900 -150 895 -158 L 851 -207 L 921 -226 Q 987 -244 1009 -273 Q 1032 -302 1026 -370 Q 974 -381 938 -373 Q 903 -365 866 -354 Q 819 -341 770 -332 Q 722 -323 664 -323 Q 643 -323 624 -324 Q 606 -326 585 -328 L 559 -333 Q 554 -362 548 -366 Q 543 -370 538 -375 Q 525 -389 510 -411 Q 496 -433 504 -467 Q 491 -491 488 -515 Q 473 -483 465 -449 L 454 -423 L 428 -417 Q 423 -415 420 -405 Q 417 -396 417 -391 L 404 -347 Q 399 -341 394 -337 Q 389 -333 383 -328 Q 378 -305 370 -281 Q 362 -257 354 -236 Q 341 -202 332 -169 Q 323 -137 326 -105 L 315 -76 Q 302 -60 286 -51 Q 270 -42 255 -34 Q 249 -29 240 -25 Q 231 -21 226 -18 L 218 11 L 186 16 Q 158 21 146 23 Q 134 26 118 26 L 92 24 Q 63 0 47 -14 Q 32 -29 11 -42 Q -13 -74 -15 -89 Q -18 -105 -21 -118 Q -26 -134 -27 -144 Q -29 -155 -34 -160 L -68 -192 L -39 -215 L -37 -260 Q 16 -394 75 -517 Q 134 -641 197 -769 Q 218 -811 237 -853 Q 257 -895 278 -937 Q 276 -945 276 -955 Q 276 -966 281 -979 Q 310 -1024 328 -1059 Q 347 -1095 365 -1131 Q 386 -1176 408 -1218 Q 431 -1260 465 -1305 L 507 -1323 Q 515 -1326 525 -1330 Q 536 -1334 549 -1334 L 588 -1328 Q 662 -1362 717 -1424 Q 772 -1486 830 -1572 L 856 -1609 L 890 -1588 Q 903 -1580 926 -1573 Q 950 -1567 977 -1559 Q 1024 -1549 1066 -1536 Q 1108 -1523 1134 -1496 Q 1150 -1454 1152 -1433 Q 1155 -1412 1160 -1391 Q 1168 -1347 1174 -1302 Q 1181 -1257 1184 -1202 Q 1197 -1158 1206 -1114 Q 1215 -1071 1223 -1026 Q 1236 -963 1249 -904 Q 1263 -845 1284 -793 Q 1305 -793 1310 -790 Q 1323 -795 1337 -798 Q 1352 -801 1370 -803 L 1399 -806 L 1410 -780 Q 1412 -767 1436 -753 Q 1470 -751 1486 -739 Q 1502 -727 1515 -714 Q 1525 -704 1536 -698 L 1575 -683 L 1554 -643 Q 1528 -596 1479 -552 Q 1431 -509 1370 -480 Q 1373 -465 1374 -450 Q 1376 -436 1381 -420 Q 1389 -375 1394 -328 Q 1399 -281 1394 -231 L 1389 -221 M 630 -675 Q 709 -680 773 -686 Q 837 -693 916 -709 Q 898 -788 877 -873 Q 856 -958 832 -1042 L 816 -1016 Q 764 -961 715 -892 Q 667 -824 633 -764 Q 617 -740 601 -716 Q 585 -693 572 -669 Q 588 -672 602 -672 Q 617 -672 630 -675 Z"/>
		<path character="d" fill="#CAD1D8" fill-opacity="1.0" stroke="none" stroke-width="0" stroke-linecap="butt" stroke-opacity="1.0" transform="matrix(1,0,0,1,4605,0)" d="M 1294 -709 Q 1292 -696 1289 -686 Q 1286 -677 1283 -669 Q 1281 -662 1281 -650 Q 1281 -638 1281 -620 Q 1202 -480 1082 -385 Q 963 -291 820 -219 Q 677 -147 522 -88 Q 368 -29 221 39 Q 158 24 125 -13 Q 92 -50 75 -98 Q 58 -147 51 -206 Q 45 -265 39 -328 Q 47 -357 61 -376 Q 76 -396 76 -433 Q 97 -501 118 -567 Q 139 -633 144 -701 Q 152 -722 173 -730 Q 186 -856 174 -986 Q 163 -1116 131 -1229 Q 134 -1255 138 -1266 Q 142 -1278 137 -1284 Q 134 -1305 151 -1305 Q 168 -1305 186 -1305 Q 186 -1344 172 -1383 Q 158 -1423 144 -1473 Q 163 -1512 168 -1550 Q 173 -1588 192 -1617 Q 333 -1572 463 -1509 Q 593 -1446 719 -1418 Q 814 -1349 913 -1282 Q 1013 -1215 1094 -1135 Q 1176 -1055 1231 -953 Q 1286 -851 1294 -709 M 672 -564 Q 727 -585 781 -609 Q 835 -633 881 -663 Q 927 -693 963 -732 Q 1000 -772 1024 -827 Q 1008 -858 982 -883 Q 956 -908 929 -930 Q 903 -953 878 -976 Q 853 -1000 837 -1034 Q 803 -1040 777 -1054 Q 751 -1068 726 -1082 Q 701 -1097 673 -1110 Q 646 -1124 609 -1126 Q 551 -1155 505 -1168 Q 459 -1181 436 -1202 Q 417 -1202 407 -1194 Q 433 -1095 446 -1007 Q 459 -919 460 -831 Q 462 -743 451 -651 Q 441 -559 423 -452 Q 449 -454 471 -463 Q 494 -473 516 -483 Q 538 -494 563 -503 Q 588 -512 622 -515 Q 630 -530 644 -540 Q 659 -551 672 -564 Z"/>
		<path character="l" fill="#CAD1D8" fill-opacity="1.0" stroke="none" stroke-width="0" stroke-linecap="butt" stroke-opacity="1.0" transform="matrix(1,0,0,1,5970,0)" d="M 693 -29 Q 620 -5 533 18 Q 446 42 360 42 Q 228 42 152 -24 Q 139 -53 129 -63 Q 121 -74 114 -85 Q 108 -97 105 -118 Q 74 -155 55 -203 Q 37 -252 30 -303 Q 24 -354 28 -406 Q 32 -459 45 -507 Q 50 -517 51 -527 Q 53 -538 55 -551 Q 66 -593 77 -632 Q 89 -672 110 -701 Q 100 -725 110 -753 Q 121 -782 134 -806 Q 171 -906 196 -975 Q 221 -1045 247 -1113 Q 291 -1231 330 -1346 Q 370 -1462 402 -1596 Q 423 -1609 433 -1614 Q 449 -1620 459 -1622 Q 507 -1599 570 -1576 Q 633 -1554 675 -1554 Q 696 -1541 701 -1534 Q 706 -1528 711 -1523 Q 740 -1488 761 -1453 Q 782 -1418 774 -1360 Q 759 -1336 751 -1336 Q 738 -1284 723 -1247 Q 709 -1210 693 -1173 Q 675 -1134 659 -1094 Q 643 -1055 633 -998 Q 622 -984 618 -973 Q 614 -963 609 -950 Q 604 -937 597 -922 Q 591 -908 578 -898 Q 570 -830 553 -788 Q 536 -746 517 -704 Q 486 -627 461 -551 Q 436 -475 431 -378 Q 444 -383 455 -383 Q 467 -383 478 -383 Q 501 -383 533 -375 Q 612 -417 705 -425 Q 798 -433 890 -436 Q 927 -436 963 -436 Q 1000 -436 1032 -441 Q 1055 -428 1061 -426 Q 1068 -425 1082 -425 Q 1100 -425 1113 -423 Q 1145 -394 1173 -381 Q 1202 -368 1234 -357 Q 1263 -347 1290 -335 Q 1318 -323 1344 -302 L 1362 -189 Q 1381 -165 1378 -158 Q 1378 -137 1368 -126 L 1373 -97 Q 1334 -89 1319 -78 Q 1305 -68 1292 -55 Q 1271 -53 1261 -53 Q 1252 -53 1244 -53 Q 1208 -53 1155 -39 Q 1084 -63 1008 -63 Q 979 -63 947 -60 Q 916 -58 885 -55 Q 853 -50 820 -47 Q 788 -45 753 -45 L 693 -29 Z"/>
		<path character="i" fill="#CAD1D8" fill-opacity="1.0" stroke="none" stroke-width="0" stroke-linecap="butt" stroke-opacity="1.0" transform="matrix(1,0,0,1,7398,0)" d="M 557 -184 Q 570 -105 547 -60 Q 525 -16 484 6 Q 444 29 391 31 Q 339 34 291 26 Q 265 -11 244 -66 Q 223 -121 204 -180 Q 186 -239 172 -296 Q 158 -354 147 -399 Q 160 -431 164 -471 Q 168 -512 169 -554 Q 171 -596 172 -639 Q 173 -683 179 -722 Q 197 -832 232 -932 Q 268 -1032 289 -1139 Q 294 -1163 285 -1184 Q 276 -1205 281 -1223 Q 284 -1234 297 -1238 Q 310 -1242 312 -1255 Q 320 -1284 316 -1302 Q 312 -1320 326 -1347 Q 339 -1368 358 -1408 Q 378 -1449 373 -1494 Q 396 -1509 417 -1530 Q 438 -1551 460 -1568 Q 483 -1586 510 -1599 Q 538 -1612 578 -1612 Q 599 -1586 605 -1554 Q 612 -1523 618 -1491 Q 625 -1460 638 -1432 Q 651 -1404 683 -1389 Q 683 -1368 683 -1336 Q 683 -1305 685 -1274 Q 688 -1244 697 -1219 Q 706 -1194 727 -1187 Q 680 -1061 639 -937 Q 599 -814 572 -689 Q 546 -564 539 -438 Q 533 -312 557 -184 Z"/>
		<path character="n" fill="#CAD1D8" fill-opacity="1.0" stroke="none" stroke-width="0" stroke-linecap="butt" stroke-opacity="1.0" transform="matrix(1,0,0,1,8251,0)" d="M 538 -478 Q 515 -473 504 -450 Q 494 -428 484 -404 Q 475 -381 466 -361 Q 457 -341 438 -341 Q 436 -320 424 -304 Q 412 -289 401 -272 Q 391 -255 386 -235 Q 381 -215 391 -189 Q 370 -173 365 -144 Q 360 -116 353 -89 Q 347 -63 331 -44 Q 315 -26 273 -29 Q 265 -18 270 -15 Q 276 -13 278 3 Q 249 -3 235 6 Q 221 16 200 18 Q 150 3 117 -36 Q 84 -76 59 -124 Q 34 -173 14 -223 Q -5 -273 -24 -310 Q -16 -339 -21 -366 Q -26 -394 -39 -412 Q 89 -685 241 -995 Q 394 -1305 530 -1607 Q 591 -1583 650 -1553 Q 709 -1523 757 -1483 Q 806 -1444 840 -1392 Q 874 -1341 885 -1278 Q 879 -1263 872 -1267 Q 866 -1271 861 -1263 Q 872 -1250 873 -1244 Q 874 -1239 873 -1234 Q 872 -1229 872 -1219 Q 872 -1210 879 -1194 Q 869 -1197 865 -1192 Q 861 -1187 848 -1192 Q 858 -1163 854 -1144 Q 851 -1126 843 -1111 Q 835 -1097 829 -1080 Q 824 -1063 832 -1037 Q 824 -1037 820 -1033 Q 816 -1029 813 -1025 Q 811 -1021 807 -1017 Q 803 -1013 795 -1016 Q 803 -958 800 -900 Q 798 -843 796 -784 Q 795 -725 798 -660 Q 801 -596 816 -528 Q 911 -583 967 -669 Q 1024 -756 1059 -863 Q 1095 -971 1113 -1094 Q 1131 -1218 1152 -1347 Q 1176 -1370 1189 -1404 Q 1202 -1439 1212 -1477 Q 1223 -1515 1233 -1553 Q 1244 -1591 1260 -1622 Q 1299 -1617 1327 -1597 Q 1355 -1578 1378 -1555 Q 1402 -1533 1428 -1513 Q 1454 -1494 1494 -1488 Q 1525 -1444 1551 -1402 Q 1578 -1360 1586 -1313 Q 1572 -1292 1565 -1265 Q 1559 -1239 1551 -1213 Q 1544 -1187 1530 -1164 Q 1517 -1142 1494 -1126 Q 1486 -1058 1474 -1001 Q 1462 -945 1450 -890 Q 1439 -835 1431 -776 Q 1423 -717 1425 -646 Q 1404 -585 1380 -517 Q 1357 -449 1344 -394 Q 1302 -360 1278 -312 Q 1255 -265 1229 -218 Q 1218 -207 1215 -212 Q 1213 -218 1197 -221 Q 1200 -210 1197 -205 Q 1194 -200 1190 -196 Q 1187 -192 1185 -184 Q 1184 -176 1189 -163 Q 1152 -147 1123 -118 Q 1095 -89 1062 -65 Q 1029 -42 983 -34 Q 937 -26 864 -53 Q 756 -131 673 -233 Q 591 -336 538 -478 Z"/>
		<path character="e" fill="#CAD1D8" fill-opacity="1.0" stroke="none" stroke-width="0" stroke-linecap="butt" stroke-opacity="1.0" transform="matrix(1,0,0,1,9807,0)" d="M 1465 -1478 Q 1467 -1460 1466 -1450 Q 1465 -1441 1463 -1433 Q 1462 -1425 1462 -1416 Q 1462 -1407 1467 -1389 Q 1412 -1299 1340 -1266 Q 1268 -1234 1184 -1219 Q 1100 -1205 1012 -1189 Q 924 -1173 837 -1121 Q 803 -1134 775 -1121 Q 748 -1108 696 -1113 Q 680 -1097 656 -1090 Q 633 -1084 609 -1076 Q 620 -1053 618 -1028 Q 617 -1003 625 -987 Q 717 -979 828 -989 Q 940 -1000 1047 -1003 Q 1050 -990 1045 -986 Q 1040 -982 1042 -971 Q 1061 -958 1079 -938 Q 1097 -919 1115 -900 Q 1134 -882 1153 -870 Q 1173 -858 1200 -861 Q 1210 -840 1214 -815 Q 1218 -790 1208 -764 Q 1166 -735 1124 -705 Q 1082 -675 1036 -651 Q 990 -627 938 -613 Q 887 -599 824 -601 Q 811 -601 804 -601 Q 798 -601 788 -609 Q 767 -596 728 -601 Q 690 -606 669 -593 Q 641 -606 600 -605 Q 559 -604 528 -614 Q 486 -559 451 -496 Q 417 -433 391 -362 Q 480 -349 539 -351 Q 599 -354 651 -361 Q 704 -368 759 -374 Q 814 -381 898 -378 Q 950 -407 1022 -416 Q 1095 -425 1155 -446 Q 1176 -438 1192 -418 Q 1208 -399 1222 -382 Q 1236 -365 1252 -352 Q 1268 -339 1292 -341 Q 1302 -331 1306 -316 Q 1310 -302 1312 -289 Q 1315 -276 1321 -266 Q 1328 -257 1344 -260 Q 1305 -173 1253 -127 Q 1202 -81 1136 -57 Q 1071 -34 991 -21 Q 911 -8 814 11 Q 790 16 774 9 Q 759 3 738 3 Q 677 16 593 26 Q 509 37 422 34 Q 336 32 257 12 Q 179 -8 129 -58 Q 108 -76 101 -101 Q 95 -126 66 -139 Q 63 -173 55 -215 Q 47 -257 39 -303 Q 32 -349 28 -393 Q 24 -438 32 -475 Q 39 -515 64 -546 Q 89 -578 81 -614 Q 95 -617 97 -629 Q 100 -641 118 -638 Q 134 -685 152 -727 Q 171 -769 190 -808 Q 210 -848 229 -888 Q 249 -929 268 -979 Q 231 -1013 214 -1054 Q 197 -1095 189 -1135 Q 181 -1176 176 -1219 Q 171 -1263 158 -1307 Q 184 -1347 222 -1372 Q 260 -1397 304 -1412 Q 349 -1428 401 -1438 Q 454 -1449 512 -1462 Q 617 -1496 699 -1514 Q 782 -1533 862 -1545 Q 942 -1557 1029 -1567 Q 1116 -1578 1226 -1599 Q 1250 -1575 1271 -1575 Q 1281 -1599 1295 -1589 Q 1310 -1580 1307 -1604 Q 1334 -1559 1374 -1529 Q 1415 -1499 1465 -1478 Z"/>
</g>
</svg>