<svg xmlns="http://www.w3.org/2000/svg" xmlns:xlink="http://www.w3.org/1999/xlink" viewBox="0 0 9882 3405">
<title>headline</title>
<g transform="matrix(1,0,0,1,0,2560)">
  		<path character="h" fill="#CAD1D8" fill-opacity="1.0" stroke="none" stroke-width="0" stroke-linecap="butt" stroke-opacity="1.0" transform="matrix(1,0,0,1,64,0)" d="M -32 576 L -32 -2432 L 1515 -2432 L 1515 576 L -32 576 M 861 38 L 1464 38 L 1464 -128 L 1259 -128 L 1259 -735 Q 1259 -972 1141 -1078 Q 1024 -1185 851 -1185 Q 565 -1185 435 -944 L 435 -1792 L 40 -1792 L 40 -1664 L 245 -1664 L 245 -128 L 40 -128 L 40 38 L 640 38 L 640 -128 L 435 -128 L 435 -685 Q 440 -815 537 -919 Q 635 -1024 789 -1024 Q 912 -1024 990 -946 Q 1069 -868 1069 -677 L 1069 -128 L 861 -128 L 861 38 Z"/>
		<path character="e" fill="#CAD1D8" fill-opacity="1.0" stroke="none" stroke-width="0" stroke-linecap="butt" stroke-opacity="1.0" transform="matrix(1,0,0,1,1549,0)" d="M -32 576 L -32 -2432 L 1275 -2432 L 1275 576 L -32 576 M 1155 -317 L 997 -350 Q 971 -250 891 -189 Q 811 -128 669 -128 Q 309 -128 293 -512 L 1128 -512 Q 1144 -589 1144 -662 Q 1141 -887 1013 -1051 Q 885 -1216 640 -1216 Q 389 -1216 242 -1035 Q 96 -854 96 -573 Q 96 -281 250 -121 Q 405 38 656 38 Q 875 38 1003 -66 Q 1131 -170 1155 -317 M 947 -640 L 296 -640 Q 315 -796 392 -910 Q 469 -1024 635 -1024 Q 808 -1024 884 -901 Q 960 -779 947 -640 Z"/>
		<path character="a" fill="#CAD1D8" fill-opacity="1.0" stroke="none" stroke-width="0" stroke-linecap="butt" stroke-opacity="1.0" transform="matrix(1,0,0,1,2778,0)" d="M -32 576 L -32 -2432 L 1310 -2432 L 1310 576 L -32 576 M 211 -1091 L 168 -791 L 323 -773 L 368 -976 Q 467 -1024 597 -1024 Q 757 -1024 812 -945 Q 867 -867 867 -741 L 867 -636 Q 819 -640 764 -640 Q 709 -640 656 -640 Q 456 -640 278 -571 Q 101 -503 101 -285 Q 101 -102 222 -32 Q 344 38 461 38 Q 605 38 708 -44 Q 811 -126 867 -231 L 867 -225 Q 872 38 1083 38 Q 1165 38 1237 -6 L 1235 -145 Q 1200 -128 1155 -128 Q 1053 -128 1053 -256 L 1053 -820 Q 1053 -1216 629 -1216 Q 512 -1216 408 -1187 Q 304 -1158 211 -1091 M 867 -466 Q 856 -310 748 -219 Q 640 -128 517 -128 Q 440 -128 368 -173 Q 296 -219 296 -341 Q 296 -488 404 -532 Q 512 -576 645 -576 Q 704 -576 760 -576 Q 816 -576 867 -576 L 867 -466 Z"/>
		<path character="d" fill="#CAD1D8" fill-opacity="1.0" stroke="none" stroke-width="0" stroke-linecap="butt" stroke-opacity="1.0" transform="matrix(1,0,0,1,4070,0)" d="M -32 576 L -32 -2432 L 1488 -2432 L 1488 576 L -32 576 M 1029 12 L 1422 12 L 1422 -147 L 1216 -147 L 1216 -1792 L 741 -1792 L 741 -1664 L 1029 -1664 L 1029 -959 Q 909 -1216 632 -1216 Q 341 -1216 218 -1008 Q 96 -800 96 -559 Q 96 -278 236 -120 Q 376 38 605 38 Q 768 38 869 -42 Q 971 -123 1029 -231 L 1029 12 M 1029 -696 L 1029 -511 Q 1024 -381 918 -254 Q 813 -128 653 -128 Q 499 -128 396 -237 Q 293 -347 293 -560 Q 293 -743 385 -883 Q 477 -1024 675 -1024 Q 816 -1024 920 -933 Q 1024 -842 1029 -696 Z"/>
		<path character="l" fill="#CAD1D8" fill-opacity="1.0" stroke="none" stroke-width="0" stroke-linecap="butt" stroke-opacity="1.0" transform="matrix(1,0,0,1,5555,0)" d="M -32 576 L -32 -2432 L 731 -2432 L 731 576 L -32 576 M 48 38 L 651 38 L 651 -128 L 443 -128 L 443 -1792 L 45 -1792 L 45 -1664 L 256 -1664 L 256 -128 L 48 -128 L 48 38 Z"/>
		<path character="i" fill="#CAD1D8" fill-opacity="1.0" stroke="none" stroke-width="0" stroke-linecap="butt" stroke-opacity="1.0" transform="matrix(1,0,0,1,6272,0)" d="M -32 576 L -32 -2432 L 771 -2432 L 771 576 L -32 576 M 275 -1728 L 275 -1472 L 477 -1472 L 477 -1728 L 275 -1728 M 85 38 L 688 38 L 688 -128 L 480 -128 L 480 -1152 L 80 -1152 L 80 -1024 L 293 -1024 L 293 -128 L 85 -128 L 85 38 Z"/>
		<path character="n" fill="#CAD1D8" fill-opacity="1.0" stroke="none" stroke-width="0" stroke-linecap="butt" stroke-opacity="1.0" transform="matrix(1,0,0,1,7053,0)" d="M -32 576 L -32 -2432 L 1552 -2432 L 1552 576 L -32 576 M 899 38 L 1499 38 L 1499 -128 L 1293 -128 L 1293 -753 Q 1293 -997 1176 -1106 Q 1059 -1216 885 -1216 Q 597 -1216 469 -960 L 469 -1192 L 69 -1192 L 69 -1024 L 283 -1024 L 283 -128 L 75 -128 L 75 38 L 677 38 L 677 -128 L 469 -128 L 469 -679 Q 475 -815 572 -919 Q 669 -1024 829 -1024 Q 949 -1024 1026 -946 Q 1104 -868 1104 -677 L 1104 -128 L 899 -128 L 899 38 Z"/>
		<path character="e" fill="#CAD1D8" fill-opacity="1.0" stroke="none" stroke-width="0" stroke-linecap="butt" stroke-opacity="1.0" transform="matrix(1,0,0,1,8602,0)" d="M -32 576 L -32 -2432 L 1275 -2432 L 1275 576 L -32 576 M 1155 -317 L 997 -350 Q 971 -250 891 -189 Q 811 -128 669 -128 Q 309 -128 293 -512 L 1128 -512 Q 1144 -589 1144 -662 Q 1141 -887 1013 -1051 Q 885 -1216 640 -1216 Q 389 -1216 242 -1035 Q 96 -854 96 -573 Q 96 -281 250 -121 Q 405 38 656 38 Q 875 38 1003 -66 Q 1131 -170 1155 -317 M 947 -640 L 296 -640 Q 315 -796 392 -910 Q 469 -1024 635 -1024 Q 808 -1024 884 -901 Q 960 -779 947 -640 Z"/>
</g>
</svg>