<svg xmlns="http://www.w3.org/2000/svg" xmlns:xlink="http://www.w3.org/1999/xlink" viewBox="0 0 12067 3469">
<title>headline</title>
<g transform="matrix(1,0,0,1,0,2624)">
  		<path character="h" fill="none" fill-opacity="1.0" stroke="#A5834B" stroke-width="20" stroke-linecap="butt" stroke-opacity="1.0" transform="matrix(1,0,0,1,0,0)" d="M 42 -1939 Q 70 -1949 119 -1957 Q 169 -1966 228 -1971 Q 287 -1977 349 -1980 Q 412 -1984 463 -1984 Q 491 -1984 512 -1983 Q 533 -1982 547 -1975 Q 562 -1969 569 -1956 Q 576 -1944 576 -1919 L 576 -1255 Q 584 -1258 611 -1269 Q 638 -1281 677 -1298 Q 717 -1315 768 -1334 Q 819 -1353 877 -1370 Q 935 -1387 996 -1397 Q 1057 -1408 1117 -1408 Q 1235 -1408 1308 -1376 Q 1382 -1345 1423 -1288 Q 1465 -1231 1479 -1153 Q 1494 -1075 1494 -983 L 1494 -128 L 1722 -128 L 1722 -47 Q 1700 -37 1661 -28 Q 1622 -20 1575 -13 Q 1528 -7 1477 -3 Q 1426 0 1378 0 Q 1338 0 1303 -4 Q 1269 -9 1243 -23 Q 1218 -37 1203 -61 Q 1189 -85 1189 -126 L 1189 -967 Q 1189 -1034 1182 -1081 Q 1175 -1128 1154 -1158 Q 1134 -1188 1098 -1202 Q 1063 -1216 1007 -1216 Q 951 -1216 880 -1205 Q 810 -1194 745 -1179 Q 681 -1165 633 -1152 Q 585 -1140 576 -1139 L 576 -418 Q 576 -337 580 -275 Q 585 -214 591 -168 Q 597 -122 603 -91 Q 610 -60 614 -42 Q 596 -31 572 -24 Q 548 -17 522 -11 Q 497 -5 472 -2 Q 447 0 426 0 Q 392 0 364 -6 Q 337 -12 316 -26 Q 295 -40 284 -64 Q 273 -88 273 -124 L 273 -1856 L 42 -1856 L 42 -1939 L 42 -1939 Z"/>
		<path character="e" fill="none" fill-opacity="1.0" stroke="#A5834B" stroke-width="20" stroke-linecap="butt" stroke-opacity="1.0" transform="matrix(1,0,0,1,1806,0)" d="M 1138 -768 Q 1146 -796 1148 -824 Q 1151 -853 1151 -885 Q 1151 -954 1129 -1024 Q 1108 -1095 1066 -1152 Q 1025 -1209 964 -1244 Q 903 -1280 824 -1280 Q 723 -1280 655 -1238 Q 588 -1196 545 -1125 Q 503 -1055 483 -962 Q 463 -869 458 -768 L 1138 -768 M 152 -709 Q 152 -862 202 -990 Q 253 -1118 348 -1211 Q 443 -1304 581 -1356 Q 719 -1408 894 -1408 Q 1025 -1408 1128 -1366 Q 1232 -1325 1304 -1255 Q 1377 -1186 1415 -1094 Q 1453 -1002 1453 -902 Q 1453 -856 1445 -809 Q 1437 -763 1415 -725 Q 1393 -688 1352 -664 Q 1311 -640 1246 -640 L 461 -640 Q 474 -516 522 -420 Q 571 -325 647 -259 Q 724 -194 823 -161 Q 923 -128 1039 -128 Q 1117 -128 1201 -142 Q 1285 -156 1375 -185 L 1418 -104 Q 1364 -76 1302 -56 Q 1241 -37 1175 -24 Q 1109 -12 1041 -6 Q 973 0 907 0 Q 763 0 627 -44 Q 491 -89 385 -177 Q 279 -266 215 -399 Q 152 -532 152 -709 Z"/>
		<path character="a" fill="none" fill-opacity="1.0" stroke="#A5834B" stroke-width="20" stroke-linecap="butt" stroke-opacity="1.0" transform="matrix(1,0,0,1,3420,0)" d="M 1019 -140 Q 1019 -140 1001 -128 Q 984 -117 953 -100 Q 922 -83 880 -62 Q 839 -42 790 -24 Q 741 -7 687 -3 Q 634 0 581 0 Q 495 0 417 -22 Q 340 -44 282 -90 Q 224 -137 189 -207 Q 154 -277 154 -375 Q 154 -482 204 -557 Q 255 -633 345 -680 Q 435 -727 559 -747 Q 684 -768 834 -768 L 1019 -768 L 1019 -872 Q 1019 -953 1013 -1027 Q 1007 -1102 985 -1157 Q 964 -1213 922 -1246 Q 881 -1280 812 -1280 Q 745 -1280 678 -1255 Q 611 -1230 546 -1192 Q 482 -1155 423 -1109 Q 364 -1064 315 -1024 L 208 -1167 Q 188 -1191 188 -1215 Q 188 -1258 242 -1293 Q 297 -1329 379 -1354 Q 461 -1379 555 -1393 Q 650 -1408 731 -1408 Q 852 -1408 959 -1378 Q 1067 -1349 1148 -1285 Q 1229 -1222 1276 -1120 Q 1323 -1019 1323 -875 L 1323 -128 L 1551 -128 L 1551 -47 Q 1529 -37 1490 -28 Q 1452 -20 1404 -13 Q 1357 -7 1305 -3 Q 1254 0 1206 0 Q 1175 0 1142 -4 Q 1109 -8 1082 -22 Q 1056 -36 1038 -60 Q 1020 -84 1019 -126 L 1019 -140 M 672 -192 Q 718 -192 778 -204 Q 838 -217 892 -231 Q 955 -248 1019 -272 L 1019 -640 L 798 -640 Q 748 -640 688 -631 Q 629 -622 577 -596 Q 525 -571 489 -525 Q 454 -479 454 -404 Q 454 -357 468 -318 Q 483 -280 510 -251 Q 538 -223 579 -207 Q 620 -192 672 -192 Z"/>
		<path character="d" fill="none" fill-opacity="1.0" stroke="#A5834B" stroke-width="20" stroke-linecap="butt" stroke-opacity="1.0" transform="matrix(1,0,0,1,5034,0)" d="M 1197 -1159 Q 1158 -1181 1117 -1203 Q 1076 -1225 1031 -1242 Q 986 -1259 933 -1269 Q 881 -1280 818 -1280 Q 728 -1280 664 -1236 Q 601 -1192 561 -1114 Q 521 -1036 502 -927 Q 484 -818 484 -688 Q 484 -555 507 -451 Q 531 -347 576 -275 Q 621 -203 686 -165 Q 751 -128 835 -128 Q 933 -128 1029 -172 Q 1126 -217 1197 -291 L 1197 -1159 M 1197 -1856 L 966 -1856 L 966 -1939 Q 994 -1949 1043 -1957 Q 1093 -1966 1153 -1971 Q 1213 -1977 1275 -1980 Q 1338 -1984 1389 -1984 Q 1417 -1984 1438 -1982 Q 1459 -1981 1473 -1974 Q 1488 -1968 1495 -1954 Q 1502 -1941 1502 -1916 L 1502 -128 L 1730 -128 L 1730 -47 Q 1708 -37 1669 -28 Q 1630 -20 1583 -13 Q 1536 -7 1485 -3 Q 1434 0 1386 0 Q 1346 0 1311 -5 Q 1277 -10 1251 -25 Q 1226 -40 1211 -67 Q 1197 -94 1197 -139 L 1197 -162 Q 1184 -153 1147 -126 Q 1110 -100 1054 -72 Q 999 -44 924 -22 Q 850 0 764 0 Q 626 0 514 -55 Q 403 -110 324 -205 Q 245 -301 202 -428 Q 160 -555 160 -699 Q 160 -857 196 -988 Q 232 -1119 306 -1212 Q 381 -1306 492 -1357 Q 604 -1408 753 -1408 Q 869 -1408 982 -1376 Q 1096 -1345 1197 -1272 L 1197 -1856 Z"/>
		<path character="l" fill="none" fill-opacity="1.0" stroke="#A5834B" stroke-width="20" stroke-linecap="butt" stroke-opacity="1.0" transform="matrix(1,0,0,1,6840,0)" d="M 578 -128 L 806 -128 L 806 -47 Q 784 -37 745 -28 Q 706 -20 659 -13 Q 612 -7 561 -3 Q 510 0 462 0 Q 421 0 387 -4 Q 353 -9 328 -22 Q 303 -36 288 -60 Q 274 -84 274 -124 L 274 -1856 L 42 -1856 L 42 -1939 Q 70 -1949 120 -1957 Q 171 -1966 229 -1971 Q 288 -1977 350 -1980 Q 413 -1984 465 -1984 Q 492 -1984 513 -1982 Q 535 -1981 549 -1974 Q 564 -1968 571 -1954 Q 578 -1941 578 -1916 L 578 -128 Z"/>
		<path character="i" fill="none" fill-opacity="1.0" stroke="#A5834B" stroke-width="20" stroke-linecap="butt" stroke-opacity="1.0" transform="matrix(1,0,0,1,7750,0)" d="M 622 -128 L 851 -128 L 851 -47 Q 828 -37 789 -28 Q 751 -20 703 -13 Q 656 -7 605 -3 Q 554 0 507 0 Q 466 0 432 -4 Q 398 -9 372 -23 Q 347 -38 332 -63 Q 318 -88 318 -130 L 318 -1280 L 87 -1280 L 87 -1363 Q 114 -1373 164 -1381 Q 214 -1390 274 -1395 Q 334 -1401 396 -1404 Q 458 -1408 509 -1408 Q 537 -1408 558 -1406 Q 579 -1405 593 -1398 Q 608 -1392 615 -1377 Q 622 -1363 622 -1336 L 622 -128 M 286 -1775 Q 286 -1811 300 -1844 Q 315 -1877 340 -1900 Q 365 -1924 399 -1938 Q 433 -1952 471 -1952 Q 509 -1952 543 -1938 Q 577 -1924 602 -1900 Q 627 -1877 641 -1844 Q 656 -1811 656 -1775 Q 656 -1738 641 -1706 Q 627 -1675 602 -1651 Q 577 -1628 543 -1614 Q 509 -1600 471 -1600 Q 433 -1600 399 -1614 Q 365 -1628 340 -1651 Q 315 -1675 300 -1706 Q 286 -1738 286 -1775 Z"/>
		<path character="n" fill="none" fill-opacity="1.0" stroke="#A5834B" stroke-width="20" stroke-linecap="butt" stroke-opacity="1.0" transform="matrix(1,0,0,1,8724,0)" d="M 318 -1280 L 87 -1280 L 87 -1363 Q 114 -1373 164 -1381 Q 214 -1390 274 -1395 Q 334 -1401 396 -1404 Q 458 -1408 509 -1408 Q 537 -1408 558 -1406 Q 579 -1405 593 -1397 Q 608 -1390 615 -1374 Q 622 -1358 622 -1328 L 622 -1254 Q 642 -1261 695 -1286 Q 748 -1311 824 -1338 Q 900 -1365 990 -1386 Q 1081 -1408 1176 -1408 Q 1290 -1408 1361 -1376 Q 1432 -1344 1471 -1287 Q 1510 -1230 1524 -1152 Q 1538 -1074 1538 -982 L 1538 -128 L 1767 -128 L 1767 -47 Q 1744 -37 1705 -28 Q 1667 -20 1619 -13 Q 1572 -7 1521 -3 Q 1470 0 1423 0 Q 1382 0 1348 -4 Q 1314 -9 1289 -23 Q 1264 -37 1249 -61 Q 1235 -85 1235 -126 L 1235 -966 Q 1235 -1033 1228 -1080 Q 1221 -1128 1200 -1158 Q 1180 -1188 1144 -1202 Q 1108 -1216 1051 -1216 Q 1014 -1216 970 -1210 Q 927 -1205 880 -1196 Q 833 -1188 789 -1179 Q 745 -1170 709 -1161 Q 673 -1153 649 -1146 Q 626 -1140 622 -1138 L 622 -419 Q 622 -338 626 -276 Q 630 -214 636 -168 Q 642 -122 648 -91 Q 655 -60 659 -42 Q 641 -32 617 -24 Q 594 -17 568 -11 Q 543 -5 517 -2 Q 492 0 471 0 Q 437 0 409 -6 Q 382 -12 361 -27 Q 340 -42 329 -67 Q 318 -92 318 -130 L 318 -1280 Z"/>
		<path character="e" fill="none" fill-opacity="1.0" stroke="#A5834B" stroke-width="20" stroke-linecap="butt" stroke-opacity="1.0" transform="matrix(1,0,0,1,10595,0)" d="M 1138 -768 Q 1146 -796 1148 -824 Q 1151 -853 1151 -885 Q 1151 -954 1129 -1024 Q 1108 -1095 1066 -1152 Q 1025 -1209 964 -1244 Q 903 -1280 824 -1280 Q 723 -1280 655 -1238 Q 588 -1196 545 -1125 Q 503 -1055 483 -962 Q 463 -869 458 -768 L 1138 -768 M 152 -709 Q 152 -862 202 -990 Q 253 -1118 348 -1211 Q 443 -1304 581 -1356 Q 719 -1408 894 -1408 Q 1025 -1408 1128 -1366 Q 1232 -1325 1304 -1255 Q 1377 -1186 1415 -1094 Q 1453 -1002 1453 -902 Q 1453 -856 1445 -809 Q 1437 -763 1415 -725 Q 1393 -688 1352 -664 Q 1311 -640 1246 -640 L 461 -640 Q 474 -516 522 -420 Q 571 -325 647 -259 Q 724 -194 823 -161 Q 923 -128 1039 -128 Q 1117 -128 1201 -142 Q 1285 -156 1375 -185 L 1418 -104 Q 1364 -76 1302 -56 Q 1241 -37 1175 -24 Q 1109 -12 1041 -6 Q 973 0 907 0 Q 763 0 627 -44 Q 491 -89 385 -177 Q 279 -266 215 -399 Q 152 -532 152 -709 Z"/>
</g>
</svg>