<svg xmlns="http://www.w3.org/2000/svg" xmlns:xlink="http://www.w3.org/1999/xlink" viewBox="0 0 8913 3597">
<title>headline</title>
<g transform="matrix(1,0,0,1,0,2752)">
  		<path character="h" fill="#CAD1D8" fill-opacity="1.0" stroke="none" stroke-width="0" stroke-linecap="butt" stroke-opacity="1.0" transform="matrix(1,0,0,1,-128,0)" d="M 171 -2432 L 503 -2432 L 503 -1995 L 486 -1677 Q 522 -1729 565 -1763 Q 608 -1797 653 -1818 Q 698 -1839 744 -1847 Q 791 -1856 837 -1856 Q 996 -1856 1082 -1743 Q 1168 -1631 1168 -1406 L 1168 0 L 836 0 L 836 -1394 Q 836 -1515 799 -1562 Q 763 -1610 692 -1610 Q 642 -1610 591 -1576 Q 541 -1542 503 -1482 L 503 0 L 171 0 L 171 -2432 Z"/>
		<path character="e" fill="#CAD1D8" fill-opacity="1.0" stroke="none" stroke-width="0" stroke-linecap="butt" stroke-opacity="1.0" transform="matrix(1,0,0,1,1228,0)" d="M 606 0 Q 490 0 400 -43 Q 310 -87 248 -179 Q 186 -272 154 -416 Q 123 -560 123 -763 L 123 -1106 Q 123 -1279 149 -1402 Q 175 -1525 216 -1609 Q 257 -1693 311 -1741 Q 366 -1790 424 -1815 Q 482 -1841 539 -1848 Q 596 -1856 644 -1856 Q 734 -1856 816 -1828 Q 899 -1800 962 -1732 Q 1025 -1665 1062 -1552 Q 1100 -1439 1100 -1270 Q 1100 -1213 1096 -1154 Q 1093 -1096 1088 -1039 Q 1083 -983 1074 -930 Q 1066 -877 1057 -832 L 457 -832 L 457 -657 Q 457 -545 466 -468 Q 475 -391 496 -344 Q 518 -297 555 -276 Q 593 -256 650 -256 Q 680 -256 709 -268 Q 738 -280 759 -307 Q 781 -335 794 -380 Q 807 -426 807 -494 L 807 -548 L 1084 -548 L 1084 -480 Q 1084 -229 961 -114 Q 839 0 606 0 M 790 -1088 Q 791 -1102 792 -1126 Q 794 -1150 794 -1175 Q 795 -1201 795 -1226 Q 795 -1252 795 -1270 Q 795 -1445 753 -1522 Q 711 -1600 629 -1600 Q 585 -1600 552 -1580 Q 520 -1560 499 -1513 Q 478 -1466 467 -1388 Q 457 -1311 457 -1196 L 457 -1088 L 790 -1088 Z"/>
		<path character="a" fill="#CAD1D8" fill-opacity="1.0" stroke="none" stroke-width="0" stroke-linecap="butt" stroke-opacity="1.0" transform="matrix(1,0,0,1,2455,0)" d="M 420 0 Q 336 0 271 -33 Q 206 -66 161 -123 Q 117 -180 94 -258 Q 71 -337 71 -429 Q 71 -540 98 -625 Q 126 -711 179 -779 Q 232 -848 311 -904 Q 390 -961 494 -1012 Q 543 -1036 605 -1061 Q 668 -1087 717 -1105 L 717 -1348 Q 717 -1401 713 -1447 Q 709 -1493 694 -1527 Q 679 -1561 648 -1580 Q 618 -1600 566 -1600 Q 530 -1600 496 -1587 Q 463 -1574 437 -1542 Q 412 -1511 397 -1459 Q 382 -1407 382 -1329 L 382 -1251 L 129 -1251 Q 117 -1303 111 -1346 Q 105 -1390 105 -1433 Q 105 -1536 140 -1615 Q 175 -1694 237 -1747 Q 299 -1801 386 -1828 Q 473 -1856 576 -1856 Q 711 -1856 800 -1826 Q 890 -1796 943 -1736 Q 996 -1676 1018 -1585 Q 1040 -1495 1040 -1374 L 1040 0 L 793 0 L 769 -174 Q 715 -97 625 -48 Q 536 0 420 0 M 567 -256 Q 609 -256 649 -277 Q 689 -299 717 -330 L 717 -887 Q 690 -877 657 -862 Q 625 -848 587 -825 Q 551 -803 517 -772 Q 483 -741 456 -698 Q 429 -656 412 -602 Q 396 -548 396 -482 Q 396 -380 437 -318 Q 478 -256 567 -256 Z"/>
		<path character="d" fill="#CAD1D8" fill-opacity="1.0" stroke="none" stroke-width="0" stroke-linecap="butt" stroke-opacity="1.0" transform="matrix(1,0,0,1,3683,0)" d="M 517 0 Q 487 0 446 -6 Q 406 -12 362 -33 Q 319 -54 277 -96 Q 235 -138 202 -211 Q 169 -285 149 -393 Q 129 -501 129 -655 L 129 -1231 Q 129 -1384 150 -1489 Q 172 -1595 207 -1664 Q 243 -1733 287 -1772 Q 331 -1811 375 -1829 Q 419 -1848 459 -1852 Q 499 -1856 525 -1856 Q 574 -1856 617 -1843 Q 660 -1830 695 -1808 Q 731 -1786 758 -1759 Q 786 -1733 805 -1705 L 806 -1706 L 795 -1940 L 795 -2432 L 1126 -2432 L 1126 0 L 868 0 L 839 -188 Q 816 -153 787 -119 Q 759 -85 719 -58 Q 680 -31 630 -15 Q 580 0 517 0 M 630 -258 Q 663 -258 688 -269 Q 714 -280 734 -298 Q 755 -316 770 -339 Q 785 -363 795 -388 L 795 -1475 Q 770 -1533 729 -1574 Q 688 -1615 629 -1615 Q 592 -1615 562 -1602 Q 532 -1589 509 -1552 Q 487 -1516 474 -1452 Q 462 -1388 462 -1286 L 462 -589 Q 462 -488 474 -423 Q 487 -358 509 -322 Q 532 -286 562 -272 Q 593 -258 630 -258 Z"/>
		<path character="l" fill="#CAD1D8" fill-opacity="1.0" stroke="none" stroke-width="0" stroke-linecap="butt" stroke-opacity="1.0" transform="matrix(1,0,0,1,4974,0)" d="M 176 -2432 L 508 -2432 L 508 0 L 176 0 L 176 -2432 Z"/>
		<path character="i" fill="#CAD1D8" fill-opacity="1.0" stroke="none" stroke-width="0" stroke-linecap="butt" stroke-opacity="1.0" transform="matrix(1,0,0,1,5690,0)" d="M 348 -2048 Q 256 -2048 203 -2106 Q 150 -2164 150 -2275 Q 150 -2337 163 -2379 Q 177 -2422 202 -2447 Q 228 -2473 265 -2484 Q 302 -2496 349 -2496 Q 448 -2496 499 -2443 Q 550 -2391 550 -2275 Q 550 -2168 498 -2108 Q 446 -2048 348 -2048 M 176 -1856 L 508 -1856 L 508 0 L 176 0 L 176 -1856 Z"/>
		<path character="n" fill="#CAD1D8" fill-opacity="1.0" stroke="none" stroke-width="0" stroke-linecap="butt" stroke-opacity="1.0" transform="matrix(1,0,0,1,6405,0)" d="M 171 -1856 L 427 -1856 L 457 -1657 L 457 -1656 Q 496 -1713 541 -1751 Q 587 -1790 635 -1813 Q 684 -1836 734 -1846 Q 785 -1856 835 -1856 Q 994 -1856 1080 -1743 Q 1166 -1631 1166 -1406 L 1166 0 L 833 0 L 833 -1411 Q 833 -1533 796 -1581 Q 760 -1629 689 -1629 Q 639 -1629 590 -1590 Q 541 -1552 503 -1484 L 503 0 L 171 0 L 171 -1856 Z"/>
		<path character="e" fill="#CAD1D8" fill-opacity="1.0" stroke="none" stroke-width="0" stroke-linecap="butt" stroke-opacity="1.0" transform="matrix(1,0,0,1,7761,0)" d="M 606 0 Q 490 0 400 -43 Q 310 -87 248 -179 Q 186 -272 154 -416 Q 123 -560 123 -763 L 123 -1106 Q 123 -1279 149 -1402 Q 175 -1525 216 -1609 Q 257 -1693 311 -1741 Q 366 -1790 424 -1815 Q 482 -1841 539 -1848 Q 596 -1856 644 -1856 Q 734 -1856 816 -1828 Q 899 -1800 962 -1732 Q 1025 -1665 1062 -1552 Q 1100 -1439 1100 -1270 Q 1100 -1213 1096 -1154 Q 1093 -1096 1088 -1039 Q 1083 -983 1074 -930 Q 1066 -877 1057 -832 L 457 -832 L 457 -657 Q 457 -545 466 -468 Q 475 -391 496 -344 Q 518 -297 555 -276 Q 593 -256 650 -256 Q 680 -256 709 -268 Q 738 -280 759 -307 Q 781 -335 794 -380 Q 807 -426 807 -494 L 807 -548 L 1084 -548 L 1084 -480 Q 1084 -229 961 -114 Q 839 0 606 0 M 790 -1088 Q 791 -1102 792 -1126 Q 794 -1150 794 -1175 Q 795 -1201 795 -1226 Q 795 -1252 795 -1270 Q 795 -1445 753 -1522 Q 711 -1600 629 -1600 Q 585 -1600 552 -1580 Q 520 -1560 499 -1513 Q 478 -1466 467 -1388 Q 457 -1311 457 -1196 L 457 -1088 L 790 -1088 Z"/>
</g>
</svg>