<svg xmlns="http://www.w3.org/2000/svg" xmlns:xlink="http://www.w3.org/1999/xlink" viewBox="0 0 9200 2797">
<title>Chart Types</title>
<g transform="matrix(1,0,0,1,0,2752)">
  		<path character="C" fill="#EA8872" fill-opacity="1.0" stroke="none" stroke-width="10px" stroke-linecap="butt" stroke-opacity="1.0" transform="matrix(1,0,0,1,-128,0)" d="M 594 32 Q 501 32 405 -37 Q 310 -106 269 -195 Q 233 -274 199 -656 Q 165 -1039 165 -1225 L 165 -1368 Q 163 -1430 163 -1507 Q 163 -1651 179 -1793 Q 190 -1866 210 -1921 Q 230 -1976 265 -2028 Q 335 -2137 473 -2172 Q 541 -2190 623 -2190 Q 688 -2190 760 -2151 Q 833 -2113 833 -2043 Q 833 -1961 735 -1961 Q 707 -1961 651 -1986 Q 622 -2000 602 -2000 Q 541 -2000 493 -1974 Q 445 -1949 418 -1909 Q 394 -1872 374 -1801 Q 355 -1731 350 -1658 Q 342 -1591 342 -1498 L 345 -1344 Q 347 -1277 347 -1199 Q 347 -1012 383 -649 Q 420 -287 449 -239 Q 472 -201 521 -179 Q 571 -158 628 -158 Q 724 -158 771 -217 Q 811 -272 866 -272 Q 945 -272 945 -183 Q 945 -118 903 -72 Q 862 -26 799 -5 Q 706 32 594 32 Z"/>
		<path character="h" fill="#EA8872" fill-opacity="1.0" stroke="none" stroke-width="10px" stroke-linecap="butt" stroke-opacity="1.0" transform="matrix(1,0,0,1,888,0)" d="M 672 156 Q 700 -28 593 0 Q 579 -545 597 -753 L 563 -767 L 581 -811 Q 581 -847 578 -863 L 587 -860 Q 571 -855 532 -855 Q 506 -855 431 -870 Q 391 -882 372 -882 L 378 -894 Q 387 -831 385 -754 Q 382 -680 382 -598 L 387 -587 Q 387 -501 395 -352 Q 403 -202 403 -125 Q 403 -81 381 -40 Q 360 0 306 0 Q 192 0 192 -221 Q 192 -362 195 -475 L 197 -726 Q 197 -966 183 -999 Q 203 -1036 203 -1170 Q 203 -1295 192 -1477 L 187 -1581 L 181 -1788 Q 181 -1828 208 -1865 Q 235 -1902 282 -1902 Q 390 -1902 390 -1694 Q 390 -1513 387 -1367 Q 382 -1222 382 -1049 Q 359 -1049 530 -1072 L 540 -1072 Q 570 -1072 575 -1076 Q 581 -1081 581 -1104 Q 581 -1241 563 -1462 Q 547 -1704 547 -1826 Q 547 -1870 576 -1900 Q 605 -1930 656 -1930 L 684 -1921 Q 716 -1916 750 -1882 Q 750 -1649 766 -1230 Q 782 -806 782 -594 Q 782 -276 802 -43 L 672 156 M 504 -1170 L 681 -957 L 504 -957 L 504 -1170 Z"/>
		<path character="a" fill="#EA8872" fill-opacity="1.0" stroke="none" stroke-width="10px" stroke-linecap="butt" stroke-opacity="1.0" transform="matrix(1,0,0,1,1904,0)" d="M 784 0 Q 711 0 685 -23 Q 659 -47 651 -108 Q 627 -309 621 -358 L 613 -430 Q 598 -434 530 -434 L 434 -434 Q 370 -434 340 -434 Q 337 -474 377 -472 Q 377 -413 322 -465 L 369 -413 Q 366 -360 338 -208 Q 324 -126 302 -79 Q 267 0 212 0 Q 177 0 140 -28 Q 104 -57 104 -110 L 109 -124 L 111 -129 Q 158 -317 190 -503 L 222 -668 L 254 -871 Q 254 -871 284 -1048 Q 297 -1121 332 -1281 Q 369 -1461 377 -1532 Q 380 -1539 387 -1622 Q 397 -1726 406 -1775 Q 415 -1857 448 -1902 L 495 -1902 Q 503 -1902 514 -1902 Q 524 -1902 540 -1917 Q 599 -1917 632 -1890 Q 665 -1864 665 -1822 Q 665 -1697 683 -1534 Q 694 -1448 699 -1391 Q 729 -1047 849 -95 L 849 -86 Q 849 -30 784 0 M 623 -594 Q 568 -934 548 -1662 L 458 -964 Q 398 -673 398 -602 Q 357 -602 453 -613 Q 549 -624 623 -624 L 623 -594 Z"/>
		<path character="r" fill="#EA8872" fill-opacity="1.0" stroke="none" stroke-width="10px" stroke-linecap="butt" stroke-opacity="1.0" transform="matrix(1,0,0,1,2856,0)" d="M 624 11 Q 573 -44 533 -201 Q 494 -358 462 -547 Q 441 -696 402 -842 Q 394 -952 394 -934 L 386 -934 Q 364 -952 382 -952 Q 382 -763 403 -378 Q 414 -148 431 -94 L 385 0 L 294 0 L 238 -48 Q 195 -1299 195 -1746 Q 195 -1781 201 -1808 Q 207 -1836 226 -1859 Q 250 -1902 308 -1902 Q 463 -1902 564 -1820 Q 665 -1739 665 -1587 L 665 -1392 Q 665 -1331 629 -1239 Q 593 -1147 551 -1072 L 526 -1023 Q 552 -907 638 -557 Q 724 -207 689 -177 Q 728 -203 734 -186 Q 740 -169 751 -151 Q 777 -100 777 -60 Q 777 32 683 32 L 624 11 M 348 -1071 Q 364 -1109 392 -1145 Q 421 -1181 442 -1249 Q 483 -1402 483 -1490 Q 483 -1546 477 -1581 Q 471 -1616 456 -1657 Q 437 -1712 356 -1712 Q 356 -1749 369 -1731 Q 382 -1713 382 -1698 Q 382 -1523 387 -1381 Q 390 -1238 357 -1068 L 348 -1071 Z"/>
		<path character="t" fill="#EA8872" fill-opacity="1.0" stroke="none" stroke-width="10px" stroke-linecap="butt" stroke-opacity="1.0" transform="matrix(1,0,0,1,3744,0)" d="M 369 -64 L 365 -191 Q 363 -235 363 -290 Q 363 -320 365 -340 L 368 -386 Q 368 -403 357 -441 Q 357 -629 331 -1119 Q 304 -1595 302 -1712 Q 186 -1712 120 -1725 Q 27 -1758 27 -1867 Q 78 -1902 132 -1902 Q 212 -1902 364 -1902 Q 503 -1902 596 -1902 L 652 -1902 L 708 -1902 Q 811 -1902 811 -1800 Q 811 -1752 773 -1732 Q 736 -1712 698 -1712 Q 644 -1712 586 -1712 L 471 -1712 Q 468 -1759 515 -1752 Q 513 -1744 513 -1708 Q 513 -1448 545 -917 Q 574 -364 574 -123 Q 574 -76 533 -46 Q 492 -17 434 -17 L 369 -64 Z"/>
		<path character="T" fill="#EA8872" fill-opacity="1.0" stroke="none" stroke-width="10px" stroke-linecap="butt" stroke-opacity="1.0" transform="matrix(1,0,0,1,5089,0)" d="M 495 0 Q 438 0 412 -40 Q 387 -80 387 -125 L 387 -367 L 387 -608 L 381 -1041 Q 373 -1331 373 -1476 L 376 -1555 L 376 -1730 Q 426 -2018 426 -1968 L 124 -1968 Q 89 -1968 51 -1988 Q 13 -2009 13 -2058 Q 13 -2102 36 -2122 Q 60 -2143 110 -2150 Q 151 -2158 226 -2158 L 492 -2158 L 786 -2158 Q 838 -2158 867 -2133 Q 897 -2109 897 -2061 Q 897 -1968 791 -1968 L 671 -1968 L 548 -1968 L 550 -2003 L 587 -1871 L 587 -1659 L 587 -559 L 587 -334 L 590 -134 L 590 -128 Q 590 -101 585 -75 Q 581 -50 566 -35 Q 546 0 495 0 Z"/>
		<path character="y" fill="#EA8872" fill-opacity="1.0" stroke="none" stroke-width="10px" stroke-linecap="butt" stroke-opacity="1.0" transform="matrix(1,0,0,1,6041,0)" d="M 423 0 Q 396 0 367 -22 Q 339 -44 328 -88 Q 355 -156 355 -540 Q 355 -614 347 -753 L 334 -927 L 314 -969 L 322 -1001 Q 313 -1023 280 -1110 Q 248 -1197 216 -1286 Q 120 -1537 90 -1649 Q 73 -1703 59 -1785 L 142 -1847 Q 226 -1832 286 -1639 Q 326 -1523 359 -1410 L 391 -1310 Q 416 -1164 391 -1153 L 370 -1171 L 348 -1198 Q 383 -1240 412 -1390 Q 446 -1580 479 -1710 Q 523 -1902 602 -1902 Q 634 -1902 662 -1880 Q 691 -1858 691 -1820 Q 691 -1772 609 -1489 Q 569 -1359 544 -1246 Q 513 -1116 513 -1028 Q 526 -1002 526 -971 Q 526 -949 515 -916 Q 510 -902 510 -895 Q 510 -885 521 -785 Q 531 -711 531 -658 Q 531 -544 534 -453 L 534 -243 L 534 -232 Q 534 0 423 0 Z"/>
		<path character="p" fill="#EA8872" fill-opacity="1.0" stroke="none" stroke-width="10px" stroke-linecap="butt" stroke-opacity="1.0" transform="matrix(1,0,0,1,6865,0)" d="M 234 22 Q 200 -180 200 -407 Q 200 -495 208 -663 L 213 -903 Q 195 -941 195 -992 Q 221 -1037 221 -1236 Q 221 -1738 204 -1782 Q 249 -1902 300 -1902 L 418 -1902 Q 461 -1902 524 -1867 Q 587 -1833 631 -1796 Q 715 -1714 715 -1426 Q 715 -1280 707 -1203 Q 701 -1142 686 -1105 Q 672 -1068 646 -1025 Q 597 -948 489 -894 Q 445 -869 406 -857 L 406 -573 Q 406 -507 419 -309 L 425 -221 L 430 -41 Q 430 64 310 64 L 234 22 M 399 -1058 Q 419 -1058 455 -1109 Q 469 -1131 483 -1171 Q 497 -1212 502 -1253 Q 517 -1330 517 -1431 L 517 -1506 Q 517 -1543 514 -1576 Q 512 -1609 506 -1635 Q 498 -1661 487 -1676 Q 477 -1692 458 -1701 Q 438 -1712 407 -1712 Q 401 -1712 402 -1713 Q 403 -1714 403 -1692 Q 403 -1627 411 -1493 L 417 -1291 Q 417 -1215 411 -1155 L 407 -1046 L 399 -1058 Z"/>
		<path character="e" fill="#EA8872" fill-opacity="1.0" stroke="none" stroke-width="10px" stroke-linecap="butt" stroke-opacity="1.0" transform="matrix(1,0,0,1,7689,0)" d="M 298 0 Q 201 0 189 -108 L 189 -153 Q 192 -166 208 -163 L 172 -177 Q 203 -256 203 -300 Q 203 -359 195 -473 L 189 -652 Q 189 -788 197 -1057 Q 208 -1294 208 -1458 L 203 -1617 Q 197 -1688 197 -1775 Q 197 -1838 233 -1870 Q 269 -1902 330 -1902 Q 378 -1902 400 -1872 Q 389 -1866 456 -1877 Q 528 -1868 580 -1852 Q 670 -1825 670 -1761 Q 670 -1702 567 -1651 Q 402 -1712 374 -1722 L 392 -1733 Q 393 -1723 393 -1630 Q 393 -1514 387 -1424 Q 385 -1332 385 -1219 Q 367 -1182 367 -1200 L 410 -1200 Q 431 -1200 455 -1200 Q 614 -1200 614 -1112 Q 614 -1069 584 -1039 Q 555 -1010 506 -1010 Q 449 -1010 424 -1027 L 356 -1034 L 359 -1045 L 347 -1072 L 387 -1075 Q 393 -1028 393 -853 Q 393 -744 390 -656 L 387 -460 Q 387 -354 395 -242 Q 397 -202 404 -196 Q 411 -190 455 -190 L 503 -190 Q 527 -190 556 -190 Q 689 -190 689 -101 Q 689 0 516 0 L 298 0 Z"/>
		<path character="s" fill="#EA8872" fill-opacity="1.0" stroke="none" stroke-width="10px" stroke-linecap="butt" stroke-opacity="1.0" transform="matrix(1,0,0,1,8513,0)" d="M 276 0 Q 227 0 184 -36 Q 141 -73 134 -144 L 173 -207 Q 220 -207 266 -198 Q 291 -190 300 -190 Q 336 -190 369 -223 Q 402 -256 421 -314 Q 456 -440 456 -553 Q 456 -718 351 -910 Q 282 -1029 243 -1101 Q 204 -1174 174 -1270 Q 136 -1384 136 -1492 Q 136 -1595 188 -1732 Q 217 -1805 274 -1853 Q 331 -1902 402 -1902 Q 454 -1902 506 -1864 Q 558 -1827 558 -1772 Q 558 -1685 468 -1685 Q 437 -1685 407 -1712 Q 412 -1728 412 -1712 Q 395 -1712 375 -1693 Q 356 -1674 344 -1637 Q 315 -1548 315 -1476 Q 315 -1433 328 -1385 Q 330 -1369 333 -1357 Q 337 -1345 316 -1337 L 351 -1294 L 363 -1251 L 382 -1207 Q 388 -1193 396 -1180 Q 405 -1167 414 -1153 L 445 -1099 Q 456 -1084 492 -1022 Q 528 -961 558 -893 Q 587 -835 601 -782 Q 616 -729 627 -657 Q 635 -588 635 -506 Q 635 -372 598 -252 Q 543 -101 435 -39 Q 371 0 290 0 L 276 0 M 487 -1765 Q 487 -1762 490 -1762 L 490 -1765 L 487 -1765 Z"/>
</g>
</svg>