<svg xmlns="http://www.w3.org/2000/svg" xmlns:xlink="http://www.w3.org/1999/xlink" viewBox="0 0 18685 3092">
<title>Chart Types</title>
<g transform="matrix(1,0,0,1,0,2816)">
  		<path character="C" fill="#A5834B" fill-opacity="1.0" stroke="none" stroke-width="10px" stroke-linecap="butt" stroke-opacity="1.0" transform="matrix(1,0,0,1,0,0)" d="M 1143 32 Q 617 32 327 -242 Q 37 -517 37 -1111 Q 37 -2254 1138 -2254 Q 1399 -2254 1624 -2189 Q 1850 -2125 1988 -2029 L 1988 -1269 L 1237 -1269 L 1237 -1519 Q 1237 -1601 1207 -1633 Q 1178 -1665 1111 -1665 Q 1044 -1665 1014 -1633 Q 985 -1601 985 -1520 L 985 -702 Q 985 -621 1014 -589 Q 1044 -557 1111 -557 Q 1178 -557 1207 -589 Q 1237 -621 1237 -702 L 1237 -976 L 1988 -976 L 1988 -191 Q 1847 -95 1624 -31 Q 1402 32 1143 32 Z"/>
		<path character="h" fill="#A5834B" fill-opacity="1.0" stroke="none" stroke-width="10px" stroke-linecap="butt" stroke-opacity="1.0" transform="matrix(1,0,0,1,2048,0)" d="M 1929 -589 L 1929 0 L 976 0 L 976 -589 L 1088 -589 L 1088 -948 Q 1088 -1010 1066 -1032 Q 1045 -1055 994 -1055 Q 889 -1055 889 -948 L 889 -589 L 1001 -589 L 1001 0 L 48 0 L 48 -589 L 165 -589 L 165 -1633 L 48 -1633 L 48 -2222 L 889 -2222 L 889 -1476 Q 897 -1486 1023 -1550 Q 1149 -1614 1314 -1614 Q 1561 -1614 1686 -1465 Q 1812 -1316 1812 -1067 L 1812 -589 L 1929 -589 Z"/>
		<path character="a" fill="#A5834B" fill-opacity="1.0" stroke="none" stroke-width="10px" stroke-linecap="butt" stroke-opacity="1.0" transform="matrix(1,0,0,1,4031,0)" d="M 1713 -589 L 1713 0 L 899 0 L 922 -144 Q 935 -122 817 -45 Q 700 32 532 32 Q 311 32 179 -88 Q 48 -209 48 -424 Q 48 -974 899 -974 Q 899 -978 856 -1001 Q 814 -1025 682 -1025 Q 567 -1025 434 -1001 Q 301 -978 117 -910 L 117 -1520 Q 303 -1568 471 -1591 Q 640 -1614 802 -1614 Q 1218 -1614 1407 -1463 Q 1596 -1312 1596 -1001 L 1596 -589 L 1713 -589 M 938 -680 Q 846 -641 802 -621 Q 758 -601 758 -568 Q 758 -551 769 -541 Q 780 -531 810 -531 Q 850 -531 874 -565 Q 899 -600 899 -680 L 938 -680 Z"/>
		<path character="r" fill="#A5834B" fill-opacity="1.0" stroke="none" stroke-width="10px" stroke-linecap="butt" stroke-opacity="1.0" transform="matrix(1,0,0,1,5823,0)" d="M 1242 -1614 Q 1300 -1614 1353 -1604 Q 1407 -1594 1478 -1563 L 1478 -951 Q 1303 -1025 1188 -1025 Q 1041 -1025 967 -958 Q 894 -891 894 -752 L 894 -589 L 1134 -589 L 1134 0 L 53 0 L 53 -589 L 171 -589 L 171 -993 L 53 -993 L 53 -1582 L 894 -1582 L 880 -1454 Q 874 -1471 981 -1542 Q 1089 -1614 1242 -1614 Z"/>
		<path character="t" fill="#A5834B" fill-opacity="1.0" stroke="none" stroke-width="10px" stroke-linecap="butt" stroke-opacity="1.0" transform="matrix(1,0,0,1,7359,0)" d="M 762 32 Q 458 32 298 -113 Q 139 -259 139 -591 L 139 -993 L 21 -993 L 21 -1582 Q 153 -1582 188 -1623 Q 224 -1664 224 -1745 L 224 -1934 L 899 -1934 L 899 -1582 L 1259 -1582 L 1259 -993 L 899 -993 L 899 -634 Q 899 -573 922 -550 Q 945 -527 999 -527 Q 1095 -527 1275 -562 L 1275 -59 Q 1161 -17 1029 7 Q 897 32 762 32 Z"/>
		<path character="T" fill="#A5834B" fill-opacity="1.0" stroke="none" stroke-width="10px" stroke-linecap="butt" stroke-opacity="1.0" transform="matrix(1,0,0,1,9551,0)" d="M 2153 -1434 L 1584 -1434 L 1584 -1633 L 1524 -1633 L 1524 -589 L 1710 -589 L 1710 0 L 480 0 L 480 -589 L 667 -589 L 667 -1633 L 606 -1633 L 606 -1434 L 37 -1434 L 37 -2222 L 2153 -2222 L 2153 -1434 Z"/>
		<path character="y" fill="#A5834B" fill-opacity="1.0" stroke="none" stroke-width="10px" stroke-linecap="butt" stroke-opacity="1.0" transform="matrix(1,0,0,1,11790,0)" d="M 1764 -1582 L 1764 -993 L 1645 -993 L 1309 -134 Q 1174 214 994 395 Q 814 576 516 576 Q 399 576 279 552 Q 159 529 27 472 L 27 -102 L 505 -102 L 505 -22 Q 505 -13 519 -13 Q 548 -13 551 -18 L 154 -993 L 35 -993 L 35 -1582 L 937 -1582 L 937 -993 L 869 -993 L 928 -824 L 982 -993 L 912 -993 L 912 -1582 L 1764 -1582 Z"/>
		<path character="p" fill="#A5834B" fill-opacity="1.0" stroke="none" stroke-width="10px" stroke-linecap="butt" stroke-opacity="1.0" transform="matrix(1,0,0,1,13582,0)" d="M 37 -13 L 155 -13 L 155 -993 L 37 -993 L 37 -1582 L 878 -1582 L 860 -1440 Q 851 -1458 967 -1536 Q 1083 -1614 1236 -1614 Q 1538 -1614 1688 -1395 Q 1838 -1176 1838 -791 Q 1838 -406 1688 -187 Q 1538 32 1236 32 Q 1085 32 969 -36 Q 854 -104 861 -123 L 878 -13 L 1062 -13 L 1062 576 L 37 576 L 37 -13 M 978 -527 Q 1032 -527 1054 -550 Q 1077 -573 1077 -634 L 1077 -886 Q 1077 -947 1054 -970 Q 1032 -993 978 -993 Q 923 -993 900 -970 Q 878 -947 878 -886 L 878 -634 Q 878 -573 900 -550 Q 923 -527 978 -527 Z"/>
		<path character="e" fill="#A5834B" fill-opacity="1.0" stroke="none" stroke-width="10px" stroke-linecap="butt" stroke-opacity="1.0" transform="matrix(1,0,0,1,15438,0)" d="M 898 32 Q 498 32 267 -179 Q 37 -391 37 -791 Q 37 -1191 267 -1402 Q 498 -1614 898 -1614 Q 1299 -1614 1480 -1403 Q 1662 -1192 1662 -885 L 1662 -640 L 758 -680 L 798 -680 Q 798 -617 838 -587 Q 878 -557 996 -557 Q 1155 -557 1297 -578 Q 1440 -600 1617 -656 L 1617 -123 Q 1489 -53 1301 -10 Q 1114 32 898 32 M 1027 -1040 L 997 -1040 Q 997 -1086 976 -1103 Q 955 -1120 898 -1120 Q 840 -1120 819 -1102 Q 798 -1084 798 -1040 L 768 -1040 L 1027 -1040 Z"/>
		<path character="s" fill="#A5834B" fill-opacity="1.0" stroke="none" stroke-width="10px" stroke-linecap="butt" stroke-opacity="1.0" transform="matrix(1,0,0,1,17165,0)" d="M 751 32 Q 407 32 48 -77 L 48 -558 L 590 -558 L 590 -475 Q 590 -398 698 -398 Q 787 -398 787 -442 Q 787 -466 762 -481 Q 738 -497 645 -514 L 512 -538 Q 48 -621 48 -1069 Q 48 -1330 242 -1472 Q 437 -1614 754 -1614 Q 1099 -1614 1371 -1489 L 1371 -1042 L 856 -1042 L 856 -1125 Q 856 -1155 838 -1169 Q 820 -1184 770 -1184 Q 691 -1184 691 -1153 Q 691 -1138 711 -1125 Q 732 -1112 821 -1092 L 972 -1063 Q 1229 -1013 1343 -875 Q 1457 -737 1457 -524 Q 1457 -253 1269 -110 Q 1081 32 751 32 Z"/>
</g>
</svg>