<svg xmlns="http://www.w3.org/2000/svg" xmlns:xlink="http://www.w3.org/1999/xlink" viewBox="0 0 11509 3597">
<title>Code Generator</title>
<g transform="matrix(1,0,0,1,0,2752)">
  		<path character="C" fill="#EA8872" fill-opacity="1.0" stroke="none" stroke-width="10px" stroke-linecap="butt" stroke-opacity="1.0" transform="matrix(1,0,0,1,-128,0)" d="M 539 32 Q 464 32 381 -27 Q 299 -87 264 -163 Q 232 -233 198 -609 Q 165 -986 165 -1170 L 165 -1314 Q 163 -1376 163 -1452 Q 163 -1593 179 -1731 Q 189 -1798 206 -1847 Q 224 -1896 256 -1942 Q 315 -2034 432 -2064 Q 493 -2080 568 -2080 Q 619 -2080 671 -2052 Q 723 -2025 723 -1988 Q 723 -1961 680 -1961 Q 664 -1961 619 -1981 Q 579 -2000 547 -2000 Q 472 -2000 412 -1968 Q 352 -1936 317 -1884 Q 288 -1840 266 -1762 Q 245 -1685 240 -1608 Q 232 -1539 232 -1442 L 235 -1288 Q 237 -1221 237 -1144 Q 237 -954 274 -584 Q 312 -214 347 -156 Q 379 -103 441 -75 Q 504 -48 573 -48 Q 696 -48 760 -129 Q 784 -162 811 -162 Q 835 -162 835 -128 Q 835 -84 805 -51 Q 776 -19 725 -2 Q 640 32 539 32 Z"/>
		<path character="o" fill="#EA8872" fill-opacity="1.0" stroke="none" stroke-width="10px" stroke-linecap="butt" stroke-opacity="1.0" transform="matrix(1,0,0,1,777,0)" d="M 469 32 Q 157 32 157 -952 L 157 -1046 Q 157 -1792 349 -1792 Q 363 -1792 387 -1784 Q 472 -1755 555 -1747 Q 605 -1736 656 -1642 Q 712 -1546 740 -1388 Q 768 -1230 768 -1065 L 763 -1051 Q 763 -963 765 -893 L 768 -733 Q 768 -597 757 -487 Q 741 -321 704 -201 Q 680 -128 649 -80 Q 619 -32 573 0 Q 531 32 469 32 M 459 -48 Q 563 -48 613 -194 Q 664 -343 675 -497 Q 685 -656 685 -752 Q 685 -858 669 -1065 Q 656 -1297 656 -1379 L 645 -1400 L 651 -1414 Q 651 -1535 585 -1623 Q 520 -1712 427 -1712 Q 304 -1712 280 -1589 Q 275 -1547 269 -1469 Q 269 -1273 253 -1201 Q 253 -1161 245 -1076 L 240 -951 Q 240 -893 243 -848 L 245 -741 Q 245 -616 267 -454 Q 283 -335 304 -252 Q 325 -170 365 -112 Q 405 -48 459 -48 Z"/>
		<path character="d" fill="#EA8872" fill-opacity="1.0" stroke="none" stroke-width="10px" stroke-linecap="butt" stroke-opacity="1.0" transform="matrix(1,0,0,1,1682,0)" d="M 243 0 Q 221 0 221 -74 Q 211 -259 211 -541 Q 211 -719 213 -858 L 216 -1175 Q 216 -1379 205 -1680 Q 181 -1701 181 -1733 Q 181 -1752 204 -1772 Q 227 -1792 245 -1792 Q 267 -1792 285 -1770 L 315 -1746 Q 331 -1738 376 -1729 Q 421 -1721 440 -1713 Q 480 -1691 547 -1629 Q 611 -1564 635 -1547 L 632 -1542 Q 635 -1526 672 -1471 Q 701 -1430 720 -1395 Q 763 -1270 763 -1072 Q 763 -1036 760 -1009 L 760 -945 L 760 -924 L 757 -897 Q 757 -847 773 -817 Q 757 -732 733 -495 Q 725 -426 706 -349 Q 688 -272 661 -221 Q 592 -91 429 0 L 243 0 M 419 -80 Q 437 -101 453 -115 Q 453 -115 472 -128 L 493 -146 Q 680 -314 680 -784 L 680 -834 Q 677 -856 677 -880 L 667 -1154 Q 659 -1311 573 -1479 Q 533 -1563 465 -1616 Q 397 -1669 323 -1669 Q 291 -1669 291 -1172 Q 291 -598 323 -171 L 320 -120 L 331 -115 L 336 -80 L 419 -80 Z"/>
		<path character="e" fill="#EA8872" fill-opacity="1.0" stroke="none" stroke-width="10px" stroke-linecap="butt" stroke-opacity="1.0" transform="matrix(1,0,0,1,2651,0)" d="M 243 0 Q 195 0 189 -56 L 189 -92 Q 192 -105 192 -124 L 181 -135 Q 203 -191 203 -245 Q 203 -306 195 -421 L 189 -598 Q 189 -732 197 -1000 Q 208 -1238 208 -1404 L 203 -1565 Q 197 -1635 197 -1720 Q 197 -1758 216 -1775 Q 235 -1792 275 -1792 Q 301 -1792 317 -1777 Q 323 -1774 395 -1767 Q 461 -1759 509 -1744 Q 560 -1729 560 -1706 Q 560 -1681 509 -1656 Q 357 -1712 293 -1712 L 280 -1689 Q 283 -1665 283 -1575 Q 283 -1461 277 -1371 Q 275 -1278 275 -1164 Q 275 -1090 312 -1090 L 355 -1090 Q 376 -1090 400 -1090 Q 504 -1090 504 -1057 Q 504 -1037 490 -1023 Q 477 -1010 451 -1010 Q 411 -1010 389 -1025 L 304 -1034 L 291 -1034 L 277 -1025 L 277 -1017 Q 283 -970 283 -798 Q 283 -690 280 -602 L 277 -405 Q 277 -297 285 -184 Q 288 -121 312 -100 Q 336 -80 400 -80 L 448 -80 Q 472 -80 501 -80 Q 579 -80 579 -46 Q 579 0 461 0 L 243 0 Z"/>
		<path character="G" fill="#EA8872" fill-opacity="1.0" stroke="none" stroke-width="10px" stroke-linecap="butt" stroke-opacity="1.0" transform="matrix(1,0,0,1,3821,0)" d="M 555 32 Q 355 32 259 -259 Q 163 -551 163 -1166 Q 163 -1298 168 -1400 Q 173 -1524 205 -1667 Q 219 -1740 239 -1794 Q 259 -1848 293 -1907 Q 355 -2015 464 -2058 Q 523 -2080 587 -2080 Q 667 -2080 667 -2033 Q 667 -2000 627 -2000 Q 616 -2000 589 -2000 L 552 -2000 Q 464 -2000 400 -1928 Q 355 -1874 312 -1744 Q 283 -1637 272 -1506 Q 264 -1434 256 -1271 L 253 -1095 L 253 -948 Q 253 -689 291 -475 Q 317 -342 353 -253 Q 389 -165 451 -109 Q 517 -48 595 -48 Q 736 -48 821 -180 Q 821 -253 811 -373 Q 803 -432 789 -484 Q 773 -529 752 -529 L 701 -524 L 645 -519 Q 584 -519 584 -565 Q 584 -587 658 -606 Q 733 -625 784 -625 Q 827 -625 847 -594 Q 867 -564 867 -514 Q 867 -456 893 -278 Q 920 -130 920 -42 Q 920 0 885 0 Q 821 0 821 -48 L 824 -56 L 824 -61 Q 672 32 555 32 Z"/>
		<path character="e" fill="#EA8872" fill-opacity="1.0" stroke="none" stroke-width="10px" stroke-linecap="butt" stroke-opacity="1.0" transform="matrix(1,0,0,1,4854,0)" d="M 243 0 Q 195 0 189 -56 L 189 -92 Q 192 -105 192 -124 L 181 -135 Q 203 -191 203 -245 Q 203 -306 195 -421 L 189 -598 Q 189 -732 197 -1000 Q 208 -1238 208 -1404 L 203 -1565 Q 197 -1635 197 -1720 Q 197 -1758 216 -1775 Q 235 -1792 275 -1792 Q 301 -1792 317 -1777 Q 323 -1774 395 -1767 Q 461 -1759 509 -1744 Q 560 -1729 560 -1706 Q 560 -1681 509 -1656 Q 357 -1712 293 -1712 L 280 -1689 Q 283 -1665 283 -1575 Q 283 -1461 277 -1371 Q 275 -1278 275 -1164 Q 275 -1090 312 -1090 L 355 -1090 Q 376 -1090 400 -1090 Q 504 -1090 504 -1057 Q 504 -1037 490 -1023 Q 477 -1010 451 -1010 Q 411 -1010 389 -1025 L 304 -1034 L 291 -1034 L 277 -1025 L 277 -1017 Q 283 -970 283 -798 Q 283 -690 280 -602 L 277 -405 Q 277 -297 285 -184 Q 288 -121 312 -100 Q 336 -80 400 -80 L 448 -80 Q 472 -80 501 -80 Q 579 -80 579 -46 Q 579 0 461 0 L 243 0 Z"/>
		<path character="n" fill="#EA8872" fill-opacity="1.0" stroke="none" stroke-width="10px" stroke-linecap="butt" stroke-opacity="1.0" transform="matrix(1,0,0,1,5567,0)" d="M 872 -10 Q 851 -10 841 -26 Q 832 -42 824 -74 Q 821 -96 813 -112 L 816 -120 Q 795 -245 725 -426 L 677 -565 Q 672 -570 627 -701 L 605 -765 Q 365 -1507 304 -1569 Q 283 -1496 283 -1380 Q 283 -1317 285 -1271 L 288 -1166 L 285 -1101 Q 283 -1071 283 -1036 Q 283 -977 288 -934 Q 293 -848 293 -848 L 285 -848 Q 285 -398 304 -352 L 304 -109 Q 315 -87 315 -52 Q 315 -31 300 -15 Q 285 0 264 0 Q 208 0 208 -144 L 213 -230 Q 219 -270 219 -318 Q 219 -446 211 -702 Q 203 -958 203 -1086 Q 203 -1163 211 -1324 Q 219 -1481 219 -1558 L 219 -1593 Q 219 -1724 267 -1764 L 275 -1756 L 301 -1761 Q 312 -1758 325 -1745 Q 336 -1734 336 -1721 L 341 -1705 Q 341 -1700 342 -1696 Q 344 -1692 344 -1692 Q 387 -1502 536 -1161 Q 688 -801 725 -683 Q 752 -590 768 -518 Q 819 -291 888 -168 L 893 -176 Q 955 -775 955 -1647 L 952 -1680 Q 949 -1693 949 -1715 Q 949 -1792 987 -1792 Q 1011 -1792 1028 -1766 Q 1045 -1740 1045 -1707 L 1045 -1512 L 1032 -1491 Q 1032 -1237 1002 -658 Q 973 -80 947 -29 L 901 -18 L 901 -16 L 899 -18 L 872 -10 Z"/>
		<path character="e" fill="#EA8872" fill-opacity="1.0" stroke="none" stroke-width="10px" stroke-linecap="butt" stroke-opacity="1.0" transform="matrix(1,0,0,1,6792,0)" d="M 243 0 Q 195 0 189 -56 L 189 -92 Q 192 -105 192 -124 L 181 -135 Q 203 -191 203 -245 Q 203 -306 195 -421 L 189 -598 Q 189 -732 197 -1000 Q 208 -1238 208 -1404 L 203 -1565 Q 197 -1635 197 -1720 Q 197 -1758 216 -1775 Q 235 -1792 275 -1792 Q 301 -1792 317 -1777 Q 323 -1774 395 -1767 Q 461 -1759 509 -1744 Q 560 -1729 560 -1706 Q 560 -1681 509 -1656 Q 357 -1712 293 -1712 L 280 -1689 Q 283 -1665 283 -1575 Q 283 -1461 277 -1371 Q 275 -1278 275 -1164 Q 275 -1090 312 -1090 L 355 -1090 Q 376 -1090 400 -1090 Q 504 -1090 504 -1057 Q 504 -1037 490 -1023 Q 477 -1010 451 -1010 Q 411 -1010 389 -1025 L 304 -1034 L 291 -1034 L 277 -1025 L 277 -1017 Q 283 -970 283 -798 Q 283 -690 280 -602 L 277 -405 Q 277 -297 285 -184 Q 288 -121 312 -100 Q 336 -80 400 -80 L 448 -80 Q 472 -80 501 -80 Q 579 -80 579 -46 Q 579 0 461 0 L 243 0 Z"/>
		<path character="r" fill="#EA8872" fill-opacity="1.0" stroke="none" stroke-width="10px" stroke-linecap="butt" stroke-opacity="1.0" transform="matrix(1,0,0,1,7505,0)" d="M 600 19 Q 568 -16 530 -165 Q 493 -314 461 -500 Q 440 -652 400 -801 Q 368 -934 339 -934 L 331 -934 Q 272 -934 272 -897 Q 272 -707 293 -320 Q 304 -83 317 -43 L 296 0 L 259 0 L 237 -19 Q 195 -1245 195 -1691 Q 195 -1720 199 -1738 Q 203 -1757 216 -1773 Q 227 -1792 253 -1792 Q 389 -1792 472 -1725 Q 555 -1658 555 -1532 L 555 -1337 Q 555 -1286 521 -1200 Q 488 -1115 448 -1043 L 413 -976 Q 443 -840 529 -488 Q 616 -136 624 -114 Q 627 -112 631 -101 Q 635 -90 648 -69 Q 667 -32 667 -5 Q 667 32 637 32 L 600 19 M 285 -999 Q 336 -999 376 -1049 Q 416 -1100 440 -1179 Q 483 -1340 483 -1435 Q 483 -1496 476 -1535 Q 469 -1575 453 -1620 Q 421 -1712 301 -1712 Q 288 -1712 280 -1689 Q 272 -1667 272 -1643 Q 272 -1467 277 -1324 Q 280 -1182 280 -1005 L 285 -999 Z"/>
		<path character="a" fill="#EA8872" fill-opacity="1.0" stroke="none" stroke-width="10px" stroke-linecap="butt" stroke-opacity="1.0" transform="matrix(1,0,0,1,8282,0)" d="M 717 0 Q 677 0 666 -9 Q 656 -19 651 -60 Q 627 -261 621 -310 L 608 -420 Q 549 -434 475 -434 L 379 -434 Q 315 -434 285 -434 Q 269 -434 267 -421 Q 267 -413 264 -413 L 259 -362 Q 256 -312 229 -163 Q 216 -88 197 -47 Q 176 0 157 0 Q 141 0 122 -14 Q 104 -29 104 -45 L 107 -53 L 109 -61 Q 157 -251 189 -438 L 221 -604 L 253 -807 Q 253 -807 283 -983 Q 296 -1055 331 -1215 Q 368 -1397 376 -1464 Q 379 -1472 387 -1562 Q 397 -1664 405 -1712 Q 413 -1781 421 -1792 L 440 -1792 Q 448 -1792 459 -1792 Q 491 -1792 507 -1807 Q 525 -1807 540 -1795 Q 555 -1783 555 -1767 Q 555 -1639 573 -1473 Q 584 -1387 589 -1331 Q 619 -986 739 -37 L 739 -31 Q 739 -10 717 0 M 595 -514 Q 568 -884 493 -1607 L 349 -920 Q 288 -624 288 -547 Q 288 -534 389 -524 Q 491 -514 568 -514 L 595 -514 Z"/>
		<path character="t" fill="#EA8872" fill-opacity="1.0" stroke="none" stroke-width="10px" stroke-linecap="butt" stroke-opacity="1.0" transform="matrix(1,0,0,1,9123,0)" d="M 368 -38 L 365 -138 Q 363 -181 363 -235 Q 363 -262 365 -280 L 368 -329 Q 368 -356 357 -394 Q 357 -575 331 -1067 Q 304 -1542 301 -1712 Q 136 -1712 80 -1723 Q 27 -1742 27 -1783 Q 40 -1792 77 -1792 Q 157 -1792 309 -1792 Q 448 -1792 541 -1792 L 597 -1792 L 653 -1792 Q 701 -1792 701 -1745 Q 701 -1730 684 -1721 Q 667 -1712 643 -1712 Q 589 -1712 531 -1712 L 416 -1712 Q 405 -1712 405 -1704 Q 403 -1696 403 -1653 Q 403 -1391 435 -859 Q 464 -308 464 -68 Q 464 -49 441 -33 Q 419 -17 397 -17 L 368 -38 Z"/>
		<path character="o" fill="#EA8872" fill-opacity="1.0" stroke="none" stroke-width="10px" stroke-linecap="butt" stroke-opacity="1.0" transform="matrix(1,0,0,1,9900,0)" d="M 469 32 Q 157 32 157 -952 L 157 -1046 Q 157 -1792 349 -1792 Q 363 -1792 387 -1784 Q 472 -1755 555 -1747 Q 605 -1736 656 -1642 Q 712 -1546 740 -1388 Q 768 -1230 768 -1065 L 763 -1051 Q 763 -963 765 -893 L 768 -733 Q 768 -597 757 -487 Q 741 -321 704 -201 Q 680 -128 649 -80 Q 619 -32 573 0 Q 531 32 469 32 M 459 -48 Q 563 -48 613 -194 Q 664 -343 675 -497 Q 685 -656 685 -752 Q 685 -858 669 -1065 Q 656 -1297 656 -1379 L 645 -1400 L 651 -1414 Q 651 -1535 585 -1623 Q 520 -1712 427 -1712 Q 304 -1712 280 -1589 Q 275 -1547 269 -1469 Q 269 -1273 253 -1201 Q 253 -1161 245 -1076 L 240 -951 Q 240 -893 243 -848 L 245 -741 Q 245 -616 267 -454 Q 283 -335 304 -252 Q 325 -170 365 -112 Q 405 -48 459 -48 Z"/>
		<path character="r" fill="#EA8872" fill-opacity="1.0" stroke="none" stroke-width="10px" stroke-linecap="butt" stroke-opacity="1.0" transform="matrix(1,0,0,1,10804,0)" d="M 600 19 Q 568 -16 530 -165 Q 493 -314 461 -500 Q 440 -652 400 -801 Q 368 -934 339 -934 L 331 -934 Q 272 -934 272 -897 Q 272 -707 293 -320 Q 304 -83 317 -43 L 296 0 L 259 0 L 237 -19 Q 195 -1245 195 -1691 Q 195 -1720 199 -1738 Q 203 -1757 216 -1773 Q 227 -1792 253 -1792 Q 389 -1792 472 -1725 Q 555 -1658 555 -1532 L 555 -1337 Q 555 -1286 521 -1200 Q 488 -1115 448 -1043 L 413 -976 Q 443 -840 529 -488 Q 616 -136 624 -114 Q 627 -112 631 -101 Q 635 -90 648 -69 Q 667 -32 667 -5 Q 667 32 637 32 L 600 19 M 285 -999 Q 336 -999 376 -1049 Q 416 -1100 440 -1179 Q 483 -1340 483 -1435 Q 483 -1496 476 -1535 Q 469 -1575 453 -1620 Q 421 -1712 301 -1712 Q 288 -1712 280 -1689 Q 272 -1667 272 -1643 Q 272 -1467 277 -1324 Q 280 -1182 280 -1005 L 285 -999 Z"/>
</g>
</svg>