<svg xmlns="http://www.w3.org/2000/svg" xmlns:xlink="http://www.w3.org/1999/xlink" viewBox="0 0 3931 3597">
<title>Demo</title>
<g transform="matrix(1,0,0,1,0,2752)">
  		<path character="D" fill="#EA8872" fill-opacity="1.0" stroke="none" stroke-width="10px" stroke-linecap="butt" stroke-opacity="1.0" transform="matrix(1,0,0,1,-128,0)" d="M 309 0 Q 277 0 245 -16 Q 213 -32 213 -54 Q 213 -70 235 -108 Q 256 -143 253 -162 L 245 -400 L 227 -1139 L 221 -1466 Q 219 -1767 208 -1842 Q 203 -1872 187 -1910 Q 168 -1961 168 -1983 Q 168 -2048 371 -2048 L 384 -2048 Q 520 -2048 619 -1953 Q 696 -1880 757 -1723 Q 800 -1599 821 -1445 Q 832 -1364 840 -1196 L 840 -1112 Q 840 -944 796 -748 Q 752 -552 672 -381 Q 624 -273 548 -186 Q 472 -100 402 -50 Q 333 0 309 0 M 349 -136 Q 448 -188 525 -288 Q 603 -388 648 -508 Q 688 -609 714 -739 Q 741 -869 752 -981 Q 760 -1079 760 -1170 Q 760 -1968 331 -1968 Q 275 -1968 275 -1938 Q 275 -1842 285 -1711 Q 296 -1577 296 -1484 Q 296 -1334 317 -962 Q 336 -639 336 -442 L 336 -136 L 349 -136 Z"/>
		<path character="e" fill="#EA8872" fill-opacity="1.0" stroke="none" stroke-width="10px" stroke-linecap="butt" stroke-opacity="1.0" transform="matrix(1,0,0,1,905,0)" d="M 243 0 Q 195 0 189 -56 L 189 -92 Q 192 -105 192 -124 L 181 -135 Q 203 -191 203 -245 Q 203 -306 195 -421 L 189 -598 Q 189 -732 197 -1000 Q 208 -1238 208 -1404 L 203 -1565 Q 197 -1635 197 -1720 Q 197 -1758 216 -1775 Q 235 -1792 275 -1792 Q 301 -1792 317 -1777 Q 323 -1774 395 -1767 Q 461 -1759 509 -1744 Q 560 -1729 560 -1706 Q 560 -1681 509 -1656 Q 357 -1712 293 -1712 L 280 -1689 Q 283 -1665 283 -1575 Q 283 -1461 277 -1371 Q 275 -1278 275 -1164 Q 275 -1090 312 -1090 L 355 -1090 Q 376 -1090 400 -1090 Q 504 -1090 504 -1057 Q 504 -1037 490 -1023 Q 477 -1010 451 -1010 Q 411 -1010 389 -1025 L 304 -1034 L 291 -1034 L 277 -1025 L 277 -1017 Q 283 -970 283 -798 Q 283 -690 280 -602 L 277 -405 Q 277 -297 285 -184 Q 288 -121 312 -100 Q 336 -80 400 -80 L 448 -80 Q 472 -80 501 -80 Q 579 -80 579 -46 Q 579 0 461 0 L 243 0 Z"/>
		<path character="m" fill="#EA8872" fill-opacity="1.0" stroke="none" stroke-width="10px" stroke-linecap="butt" stroke-opacity="1.0" transform="matrix(1,0,0,1,1618,0)" d="M 1245 127 Q 1192 127 1192 -44 L 1192 -221 Q 1192 -606 1176 -823 L 1168 -921 Q 1157 -988 1157 -1039 Q 1157 -1130 1163 -1205 L 1168 -1371 Q 1168 -1454 1157 -1496 Q 1104 -1459 835 -376 L 832 -335 Q 824 -269 811 -229 Q 803 -200 788 -184 Q 773 -168 755 -168 Q 712 -168 693 -189 Q 675 -211 675 -256 Q 675 -327 607 -627 Q 539 -928 460 -1204 Q 381 -1481 352 -1510 Q 349 -1417 331 -1071 Q 293 -459 293 -108 L 296 -2 Q 285 32 240 32 Q 232 32 213 17 Q 195 3 195 -5 Q 195 -244 237 -845 Q 277 -1404 277 -1683 Q 277 -1699 272 -1715 Q 264 -1734 264 -1744 Q 264 -1792 333 -1792 Q 379 -1792 387 -1746 Q 397 -1684 397 -1653 L 400 -1621 Q 413 -1552 477 -1409 Q 528 -1294 555 -1209 Q 571 -1146 584 -1106 Q 627 -952 640 -877 L 675 -808 Q 683 -768 707 -678 Q 731 -577 741 -513 Q 752 -449 752 -391 Q 781 -437 918 -944 Q 1056 -1451 1080 -1592 Q 1083 -1597 1084 -1606 Q 1085 -1616 1088 -1632 Q 1093 -1668 1112 -1738 Q 1133 -1792 1176 -1792 Q 1195 -1792 1219 -1775 Q 1243 -1759 1243 -1743 Q 1243 -614 1277 -549 L 1277 -410 Q 1275 -349 1275 -269 Q 1275 -99 1293 -13 Q 1296 -11 1297 -5 Q 1299 0 1301 8 Q 1304 19 1304 32 Q 1304 64 1286 95 Q 1269 127 1245 127 M 1157 -1496 L 1155 -1496 L 1149 -1494 L 1157 -1491 L 1157 -1496 Z"/>
		<path character="o" fill="#EA8872" fill-opacity="1.0" stroke="none" stroke-width="10px" stroke-linecap="butt" stroke-opacity="1.0" transform="matrix(1,0,0,1,3163,0)" d="M 469 32 Q 157 32 157 -952 L 157 -1046 Q 157 -1792 349 -1792 Q 363 -1792 387 -1784 Q 472 -1755 555 -1747 Q 605 -1736 656 -1642 Q 712 -1546 740 -1388 Q 768 -1230 768 -1065 L 763 -1051 Q 763 -963 765 -893 L 768 -733 Q 768 -597 757 -487 Q 741 -321 704 -201 Q 680 -128 649 -80 Q 619 -32 573 0 Q 531 32 469 32 M 459 -48 Q 563 -48 613 -194 Q 664 -343 675 -497 Q 685 -656 685 -752 Q 685 -858 669 -1065 Q 656 -1297 656 -1379 L 645 -1400 L 651 -1414 Q 651 -1535 585 -1623 Q 520 -1712 427 -1712 Q 304 -1712 280 -1589 Q 275 -1547 269 -1469 Q 269 -1273 253 -1201 Q 253 -1161 245 -1076 L 240 -951 Q 240 -893 243 -848 L 245 -741 Q 245 -616 267 -454 Q 283 -335 304 -252 Q 325 -170 365 -112 Q 405 -48 459 -48 Z"/>
</g>
</svg>