<svg xmlns="http://www.w3.org/2000/svg" xmlns:xlink="http://www.w3.org/1999/xlink" viewBox="0 0 13421 3092">
<title>Features</title>
<g transform="matrix(1,0,0,1,0,2816)">
  		<path character="F" fill="#A5834B" fill-opacity="1.0" stroke="none" stroke-width="10px" stroke-linecap="butt" stroke-opacity="1.0" transform="matrix(1,0,0,1,0,0)" d="M 53 0 L 53 -589 L 187 -589 L 187 -1633 L 53 -1633 L 53 -2222 L 1758 -2222 L 1758 -1394 L 1176 -1394 L 1176 -1633 L 1043 -1633 L 1043 -1326 L 1446 -1326 L 1446 -896 L 1043 -896 L 1043 -589 L 1393 -589 L 1393 0 L 53 0 Z"/>
		<path character="e" fill="#A5834B" fill-opacity="1.0" stroke="none" stroke-width="10px" stroke-linecap="butt" stroke-opacity="1.0" transform="matrix(1,0,0,1,1792,0)" d="M 898 32 Q 498 32 267 -179 Q 37 -391 37 -791 Q 37 -1191 267 -1402 Q 498 -1614 898 -1614 Q 1299 -1614 1480 -1403 Q 1662 -1192 1662 -885 L 1662 -640 L 758 -680 L 798 -680 Q 798 -617 838 -587 Q 878 -557 996 -557 Q 1155 -557 1297 -578 Q 1440 -600 1617 -656 L 1617 -123 Q 1489 -53 1301 -10 Q 1114 32 898 32 M 1027 -1040 L 997 -1040 Q 997 -1086 976 -1103 Q 955 -1120 898 -1120 Q 840 -1120 819 -1102 Q 798 -1084 798 -1040 L 768 -1040 L 1027 -1040 Z"/>
		<path character="a" fill="#A5834B" fill-opacity="1.0" stroke="none" stroke-width="10px" stroke-linecap="butt" stroke-opacity="1.0" transform="matrix(1,0,0,1,3519,0)" d="M 1713 -589 L 1713 0 L 899 0 L 922 -144 Q 935 -122 817 -45 Q 700 32 532 32 Q 311 32 179 -88 Q 48 -209 48 -424 Q 48 -974 899 -974 Q 899 -978 856 -1001 Q 814 -1025 682 -1025 Q 567 -1025 434 -1001 Q 301 -978 117 -910 L 117 -1520 Q 303 -1568 471 -1591 Q 640 -1614 802 -1614 Q 1218 -1614 1407 -1463 Q 1596 -1312 1596 -1001 L 1596 -589 L 1713 -589 M 938 -680 Q 846 -641 802 -621 Q 758 -601 758 -568 Q 758 -551 769 -541 Q 780 -531 810 -531 Q 850 -531 874 -565 Q 899 -600 899 -680 L 938 -680 Z"/>
		<path character="t" fill="#A5834B" fill-opacity="1.0" stroke="none" stroke-width="10px" stroke-linecap="butt" stroke-opacity="1.0" transform="matrix(1,0,0,1,5311,0)" d="M 762 32 Q 458 32 298 -113 Q 139 -259 139 -591 L 139 -993 L 21 -993 L 21 -1582 Q 153 -1582 188 -1623 Q 224 -1664 224 -1745 L 224 -1934 L 899 -1934 L 899 -1582 L 1259 -1582 L 1259 -993 L 899 -993 L 899 -634 Q 899 -573 922 -550 Q 945 -527 999 -527 Q 1095 -527 1275 -562 L 1275 -59 Q 1161 -17 1029 7 Q 897 32 762 32 Z"/>
		<path character="u" fill="#A5834B" fill-opacity="1.0" stroke="none" stroke-width="10px" stroke-linecap="butt" stroke-opacity="1.0" transform="matrix(1,0,0,1,6655,0)" d="M 1913 -589 L 1913 0 L 1072 0 L 1072 -115 Q 963 32 647 32 Q 400 32 274 -117 Q 149 -266 149 -515 L 149 -993 L 32 -993 L 32 -1582 L 873 -1582 L 873 -696 Q 873 -635 895 -612 Q 918 -589 972 -589 Q 1029 -589 1050 -608 Q 1072 -628 1072 -678 L 1072 -993 L 928 -993 L 928 -1582 L 1796 -1582 L 1796 -589 L 1913 -589 Z"/>
		<path character="r" fill="#A5834B" fill-opacity="1.0" stroke="none" stroke-width="10px" stroke-linecap="butt" stroke-opacity="1.0" transform="matrix(1,0,0,1,8638,0)" d="M 1242 -1614 Q 1300 -1614 1353 -1604 Q 1407 -1594 1478 -1563 L 1478 -951 Q 1303 -1025 1188 -1025 Q 1041 -1025 967 -958 Q 894 -891 894 -752 L 894 -589 L 1134 -589 L 1134 0 L 53 0 L 53 -589 L 171 -589 L 171 -993 L 53 -993 L 53 -1582 L 894 -1582 L 880 -1454 Q 874 -1471 981 -1542 Q 1089 -1614 1242 -1614 Z"/>
		<path character="e" fill="#A5834B" fill-opacity="1.0" stroke="none" stroke-width="10px" stroke-linecap="butt" stroke-opacity="1.0" transform="matrix(1,0,0,1,10174,0)" d="M 898 32 Q 498 32 267 -179 Q 37 -391 37 -791 Q 37 -1191 267 -1402 Q 498 -1614 898 -1614 Q 1299 -1614 1480 -1403 Q 1662 -1192 1662 -885 L 1662 -640 L 758 -680 L 798 -680 Q 798 -617 838 -587 Q 878 -557 996 -557 Q 1155 -557 1297 -578 Q 1440 -600 1617 -656 L 1617 -123 Q 1489 -53 1301 -10 Q 1114 32 898 32 M 1027 -1040 L 997 -1040 Q 997 -1086 976 -1103 Q 955 -1120 898 -1120 Q 840 -1120 819 -1102 Q 798 -1084 798 -1040 L 768 -1040 L 1027 -1040 Z"/>
		<path character="s" fill="#A5834B" fill-opacity="1.0" stroke="none" stroke-width="10px" stroke-linecap="butt" stroke-opacity="1.0" transform="matrix(1,0,0,1,11901,0)" d="M 751 32 Q 407 32 48 -77 L 48 -558 L 590 -558 L 590 -475 Q 590 -398 698 -398 Q 787 -398 787 -442 Q 787 -466 762 -481 Q 738 -497 645 -514 L 512 -538 Q 48 -621 48 -1069 Q 48 -1330 242 -1472 Q 437 -1614 754 -1614 Q 1099 -1614 1371 -1489 L 1371 -1042 L 856 -1042 L 856 -1125 Q 856 -1155 838 -1169 Q 820 -1184 770 -1184 Q 691 -1184 691 -1153 Q 691 -1138 711 -1125 Q 732 -1112 821 -1092 L 972 -1063 Q 1229 -1013 1343 -875 Q 1457 -737 1457 -524 Q 1457 -253 1269 -110 Q 1081 32 751 32 Z"/>
</g>
</svg>