<svg xmlns="http://www.w3.org/2000/svg" xmlns:xlink="http://www.w3.org/1999/xlink" viewBox="0 0 6839 2797">
<title>Features</title>
<g transform="matrix(1,0,0,1,0,2752)">
  		<path character="F" fill="#EA8872" fill-opacity="1.0" stroke="none" stroke-width="10px" stroke-linecap="butt" stroke-opacity="1.0" transform="matrix(1,0,0,1,-128,0)" d="M 351 0 Q 253 0 253 -125 L 253 -325 L 245 -488 Q 221 -934 221 -1144 Q 221 -1257 192 -1852 Q 187 -1981 184 -2018 Q 181 -2055 181 -2060 L 181 -2079 Q 181 -2144 258 -2158 Q 279 -2158 356 -2158 L 415 -2158 L 490 -2158 Q 541 -2158 564 -2122 Q 587 -2087 587 -2047 Q 587 -1968 484 -1968 L 423 -1968 L 354 -1968 Q 351 -1989 364 -1990 Q 377 -1991 377 -1971 Q 377 -1918 395 -1579 Q 414 -1236 391 -1209 Q 384 -1232 436 -1246 Q 504 -1264 540 -1264 Q 587 -1264 611 -1225 Q 635 -1186 635 -1153 Q 635 -1079 568 -1063 Q 501 -1048 419 -1048 Q 388 -1070 414 -1070 Q 414 -950 441 -618 Q 465 -312 465 -139 L 435 -139 Q 465 -134 465 -107 Q 465 0 351 0 Z"/>
		<path character="e" fill="#EA8872" fill-opacity="1.0" stroke="none" stroke-width="10px" stroke-linecap="butt" stroke-opacity="1.0" transform="matrix(1,0,0,1,696,0)" d="M 298 0 Q 201 0 189 -108 L 189 -153 Q 192 -166 208 -163 L 172 -177 Q 203 -256 203 -300 Q 203 -359 195 -473 L 189 -652 Q 189 -788 197 -1057 Q 208 -1294 208 -1458 L 203 -1617 Q 197 -1688 197 -1775 Q 197 -1838 233 -1870 Q 269 -1902 330 -1902 Q 378 -1902 400 -1872 Q 389 -1866 456 -1877 Q 528 -1868 580 -1852 Q 670 -1825 670 -1761 Q 670 -1702 567 -1651 Q 402 -1712 374 -1722 L 392 -1733 Q 393 -1723 393 -1630 Q 393 -1514 387 -1424 Q 385 -1332 385 -1219 Q 367 -1182 367 -1200 L 410 -1200 Q 431 -1200 455 -1200 Q 614 -1200 614 -1112 Q 614 -1069 584 -1039 Q 555 -1010 506 -1010 Q 449 -1010 424 -1027 L 356 -1034 L 359 -1045 L 347 -1072 L 387 -1075 Q 393 -1028 393 -853 Q 393 -744 390 -656 L 387 -460 Q 387 -354 395 -242 Q 397 -202 404 -196 Q 411 -190 455 -190 L 503 -190 Q 527 -190 556 -190 Q 689 -190 689 -101 Q 689 0 516 0 L 298 0 Z"/>
		<path character="a" fill="#EA8872" fill-opacity="1.0" stroke="none" stroke-width="10px" stroke-linecap="butt" stroke-opacity="1.0" transform="matrix(1,0,0,1,1520,0)" d="M 784 0 Q 711 0 685 -23 Q 659 -47 651 -108 Q 627 -309 621 -358 L 613 -430 Q 598 -434 530 -434 L 434 -434 Q 370 -434 340 -434 Q 337 -474 377 -472 Q 377 -413 322 -465 L 369 -413 Q 366 -360 338 -208 Q 324 -126 302 -79 Q 267 0 212 0 Q 177 0 140 -28 Q 104 -57 104 -110 L 109 -124 L 111 -129 Q 158 -317 190 -503 L 222 -668 L 254 -871 Q 254 -871 284 -1048 Q 297 -1121 332 -1281 Q 369 -1461 377 -1532 Q 380 -1539 387 -1622 Q 397 -1726 406 -1775 Q 415 -1857 448 -1902 L 495 -1902 Q 503 -1902 514 -1902 Q 524 -1902 540 -1917 Q 599 -1917 632 -1890 Q 665 -1864 665 -1822 Q 665 -1697 683 -1534 Q 694 -1448 699 -1391 Q 729 -1047 849 -95 L 849 -86 Q 849 -30 784 0 M 623 -594 Q 568 -934 548 -1662 L 458 -964 Q 398 -673 398 -602 Q 357 -602 453 -613 Q 549 -624 623 -624 L 623 -594 Z"/>
		<path character="t" fill="#EA8872" fill-opacity="1.0" stroke="none" stroke-width="10px" stroke-linecap="butt" stroke-opacity="1.0" transform="matrix(1,0,0,1,2472,0)" d="M 369 -64 L 365 -191 Q 363 -235 363 -290 Q 363 -320 365 -340 L 368 -386 Q 368 -403 357 -441 Q 357 -629 331 -1119 Q 304 -1595 302 -1712 Q 186 -1712 120 -1725 Q 27 -1758 27 -1867 Q 78 -1902 132 -1902 Q 212 -1902 364 -1902 Q 503 -1902 596 -1902 L 652 -1902 L 708 -1902 Q 811 -1902 811 -1800 Q 811 -1752 773 -1732 Q 736 -1712 698 -1712 Q 644 -1712 586 -1712 L 471 -1712 Q 468 -1759 515 -1752 Q 513 -1744 513 -1708 Q 513 -1448 545 -917 Q 574 -364 574 -123 Q 574 -76 533 -46 Q 492 -17 434 -17 L 369 -64 Z"/>
		<path character="u" fill="#EA8872" fill-opacity="1.0" stroke="none" stroke-width="10px" stroke-linecap="butt" stroke-opacity="1.0" transform="matrix(1,0,0,1,3360,0)" d="M 527 0 Q 469 0 409 -34 Q 350 -68 311 -114 Q 263 -176 241 -407 Q 219 -638 213 -927 Q 213 -990 211 -1022 Q 205 -1688 187 -1822 L 226 -1911 Q 377 -1891 377 -1705 L 385 -1001 Q 385 -929 398 -724 Q 414 -536 414 -438 Q 414 -190 559 -190 Q 630 -190 661 -696 L 664 -748 Q 683 -1477 683 -1824 L 681 -1840 Q 677 -1855 677 -1875 Q 677 -1966 778 -1966 Q 844 -1966 871 -1913 Q 878 -1873 878 -1800 Q 878 -1588 863 -1523 L 865 -1513 Q 865 -1471 857 -1397 L 851 -1294 L 851 -1276 Q 854 -1265 854 -1240 Q 849 -1176 849 -1115 Q 846 -1096 846 -1059 Q 841 -805 835 -617 Q 827 -377 768 -208 Q 697 0 527 0 Z"/>
		<path character="r" fill="#EA8872" fill-opacity="1.0" stroke="none" stroke-width="10px" stroke-linecap="butt" stroke-opacity="1.0" transform="matrix(1,0,0,1,4440,0)" d="M 624 11 Q 573 -44 533 -201 Q 494 -358 462 -547 Q 441 -696 402 -842 Q 394 -952 394 -934 L 386 -934 Q 364 -952 382 -952 Q 382 -763 403 -378 Q 414 -148 431 -94 L 385 0 L 294 0 L 238 -48 Q 195 -1299 195 -1746 Q 195 -1781 201 -1808 Q 207 -1836 226 -1859 Q 250 -1902 308 -1902 Q 463 -1902 564 -1820 Q 665 -1739 665 -1587 L 665 -1392 Q 665 -1331 629 -1239 Q 593 -1147 551 -1072 L 526 -1023 Q 552 -907 638 -557 Q 724 -207 689 -177 Q 728 -203 734 -186 Q 740 -169 751 -151 Q 777 -100 777 -60 Q 777 32 683 32 L 624 11 M 348 -1071 Q 364 -1109 392 -1145 Q 421 -1181 442 -1249 Q 483 -1402 483 -1490 Q 483 -1546 477 -1581 Q 471 -1616 456 -1657 Q 437 -1712 356 -1712 Q 356 -1749 369 -1731 Q 382 -1713 382 -1698 Q 382 -1523 387 -1381 Q 390 -1238 357 -1068 L 348 -1071 Z"/>
		<path character="e" fill="#EA8872" fill-opacity="1.0" stroke="none" stroke-width="10px" stroke-linecap="butt" stroke-opacity="1.0" transform="matrix(1,0,0,1,5328,0)" d="M 298 0 Q 201 0 189 -108 L 189 -153 Q 192 -166 208 -163 L 172 -177 Q 203 -256 203 -300 Q 203 -359 195 -473 L 189 -652 Q 189 -788 197 -1057 Q 208 -1294 208 -1458 L 203 -1617 Q 197 -1688 197 -1775 Q 197 -1838 233 -1870 Q 269 -1902 330 -1902 Q 378 -1902 400 -1872 Q 389 -1866 456 -1877 Q 528 -1868 580 -1852 Q 670 -1825 670 -1761 Q 670 -1702 567 -1651 Q 402 -1712 374 -1722 L 392 -1733 Q 393 -1723 393 -1630 Q 393 -1514 387 -1424 Q 385 -1332 385 -1219 Q 367 -1182 367 -1200 L 410 -1200 Q 431 -1200 455 -1200 Q 614 -1200 614 -1112 Q 614 -1069 584 -1039 Q 555 -1010 506 -1010 Q 449 -1010 424 -1027 L 356 -1034 L 359 -1045 L 347 -1072 L 387 -1075 Q 393 -1028 393 -853 Q 393 -744 390 -656 L 387 -460 Q 387 -354 395 -242 Q 397 -202 404 -196 Q 411 -190 455 -190 L 503 -190 Q 527 -190 556 -190 Q 689 -190 689 -101 Q 689 0 516 0 L 298 0 Z"/>
		<path character="s" fill="#EA8872" fill-opacity="1.0" stroke="none" stroke-width="10px" stroke-linecap="butt" stroke-opacity="1.0" transform="matrix(1,0,0,1,6152,0)" d="M 276 0 Q 227 0 184 -36 Q 141 -73 134 -144 L 173 -207 Q 220 -207 266 -198 Q 291 -190 300 -190 Q 336 -190 369 -223 Q 402 -256 421 -314 Q 456 -440 456 -553 Q 456 -718 351 -910 Q 282 -1029 243 -1101 Q 204 -1174 174 -1270 Q 136 -1384 136 -1492 Q 136 -1595 188 -1732 Q 217 -1805 274 -1853 Q 331 -1902 402 -1902 Q 454 -1902 506 -1864 Q 558 -1827 558 -1772 Q 558 -1685 468 -1685 Q 437 -1685 407 -1712 Q 412 -1728 412 -1712 Q 395 -1712 375 -1693 Q 356 -1674 344 -1637 Q 315 -1548 315 -1476 Q 315 -1433 328 -1385 Q 330 -1369 333 -1357 Q 337 -1345 316 -1337 L 351 -1294 L 363 -1251 L 382 -1207 Q 388 -1193 396 -1180 Q 405 -1167 414 -1153 L 445 -1099 Q 456 -1084 492 -1022 Q 528 -961 558 -893 Q 587 -835 601 -782 Q 616 -729 627 -657 Q 635 -588 635 -506 Q 635 -372 598 -252 Q 543 -101 435 -39 Q 371 0 290 0 L 276 0 M 487 -1765 Q 487 -1762 490 -1762 L 490 -1765 L 487 -1765 Z"/>
</g>
</svg>