<svg xmlns="http://www.w3.org/2000/svg" xmlns:xlink="http://www.w3.org/1999/xlink" viewBox="0 0 11757 3092">
<title>Options</title>
<g transform="matrix(1,0,0,1,0,2816)">
  		<path character="O" fill="#A5834B" fill-opacity="1.0" stroke="none" stroke-width="10px" stroke-linecap="butt" stroke-opacity="1.0" transform="matrix(1,0,0,1,0,0)" d="M 1111 32 Q 601 32 319 -243 Q 37 -518 37 -1111 Q 37 -1704 319 -1979 Q 601 -2254 1111 -2254 Q 1621 -2254 1903 -1979 Q 2185 -1704 2185 -1111 Q 2185 -518 1903 -243 Q 1621 32 1111 32 M 1111 -557 Q 1178 -557 1207 -589 Q 1237 -621 1237 -702 L 1237 -1520 Q 1237 -1601 1207 -1633 Q 1178 -1665 1111 -1665 Q 1044 -1665 1014 -1633 Q 985 -1601 985 -1520 L 985 -702 Q 985 -619 1014 -588 Q 1044 -557 1111 -557 Z"/>
		<path character="p" fill="#A5834B" fill-opacity="1.0" stroke="none" stroke-width="10px" stroke-linecap="butt" stroke-opacity="1.0" transform="matrix(1,0,0,1,2240,0)" d="M 37 -13 L 155 -13 L 155 -993 L 37 -993 L 37 -1582 L 878 -1582 L 860 -1440 Q 851 -1458 967 -1536 Q 1083 -1614 1236 -1614 Q 1538 -1614 1688 -1395 Q 1838 -1176 1838 -791 Q 1838 -406 1688 -187 Q 1538 32 1236 32 Q 1085 32 969 -36 Q 854 -104 861 -123 L 878 -13 L 1062 -13 L 1062 576 L 37 576 L 37 -13 M 978 -527 Q 1032 -527 1054 -550 Q 1077 -573 1077 -634 L 1077 -886 Q 1077 -947 1054 -970 Q 1032 -993 978 -993 Q 923 -993 900 -970 Q 878 -947 878 -886 L 878 -634 Q 878 -573 900 -550 Q 923 -527 978 -527 Z"/>
		<path character="t" fill="#A5834B" fill-opacity="1.0" stroke="none" stroke-width="10px" stroke-linecap="butt" stroke-opacity="1.0" transform="matrix(1,0,0,1,4095,0)" d="M 762 32 Q 458 32 298 -113 Q 139 -259 139 -591 L 139 -993 L 21 -993 L 21 -1582 Q 153 -1582 188 -1623 Q 224 -1664 224 -1745 L 224 -1934 L 899 -1934 L 899 -1582 L 1259 -1582 L 1259 -993 L 899 -993 L 899 -634 Q 899 -573 922 -550 Q 945 -527 999 -527 Q 1095 -527 1275 -562 L 1275 -59 Q 1161 -17 1029 7 Q 897 32 762 32 Z"/>
		<path character="i" fill="#A5834B" fill-opacity="1.0" stroke="none" stroke-width="10px" stroke-linecap="butt" stroke-opacity="1.0" transform="matrix(1,0,0,1,5439,0)" d="M 176 -1633 L 176 -2222 L 830 -2222 L 830 -1633 L 176 -1633 M 48 0 L 48 -589 L 165 -589 L 165 -993 L 48 -993 L 48 -1582 L 889 -1582 L 889 -589 L 1006 -589 L 1006 0 L 48 0 Z"/>
		<path character="o" fill="#A5834B" fill-opacity="1.0" stroke="none" stroke-width="10px" stroke-linecap="butt" stroke-opacity="1.0" transform="matrix(1,0,0,1,6463,0)" d="M 898 32 Q 498 32 267 -179 Q 37 -391 37 -791 Q 37 -1191 267 -1402 Q 498 -1614 898 -1614 Q 1304 -1614 1531 -1400 Q 1758 -1186 1758 -791 Q 1758 -391 1527 -179 Q 1297 32 898 32 M 898 -557 Q 952 -557 974 -580 Q 997 -603 997 -664 L 997 -918 Q 997 -979 974 -1002 Q 952 -1025 898 -1025 Q 843 -1025 820 -1002 Q 798 -979 798 -918 L 798 -664 Q 798 -603 820 -580 Q 843 -557 898 -557 Z"/>
		<path character="n" fill="#A5834B" fill-opacity="1.0" stroke="none" stroke-width="10px" stroke-linecap="butt" stroke-opacity="1.0" transform="matrix(1,0,0,1,8254,0)" d="M 1929 -589 L 1929 0 L 976 0 L 976 -589 L 1088 -589 L 1088 -927 Q 1088 -983 1066 -1004 Q 1045 -1025 994 -1025 Q 889 -1025 889 -927 L 889 -589 L 1001 -589 L 1001 0 L 48 0 L 48 -589 L 165 -589 L 165 -1025 L 48 -1025 L 48 -1582 L 889 -1582 L 889 -1473 Q 999 -1614 1314 -1614 Q 1561 -1614 1686 -1465 Q 1812 -1316 1812 -1067 L 1812 -589 L 1929 -589 Z"/>
		<path character="s" fill="#A5834B" fill-opacity="1.0" stroke="none" stroke-width="10px" stroke-linecap="butt" stroke-opacity="1.0" transform="matrix(1,0,0,1,10238,0)" d="M 751 32 Q 407 32 48 -77 L 48 -558 L 590 -558 L 590 -475 Q 590 -398 698 -398 Q 787 -398 787 -442 Q 787 -466 762 -481 Q 738 -497 645 -514 L 512 -538 Q 48 -621 48 -1069 Q 48 -1330 242 -1472 Q 437 -1614 754 -1614 Q 1099 -1614 1371 -1489 L 1371 -1042 L 856 -1042 L 856 -1125 Q 856 -1155 838 -1169 Q 820 -1184 770 -1184 Q 691 -1184 691 -1153 Q 691 -1138 711 -1125 Q 732 -1112 821 -1092 L 972 -1063 Q 1229 -1013 1343 -875 Q 1457 -737 1457 -524 Q 1457 -253 1269 -110 Q 1081 32 751 32 Z"/>
</g>
</svg>