<svg xmlns="http://www.w3.org/2000/svg" xmlns:xlink="http://www.w3.org/1999/xlink" viewBox="0 0 6463 2797">
<title>Options</title>
<g transform="matrix(1,0,0,1,0,2752)">
  		<path character="O" fill="#A5834B" fill-opacity="1.0" stroke="none" stroke-width="10px" stroke-linecap="butt" stroke-opacity="1.0" transform="matrix(1,0,0,1,-128,0)" d="M 588 64 Q 163 64 163 -1300 L 163 -1409 Q 163 -1641 190 -1814 Q 207 -1927 238 -2004 Q 270 -2081 327 -2129 Q 387 -2190 482 -2190 Q 559 -2190 622 -2158 Q 686 -2127 730 -2077 Q 765 -2031 791 -1963 Q 817 -1895 832 -1833 L 853 -1702 Q 918 -1233 918 -870 L 918 -862 Q 918 -725 913 -609 Q 907 -469 882 -318 Q 872 -239 850 -179 Q 828 -119 794 -61 Q 722 64 588 64 M 594 -126 Q 607 -126 630 -159 Q 654 -193 670 -272 Q 712 -457 723 -634 Q 728 -777 728 -914 L 728 -925 L 725 -1194 Q 720 -1337 693 -1567 Q 673 -1725 609 -1892 Q 588 -1946 557 -1973 Q 526 -2000 495 -2000 Q 476 -2000 453 -1971 Q 430 -1943 412 -1876 Q 366 -1701 361 -1552 Q 353 -1421 353 -1282 L 353 -1149 Q 353 -971 387 -697 Q 408 -524 438 -400 Q 469 -276 519 -193 Q 556 -126 594 -126 Z"/>
		<path character="p" fill="#A5834B" fill-opacity="1.0" stroke="none" stroke-width="10px" stroke-linecap="butt" stroke-opacity="1.0" transform="matrix(1,0,0,1,952,0)" d="M 234 22 Q 200 -180 200 -407 Q 200 -495 208 -663 L 213 -903 Q 195 -941 195 -992 Q 221 -1037 221 -1236 Q 221 -1738 204 -1782 Q 249 -1902 300 -1902 L 418 -1902 Q 461 -1902 524 -1867 Q 587 -1833 631 -1796 Q 715 -1714 715 -1426 Q 715 -1280 707 -1203 Q 701 -1142 686 -1105 Q 672 -1068 646 -1025 Q 597 -948 489 -894 Q 445 -869 406 -857 L 406 -573 Q 406 -507 419 -309 L 425 -221 L 430 -41 Q 430 64 310 64 L 234 22 M 399 -1058 Q 419 -1058 455 -1109 Q 469 -1131 483 -1171 Q 497 -1212 502 -1253 Q 517 -1330 517 -1431 L 517 -1506 Q 517 -1543 514 -1576 Q 512 -1609 506 -1635 Q 498 -1661 487 -1676 Q 477 -1692 458 -1701 Q 438 -1712 407 -1712 Q 401 -1712 402 -1713 Q 403 -1714 403 -1692 Q 403 -1627 411 -1493 L 417 -1291 Q 417 -1215 411 -1155 L 407 -1046 L 399 -1058 Z"/>
		<path character="t" fill="#A5834B" fill-opacity="1.0" stroke="none" stroke-width="10px" stroke-linecap="butt" stroke-opacity="1.0" transform="matrix(1,0,0,1,1776,0)" d="M 369 -64 L 365 -191 Q 363 -235 363 -290 Q 363 -320 365 -340 L 368 -386 Q 368 -403 357 -441 Q 357 -629 331 -1119 Q 304 -1595 302 -1712 Q 186 -1712 120 -1725 Q 27 -1758 27 -1867 Q 78 -1902 132 -1902 Q 212 -1902 364 -1902 Q 503 -1902 596 -1902 L 652 -1902 L 708 -1902 Q 811 -1902 811 -1800 Q 811 -1752 773 -1732 Q 736 -1712 698 -1712 Q 644 -1712 586 -1712 L 471 -1712 Q 468 -1759 515 -1752 Q 513 -1744 513 -1708 Q 513 -1448 545 -917 Q 574 -364 574 -123 Q 574 -76 533 -46 Q 492 -17 434 -17 L 369 -64 Z"/>
		<path character="i" fill="#A5834B" fill-opacity="1.0" stroke="none" stroke-width="10px" stroke-linecap="butt" stroke-opacity="1.0" transform="matrix(1,0,0,1,2664,0)" d="M 391 0 Q 285 0 306 -92 Q 315 -58 308 -50 L 276 -50 Q 185 -50 147 -121 Q 147 -185 186 -212 L 211 -240 L 299 -219 L 274 -223 L 275 -228 L 277 -253 Q 277 -411 269 -537 L 264 -637 L 259 -831 Q 259 -937 267 -1145 L 272 -1451 Q 272 -1650 278 -1729 Q 281 -1712 234 -1712 L 204 -1712 Q 188 -1712 170 -1712 Q 64 -1712 64 -1812 Q 64 -1859 109 -1880 Q 155 -1902 183 -1902 Q 284 -1902 386 -1902 Q 458 -1902 529 -1872 Q 611 -1839 611 -1767 Q 611 -1749 587 -1689 L 457 -1674 Q 436 -1712 425 -1712 L 420 -1750 Q 459 -1744 459 -1616 Q 459 -1439 457 -1296 L 451 -976 Q 451 -858 462 -687 Q 470 -488 470 -388 L 470 -349 Q 467 -330 467 -305 Q 467 -258 481 -233 L 444 -219 Q 457 -224 476 -240 Q 500 -240 516 -240 L 556 -240 Q 689 -240 689 -152 Q 689 -105 655 -77 Q 622 -50 575 -50 Q 551 -50 532 -50 Q 511 -50 487 -50 Q 487 -55 473 -39 Q 427 0 391 0 Z"/>
		<path character="o" fill="#A5834B" fill-opacity="1.0" stroke="none" stroke-width="10px" stroke-linecap="butt" stroke-opacity="1.0" transform="matrix(1,0,0,1,3424,0)" d="M 524 32 Q 157 32 157 -1007 L 157 -1101 Q 157 -1902 404 -1902 Q 427 -1902 460 -1891 Q 539 -1864 619 -1856 Q 696 -1839 759 -1724 Q 819 -1620 848 -1455 Q 878 -1290 878 -1110 L 873 -1096 Q 873 -1019 875 -949 L 878 -789 Q 878 -649 867 -537 Q 850 -365 811 -239 Q 785 -159 749 -103 Q 714 -48 660 -11 Q 605 32 524 32 M 514 -158 Q 579 -158 616 -267 Q 665 -409 675 -556 Q 685 -713 685 -807 Q 685 -911 669 -1116 Q 656 -1350 656 -1420 L 639 -1453 L 651 -1480 Q 651 -1572 599 -1642 Q 547 -1712 482 -1712 Q 404 -1712 389 -1635 Q 385 -1597 379 -1522 Q 379 -1322 363 -1250 Q 363 -1213 355 -1127 L 350 -1005 Q 350 -950 353 -905 L 355 -797 Q 355 -675 377 -516 Q 392 -400 411 -324 Q 431 -248 466 -197 Q 490 -158 514 -158 Z"/>
		<path character="n" fill="#A5834B" fill-opacity="1.0" stroke="none" stroke-width="10px" stroke-linecap="butt" stroke-opacity="1.0" transform="matrix(1,0,0,1,4440,0)" d="M 935 -10 Q 875 -10 855 -43 Q 836 -76 825 -119 Q 823 -135 808 -164 L 836 -178 Q 797 -285 728 -462 L 706 -603 Q 679 -595 630 -738 L 608 -803 Q 372 -1533 381 -1539 Q 393 -1543 393 -1435 Q 393 -1373 395 -1328 L 398 -1221 L 395 -1153 Q 393 -1124 393 -1091 Q 393 -1035 398 -994 Q 406 -848 406 -848 L 348 -895 Q 395 -464 414 -418 L 414 -177 Q 425 -155 425 -107 Q 425 -64 394 -32 Q 363 0 319 0 Q 208 0 208 -201 L 213 -291 Q 219 -329 219 -373 Q 219 -500 211 -755 Q 203 -1012 203 -1141 Q 203 -1219 211 -1382 Q 219 -1537 219 -1613 L 219 -1648 Q 219 -1805 325 -1893 L 337 -1833 L 358 -1872 Q 396 -1862 419 -1839 Q 446 -1812 446 -1784 L 451 -1768 Q 424 -1760 438 -1761 Q 452 -1763 452 -1763 Q 494 -1574 642 -1238 Q 795 -875 833 -754 Q 860 -659 877 -585 Q 926 -366 943 -233 L 910 -244 Q 955 -833 955 -1700 L 953 -1726 Q 949 -1742 949 -1770 Q 949 -1902 1042 -1902 Q 1096 -1902 1125 -1856 Q 1155 -1811 1155 -1762 L 1155 -1551 L 1142 -1530 Q 1142 -1291 1112 -705 Q 1082 -120 1039 -36 L 959 -71 L 1011 62 L 953 -67 L 935 -10 Z"/>
		<path character="s" fill="#A5834B" fill-opacity="1.0" stroke="none" stroke-width="10px" stroke-linecap="butt" stroke-opacity="1.0" transform="matrix(1,0,0,1,5776,0)" d="M 276 0 Q 227 0 184 -36 Q 141 -73 134 -144 L 173 -207 Q 220 -207 266 -198 Q 291 -190 300 -190 Q 336 -190 369 -223 Q 402 -256 421 -314 Q 456 -440 456 -553 Q 456 -718 351 -910 Q 282 -1029 243 -1101 Q 204 -1174 174 -1270 Q 136 -1384 136 -1492 Q 136 -1595 188 -1732 Q 217 -1805 274 -1853 Q 331 -1902 402 -1902 Q 454 -1902 506 -1864 Q 558 -1827 558 -1772 Q 558 -1685 468 -1685 Q 437 -1685 407 -1712 Q 412 -1728 412 -1712 Q 395 -1712 375 -1693 Q 356 -1674 344 -1637 Q 315 -1548 315 -1476 Q 315 -1433 328 -1385 Q 330 -1369 333 -1357 Q 337 -1345 316 -1337 L 351 -1294 L 363 -1251 L 382 -1207 Q 388 -1193 396 -1180 Q 405 -1167 414 -1153 L 445 -1099 Q 456 -1084 492 -1022 Q 528 -961 558 -893 Q 587 -835 601 -782 Q 616 -729 627 -657 Q 635 -588 635 -506 Q 635 -372 598 -252 Q 543 -101 435 -39 Q 371 0 290 0 L 276 0 M 487 -1765 Q 487 -1762 490 -1762 L 490 -1765 L 487 -1765 Z"/>
</g>
</svg>