<svg xmlns="http://www.w3.org/2000/svg" xmlns:xlink="http://www.w3.org/1999/xlink" viewBox="0 0 9319 2797">
<title>Parameters</title>
<g transform="matrix(1,0,0,1,0,2752)">
  		<path character="P" fill="#A5834B" fill-opacity="1.0" stroke="none" stroke-width="10px" stroke-linecap="butt" stroke-opacity="1.0" transform="matrix(1,0,0,1,-128,0)" d="M 290 0 Q 203 0 203 -149 Q 203 -283 200 -389 L 195 -631 L 195 -850 Q 192 -947 192 -1070 Q 192 -1430 179 -1737 L 176 -1834 Q 168 -1994 168 -2113 L 184 -2135 Q 188 -2143 212 -2137 Q 198 -2174 238 -2172 Q 245 -2190 274 -2190 Q 382 -2190 470 -2139 Q 558 -2089 613 -2002 Q 715 -1840 715 -1634 Q 715 -1504 674 -1368 Q 633 -1233 550 -1122 Q 458 -994 383 -980 L 387 -728 L 393 -582 Q 403 -323 403 -139 Q 403 -80 379 -40 Q 355 0 290 0 M 333 -1141 Q 330 -1180 344 -1191 Q 359 -1172 352 -1203 Q 352 -1203 372 -1225 Q 531 -1386 531 -1628 Q 531 -1767 477 -1886 Q 452 -1939 404 -1969 Q 356 -2000 345 -2000 Q 345 -1902 361 -1596 Q 377 -1285 339 -1137 L 333 -1141 Z"/>
		<path character="a" fill="#A5834B" fill-opacity="1.0" stroke="none" stroke-width="10px" stroke-linecap="butt" stroke-opacity="1.0" transform="matrix(1,0,0,1,760,0)" d="M 784 0 Q 711 0 685 -23 Q 659 -47 651 -108 Q 627 -309 621 -358 L 613 -430 Q 598 -434 530 -434 L 434 -434 Q 370 -434 340 -434 Q 337 -474 377 -472 Q 377 -413 322 -465 L 369 -413 Q 366 -360 338 -208 Q 324 -126 302 -79 Q 267 0 212 0 Q 177 0 140 -28 Q 104 -57 104 -110 L 109 -124 L 111 -129 Q 158 -317 190 -503 L 222 -668 L 254 -871 Q 254 -871 284 -1048 Q 297 -1121 332 -1281 Q 369 -1461 377 -1532 Q 380 -1539 387 -1622 Q 397 -1726 406 -1775 Q 415 -1857 448 -1902 L 495 -1902 Q 503 -1902 514 -1902 Q 524 -1902 540 -1917 Q 599 -1917 632 -1890 Q 665 -1864 665 -1822 Q 665 -1697 683 -1534 Q 694 -1448 699 -1391 Q 729 -1047 849 -95 L 849 -86 Q 849 -30 784 0 M 623 -594 Q 568 -934 548 -1662 L 458 -964 Q 398 -673 398 -602 Q 357 -602 453 -613 Q 549 -624 623 -624 L 623 -594 Z"/>
		<path character="r" fill="#A5834B" fill-opacity="1.0" stroke="none" stroke-width="10px" stroke-linecap="butt" stroke-opacity="1.0" transform="matrix(1,0,0,1,1712,0)" d="M 624 11 Q 573 -44 533 -201 Q 494 -358 462 -547 Q 441 -696 402 -842 Q 394 -952 394 -934 L 386 -934 Q 364 -952 382 -952 Q 382 -763 403 -378 Q 414 -148 431 -94 L 385 0 L 294 0 L 238 -48 Q 195 -1299 195 -1746 Q 195 -1781 201 -1808 Q 207 -1836 226 -1859 Q 250 -1902 308 -1902 Q 463 -1902 564 -1820 Q 665 -1739 665 -1587 L 665 -1392 Q 665 -1331 629 -1239 Q 593 -1147 551 -1072 L 526 -1023 Q 552 -907 638 -557 Q 724 -207 689 -177 Q 728 -203 734 -186 Q 740 -169 751 -151 Q 777 -100 777 -60 Q 777 32 683 32 L 624 11 M 348 -1071 Q 364 -1109 392 -1145 Q 421 -1181 442 -1249 Q 483 -1402 483 -1490 Q 483 -1546 477 -1581 Q 471 -1616 456 -1657 Q 437 -1712 356 -1712 Q 356 -1749 369 -1731 Q 382 -1713 382 -1698 Q 382 -1523 387 -1381 Q 390 -1238 357 -1068 L 348 -1071 Z"/>
		<path character="a" fill="#A5834B" fill-opacity="1.0" stroke="none" stroke-width="10px" stroke-linecap="butt" stroke-opacity="1.0" transform="matrix(1,0,0,1,2600,0)" d="M 784 0 Q 711 0 685 -23 Q 659 -47 651 -108 Q 627 -309 621 -358 L 613 -430 Q 598 -434 530 -434 L 434 -434 Q 370 -434 340 -434 Q 337 -474 377 -472 Q 377 -413 322 -465 L 369 -413 Q 366 -360 338 -208 Q 324 -126 302 -79 Q 267 0 212 0 Q 177 0 140 -28 Q 104 -57 104 -110 L 109 -124 L 111 -129 Q 158 -317 190 -503 L 222 -668 L 254 -871 Q 254 -871 284 -1048 Q 297 -1121 332 -1281 Q 369 -1461 377 -1532 Q 380 -1539 387 -1622 Q 397 -1726 406 -1775 Q 415 -1857 448 -1902 L 495 -1902 Q 503 -1902 514 -1902 Q 524 -1902 540 -1917 Q 599 -1917 632 -1890 Q 665 -1864 665 -1822 Q 665 -1697 683 -1534 Q 694 -1448 699 -1391 Q 729 -1047 849 -95 L 849 -86 Q 849 -30 784 0 M 623 -594 Q 568 -934 548 -1662 L 458 -964 Q 398 -673 398 -602 Q 357 -602 453 -613 Q 549 -624 623 -624 L 623 -594 Z"/>
		<path character="m" fill="#A5834B" fill-opacity="1.0" stroke="none" stroke-width="10px" stroke-linecap="butt" stroke-opacity="1.0" transform="matrix(1,0,0,1,3552,0)" d="M 1300 127 Q 1192 127 1192 -99 L 1192 -276 Q 1192 -659 1176 -874 L 1168 -969 Q 1157 -1039 1157 -1094 Q 1157 -1187 1163 -1263 L 1168 -1427 Q 1168 -1502 1194 -1502 Q 1207 -1481 945 -422 L 942 -385 Q 933 -312 919 -268 Q 907 -227 879 -197 Q 852 -168 810 -168 Q 742 -168 708 -207 Q 675 -246 675 -311 Q 675 -376 608 -672 Q 541 -969 464 -1238 Q 387 -1507 423 -1523 Q 459 -1470 441 -1123 Q 403 -512 403 -164 L 406 -49 Q 380 32 295 32 Q 268 32 231 3 Q 195 -25 195 -60 Q 195 -301 237 -904 Q 277 -1461 277 -1738 Q 277 -1746 275 -1751 Q 264 -1778 264 -1799 Q 264 -1902 388 -1902 Q 480 -1902 496 -1810 Q 507 -1743 507 -1711 L 510 -1684 Q 521 -1624 582 -1486 Q 635 -1369 663 -1279 Q 679 -1216 692 -1177 Q 736 -1019 748 -950 L 782 -881 Q 792 -835 815 -746 Q 840 -643 851 -575 Q 862 -508 823 -500 Q 785 -514 921 -1016 Q 1057 -1518 1083 -1666 Q 1112 -1661 1099 -1670 Q 1086 -1679 1089 -1696 Q 1094 -1734 1115 -1810 Q 1150 -1902 1231 -1902 Q 1267 -1902 1310 -1872 Q 1353 -1843 1353 -1798 Q 1353 -683 1387 -618 L 1387 -464 Q 1385 -403 1385 -324 Q 1385 -160 1357 -74 Q 1399 -100 1403 -84 Q 1407 -69 1409 -61 Q 1414 -43 1414 -23 Q 1414 23 1385 75 Q 1356 127 1300 127 M 1210 -1549 L 1212 -1539 L 1210 -1549 L 1209 -1551 L 1210 -1549 Z"/>
		<path character="e" fill="#A5834B" fill-opacity="1.0" stroke="none" stroke-width="10px" stroke-linecap="butt" stroke-opacity="1.0" transform="matrix(1,0,0,1,5208,0)" d="M 298 0 Q 201 0 189 -108 L 189 -153 Q 192 -166 208 -163 L 172 -177 Q 203 -256 203 -300 Q 203 -359 195 -473 L 189 -652 Q 189 -788 197 -1057 Q 208 -1294 208 -1458 L 203 -1617 Q 197 -1688 197 -1775 Q 197 -1838 233 -1870 Q 269 -1902 330 -1902 Q 378 -1902 400 -1872 Q 389 -1866 456 -1877 Q 528 -1868 580 -1852 Q 670 -1825 670 -1761 Q 670 -1702 567 -1651 Q 402 -1712 374 -1722 L 392 -1733 Q 393 -1723 393 -1630 Q 393 -1514 387 -1424 Q 385 -1332 385 -1219 Q 367 -1182 367 -1200 L 410 -1200 Q 431 -1200 455 -1200 Q 614 -1200 614 -1112 Q 614 -1069 584 -1039 Q 555 -1010 506 -1010 Q 449 -1010 424 -1027 L 356 -1034 L 359 -1045 L 347 -1072 L 387 -1075 Q 393 -1028 393 -853 Q 393 -744 390 -656 L 387 -460 Q 387 -354 395 -242 Q 397 -202 404 -196 Q 411 -190 455 -190 L 503 -190 Q 527 -190 556 -190 Q 689 -190 689 -101 Q 689 0 516 0 L 298 0 Z"/>
		<path character="t" fill="#A5834B" fill-opacity="1.0" stroke="none" stroke-width="10px" stroke-linecap="butt" stroke-opacity="1.0" transform="matrix(1,0,0,1,6032,0)" d="M 369 -64 L 365 -191 Q 363 -235 363 -290 Q 363 -320 365 -340 L 368 -386 Q 368 -403 357 -441 Q 357 -629 331 -1119 Q 304 -1595 302 -1712 Q 186 -1712 120 -1725 Q 27 -1758 27 -1867 Q 78 -1902 132 -1902 Q 212 -1902 364 -1902 Q 503 -1902 596 -1902 L 652 -1902 L 708 -1902 Q 811 -1902 811 -1800 Q 811 -1752 773 -1732 Q 736 -1712 698 -1712 Q 644 -1712 586 -1712 L 471 -1712 Q 468 -1759 515 -1752 Q 513 -1744 513 -1708 Q 513 -1448 545 -917 Q 574 -364 574 -123 Q 574 -76 533 -46 Q 492 -17 434 -17 L 369 -64 Z"/>
		<path character="e" fill="#A5834B" fill-opacity="1.0" stroke="none" stroke-width="10px" stroke-linecap="butt" stroke-opacity="1.0" transform="matrix(1,0,0,1,6920,0)" d="M 298 0 Q 201 0 189 -108 L 189 -153 Q 192 -166 208 -163 L 172 -177 Q 203 -256 203 -300 Q 203 -359 195 -473 L 189 -652 Q 189 -788 197 -1057 Q 208 -1294 208 -1458 L 203 -1617 Q 197 -1688 197 -1775 Q 197 -1838 233 -1870 Q 269 -1902 330 -1902 Q 378 -1902 400 -1872 Q 389 -1866 456 -1877 Q 528 -1868 580 -1852 Q 670 -1825 670 -1761 Q 670 -1702 567 -1651 Q 402 -1712 374 -1722 L 392 -1733 Q 393 -1723 393 -1630 Q 393 -1514 387 -1424 Q 385 -1332 385 -1219 Q 367 -1182 367 -1200 L 410 -1200 Q 431 -1200 455 -1200 Q 614 -1200 614 -1112 Q 614 -1069 584 -1039 Q 555 -1010 506 -1010 Q 449 -1010 424 -1027 L 356 -1034 L 359 -1045 L 347 -1072 L 387 -1075 Q 393 -1028 393 -853 Q 393 -744 390 -656 L 387 -460 Q 387 -354 395 -242 Q 397 -202 404 -196 Q 411 -190 455 -190 L 503 -190 Q 527 -190 556 -190 Q 689 -190 689 -101 Q 689 0 516 0 L 298 0 Z"/>
		<path character="r" fill="#A5834B" fill-opacity="1.0" stroke="none" stroke-width="10px" stroke-linecap="butt" stroke-opacity="1.0" transform="matrix(1,0,0,1,7744,0)" d="M 624 11 Q 573 -44 533 -201 Q 494 -358 462 -547 Q 441 -696 402 -842 Q 394 -952 394 -934 L 386 -934 Q 364 -952 382 -952 Q 382 -763 403 -378 Q 414 -148 431 -94 L 385 0 L 294 0 L 238 -48 Q 195 -1299 195 -1746 Q 195 -1781 201 -1808 Q 207 -1836 226 -1859 Q 250 -1902 308 -1902 Q 463 -1902 564 -1820 Q 665 -1739 665 -1587 L 665 -1392 Q 665 -1331 629 -1239 Q 593 -1147 551 -1072 L 526 -1023 Q 552 -907 638 -557 Q 724 -207 689 -177 Q 728 -203 734 -186 Q 740 -169 751 -151 Q 777 -100 777 -60 Q 777 32 683 32 L 624 11 M 348 -1071 Q 364 -1109 392 -1145 Q 421 -1181 442 -1249 Q 483 -1402 483 -1490 Q 483 -1546 477 -1581 Q 471 -1616 456 -1657 Q 437 -1712 356 -1712 Q 356 -1749 369 -1731 Q 382 -1713 382 -1698 Q 382 -1523 387 -1381 Q 390 -1238 357 -1068 L 348 -1071 Z"/>
		<path character="s" fill="#A5834B" fill-opacity="1.0" stroke="none" stroke-width="10px" stroke-linecap="butt" stroke-opacity="1.0" transform="matrix(1,0,0,1,8632,0)" d="M 276 0 Q 227 0 184 -36 Q 141 -73 134 -144 L 173 -207 Q 220 -207 266 -198 Q 291 -190 300 -190 Q 336 -190 369 -223 Q 402 -256 421 -314 Q 456 -440 456 -553 Q 456 -718 351 -910 Q 282 -1029 243 -1101 Q 204 -1174 174 -1270 Q 136 -1384 136 -1492 Q 136 -1595 188 -1732 Q 217 -1805 274 -1853 Q 331 -1902 402 -1902 Q 454 -1902 506 -1864 Q 558 -1827 558 -1772 Q 558 -1685 468 -1685 Q 437 -1685 407 -1712 Q 412 -1728 412 -1712 Q 395 -1712 375 -1693 Q 356 -1674 344 -1637 Q 315 -1548 315 -1476 Q 315 -1433 328 -1385 Q 330 -1369 333 -1357 Q 337 -1345 316 -1337 L 351 -1294 L 363 -1251 L 382 -1207 Q 388 -1193 396 -1180 Q 405 -1167 414 -1153 L 445 -1099 Q 456 -1084 492 -1022 Q 528 -961 558 -893 Q 587 -835 601 -782 Q 616 -729 627 -657 Q 635 -588 635 -506 Q 635 -372 598 -252 Q 543 -101 435 -39 Q 371 0 290 0 L 276 0 M 487 -1765 Q 487 -1762 490 -1762 L 490 -1765 L 487 -1765 Z"/>
</g>
</svg>