<svg xmlns="http://www.w3.org/2000/svg" xmlns:xlink="http://www.w3.org/1999/xlink" viewBox="0 0 16364 3092">
<title>Quickstart</title>
<g transform="matrix(1,0,0,1,0,2816)">
  		<path character="Q" fill="#A5834B" fill-opacity="1.0" stroke="none" stroke-width="10px" stroke-linecap="butt" stroke-opacity="1.0" transform="matrix(1,0,0,1,0,0)" d="M 2228 192 Q 1604 192 1258 156 Q 912 121 656 2 Q 400 -117 226 -357 Q 37 -633 37 -1117 Q 37 -1685 321 -1969 Q 605 -2254 1111 -2254 Q 1612 -2254 1898 -2000 Q 2185 -1746 2185 -1246 Q 2185 -1030 2115 -840 Q 2046 -650 1888 -522 L 1883 -552 L 2228 -558 L 2228 192 M 1111 -558 Q 1237 -558 1237 -703 L 1237 -1520 Q 1237 -1665 1111 -1665 Q 985 -1665 985 -1520 L 985 -703 Q 985 -558 1111 -558 Z"/>
		<path character="u" fill="#A5834B" fill-opacity="1.0" stroke="none" stroke-width="10px" stroke-linecap="butt" stroke-opacity="1.0" transform="matrix(1,0,0,1,2304,0)" d="M 1913 -589 L 1913 0 L 1072 0 L 1072 -115 Q 963 32 647 32 Q 400 32 274 -117 Q 149 -266 149 -515 L 149 -993 L 32 -993 L 32 -1582 L 873 -1582 L 873 -696 Q 873 -635 895 -612 Q 918 -589 972 -589 Q 1029 -589 1050 -608 Q 1072 -628 1072 -678 L 1072 -993 L 928 -993 L 928 -1582 L 1796 -1582 L 1796 -589 L 1913 -589 Z"/>
		<path character="i" fill="#A5834B" fill-opacity="1.0" stroke="none" stroke-width="10px" stroke-linecap="butt" stroke-opacity="1.0" transform="matrix(1,0,0,1,4287,0)" d="M 176 -1633 L 176 -2222 L 830 -2222 L 830 -1633 L 176 -1633 M 48 0 L 48 -589 L 165 -589 L 165 -993 L 48 -993 L 48 -1582 L 889 -1582 L 889 -589 L 1006 -589 L 1006 0 L 48 0 Z"/>
		<path character="c" fill="#A5834B" fill-opacity="1.0" stroke="none" stroke-width="10px" stroke-linecap="butt" stroke-opacity="1.0" transform="matrix(1,0,0,1,5311,0)" d="M 900 32 Q 498 32 267 -179 Q 37 -391 37 -791 Q 37 -1191 267 -1402 Q 498 -1614 898 -1614 Q 1090 -1614 1266 -1559 Q 1443 -1505 1566 -1417 L 1566 -818 L 997 -818 L 997 -918 Q 997 -980 975 -1002 Q 954 -1025 898 -1025 Q 798 -1025 798 -918 L 798 -700 Q 798 -557 980 -557 Q 1198 -557 1550 -612 L 1550 -90 Q 1422 -33 1251 0 Q 1081 32 900 32 Z"/>
		<path character="k" fill="#A5834B" fill-opacity="1.0" stroke="none" stroke-width="10px" stroke-linecap="butt" stroke-opacity="1.0" transform="matrix(1,0,0,1,6911,0)" d="M 1737 -589 L 1881 -589 L 1881 0 L 1139 0 L 865 -512 L 889 -512 L 889 0 L 48 0 L 48 -589 L 165 -589 L 165 -1633 L 48 -1633 L 48 -2222 L 889 -2222 L 889 -1101 L 869 -1101 L 1199 -1582 L 1846 -1582 L 1846 -993 L 1703 -993 L 1531 -840 L 1737 -589 Z"/>
		<path character="s" fill="#A5834B" fill-opacity="1.0" stroke="none" stroke-width="10px" stroke-linecap="butt" stroke-opacity="1.0" transform="matrix(1,0,0,1,8830,0)" d="M 751 32 Q 407 32 48 -77 L 48 -558 L 590 -558 L 590 -475 Q 590 -398 698 -398 Q 787 -398 787 -442 Q 787 -466 762 -481 Q 738 -497 645 -514 L 512 -538 Q 48 -621 48 -1069 Q 48 -1330 242 -1472 Q 437 -1614 754 -1614 Q 1099 -1614 1371 -1489 L 1371 -1042 L 856 -1042 L 856 -1125 Q 856 -1155 838 -1169 Q 820 -1184 770 -1184 Q 691 -1184 691 -1153 Q 691 -1138 711 -1125 Q 732 -1112 821 -1092 L 972 -1063 Q 1229 -1013 1343 -875 Q 1457 -737 1457 -524 Q 1457 -253 1269 -110 Q 1081 32 751 32 Z"/>
		<path character="t" fill="#A5834B" fill-opacity="1.0" stroke="none" stroke-width="10px" stroke-linecap="butt" stroke-opacity="1.0" transform="matrix(1,0,0,1,10366,0)" d="M 762 32 Q 458 32 298 -113 Q 139 -259 139 -591 L 139 -993 L 21 -993 L 21 -1582 Q 153 -1582 188 -1623 Q 224 -1664 224 -1745 L 224 -1934 L 899 -1934 L 899 -1582 L 1259 -1582 L 1259 -993 L 899 -993 L 899 -634 Q 899 -573 922 -550 Q 945 -527 999 -527 Q 1095 -527 1275 -562 L 1275 -59 Q 1161 -17 1029 7 Q 897 32 762 32 Z"/>
		<path character="a" fill="#A5834B" fill-opacity="1.0" stroke="none" stroke-width="10px" stroke-linecap="butt" stroke-opacity="1.0" transform="matrix(1,0,0,1,11709,0)" d="M 1713 -589 L 1713 0 L 899 0 L 922 -144 Q 935 -122 817 -45 Q 700 32 532 32 Q 311 32 179 -88 Q 48 -209 48 -424 Q 48 -974 899 -974 Q 899 -978 856 -1001 Q 814 -1025 682 -1025 Q 567 -1025 434 -1001 Q 301 -978 117 -910 L 117 -1520 Q 303 -1568 471 -1591 Q 640 -1614 802 -1614 Q 1218 -1614 1407 -1463 Q 1596 -1312 1596 -1001 L 1596 -589 L 1713 -589 M 938 -680 Q 846 -641 802 -621 Q 758 -601 758 -568 Q 758 -551 769 -541 Q 780 -531 810 -531 Q 850 -531 874 -565 Q 899 -600 899 -680 L 938 -680 Z"/>
		<path character="r" fill="#A5834B" fill-opacity="1.0" stroke="none" stroke-width="10px" stroke-linecap="butt" stroke-opacity="1.0" transform="matrix(1,0,0,1,13501,0)" d="M 1242 -1614 Q 1300 -1614 1353 -1604 Q 1407 -1594 1478 -1563 L 1478 -951 Q 1303 -1025 1188 -1025 Q 1041 -1025 967 -958 Q 894 -891 894 -752 L 894 -589 L 1134 -589 L 1134 0 L 53 0 L 53 -589 L 171 -589 L 171 -993 L 53 -993 L 53 -1582 L 894 -1582 L 880 -1454 Q 874 -1471 981 -1542 Q 1089 -1614 1242 -1614 Z"/>
		<path character="t" fill="#A5834B" fill-opacity="1.0" stroke="none" stroke-width="10px" stroke-linecap="butt" stroke-opacity="1.0" transform="matrix(1,0,0,1,15037,0)" d="M 762 32 Q 458 32 298 -113 Q 139 -259 139 -591 L 139 -993 L 21 -993 L 21 -1582 Q 153 -1582 188 -1623 Q 224 -1664 224 -1745 L 224 -1934 L 899 -1934 L 899 -1582 L 1259 -1582 L 1259 -993 L 899 -993 L 899 -634 Q 899 -573 922 -550 Q 945 -527 999 -527 Q 1095 -527 1275 -562 L 1275 -59 Q 1161 -17 1029 7 Q 897 32 762 32 Z"/>
</g>
</svg>