<svg xmlns="http://www.w3.org/2000/svg" xmlns:xlink="http://www.w3.org/1999/xlink" viewBox="0 0 8999 2797">
<title>Quickstart</title>
<g transform="matrix(1,0,0,1,0,2752)">
  		<path character="Q" fill="#EA8872" fill-opacity="1.0" stroke="none" stroke-width="10px" stroke-linecap="butt" stroke-opacity="1.0" transform="matrix(1,0,0,1,-128,0)" d="M 834 398 Q 809 398 761 371 Q 754 329 742 359 Q 664 322 631 246 Q 599 171 582 44 Q 566 -65 581 -63 Q 524 -50 452 -80 Q 380 -110 330 -165 Q 249 -250 202 -420 Q 185 -478 176 -560 Q 168 -643 168 -704 Q 165 -739 165 -826 L 165 -945 Q 163 -1001 163 -1077 Q 163 -1239 171 -1443 Q 179 -1623 206 -1791 Q 235 -1956 295 -2060 Q 366 -2190 495 -2190 Q 608 -2190 715 -2100 Q 823 -2011 840 -1900 Q 915 -1468 915 -850 Q 915 -365 750 -127 Q 750 -134 760 -102 L 776 -53 L 785 36 Q 793 116 798 144 Q 803 172 818 197 Q 826 208 839 208 L 850 208 Q 990 208 990 295 Q 990 398 834 398 M 580 -240 Q 633 -240 668 -444 Q 712 -698 712 -1233 L 712 -1302 L 709 -1469 L 707 -1540 Q 704 -1599 694 -1657 Q 684 -1715 673 -1776 Q 656 -1865 599 -1947 Q 562 -2000 490 -2000 Q 480 -2000 463 -1969 Q 415 -1885 382 -1617 Q 358 -1434 353 -1170 Q 350 -1112 350 -1007 L 350 -847 Q 350 -702 381 -551 Q 399 -451 426 -385 Q 454 -320 497 -277 Q 534 -240 580 -240 Z"/>
		<path character="u" fill="#EA8872" fill-opacity="1.0" stroke="none" stroke-width="10px" stroke-linecap="butt" stroke-opacity="1.0" transform="matrix(1,0,0,1,952,0)" d="M 527 0 Q 469 0 409 -34 Q 350 -68 311 -114 Q 263 -176 241 -407 Q 219 -638 213 -927 Q 213 -990 211 -1022 Q 205 -1688 187 -1822 L 226 -1911 Q 377 -1891 377 -1705 L 385 -1001 Q 385 -929 398 -724 Q 414 -536 414 -438 Q 414 -190 559 -190 Q 630 -190 661 -696 L 664 -748 Q 683 -1477 683 -1824 L 681 -1840 Q 677 -1855 677 -1875 Q 677 -1966 778 -1966 Q 844 -1966 871 -1913 Q 878 -1873 878 -1800 Q 878 -1588 863 -1523 L 865 -1513 Q 865 -1471 857 -1397 L 851 -1294 L 851 -1276 Q 854 -1265 854 -1240 Q 849 -1176 849 -1115 Q 846 -1096 846 -1059 Q 841 -805 835 -617 Q 827 -377 768 -208 Q 697 0 527 0 Z"/>
		<path character="i" fill="#EA8872" fill-opacity="1.0" stroke="none" stroke-width="10px" stroke-linecap="butt" stroke-opacity="1.0" transform="matrix(1,0,0,1,2032,0)" d="M 391 0 Q 285 0 306 -92 Q 315 -58 308 -50 L 276 -50 Q 185 -50 147 -121 Q 147 -185 186 -212 L 211 -240 L 299 -219 L 274 -223 L 275 -228 L 277 -253 Q 277 -411 269 -537 L 264 -637 L 259 -831 Q 259 -937 267 -1145 L 272 -1451 Q 272 -1650 278 -1729 Q 281 -1712 234 -1712 L 204 -1712 Q 188 -1712 170 -1712 Q 64 -1712 64 -1812 Q 64 -1859 109 -1880 Q 155 -1902 183 -1902 Q 284 -1902 386 -1902 Q 458 -1902 529 -1872 Q 611 -1839 611 -1767 Q 611 -1749 587 -1689 L 457 -1674 Q 436 -1712 425 -1712 L 420 -1750 Q 459 -1744 459 -1616 Q 459 -1439 457 -1296 L 451 -976 Q 451 -858 462 -687 Q 470 -488 470 -388 L 470 -349 Q 467 -330 467 -305 Q 467 -258 481 -233 L 444 -219 Q 457 -224 476 -240 Q 500 -240 516 -240 L 556 -240 Q 689 -240 689 -152 Q 689 -105 655 -77 Q 622 -50 575 -50 Q 551 -50 532 -50 Q 511 -50 487 -50 Q 487 -55 473 -39 Q 427 0 391 0 Z"/>
		<path character="c" fill="#EA8872" fill-opacity="1.0" stroke="none" stroke-width="10px" stroke-linecap="butt" stroke-opacity="1.0" transform="matrix(1,0,0,1,2792,0)" d="M 426 -27 Q 368 -44 323 -80 Q 279 -116 242 -184 Q 180 -300 168 -509 Q 163 -600 163 -670 L 163 -969 Q 163 -1142 173 -1304 Q 181 -1426 198 -1512 Q 215 -1598 253 -1685 Q 296 -1783 351 -1824 Q 375 -1845 438 -1869 Q 470 -1881 511 -1902 L 631 -1902 L 662 -1902 Q 646 -1854 651 -1899 L 682 -1894 L 707 -1876 Q 734 -1849 690 -1826 Q 737 -1833 737 -1786 L 672 -1712 L 535 -1712 Q 510 -1712 480 -1677 Q 451 -1642 433 -1580 Q 413 -1518 400 -1431 Q 387 -1345 385 -1282 Q 379 -1198 379 -1159 L 374 -1145 Q 374 -1007 369 -887 L 363 -622 Q 363 -511 378 -417 Q 391 -326 446 -252 Q 491 -190 591 -190 Q 610 -190 637 -214 Q 753 -214 753 -129 Q 753 -83 704 -50 Q 656 -17 605 0 L 498 0 L 426 -27 Z"/>
		<path character="k" fill="#EA8872" fill-opacity="1.0" stroke="none" stroke-width="10px" stroke-linecap="butt" stroke-opacity="1.0" transform="matrix(1,0,0,1,3680,0)" d="M 831 32 Q 729 32 627 -245 Q 543 -471 481 -735 Q 419 -999 428 -1097 L 462 -1107 L 469 -1012 Q 441 -957 427 -923 Q 414 -890 401 -838 Q 387 -793 387 -747 Q 387 -690 382 -645 L 377 -552 L 377 -208 Q 377 -187 384 -139 Q 393 -85 393 -54 Q 393 -12 360 10 Q 328 32 295 32 Q 239 32 210 5 Q 181 -21 181 -80 L 181 -586 Q 181 -633 195 -762 Q 208 -886 208 -926 Q 208 -1041 221 -1192 Q 232 -1340 232 -1446 L 232 -1837 Q 272 -1902 338 -1902 Q 382 -1902 412 -1870 Q 443 -1839 443 -1784 Q 422 -1736 422 -1667 L 417 -1383 Q 411 -1256 377 -1129 Q 344 -1155 515 -1503 Q 712 -1902 764 -1902 Q 889 -1902 889 -1772 Q 711 -1506 606 -1277 L 603 -1201 Q 601 -1164 601 -1117 Q 601 -1005 690 -685 Q 779 -366 838 -247 Q 861 -216 867 -210 Q 900 -162 915 -129 Q 931 -96 931 -57 Q 931 -12 899 10 Q 867 32 831 32 Z"/>
		<path character="s" fill="#EA8872" fill-opacity="1.0" stroke="none" stroke-width="10px" stroke-linecap="butt" stroke-opacity="1.0" transform="matrix(1,0,0,1,4696,0)" d="M 276 0 Q 227 0 184 -36 Q 141 -73 134 -144 L 173 -207 Q 220 -207 266 -198 Q 291 -190 300 -190 Q 336 -190 369 -223 Q 402 -256 421 -314 Q 456 -440 456 -553 Q 456 -718 351 -910 Q 282 -1029 243 -1101 Q 204 -1174 174 -1270 Q 136 -1384 136 -1492 Q 136 -1595 188 -1732 Q 217 -1805 274 -1853 Q 331 -1902 402 -1902 Q 454 -1902 506 -1864 Q 558 -1827 558 -1772 Q 558 -1685 468 -1685 Q 437 -1685 407 -1712 Q 412 -1728 412 -1712 Q 395 -1712 375 -1693 Q 356 -1674 344 -1637 Q 315 -1548 315 -1476 Q 315 -1433 328 -1385 Q 330 -1369 333 -1357 Q 337 -1345 316 -1337 L 351 -1294 L 363 -1251 L 382 -1207 Q 388 -1193 396 -1180 Q 405 -1167 414 -1153 L 445 -1099 Q 456 -1084 492 -1022 Q 528 -961 558 -893 Q 587 -835 601 -782 Q 616 -729 627 -657 Q 635 -588 635 -506 Q 635 -372 598 -252 Q 543 -101 435 -39 Q 371 0 290 0 L 276 0 M 487 -1765 Q 487 -1762 490 -1762 L 490 -1765 L 487 -1765 Z"/>
		<path character="t" fill="#EA8872" fill-opacity="1.0" stroke="none" stroke-width="10px" stroke-linecap="butt" stroke-opacity="1.0" transform="matrix(1,0,0,1,5456,0)" d="M 369 -64 L 365 -191 Q 363 -235 363 -290 Q 363 -320 365 -340 L 368 -386 Q 368 -403 357 -441 Q 357 -629 331 -1119 Q 304 -1595 302 -1712 Q 186 -1712 120 -1725 Q 27 -1758 27 -1867 Q 78 -1902 132 -1902 Q 212 -1902 364 -1902 Q 503 -1902 596 -1902 L 652 -1902 L 708 -1902 Q 811 -1902 811 -1800 Q 811 -1752 773 -1732 Q 736 -1712 698 -1712 Q 644 -1712 586 -1712 L 471 -1712 Q 468 -1759 515 -1752 Q 513 -1744 513 -1708 Q 513 -1448 545 -917 Q 574 -364 574 -123 Q 574 -76 533 -46 Q 492 -17 434 -17 L 369 -64 Z"/>
		<path character="a" fill="#EA8872" fill-opacity="1.0" stroke="none" stroke-width="10px" stroke-linecap="butt" stroke-opacity="1.0" transform="matrix(1,0,0,1,6344,0)" d="M 784 0 Q 711 0 685 -23 Q 659 -47 651 -108 Q 627 -309 621 -358 L 613 -430 Q 598 -434 530 -434 L 434 -434 Q 370 -434 340 -434 Q 337 -474 377 -472 Q 377 -413 322 -465 L 369 -413 Q 366 -360 338 -208 Q 324 -126 302 -79 Q 267 0 212 0 Q 177 0 140 -28 Q 104 -57 104 -110 L 109 -124 L 111 -129 Q 158 -317 190 -503 L 222 -668 L 254 -871 Q 254 -871 284 -1048 Q 297 -1121 332 -1281 Q 369 -1461 377 -1532 Q 380 -1539 387 -1622 Q 397 -1726 406 -1775 Q 415 -1857 448 -1902 L 495 -1902 Q 503 -1902 514 -1902 Q 524 -1902 540 -1917 Q 599 -1917 632 -1890 Q 665 -1864 665 -1822 Q 665 -1697 683 -1534 Q 694 -1448 699 -1391 Q 729 -1047 849 -95 L 849 -86 Q 849 -30 784 0 M 623 -594 Q 568 -934 548 -1662 L 458 -964 Q 398 -673 398 -602 Q 357 -602 453 -613 Q 549 -624 623 -624 L 623 -594 Z"/>
		<path character="r" fill="#EA8872" fill-opacity="1.0" stroke="none" stroke-width="10px" stroke-linecap="butt" stroke-opacity="1.0" transform="matrix(1,0,0,1,7296,0)" d="M 624 11 Q 573 -44 533 -201 Q 494 -358 462 -547 Q 441 -696 402 -842 Q 394 -952 394 -934 L 386 -934 Q 364 -952 382 -952 Q 382 -763 403 -378 Q 414 -148 431 -94 L 385 0 L 294 0 L 238 -48 Q 195 -1299 195 -1746 Q 195 -1781 201 -1808 Q 207 -1836 226 -1859 Q 250 -1902 308 -1902 Q 463 -1902 564 -1820 Q 665 -1739 665 -1587 L 665 -1392 Q 665 -1331 629 -1239 Q 593 -1147 551 -1072 L 526 -1023 Q 552 -907 638 -557 Q 724 -207 689 -177 Q 728 -203 734 -186 Q 740 -169 751 -151 Q 777 -100 777 -60 Q 777 32 683 32 L 624 11 M 348 -1071 Q 364 -1109 392 -1145 Q 421 -1181 442 -1249 Q 483 -1402 483 -1490 Q 483 -1546 477 -1581 Q 471 -1616 456 -1657 Q 437 -1712 356 -1712 Q 356 -1749 369 -1731 Q 382 -1713 382 -1698 Q 382 -1523 387 -1381 Q 390 -1238 357 -1068 L 348 -1071 Z"/>
		<path character="t" fill="#EA8872" fill-opacity="1.0" stroke="none" stroke-width="10px" stroke-linecap="butt" stroke-opacity="1.0" transform="matrix(1,0,0,1,8184,0)" d="M 369 -64 L 365 -191 Q 363 -235 363 -290 Q 363 -320 365 -340 L 368 -386 Q 368 -403 357 -441 Q 357 -629 331 -1119 Q 304 -1595 302 -1712 Q 186 -1712 120 -1725 Q 27 -1758 27 -1867 Q 78 -1902 132 -1902 Q 212 -1902 364 -1902 Q 503 -1902 596 -1902 L 652 -1902 L 708 -1902 Q 811 -1902 811 -1800 Q 811 -1752 773 -1732 Q 736 -1712 698 -1712 Q 644 -1712 586 -1712 L 471 -1712 Q 468 -1759 515 -1752 Q 513 -1744 513 -1708 Q 513 -1448 545 -917 Q 574 -364 574 -123 Q 574 -76 533 -46 Q 492 -17 434 -17 L 369 -64 Z"/>
</g>
</svg>