<svg xmlns="http://www.w3.org/2000/svg" xmlns:xlink="http://www.w3.org/1999/xlink" viewBox="0 0 26636 3092">
<title>Statosio for Ruby</title>
<g transform="matrix(1,0,0,1,0,2816)">
  		<path character="S" fill="#A5834B" fill-opacity="1.0" stroke="none" stroke-width="10px" stroke-linecap="butt" stroke-opacity="1.0" transform="matrix(1,0,0,1,0,0)" d="M 935 32 Q 674 32 440 -9 Q 207 -51 45 -120 L 45 -723 L 742 -723 Q 742 -603 764 -580 Q 786 -557 860 -557 Q 925 -557 942 -570 Q 960 -583 960 -607 Q 960 -627 938 -647 Q 916 -667 841 -696 L 612 -780 Q 302 -902 161 -1072 Q 21 -1243 21 -1532 Q 21 -1884 245 -2069 Q 470 -2254 972 -2254 Q 1210 -2254 1422 -2206 Q 1634 -2159 1793 -2061 L 1793 -1490 L 1149 -1490 Q 1149 -1632 1039 -1632 Q 974 -1632 960 -1623 Q 947 -1615 947 -1595 Q 947 -1578 971 -1561 Q 995 -1544 1076 -1516 L 1308 -1435 Q 1606 -1332 1746 -1162 Q 1886 -993 1886 -721 Q 1886 -349 1640 -158 Q 1394 32 935 32 Z"/>
		<path character="t" fill="#A5834B" fill-opacity="1.0" stroke="none" stroke-width="10px" stroke-linecap="butt" stroke-opacity="1.0" transform="matrix(1,0,0,1,1920,0)" d="M 762 32 Q 458 32 298 -113 Q 139 -259 139 -591 L 139 -993 L 21 -993 L 21 -1582 Q 153 -1582 188 -1623 Q 224 -1664 224 -1745 L 224 -1934 L 899 -1934 L 899 -1582 L 1259 -1582 L 1259 -993 L 899 -993 L 899 -634 Q 899 -573 922 -550 Q 945 -527 999 -527 Q 1095 -527 1275 -562 L 1275 -59 Q 1161 -17 1029 7 Q 897 32 762 32 Z"/>
		<path character="a" fill="#A5834B" fill-opacity="1.0" stroke="none" stroke-width="10px" stroke-linecap="butt" stroke-opacity="1.0" transform="matrix(1,0,0,1,3263,0)" d="M 1713 -589 L 1713 0 L 899 0 L 922 -144 Q 935 -122 817 -45 Q 700 32 532 32 Q 311 32 179 -88 Q 48 -209 48 -424 Q 48 -974 899 -974 Q 899 -978 856 -1001 Q 814 -1025 682 -1025 Q 567 -1025 434 -1001 Q 301 -978 117 -910 L 117 -1520 Q 303 -1568 471 -1591 Q 640 -1614 802 -1614 Q 1218 -1614 1407 -1463 Q 1596 -1312 1596 -1001 L 1596 -589 L 1713 -589 M 938 -680 Q 846 -641 802 -621 Q 758 -601 758 -568 Q 758 -551 769 -541 Q 780 -531 810 -531 Q 850 -531 874 -565 Q 899 -600 899 -680 L 938 -680 Z"/>
		<path character="t" fill="#A5834B" fill-opacity="1.0" stroke="none" stroke-width="10px" stroke-linecap="butt" stroke-opacity="1.0" transform="matrix(1,0,0,1,5055,0)" d="M 762 32 Q 458 32 298 -113 Q 139 -259 139 -591 L 139 -993 L 21 -993 L 21 -1582 Q 153 -1582 188 -1623 Q 224 -1664 224 -1745 L 224 -1934 L 899 -1934 L 899 -1582 L 1259 -1582 L 1259 -993 L 899 -993 L 899 -634 Q 899 -573 922 -550 Q 945 -527 999 -527 Q 1095 -527 1275 -562 L 1275 -59 Q 1161 -17 1029 7 Q 897 32 762 32 Z"/>
		<path character="o" fill="#A5834B" fill-opacity="1.0" stroke="none" stroke-width="10px" stroke-linecap="butt" stroke-opacity="1.0" transform="matrix(1,0,0,1,6399,0)" d="M 898 32 Q 498 32 267 -179 Q 37 -391 37 -791 Q 37 -1191 267 -1402 Q 498 -1614 898 -1614 Q 1304 -1614 1531 -1400 Q 1758 -1186 1758 -791 Q 1758 -391 1527 -179 Q 1297 32 898 32 M 898 -557 Q 952 -557 974 -580 Q 997 -603 997 -664 L 997 -918 Q 997 -979 974 -1002 Q 952 -1025 898 -1025 Q 843 -1025 820 -1002 Q 798 -979 798 -918 L 798 -664 Q 798 -603 820 -580 Q 843 -557 898 -557 Z"/>
		<path character="s" fill="#A5834B" fill-opacity="1.0" stroke="none" stroke-width="10px" stroke-linecap="butt" stroke-opacity="1.0" transform="matrix(1,0,0,1,8190,0)" d="M 751 32 Q 407 32 48 -77 L 48 -558 L 590 -558 L 590 -475 Q 590 -398 698 -398 Q 787 -398 787 -442 Q 787 -466 762 -481 Q 738 -497 645 -514 L 512 -538 Q 48 -621 48 -1069 Q 48 -1330 242 -1472 Q 437 -1614 754 -1614 Q 1099 -1614 1371 -1489 L 1371 -1042 L 856 -1042 L 856 -1125 Q 856 -1155 838 -1169 Q 820 -1184 770 -1184 Q 691 -1184 691 -1153 Q 691 -1138 711 -1125 Q 732 -1112 821 -1092 L 972 -1063 Q 1229 -1013 1343 -875 Q 1457 -737 1457 -524 Q 1457 -253 1269 -110 Q 1081 32 751 32 Z"/>
		<path character="i" fill="#A5834B" fill-opacity="1.0" stroke="none" stroke-width="10px" stroke-linecap="butt" stroke-opacity="1.0" transform="matrix(1,0,0,1,9726,0)" d="M 176 -1633 L 176 -2222 L 830 -2222 L 830 -1633 L 176 -1633 M 48 0 L 48 -589 L 165 -589 L 165 -993 L 48 -993 L 48 -1582 L 889 -1582 L 889 -589 L 1006 -589 L 1006 0 L 48 0 Z"/>
		<path character="o" fill="#A5834B" fill-opacity="1.0" stroke="none" stroke-width="10px" stroke-linecap="butt" stroke-opacity="1.0" transform="matrix(1,0,0,1,10749,0)" d="M 898 32 Q 498 32 267 -179 Q 37 -391 37 -791 Q 37 -1191 267 -1402 Q 498 -1614 898 -1614 Q 1304 -1614 1531 -1400 Q 1758 -1186 1758 -791 Q 1758 -391 1527 -179 Q 1297 32 898 32 M 898 -557 Q 952 -557 974 -580 Q 997 -603 997 -664 L 997 -918 Q 997 -979 974 -1002 Q 952 -1025 898 -1025 Q 843 -1025 820 -1002 Q 798 -979 798 -918 L 798 -664 Q 798 -603 820 -580 Q 843 -557 898 -557 Z"/>
		<path character="f" fill="#A5834B" fill-opacity="1.0" stroke="none" stroke-width="10px" stroke-linecap="butt" stroke-opacity="1.0" transform="matrix(1,0,0,1,13390,0)" d="M 48 -589 L 165 -589 L 165 -993 L 48 -993 L 48 -1582 L 171 -1582 Q 171 -1896 345 -2075 Q 520 -2254 847 -2254 Q 999 -2254 1121 -2231 Q 1244 -2209 1334 -2163 L 1334 -1638 Q 1134 -1665 1018 -1665 Q 938 -1665 913 -1638 Q 889 -1612 889 -1582 L 1097 -1582 L 1097 -993 L 889 -993 L 889 -589 L 1097 -589 L 1097 0 L 48 0 L 48 -589 Z"/>
		<path character="o" fill="#A5834B" fill-opacity="1.0" stroke="none" stroke-width="10px" stroke-linecap="butt" stroke-opacity="1.0" transform="matrix(1,0,0,1,14541,0)" d="M 898 32 Q 498 32 267 -179 Q 37 -391 37 -791 Q 37 -1191 267 -1402 Q 498 -1614 898 -1614 Q 1304 -1614 1531 -1400 Q 1758 -1186 1758 -791 Q 1758 -391 1527 -179 Q 1297 32 898 32 M 898 -557 Q 952 -557 974 -580 Q 997 -603 997 -664 L 997 -918 Q 997 -979 974 -1002 Q 952 -1025 898 -1025 Q 843 -1025 820 -1002 Q 798 -979 798 -918 L 798 -664 Q 798 -603 820 -580 Q 843 -557 898 -557 Z"/>
		<path character="r" fill="#A5834B" fill-opacity="1.0" stroke="none" stroke-width="10px" stroke-linecap="butt" stroke-opacity="1.0" transform="matrix(1,0,0,1,16333,0)" d="M 1242 -1614 Q 1300 -1614 1353 -1604 Q 1407 -1594 1478 -1563 L 1478 -951 Q 1303 -1025 1188 -1025 Q 1041 -1025 967 -958 Q 894 -891 894 -752 L 894 -589 L 1134 -589 L 1134 0 L 53 0 L 53 -589 L 171 -589 L 171 -993 L 53 -993 L 53 -1582 L 894 -1582 L 880 -1454 Q 874 -1471 981 -1542 Q 1089 -1614 1242 -1614 Z"/>
		<path character="R" fill="#A5834B" fill-opacity="1.0" stroke="none" stroke-width="10px" stroke-linecap="butt" stroke-opacity="1.0" transform="matrix(1,0,0,1,18717,0)" d="M 53 -589 L 187 -589 L 187 -1633 L 53 -1633 L 53 -2222 L 1332 -2222 Q 1696 -2222 1895 -2064 Q 2094 -1907 2094 -1557 Q 2094 -1361 2014 -1213 Q 1934 -1066 1799 -1036 L 1796 -1062 Q 2076 -1041 2076 -731 L 2076 -589 L 2201 -589 L 2201 0 L 1245 0 L 1245 -697 Q 1245 -789 1223 -827 Q 1202 -866 1151 -881 Q 1100 -896 1043 -896 L 1043 -589 L 1219 -589 L 1219 0 L 53 0 L 53 -589 M 1132 -1326 Q 1187 -1326 1209 -1349 Q 1232 -1372 1232 -1434 L 1232 -1525 Q 1232 -1587 1209 -1610 Q 1187 -1633 1132 -1633 L 1043 -1633 L 1043 -1326 L 1132 -1326 Z"/>
		<path character="u" fill="#A5834B" fill-opacity="1.0" stroke="none" stroke-width="10px" stroke-linecap="butt" stroke-opacity="1.0" transform="matrix(1,0,0,1,20957,0)" d="M 1913 -589 L 1913 0 L 1072 0 L 1072 -115 Q 963 32 647 32 Q 400 32 274 -117 Q 149 -266 149 -515 L 149 -993 L 32 -993 L 32 -1582 L 873 -1582 L 873 -696 Q 873 -635 895 -612 Q 918 -589 972 -589 Q 1029 -589 1050 -608 Q 1072 -628 1072 -678 L 1072 -993 L 928 -993 L 928 -1582 L 1796 -1582 L 1796 -589 L 1913 -589 Z"/>
		<path character="b" fill="#A5834B" fill-opacity="1.0" stroke="none" stroke-width="10px" stroke-linecap="butt" stroke-opacity="1.0" transform="matrix(1,0,0,1,22941,0)" d="M 1247 32 Q 1095 32 978 -44 Q 862 -121 871 -140 L 889 0 L 48 0 L 48 -589 L 165 -589 L 165 -1633 L 48 -1633 L 48 -2222 L 889 -2222 L 871 -1454 Q 863 -1473 979 -1543 Q 1096 -1614 1247 -1614 Q 1548 -1614 1698 -1395 Q 1849 -1176 1849 -791 Q 1849 -406 1698 -187 Q 1548 32 1247 32 M 988 -589 Q 1043 -589 1065 -612 Q 1088 -635 1088 -696 L 1088 -948 Q 1088 -1009 1065 -1032 Q 1043 -1055 988 -1055 Q 934 -1055 911 -1032 Q 889 -1009 889 -948 L 889 -696 Q 889 -635 911 -612 Q 934 -589 988 -589 Z"/>
		<path character="y" fill="#A5834B" fill-opacity="1.0" stroke="none" stroke-width="10px" stroke-linecap="butt" stroke-opacity="1.0" transform="matrix(1,0,0,1,24860,0)" d="M 1764 -1582 L 1764 -993 L 1645 -993 L 1309 -134 Q 1174 214 994 395 Q 814 576 516 576 Q 399 576 279 552 Q 159 529 27 472 L 27 -102 L 505 -102 L 505 -22 Q 505 -13 519 -13 Q 548 -13 551 -18 L 154 -993 L 35 -993 L 35 -1582 L 937 -1582 L 937 -993 L 869 -993 L 928 -824 L 982 -993 L 912 -993 L 912 -1582 L 1764 -1582 Z"/>
</g>
</svg>