<svg xmlns="http://www.w3.org/2000/svg" xmlns:xlink="http://www.w3.org/1999/xlink" viewBox="0 0 21003 3546">
<title>Statosio for Ruby</title>
<g transform="matrix(1,0,0,1,0,2624)">
  		<path character="S" fill="#EA8872" fill-opacity="1.0" stroke="none" stroke-width="0" stroke-linecap="butt" stroke-opacity="1.0" transform="matrix(1,0,0,1,0,0)" d="M 331 -494 L 319 -391 Q 319 -229 425 -170 Q 462 -150 513 -150 Q 564 -150 605 -168 Q 646 -186 672 -215 Q 727 -275 727 -354 Q 727 -433 695 -497 Q 664 -561 617 -625 L 512 -755 Q 385 -910 341 -1037 Q 298 -1164 298 -1271 Q 298 -1378 323 -1473 Q 349 -1568 395 -1654 Q 441 -1740 505 -1812 Q 570 -1884 648 -1936 Q 812 -2048 973 -2048 Q 1135 -2048 1225 -2003 Q 1316 -1959 1372 -1891 Q 1474 -1763 1474 -1581 Q 1474 -1412 1378 -1263 Q 1290 -1126 1181 -1090 Q 1158 -1078 1116 -1078 Q 1075 -1078 1047 -1091 Q 1019 -1104 998 -1126 Q 952 -1173 952 -1229 Q 952 -1267 974 -1280 Q 1074 -1335 1147 -1442 Q 1227 -1557 1231 -1672 Q 1235 -1788 1178 -1843 Q 1121 -1898 1026 -1898 Q 932 -1898 856 -1855 Q 780 -1812 725 -1738 Q 606 -1581 606 -1367 Q 606 -1225 704 -1067 Q 744 -999 792 -933 Q 840 -867 882 -798 Q 978 -637 978 -509 Q 978 -382 932 -294 Q 887 -206 812 -141 Q 651 0 445 0 Q 251 0 146 -109 Q 62 -197 62 -300 Q 62 -411 129 -488 Q 180 -549 227 -561 Q 331 -588 331 -494 Z"/>
		<path character="t" fill="#EA8872" fill-opacity="1.0" stroke="none" stroke-width="0" stroke-linecap="butt" stroke-opacity="1.0" transform="matrix(1,0,0,1,1297,0)" d="M 858 -382 Q 897 -382 897 -327 Q 897 -281 870 -237 Q 835 -156 729 -83 Q 608 0 486 0 Q 274 0 218 -193 Q 151 -421 419 -1162 Q 268 -1175 255 -1214 Q 251 -1226 251 -1239 Q 251 -1253 263 -1271 Q 276 -1289 295 -1306 Q 341 -1344 389 -1344 L 492 -1344 Q 634 -1637 694 -1677 Q 723 -1696 758 -1696 Q 794 -1696 817 -1688 Q 841 -1680 860 -1664 Q 902 -1629 902 -1586 Q 902 -1563 886 -1532 L 789 -1344 L 820 -1344 Q 902 -1344 952 -1344 Q 952 -1344 1026 -1344 Q 1051 -1344 1088 -1344 Q 1126 -1344 1126 -1318 Q 1126 -1153 717 -1153 L 706 -1153 L 617 -923 Q 466 -516 466 -353 Q 466 -307 487 -281 Q 508 -256 566 -256 Q 624 -256 671 -275 Q 718 -295 753 -319 Q 789 -343 814 -362 Q 840 -382 858 -382 Z"/>
		<path character="a" fill="#EA8872" fill-opacity="1.0" stroke="none" stroke-width="0" stroke-linecap="butt" stroke-opacity="1.0" transform="matrix(1,0,0,1,2273,0)" d="M 1108 -353 Q 1108 -233 1193 -233 Q 1252 -233 1291 -251 Q 1330 -270 1343 -270 Q 1370 -270 1370 -241 Q 1370 -128 1252 -47 Q 1128 38 998 -5 Q 912 -35 872 -135 Q 852 -186 852 -228 Q 852 -296 865 -372 Q 743 -128 562 -36 Q 490 0 408 0 Q 327 0 267 -33 Q 208 -66 166 -123 Q 80 -244 88 -427 Q 96 -656 226 -876 Q 345 -1082 528 -1212 Q 710 -1344 869 -1344 Q 1028 -1344 1125 -1216 Q 1216 -1344 1285 -1344 Q 1360 -1344 1398 -1317 Q 1470 -1265 1449 -1227 Q 1120 -564 1111 -402 Q 1108 -379 1108 -353 M 379 -350 Q 379 -192 481 -192 Q 558 -192 671 -322 Q 836 -513 964 -836 Q 1004 -938 1032 -1039 Q 1027 -1134 957 -1179 Q 933 -1194 886 -1194 Q 840 -1194 777 -1160 Q 715 -1126 657 -1067 Q 599 -1008 548 -927 Q 498 -846 460 -751 Q 379 -549 379 -350 Z"/>
		<path character="t" fill="#EA8872" fill-opacity="1.0" stroke="none" stroke-width="0" stroke-linecap="butt" stroke-opacity="1.0" transform="matrix(1,0,0,1,3762,0)" d="M 858 -382 Q 897 -382 897 -327 Q 897 -281 870 -237 Q 835 -156 729 -83 Q 608 0 486 0 Q 274 0 218 -193 Q 151 -421 419 -1162 Q 268 -1175 255 -1214 Q 251 -1226 251 -1239 Q 251 -1253 263 -1271 Q 276 -1289 295 -1306 Q 341 -1344 389 -1344 L 492 -1344 Q 634 -1637 694 -1677 Q 723 -1696 758 -1696 Q 794 -1696 817 -1688 Q 841 -1680 860 -1664 Q 902 -1629 902 -1586 Q 902 -1563 886 -1532 L 789 -1344 L 820 -1344 Q 902 -1344 952 -1344 Q 952 -1344 1026 -1344 Q 1051 -1344 1088 -1344 Q 1126 -1344 1126 -1318 Q 1126 -1153 717 -1153 L 706 -1153 L 617 -923 Q 466 -516 466 -353 Q 466 -307 487 -281 Q 508 -256 566 -256 Q 624 -256 671 -275 Q 718 -295 753 -319 Q 789 -343 814 -362 Q 840 -382 858 -382 Z"/>
		<path character="o" fill="#EA8872" fill-opacity="1.0" stroke="none" stroke-width="0" stroke-linecap="butt" stroke-opacity="1.0" transform="matrix(1,0,0,1,4739,0)" d="M 216 -100 Q 161 -152 129 -231 Q 98 -310 97 -418 Q 96 -526 124 -636 Q 152 -747 204 -850 Q 256 -953 328 -1043 Q 401 -1133 489 -1200 Q 681 -1344 887 -1344 Q 1157 -1344 1253 -1111 Q 1321 -943 1261 -704 Q 1206 -484 1059 -300 Q 913 -116 715 -39 Q 615 0 518 0 Q 422 0 346 -24 Q 271 -49 216 -100 M 467 -724 Q 428 -629 405 -529 Q 382 -429 383 -340 Q 384 -251 411 -200 Q 438 -150 498 -150 Q 559 -150 617 -190 Q 676 -231 731 -297 Q 786 -364 834 -451 Q 883 -538 920 -633 Q 1000 -839 997 -999 Q 997 -1140 938 -1179 Q 915 -1194 872 -1194 Q 829 -1194 774 -1156 Q 719 -1118 664 -1054 Q 609 -990 557 -904 Q 506 -819 467 -724 Z"/>
		<path character="s" fill="#EA8872" fill-opacity="1.0" stroke="none" stroke-width="0" stroke-linecap="butt" stroke-opacity="1.0" transform="matrix(1,0,0,1,6163,0)" d="M 32 -240 Q 32 -280 49 -314 Q 67 -349 93 -372 Q 148 -423 209 -423 Q 261 -423 261 -370 Q 261 -235 352 -182 Q 385 -163 420 -163 Q 455 -163 480 -170 Q 505 -178 526 -195 Q 574 -232 574 -283 Q 574 -335 550 -378 Q 526 -421 491 -469 L 416 -572 Q 259 -777 259 -951 Q 259 -1095 383 -1212 Q 525 -1344 747 -1344 Q 941 -1344 1050 -1254 Q 1139 -1181 1139 -1081 Q 1139 -978 1061 -916 Q 990 -861 919 -875 Q 887 -882 870 -907 Q 853 -933 863 -966 Q 874 -999 874 -1034 Q 874 -1070 861 -1100 Q 848 -1130 826 -1151 Q 780 -1194 729 -1194 Q 679 -1194 646 -1183 Q 613 -1172 588 -1151 Q 537 -1105 537 -1037 Q 537 -969 560 -919 Q 584 -870 619 -821 Q 654 -772 694 -721 Q 735 -671 769 -615 Q 852 -484 852 -385 Q 852 -286 810 -219 Q 768 -153 701 -105 Q 558 0 381 0 Q 211 0 113 -80 Q 32 -148 32 -240 Z"/>
		<path character="i" fill="#EA8872" fill-opacity="1.0" stroke="none" stroke-width="0" stroke-linecap="butt" stroke-opacity="1.0" transform="matrix(1,0,0,1,7332,0)" d="M 803 -1732 Q 774 -1701 737 -1682 Q 701 -1663 660 -1658 Q 620 -1654 583 -1671 Q 547 -1688 521 -1720 Q 465 -1785 465 -1852 Q 465 -1919 486 -1952 Q 508 -1986 541 -2007 Q 604 -2048 659 -2048 Q 715 -2048 746 -2040 Q 777 -2032 803 -2014 Q 868 -1970 868 -1908 Q 868 -1846 850 -1804 Q 832 -1763 803 -1732 M 534 -256 Q 568 -256 568 -212 Q 568 -153 515 -91 Q 436 0 303 0 Q 151 0 95 -121 Q 74 -163 74 -223 Q 74 -284 95 -358 Q 117 -432 149 -513 Q 181 -595 219 -679 L 289 -841 Q 365 -1022 365 -1080 Q 365 -1138 352 -1157 Q 340 -1176 326 -1186 L 299 -1204 Q 286 -1213 286 -1235 Q 286 -1258 304 -1278 Q 322 -1299 350 -1314 Q 410 -1344 488 -1344 Q 681 -1344 681 -1248 Q 681 -1135 619 -990 Q 558 -846 515 -757 L 436 -585 Q 349 -395 349 -311 Q 349 -256 407 -256 Q 463 -256 492 -256 Q 521 -256 534 -256 Z"/>
		<path character="o" fill="#EA8872" fill-opacity="1.0" stroke="none" stroke-width="0" stroke-linecap="butt" stroke-opacity="1.0" transform="matrix(1,0,0,1,8116,0)" d="M 216 -100 Q 161 -152 129 -231 Q 98 -310 97 -418 Q 96 -526 124 -636 Q 152 -747 204 -850 Q 256 -953 328 -1043 Q 401 -1133 489 -1200 Q 681 -1344 887 -1344 Q 1157 -1344 1253 -1111 Q 1321 -943 1261 -704 Q 1206 -484 1059 -300 Q 913 -116 715 -39 Q 615 0 518 0 Q 422 0 346 -24 Q 271 -49 216 -100 M 467 -724 Q 428 -629 405 -529 Q 382 -429 383 -340 Q 384 -251 411 -200 Q 438 -150 498 -150 Q 559 -150 617 -190 Q 676 -231 731 -297 Q 786 -364 834 -451 Q 883 -538 920 -633 Q 1000 -839 997 -999 Q 997 -1140 938 -1179 Q 915 -1194 872 -1194 Q 829 -1194 774 -1156 Q 719 -1118 664 -1054 Q 609 -990 557 -904 Q 506 -819 467 -724 Z"/>
		<path character="f" fill="#EA8872" fill-opacity="1.0" stroke="none" stroke-width="0" stroke-linecap="butt" stroke-opacity="1.0" transform="matrix(1,0,0,1,10390,0)" d="M -54 305 Q -54 278 -12 197 Q 29 116 78 -9 Q 127 -135 172 -271 Q 217 -408 263 -563 L 365 -905 L 228 -869 Q 177 -869 144 -923 Q 137 -937 137 -956 Q 137 -976 168 -1003 Q 200 -1030 245 -1053 Q 337 -1100 434 -1125 L 446 -1162 Q 482 -1272 514 -1390 Q 546 -1508 582 -1620 Q 618 -1733 664 -1834 Q 710 -1936 772 -2011 Q 908 -2176 1114 -2176 Q 1267 -2176 1356 -2095 Q 1445 -2014 1445 -1876 Q 1445 -1732 1362 -1626 Q 1293 -1539 1208 -1539 Q 1101 -1539 1063 -1633 Q 1053 -1657 1053 -1674 Q 1053 -1702 1092 -1725 Q 1164 -1778 1193 -1867 Q 1202 -1895 1202 -1922 Q 1202 -2026 1118 -2026 Q 1003 -2026 906 -1772 Q 877 -1695 848 -1602 L 725 -1195 Q 844 -1216 898 -1216 Q 953 -1216 995 -1203 Q 1037 -1190 1071 -1167 Q 1148 -1114 1148 -1037 Q 1148 -960 1075 -960 L 908 -960 Q 772 -960 656 -948 L 549 -574 Q 442 -192 376 -19 Q 310 154 247 274 Q 188 384 67 384 Q -54 384 -54 305 Z"/>
		<path character="o" fill="#EA8872" fill-opacity="1.0" stroke="none" stroke-width="0" stroke-linecap="butt" stroke-opacity="1.0" transform="matrix(1,0,0,1,11494,0)" d="M 216 -100 Q 161 -152 129 -231 Q 98 -310 97 -418 Q 96 -526 124 -636 Q 152 -747 204 -850 Q 256 -953 328 -1043 Q 401 -1133 489 -1200 Q 681 -1344 887 -1344 Q 1157 -1344 1253 -1111 Q 1321 -943 1261 -704 Q 1206 -484 1059 -300 Q 913 -116 715 -39 Q 615 0 518 0 Q 422 0 346 -24 Q 271 -49 216 -100 M 467 -724 Q 428 -629 405 -529 Q 382 -429 383 -340 Q 384 -251 411 -200 Q 438 -150 498 -150 Q 559 -150 617 -190 Q 676 -231 731 -297 Q 786 -364 834 -451 Q 883 -538 920 -633 Q 1000 -839 997 -999 Q 997 -1140 938 -1179 Q 915 -1194 872 -1194 Q 829 -1194 774 -1156 Q 719 -1118 664 -1054 Q 609 -990 557 -904 Q 506 -819 467 -724 Z"/>
		<path character="r" fill="#EA8872" fill-opacity="1.0" stroke="none" stroke-width="0" stroke-linecap="butt" stroke-opacity="1.0" transform="matrix(1,0,0,1,12919,0)" d="M 99 -43 Q 73 -63 57 -87 Q 42 -111 40 -128 Q 39 -145 47 -170 Q 56 -195 71 -232 Q 338 -877 338 -1098 Q 334 -1160 295 -1186 L 269 -1204 Q 257 -1213 256 -1235 Q 256 -1258 273 -1278 Q 290 -1299 317 -1314 Q 374 -1344 433 -1344 Q 493 -1344 526 -1331 Q 560 -1318 584 -1296 Q 634 -1250 634 -1198 Q 635 -1146 622 -1093 Q 610 -1040 593 -989 Q 576 -938 559 -892 Q 542 -846 537 -824 Q 526 -779 529 -767 Q 560 -794 567 -820 L 618 -916 Q 789 -1219 951 -1317 Q 999 -1344 1065 -1344 Q 1131 -1344 1171 -1298 Q 1212 -1252 1214 -1196 Q 1216 -1140 1206 -1102 Q 1197 -1065 1177 -1033 Q 1134 -960 1072 -960 Q 1055 -960 1041 -972 L 1012 -997 Q 968 -1035 928 -1035 Q 888 -1035 831 -983 Q 774 -932 712 -852 Q 505 -584 374 -251 L 316 -103 Q 294 -47 277 -23 Q 260 0 226 0 Q 193 0 159 -12 Q 126 -24 99 -43 Z"/>
		<path character="R" fill="#EA8872" fill-opacity="1.0" stroke="none" stroke-width="0" stroke-linecap="butt" stroke-opacity="1.0" transform="matrix(1,0,0,1,14872,0)" d="M 1406 -1595 Q 1406 -1858 1061 -1858 Q 844 -1858 622 -1727 Q 558 -1689 522 -1657 Q 486 -1625 453 -1625 Q 420 -1625 390 -1641 Q 360 -1658 336 -1682 Q 249 -1778 354 -1867 Q 512 -2001 877 -2040 Q 950 -2048 1063 -2048 Q 1176 -2048 1301 -2007 Q 1427 -1966 1512 -1896 Q 1683 -1755 1683 -1537 Q 1683 -1277 1446 -1064 Q 1242 -876 962 -796 Q 1038 -734 1105 -617 L 1210 -431 Q 1348 -177 1457 -155 Q 1495 -148 1535 -157 Q 1576 -167 1588 -167 Q 1601 -167 1605 -146 Q 1610 -125 1594 -93 Q 1579 -62 1544 -34 Q 1461 32 1362 24 Q 1264 17 1203 -16 Q 1142 -50 1094 -101 Q 1046 -153 1008 -215 Q 971 -278 940 -344 L 881 -472 Q 853 -535 829 -580 Q 806 -626 789 -663 Q 772 -701 751 -731 Q 706 -799 637 -818 Q 361 -109 76 -9 Q 53 0 28 0 Q 4 0 -15 -8 Q -35 -17 -49 -30 Q -76 -55 -76 -85 Q -76 -115 -56 -130 Q 140 -273 381 -964 L 459 -1186 Q 595 -1569 688 -1658 Q 721 -1683 756 -1683 Q 791 -1683 817 -1671 Q 844 -1660 864 -1643 Q 908 -1604 908 -1562 Q 908 -1521 890 -1489 Q 873 -1457 851 -1398 Q 786 -1229 751 -1127 L 684 -936 Q 963 -973 1179 -1157 Q 1406 -1350 1406 -1595 Z"/>
		<path character="u" fill="#EA8872" fill-opacity="1.0" stroke="none" stroke-width="0" stroke-linecap="butt" stroke-opacity="1.0" transform="matrix(1,0,0,1,16553,0)" d="M 1319 -292 Q 1349 -292 1349 -260 Q 1349 -137 1236 -54 Q 1160 0 1058 0 Q 974 0 929 -39 Q 849 -110 849 -213 Q 849 -342 958 -610 Q 756 -337 674 -247 Q 593 -157 533 -108 Q 402 0 295 0 Q 133 0 79 -138 Q 63 -180 63 -234 Q 63 -289 82 -356 Q 101 -424 131 -497 Q 161 -571 197 -648 L 268 -803 Q 404 -1100 369 -1155 Q 353 -1179 310 -1204 Q 294 -1213 294 -1235 Q 294 -1258 313 -1278 Q 332 -1299 362 -1314 Q 427 -1344 491 -1344 Q 555 -1344 588 -1331 Q 622 -1318 643 -1298 Q 686 -1256 686 -1206 Q 686 -1156 669 -1093 Q 652 -1031 624 -958 Q 597 -885 564 -808 Q 474 -604 442 -539 L 394 -442 Q 353 -355 353 -320 Q 353 -285 365 -270 Q 377 -256 407 -256 Q 438 -256 479 -283 Q 520 -311 568 -357 Q 617 -404 669 -465 Q 722 -526 772 -591 Q 870 -720 916 -797 Q 1194 -1269 1213 -1290 Q 1255 -1344 1299 -1344 Q 1343 -1344 1375 -1334 Q 1408 -1325 1432 -1308 Q 1487 -1269 1467 -1230 Q 1147 -593 1122 -429 Q 1116 -372 1116 -351 Q 1116 -256 1176 -256 Q 1232 -256 1269 -274 Q 1306 -292 1319 -292 Z"/>
		<path character="b" fill="#EA8872" fill-opacity="1.0" stroke="none" stroke-width="0" stroke-linecap="butt" stroke-opacity="1.0" transform="matrix(1,0,0,1,18042,0)" d="M 106 -383 Q 106 -458 117 -527 Q 129 -596 146 -666 Q 164 -737 186 -807 L 333 -1252 Q 508 -1794 553 -2099 Q 567 -2208 660 -2208 Q 715 -2208 753 -2179 Q 823 -2122 821 -2058 Q 819 -1994 802 -1916 Q 786 -1838 760 -1745 Q 735 -1653 702 -1551 Q 614 -1290 571 -1174 L 496 -978 Q 610 -1153 683 -1218 Q 827 -1344 983 -1344 Q 1213 -1344 1289 -1109 Q 1314 -1028 1314 -907 Q 1314 -786 1278 -667 Q 1242 -548 1180 -445 Q 1118 -343 1036 -261 Q 954 -179 864 -121 Q 672 0 492 0 Q 311 0 207 -109 Q 106 -219 106 -383 M 474 -170 Q 597 -170 725 -278 Q 919 -442 986 -748 Q 1008 -848 1008 -956 Q 1008 -1065 983 -1108 Q 958 -1152 906 -1152 Q 854 -1152 798 -1111 Q 742 -1070 680 -1002 Q 618 -935 557 -847 Q 497 -759 449 -665 Q 343 -459 343 -314 Q 343 -170 474 -170 Z"/>
		<path character="y" fill="#EA8872" fill-opacity="1.0" stroke="none" stroke-width="0" stroke-linecap="butt" stroke-opacity="1.0" transform="matrix(1,0,0,1,19466,0)" d="M 92 -138 Q 76 -180 76 -234 Q 76 -289 95 -356 Q 114 -424 144 -497 Q 175 -571 210 -648 L 281 -803 Q 417 -1100 382 -1155 Q 366 -1179 323 -1204 Q 307 -1213 307 -1235 Q 307 -1258 326 -1278 Q 345 -1299 375 -1314 Q 440 -1344 504 -1344 Q 568 -1344 601 -1331 Q 635 -1318 656 -1298 Q 700 -1256 700 -1206 Q 700 -1156 682 -1093 Q 665 -1031 637 -958 Q 610 -885 578 -808 Q 487 -604 455 -539 L 407 -442 Q 366 -355 366 -320 Q 366 -285 378 -270 Q 390 -256 421 -256 Q 452 -256 489 -278 Q 526 -301 569 -339 Q 613 -377 659 -426 Q 706 -476 751 -530 Q 868 -668 924 -767 Q 1208 -1267 1225 -1290 Q 1268 -1344 1312 -1344 Q 1356 -1344 1388 -1334 Q 1421 -1325 1445 -1307 Q 1498 -1271 1477 -1225 Q 1457 -1180 1428 -1100 Q 1179 -397 1104 -218 Q 1030 -40 975 68 Q 920 177 846 287 Q 772 397 688 488 Q 496 692 328 707 Q 264 712 226 689 Q 160 649 160 614 Q 160 578 220 564 Q 280 551 343 509 Q 407 468 466 413 Q 639 248 735 53 Q 816 -117 866 -270 L 969 -582 Q 931 -536 885 -474 L 790 -348 Q 667 -191 585 -125 Q 431 0 308 0 Q 146 0 92 -138 Z"/>
</g>
</svg>