<svg xmlns="http://www.w3.org/2000/svg" xmlns:xlink="http://www.w3.org/1999/xlink" viewBox="0 0 14353 2797">
<title>Statosio for Ruby</title>
<g transform="matrix(1,0,0,1,0,2752)">
  		<path character="S" fill="#EA8872" fill-opacity="1.0" stroke="none" stroke-width="10px" stroke-linecap="butt" stroke-opacity="1.0" transform="matrix(1,0,0,1,-128,0)" d="M 362 64 Q 308 64 275 57 Q 243 50 205 28 Q 158 -3 131 -68 Q 131 -166 215 -166 Q 255 -166 313 -142 Q 345 -126 362 -126 Q 398 -126 434 -162 Q 471 -198 494 -264 Q 544 -408 544 -517 Q 544 -641 508 -769 Q 473 -898 413 -1012 Q 401 -1041 369 -1100 Q 301 -1235 265 -1312 Q 230 -1390 202 -1485 Q 163 -1614 163 -1761 Q 163 -1859 194 -1951 Q 226 -2044 297 -2113 Q 380 -2190 484 -2190 Q 534 -2190 598 -2143 Q 662 -2097 662 -2037 Q 662 -1961 591 -1961 Q 558 -1961 515 -1991 Q 504 -2000 503 -2000 Q 464 -2000 430 -1966 Q 396 -1933 379 -1879 Q 363 -1830 363 -1771 Q 363 -1673 388 -1566 Q 414 -1460 457 -1367 L 550 -1171 L 577 -1115 Q 633 -996 665 -918 Q 697 -840 720 -741 Q 750 -608 750 -485 Q 750 -316 664 -142 Q 618 -51 539 6 Q 460 64 362 64 Z"/>
		<path character="t" fill="#EA8872" fill-opacity="1.0" stroke="none" stroke-width="10px" stroke-linecap="butt" stroke-opacity="1.0" transform="matrix(1,0,0,1,824,0)" d="M 369 -64 L 365 -191 Q 363 -235 363 -290 Q 363 -320 365 -340 L 368 -386 Q 368 -403 357 -441 Q 357 -629 331 -1119 Q 304 -1595 302 -1712 Q 186 -1712 120 -1725 Q 27 -1758 27 -1867 Q 78 -1902 132 -1902 Q 212 -1902 364 -1902 Q 503 -1902 596 -1902 L 652 -1902 L 708 -1902 Q 811 -1902 811 -1800 Q 811 -1752 773 -1732 Q 736 -1712 698 -1712 Q 644 -1712 586 -1712 L 471 -1712 Q 468 -1759 515 -1752 Q 513 -1744 513 -1708 Q 513 -1448 545 -917 Q 574 -364 574 -123 Q 574 -76 533 -46 Q 492 -17 434 -17 L 369 -64 Z"/>
		<path character="a" fill="#EA8872" fill-opacity="1.0" stroke="none" stroke-width="10px" stroke-linecap="butt" stroke-opacity="1.0" transform="matrix(1,0,0,1,1712,0)" d="M 784 0 Q 711 0 685 -23 Q 659 -47 651 -108 Q 627 -309 621 -358 L 613 -430 Q 598 -434 530 -434 L 434 -434 Q 370 -434 340 -434 Q 337 -474 377 -472 Q 377 -413 322 -465 L 369 -413 Q 366 -360 338 -208 Q 324 -126 302 -79 Q 267 0 212 0 Q 177 0 140 -28 Q 104 -57 104 -110 L 109 -124 L 111 -129 Q 158 -317 190 -503 L 222 -668 L 254 -871 Q 254 -871 284 -1048 Q 297 -1121 332 -1281 Q 369 -1461 377 -1532 Q 380 -1539 387 -1622 Q 397 -1726 406 -1775 Q 415 -1857 448 -1902 L 495 -1902 Q 503 -1902 514 -1902 Q 524 -1902 540 -1917 Q 599 -1917 632 -1890 Q 665 -1864 665 -1822 Q 665 -1697 683 -1534 Q 694 -1448 699 -1391 Q 729 -1047 849 -95 L 849 -86 Q 849 -30 784 0 M 623 -594 Q 568 -934 548 -1662 L 458 -964 Q 398 -673 398 -602 Q 357 -602 453 -613 Q 549 -624 623 -624 L 623 -594 Z"/>
		<path character="t" fill="#EA8872" fill-opacity="1.0" stroke="none" stroke-width="10px" stroke-linecap="butt" stroke-opacity="1.0" transform="matrix(1,0,0,1,2664,0)" d="M 369 -64 L 365 -191 Q 363 -235 363 -290 Q 363 -320 365 -340 L 368 -386 Q 368 -403 357 -441 Q 357 -629 331 -1119 Q 304 -1595 302 -1712 Q 186 -1712 120 -1725 Q 27 -1758 27 -1867 Q 78 -1902 132 -1902 Q 212 -1902 364 -1902 Q 503 -1902 596 -1902 L 652 -1902 L 708 -1902 Q 811 -1902 811 -1800 Q 811 -1752 773 -1732 Q 736 -1712 698 -1712 Q 644 -1712 586 -1712 L 471 -1712 Q 468 -1759 515 -1752 Q 513 -1744 513 -1708 Q 513 -1448 545 -917 Q 574 -364 574 -123 Q 574 -76 533 -46 Q 492 -17 434 -17 L 369 -64 Z"/>
		<path character="o" fill="#EA8872" fill-opacity="1.0" stroke="none" stroke-width="10px" stroke-linecap="butt" stroke-opacity="1.0" transform="matrix(1,0,0,1,3552,0)" d="M 524 32 Q 157 32 157 -1007 L 157 -1101 Q 157 -1902 404 -1902 Q 427 -1902 460 -1891 Q 539 -1864 619 -1856 Q 696 -1839 759 -1724 Q 819 -1620 848 -1455 Q 878 -1290 878 -1110 L 873 -1096 Q 873 -1019 875 -949 L 878 -789 Q 878 -649 867 -537 Q 850 -365 811 -239 Q 785 -159 749 -103 Q 714 -48 660 -11 Q 605 32 524 32 M 514 -158 Q 579 -158 616 -267 Q 665 -409 675 -556 Q 685 -713 685 -807 Q 685 -911 669 -1116 Q 656 -1350 656 -1420 L 639 -1453 L 651 -1480 Q 651 -1572 599 -1642 Q 547 -1712 482 -1712 Q 404 -1712 389 -1635 Q 385 -1597 379 -1522 Q 379 -1322 363 -1250 Q 363 -1213 355 -1127 L 350 -1005 Q 350 -950 353 -905 L 355 -797 Q 355 -675 377 -516 Q 392 -400 411 -324 Q 431 -248 466 -197 Q 490 -158 514 -158 Z"/>
		<path character="s" fill="#EA8872" fill-opacity="1.0" stroke="none" stroke-width="10px" stroke-linecap="butt" stroke-opacity="1.0" transform="matrix(1,0,0,1,4568,0)" d="M 276 0 Q 227 0 184 -36 Q 141 -73 134 -144 L 173 -207 Q 220 -207 266 -198 Q 291 -190 300 -190 Q 336 -190 369 -223 Q 402 -256 421 -314 Q 456 -440 456 -553 Q 456 -718 351 -910 Q 282 -1029 243 -1101 Q 204 -1174 174 -1270 Q 136 -1384 136 -1492 Q 136 -1595 188 -1732 Q 217 -1805 274 -1853 Q 331 -1902 402 -1902 Q 454 -1902 506 -1864 Q 558 -1827 558 -1772 Q 558 -1685 468 -1685 Q 437 -1685 407 -1712 Q 412 -1728 412 -1712 Q 395 -1712 375 -1693 Q 356 -1674 344 -1637 Q 315 -1548 315 -1476 Q 315 -1433 328 -1385 Q 330 -1369 333 -1357 Q 337 -1345 316 -1337 L 351 -1294 L 363 -1251 L 382 -1207 Q 388 -1193 396 -1180 Q 405 -1167 414 -1153 L 445 -1099 Q 456 -1084 492 -1022 Q 528 -961 558 -893 Q 587 -835 601 -782 Q 616 -729 627 -657 Q 635 -588 635 -506 Q 635 -372 598 -252 Q 543 -101 435 -39 Q 371 0 290 0 L 276 0 M 487 -1765 Q 487 -1762 490 -1762 L 490 -1765 L 487 -1765 Z"/>
		<path character="i" fill="#EA8872" fill-opacity="1.0" stroke="none" stroke-width="10px" stroke-linecap="butt" stroke-opacity="1.0" transform="matrix(1,0,0,1,5328,0)" d="M 391 0 Q 285 0 306 -92 Q 315 -58 308 -50 L 276 -50 Q 185 -50 147 -121 Q 147 -185 186 -212 L 211 -240 L 299 -219 L 274 -223 L 275 -228 L 277 -253 Q 277 -411 269 -537 L 264 -637 L 259 -831 Q 259 -937 267 -1145 L 272 -1451 Q 272 -1650 278 -1729 Q 281 -1712 234 -1712 L 204 -1712 Q 188 -1712 170 -1712 Q 64 -1712 64 -1812 Q 64 -1859 109 -1880 Q 155 -1902 183 -1902 Q 284 -1902 386 -1902 Q 458 -1902 529 -1872 Q 611 -1839 611 -1767 Q 611 -1749 587 -1689 L 457 -1674 Q 436 -1712 425 -1712 L 420 -1750 Q 459 -1744 459 -1616 Q 459 -1439 457 -1296 L 451 -976 Q 451 -858 462 -687 Q 470 -488 470 -388 L 470 -349 Q 467 -330 467 -305 Q 467 -258 481 -233 L 444 -219 Q 457 -224 476 -240 Q 500 -240 516 -240 L 556 -240 Q 689 -240 689 -152 Q 689 -105 655 -77 Q 622 -50 575 -50 Q 551 -50 532 -50 Q 511 -50 487 -50 Q 487 -55 473 -39 Q 427 0 391 0 Z"/>
		<path character="o" fill="#EA8872" fill-opacity="1.0" stroke="none" stroke-width="10px" stroke-linecap="butt" stroke-opacity="1.0" transform="matrix(1,0,0,1,6088,0)" d="M 524 32 Q 157 32 157 -1007 L 157 -1101 Q 157 -1902 404 -1902 Q 427 -1902 460 -1891 Q 539 -1864 619 -1856 Q 696 -1839 759 -1724 Q 819 -1620 848 -1455 Q 878 -1290 878 -1110 L 873 -1096 Q 873 -1019 875 -949 L 878 -789 Q 878 -649 867 -537 Q 850 -365 811 -239 Q 785 -159 749 -103 Q 714 -48 660 -11 Q 605 32 524 32 M 514 -158 Q 579 -158 616 -267 Q 665 -409 675 -556 Q 685 -713 685 -807 Q 685 -911 669 -1116 Q 656 -1350 656 -1420 L 639 -1453 L 651 -1480 Q 651 -1572 599 -1642 Q 547 -1712 482 -1712 Q 404 -1712 389 -1635 Q 385 -1597 379 -1522 Q 379 -1322 363 -1250 Q 363 -1213 355 -1127 L 350 -1005 Q 350 -950 353 -905 L 355 -797 Q 355 -675 377 -516 Q 392 -400 411 -324 Q 431 -248 466 -197 Q 490 -158 514 -158 Z"/>
		<path character="f" fill="#EA8872" fill-opacity="1.0" stroke="none" stroke-width="10px" stroke-linecap="butt" stroke-opacity="1.0" transform="matrix(1,0,0,1,7561,0)" d="M 192 -70 Q 221 -337 221 -735 Q 221 -912 237 -1270 Q 256 -1599 256 -1797 Q 256 -1853 298 -1877 Q 341 -1902 386 -1902 Q 483 -1902 620 -1880 Q 758 -1858 758 -1781 Q 758 -1688 599 -1688 Q 540 -1712 463 -1712 L 437 -1710 Q 434 -1741 443 -1737 Q 453 -1733 464 -1728 Q 455 -1698 430 -1704 Q 454 -1597 443 -1439 Q 430 -1292 430 -1177 L 430 -1089 Q 385 -1089 416 -1136 Q 609 -1136 609 -1044 Q 609 -996 569 -971 Q 530 -946 490 -946 Q 468 -946 431 -955 Q 411 -960 399 -960 Q 399 -967 406 -879 L 406 -564 Q 406 -499 414 -370 Q 422 -235 422 -166 Q 422 0 285 0 L 192 -70 Z"/>
		<path character="o" fill="#EA8872" fill-opacity="1.0" stroke="none" stroke-width="10px" stroke-linecap="butt" stroke-opacity="1.0" transform="matrix(1,0,0,1,8385,0)" d="M 524 32 Q 157 32 157 -1007 L 157 -1101 Q 157 -1902 404 -1902 Q 427 -1902 460 -1891 Q 539 -1864 619 -1856 Q 696 -1839 759 -1724 Q 819 -1620 848 -1455 Q 878 -1290 878 -1110 L 873 -1096 Q 873 -1019 875 -949 L 878 -789 Q 878 -649 867 -537 Q 850 -365 811 -239 Q 785 -159 749 -103 Q 714 -48 660 -11 Q 605 32 524 32 M 514 -158 Q 579 -158 616 -267 Q 665 -409 675 -556 Q 685 -713 685 -807 Q 685 -911 669 -1116 Q 656 -1350 656 -1420 L 639 -1453 L 651 -1480 Q 651 -1572 599 -1642 Q 547 -1712 482 -1712 Q 404 -1712 389 -1635 Q 385 -1597 379 -1522 Q 379 -1322 363 -1250 Q 363 -1213 355 -1127 L 350 -1005 Q 350 -950 353 -905 L 355 -797 Q 355 -675 377 -516 Q 392 -400 411 -324 Q 431 -248 466 -197 Q 490 -158 514 -158 Z"/>
		<path character="r" fill="#EA8872" fill-opacity="1.0" stroke="none" stroke-width="10px" stroke-linecap="butt" stroke-opacity="1.0" transform="matrix(1,0,0,1,9401,0)" d="M 624 11 Q 573 -44 533 -201 Q 494 -358 462 -547 Q 441 -696 402 -842 Q 394 -952 394 -934 L 386 -934 Q 364 -952 382 -952 Q 382 -763 403 -378 Q 414 -148 431 -94 L 385 0 L 294 0 L 238 -48 Q 195 -1299 195 -1746 Q 195 -1781 201 -1808 Q 207 -1836 226 -1859 Q 250 -1902 308 -1902 Q 463 -1902 564 -1820 Q 665 -1739 665 -1587 L 665 -1392 Q 665 -1331 629 -1239 Q 593 -1147 551 -1072 L 526 -1023 Q 552 -907 638 -557 Q 724 -207 689 -177 Q 728 -203 734 -186 Q 740 -169 751 -151 Q 777 -100 777 -60 Q 777 32 683 32 L 624 11 M 348 -1071 Q 364 -1109 392 -1145 Q 421 -1181 442 -1249 Q 483 -1402 483 -1490 Q 483 -1546 477 -1581 Q 471 -1616 456 -1657 Q 437 -1712 356 -1712 Q 356 -1749 369 -1731 Q 382 -1713 382 -1698 Q 382 -1523 387 -1381 Q 390 -1238 357 -1068 L 348 -1071 Z"/>
		<path character="R" fill="#EA8872" fill-opacity="1.0" stroke="none" stroke-width="10px" stroke-linecap="butt" stroke-opacity="1.0" transform="matrix(1,0,0,1,10745,0)" d="M 706 0 Q 609 0 586 -94 L 554 -209 Q 479 -454 444 -625 Q 422 -717 390 -881 Q 353 -1070 360 -1165 L 374 -1136 L 369 -1134 L 374 -148 L 374 -108 Q 374 0 271 0 Q 227 0 197 -29 Q 168 -59 168 -100 L 168 -140 L 173 -681 L 179 -940 Q 189 -1407 189 -1735 L 189 -2079 Q 189 -2158 292 -2158 Q 378 -2158 451 -2112 Q 524 -2066 564 -1989 Q 643 -1845 643 -1674 Q 643 -1540 586 -1386 Q 570 -1343 543 -1285 Q 517 -1227 504 -1226 Q 561 -1050 668 -625 L 792 -150 Q 798 -135 798 -104 Q 798 -68 776 -34 Q 754 0 706 0 M 332 -1278 Q 311 -1307 350 -1350 Q 390 -1394 407 -1421 Q 421 -1450 433 -1520 Q 445 -1590 445 -1644 Q 445 -1746 410 -1855 Q 394 -1912 369 -1940 Q 345 -1968 324 -1968 L 323 -2013 Q 339 -1965 316 -2015 L 332 -1278 Z"/>
		<path character="u" fill="#EA8872" fill-opacity="1.0" stroke="none" stroke-width="10px" stroke-linecap="butt" stroke-opacity="1.0" transform="matrix(1,0,0,1,11633,0)" d="M 527 0 Q 469 0 409 -34 Q 350 -68 311 -114 Q 263 -176 241 -407 Q 219 -638 213 -927 Q 213 -990 211 -1022 Q 205 -1688 187 -1822 L 226 -1911 Q 377 -1891 377 -1705 L 385 -1001 Q 385 -929 398 -724 Q 414 -536 414 -438 Q 414 -190 559 -190 Q 630 -190 661 -696 L 664 -748 Q 683 -1477 683 -1824 L 681 -1840 Q 677 -1855 677 -1875 Q 677 -1966 778 -1966 Q 844 -1966 871 -1913 Q 878 -1873 878 -1800 Q 878 -1588 863 -1523 L 865 -1513 Q 865 -1471 857 -1397 L 851 -1294 L 851 -1276 Q 854 -1265 854 -1240 Q 849 -1176 849 -1115 Q 846 -1096 846 -1059 Q 841 -805 835 -617 Q 827 -377 768 -208 Q 697 0 527 0 Z"/>
		<path character="b" fill="#EA8872" fill-opacity="1.0" stroke="none" stroke-width="10px" stroke-linecap="butt" stroke-opacity="1.0" transform="matrix(1,0,0,1,12713,0)" d="M 290 0 Q 244 0 214 -33 Q 184 -66 184 -110 L 181 -193 Q 181 -291 197 -480 Q 211 -682 211 -749 L 208 -866 Q 205 -918 205 -983 Q 205 -1088 213 -1296 Q 221 -1507 221 -1607 L 232 -1742 L 208 -1750 L 208 -1785 Q 208 -1902 319 -1902 Q 370 -1902 490 -1865 Q 611 -1828 611 -1768 L 579 -1768 Q 655 -1713 674 -1634 Q 694 -1556 694 -1439 Q 694 -1251 599 -1151 L 692 -1204 Q 635 -1099 600 -1053 L 594 -1044 Q 612 -1029 650 -944 Q 688 -860 697 -780 Q 699 -754 702 -717 Q 705 -681 707 -630 L 710 -557 L 710 -517 Q 710 -224 529 -79 Q 431 0 290 0 M 372 -1136 Q 493 -1136 493 -1406 Q 493 -1431 488 -1508 L 522 -1550 L 483 -1537 Q 470 -1630 455 -1671 Q 447 -1690 431 -1701 Q 416 -1712 399 -1712 Q 395 -1712 395 -1445 Q 395 -1388 398 -1366 L 398 -1313 L 398 -1228 Q 395 -1188 395 -1141 L 395 -1123 Q 395 -1123 398 -1117 L 369 -1105 L 372 -1136 M 385 -190 Q 376 -190 418 -225 Q 461 -261 488 -323 Q 515 -385 515 -450 L 517 -461 L 517 -479 L 517 -511 Q 517 -630 500 -736 Q 474 -867 413 -922 Q 386 -946 400 -946 Q 390 -757 390 -604 L 390 -536 Q 390 -456 400 -393 Q 385 -363 385 -264 L 385 -191 L 385 -190 Z"/>
		<path character="y" fill="#EA8872" fill-opacity="1.0" stroke="none" stroke-width="10px" stroke-linecap="butt" stroke-opacity="1.0" transform="matrix(1,0,0,1,13601,0)" d="M 423 0 Q 396 0 367 -22 Q 339 -44 328 -88 Q 355 -156 355 -540 Q 355 -614 347 -753 L 334 -927 L 314 -969 L 322 -1001 Q 313 -1023 280 -1110 Q 248 -1197 216 -1286 Q 120 -1537 90 -1649 Q 73 -1703 59 -1785 L 142 -1847 Q 226 -1832 286 -1639 Q 326 -1523 359 -1410 L 391 -1310 Q 416 -1164 391 -1153 L 370 -1171 L 348 -1198 Q 383 -1240 412 -1390 Q 446 -1580 479 -1710 Q 523 -1902 602 -1902 Q 634 -1902 662 -1880 Q 691 -1858 691 -1820 Q 691 -1772 609 -1489 Q 569 -1359 544 -1246 Q 513 -1116 513 -1028 Q 526 -1002 526 -971 Q 526 -949 515 -916 Q 510 -902 510 -895 Q 510 -885 521 -785 Q 531 -711 531 -658 Q 531 -544 534 -453 L 534 -243 L 534 -232 Q 534 0 423 0 Z"/>
</g>
</svg>