<svg xmlns="http://www.w3.org/2000/svg" xmlns:xlink="http://www.w3.org/1999/xlink" viewBox="0 0 33521 3546">
<title>Local Path Builder for Ruby</title>
<g transform="matrix(1,0,0,1,0,2624)">
  		<path character="L" fill="#EA8872" fill-opacity="1.0" stroke="none" stroke-width="0" stroke-linecap="butt" stroke-opacity="1.0" transform="matrix(1,0,0,1,64,0)" d="M 1180 -1898 Q 1004 -1898 824 -1463 L 606 -905 Q 399 -373 209 -206 Q 482 -303 848 -335 Q 900 -340 950 -340 Q 1000 -340 1057 -323 Q 1114 -307 1156 -274 Q 1247 -202 1247 -72 Q 1247 0 1194 0 Q 1166 0 1138 -14 Q 1110 -29 1075 -42 Q 1041 -56 995 -68 Q 890 -96 779 -96 Q 668 -96 565 -80 Q 463 -65 373 -48 L 203 -15 Q 126 0 86 0 Q 46 0 24 -17 Q 3 -35 -16 -63 Q -55 -123 -55 -161 Q -55 -222 -26 -239 Q 87 -299 228 -705 Q 360 -1081 407 -1209 Q 455 -1337 513 -1459 Q 571 -1582 638 -1689 Q 706 -1796 788 -1876 Q 962 -2048 1172 -2048 Q 1320 -2048 1421 -1923 Q 1513 -1809 1513 -1658 Q 1513 -1454 1358 -1235 Q 1268 -1108 1163 -1050 Q 1112 -1023 1070 -1023 Q 1029 -1023 997 -1039 Q 966 -1056 942 -1080 Q 894 -1132 894 -1174 Q 894 -1216 915 -1229 Q 1074 -1328 1184 -1468 Q 1303 -1618 1303 -1758 Q 1303 -1898 1180 -1898 Z"/>
		<path character="o" fill="#EA8872" fill-opacity="1.0" stroke="none" stroke-width="0" stroke-linecap="butt" stroke-opacity="1.0" transform="matrix(1,0,0,1,1489,0)" d="M 216 -100 Q 161 -152 129 -231 Q 98 -310 97 -418 Q 96 -526 124 -636 Q 152 -747 204 -850 Q 256 -953 328 -1043 Q 401 -1133 489 -1200 Q 681 -1344 887 -1344 Q 1157 -1344 1253 -1111 Q 1321 -943 1261 -704 Q 1206 -484 1059 -300 Q 913 -116 715 -39 Q 615 0 518 0 Q 422 0 346 -24 Q 271 -49 216 -100 M 467 -724 Q 428 -629 405 -529 Q 382 -429 383 -340 Q 384 -251 411 -200 Q 438 -150 498 -150 Q 559 -150 617 -190 Q 676 -231 731 -297 Q 786 -364 834 -451 Q 883 -538 920 -633 Q 1000 -839 997 -999 Q 997 -1140 938 -1179 Q 915 -1194 872 -1194 Q 829 -1194 774 -1156 Q 719 -1118 664 -1054 Q 609 -990 557 -904 Q 506 -819 467 -724 Z"/>
		<path character="c" fill="#EA8872" fill-opacity="1.0" stroke="none" stroke-width="0" stroke-linecap="butt" stroke-opacity="1.0" transform="matrix(1,0,0,1,2913,0)" d="M 89 -457 Q 92 -568 125 -679 Q 159 -791 214 -890 Q 270 -989 347 -1072 Q 424 -1156 514 -1217 Q 703 -1344 912 -1344 Q 1127 -1344 1205 -1178 Q 1232 -1118 1230 -1042 Q 1228 -967 1204 -904 Q 1181 -841 1146 -792 Q 1066 -680 984 -680 Q 894 -680 850 -730 Q 812 -773 827 -830 Q 831 -847 850 -861 Q 870 -875 900 -905 Q 985 -994 989 -1113 Q 992 -1194 890 -1194 Q 779 -1194 659 -1071 Q 483 -892 411 -613 Q 348 -370 434 -257 Q 485 -192 573 -192 Q 722 -192 859 -296 Q 901 -329 927 -363 Q 954 -397 976 -397 Q 999 -397 1014 -375 Q 1029 -354 1029 -320 Q 1029 -243 959 -169 Q 781 0 530 0 Q 316 0 199 -120 Q 84 -238 89 -457 Z"/>
		<path character="a" fill="#EA8872" fill-opacity="1.0" stroke="none" stroke-width="0" stroke-linecap="butt" stroke-opacity="1.0" transform="matrix(1,0,0,1,4210,0)" d="M 1108 -353 Q 1108 -233 1193 -233 Q 1252 -233 1291 -251 Q 1330 -270 1343 -270 Q 1370 -270 1370 -241 Q 1370 -128 1252 -47 Q 1128 38 998 -5 Q 912 -35 872 -135 Q 852 -186 852 -228 Q 852 -296 865 -372 Q 743 -128 562 -36 Q 490 0 408 0 Q 327 0 267 -33 Q 208 -66 166 -123 Q 80 -244 88 -427 Q 96 -656 226 -876 Q 345 -1082 528 -1212 Q 710 -1344 869 -1344 Q 1028 -1344 1125 -1216 Q 1216 -1344 1285 -1344 Q 1360 -1344 1398 -1317 Q 1470 -1265 1449 -1227 Q 1120 -564 1111 -402 Q 1108 -379 1108 -353 M 379 -350 Q 379 -192 481 -192 Q 558 -192 671 -322 Q 836 -513 964 -836 Q 1004 -938 1032 -1039 Q 1027 -1134 957 -1179 Q 933 -1194 886 -1194 Q 840 -1194 777 -1160 Q 715 -1126 657 -1067 Q 599 -1008 548 -927 Q 498 -846 460 -751 Q 379 -549 379 -350 Z"/>
		<path character="l" fill="#EA8872" fill-opacity="1.0" stroke="none" stroke-width="0" stroke-linecap="butt" stroke-opacity="1.0" transform="matrix(1,0,0,1,5699,0)" d="M 159 -65 Q 126 -99 105 -151 Q 85 -204 85 -274 Q 85 -344 117 -461 Q 150 -578 200 -728 L 310 -1052 Q 545 -1729 581 -2099 Q 593 -2208 689 -2208 Q 749 -2208 789 -2180 Q 865 -2123 862 -2054 Q 860 -1985 837 -1885 Q 815 -1786 779 -1668 Q 744 -1551 698 -1420 L 517 -899 Q 361 -455 361 -325 Q 361 -256 419 -256 Q 474 -256 519 -272 Q 564 -288 578 -288 Q 605 -288 605 -259 Q 605 -138 486 -56 Q 406 0 339 0 Q 273 0 232 -15 Q 192 -31 159 -65 Z"/>
		<path character="P" fill="#EA8872" fill-opacity="1.0" stroke="none" stroke-width="0" stroke-linecap="butt" stroke-opacity="1.0" transform="matrix(1,0,0,1,7332,0)" d="M 384 -328 Q 286 -182 192 -91 Q 98 0 11 0 Q -34 0 -56 -21 Q -95 -54 -95 -84 Q -95 -114 -75 -128 Q 123 -270 365 -958 L 442 -1176 Q 576 -1550 669 -1639 Q 702 -1664 737 -1664 Q 773 -1664 799 -1653 Q 826 -1642 845 -1625 Q 890 -1587 890 -1535 Q 890 -1516 871 -1479 Q 853 -1443 830 -1385 L 663 -930 Q 982 -990 1189 -1203 Q 1383 -1403 1383 -1614 Q 1383 -1814 1210 -1876 Q 1151 -1898 1073 -1898 Q 995 -1898 913 -1875 Q 832 -1852 753 -1814 Q 595 -1739 494 -1636 Q 467 -1607 435 -1607 Q 404 -1607 376 -1620 Q 349 -1634 328 -1656 Q 280 -1704 280 -1753 Q 280 -1803 314 -1842 Q 348 -1882 404 -1914 Q 461 -1946 534 -1971 Q 608 -1996 685 -2014 Q 843 -2048 998 -2048 Q 1154 -2048 1283 -2009 Q 1412 -1971 1496 -1905 Q 1666 -1774 1666 -1571 L 1666 -1550 Q 1654 -1302 1478 -1113 Q 1324 -949 1082 -855 Q 862 -768 667 -768 L 633 -768 Q 616 -768 600 -771 Q 482 -474 384 -328 Z"/>
		<path character="a" fill="#EA8872" fill-opacity="1.0" stroke="none" stroke-width="0" stroke-linecap="butt" stroke-opacity="1.0" transform="matrix(1,0,0,1,8820,0)" d="M 1108 -353 Q 1108 -233 1193 -233 Q 1252 -233 1291 -251 Q 1330 -270 1343 -270 Q 1370 -270 1370 -241 Q 1370 -128 1252 -47 Q 1128 38 998 -5 Q 912 -35 872 -135 Q 852 -186 852 -228 Q 852 -296 865 -372 Q 743 -128 562 -36 Q 490 0 408 0 Q 327 0 267 -33 Q 208 -66 166 -123 Q 80 -244 88 -427 Q 96 -656 226 -876 Q 345 -1082 528 -1212 Q 710 -1344 869 -1344 Q 1028 -1344 1125 -1216 Q 1216 -1344 1285 -1344 Q 1360 -1344 1398 -1317 Q 1470 -1265 1449 -1227 Q 1120 -564 1111 -402 Q 1108 -379 1108 -353 M 379 -350 Q 379 -192 481 -192 Q 558 -192 671 -322 Q 836 -513 964 -836 Q 1004 -938 1032 -1039 Q 1027 -1134 957 -1179 Q 933 -1194 886 -1194 Q 840 -1194 777 -1160 Q 715 -1126 657 -1067 Q 599 -1008 548 -927 Q 498 -846 460 -751 Q 379 -549 379 -350 Z"/>
		<path character="t" fill="#EA8872" fill-opacity="1.0" stroke="none" stroke-width="0" stroke-linecap="butt" stroke-opacity="1.0" transform="matrix(1,0,0,1,10309,0)" d="M 858 -382 Q 897 -382 897 -327 Q 897 -281 870 -237 Q 835 -156 729 -83 Q 608 0 486 0 Q 274 0 218 -193 Q 151 -421 419 -1162 Q 268 -1175 255 -1214 Q 251 -1226 251 -1239 Q 251 -1253 263 -1271 Q 276 -1289 295 -1306 Q 341 -1344 389 -1344 L 492 -1344 Q 634 -1637 694 -1677 Q 723 -1696 758 -1696 Q 794 -1696 817 -1688 Q 841 -1680 860 -1664 Q 902 -1629 902 -1586 Q 902 -1563 886 -1532 L 789 -1344 L 820 -1344 Q 902 -1344 952 -1344 Q 952 -1344 1026 -1344 Q 1051 -1344 1088 -1344 Q 1126 -1344 1126 -1318 Q 1126 -1153 717 -1153 L 706 -1153 L 617 -923 Q 466 -516 466 -353 Q 466 -307 487 -281 Q 508 -256 566 -256 Q 624 -256 671 -275 Q 718 -295 753 -319 Q 789 -343 814 -362 Q 840 -382 858 -382 Z"/>
		<path character="h" fill="#EA8872" fill-opacity="1.0" stroke="none" stroke-width="0" stroke-linecap="butt" stroke-opacity="1.0" transform="matrix(1,0,0,1,11286,0)" d="M 1042 -1088 Q 970 -1088 784 -874 L 675 -745 L 465 -479 Q 389 -339 345 -247 L 274 -99 Q 247 -44 226 -22 Q 206 0 171 0 Q 137 0 104 -12 Q 72 -25 49 -44 Q -1 -86 -1 -135 Q -1 -155 26 -212 L 79 -318 Q 324 -819 524 -1588 Q 597 -1872 630 -2099 Q 644 -2208 738 -2208 Q 798 -2208 837 -2179 Q 914 -2123 911 -2059 Q 908 -1995 892 -1915 Q 877 -1836 852 -1742 Q 827 -1649 795 -1546 Q 709 -1283 667 -1167 Q 538 -815 508 -755 Q 528 -778 559 -818 Q 798 -1123 854 -1182 Q 911 -1242 950 -1274 Q 1033 -1344 1160 -1344 Q 1264 -1344 1327 -1278 Q 1386 -1214 1386 -1138 Q 1386 -1063 1368 -1002 Q 1351 -941 1323 -878 Q 1295 -816 1263 -750 L 1197 -619 Q 1105 -420 1105 -324 Q 1105 -256 1163 -256 Q 1218 -256 1263 -278 Q 1309 -301 1322 -301 Q 1349 -301 1349 -271 Q 1349 -144 1231 -58 Q 1150 0 1083 0 Q 1016 0 972 -13 Q 928 -27 894 -57 Q 816 -126 816 -259 Q 816 -403 914 -620 L 1055 -913 Q 1096 -994 1096 -1041 Q 1096 -1088 1042 -1088 Z"/>
		<path character="B" fill="#EA8872" fill-opacity="1.0" stroke="none" stroke-width="0" stroke-linecap="butt" stroke-opacity="1.0" transform="matrix(1,0,0,1,13623,0)" d="M 150 -210 Q 122 -285 125 -390 Q 128 -496 155 -645 Q 182 -794 237 -964 Q 364 -1359 583 -1662 Q 621 -1714 662 -1714 Q 704 -1714 744 -1695 Q 784 -1676 814 -1649 Q 890 -1584 864 -1542 Q 679 -1232 561 -982 Q 859 -982 1086 -1163 Q 1334 -1359 1334 -1640 Q 1334 -1830 1158 -1882 Q 1104 -1898 1030 -1898 Q 956 -1898 876 -1882 Q 797 -1866 724 -1838 Q 578 -1781 457 -1688 Q 423 -1662 394 -1662 Q 365 -1662 331 -1676 Q 297 -1690 271 -1711 Q 168 -1792 300 -1880 Q 490 -2005 861 -2042 Q 931 -2048 1047 -2048 Q 1163 -2048 1284 -2009 Q 1406 -1971 1480 -1906 Q 1615 -1784 1615 -1567 Q 1615 -1370 1461 -1179 Q 1321 -1003 1099 -893 Q 1205 -847 1258 -764 Q 1312 -681 1309 -585 Q 1306 -489 1270 -408 Q 1234 -328 1173 -263 Q 1112 -198 1031 -148 Q 951 -99 861 -67 Q 679 0 491 0 Q 227 0 150 -210 M 468 -766 Q 368 -523 363 -343 Q 360 -256 406 -209 Q 453 -162 534 -162 Q 616 -162 702 -196 Q 789 -231 861 -290 Q 1027 -426 1032 -598 Q 1036 -754 888 -810 Q 843 -827 792 -832 Q 730 -832 619 -803 Q 508 -775 468 -766 Z"/>
		<path character="u" fill="#EA8872" fill-opacity="1.0" stroke="none" stroke-width="0" stroke-linecap="butt" stroke-opacity="1.0" transform="matrix(1,0,0,1,15112,0)" d="M 1319 -292 Q 1349 -292 1349 -260 Q 1349 -137 1236 -54 Q 1160 0 1058 0 Q 974 0 929 -39 Q 849 -110 849 -213 Q 849 -342 958 -610 Q 756 -337 674 -247 Q 593 -157 533 -108 Q 402 0 295 0 Q 133 0 79 -138 Q 63 -180 63 -234 Q 63 -289 82 -356 Q 101 -424 131 -497 Q 161 -571 197 -648 L 268 -803 Q 404 -1100 369 -1155 Q 353 -1179 310 -1204 Q 294 -1213 294 -1235 Q 294 -1258 313 -1278 Q 332 -1299 362 -1314 Q 427 -1344 491 -1344 Q 555 -1344 588 -1331 Q 622 -1318 643 -1298 Q 686 -1256 686 -1206 Q 686 -1156 669 -1093 Q 652 -1031 624 -958 Q 597 -885 564 -808 Q 474 -604 442 -539 L 394 -442 Q 353 -355 353 -320 Q 353 -285 365 -270 Q 377 -256 407 -256 Q 438 -256 479 -283 Q 520 -311 568 -357 Q 617 -404 669 -465 Q 722 -526 772 -591 Q 870 -720 916 -797 Q 1194 -1269 1213 -1290 Q 1255 -1344 1299 -1344 Q 1343 -1344 1375 -1334 Q 1408 -1325 1432 -1308 Q 1487 -1269 1467 -1230 Q 1147 -593 1122 -429 Q 1116 -372 1116 -351 Q 1116 -256 1176 -256 Q 1232 -256 1269 -274 Q 1306 -292 1319 -292 Z"/>
		<path character="i" fill="#EA8872" fill-opacity="1.0" stroke="none" stroke-width="0" stroke-linecap="butt" stroke-opacity="1.0" transform="matrix(1,0,0,1,16600,0)" d="M 803 -1732 Q 774 -1701 737 -1682 Q 701 -1663 660 -1658 Q 620 -1654 583 -1671 Q 547 -1688 521 -1720 Q 465 -1785 465 -1852 Q 465 -1919 486 -1952 Q 508 -1986 541 -2007 Q 604 -2048 659 -2048 Q 715 -2048 746 -2040 Q 777 -2032 803 -2014 Q 868 -1970 868 -1908 Q 868 -1846 850 -1804 Q 832 -1763 803 -1732 M 534 -256 Q 568 -256 568 -212 Q 568 -153 515 -91 Q 436 0 303 0 Q 151 0 95 -121 Q 74 -163 74 -223 Q 74 -284 95 -358 Q 117 -432 149 -513 Q 181 -595 219 -679 L 289 -841 Q 365 -1022 365 -1080 Q 365 -1138 352 -1157 Q 340 -1176 326 -1186 L 299 -1204 Q 286 -1213 286 -1235 Q 286 -1258 304 -1278 Q 322 -1299 350 -1314 Q 410 -1344 488 -1344 Q 681 -1344 681 -1248 Q 681 -1135 619 -990 Q 558 -846 515 -757 L 436 -585 Q 349 -395 349 -311 Q 349 -256 407 -256 Q 463 -256 492 -256 Q 521 -256 534 -256 Z"/>
		<path character="l" fill="#EA8872" fill-opacity="1.0" stroke="none" stroke-width="0" stroke-linecap="butt" stroke-opacity="1.0" transform="matrix(1,0,0,1,17385,0)" d="M 159 -65 Q 126 -99 105 -151 Q 85 -204 85 -274 Q 85 -344 117 -461 Q 150 -578 200 -728 L 310 -1052 Q 545 -1729 581 -2099 Q 593 -2208 689 -2208 Q 749 -2208 789 -2180 Q 865 -2123 862 -2054 Q 860 -1985 837 -1885 Q 815 -1786 779 -1668 Q 744 -1551 698 -1420 L 517 -899 Q 361 -455 361 -325 Q 361 -256 419 -256 Q 474 -256 519 -272 Q 564 -288 578 -288 Q 605 -288 605 -259 Q 605 -138 486 -56 Q 406 0 339 0 Q 273 0 232 -15 Q 192 -31 159 -65 Z"/>
		<path character="d" fill="#EA8872" fill-opacity="1.0" stroke="none" stroke-width="0" stroke-linecap="butt" stroke-opacity="1.0" transform="matrix(1,0,0,1,18170,0)" d="M 1406 -302 Q 1433 -302 1433 -271 Q 1433 -148 1316 -60 Q 1239 0 1170 0 Q 1101 0 1060 -16 Q 1020 -33 987 -69 Q 914 -152 914 -297 Q 914 -326 924 -390 Q 818 -217 742 -147 Q 588 0 441 0 Q 209 0 137 -206 Q 110 -282 110 -396 Q 110 -511 145 -628 Q 181 -745 242 -850 Q 303 -956 384 -1046 Q 465 -1137 554 -1204 Q 746 -1344 900 -1344 Q 1055 -1344 1148 -1233 Q 1377 -2011 1492 -2151 Q 1541 -2208 1595 -2208 Q 1684 -2208 1730 -2158 Q 1744 -2141 1744 -2124 Q 1744 -2108 1723 -2063 Q 1702 -2018 1662 -1918 Q 1545 -1616 1498 -1476 Q 1377 -1118 1335 -983 L 1263 -745 Q 1169 -428 1169 -342 Q 1169 -256 1234 -256 Q 1293 -256 1328 -271 L 1378 -294 Q 1393 -302 1406 -302 M 504 -192 Q 639 -192 814 -455 Q 996 -727 1068 -1047 Q 1063 -1137 994 -1179 Q 970 -1194 922 -1194 Q 874 -1194 810 -1159 Q 747 -1125 687 -1066 Q 627 -1007 575 -927 Q 524 -848 486 -759 Q 403 -565 403 -378 Q 403 -192 504 -192 Z"/>
		<path character="e" fill="#EA8872" fill-opacity="1.0" stroke="none" stroke-width="0" stroke-linecap="butt" stroke-opacity="1.0" transform="matrix(1,0,0,1,19658,0)" d="M 108 -463 Q 113 -575 146 -677 Q 179 -779 234 -875 Q 289 -971 363 -1056 Q 437 -1142 524 -1206 Q 712 -1344 903 -1344 Q 1128 -1344 1202 -1164 Q 1229 -1102 1227 -1018 Q 1226 -935 1194 -864 Q 1163 -793 1107 -735 Q 1051 -677 974 -631 Q 898 -585 807 -553 Q 621 -489 408 -489 Q 403 -471 401 -434 Q 400 -397 409 -351 Q 419 -306 441 -271 Q 488 -192 578 -192 Q 730 -192 874 -281 Q 925 -311 957 -343 Q 990 -375 1013 -375 Q 1037 -375 1054 -347 Q 1072 -319 1072 -284 Q 1072 -215 1033 -164 Q 868 0 541 0 Q 348 0 231 -113 Q 100 -242 108 -463 M 874 -1194 Q 736 -1194 609 -1004 Q 502 -841 436 -617 Q 655 -639 817 -791 Q 965 -933 965 -1063 Q 965 -1194 874 -1194 Z"/>
		<path character="r" fill="#EA8872" fill-opacity="1.0" stroke="none" stroke-width="0" stroke-linecap="butt" stroke-opacity="1.0" transform="matrix(1,0,0,1,20955,0)" d="M 99 -43 Q 73 -63 57 -87 Q 42 -111 40 -128 Q 39 -145 47 -170 Q 56 -195 71 -232 Q 338 -877 338 -1098 Q 334 -1160 295 -1186 L 269 -1204 Q 257 -1213 256 -1235 Q 256 -1258 273 -1278 Q 290 -1299 317 -1314 Q 374 -1344 433 -1344 Q 493 -1344 526 -1331 Q 560 -1318 584 -1296 Q 634 -1250 634 -1198 Q 635 -1146 622 -1093 Q 610 -1040 593 -989 Q 576 -938 559 -892 Q 542 -846 537 -824 Q 526 -779 529 -767 Q 560 -794 567 -820 L 618 -916 Q 789 -1219 951 -1317 Q 999 -1344 1065 -1344 Q 1131 -1344 1171 -1298 Q 1212 -1252 1214 -1196 Q 1216 -1140 1206 -1102 Q 1197 -1065 1177 -1033 Q 1134 -960 1072 -960 Q 1055 -960 1041 -972 L 1012 -997 Q 968 -1035 928 -1035 Q 888 -1035 831 -983 Q 774 -932 712 -852 Q 505 -584 374 -251 L 316 -103 Q 294 -47 277 -23 Q 260 0 226 0 Q 193 0 159 -12 Q 126 -24 99 -43 Z"/>
		<path character="f" fill="#EA8872" fill-opacity="1.0" stroke="none" stroke-width="0" stroke-linecap="butt" stroke-opacity="1.0" transform="matrix(1,0,0,1,22908,0)" d="M -54 305 Q -54 278 -12 197 Q 29 116 78 -9 Q 127 -135 172 -271 Q 217 -408 263 -563 L 365 -905 L 228 -869 Q 177 -869 144 -923 Q 137 -937 137 -956 Q 137 -976 168 -1003 Q 200 -1030 245 -1053 Q 337 -1100 434 -1125 L 446 -1162 Q 482 -1272 514 -1390 Q 546 -1508 582 -1620 Q 618 -1733 664 -1834 Q 710 -1936 772 -2011 Q 908 -2176 1114 -2176 Q 1267 -2176 1356 -2095 Q 1445 -2014 1445 -1876 Q 1445 -1732 1362 -1626 Q 1293 -1539 1208 -1539 Q 1101 -1539 1063 -1633 Q 1053 -1657 1053 -1674 Q 1053 -1702 1092 -1725 Q 1164 -1778 1193 -1867 Q 1202 -1895 1202 -1922 Q 1202 -2026 1118 -2026 Q 1003 -2026 906 -1772 Q 877 -1695 848 -1602 L 725 -1195 Q 844 -1216 898 -1216 Q 953 -1216 995 -1203 Q 1037 -1190 1071 -1167 Q 1148 -1114 1148 -1037 Q 1148 -960 1075 -960 L 908 -960 Q 772 -960 656 -948 L 549 -574 Q 442 -192 376 -19 Q 310 154 247 274 Q 188 384 67 384 Q -54 384 -54 305 Z"/>
		<path character="o" fill="#EA8872" fill-opacity="1.0" stroke="none" stroke-width="0" stroke-linecap="butt" stroke-opacity="1.0" transform="matrix(1,0,0,1,24013,0)" d="M 216 -100 Q 161 -152 129 -231 Q 98 -310 97 -418 Q 96 -526 124 -636 Q 152 -747 204 -850 Q 256 -953 328 -1043 Q 401 -1133 489 -1200 Q 681 -1344 887 -1344 Q 1157 -1344 1253 -1111 Q 1321 -943 1261 -704 Q 1206 -484 1059 -300 Q 913 -116 715 -39 Q 615 0 518 0 Q 422 0 346 -24 Q 271 -49 216 -100 M 467 -724 Q 428 -629 405 -529 Q 382 -429 383 -340 Q 384 -251 411 -200 Q 438 -150 498 -150 Q 559 -150 617 -190 Q 676 -231 731 -297 Q 786 -364 834 -451 Q 883 -538 920 -633 Q 1000 -839 997 -999 Q 997 -1140 938 -1179 Q 915 -1194 872 -1194 Q 829 -1194 774 -1156 Q 719 -1118 664 -1054 Q 609 -990 557 -904 Q 506 -819 467 -724 Z"/>
		<path character="r" fill="#EA8872" fill-opacity="1.0" stroke="none" stroke-width="0" stroke-linecap="butt" stroke-opacity="1.0" transform="matrix(1,0,0,1,25437,0)" d="M 99 -43 Q 73 -63 57 -87 Q 42 -111 40 -128 Q 39 -145 47 -170 Q 56 -195 71 -232 Q 338 -877 338 -1098 Q 334 -1160 295 -1186 L 269 -1204 Q 257 -1213 256 -1235 Q 256 -1258 273 -1278 Q 290 -1299 317 -1314 Q 374 -1344 433 -1344 Q 493 -1344 526 -1331 Q 560 -1318 584 -1296 Q 634 -1250 634 -1198 Q 635 -1146 622 -1093 Q 610 -1040 593 -989 Q 576 -938 559 -892 Q 542 -846 537 -824 Q 526 -779 529 -767 Q 560 -794 567 -820 L 618 -916 Q 789 -1219 951 -1317 Q 999 -1344 1065 -1344 Q 1131 -1344 1171 -1298 Q 1212 -1252 1214 -1196 Q 1216 -1140 1206 -1102 Q 1197 -1065 1177 -1033 Q 1134 -960 1072 -960 Q 1055 -960 1041 -972 L 1012 -997 Q 968 -1035 928 -1035 Q 888 -1035 831 -983 Q 774 -932 712 -852 Q 505 -584 374 -251 L 316 -103 Q 294 -47 277 -23 Q 260 0 226 0 Q 193 0 159 -12 Q 126 -24 99 -43 Z"/>
		<path character="R" fill="#EA8872" fill-opacity="1.0" stroke="none" stroke-width="0" stroke-linecap="butt" stroke-opacity="1.0" transform="matrix(1,0,0,1,27391,0)" d="M 1406 -1595 Q 1406 -1858 1061 -1858 Q 844 -1858 622 -1727 Q 558 -1689 522 -1657 Q 486 -1625 453 -1625 Q 420 -1625 390 -1641 Q 360 -1658 336 -1682 Q 249 -1778 354 -1867 Q 512 -2001 877 -2040 Q 950 -2048 1063 -2048 Q 1176 -2048 1301 -2007 Q 1427 -1966 1512 -1896 Q 1683 -1755 1683 -1537 Q 1683 -1277 1446 -1064 Q 1242 -876 962 -796 Q 1038 -734 1105 -617 L 1210 -431 Q 1348 -177 1457 -155 Q 1495 -148 1535 -157 Q 1576 -167 1588 -167 Q 1601 -167 1605 -146 Q 1610 -125 1594 -93 Q 1579 -62 1544 -34 Q 1461 32 1362 24 Q 1264 17 1203 -16 Q 1142 -50 1094 -101 Q 1046 -153 1008 -215 Q 971 -278 940 -344 L 881 -472 Q 853 -535 829 -580 Q 806 -626 789 -663 Q 772 -701 751 -731 Q 706 -799 637 -818 Q 361 -109 76 -9 Q 53 0 28 0 Q 4 0 -15 -8 Q -35 -17 -49 -30 Q -76 -55 -76 -85 Q -76 -115 -56 -130 Q 140 -273 381 -964 L 459 -1186 Q 595 -1569 688 -1658 Q 721 -1683 756 -1683 Q 791 -1683 817 -1671 Q 844 -1660 864 -1643 Q 908 -1604 908 -1562 Q 908 -1521 890 -1489 Q 873 -1457 851 -1398 Q 786 -1229 751 -1127 L 684 -936 Q 963 -973 1179 -1157 Q 1406 -1350 1406 -1595 Z"/>
		<path character="u" fill="#EA8872" fill-opacity="1.0" stroke="none" stroke-width="0" stroke-linecap="butt" stroke-opacity="1.0" transform="matrix(1,0,0,1,29071,0)" d="M 1319 -292 Q 1349 -292 1349 -260 Q 1349 -137 1236 -54 Q 1160 0 1058 0 Q 974 0 929 -39 Q 849 -110 849 -213 Q 849 -342 958 -610 Q 756 -337 674 -247 Q 593 -157 533 -108 Q 402 0 295 0 Q 133 0 79 -138 Q 63 -180 63 -234 Q 63 -289 82 -356 Q 101 -424 131 -497 Q 161 -571 197 -648 L 268 -803 Q 404 -1100 369 -1155 Q 353 -1179 310 -1204 Q 294 -1213 294 -1235 Q 294 -1258 313 -1278 Q 332 -1299 362 -1314 Q 427 -1344 491 -1344 Q 555 -1344 588 -1331 Q 622 -1318 643 -1298 Q 686 -1256 686 -1206 Q 686 -1156 669 -1093 Q 652 -1031 624 -958 Q 597 -885 564 -808 Q 474 -604 442 -539 L 394 -442 Q 353 -355 353 -320 Q 353 -285 365 -270 Q 377 -256 407 -256 Q 438 -256 479 -283 Q 520 -311 568 -357 Q 617 -404 669 -465 Q 722 -526 772 -591 Q 870 -720 916 -797 Q 1194 -1269 1213 -1290 Q 1255 -1344 1299 -1344 Q 1343 -1344 1375 -1334 Q 1408 -1325 1432 -1308 Q 1487 -1269 1467 -1230 Q 1147 -593 1122 -429 Q 1116 -372 1116 -351 Q 1116 -256 1176 -256 Q 1232 -256 1269 -274 Q 1306 -292 1319 -292 Z"/>
		<path character="b" fill="#EA8872" fill-opacity="1.0" stroke="none" stroke-width="0" stroke-linecap="butt" stroke-opacity="1.0" transform="matrix(1,0,0,1,30560,0)" d="M 106 -383 Q 106 -458 117 -527 Q 129 -596 146 -666 Q 164 -737 186 -807 L 333 -1252 Q 508 -1794 553 -2099 Q 567 -2208 660 -2208 Q 715 -2208 753 -2179 Q 823 -2122 821 -2058 Q 819 -1994 802 -1916 Q 786 -1838 760 -1745 Q 735 -1653 702 -1551 Q 614 -1290 571 -1174 L 496 -978 Q 610 -1153 683 -1218 Q 827 -1344 983 -1344 Q 1213 -1344 1289 -1109 Q 1314 -1028 1314 -907 Q 1314 -786 1278 -667 Q 1242 -548 1180 -445 Q 1118 -343 1036 -261 Q 954 -179 864 -121 Q 672 0 492 0 Q 311 0 207 -109 Q 106 -219 106 -383 M 474 -170 Q 597 -170 725 -278 Q 919 -442 986 -748 Q 1008 -848 1008 -956 Q 1008 -1065 983 -1108 Q 958 -1152 906 -1152 Q 854 -1152 798 -1111 Q 742 -1070 680 -1002 Q 618 -935 557 -847 Q 497 -759 449 -665 Q 343 -459 343 -314 Q 343 -170 474 -170 Z"/>
		<path character="y" fill="#EA8872" fill-opacity="1.0" stroke="none" stroke-width="0" stroke-linecap="butt" stroke-opacity="1.0" transform="matrix(1,0,0,1,31985,0)" d="M 92 -138 Q 76 -180 76 -234 Q 76 -289 95 -356 Q 114 -424 144 -497 Q 175 -571 210 -648 L 281 -803 Q 417 -1100 382 -1155 Q 366 -1179 323 -1204 Q 307 -1213 307 -1235 Q 307 -1258 326 -1278 Q 345 -1299 375 -1314 Q 440 -1344 504 -1344 Q 568 -1344 601 -1331 Q 635 -1318 656 -1298 Q 700 -1256 700 -1206 Q 700 -1156 682 -1093 Q 665 -1031 637 -958 Q 610 -885 578 -808 Q 487 -604 455 -539 L 407 -442 Q 366 -355 366 -320 Q 366 -285 378 -270 Q 390 -256 421 -256 Q 452 -256 489 -278 Q 526 -301 569 -339 Q 613 -377 659 -426 Q 706 -476 751 -530 Q 868 -668 924 -767 Q 1208 -1267 1225 -1290 Q 1268 -1344 1312 -1344 Q 1356 -1344 1388 -1334 Q 1421 -1325 1445 -1307 Q 1498 -1271 1477 -1225 Q 1457 -1180 1428 -1100 Q 1179 -397 1104 -218 Q 1030 -40 975 68 Q 920 177 846 287 Q 772 397 688 488 Q 496 692 328 707 Q 264 712 226 689 Q 160 649 160 614 Q 160 578 220 564 Q 280 551 343 509 Q 407 468 466 413 Q 639 248 735 53 Q 816 -117 866 -270 L 969 -582 Q 931 -536 885 -474 L 790 -348 Q 667 -191 585 -125 Q 431 0 308 0 Q 146 0 92 -138 Z"/>
</g>
</svg>