<svg xmlns="http://www.w3.org/2000/svg" xmlns:xlink="http://www.w3.org/1999/xlink" viewBox="0 0 5878 3597">
<title>Methods</title>
<g transform="matrix(1,0,0,1,0,2752)">
  		<path character="M" fill="#EA8872" fill-opacity="1.0" stroke="none" stroke-width="10px" stroke-linecap="butt" stroke-opacity="1.0" transform="matrix(1,0,0,1,-192,0)" d="M 987 64 Q 952 64 940 46 Q 928 29 928 -12 L 928 -257 Q 928 -439 917 -698 Q 915 -746 915 -837 Q 907 -1026 907 -1135 L 909 -1285 Q 912 -1352 912 -1434 Q 912 -1506 909 -1562 Q 907 -1602 905 -1629 Q 904 -1656 901 -1672 L 896 -1653 Q 867 -1458 808 -1140 Q 749 -823 712 -631 Q 675 -461 664 -389 Q 659 -354 641 -332 Q 624 -311 603 -311 Q 581 -311 565 -332 Q 549 -354 547 -395 Q 528 -525 410 -1118 Q 293 -1712 280 -1734 Q 272 -1491 272 -1187 Q 272 -949 275 -757 Q 277 -565 277 -327 Q 277 -287 285 -200 L 291 -70 Q 291 -19 272 0 Q 195 0 195 -141 L 195 -592 L 197 -865 Q 200 -987 200 -1141 Q 200 -1320 203 -1460 L 208 -1782 L 208 -2020 Q 208 -2043 220 -2061 Q 232 -2080 245 -2080 Q 267 -2080 275 -2058 Q 299 -1976 395 -1573 Q 491 -1170 539 -950 Q 563 -821 616 -495 L 635 -601 Q 643 -650 659 -738 Q 691 -951 699 -978 L 821 -1646 L 845 -1788 L 875 -1941 L 888 -2023 Q 891 -2050 904 -2065 Q 917 -2080 933 -2080 Q 947 -2080 957 -2066 Q 968 -2053 968 -2028 L 968 -1759 Q 968 -1555 992 -1141 Q 1011 -760 1011 -529 Q 1011 -456 1019 -303 Q 1024 -107 1024 -31 Q 1024 29 1016 48 Q 1005 64 987 64 Z"/>
		<path character="e" fill="#EA8872" fill-opacity="1.0" stroke="none" stroke-width="10px" stroke-linecap="butt" stroke-opacity="1.0" transform="matrix(1,0,0,1,1033,0)" d="M 243 0 Q 195 0 189 -56 L 189 -92 Q 192 -105 192 -124 L 181 -135 Q 203 -191 203 -245 Q 203 -306 195 -421 L 189 -598 Q 189 -732 197 -1000 Q 208 -1238 208 -1404 L 203 -1565 Q 197 -1635 197 -1720 Q 197 -1758 216 -1775 Q 235 -1792 275 -1792 Q 301 -1792 317 -1777 Q 323 -1774 395 -1767 Q 461 -1759 509 -1744 Q 560 -1729 560 -1706 Q 560 -1681 509 -1656 Q 357 -1712 293 -1712 L 280 -1689 Q 283 -1665 283 -1575 Q 283 -1461 277 -1371 Q 275 -1278 275 -1164 Q 275 -1090 312 -1090 L 355 -1090 Q 376 -1090 400 -1090 Q 504 -1090 504 -1057 Q 504 -1037 490 -1023 Q 477 -1010 451 -1010 Q 411 -1010 389 -1025 L 304 -1034 L 291 -1034 L 277 -1025 L 277 -1017 Q 283 -970 283 -798 Q 283 -690 280 -602 L 277 -405 Q 277 -297 285 -184 Q 288 -121 312 -100 Q 336 -80 400 -80 L 448 -80 Q 472 -80 501 -80 Q 579 -80 579 -46 Q 579 0 461 0 L 243 0 Z"/>
		<path character="t" fill="#EA8872" fill-opacity="1.0" stroke="none" stroke-width="10px" stroke-linecap="butt" stroke-opacity="1.0" transform="matrix(1,0,0,1,1746,0)" d="M 368 -38 L 365 -138 Q 363 -181 363 -235 Q 363 -262 365 -280 L 368 -329 Q 368 -356 357 -394 Q 357 -575 331 -1067 Q 304 -1542 301 -1712 Q 136 -1712 80 -1723 Q 27 -1742 27 -1783 Q 40 -1792 77 -1792 Q 157 -1792 309 -1792 Q 448 -1792 541 -1792 L 597 -1792 L 653 -1792 Q 701 -1792 701 -1745 Q 701 -1730 684 -1721 Q 667 -1712 643 -1712 Q 589 -1712 531 -1712 L 416 -1712 Q 405 -1712 405 -1704 Q 403 -1696 403 -1653 Q 403 -1391 435 -859 Q 464 -308 464 -68 Q 464 -49 441 -33 Q 419 -17 397 -17 L 368 -38 Z"/>
		<path character="h" fill="#EA8872" fill-opacity="1.0" stroke="none" stroke-width="10px" stroke-linecap="butt" stroke-opacity="1.0" transform="matrix(1,0,0,1,2523,0)" d="M 672 27 Q 672 0 592 0 Q 579 -491 579 -711 L 571 -721 L 581 -745 Q 581 -797 571 -851 L 531 -863 Q 507 -855 477 -855 Q 456 -855 389 -868 Q 344 -882 307 -882 L 277 -871 Q 277 -777 275 -701 Q 272 -626 272 -531 L 277 -520 Q 277 -445 285 -294 Q 293 -146 293 -70 Q 293 -40 282 -20 Q 272 0 251 0 Q 192 0 192 -166 Q 192 -306 195 -419 L 197 -671 Q 197 -922 189 -941 Q 203 -967 203 -1115 Q 203 -1242 192 -1425 L 187 -1528 L 181 -1734 Q 181 -1755 194 -1773 Q 208 -1792 227 -1792 Q 280 -1792 280 -1639 Q 280 -1459 277 -1314 Q 272 -1168 272 -994 Q 272 -962 475 -962 L 485 -962 Q 536 -962 558 -981 Q 581 -1001 581 -1049 Q 581 -1188 563 -1411 Q 547 -1651 547 -1771 Q 547 -1793 560 -1806 Q 573 -1820 592 -1820 L 616 -1812 Q 635 -1809 640 -1804 Q 640 -1593 656 -1173 Q 672 -750 672 -539 Q 672 -219 691 -2 L 672 27 M 504 -963 L 509 -957 L 504 -957 L 504 -963 Z"/>
		<path character="o" fill="#EA8872" fill-opacity="1.0" stroke="none" stroke-width="10px" stroke-linecap="butt" stroke-opacity="1.0" transform="matrix(1,0,0,1,3428,0)" d="M 469 32 Q 157 32 157 -952 L 157 -1046 Q 157 -1792 349 -1792 Q 363 -1792 387 -1784 Q 472 -1755 555 -1747 Q 605 -1736 656 -1642 Q 712 -1546 740 -1388 Q 768 -1230 768 -1065 L 763 -1051 Q 763 -963 765 -893 L 768 -733 Q 768 -597 757 -487 Q 741 -321 704 -201 Q 680 -128 649 -80 Q 619 -32 573 0 Q 531 32 469 32 M 459 -48 Q 563 -48 613 -194 Q 664 -343 675 -497 Q 685 -656 685 -752 Q 685 -858 669 -1065 Q 656 -1297 656 -1379 L 645 -1400 L 651 -1414 Q 651 -1535 585 -1623 Q 520 -1712 427 -1712 Q 304 -1712 280 -1589 Q 275 -1547 269 -1469 Q 269 -1273 253 -1201 Q 253 -1161 245 -1076 L 240 -951 Q 240 -893 243 -848 L 245 -741 Q 245 -616 267 -454 Q 283 -335 304 -252 Q 325 -170 365 -112 Q 405 -48 459 -48 Z"/>
		<path character="d" fill="#EA8872" fill-opacity="1.0" stroke="none" stroke-width="10px" stroke-linecap="butt" stroke-opacity="1.0" transform="matrix(1,0,0,1,4333,0)" d="M 243 0 Q 221 0 221 -74 Q 211 -259 211 -541 Q 211 -719 213 -858 L 216 -1175 Q 216 -1379 205 -1680 Q 181 -1701 181 -1733 Q 181 -1752 204 -1772 Q 227 -1792 245 -1792 Q 267 -1792 285 -1770 L 315 -1746 Q 331 -1738 376 -1729 Q 421 -1721 440 -1713 Q 480 -1691 547 -1629 Q 611 -1564 635 -1547 L 632 -1542 Q 635 -1526 672 -1471 Q 701 -1430 720 -1395 Q 763 -1270 763 -1072 Q 763 -1036 760 -1009 L 760 -945 L 760 -924 L 757 -897 Q 757 -847 773 -817 Q 757 -732 733 -495 Q 725 -426 706 -349 Q 688 -272 661 -221 Q 592 -91 429 0 L 243 0 M 419 -80 Q 437 -101 453 -115 Q 453 -115 472 -128 L 493 -146 Q 680 -314 680 -784 L 680 -834 Q 677 -856 677 -880 L 667 -1154 Q 659 -1311 573 -1479 Q 533 -1563 465 -1616 Q 397 -1669 323 -1669 Q 291 -1669 291 -1172 Q 291 -598 323 -171 L 320 -120 L 331 -115 L 336 -80 L 419 -80 Z"/>
		<path character="s" fill="#EA8872" fill-opacity="1.0" stroke="none" stroke-width="10px" stroke-linecap="butt" stroke-opacity="1.0" transform="matrix(1,0,0,1,5302,0)" d="M 221 0 Q 192 0 165 -22 Q 139 -45 136 -76 L 149 -97 Q 160 -97 197 -90 Q 227 -80 245 -80 Q 304 -80 349 -125 Q 395 -171 419 -243 Q 456 -378 456 -498 Q 456 -677 344 -882 Q 275 -1001 237 -1071 Q 200 -1141 171 -1232 Q 136 -1338 136 -1437 Q 136 -1530 184 -1657 Q 208 -1717 252 -1754 Q 296 -1792 347 -1792 Q 381 -1792 414 -1768 Q 448 -1744 448 -1717 Q 448 -1685 413 -1685 Q 403 -1685 387 -1699 Q 371 -1712 357 -1712 Q 317 -1712 285 -1680 Q 253 -1649 237 -1599 Q 205 -1502 205 -1421 Q 205 -1371 219 -1319 Q 221 -1303 224 -1292 Q 227 -1282 227 -1277 L 243 -1224 L 256 -1177 L 277 -1130 Q 285 -1112 294 -1097 Q 304 -1083 312 -1070 L 344 -1015 Q 355 -999 389 -940 Q 424 -881 453 -815 Q 480 -760 493 -711 Q 507 -663 517 -595 Q 525 -530 525 -451 Q 525 -325 491 -215 Q 443 -84 352 -31 Q 301 0 235 0 L 221 0 M 435 -1707 Q 435 -1710 432 -1710 L 432 -1707 L 435 -1707 Z"/>
</g>
</svg>