<svg xmlns="http://www.w3.org/2000/svg" xmlns:xlink="http://www.w3.org/1999/xlink" viewBox="0 0 10805 3597">
<title>Tree Structure</title>
<g transform="matrix(1,0,0,1,0,2752)">
  		<path character="T" fill="#EA8872" fill-opacity="1.0" stroke="none" stroke-width="10px" stroke-linecap="butt" stroke-opacity="1.0" transform="matrix(1,0,0,1,0,0)" d="M 440 0 Q 413 0 400 -20 Q 387 -41 387 -70 L 387 -312 L 387 -553 L 381 -987 Q 373 -1277 373 -1420 L 376 -1499 L 376 -1675 Q 376 -1968 371 -1968 L 69 -1968 Q 48 -1968 30 -1977 Q 13 -1987 13 -2003 Q 13 -2022 21 -2029 Q 29 -2036 64 -2041 Q 101 -2048 171 -2048 L 437 -2048 L 731 -2048 Q 763 -2048 775 -2038 Q 787 -2028 787 -2006 Q 787 -1968 736 -1968 L 616 -1968 L 499 -1968 L 475 -1973 L 477 -1816 L 477 -1604 L 477 -504 L 477 -279 L 480 -79 L 480 -73 Q 480 -51 477 -36 Q 475 -22 467 -14 Q 459 0 440 0 Z"/>
		<path character="r" fill="#EA8872" fill-opacity="1.0" stroke="none" stroke-width="10px" stroke-linecap="butt" stroke-opacity="1.0" transform="matrix(1,0,0,1,841,0)" d="M 600 19 Q 568 -16 530 -165 Q 493 -314 461 -500 Q 440 -652 400 -801 Q 368 -934 339 -934 L 331 -934 Q 272 -934 272 -897 Q 272 -707 293 -320 Q 304 -83 317 -43 L 296 0 L 259 0 L 237 -19 Q 195 -1245 195 -1691 Q 195 -1720 199 -1738 Q 203 -1757 216 -1773 Q 227 -1792 253 -1792 Q 389 -1792 472 -1725 Q 555 -1658 555 -1532 L 555 -1337 Q 555 -1286 521 -1200 Q 488 -1115 448 -1043 L 413 -976 Q 443 -840 529 -488 Q 616 -136 624 -114 Q 627 -112 631 -101 Q 635 -90 648 -69 Q 667 -32 667 -5 Q 667 32 637 32 L 600 19 M 285 -999 Q 336 -999 376 -1049 Q 416 -1100 440 -1179 Q 483 -1340 483 -1435 Q 483 -1496 476 -1535 Q 469 -1575 453 -1620 Q 421 -1712 301 -1712 Q 288 -1712 280 -1689 Q 272 -1667 272 -1643 Q 272 -1467 277 -1324 Q 280 -1182 280 -1005 L 285 -999 Z"/>
		<path character="e" fill="#EA8872" fill-opacity="1.0" stroke="none" stroke-width="10px" stroke-linecap="butt" stroke-opacity="1.0" transform="matrix(1,0,0,1,1618,0)" d="M 243 0 Q 195 0 189 -56 L 189 -92 Q 192 -105 192 -124 L 181 -135 Q 203 -191 203 -245 Q 203 -306 195 -421 L 189 -598 Q 189 -732 197 -1000 Q 208 -1238 208 -1404 L 203 -1565 Q 197 -1635 197 -1720 Q 197 -1758 216 -1775 Q 235 -1792 275 -1792 Q 301 -1792 317 -1777 Q 323 -1774 395 -1767 Q 461 -1759 509 -1744 Q 560 -1729 560 -1706 Q 560 -1681 509 -1656 Q 357 -1712 293 -1712 L 280 -1689 Q 283 -1665 283 -1575 Q 283 -1461 277 -1371 Q 275 -1278 275 -1164 Q 275 -1090 312 -1090 L 355 -1090 Q 376 -1090 400 -1090 Q 504 -1090 504 -1057 Q 504 -1037 490 -1023 Q 477 -1010 451 -1010 Q 411 -1010 389 -1025 L 304 -1034 L 291 -1034 L 277 -1025 L 277 -1017 Q 283 -970 283 -798 Q 283 -690 280 -602 L 277 -405 Q 277 -297 285 -184 Q 288 -121 312 -100 Q 336 -80 400 -80 L 448 -80 Q 472 -80 501 -80 Q 579 -80 579 -46 Q 579 0 461 0 L 243 0 Z"/>
		<path character="e" fill="#EA8872" fill-opacity="1.0" stroke="none" stroke-width="10px" stroke-linecap="butt" stroke-opacity="1.0" transform="matrix(1,0,0,1,2331,0)" d="M 243 0 Q 195 0 189 -56 L 189 -92 Q 192 -105 192 -124 L 181 -135 Q 203 -191 203 -245 Q 203 -306 195 -421 L 189 -598 Q 189 -732 197 -1000 Q 208 -1238 208 -1404 L 203 -1565 Q 197 -1635 197 -1720 Q 197 -1758 216 -1775 Q 235 -1792 275 -1792 Q 301 -1792 317 -1777 Q 323 -1774 395 -1767 Q 461 -1759 509 -1744 Q 560 -1729 560 -1706 Q 560 -1681 509 -1656 Q 357 -1712 293 -1712 L 280 -1689 Q 283 -1665 283 -1575 Q 283 -1461 277 -1371 Q 275 -1278 275 -1164 Q 275 -1090 312 -1090 L 355 -1090 Q 376 -1090 400 -1090 Q 504 -1090 504 -1057 Q 504 -1037 490 -1023 Q 477 -1010 451 -1010 Q 411 -1010 389 -1025 L 304 -1034 L 291 -1034 L 277 -1025 L 277 -1017 Q 283 -970 283 -798 Q 283 -690 280 -602 L 277 -405 Q 277 -297 285 -184 Q 288 -121 312 -100 Q 336 -80 400 -80 L 448 -80 Q 472 -80 501 -80 Q 579 -80 579 -46 Q 579 0 461 0 L 243 0 Z"/>
		<path character="S" fill="#EA8872" fill-opacity="1.0" stroke="none" stroke-width="10px" stroke-linecap="butt" stroke-opacity="1.0" transform="matrix(1,0,0,1,3501,0)" d="M 307 64 Q 259 64 233 58 Q 208 53 179 36 Q 147 15 131 -24 Q 131 -56 160 -56 Q 189 -56 235 -37 Q 277 -16 307 -16 Q 365 -16 414 -64 Q 464 -113 491 -191 Q 544 -344 544 -462 Q 544 -594 506 -728 Q 469 -863 408 -981 Q 395 -1010 363 -1070 Q 296 -1204 261 -1279 Q 227 -1354 200 -1446 Q 163 -1567 163 -1706 Q 163 -1795 191 -1877 Q 219 -1959 280 -2018 Q 347 -2080 429 -2080 Q 461 -2080 506 -2047 Q 552 -2014 552 -1982 Q 552 -1961 536 -1961 Q 520 -1961 493 -1980 Q 469 -2000 448 -2000 Q 387 -2000 340 -1954 Q 293 -1908 272 -1841 Q 253 -1784 253 -1716 Q 253 -1611 280 -1499 Q 307 -1387 352 -1289 L 445 -1092 L 472 -1036 Q 528 -919 558 -843 Q 589 -768 611 -674 Q 640 -547 640 -430 Q 640 -274 560 -112 Q 520 -33 453 15 Q 387 64 307 64 Z"/>
		<path character="t" fill="#EA8872" fill-opacity="1.0" stroke="none" stroke-width="10px" stroke-linecap="butt" stroke-opacity="1.0" transform="matrix(1,0,0,1,4342,0)" d="M 368 -38 L 365 -138 Q 363 -181 363 -235 Q 363 -262 365 -280 L 368 -329 Q 368 -356 357 -394 Q 357 -575 331 -1067 Q 304 -1542 301 -1712 Q 136 -1712 80 -1723 Q 27 -1742 27 -1783 Q 40 -1792 77 -1792 Q 157 -1792 309 -1792 Q 448 -1792 541 -1792 L 597 -1792 L 653 -1792 Q 701 -1792 701 -1745 Q 701 -1730 684 -1721 Q 667 -1712 643 -1712 Q 589 -1712 531 -1712 L 416 -1712 Q 405 -1712 405 -1704 Q 403 -1696 403 -1653 Q 403 -1391 435 -859 Q 464 -308 464 -68 Q 464 -49 441 -33 Q 419 -17 397 -17 L 368 -38 Z"/>
		<path character="r" fill="#EA8872" fill-opacity="1.0" stroke="none" stroke-width="10px" stroke-linecap="butt" stroke-opacity="1.0" transform="matrix(1,0,0,1,5119,0)" d="M 600 19 Q 568 -16 530 -165 Q 493 -314 461 -500 Q 440 -652 400 -801 Q 368 -934 339 -934 L 331 -934 Q 272 -934 272 -897 Q 272 -707 293 -320 Q 304 -83 317 -43 L 296 0 L 259 0 L 237 -19 Q 195 -1245 195 -1691 Q 195 -1720 199 -1738 Q 203 -1757 216 -1773 Q 227 -1792 253 -1792 Q 389 -1792 472 -1725 Q 555 -1658 555 -1532 L 555 -1337 Q 555 -1286 521 -1200 Q 488 -1115 448 -1043 L 413 -976 Q 443 -840 529 -488 Q 616 -136 624 -114 Q 627 -112 631 -101 Q 635 -90 648 -69 Q 667 -32 667 -5 Q 667 32 637 32 L 600 19 M 285 -999 Q 336 -999 376 -1049 Q 416 -1100 440 -1179 Q 483 -1340 483 -1435 Q 483 -1496 476 -1535 Q 469 -1575 453 -1620 Q 421 -1712 301 -1712 Q 288 -1712 280 -1689 Q 272 -1667 272 -1643 Q 272 -1467 277 -1324 Q 280 -1182 280 -1005 L 285 -999 Z"/>
		<path character="u" fill="#EA8872" fill-opacity="1.0" stroke="none" stroke-width="10px" stroke-linecap="butt" stroke-opacity="1.0" transform="matrix(1,0,0,1,5896,0)" d="M 472 0 Q 429 0 380 -28 Q 331 -56 299 -94 Q 261 -142 240 -364 Q 219 -586 213 -873 Q 213 -937 211 -969 Q 205 -1637 189 -1759 L 205 -1796 Q 267 -1788 267 -1650 L 275 -946 Q 275 -872 288 -665 Q 304 -479 304 -383 Q 304 -80 504 -80 Q 627 -80 661 -638 L 664 -691 Q 683 -1421 683 -1772 L 680 -1796 Q 677 -1807 677 -1820 Q 677 -1856 723 -1856 Q 755 -1856 763 -1840 Q 768 -1813 768 -1745 Q 768 -1539 752 -1469 L 755 -1453 Q 755 -1419 747 -1347 L 741 -1241 L 741 -1214 Q 744 -1203 744 -1187 Q 739 -1123 739 -1064 Q 736 -1045 736 -1005 Q 731 -751 725 -564 Q 717 -332 661 -171 Q 603 0 472 0 Z"/>
		<path character="c" fill="#EA8872" fill-opacity="1.0" stroke="none" stroke-width="10px" stroke-linecap="butt" stroke-opacity="1.0" transform="matrix(1,0,0,1,6865,0)" d="M 389 -24 Q 339 -39 303 -68 Q 267 -97 235 -155 Q 179 -260 168 -457 Q 163 -547 163 -615 L 163 -914 Q 163 -1085 173 -1245 Q 181 -1364 197 -1445 Q 213 -1527 248 -1608 Q 285 -1692 331 -1726 Q 349 -1742 403 -1763 Q 437 -1776 469 -1792 L 576 -1792 L 584 -1792 Q 587 -1789 592 -1789 L 605 -1787 L 616 -1779 Q 624 -1771 624 -1768 Q 627 -1763 627 -1752 L 592 -1712 L 480 -1712 Q 429 -1712 388 -1663 Q 347 -1614 325 -1541 Q 304 -1475 290 -1385 Q 277 -1295 275 -1230 Q 269 -1145 269 -1114 L 264 -1100 Q 264 -953 259 -834 L 253 -568 Q 253 -452 269 -354 Q 283 -249 347 -164 Q 408 -80 536 -80 Q 576 -80 603 -104 Q 643 -104 643 -74 Q 643 -57 609 -34 Q 576 -12 541 0 L 453 0 L 389 -24 Z"/>
		<path character="t" fill="#EA8872" fill-opacity="1.0" stroke="none" stroke-width="10px" stroke-linecap="butt" stroke-opacity="1.0" transform="matrix(1,0,0,1,7642,0)" d="M 368 -38 L 365 -138 Q 363 -181 363 -235 Q 363 -262 365 -280 L 368 -329 Q 368 -356 357 -394 Q 357 -575 331 -1067 Q 304 -1542 301 -1712 Q 136 -1712 80 -1723 Q 27 -1742 27 -1783 Q 40 -1792 77 -1792 Q 157 -1792 309 -1792 Q 448 -1792 541 -1792 L 597 -1792 L 653 -1792 Q 701 -1792 701 -1745 Q 701 -1730 684 -1721 Q 667 -1712 643 -1712 Q 589 -1712 531 -1712 L 416 -1712 Q 405 -1712 405 -1704 Q 403 -1696 403 -1653 Q 403 -1391 435 -859 Q 464 -308 464 -68 Q 464 -49 441 -33 Q 419 -17 397 -17 L 368 -38 Z"/>
		<path character="u" fill="#EA8872" fill-opacity="1.0" stroke="none" stroke-width="10px" stroke-linecap="butt" stroke-opacity="1.0" transform="matrix(1,0,0,1,8419,0)" d="M 472 0 Q 429 0 380 -28 Q 331 -56 299 -94 Q 261 -142 240 -364 Q 219 -586 213 -873 Q 213 -937 211 -969 Q 205 -1637 189 -1759 L 205 -1796 Q 267 -1788 267 -1650 L 275 -946 Q 275 -872 288 -665 Q 304 -479 304 -383 Q 304 -80 504 -80 Q 627 -80 661 -638 L 664 -691 Q 683 -1421 683 -1772 L 680 -1796 Q 677 -1807 677 -1820 Q 677 -1856 723 -1856 Q 755 -1856 763 -1840 Q 768 -1813 768 -1745 Q 768 -1539 752 -1469 L 755 -1453 Q 755 -1419 747 -1347 L 741 -1241 L 741 -1214 Q 744 -1203 744 -1187 Q 739 -1123 739 -1064 Q 736 -1045 736 -1005 Q 731 -751 725 -564 Q 717 -332 661 -171 Q 603 0 472 0 Z"/>
		<path character="r" fill="#EA8872" fill-opacity="1.0" stroke="none" stroke-width="10px" stroke-linecap="butt" stroke-opacity="1.0" transform="matrix(1,0,0,1,9388,0)" d="M 600 19 Q 568 -16 530 -165 Q 493 -314 461 -500 Q 440 -652 400 -801 Q 368 -934 339 -934 L 331 -934 Q 272 -934 272 -897 Q 272 -707 293 -320 Q 304 -83 317 -43 L 296 0 L 259 0 L 237 -19 Q 195 -1245 195 -1691 Q 195 -1720 199 -1738 Q 203 -1757 216 -1773 Q 227 -1792 253 -1792 Q 389 -1792 472 -1725 Q 555 -1658 555 -1532 L 555 -1337 Q 555 -1286 521 -1200 Q 488 -1115 448 -1043 L 413 -976 Q 443 -840 529 -488 Q 616 -136 624 -114 Q 627 -112 631 -101 Q 635 -90 648 -69 Q 667 -32 667 -5 Q 667 32 637 32 L 600 19 M 285 -999 Q 336 -999 376 -1049 Q 416 -1100 440 -1179 Q 483 -1340 483 -1435 Q 483 -1496 476 -1535 Q 469 -1575 453 -1620 Q 421 -1712 301 -1712 Q 288 -1712 280 -1689 Q 272 -1667 272 -1643 Q 272 -1467 277 -1324 Q 280 -1182 280 -1005 L 285 -999 Z"/>
		<path character="e" fill="#EA8872" fill-opacity="1.0" stroke="none" stroke-width="10px" stroke-linecap="butt" stroke-opacity="1.0" transform="matrix(1,0,0,1,10164,0)" d="M 243 0 Q 195 0 189 -56 L 189 -92 Q 192 -105 192 -124 L 181 -135 Q 203 -191 203 -245 Q 203 -306 195 -421 L 189 -598 Q 189 -732 197 -1000 Q 208 -1238 208 -1404 L 203 -1565 Q 197 -1635 197 -1720 Q 197 -1758 216 -1775 Q 235 -1792 275 -1792 Q 301 -1792 317 -1777 Q 323 -1774 395 -1767 Q 461 -1759 509 -1744 Q 560 -1729 560 -1706 Q 560 -1681 509 -1656 Q 357 -1712 293 -1712 L 280 -1689 Q 283 -1665 283 -1575 Q 283 -1461 277 -1371 Q 275 -1278 275 -1164 Q 275 -1090 312 -1090 L 355 -1090 Q 376 -1090 400 -1090 Q 504 -1090 504 -1057 Q 504 -1037 490 -1023 Q 477 -1010 451 -1010 Q 411 -1010 389 -1025 L 304 -1034 L 291 -1034 L 277 -1025 L 277 -1017 Q 283 -970 283 -798 Q 283 -690 280 -602 L 277 -405 Q 277 -297 285 -184 Q 288 -121 312 -100 Q 336 -80 400 -80 L 448 -80 Q 472 -80 501 -80 Q 579 -80 579 -46 Q 579 0 461 0 L 243 0 Z"/>
</g>
</svg>