<svg xmlns="http://www.w3.org/2000/svg" xmlns:xlink="http://www.w3.org/1999/xlink" viewBox="0 0 18089 3546">
<title>Invoice Builder</title>
<g transform="matrix(1,0,0,1,0,2624)">
  		<path character="I" fill="#EA8872" fill-opacity="1.0" stroke="none" stroke-width="0" stroke-linecap="butt" stroke-opacity="1.0" transform="matrix(1,0,0,1,64,0)" d="M -11 -130 Q 217 -297 448 -989 Q 581 -1392 634 -1717 Q 648 -1807 648 -1856 Q 595 -1856 549 -1830 L 450 -1773 Q 410 -1751 342 -1808 Q 274 -1866 280 -1905 Q 286 -1944 325 -1968 Q 364 -1993 415 -2011 Q 522 -2048 595 -2048 Q 668 -2048 724 -2037 Q 780 -2026 826 -1999 Q 931 -1939 933 -1826 Q 938 -1631 801 -1163 Q 583 -422 289 -122 Q 209 -39 122 -9 Q 98 0 74 0 Q 50 0 30 -8 Q 11 -17 -3 -30 Q -30 -55 -30 -85 Q -30 -116 -11 -130 Z"/>
		<path character="n" fill="#EA8872" fill-opacity="1.0" stroke="none" stroke-width="0" stroke-linecap="butt" stroke-opacity="1.0" transform="matrix(1,0,0,1,977,0)" d="M 1041 -1088 Q 1000 -1088 925 -1012 Q 851 -937 795 -874 L 684 -745 L 469 -479 Q 392 -339 349 -247 L 278 -99 Q 251 -44 230 -22 Q 210 0 175 0 Q 140 0 108 -12 Q 76 -24 53 -44 Q 3 -85 3 -134 Q 3 -153 32 -210 L 81 -314 Q 105 -360 137 -432 L 210 -608 Q 365 -988 365 -1098 Q 365 -1158 326 -1186 L 299 -1204 Q 286 -1213 286 -1235 Q 286 -1258 304 -1278 Q 322 -1299 350 -1314 Q 410 -1344 469 -1344 Q 529 -1344 562 -1331 Q 595 -1318 617 -1296 Q 665 -1250 665 -1200 Q 665 -1150 653 -1099 Q 641 -1049 621 -997 Q 602 -945 581 -895 Q 560 -846 543 -809 L 517 -753 Q 507 -732 512 -739 Q 658 -942 704 -999 L 795 -1110 Q 896 -1228 954 -1266 Q 1071 -1344 1138 -1344 Q 1205 -1344 1251 -1327 Q 1297 -1311 1331 -1281 Q 1403 -1218 1403 -1119 Q 1403 -1020 1356 -912 Q 1309 -805 1274 -738 Q 1239 -671 1208 -602 Q 1109 -394 1109 -299 Q 1109 -256 1180 -256 Q 1235 -256 1280 -278 Q 1326 -301 1339 -301 Q 1366 -301 1366 -271 Q 1366 -144 1247 -58 Q 1167 0 1100 0 Q 1033 0 989 -14 Q 945 -28 911 -58 Q 833 -126 833 -247 Q 833 -394 929 -615 Q 999 -766 1028 -822 L 1072 -913 Q 1113 -994 1113 -1041 Q 1113 -1088 1041 -1088 Z"/>
		<path character="v" fill="#EA8872" fill-opacity="1.0" stroke="none" stroke-width="0" stroke-linecap="butt" stroke-opacity="1.0" transform="matrix(1,0,0,1,2529,0)" d="M 100 -138 Q 80 -180 80 -238 Q 80 -296 98 -366 Q 117 -436 146 -509 Q 175 -583 210 -658 L 277 -808 Q 407 -1102 373 -1155 Q 357 -1179 312 -1204 Q 298 -1213 298 -1235 Q 298 -1258 317 -1278 Q 336 -1299 368 -1314 Q 431 -1344 495 -1344 Q 559 -1344 592 -1330 Q 626 -1317 648 -1296 Q 690 -1254 690 -1193 Q 690 -1133 666 -1057 Q 643 -981 607 -897 Q 572 -814 530 -726 L 453 -558 Q 370 -371 370 -310 Q 370 -192 455 -192 Q 675 -192 866 -447 Q 978 -595 1026 -769 Q 1049 -851 1049 -918 Q 1049 -986 1044 -1031 Q 1040 -1076 1029 -1111 Q 1012 -1173 971 -1218 Q 944 -1251 996 -1296 Q 1054 -1344 1160 -1344 Q 1226 -1344 1276 -1284 Q 1339 -1212 1339 -1077 Q 1339 -943 1298 -813 Q 1257 -684 1186 -565 Q 1116 -446 1019 -343 Q 923 -241 811 -165 Q 572 0 333 0 Q 161 0 100 -138 Z"/>
		<path character="o" fill="#EA8872" fill-opacity="1.0" stroke="none" stroke-width="0" stroke-linecap="butt" stroke-opacity="1.0" transform="matrix(1,0,0,1,3890,0)" d="M 216 -100 Q 161 -152 129 -231 Q 98 -310 97 -418 Q 96 -526 124 -636 Q 152 -747 204 -850 Q 256 -953 328 -1043 Q 401 -1133 489 -1200 Q 681 -1344 887 -1344 Q 1157 -1344 1253 -1111 Q 1321 -943 1261 -704 Q 1206 -484 1059 -300 Q 913 -116 715 -39 Q 615 0 518 0 Q 422 0 346 -24 Q 271 -49 216 -100 M 467 -724 Q 428 -629 405 -529 Q 382 -429 383 -340 Q 384 -251 411 -200 Q 438 -150 498 -150 Q 559 -150 617 -190 Q 676 -231 731 -297 Q 786 -364 834 -451 Q 883 -538 920 -633 Q 1000 -839 997 -999 Q 997 -1140 938 -1179 Q 915 -1194 872 -1194 Q 829 -1194 774 -1156 Q 719 -1118 664 -1054 Q 609 -990 557 -904 Q 506 -819 467 -724 Z"/>
		<path character="i" fill="#EA8872" fill-opacity="1.0" stroke="none" stroke-width="0" stroke-linecap="butt" stroke-opacity="1.0" transform="matrix(1,0,0,1,5315,0)" d="M 803 -1732 Q 774 -1701 737 -1682 Q 701 -1663 660 -1658 Q 620 -1654 583 -1671 Q 547 -1688 521 -1720 Q 465 -1785 465 -1852 Q 465 -1919 486 -1952 Q 508 -1986 541 -2007 Q 604 -2048 659 -2048 Q 715 -2048 746 -2040 Q 777 -2032 803 -2014 Q 868 -1970 868 -1908 Q 868 -1846 850 -1804 Q 832 -1763 803 -1732 M 534 -256 Q 568 -256 568 -212 Q 568 -153 515 -91 Q 436 0 303 0 Q 151 0 95 -121 Q 74 -163 74 -223 Q 74 -284 95 -358 Q 117 -432 149 -513 Q 181 -595 219 -679 L 289 -841 Q 365 -1022 365 -1080 Q 365 -1138 352 -1157 Q 340 -1176 326 -1186 L 299 -1204 Q 286 -1213 286 -1235 Q 286 -1258 304 -1278 Q 322 -1299 350 -1314 Q 410 -1344 488 -1344 Q 681 -1344 681 -1248 Q 681 -1135 619 -990 Q 558 -846 515 -757 L 436 -585 Q 349 -395 349 -311 Q 349 -256 407 -256 Q 463 -256 492 -256 Q 521 -256 534 -256 Z"/>
		<path character="c" fill="#EA8872" fill-opacity="1.0" stroke="none" stroke-width="0" stroke-linecap="butt" stroke-opacity="1.0" transform="matrix(1,0,0,1,6099,0)" d="M 89 -457 Q 92 -568 125 -679 Q 159 -791 214 -890 Q 270 -989 347 -1072 Q 424 -1156 514 -1217 Q 703 -1344 912 -1344 Q 1127 -1344 1205 -1178 Q 1232 -1118 1230 -1042 Q 1228 -967 1204 -904 Q 1181 -841 1146 -792 Q 1066 -680 984 -680 Q 894 -680 850 -730 Q 812 -773 827 -830 Q 831 -847 850 -861 Q 870 -875 900 -905 Q 985 -994 989 -1113 Q 992 -1194 890 -1194 Q 779 -1194 659 -1071 Q 483 -892 411 -613 Q 348 -370 434 -257 Q 485 -192 573 -192 Q 722 -192 859 -296 Q 901 -329 927 -363 Q 954 -397 976 -397 Q 999 -397 1014 -375 Q 1029 -354 1029 -320 Q 1029 -243 959 -169 Q 781 0 530 0 Q 316 0 199 -120 Q 84 -238 89 -457 Z"/>
		<path character="e" fill="#EA8872" fill-opacity="1.0" stroke="none" stroke-width="0" stroke-linecap="butt" stroke-opacity="1.0" transform="matrix(1,0,0,1,7396,0)" d="M 108 -463 Q 113 -575 146 -677 Q 179 -779 234 -875 Q 289 -971 363 -1056 Q 437 -1142 524 -1206 Q 712 -1344 903 -1344 Q 1128 -1344 1202 -1164 Q 1229 -1102 1227 -1018 Q 1226 -935 1194 -864 Q 1163 -793 1107 -735 Q 1051 -677 974 -631 Q 898 -585 807 -553 Q 621 -489 408 -489 Q 403 -471 401 -434 Q 400 -397 409 -351 Q 419 -306 441 -271 Q 488 -192 578 -192 Q 730 -192 874 -281 Q 925 -311 957 -343 Q 990 -375 1013 -375 Q 1037 -375 1054 -347 Q 1072 -319 1072 -284 Q 1072 -215 1033 -164 Q 868 0 541 0 Q 348 0 231 -113 Q 100 -242 108 -463 M 874 -1194 Q 736 -1194 609 -1004 Q 502 -841 436 -617 Q 655 -639 817 -791 Q 965 -933 965 -1063 Q 965 -1194 874 -1194 Z"/>
		<path character="B" fill="#EA8872" fill-opacity="1.0" stroke="none" stroke-width="0" stroke-linecap="butt" stroke-opacity="1.0" transform="matrix(1,0,0,1,9541,0)" d="M 150 -210 Q 122 -285 125 -390 Q 128 -496 155 -645 Q 182 -794 237 -964 Q 364 -1359 583 -1662 Q 621 -1714 662 -1714 Q 704 -1714 744 -1695 Q 784 -1676 814 -1649 Q 890 -1584 864 -1542 Q 679 -1232 561 -982 Q 859 -982 1086 -1163 Q 1334 -1359 1334 -1640 Q 1334 -1830 1158 -1882 Q 1104 -1898 1030 -1898 Q 956 -1898 876 -1882 Q 797 -1866 724 -1838 Q 578 -1781 457 -1688 Q 423 -1662 394 -1662 Q 365 -1662 331 -1676 Q 297 -1690 271 -1711 Q 168 -1792 300 -1880 Q 490 -2005 861 -2042 Q 931 -2048 1047 -2048 Q 1163 -2048 1284 -2009 Q 1406 -1971 1480 -1906 Q 1615 -1784 1615 -1567 Q 1615 -1370 1461 -1179 Q 1321 -1003 1099 -893 Q 1205 -847 1258 -764 Q 1312 -681 1309 -585 Q 1306 -489 1270 -408 Q 1234 -328 1173 -263 Q 1112 -198 1031 -148 Q 951 -99 861 -67 Q 679 0 491 0 Q 227 0 150 -210 M 468 -766 Q 368 -523 363 -343 Q 360 -256 406 -209 Q 453 -162 534 -162 Q 616 -162 702 -196 Q 789 -231 861 -290 Q 1027 -426 1032 -598 Q 1036 -754 888 -810 Q 843 -827 792 -832 Q 730 -832 619 -803 Q 508 -775 468 -766 Z"/>
		<path character="u" fill="#EA8872" fill-opacity="1.0" stroke="none" stroke-width="0" stroke-linecap="butt" stroke-opacity="1.0" transform="matrix(1,0,0,1,11030,0)" d="M 1319 -292 Q 1349 -292 1349 -260 Q 1349 -137 1236 -54 Q 1160 0 1058 0 Q 974 0 929 -39 Q 849 -110 849 -213 Q 849 -342 958 -610 Q 756 -337 674 -247 Q 593 -157 533 -108 Q 402 0 295 0 Q 133 0 79 -138 Q 63 -180 63 -234 Q 63 -289 82 -356 Q 101 -424 131 -497 Q 161 -571 197 -648 L 268 -803 Q 404 -1100 369 -1155 Q 353 -1179 310 -1204 Q 294 -1213 294 -1235 Q 294 -1258 313 -1278 Q 332 -1299 362 -1314 Q 427 -1344 491 -1344 Q 555 -1344 588 -1331 Q 622 -1318 643 -1298 Q 686 -1256 686 -1206 Q 686 -1156 669 -1093 Q 652 -1031 624 -958 Q 597 -885 564 -808 Q 474 -604 442 -539 L 394 -442 Q 353 -355 353 -320 Q 353 -285 365 -270 Q 377 -256 407 -256 Q 438 -256 479 -283 Q 520 -311 568 -357 Q 617 -404 669 -465 Q 722 -526 772 -591 Q 870 -720 916 -797 Q 1194 -1269 1213 -1290 Q 1255 -1344 1299 -1344 Q 1343 -1344 1375 -1334 Q 1408 -1325 1432 -1308 Q 1487 -1269 1467 -1230 Q 1147 -593 1122 -429 Q 1116 -372 1116 -351 Q 1116 -256 1176 -256 Q 1232 -256 1269 -274 Q 1306 -292 1319 -292 Z"/>
		<path character="i" fill="#EA8872" fill-opacity="1.0" stroke="none" stroke-width="0" stroke-linecap="butt" stroke-opacity="1.0" transform="matrix(1,0,0,1,12518,0)" d="M 803 -1732 Q 774 -1701 737 -1682 Q 701 -1663 660 -1658 Q 620 -1654 583 -1671 Q 547 -1688 521 -1720 Q 465 -1785 465 -1852 Q 465 -1919 486 -1952 Q 508 -1986 541 -2007 Q 604 -2048 659 -2048 Q 715 -2048 746 -2040 Q 777 -2032 803 -2014 Q 868 -1970 868 -1908 Q 868 -1846 850 -1804 Q 832 -1763 803 -1732 M 534 -256 Q 568 -256 568 -212 Q 568 -153 515 -91 Q 436 0 303 0 Q 151 0 95 -121 Q 74 -163 74 -223 Q 74 -284 95 -358 Q 117 -432 149 -513 Q 181 -595 219 -679 L 289 -841 Q 365 -1022 365 -1080 Q 365 -1138 352 -1157 Q 340 -1176 326 -1186 L 299 -1204 Q 286 -1213 286 -1235 Q 286 -1258 304 -1278 Q 322 -1299 350 -1314 Q 410 -1344 488 -1344 Q 681 -1344 681 -1248 Q 681 -1135 619 -990 Q 558 -846 515 -757 L 436 -585 Q 349 -395 349 -311 Q 349 -256 407 -256 Q 463 -256 492 -256 Q 521 -256 534 -256 Z"/>
		<path character="l" fill="#EA8872" fill-opacity="1.0" stroke="none" stroke-width="0" stroke-linecap="butt" stroke-opacity="1.0" transform="matrix(1,0,0,1,13303,0)" d="M 159 -65 Q 126 -99 105 -151 Q 85 -204 85 -274 Q 85 -344 117 -461 Q 150 -578 200 -728 L 310 -1052 Q 545 -1729 581 -2099 Q 593 -2208 689 -2208 Q 749 -2208 789 -2180 Q 865 -2123 862 -2054 Q 860 -1985 837 -1885 Q 815 -1786 779 -1668 Q 744 -1551 698 -1420 L 517 -899 Q 361 -455 361 -325 Q 361 -256 419 -256 Q 474 -256 519 -272 Q 564 -288 578 -288 Q 605 -288 605 -259 Q 605 -138 486 -56 Q 406 0 339 0 Q 273 0 232 -15 Q 192 -31 159 -65 Z"/>
		<path character="d" fill="#EA8872" fill-opacity="1.0" stroke="none" stroke-width="0" stroke-linecap="butt" stroke-opacity="1.0" transform="matrix(1,0,0,1,14088,0)" d="M 1406 -302 Q 1433 -302 1433 -271 Q 1433 -148 1316 -60 Q 1239 0 1170 0 Q 1101 0 1060 -16 Q 1020 -33 987 -69 Q 914 -152 914 -297 Q 914 -326 924 -390 Q 818 -217 742 -147 Q 588 0 441 0 Q 209 0 137 -206 Q 110 -282 110 -396 Q 110 -511 145 -628 Q 181 -745 242 -850 Q 303 -956 384 -1046 Q 465 -1137 554 -1204 Q 746 -1344 900 -1344 Q 1055 -1344 1148 -1233 Q 1377 -2011 1492 -2151 Q 1541 -2208 1595 -2208 Q 1684 -2208 1730 -2158 Q 1744 -2141 1744 -2124 Q 1744 -2108 1723 -2063 Q 1702 -2018 1662 -1918 Q 1545 -1616 1498 -1476 Q 1377 -1118 1335 -983 L 1263 -745 Q 1169 -428 1169 -342 Q 1169 -256 1234 -256 Q 1293 -256 1328 -271 L 1378 -294 Q 1393 -302 1406 -302 M 504 -192 Q 639 -192 814 -455 Q 996 -727 1068 -1047 Q 1063 -1137 994 -1179 Q 970 -1194 922 -1194 Q 874 -1194 810 -1159 Q 747 -1125 687 -1066 Q 627 -1007 575 -927 Q 524 -848 486 -759 Q 403 -565 403 -378 Q 403 -192 504 -192 Z"/>
		<path character="e" fill="#EA8872" fill-opacity="1.0" stroke="none" stroke-width="0" stroke-linecap="butt" stroke-opacity="1.0" transform="matrix(1,0,0,1,15576,0)" d="M 108 -463 Q 113 -575 146 -677 Q 179 -779 234 -875 Q 289 -971 363 -1056 Q 437 -1142 524 -1206 Q 712 -1344 903 -1344 Q 1128 -1344 1202 -1164 Q 1229 -1102 1227 -1018 Q 1226 -935 1194 -864 Q 1163 -793 1107 -735 Q 1051 -677 974 -631 Q 898 -585 807 -553 Q 621 -489 408 -489 Q 403 -471 401 -434 Q 400 -397 409 -351 Q 419 -306 441 -271 Q 488 -192 578 -192 Q 730 -192 874 -281 Q 925 -311 957 -343 Q 990 -375 1013 -375 Q 1037 -375 1054 -347 Q 1072 -319 1072 -284 Q 1072 -215 1033 -164 Q 868 0 541 0 Q 348 0 231 -113 Q 100 -242 108 -463 M 874 -1194 Q 736 -1194 609 -1004 Q 502 -841 436 -617 Q 655 -639 817 -791 Q 965 -933 965 -1063 Q 965 -1194 874 -1194 Z"/>
		<path character="r" fill="#EA8872" fill-opacity="1.0" stroke="none" stroke-width="0" stroke-linecap="butt" stroke-opacity="1.0" transform="matrix(1,0,0,1,16873,0)" d="M 99 -43 Q 73 -63 57 -87 Q 42 -111 40 -128 Q 39 -145 47 -170 Q 56 -195 71 -232 Q 338 -877 338 -1098 Q 334 -1160 295 -1186 L 269 -1204 Q 257 -1213 256 -1235 Q 256 -1258 273 -1278 Q 290 -1299 317 -1314 Q 374 -1344 433 -1344 Q 493 -1344 526 -1331 Q 560 -1318 584 -1296 Q 634 -1250 634 -1198 Q 635 -1146 622 -1093 Q 610 -1040 593 -989 Q 576 -938 559 -892 Q 542 -846 537 -824 Q 526 -779 529 -767 Q 560 -794 567 -820 L 618 -916 Q 789 -1219 951 -1317 Q 999 -1344 1065 -1344 Q 1131 -1344 1171 -1298 Q 1212 -1252 1214 -1196 Q 1216 -1140 1206 -1102 Q 1197 -1065 1177 -1033 Q 1134 -960 1072 -960 Q 1055 -960 1041 -972 L 1012 -997 Q 968 -1035 928 -1035 Q 888 -1035 831 -983 Q 774 -932 712 -852 Q 505 -584 374 -251 L 316 -103 Q 294 -47 277 -23 Q 260 0 226 0 Q 193 0 159 -12 Q 126 -24 99 -43 Z"/>
</g>
</svg>