<svg xmlns="http://www.w3.org/2000/svg" xmlns:xlink="http://www.w3.org/1999/xlink" viewBox="0 0 5430 3597">
<title>Payload</title>
<g transform="matrix(1,0,0,1,0,2752)">
  		<path character="P" fill="#EA8872" fill-opacity="1.0" stroke="none" stroke-width="10px" stroke-linecap="butt" stroke-opacity="1.0" transform="matrix(1,0,0,1,-128,0)" d="M 235 0 Q 203 0 203 -94 Q 203 -229 200 -335 L 195 -577 L 195 -796 Q 192 -893 192 -1015 Q 192 -1376 179 -1684 L 176 -1781 Q 168 -1940 168 -2040 L 176 -2051 Q 179 -2057 187 -2066 Q 189 -2074 200 -2077 Q 205 -2080 219 -2080 Q 312 -2080 388 -2036 Q 464 -1993 512 -1918 Q 605 -1769 605 -1579 Q 605 -1457 566 -1330 Q 528 -1203 451 -1100 Q 371 -989 272 -970 L 277 -671 L 283 -525 Q 293 -267 293 -84 Q 293 -40 281 -20 Q 269 0 235 0 M 272 -1070 Q 296 -1072 320 -1091 Q 325 -1094 339 -1113 Q 339 -1113 357 -1132 Q 531 -1308 531 -1573 Q 531 -1724 472 -1854 Q 440 -1922 378 -1961 Q 317 -2000 235 -2000 Q 235 -1846 251 -1538 Q 267 -1229 267 -1075 L 272 -1070 Z"/>
		<path character="a" fill="#EA8872" fill-opacity="1.0" stroke="none" stroke-width="10px" stroke-linecap="butt" stroke-opacity="1.0" transform="matrix(1,0,0,1,649,0)" d="M 717 0 Q 677 0 666 -9 Q 656 -19 651 -60 Q 627 -261 621 -310 L 608 -420 Q 549 -434 475 -434 L 379 -434 Q 315 -434 285 -434 Q 269 -434 267 -421 Q 267 -413 264 -413 L 259 -362 Q 256 -312 229 -163 Q 216 -88 197 -47 Q 176 0 157 0 Q 141 0 122 -14 Q 104 -29 104 -45 L 107 -53 L 109 -61 Q 157 -251 189 -438 L 221 -604 L 253 -807 Q 253 -807 283 -983 Q 296 -1055 331 -1215 Q 368 -1397 376 -1464 Q 379 -1472 387 -1562 Q 397 -1664 405 -1712 Q 413 -1781 421 -1792 L 440 -1792 Q 448 -1792 459 -1792 Q 491 -1792 507 -1807 Q 525 -1807 540 -1795 Q 555 -1783 555 -1767 Q 555 -1639 573 -1473 Q 584 -1387 589 -1331 Q 619 -986 739 -37 L 739 -31 Q 739 -10 717 0 M 595 -514 Q 568 -884 493 -1607 L 349 -920 Q 288 -624 288 -547 Q 288 -534 389 -524 Q 491 -514 568 -514 L 595 -514 Z"/>
		<path character="y" fill="#EA8872" fill-opacity="1.0" stroke="none" stroke-width="10px" stroke-linecap="butt" stroke-opacity="1.0" transform="matrix(1,0,0,1,1490,0)" d="M 368 0 Q 360 0 346 -10 Q 333 -21 331 -29 Q 355 -91 355 -485 Q 355 -561 347 -702 L 333 -887 L 317 -920 L 325 -951 Q 309 -988 277 -1074 Q 245 -1161 213 -1250 Q 117 -1499 88 -1609 Q 72 -1661 64 -1706 L 101 -1734 Q 128 -1729 179 -1567 Q 219 -1451 251 -1339 L 283 -1239 Q 331 -1077 352 -1072 L 363 -1120 L 357 -1134 Q 379 -1161 411 -1325 Q 445 -1513 477 -1642 Q 512 -1792 547 -1792 Q 560 -1792 570 -1784 Q 581 -1776 581 -1765 Q 581 -1725 501 -1450 Q 461 -1318 435 -1203 Q 403 -1067 403 -960 Q 416 -934 416 -916 Q 416 -903 408 -879 Q 400 -856 400 -840 Q 400 -827 411 -723 Q 421 -652 421 -603 Q 421 -488 424 -397 L 424 -188 L 424 -177 Q 424 0 368 0 Z"/>
		<path character="l" fill="#EA8872" fill-opacity="1.0" stroke="none" stroke-width="10px" stroke-linecap="butt" stroke-opacity="1.0" transform="matrix(1,0,0,1,2203,0)" d="M 240 0 Q 203 0 195 -50 Q 200 -66 200 -139 Q 200 -387 208 -875 Q 216 -1361 216 -1577 L 221 -1674 L 229 -1755 Q 229 -1774 248 -1774 Q 261 -1774 285 -1766 L 293 -1763 Q 293 -1704 291 -1655 L 291 -1550 L 291 -1256 Q 293 -1126 293 -961 Q 291 -948 291 -902 L 288 -845 Q 285 -791 285 -734 Q 285 -672 288 -621 L 291 -505 L 283 -484 L 285 -487 Q 285 -479 283 -476 L 283 -465 Q 283 -443 291 -427 L 283 -165 L 283 -148 Q 283 -102 285 -94 Q 285 -80 299 -80 L 437 -80 Q 499 -80 521 -80 Q 544 -80 549 -80 L 557 -80 Q 571 -80 584 -65 Q 597 -50 597 -33 Q 597 0 555 0 Q 509 0 333 0 L 339 0 Q 312 0 288 0 Q 267 0 240 0 Z"/>
		<path character="o" fill="#EA8872" fill-opacity="1.0" stroke="none" stroke-width="10px" stroke-linecap="butt" stroke-opacity="1.0" transform="matrix(1,0,0,1,2852,0)" d="M 469 32 Q 157 32 157 -952 L 157 -1046 Q 157 -1792 349 -1792 Q 363 -1792 387 -1784 Q 472 -1755 555 -1747 Q 605 -1736 656 -1642 Q 712 -1546 740 -1388 Q 768 -1230 768 -1065 L 763 -1051 Q 763 -963 765 -893 L 768 -733 Q 768 -597 757 -487 Q 741 -321 704 -201 Q 680 -128 649 -80 Q 619 -32 573 0 Q 531 32 469 32 M 459 -48 Q 563 -48 613 -194 Q 664 -343 675 -497 Q 685 -656 685 -752 Q 685 -858 669 -1065 Q 656 -1297 656 -1379 L 645 -1400 L 651 -1414 Q 651 -1535 585 -1623 Q 520 -1712 427 -1712 Q 304 -1712 280 -1589 Q 275 -1547 269 -1469 Q 269 -1273 253 -1201 Q 253 -1161 245 -1076 L 240 -951 Q 240 -893 243 -848 L 245 -741 Q 245 -616 267 -454 Q 283 -335 304 -252 Q 325 -170 365 -112 Q 405 -48 459 -48 Z"/>
		<path character="a" fill="#EA8872" fill-opacity="1.0" stroke="none" stroke-width="10px" stroke-linecap="butt" stroke-opacity="1.0" transform="matrix(1,0,0,1,3757,0)" d="M 717 0 Q 677 0 666 -9 Q 656 -19 651 -60 Q 627 -261 621 -310 L 608 -420 Q 549 -434 475 -434 L 379 -434 Q 315 -434 285 -434 Q 269 -434 267 -421 Q 267 -413 264 -413 L 259 -362 Q 256 -312 229 -163 Q 216 -88 197 -47 Q 176 0 157 0 Q 141 0 122 -14 Q 104 -29 104 -45 L 107 -53 L 109 -61 Q 157 -251 189 -438 L 221 -604 L 253 -807 Q 253 -807 283 -983 Q 296 -1055 331 -1215 Q 368 -1397 376 -1464 Q 379 -1472 387 -1562 Q 397 -1664 405 -1712 Q 413 -1781 421 -1792 L 440 -1792 Q 448 -1792 459 -1792 Q 491 -1792 507 -1807 Q 525 -1807 540 -1795 Q 555 -1783 555 -1767 Q 555 -1639 573 -1473 Q 584 -1387 589 -1331 Q 619 -986 739 -37 L 739 -31 Q 739 -10 717 0 M 595 -514 Q 568 -884 493 -1607 L 349 -920 Q 288 -624 288 -547 Q 288 -534 389 -524 Q 491 -514 568 -514 L 595 -514 Z"/>
		<path character="d" fill="#EA8872" fill-opacity="1.0" stroke="none" stroke-width="10px" stroke-linecap="butt" stroke-opacity="1.0" transform="matrix(1,0,0,1,4598,0)" d="M 243 0 Q 221 0 221 -74 Q 211 -259 211 -541 Q 211 -719 213 -858 L 216 -1175 Q 216 -1379 205 -1680 Q 181 -1701 181 -1733 Q 181 -1752 204 -1772 Q 227 -1792 245 -1792 Q 267 -1792 285 -1770 L 315 -1746 Q 331 -1738 376 -1729 Q 421 -1721 440 -1713 Q 480 -1691 547 -1629 Q 611 -1564 635 -1547 L 632 -1542 Q 635 -1526 672 -1471 Q 701 -1430 720 -1395 Q 763 -1270 763 -1072 Q 763 -1036 760 -1009 L 760 -945 L 760 -924 L 757 -897 Q 757 -847 773 -817 Q 757 -732 733 -495 Q 725 -426 706 -349 Q 688 -272 661 -221 Q 592 -91 429 0 L 243 0 M 419 -80 Q 437 -101 453 -115 Q 453 -115 472 -128 L 493 -146 Q 680 -314 680 -784 L 680 -834 Q 677 -856 677 -880 L 667 -1154 Q 659 -1311 573 -1479 Q 533 -1563 465 -1616 Q 397 -1669 323 -1669 Q 291 -1669 291 -1172 Q 291 -598 323 -171 L 320 -120 L 331 -115 L 336 -80 L 419 -80 Z"/>
</g>
</svg>