<svg xmlns="http://www.w3.org/2000/svg" xmlns:xlink="http://www.w3.org/1999/xlink" viewBox="0 0 8556 3392">
<title>headline</title>
<g transform="matrix(1,0,0,1,0,2624)">
  		<path character="h" fill="none" fill-opacity="1.0" stroke="#A5834B" stroke-width="20" stroke-linecap="butt" stroke-opacity="1.0" transform="matrix(1,0,0,1,-128,0)" d="M 1008 -906 Q 1008 -1067 913 -1139 Q 819 -1212 669 -1212 Q 579 -1212 485 -1186 Q 392 -1161 320 -1120 L 320 0 L 171 0 L 171 -1856 L 320 -1856 L 320 -1251 Q 387 -1295 480 -1319 Q 573 -1344 675 -1344 Q 813 -1344 928 -1294 Q 1035 -1246 1095 -1151 Q 1155 -1057 1155 -912 L 1155 0 L 1008 0 L 1008 -906 Z"/>
		<path character="e" fill="none" fill-opacity="1.0" stroke="#A5834B" stroke-width="20" stroke-linecap="butt" stroke-opacity="1.0" transform="matrix(1,0,0,1,1231,0)" d="M 987 -123 Q 891 -63 768 -31 Q 645 0 523 0 Q 325 0 209 -94 Q 93 -188 93 -376 L 93 -904 Q 93 -1112 228 -1228 Q 363 -1344 584 -1344 Q 805 -1344 929 -1228 Q 1053 -1113 1053 -909 L 1053 -572 L 243 -572 L 243 -401 Q 243 -267 325 -199 Q 408 -132 541 -132 Q 728 -132 928 -238 L 987 -123 M 904 -925 Q 904 -1082 800 -1147 Q 696 -1212 581 -1212 Q 435 -1212 339 -1140 Q 243 -1068 243 -915 L 243 -704 L 904 -704 L 904 -925 Z"/>
		<path character="a" fill="none" fill-opacity="1.0" stroke="#A5834B" stroke-width="20" stroke-linecap="butt" stroke-opacity="1.0" transform="matrix(1,0,0,1,2399,0)" d="M 1125 -29 Q 837 0 709 0 Q 429 0 264 -102 Q 99 -205 99 -474 L 99 -693 Q 99 -954 283 -1043 Q 371 -1088 507 -1088 Q 632 -1088 760 -1048 Q 888 -1009 976 -945 Q 976 -1067 890 -1139 Q 805 -1212 563 -1212 L 571 -1344 Q 827 -1344 948 -1265 Q 1069 -1186 1097 -1077 Q 1125 -969 1125 -799 L 1125 -29 M 976 -831 Q 867 -882 743 -919 Q 619 -956 515 -956 Q 245 -956 245 -689 L 245 -459 Q 245 -288 365 -210 Q 485 -132 707 -132 Q 821 -132 976 -154 L 976 -831 Z"/>
		<path character="d" fill="none" fill-opacity="1.0" stroke="#A5834B" stroke-width="20" stroke-linecap="butt" stroke-opacity="1.0" transform="matrix(1,0,0,1,3630,0)" d="M 208 -924 Q 208 -1194 435 -1295 Q 544 -1344 696 -1344 Q 795 -1344 887 -1320 Q 979 -1296 1043 -1251 L 1043 -1856 L 1192 -1856 L 1192 -31 L 1045 -18 Q 872 0 773 0 Q 675 0 588 -18 Q 501 -36 416 -77 Q 320 -124 264 -214 Q 208 -304 208 -436 L 208 -924 M 1043 -1117 Q 971 -1159 877 -1185 Q 784 -1212 693 -1212 Q 544 -1212 449 -1141 Q 355 -1071 355 -914 L 355 -433 Q 355 -132 784 -132 Q 885 -132 1043 -155 L 1043 -1117 Z"/>
		<path character="l" fill="none" fill-opacity="1.0" stroke="#A5834B" stroke-width="20" stroke-linecap="butt" stroke-opacity="1.0" transform="matrix(1,0,0,1,4925,0)" d="M 208 -1856 L 357 -1856 L 357 0 L 208 0 L 208 -1856 Z"/>
		<path character="i" fill="none" fill-opacity="1.0" stroke="#A5834B" stroke-width="20" stroke-linecap="butt" stroke-opacity="1.0" transform="matrix(1,0,0,1,5517,0)" d="M 299 -1674 Q 264 -1674 236 -1702 Q 208 -1731 208 -1766 Q 208 -1802 234 -1829 Q 261 -1856 299 -1856 Q 336 -1856 361 -1830 Q 387 -1804 387 -1766 Q 387 -1728 360 -1701 Q 333 -1674 299 -1674 M 221 -1344 L 371 -1344 L 371 0 L 221 0 L 221 -1344 Z"/>
		<path character="n" fill="none" fill-opacity="1.0" stroke="#A5834B" stroke-width="20" stroke-linecap="butt" stroke-opacity="1.0" transform="matrix(1,0,0,1,6108,0)" d="M 1008 -906 Q 1008 -1067 913 -1139 Q 819 -1212 669 -1212 Q 579 -1212 485 -1186 Q 392 -1161 320 -1120 L 320 0 L 171 0 L 171 -1344 L 320 -1344 L 309 -1237 Q 373 -1291 472 -1317 Q 571 -1344 677 -1344 Q 824 -1344 928 -1296 Q 1035 -1249 1095 -1154 Q 1155 -1059 1155 -914 L 1155 0 L 1008 0 L 1008 -906 Z"/>
		<path character="e" fill="none" fill-opacity="1.0" stroke="#A5834B" stroke-width="20" stroke-linecap="butt" stroke-opacity="1.0" transform="matrix(1,0,0,1,7468,0)" d="M 987 -123 Q 891 -63 768 -31 Q 645 0 523 0 Q 325 0 209 -94 Q 93 -188 93 -376 L 93 -904 Q 93 -1112 228 -1228 Q 363 -1344 584 -1344 Q 805 -1344 929 -1228 Q 1053 -1113 1053 -909 L 1053 -572 L 243 -572 L 243 -401 Q 243 -267 325 -199 Q 408 -132 541 -132 Q 728 -132 928 -238 L 987 -123 M 904 -925 Q 904 -1082 800 -1147 Q 696 -1212 581 -1212 Q 435 -1212 339 -1140 Q 243 -1068 243 -915 L 243 -704 L 904 -704 L 904 -925 Z"/>
</g>
</svg>