<svg xmlns="http://www.w3.org/2000/svg" xmlns:xlink="http://www.w3.org/1999/xlink" viewBox="0 0 10750 3584">
<title>headline</title>
<g transform="matrix(1,0,0,1,0,2432)">
  		<path character="h" fill="none" fill-opacity="1.0" stroke="#A5834B" stroke-width="20" stroke-linecap="butt" stroke-opacity="1.0" transform="matrix(1,0,0,1,-192,0)" d="M 549 -148 Q 549 -34 554 0 L 227 0 L 227 -1920 L 549 -1920 L 549 -1283 Q 718 -1408 898 -1408 Q 1118 -1408 1252 -1261 Q 1383 -1114 1383 -873 L 1383 -346 Q 1383 -123 1390 -78 Q 1397 -33 1408 -20 Q 1419 -7 1427 4 L 1424 9 Q 1318 0 1269 0 L 1176 0 Q 1133 0 1062 0 L 1062 -773 Q 1062 -957 982 -1045 Q 921 -1112 818 -1112 Q 664 -1112 549 -918 L 549 -148 Z"/>
		<path character="e" fill="none" fill-opacity="1.0" stroke="#A5834B" stroke-width="20" stroke-linecap="butt" stroke-opacity="1.0" transform="matrix(1,0,0,1,1362,0)" d="M 127 -690 Q 127 -842 179 -972 Q 232 -1103 328 -1201 Q 533 -1408 864 -1408 Q 1143 -1408 1313 -1218 Q 1479 -1036 1479 -759 Q 1479 -653 1463 -614 Q 1332 -576 929 -576 L 467 -576 Q 501 -443 626 -369 Q 751 -296 950 -296 Q 1159 -296 1309 -366 Q 1348 -384 1368 -400 Q 1365 -347 1361 -292 L 1347 -97 Q 1247 -32 1024 -7 Q 958 0 898 0 Q 564 0 347 -193 Q 127 -387 127 -690 M 1130 -838 Q 1076 -1112 823 -1112 Q 623 -1112 520 -945 Q 488 -893 471 -832 Q 503 -832 549 -832 L 646 -832 Q 694 -832 739 -832 L 814 -832 Q 881 -832 945 -832 L 1053 -832 Q 1096 -832 1130 -838 Z"/>
		<path character="a" fill="none" fill-opacity="1.0" stroke="#A5834B" stroke-width="20" stroke-linecap="butt" stroke-opacity="1.0" transform="matrix(1,0,0,1,2980,0)" d="M 1099 -107 Q 912 0 761 0 Q 610 0 502 -28 Q 395 -57 320 -113 Q 168 -226 168 -439 Q 168 -631 354 -758 Q 557 -896 903 -896 L 956 -896 Q 971 -896 991 -896 Q 1011 -896 1026 -890 Q 1016 -1071 845 -1102 Q 789 -1112 725 -1112 Q 662 -1112 600 -1101 Q 539 -1090 482 -1071 Q 354 -1031 299 -978 L 295 -981 L 256 -1278 Q 488 -1408 764 -1408 Q 1192 -1408 1311 -1106 Q 1349 -1009 1349 -888 L 1349 -422 Q 1349 -273 1457 -219 L 1219 13 Q 1145 -28 1099 -107 M 1028 -632 Q 992 -640 954 -640 L 902 -640 Q 612 -640 533 -522 Q 509 -487 509 -448 Q 509 -410 524 -380 Q 539 -351 575 -332 Q 643 -296 777 -296 Q 912 -296 1029 -355 Q 1028 -368 1028 -382 L 1028 -632 Z"/>
		<path character="d" fill="none" fill-opacity="1.0" stroke="#A5834B" stroke-width="20" stroke-linecap="butt" stroke-opacity="1.0" transform="matrix(1,0,0,1,4534,0)" d="M 1134 -91 Q 967 0 800 0 Q 634 0 509 -52 Q 385 -104 297 -196 Q 116 -383 116 -683 Q 116 -993 326 -1199 Q 537 -1408 866 -1408 Q 967 -1408 1064 -1379 L 1064 -1984 L 1386 -1984 L 1386 -569 Q 1386 -393 1402 -339 Q 1419 -285 1439 -259 Q 1460 -234 1491 -212 L 1244 0 Q 1176 -36 1134 -91 M 862 -296 Q 973 -296 1064 -338 L 1064 -1070 Q 973 -1112 865 -1112 Q 757 -1112 680 -1083 Q 604 -1054 549 -1002 Q 433 -893 433 -719 Q 433 -530 538 -417 Q 651 -296 862 -296 Z"/>
		<path character="l" fill="none" fill-opacity="1.0" stroke="#A5834B" stroke-width="20" stroke-linecap="butt" stroke-opacity="1.0" transform="matrix(1,0,0,1,6152,0)" d="M 497 -149 Q 497 -35 503 0 L 169 0 L 169 -1984 L 497 -1984 L 497 -149 Z"/>
		<path character="i" fill="none" fill-opacity="1.0" stroke="#A5834B" stroke-width="20" stroke-linecap="butt" stroke-opacity="1.0" transform="matrix(1,0,0,1,6874,0)" d="M 151 -1802 Q 256 -1967 370 -2092 L 652 -1870 Q 596 -1800 547 -1732 Q 547 -1732 446 -1588 L 151 -1802 M 496 -151 Q 496 -35 501 0 L 168 0 L 168 -1408 L 496 -1408 L 496 -151 Z"/>
		<path character="n" fill="none" fill-opacity="1.0" stroke="#A5834B" stroke-width="20" stroke-linecap="butt" stroke-opacity="1.0" transform="matrix(1,0,0,1,7596,0)" d="M 538 -169 Q 538 -53 549 0 L 219 0 L 219 -1408 L 538 -1408 L 538 -1282 Q 711 -1408 908 -1408 Q 1124 -1408 1252 -1260 Q 1381 -1113 1381 -873 L 1381 -346 Q 1381 -123 1387 -78 Q 1394 -33 1405 -20 Q 1416 -7 1424 4 L 1421 9 Q 1315 0 1267 0 L 1175 0 Q 1133 0 1062 0 L 1062 -723 Q 1062 -1112 828 -1112 Q 655 -1112 538 -923 L 538 -169 Z"/>
		<path character="e" fill="none" fill-opacity="1.0" stroke="#A5834B" stroke-width="20" stroke-linecap="butt" stroke-opacity="1.0" transform="matrix(1,0,0,1,9213,0)" d="M 127 -690 Q 127 -842 179 -972 Q 232 -1103 328 -1201 Q 533 -1408 864 -1408 Q 1143 -1408 1313 -1218 Q 1479 -1036 1479 -759 Q 1479 -653 1463 -614 Q 1332 -576 929 -576 L 467 -576 Q 501 -443 626 -369 Q 751 -296 950 -296 Q 1159 -296 1309 -366 Q 1348 -384 1368 -400 Q 1365 -347 1361 -292 L 1347 -97 Q 1247 -32 1024 -7 Q 958 0 898 0 Q 564 0 347 -193 Q 127 -387 127 -690 M 1130 -838 Q 1076 -1112 823 -1112 Q 623 -1112 520 -945 Q 488 -893 471 -832 Q 503 -832 549 -832 L 646 -832 Q 694 -832 739 -832 L 814 -832 Q 881 -832 945 -832 L 1053 -832 Q 1096 -832 1130 -838 Z"/>
</g>
</svg>