<svg xmlns="http://www.w3.org/2000/svg" xmlns:xlink="http://www.w3.org/1999/xlink" viewBox="0 0 10428 3341">
<title>headline</title>
<g transform="matrix(1,0,0,1,0,2496)">
  		<path character="h" fill="#CAD1D8" fill-opacity="1.0" stroke="none" stroke-width="0" stroke-linecap="butt" stroke-opacity="1.0" transform="matrix(1,0,0,1,0,0)" d="M 53 -25 Q 53 -45 72 -51 Q 91 -57 117 -57 Q 124 -57 139 -57 Q 154 -57 171 -57 Q 188 -57 205 -57 Q 222 -57 234 -57 Q 256 -57 256 -92 L 256 -1187 Q 256 -1197 243 -1210 Q 231 -1223 219 -1223 L 101 -1223 Q 92 -1223 76 -1233 Q 61 -1243 61 -1253 Q 61 -1267 74 -1273 Q 87 -1280 98 -1280 Q 155 -1280 222 -1280 Q 290 -1280 364 -1280 Q 438 -1280 512 -1280 Q 586 -1280 657 -1280 Q 672 -1280 679 -1270 Q 686 -1261 686 -1254 Q 686 -1240 673 -1234 Q 660 -1228 640 -1225 Q 620 -1223 597 -1223 Q 574 -1223 553 -1221 Q 532 -1219 516 -1212 Q 500 -1205 500 -1193 L 500 -655 Q 500 -636 520 -636 L 999 -636 Q 1010 -636 1023 -647 Q 1036 -658 1036 -675 L 1036 -1185 Q 1036 -1213 1015 -1217 Q 981 -1223 947 -1223 Q 913 -1223 879 -1231 Q 865 -1237 853 -1245 Q 842 -1253 842 -1258 Q 842 -1270 856 -1275 Q 870 -1280 875 -1280 Q 882 -1280 895 -1280 Q 908 -1280 923 -1280 Q 938 -1280 951 -1280 Q 964 -1280 972 -1280 L 1149 -1280 Q 1176 -1280 1211 -1280 Q 1246 -1280 1280 -1280 Q 1314 -1280 1346 -1280 Q 1378 -1280 1403 -1280 Q 1422 -1280 1426 -1270 Q 1431 -1260 1431 -1243 Q 1431 -1239 1425 -1231 Q 1419 -1223 1413 -1223 L 1310 -1223 Q 1280 -1223 1280 -1204 L 1280 -96 Q 1280 -80 1293 -68 Q 1306 -57 1321 -57 L 1435 -57 Q 1442 -57 1447 -50 Q 1452 -44 1452 -39 Q 1449 -22 1438 -11 Q 1427 0 1408 0 Q 1374 0 1335 0 Q 1296 0 1256 0 Q 1220 0 1186 0 Q 1152 0 1133 0 Q 1095 0 1064 0 Q 1034 0 1006 0 Q 978 0 949 0 Q 920 0 885 0 Q 870 0 857 -6 Q 844 -12 844 -29 Q 844 -34 853 -45 Q 863 -57 869 -57 L 985 -57 Q 1002 -57 1019 -71 Q 1036 -85 1036 -112 L 1036 -510 Q 1036 -539 1027 -559 Q 1019 -580 1007 -580 L 530 -580 Q 500 -580 500 -549 L 500 -87 Q 509 -66 517 -60 Q 526 -54 545 -49 Q 555 -46 567 -45 Q 580 -44 596 -44 L 624 -44 L 647 -44 Q 675 -44 675 -16 Q 675 0 645 0 Q 632 0 600 0 Q 568 0 525 0 Q 484 0 440 0 Q 397 0 359 0 Q 295 0 254 0 Q 213 0 173 0 Q 152 0 135 0 Q 119 0 98 0 Q 76 0 64 -3 Q 53 -6 53 -25 Z"/>
		<path character="e" fill="#CAD1D8" fill-opacity="1.0" stroke="none" stroke-width="0" stroke-linecap="butt" stroke-opacity="1.0" transform="matrix(1,0,0,1,1548,0)" d="M 594 -636 L 807 -636 Q 857 -640 883 -663 Q 909 -687 922 -720 Q 935 -754 941 -794 Q 948 -834 963 -873 Q 966 -889 975 -889 Q 992 -889 992 -879 L 992 -826 Q 992 -774 992 -712 Q 992 -651 992 -608 Q 992 -566 992 -518 Q 992 -471 992 -421 Q 992 -415 991 -400 Q 990 -386 987 -370 Q 984 -354 980 -342 Q 976 -330 969 -330 Q 955 -330 952 -344 Q 950 -358 947 -370 Q 944 -386 938 -408 Q 932 -430 924 -452 Q 917 -475 911 -492 Q 905 -510 902 -516 Q 891 -540 859 -553 Q 828 -567 788 -573 Q 748 -580 705 -580 Q 663 -580 631 -580 L 594 -580 Q 575 -580 569 -572 Q 564 -564 564 -546 L 564 -105 Q 564 -67 588 -57 L 965 -57 Q 990 -57 1017 -57 Q 1044 -57 1052 -62 Q 1070 -67 1083 -84 Q 1097 -101 1105 -117 Q 1109 -123 1119 -143 Q 1130 -163 1142 -186 Q 1154 -210 1164 -230 Q 1175 -251 1180 -258 Q 1187 -273 1205 -273 Q 1216 -273 1216 -264 L 1216 -76 Q 1216 -65 1214 -56 Q 1213 -47 1211 -33 Q 1207 -17 1201 -11 Q 1195 -6 1178 0 Q 1047 0 928 0 Q 810 0 688 0 Q 567 0 432 0 Q 298 0 132 0 Q 110 0 110 -25 Q 110 -38 124 -45 Q 139 -53 151 -54 Q 158 -54 176 -55 Q 194 -57 214 -57 Q 235 -57 254 -57 Q 274 -57 289 -57 Q 320 -57 320 -107 L 320 -1080 Q 320 -1104 315 -1139 Q 311 -1175 298 -1198 Q 289 -1205 289 -1205 L 106 -1224 Q 82 -1224 82 -1251 Q 82 -1259 84 -1269 Q 87 -1280 101 -1280 L 317 -1280 Q 443 -1280 565 -1280 Q 687 -1280 790 -1280 L 976 -1280 Q 997 -1280 1020 -1280 Q 1043 -1280 1064 -1280 Q 1085 -1280 1102 -1280 Q 1119 -1280 1128 -1280 Q 1138 -1279 1143 -1270 Q 1148 -1262 1150 -1250 Q 1152 -1238 1152 -1226 Q 1152 -1214 1152 -1207 L 1152 -977 Q 1152 -965 1143 -965 Q 1130 -965 1122 -985 Q 1115 -1005 1101 -1032 Q 1089 -1063 1073 -1094 Q 1057 -1126 1049 -1142 Q 1038 -1167 1014 -1180 Q 991 -1193 961 -1200 Q 932 -1208 901 -1212 Q 870 -1217 848 -1223 Q 840 -1223 809 -1223 Q 778 -1223 739 -1223 Q 700 -1223 662 -1223 Q 624 -1223 602 -1223 Q 576 -1223 570 -1206 Q 564 -1190 564 -1157 L 564 -665 Q 564 -654 572 -645 Q 580 -636 594 -636 Z"/>
		<path character="a" fill="#CAD1D8" fill-opacity="1.0" stroke="none" stroke-width="0" stroke-linecap="butt" stroke-opacity="1.0" transform="matrix(1,0,0,1,2839,0)" d="M -17 -39 Q -17 -45 -9 -56 Q -2 -67 12 -67 Q 33 -67 57 -73 Q 81 -80 104 -94 Q 127 -108 147 -130 Q 167 -152 181 -182 L 526 -1012 Q 528 -1015 532 -1025 Q 537 -1035 537 -1041 Q 537 -1056 530 -1071 Q 524 -1086 515 -1098 Q 507 -1111 500 -1121 Q 494 -1131 494 -1138 Q 494 -1152 503 -1159 Q 512 -1167 524 -1172 Q 537 -1177 551 -1178 Q 565 -1179 576 -1182 Q 587 -1187 601 -1199 Q 616 -1212 625 -1220 Q 629 -1227 631 -1237 Q 634 -1248 637 -1257 Q 641 -1266 647 -1273 Q 653 -1280 663 -1280 Q 689 -1280 694 -1257 L 1067 -125 Q 1075 -100 1084 -86 Q 1094 -73 1108 -66 Q 1123 -59 1140 -58 Q 1158 -57 1181 -57 L 1228 -57 Q 1240 -57 1246 -54 Q 1253 -54 1261 -44 Q 1270 -34 1270 -27 Q 1270 -4 1246 -3 Q 1244 0 1228 0 L 1154 0 Q 1116 0 1066 0 Q 1017 0 968 0 Q 887 0 811 0 Q 736 0 677 0 Q 671 0 664 -2 Q 657 -5 657 -13 Q 657 -20 663 -28 Q 670 -36 679 -42 Q 688 -49 699 -53 Q 710 -57 719 -57 Q 732 -57 745 -57 Q 758 -57 774 -57 Q 815 -57 841 -66 Q 864 -74 864 -97 Q 864 -99 862 -103 Q 861 -107 860 -115 Q 854 -127 842 -159 Q 831 -191 818 -228 Q 805 -265 792 -300 Q 780 -335 774 -355 Q 769 -366 763 -377 Q 757 -388 742 -388 L 377 -388 Q 344 -388 335 -357 L 283 -168 Q 280 -160 279 -153 Q 278 -147 278 -135 Q 278 -114 281 -102 Q 284 -90 291 -82 Q 298 -74 310 -71 Q 323 -68 343 -65 Q 349 -65 364 -63 Q 379 -61 396 -58 Q 413 -56 428 -54 Q 443 -52 449 -52 Q 456 -49 468 -39 Q 481 -30 481 -18 Q 481 -12 475 -6 Q 470 0 456 0 L 416 0 Q 395 0 359 0 Q 323 0 287 0 Q 252 0 202 0 Q 153 0 100 0 Q 94 0 74 -2 Q 55 -4 35 -9 Q 15 -14 -1 -22 Q -17 -30 -17 -39 M 384 -501 Q 384 -498 384 -486 L 384 -480 Q 384 -464 392 -454 Q 401 -444 416 -444 Q 495 -444 566 -438 Q 637 -432 703 -432 Q 718 -432 725 -441 Q 733 -450 733 -458 L 733 -473 Q 733 -476 732 -478 Q 729 -482 728 -491 L 588 -892 Q 577 -920 563 -920 Q 557 -920 549 -914 Q 541 -909 538 -904 L 384 -501 Z"/>
		<path character="d" fill="#CAD1D8" fill-opacity="1.0" stroke="none" stroke-width="0" stroke-linecap="butt" stroke-opacity="1.0" transform="matrix(1,0,0,1,4067,0)" d="M 88 -19 Q 88 -30 98 -37 Q 108 -44 121 -48 Q 134 -53 145 -55 Q 156 -57 160 -57 L 190 -57 Q 205 -57 222 -57 Q 240 -57 257 -59 Q 274 -61 286 -64 Q 299 -67 304 -71 Q 320 -86 320 -152 L 320 -1171 Q 320 -1215 298 -1219 Q 256 -1223 200 -1223 Q 171 -1223 147 -1224 Q 123 -1226 101 -1229 Q 88 -1230 88 -1236 Q 97 -1265 116 -1272 Q 135 -1280 156 -1280 Q 201 -1280 251 -1280 Q 302 -1280 337 -1280 Q 423 -1280 514 -1280 Q 606 -1280 722 -1280 Q 778 -1280 830 -1280 Q 883 -1280 935 -1273 Q 950 -1271 978 -1262 Q 1006 -1254 1036 -1243 Q 1067 -1232 1093 -1220 Q 1120 -1209 1132 -1202 Q 1294 -1112 1377 -970 Q 1460 -829 1460 -620 Q 1457 -563 1450 -511 Q 1444 -459 1426 -406 Q 1408 -354 1373 -301 Q 1338 -249 1277 -191 Q 1241 -161 1202 -135 Q 1163 -110 1126 -90 Q 1089 -70 1057 -56 Q 1025 -42 1002 -36 Q 939 -19 880 -9 Q 822 0 764 0 Q 707 0 648 0 Q 590 0 525 0 L 301 0 L 106 0 Q 88 -3 88 -19 M 564 -129 Q 564 -105 564 -87 Q 564 -70 575 -63 Q 585 -61 601 -59 Q 618 -57 638 -57 Q 659 -57 679 -57 Q 700 -57 717 -57 Q 777 -57 823 -67 Q 869 -77 907 -93 Q 945 -110 975 -133 Q 1006 -157 1034 -182 Q 1079 -224 1113 -273 Q 1147 -322 1169 -378 Q 1192 -434 1204 -501 Q 1216 -569 1216 -651 Q 1216 -713 1208 -766 Q 1201 -819 1184 -866 Q 1168 -913 1141 -956 Q 1114 -999 1076 -1043 Q 1033 -1089 984 -1124 Q 935 -1159 882 -1180 Q 830 -1202 776 -1212 Q 723 -1223 671 -1223 Q 639 -1223 612 -1217 Q 585 -1212 564 -1191 L 564 -129 Z"/>
		<path character="l" fill="#CAD1D8" fill-opacity="1.0" stroke="none" stroke-width="0" stroke-linecap="butt" stroke-opacity="1.0" transform="matrix(1,0,0,1,5593,0)" d="M 72 -26 Q 72 -53 98 -57 L 148 -57 Q 171 -57 190 -57 Q 210 -57 224 -61 Q 239 -65 247 -74 Q 256 -84 256 -100 L 256 -1188 Q 256 -1202 244 -1212 Q 232 -1223 218 -1223 L 125 -1223 L 101 -1223 Q 94 -1223 85 -1224 Q 76 -1226 64 -1227 Q 58 -1230 53 -1238 Q 49 -1246 49 -1254 Q 49 -1280 80 -1280 L 420 -1280 Q 424 -1280 442 -1280 Q 460 -1280 480 -1280 Q 500 -1280 515 -1280 Q 531 -1280 533 -1280 Q 552 -1280 574 -1280 Q 597 -1280 612 -1280 Q 615 -1280 625 -1280 Q 636 -1280 648 -1280 Q 660 -1280 671 -1280 Q 682 -1280 686 -1280 Q 704 -1276 704 -1260 Q 704 -1245 695 -1232 Q 687 -1223 670 -1223 L 527 -1223 Q 518 -1223 512 -1213 Q 506 -1203 503 -1188 Q 500 -1174 500 -1159 Q 500 -1145 500 -1134 Q 500 -1064 500 -994 Q 500 -925 500 -837 L 500 -95 Q 500 -85 504 -71 Q 509 -57 520 -57 L 945 -57 Q 981 -57 1013 -90 Q 1045 -123 1072 -167 Q 1099 -211 1120 -253 Q 1141 -295 1154 -315 Q 1161 -324 1170 -324 Q 1177 -324 1182 -312 Q 1187 -293 1187 -279 Q 1188 -266 1188 -239 Q 1188 -229 1185 -208 Q 1182 -188 1177 -165 Q 1173 -142 1169 -121 Q 1165 -101 1165 -89 Q 1165 -83 1165 -71 Q 1165 -59 1164 -47 Q 1164 -36 1162 -26 Q 1161 -16 1159 -12 Q 1141 0 1125 0 Q 958 0 768 0 Q 579 0 390 0 Q 356 0 320 0 Q 284 0 250 0 Q 217 0 187 0 Q 157 0 136 0 Q 107 0 89 -3 Q 72 -6 72 -26 Z"/>
		<path character="i" fill="#CAD1D8" fill-opacity="1.0" stroke="none" stroke-width="0" stroke-linecap="butt" stroke-opacity="1.0" transform="matrix(1,0,0,1,6821,0)" d="M 500 -1197 L 500 -140 Q 500 -133 501 -120 Q 503 -107 506 -92 Q 510 -78 516 -67 Q 523 -57 534 -57 L 677 -57 Q 692 -57 701 -48 Q 711 -39 711 -28 Q 711 -19 699 -9 Q 688 0 676 0 L 253 0 Q 227 0 201 0 Q 175 0 144 0 Q 126 0 109 0 Q 92 0 77 -3 Q 70 -7 70 -23 Q 70 -44 83 -48 Q 115 -52 138 -54 Q 162 -57 188 -57 Q 209 -57 217 -57 Q 226 -57 238 -59 Q 256 -67 256 -116 L 256 -1181 Q 256 -1197 241 -1210 Q 226 -1223 212 -1223 Q 182 -1223 165 -1223 Q 149 -1223 123 -1223 Q 106 -1223 89 -1225 Q 72 -1228 55 -1231 Q 46 -1234 46 -1243 Q 42 -1255 49 -1262 Q 57 -1269 70 -1273 Q 83 -1278 99 -1279 Q 115 -1280 130 -1280 L 612 -1280 Q 646 -1280 655 -1280 Q 664 -1280 667 -1278 Q 692 -1275 692 -1256 Q 692 -1234 662 -1228 Q 632 -1223 596 -1223 Q 560 -1223 530 -1219 Q 500 -1216 500 -1197 Z"/>
		<path character="n" fill="#CAD1D8" fill-opacity="1.0" stroke="none" stroke-width="0" stroke-linecap="butt" stroke-opacity="1.0" transform="matrix(1,0,0,1,7600,0)" d="M 212 0 Q 199 0 183 0 Q 168 0 154 -4 Q 141 -8 131 -15 Q 122 -23 122 -37 Q 122 -47 124 -55 Q 126 -63 138 -68 Q 180 -73 208 -75 Q 236 -78 255 -85 Q 275 -93 287 -113 Q 300 -133 309 -174 Q 309 -290 309 -412 Q 309 -534 309 -649 Q 309 -731 322 -809 Q 335 -888 335 -971 Q 335 -986 333 -993 Q 332 -1000 325 -1019 Q 322 -1026 310 -1044 Q 298 -1063 283 -1082 Q 269 -1102 255 -1120 Q 242 -1139 236 -1145 Q 223 -1162 198 -1172 Q 173 -1182 149 -1192 Q 125 -1203 107 -1215 Q 90 -1228 90 -1251 Q 90 -1264 98 -1271 Q 107 -1279 119 -1282 Q 131 -1286 143 -1287 Q 156 -1289 164 -1289 Q 167 -1289 174 -1287 Q 182 -1286 191 -1284 Q 200 -1282 208 -1281 Q 216 -1280 220 -1280 L 357 -1280 Q 364 -1277 378 -1268 Q 392 -1260 397 -1255 Q 496 -1145 590 -1039 Q 685 -934 778 -831 Q 872 -729 964 -627 Q 1057 -526 1152 -421 Q 1158 -415 1164 -409 Q 1169 -406 1174 -402 Q 1179 -399 1183 -399 Q 1195 -399 1201 -410 Q 1208 -421 1208 -424 L 1208 -743 L 1208 -855 Q 1208 -901 1208 -948 Q 1208 -996 1204 -1037 Q 1200 -1079 1193 -1112 Q 1187 -1145 1178 -1161 Q 1160 -1191 1122 -1203 Q 1084 -1215 1046 -1221 Q 1009 -1227 981 -1233 Q 953 -1240 953 -1259 Q 953 -1280 996 -1280 L 1487 -1280 Q 1512 -1280 1512 -1249 Q 1512 -1236 1483 -1227 Q 1455 -1219 1418 -1206 Q 1382 -1193 1347 -1171 Q 1313 -1150 1301 -1114 Q 1287 -1081 1281 -1043 Q 1276 -1005 1276 -938 L 1276 -17 Q 1276 -5 1267 3 Q 1258 11 1253 11 Q 1236 11 1215 -14 Q 1210 -21 1182 -52 Q 1154 -84 1109 -133 Q 1065 -182 1007 -243 Q 950 -305 887 -374 Q 825 -443 760 -514 Q 695 -586 634 -652 Q 574 -718 521 -775 Q 468 -833 432 -874 Q 419 -884 408 -884 Q 392 -884 387 -856 Q 383 -829 383 -799 Q 383 -786 383 -759 Q 383 -733 383 -698 Q 383 -663 383 -624 Q 383 -585 383 -549 Q 383 -513 383 -483 Q 383 -453 383 -435 L 383 -370 Q 383 -339 383 -299 Q 383 -260 386 -221 Q 390 -183 396 -152 Q 402 -121 414 -105 Q 427 -83 449 -73 Q 471 -63 495 -60 Q 519 -57 544 -57 Q 569 -57 588 -54 Q 608 -52 619 -45 Q 631 -38 631 -24 Q 631 -16 629 -11 Q 627 -7 614 0 L 212 0 Z"/>
		<path character="e" fill="#CAD1D8" fill-opacity="1.0" stroke="none" stroke-width="0" stroke-linecap="butt" stroke-opacity="1.0" transform="matrix(1,0,0,1,9212,0)" d="M 594 -636 L 807 -636 Q 857 -640 883 -663 Q 909 -687 922 -720 Q 935 -754 941 -794 Q 948 -834 963 -873 Q 966 -889 975 -889 Q 992 -889 992 -879 L 992 -826 Q 992 -774 992 -712 Q 992 -651 992 -608 Q 992 -566 992 -518 Q 992 -471 992 -421 Q 992 -415 991 -400 Q 990 -386 987 -370 Q 984 -354 980 -342 Q 976 -330 969 -330 Q 955 -330 952 -344 Q 950 -358 947 -370 Q 944 -386 938 -408 Q 932 -430 924 -452 Q 917 -475 911 -492 Q 905 -510 902 -516 Q 891 -540 859 -553 Q 828 -567 788 -573 Q 748 -580 705 -580 Q 663 -580 631 -580 L 594 -580 Q 575 -580 569 -572 Q 564 -564 564 -546 L 564 -105 Q 564 -67 588 -57 L 965 -57 Q 990 -57 1017 -57 Q 1044 -57 1052 -62 Q 1070 -67 1083 -84 Q 1097 -101 1105 -117 Q 1109 -123 1119 -143 Q 1130 -163 1142 -186 Q 1154 -210 1164 -230 Q 1175 -251 1180 -258 Q 1187 -273 1205 -273 Q 1216 -273 1216 -264 L 1216 -76 Q 1216 -65 1214 -56 Q 1213 -47 1211 -33 Q 1207 -17 1201 -11 Q 1195 -6 1178 0 Q 1047 0 928 0 Q 810 0 688 0 Q 567 0 432 0 Q 298 0 132 0 Q 110 0 110 -25 Q 110 -38 124 -45 Q 139 -53 151 -54 Q 158 -54 176 -55 Q 194 -57 214 -57 Q 235 -57 254 -57 Q 274 -57 289 -57 Q 320 -57 320 -107 L 320 -1080 Q 320 -1104 315 -1139 Q 311 -1175 298 -1198 Q 289 -1205 289 -1205 L 106 -1224 Q 82 -1224 82 -1251 Q 82 -1259 84 -1269 Q 87 -1280 101 -1280 L 317 -1280 Q 443 -1280 565 -1280 Q 687 -1280 790 -1280 L 976 -1280 Q 997 -1280 1020 -1280 Q 1043 -1280 1064 -1280 Q 1085 -1280 1102 -1280 Q 1119 -1280 1128 -1280 Q 1138 -1279 1143 -1270 Q 1148 -1262 1150 -1250 Q 1152 -1238 1152 -1226 Q 1152 -1214 1152 -1207 L 1152 -977 Q 1152 -965 1143 -965 Q 1130 -965 1122 -985 Q 1115 -1005 1101 -1032 Q 1089 -1063 1073 -1094 Q 1057 -1126 1049 -1142 Q 1038 -1167 1014 -1180 Q 991 -1193 961 -1200 Q 932 -1208 901 -1212 Q 870 -1217 848 -1223 Q 840 -1223 809 -1223 Q 778 -1223 739 -1223 Q 700 -1223 662 -1223 Q 624 -1223 602 -1223 Q 576 -1223 570 -1206 Q 564 -1190 564 -1157 L 564 -665 Q 564 -654 572 -645 Q 580 -636 594 -636 Z"/>
</g>
</svg>