<svg xmlns="http://www.w3.org/2000/svg" xmlns:xlink="http://www.w3.org/1999/xlink" viewBox="0 0 10083 2868">
<title>headline</title>
<g transform="matrix(1,0,0,1,0,2176)">
  		<path character="h" fill="#CAD1D8" fill-opacity="1.0" stroke="none" stroke-width="0" stroke-linecap="butt" stroke-opacity="1.0" transform="matrix(1,0,0,1,0,0)" d="M 919 -1216 Q 1011 -1216 1079 -1191 Q 1148 -1167 1192 -1124 Q 1236 -1081 1263 -1014 Q 1291 -948 1302 -872 Q 1313 -796 1313 -699 L 1313 -207 L 1444 -207 L 1444 0 L 814 0 L 814 -207 L 945 -207 L 945 -725 Q 945 -827 926 -884 Q 908 -941 872 -962 Q 837 -984 777 -984 Q 721 -984 662 -937 Q 604 -890 551 -805 L 551 -207 L 683 -207 L 683 0 L 53 0 L 53 -207 L 184 -207 L 184 -1393 L 53 -1393 L 53 -1600 L 551 -1600 L 551 -1014 Q 575 -1057 607 -1092 Q 639 -1127 683 -1155 Q 727 -1184 787 -1200 Q 847 -1216 919 -1216 Z"/>
		<path character="e" fill="#CAD1D8" fill-opacity="1.0" stroke="none" stroke-width="0" stroke-linecap="butt" stroke-opacity="1.0" transform="matrix(1,0,0,1,1486,0)" d="M 458 -561 Q 464 -482 483 -420 Q 502 -358 529 -318 Q 557 -279 593 -253 Q 629 -228 667 -217 Q 705 -207 748 -207 Q 887 -207 964 -262 Q 1042 -317 1089 -432 L 1263 -370 Q 1240 -307 1203 -252 Q 1167 -197 1115 -150 Q 1064 -104 1001 -70 Q 939 -37 860 -18 Q 782 0 694 0 Q 565 0 450 -43 Q 335 -87 250 -164 Q 165 -242 115 -356 Q 66 -470 66 -604 Q 66 -738 115 -853 Q 165 -969 250 -1048 Q 335 -1127 450 -1171 Q 565 -1216 694 -1216 Q 824 -1216 939 -1173 Q 1054 -1131 1139 -1055 Q 1224 -979 1273 -869 Q 1323 -759 1323 -631 L 1307 -561 L 458 -561 M 463 -768 L 926 -768 Q 909 -894 850 -951 Q 792 -1009 696 -1009 Q 648 -1009 610 -996 Q 572 -983 541 -955 Q 511 -927 491 -880 Q 471 -833 463 -768 Z"/>
		<path character="a" fill="#CAD1D8" fill-opacity="1.0" stroke="none" stroke-width="0" stroke-linecap="butt" stroke-opacity="1.0" transform="matrix(1,0,0,1,2908,0)" d="M 1181 -779 L 1181 -207 L 1313 -207 L 1313 0 L 904 0 L 845 -157 Q 778 -67 690 -33 Q 602 0 444 0 Q 362 0 291 -29 Q 221 -58 171 -108 Q 121 -159 93 -230 Q 66 -301 66 -381 Q 66 -520 172 -612 Q 278 -704 444 -704 Q 577 -704 664 -675 Q 751 -646 814 -583 L 814 -832 Q 814 -885 798 -920 Q 782 -956 749 -975 Q 717 -994 677 -1001 Q 637 -1009 581 -1009 Q 537 -1009 501 -992 Q 521 -957 521 -919 Q 521 -847 459 -797 Q 398 -747 311 -747 Q 224 -747 162 -802 Q 101 -857 101 -935 Q 101 -974 118 -1009 Q 136 -1045 167 -1071 Q 193 -1096 221 -1115 Q 249 -1135 292 -1154 Q 335 -1174 385 -1187 Q 436 -1200 507 -1208 Q 578 -1216 662 -1216 Q 770 -1216 866 -1184 Q 962 -1153 1031 -1096 Q 1101 -1040 1141 -958 Q 1181 -876 1181 -779 M 814 -296 L 814 -396 Q 773 -439 722 -468 Q 671 -497 628 -497 Q 535 -497 497 -466 Q 459 -436 459 -367 Q 459 -285 491 -246 Q 524 -207 614 -207 Q 664 -207 719 -233 Q 774 -259 814 -296 Z"/>
		<path character="d" fill="#CAD1D8" fill-opacity="1.0" stroke="none" stroke-width="0" stroke-linecap="butt" stroke-opacity="1.0" transform="matrix(1,0,0,1,4330,0)" d="M 537 0 Q 384 0 277 -76 Q 170 -152 118 -287 Q 66 -423 66 -611 Q 66 -748 103 -861 Q 140 -975 206 -1053 Q 273 -1131 367 -1173 Q 461 -1216 574 -1216 Q 630 -1216 680 -1207 Q 730 -1199 765 -1186 Q 800 -1173 831 -1154 Q 863 -1135 882 -1118 Q 902 -1101 920 -1080 L 920 -1393 L 789 -1393 L 789 -1600 L 1288 -1600 L 1288 -207 L 1419 -207 L 1419 0 L 1029 0 L 950 -150 Q 924 -121 892 -97 Q 762 0 537 0 M 920 -860 Q 845 -1009 717 -1009 Q 587 -1009 523 -904 Q 460 -800 460 -608 Q 460 -517 480 -440 Q 501 -364 535 -313 Q 570 -263 615 -235 Q 660 -207 708 -207 Q 774 -207 824 -244 Q 875 -281 920 -353 L 920 -860 Z"/>
		<path character="l" fill="#CAD1D8" fill-opacity="1.0" stroke="none" stroke-width="0" stroke-linecap="butt" stroke-opacity="1.0" transform="matrix(1,0,0,1,5816,0)" d="M 53 -1600 L 551 -1600 L 551 -207 L 683 -207 L 683 0 L 53 0 L 53 -207 L 184 -207 L 184 -1393 L 53 -1393 L 53 -1600 Z"/>
		<path character="i" fill="#CAD1D8" fill-opacity="1.0" stroke="none" stroke-width="0" stroke-linecap="butt" stroke-opacity="1.0" transform="matrix(1,0,0,1,6534,0)" d="M 219 -1336 Q 158 -1392 158 -1472 Q 158 -1552 219 -1608 Q 280 -1664 367 -1664 Q 455 -1664 516 -1608 Q 578 -1552 578 -1472 Q 578 -1392 516 -1336 Q 455 -1280 367 -1280 Q 280 -1280 219 -1336 M 53 -1216 L 551 -1216 L 551 -207 L 683 -207 L 683 0 L 53 0 L 53 -207 L 184 -207 L 184 -1009 L 53 -1009 L 53 -1216 Z"/>
		<path character="n" fill="#CAD1D8" fill-opacity="1.0" stroke="none" stroke-width="0" stroke-linecap="butt" stroke-opacity="1.0" transform="matrix(1,0,0,1,7252,0)" d="M 919 -1216 Q 1011 -1216 1079 -1191 Q 1148 -1167 1192 -1124 Q 1236 -1081 1263 -1014 Q 1291 -948 1302 -872 Q 1313 -796 1313 -699 L 1313 -207 L 1444 -207 L 1444 0 L 814 0 L 814 -207 L 945 -207 L 945 -742 Q 945 -847 926 -906 Q 908 -965 872 -987 Q 837 -1009 777 -1009 Q 722 -1009 664 -961 Q 606 -914 555 -829 L 551 -207 L 683 -207 L 683 0 L 53 0 L 53 -207 L 184 -207 L 184 -1009 L 53 -1009 L 53 -1216 L 460 -1216 L 552 -1041 Q 576 -1079 608 -1109 Q 640 -1139 684 -1164 Q 728 -1189 788 -1202 Q 848 -1216 919 -1216 Z"/>
		<path character="e" fill="#CAD1D8" fill-opacity="1.0" stroke="none" stroke-width="0" stroke-linecap="butt" stroke-opacity="1.0" transform="matrix(1,0,0,1,8739,0)" d="M 458 -561 Q 464 -482 483 -420 Q 502 -358 529 -318 Q 557 -279 593 -253 Q 629 -228 667 -217 Q 705 -207 748 -207 Q 887 -207 964 -262 Q 1042 -317 1089 -432 L 1263 -370 Q 1240 -307 1203 -252 Q 1167 -197 1115 -150 Q 1064 -104 1001 -70 Q 939 -37 860 -18 Q 782 0 694 0 Q 565 0 450 -43 Q 335 -87 250 -164 Q 165 -242 115 -356 Q 66 -470 66 -604 Q 66 -738 115 -853 Q 165 -969 250 -1048 Q 335 -1127 450 -1171 Q 565 -1216 694 -1216 Q 824 -1216 939 -1173 Q 1054 -1131 1139 -1055 Q 1224 -979 1273 -869 Q 1323 -759 1323 -631 L 1307 -561 L 458 -561 M 463 -768 L 926 -768 Q 909 -894 850 -951 Q 792 -1009 696 -1009 Q 648 -1009 610 -996 Q 572 -983 541 -955 Q 511 -927 491 -880 Q 471 -833 463 -768 Z"/>
</g>
</svg>