<svg xmlns="http://www.w3.org/2000/svg" xmlns:xlink="http://www.w3.org/1999/xlink" viewBox="0 0 8346 3815">
<title>headline</title>
<g transform="matrix(1,0,0,1,0,2816)">
  		<path character="h" fill="none" fill-opacity="1.0" stroke="#A5834B" stroke-width="20" stroke-linecap="butt" stroke-opacity="1.0" transform="matrix(1,0,0,1,-128,0)" d="M 161 -1984 L 382 -1984 L 382 -1231 L 398 -1231 Q 500 -1408 715 -1408 Q 884 -1408 974 -1310 Q 1064 -1212 1064 -992 L 1064 0 L 844 0 L 844 -975 Q 844 -1109 793 -1162 Q 742 -1216 645 -1216 Q 535 -1216 458 -1114 Q 382 -1012 382 -839 L 382 0 L 161 0 L 161 -1984 Z"/>
		<path character="e" fill="none" fill-opacity="1.0" stroke="#A5834B" stroke-width="20" stroke-linecap="butt" stroke-opacity="1.0" transform="matrix(1,0,0,1,1101,0)" d="M 648 0 Q 379 0 246 -167 Q 113 -335 113 -704 Q 113 -1065 244 -1236 Q 376 -1408 645 -1408 Q 882 -1408 996 -1270 Q 1110 -1133 1110 -826 L 1110 -704 L 344 -704 Q 347 -439 421 -315 Q 495 -192 653 -192 Q 761 -192 826 -284 Q 892 -376 892 -531 L 1110 -531 Q 1110 -286 982 -143 Q 855 0 648 0 M 879 -896 Q 879 -1053 820 -1134 Q 761 -1216 645 -1216 Q 503 -1216 431 -1137 Q 360 -1059 347 -896 L 879 -896 Z"/>
		<path character="a" fill="none" fill-opacity="1.0" stroke="#A5834B" stroke-width="20" stroke-linecap="butt" stroke-opacity="1.0" transform="matrix(1,0,0,1,2330,0)" d="M 462 0 Q 317 0 204 -88 Q 91 -177 91 -409 Q 91 -689 275 -792 Q 460 -896 806 -896 L 806 -1038 Q 806 -1124 758 -1170 Q 710 -1216 583 -1216 Q 468 -1216 417 -1165 Q 366 -1115 366 -1042 L 366 -1017 L 148 -1017 Q 145 -1031 145 -1068 Q 145 -1231 268 -1319 Q 392 -1408 599 -1408 Q 812 -1408 919 -1311 Q 1027 -1214 1027 -1033 L 1027 -281 Q 1027 -238 1048 -215 Q 1070 -192 1102 -192 L 1188 -192 L 1188 -33 Q 1129 0 1043 0 Q 957 0 899 -48 Q 841 -96 820 -179 L 806 -179 Q 753 -93 663 -46 Q 573 0 462 0 M 513 -192 Q 586 -192 653 -235 Q 720 -278 763 -363 Q 806 -448 806 -566 L 806 -704 Q 564 -704 443 -645 Q 323 -586 323 -422 Q 323 -298 370 -245 Q 417 -192 513 -192 Z"/>
		<path character="d" fill="none" fill-opacity="1.0" stroke="#A5834B" stroke-width="20" stroke-linecap="butt" stroke-opacity="1.0" transform="matrix(1,0,0,1,3558,0)" d="M 546 0 Q 336 0 222 -174 Q 108 -348 108 -707 Q 108 -1055 224 -1231 Q 341 -1408 530 -1408 Q 634 -1408 715 -1364 Q 796 -1321 831 -1244 L 844 -1244 L 844 -1984 L 1064 -1984 L 1064 0 L 898 0 L 868 -192 L 855 -192 Q 804 -97 723 -48 Q 642 0 546 0 M 591 -192 Q 844 -192 844 -656 L 844 -742 Q 844 -1216 591 -1216 Q 462 -1216 400 -1107 Q 339 -998 339 -752 L 339 -656 Q 339 -410 400 -301 Q 462 -192 591 -192 Z"/>
		<path character="l" fill="none" fill-opacity="1.0" stroke="#A5834B" stroke-width="20" stroke-linecap="butt" stroke-opacity="1.0" transform="matrix(1,0,0,1,4787,0)" d="M 134 -1984 L 355 -1984 L 355 0 L 134 0 L 134 -1984 Z"/>
		<path character="i" fill="none" fill-opacity="1.0" stroke="#A5834B" stroke-width="20" stroke-linecap="butt" stroke-opacity="1.0" transform="matrix(1,0,0,1,5312,0)" d="M 196 -1408 L 417 -1408 L 417 0 L 196 0 L 196 -1408 M 191 -1984 L 419 -1984 L 419 -1728 L 191 -1728 L 191 -1984 Z"/>
		<path character="n" fill="none" fill-opacity="1.0" stroke="#A5834B" stroke-width="20" stroke-linecap="butt" stroke-opacity="1.0" transform="matrix(1,0,0,1,5965,0)" d="M 161 -1408 L 328 -1408 L 358 -1216 L 374 -1216 Q 484 -1408 715 -1408 Q 884 -1408 974 -1310 Q 1064 -1212 1064 -992 L 1064 0 L 844 0 L 844 -975 Q 844 -1109 793 -1162 Q 742 -1216 645 -1216 Q 535 -1216 458 -1114 Q 382 -1012 382 -839 L 382 0 L 161 0 L 161 -1408 Z"/>
		<path character="e" fill="none" fill-opacity="1.0" stroke="#A5834B" stroke-width="20" stroke-linecap="butt" stroke-opacity="1.0" transform="matrix(1,0,0,1,7194,0)" d="M 648 0 Q 379 0 246 -167 Q 113 -335 113 -704 Q 113 -1065 244 -1236 Q 376 -1408 645 -1408 Q 882 -1408 996 -1270 Q 1110 -1133 1110 -826 L 1110 -704 L 344 -704 Q 347 -439 421 -315 Q 495 -192 653 -192 Q 761 -192 826 -284 Q 892 -376 892 -531 L 1110 -531 Q 1110 -286 982 -143 Q 855 0 648 0 M 879 -896 Q 879 -1053 820 -1134 Q 761 -1216 645 -1216 Q 503 -1216 431 -1137 Q 360 -1059 347 -896 L 879 -896 Z"/>
</g>
</svg>