<svg xmlns="http://www.w3.org/2000/svg" xmlns:xlink="http://www.w3.org/1999/xlink" viewBox="0 0 10330 3789">
<title>headline</title>
<g transform="matrix(1,0,0,1,0,2944)">
  		<path character="h" fill="#CAD1D8" fill-opacity="1.0" stroke="none" stroke-width="0" stroke-linecap="butt" stroke-opacity="1.0" transform="matrix(1,0,0,1,0,0)" d="M 500 -2086 L 500 -1103 Q 570 -1276 695 -1342 Q 820 -1408 957 -1408 Q 1059 -1408 1127 -1381 Q 1196 -1355 1242 -1307 Q 1293 -1253 1314 -1173 Q 1336 -1093 1336 -958 L 1336 -246 Q 1336 -134 1383 -94 Q 1430 -54 1540 -54 L 1540 0 Q 1495 0 1400 0 Q 1306 0 1218 0 Q 1129 0 1044 0 Q 960 0 917 0 L 917 -54 Q 1013 -54 1053 -95 Q 1094 -136 1094 -251 L 1094 -1040 Q 1094 -1125 1080 -1196 Q 1067 -1267 1020 -1310 Q 973 -1354 876 -1354 Q 712 -1354 606 -1216 Q 500 -1078 500 -860 L 500 -251 Q 500 -136 540 -95 Q 581 -54 677 -54 L 677 0 Q 634 0 549 0 Q 465 0 376 0 Q 288 0 193 0 Q 99 0 54 0 L 54 -54 Q 164 -54 211 -94 Q 258 -134 258 -245 L 258 -1760 Q 258 -1880 215 -1937 Q 172 -1994 54 -1994 L 54 -2056 Q 140 -2048 220 -2048 Q 298 -2048 369 -2057 Q 441 -2067 500 -2086 Z"/>
		<path character="e" fill="#CAD1D8" fill-opacity="1.0" stroke="none" stroke-width="0" stroke-linecap="butt" stroke-opacity="1.0" transform="matrix(1,0,0,1,1613,0)" d="M 731 -1408 Q 968 -1408 1101 -1269 Q 1234 -1130 1234 -837 L 285 -837 L 282 -891 L 976 -891 Q 981 -1016 954 -1121 Q 927 -1227 869 -1290 Q 812 -1354 720 -1354 Q 597 -1354 501 -1233 Q 406 -1112 387 -849 L 395 -838 Q 390 -799 387 -751 Q 384 -704 384 -657 Q 384 -478 443 -349 Q 503 -220 598 -153 Q 694 -86 796 -86 Q 917 -86 1019 -144 Q 1121 -203 1191 -352 L 1245 -331 Q 1215 -242 1148 -158 Q 1081 -74 978 -21 Q 876 32 742 32 Q 548 32 409 -55 Q 271 -143 197 -298 Q 124 -453 124 -655 Q 124 -888 199 -1056 Q 274 -1225 411 -1316 Q 548 -1408 731 -1408 Z"/>
		<path character="a" fill="#CAD1D8" fill-opacity="1.0" stroke="none" stroke-width="0" stroke-linecap="butt" stroke-opacity="1.0" transform="matrix(1,0,0,1,2970,0)" d="M 438 0 Q 263 0 184 -85 Q 105 -171 105 -312 Q 105 -422 160 -494 Q 215 -567 301 -613 Q 387 -659 482 -691 Q 578 -724 664 -755 Q 750 -787 805 -826 Q 860 -866 860 -926 L 860 -1089 Q 860 -1199 826 -1257 Q 793 -1315 736 -1334 Q 680 -1354 610 -1354 Q 543 -1354 466 -1335 Q 390 -1317 344 -1258 Q 395 -1248 432 -1206 Q 470 -1165 470 -1101 Q 470 -1037 427 -999 Q 384 -962 317 -962 Q 239 -962 203 -1010 Q 167 -1059 167 -1118 Q 167 -1186 202 -1228 Q 237 -1270 290 -1306 Q 352 -1348 450 -1378 Q 548 -1408 672 -1408 Q 782 -1408 860 -1382 Q 938 -1357 989 -1308 Q 1059 -1244 1080 -1151 Q 1102 -1058 1102 -929 L 1102 -181 Q 1102 -116 1121 -85 Q 1140 -54 1185 -54 Q 1223 -54 1251 -82 Q 1279 -111 1306 -153 L 1336 -91 Q 1279 -52 1228 -26 Q 1177 0 1091 0 Q 952 0 906 -73 Q 860 -147 860 -243 Q 774 -98 665 -49 Q 556 0 438 0 M 556 -118 Q 637 -118 715 -163 Q 793 -208 860 -314 L 860 -818 Q 820 -761 735 -727 Q 650 -694 560 -654 Q 470 -615 405 -546 Q 341 -478 341 -352 Q 341 -234 403 -176 Q 465 -118 556 -118 Z"/>
		<path character="d" fill="#CAD1D8" fill-opacity="1.0" stroke="none" stroke-width="0" stroke-linecap="butt" stroke-opacity="1.0" transform="matrix(1,0,0,1,4326,0)" d="M 1301 -2085 L 1301 -288 Q 1301 -168 1345 -111 Q 1390 -54 1505 -54 L 1505 6 Q 1422 0 1339 0 Q 1261 0 1189 6 Q 1118 12 1059 27 L 1059 -1761 Q 1059 -1880 1016 -1937 Q 973 -1994 855 -1994 L 855 -2056 Q 941 -2048 1021 -2048 Q 1099 -2048 1170 -2057 Q 1242 -2066 1301 -2085 M 737 -1408 Q 855 -1408 958 -1352 Q 1062 -1296 1097 -1159 L 1062 -1132 Q 1024 -1249 945 -1301 Q 866 -1354 758 -1354 Q 599 -1354 493 -1188 Q 387 -1022 390 -677 Q 390 -457 431 -311 Q 473 -166 555 -94 Q 637 -22 755 -22 Q 868 -22 959 -122 Q 1051 -223 1070 -419 L 1102 -382 Q 1081 -183 972 -75 Q 863 32 677 32 Q 511 32 386 -47 Q 261 -127 195 -286 Q 129 -445 129 -687 Q 129 -928 213 -1088 Q 298 -1249 436 -1328 Q 575 -1408 737 -1408 Z"/>
		<path character="l" fill="#CAD1D8" fill-opacity="1.0" stroke="none" stroke-width="0" stroke-linecap="butt" stroke-opacity="1.0" transform="matrix(1,0,0,1,5875,0)" d="M 505 -2085 L 505 -246 Q 505 -134 552 -94 Q 599 -54 710 -54 L 710 0 Q 664 0 571 0 Q 478 0 384 0 Q 293 0 199 0 Q 105 0 59 0 L 59 -54 Q 169 -54 216 -94 Q 263 -134 263 -245 L 263 -1760 Q 263 -1880 220 -1937 Q 177 -1994 59 -1994 L 59 -2056 Q 145 -2048 226 -2048 Q 304 -2048 375 -2057 Q 446 -2066 505 -2085 Z"/>
		<path character="i" fill="#CAD1D8" fill-opacity="1.0" stroke="none" stroke-width="0" stroke-linecap="butt" stroke-opacity="1.0" transform="matrix(1,0,0,1,6656,0)" d="M 384 -2048 Q 454 -2048 505 -2000 Q 556 -1953 556 -1888 Q 556 -1823 505 -1775 Q 454 -1728 384 -1728 Q 314 -1728 263 -1775 Q 212 -1823 212 -1888 Q 212 -1953 263 -2000 Q 314 -2048 384 -2048 M 524 -1446 L 524 -252 Q 524 -137 571 -95 Q 618 -54 728 -54 L 728 0 Q 683 0 590 0 Q 497 0 403 0 Q 312 0 218 0 Q 124 0 78 0 L 78 -54 Q 188 -54 235 -95 Q 282 -136 282 -252 L 282 -1112 Q 282 -1236 239 -1295 Q 196 -1354 78 -1354 L 78 -1416 Q 164 -1408 245 -1408 Q 323 -1408 394 -1417 Q 465 -1427 524 -1446 Z"/>
		<path character="n" fill="#CAD1D8" fill-opacity="1.0" stroke="none" stroke-width="0" stroke-linecap="butt" stroke-opacity="1.0" transform="matrix(1,0,0,1,7437,0)" d="M 981 -1408 Q 1083 -1408 1151 -1381 Q 1220 -1355 1266 -1307 Q 1317 -1253 1338 -1173 Q 1360 -1093 1360 -958 L 1360 -246 Q 1360 -134 1407 -94 Q 1454 -54 1564 -54 L 1564 0 Q 1519 0 1425 0 Q 1331 0 1242 0 Q 1153 0 1068 0 Q 984 0 941 0 L 941 -54 Q 1038 -54 1078 -95 Q 1118 -136 1118 -251 L 1118 -1040 Q 1118 -1125 1104 -1196 Q 1091 -1267 1044 -1310 Q 997 -1354 900 -1354 Q 731 -1354 627 -1210 Q 524 -1067 524 -857 L 524 -251 Q 524 -136 564 -95 Q 605 -54 702 -54 L 702 0 Q 659 0 574 0 Q 489 0 401 0 Q 312 0 218 0 Q 124 0 78 0 L 78 -54 Q 188 -54 235 -95 Q 282 -136 282 -252 L 282 -1112 Q 282 -1236 239 -1295 Q 196 -1354 78 -1354 L 78 -1408 Q 164 -1408 245 -1408 Q 323 -1408 394 -1408 Q 465 -1408 524 -1408 L 524 -1101 Q 594 -1274 719 -1341 Q 844 -1408 981 -1408 Z"/>
		<path character="e" fill="#CAD1D8" fill-opacity="1.0" stroke="none" stroke-width="0" stroke-linecap="butt" stroke-opacity="1.0" transform="matrix(1,0,0,1,9050,0)" d="M 731 -1408 Q 968 -1408 1101 -1269 Q 1234 -1130 1234 -837 L 285 -837 L 282 -891 L 976 -891 Q 981 -1016 954 -1121 Q 927 -1227 869 -1290 Q 812 -1354 720 -1354 Q 597 -1354 501 -1233 Q 406 -1112 387 -849 L 395 -838 Q 390 -799 387 -751 Q 384 -704 384 -657 Q 384 -478 443 -349 Q 503 -220 598 -153 Q 694 -86 796 -86 Q 917 -86 1019 -144 Q 1121 -203 1191 -352 L 1245 -331 Q 1215 -242 1148 -158 Q 1081 -74 978 -21 Q 876 32 742 32 Q 548 32 409 -55 Q 271 -143 197 -298 Q 124 -453 124 -655 Q 124 -888 199 -1056 Q 274 -1225 411 -1316 Q 548 -1408 731 -1408 Z"/>
</g>
</svg>