<svg xmlns="http://www.w3.org/2000/svg" xmlns:xlink="http://www.w3.org/1999/xlink" viewBox="0 0 8922 3341">
<title>headline</title>
<g transform="matrix(1,0,0,1,0,2496)">
  		<path character="h" fill="#CAD1D8" fill-opacity="1.0" stroke="none" stroke-width="0" stroke-linecap="butt" stroke-opacity="1.0" transform="matrix(1,0,0,1,-128,0)" d="M 406 -1297 Q 538 -1472 744 -1472 Q 1121 -1472 1126 -960 L 1126 0 L 895 0 L 895 -953 Q 895 -1123 839 -1194 Q 784 -1266 672 -1266 Q 585 -1266 516 -1207 Q 448 -1148 406 -1053 L 406 0 L 173 0 L 173 -2048 L 406 -2048 L 406 -1297 Z"/>
		<path character="e" fill="#CAD1D8" fill-opacity="1.0" stroke="none" stroke-width="0" stroke-linecap="butt" stroke-opacity="1.0" transform="matrix(1,0,0,1,1165,0)" d="M 681 0 Q 416 0 274 -158 Q 133 -316 130 -622 L 130 -794 Q 130 -1111 268 -1291 Q 407 -1472 655 -1472 Q 904 -1472 1027 -1319 Q 1151 -1166 1154 -843 L 1154 -696 L 361 -696 L 361 -661 Q 361 -418 447 -308 Q 533 -198 694 -198 Q 797 -198 875 -236 Q 953 -275 1021 -359 L 1142 -212 Q 991 0 681 0 M 655 -1272 Q 511 -1272 441 -1180 Q 371 -1089 362 -896 L 921 -896 L 921 -925 Q 912 -1112 848 -1192 Q 785 -1272 655 -1272 Z"/>
		<path character="a" fill="#CAD1D8" fill-opacity="1.0" stroke="none" stroke-width="0" stroke-linecap="butt" stroke-opacity="1.0" transform="matrix(1,0,0,1,2458,0)" d="M 904 0 Q 883 -54 874 -181 Q 751 0 559 0 Q 366 0 258 -109 Q 150 -219 150 -418 Q 150 -636 297 -764 Q 444 -893 700 -896 L 870 -896 L 870 -1043 Q 870 -1167 813 -1219 Q 757 -1272 642 -1272 Q 537 -1272 471 -1212 Q 406 -1152 406 -1059 L 173 -1059 Q 173 -1166 237 -1263 Q 302 -1361 411 -1416 Q 520 -1472 654 -1472 Q 872 -1472 985 -1362 Q 1099 -1252 1101 -1041 L 1101 -311 Q 1103 -144 1146 -21 L 1146 0 L 904 0 M 595 -211 Q 680 -211 757 -259 Q 835 -307 870 -379 L 870 -724 L 739 -724 Q 574 -721 478 -648 Q 382 -576 382 -445 Q 382 -322 430 -266 Q 479 -211 595 -211 Z"/>
		<path character="d" fill="#CAD1D8" fill-opacity="1.0" stroke="none" stroke-width="0" stroke-linecap="butt" stroke-opacity="1.0" transform="matrix(1,0,0,1,3750,0)" d="M 125 -800 Q 125 -1128 247 -1300 Q 370 -1472 600 -1472 Q 803 -1472 917 -1307 L 917 -2048 L 1150 -2048 L 1150 0 L 937 0 L 925 -178 Q 811 0 599 0 Q 378 0 252 -171 Q 127 -342 125 -655 L 125 -800 M 357 -668 Q 357 -429 428 -317 Q 499 -205 659 -205 Q 832 -205 917 -379 L 917 -1096 Q 828 -1266 660 -1266 Q 500 -1266 429 -1154 Q 358 -1042 357 -810 L 357 -668 Z"/>
		<path character="l" fill="#CAD1D8" fill-opacity="1.0" stroke="none" stroke-width="0" stroke-linecap="butt" stroke-opacity="1.0" transform="matrix(1,0,0,1,5107,0)" d="M 424 0 L 192 0 L 192 -2048 L 424 -2048 L 424 0 Z"/>
		<path character="i" fill="#CAD1D8" fill-opacity="1.0" stroke="none" stroke-width="0" stroke-linecap="butt" stroke-opacity="1.0" transform="matrix(1,0,0,1,5760,0)" d="M 424 0 L 192 0 L 192 -1472 L 424 -1472 L 424 0 M 442 -1866 Q 442 -1807 409 -1767 Q 377 -1728 310 -1728 Q 244 -1728 211 -1767 Q 179 -1807 179 -1866 Q 179 -1925 211 -1965 Q 244 -2006 309 -2006 Q 375 -2006 408 -1964 Q 442 -1923 442 -1866 Z"/>
		<path character="n" fill="#CAD1D8" fill-opacity="1.0" stroke="none" stroke-width="0" stroke-linecap="butt" stroke-opacity="1.0" transform="matrix(1,0,0,1,6413,0)" d="M 392 -1472 L 399 -1289 Q 534 -1472 744 -1472 Q 1121 -1472 1126 -960 L 1126 0 L 895 0 L 895 -953 Q 895 -1123 839 -1194 Q 784 -1266 672 -1266 Q 585 -1266 516 -1207 Q 448 -1148 406 -1053 L 406 0 L 173 0 L 173 -1472 L 392 -1472 Z"/>
		<path character="e" fill="#CAD1D8" fill-opacity="1.0" stroke="none" stroke-width="0" stroke-linecap="butt" stroke-opacity="1.0" transform="matrix(1,0,0,1,7706,0)" d="M 681 0 Q 416 0 274 -158 Q 133 -316 130 -622 L 130 -794 Q 130 -1111 268 -1291 Q 407 -1472 655 -1472 Q 904 -1472 1027 -1319 Q 1151 -1166 1154 -843 L 1154 -696 L 361 -696 L 361 -661 Q 361 -418 447 -308 Q 533 -198 694 -198 Q 797 -198 875 -236 Q 953 -275 1021 -359 L 1142 -212 Q 991 0 681 0 M 655 -1272 Q 511 -1272 441 -1180 Q 371 -1089 362 -896 L 921 -896 L 921 -925 Q 912 -1112 848 -1192 Q 785 -1272 655 -1272 Z"/>
</g>
</svg>