<svg xmlns="http://www.w3.org/2000/svg" xmlns:xlink="http://www.w3.org/1999/xlink" viewBox="0 0 14361 3572">
<title>headline</title>
<g transform="matrix(1,0,0,1,0,2496)">
  		<path character="h" fill="#CAD1D8" fill-opacity="1.0" stroke="none" stroke-width="0" stroke-linecap="butt" stroke-opacity="1.0" transform="matrix(1,0,0,1,128,0)" d="M 545 -849 Q 545 -802 580 -802 Q 623 -802 692 -860 L 806 -958 Q 987 -1114 1151 -1114 Q 1257 -1114 1340 -937 Q 1412 -785 1470 -483 Q 1481 -433 1488 -433 Q 1495 -433 1526 -456 Q 1557 -480 1601 -517 Q 1923 -791 1973 -823 Q 2024 -856 2043 -867 Q 2063 -878 2084 -887 Q 2137 -907 2167 -907 Q 2225 -907 2225 -847 Q 2225 -755 2104 -579 Q 1969 -382 1746 -186 Q 1486 43 1292 43 Q 1087 43 1016 -232 Q 998 -303 987 -365 L 967 -467 Q 959 -508 947 -508 Q 935 -508 895 -469 L 798 -370 Q 635 -205 525 -129 Q 303 26 137 26 Q -63 26 -98 -176 Q -109 -236 -109 -328 Q -109 -421 -82 -555 Q -56 -689 -11 -823 Q 89 -1109 238 -1311 L 354 -1466 Q 778 -2020 1063 -2020 Q 1127 -2020 1156 -1957 Q 1166 -1937 1166 -1898 Q 1166 -1859 1131 -1796 Q 1097 -1734 1047 -1667 Q 998 -1600 940 -1531 Q 883 -1462 836 -1395 L 738 -1252 Q 545 -962 545 -849 Z"/>
		<path character="e" fill="#CAD1D8" fill-opacity="1.0" stroke="none" stroke-width="0" stroke-linecap="butt" stroke-opacity="1.0" transform="matrix(1,0,0,1,2134,0)" d="M 1815 -965 Q 1878 -965 1878 -894 Q 1878 -847 1846 -775 Q 1814 -704 1753 -641 Q 1693 -579 1615 -512 Q 1537 -445 1432 -371 Q 1328 -298 1202 -226 Q 1076 -154 935 -96 Q 621 33 327 33 Q 102 33 -66 -84 Q -242 -206 -242 -381 Q -242 -655 54 -902 Q 308 -1114 654 -1231 Q 864 -1302 1009 -1302 Q 1127 -1302 1209 -1244 Q 1295 -1181 1295 -1075 Q 1295 -908 1032 -706 Q 990 -673 956 -651 L 908 -620 Q 777 -528 509 -413 Q 592 -370 663 -370 Q 735 -370 792 -387 Q 849 -404 921 -435 Q 994 -467 1076 -511 Q 1158 -555 1242 -608 Q 1429 -725 1567 -847 Q 1639 -914 1751 -953 Q 1788 -965 1815 -965 M 368 -596 L 440 -633 Q 475 -651 503 -667 Q 768 -819 804 -854 Q 841 -890 841 -903 Q 841 -917 833 -935 Q 826 -954 812 -969 Q 781 -1005 745 -1005 Q 710 -1005 667 -992 Q 625 -979 581 -956 Q 538 -933 498 -901 Q 458 -869 428 -832 Q 358 -749 358 -689 Q 358 -629 368 -596 Z"/>
		<path character="a" fill="#CAD1D8" fill-opacity="1.0" stroke="none" stroke-width="0" stroke-linecap="butt" stroke-opacity="1.0" transform="matrix(1,0,0,1,3692,0)" d="M 2280 -986 Q 2322 -986 2322 -915 Q 2322 -793 2151 -599 L 2076 -522 Q 1736 -182 1436 -70 Q 1250 0 1168 -76 Q 1101 -140 1062 -284 L 1030 -398 L 751 -226 L 589 -134 Q 301 24 156 24 Q -29 24 -152 -119 Q -270 -255 -270 -433 Q -270 -609 -130 -747 Q 71 -944 504 -1108 Q 914 -1261 1166 -1261 Q 1251 -1261 1251 -1177 Q 1251 -1120 1228 -1091 Q 1206 -1062 1137 -1032 L 971 -961 Q 604 -807 433 -642 Q 385 -596 385 -552 Q 385 -509 454 -509 Q 522 -509 772 -656 L 881 -721 Q 1134 -873 1305 -873 Q 1449 -873 1496 -746 Q 1508 -711 1518 -676 Q 1529 -642 1540 -614 Q 1563 -550 1582 -550 Q 1601 -550 1636 -569 Q 1672 -588 1714 -617 Q 1757 -647 1803 -683 L 1962 -810 Q 2174 -986 2280 -986 Z"/>
		<path character="d" fill="#CAD1D8" fill-opacity="1.0" stroke="none" stroke-width="0" stroke-linecap="butt" stroke-opacity="1.0" transform="matrix(1,0,0,1,5697,0)" d="M 2238 -970 Q 2297 -970 2297 -910 Q 2297 -814 2171 -639 Q 2083 -517 1809 -301 Q 1482 -45 1284 -45 Q 1134 -45 1058 -171 Q 1012 -247 983 -394 L 866 -310 Q 385 24 147 24 Q -51 24 -171 -121 Q -276 -251 -276 -432 Q -276 -631 -139 -747 Q 139 -980 553 -1131 Q 721 -1193 765 -1193 Q 810 -1193 847 -1178 Q 885 -1163 921 -1139 Q 1008 -1080 1008 -1025 Q 1008 -980 953 -953 Q 936 -944 895 -928 Q 854 -912 795 -885 Q 637 -810 486 -704 Q 378 -612 378 -557 Q 378 -503 454 -503 Q 517 -503 706 -614 Q 706 -614 818 -683 Q 937 -757 1009 -819 Q 1009 -819 1070 -1016 Q 1181 -1368 1318 -1597 Q 1559 -2061 1803 -2061 Q 1893 -2061 1945 -2028 Q 2040 -1969 2040 -1897 Q 2040 -1826 2013 -1746 Q 1987 -1666 1944 -1587 Q 1902 -1508 1847 -1431 L 1622 -1134 Q 1566 -1062 1523 -994 Q 1446 -830 1446 -713 Q 1446 -545 1568 -545 Q 1638 -545 1819 -690 L 1974 -822 Q 2083 -919 2189 -958 Q 2219 -970 2238 -970 Z"/>
		<path character="l" fill="#CAD1D8" fill-opacity="1.0" stroke="none" stroke-width="0" stroke-linecap="butt" stroke-opacity="1.0" transform="matrix(1,0,0,1,7703,0)" d="M 1551 -927 Q 1635 -927 1635 -857 Q 1635 -772 1533 -654 Q 1364 -457 1134 -270 Q 760 29 466 29 Q 255 29 119 -155 Q -21 -347 -21 -669 Q -21 -1093 392 -1607 Q 655 -1933 887 -2050 Q 959 -2087 998 -2087 Q 1037 -2087 1069 -2074 Q 1101 -2062 1129 -2040 Q 1193 -1986 1193 -1910 Q 1193 -1834 1151 -1729 Q 1109 -1625 1029 -1507 Q 860 -1256 571 -1026 Q 496 -883 496 -683 Q 496 -592 554 -512 Q 613 -432 684 -432 Q 781 -432 1055 -633 L 1289 -812 Q 1432 -927 1551 -927 Z"/>
		<path character="i" fill="#CAD1D8" fill-opacity="1.0" stroke="none" stroke-width="0" stroke-linecap="butt" stroke-opacity="1.0" transform="matrix(1,0,0,1,9069,0)" d="M 1141 -1518 Q 1103 -1486 1058 -1465 Q 1013 -1445 958 -1445 Q 903 -1445 852 -1463 Q 801 -1482 763 -1515 Q 680 -1586 680 -1696 Q 680 -1865 963 -1948 Q 1059 -1977 1121 -1977 Q 1183 -1977 1213 -1963 Q 1244 -1949 1264 -1927 Q 1303 -1882 1303 -1835 Q 1303 -1789 1292 -1751 Q 1281 -1713 1260 -1672 Q 1239 -1631 1209 -1590 Q 1179 -1550 1141 -1518 M 810 -73 Q 710 -21 615 10 Q 521 41 430 41 Q 339 41 241 -3 Q 143 -47 67 -121 Q -102 -285 -102 -486 Q -102 -671 8 -861 Q 109 -1033 265 -1150 Q 421 -1267 555 -1267 Q 747 -1267 760 -1159 Q 764 -1126 764 -1083 Q 764 -1040 743 -984 Q 723 -928 691 -872 Q 659 -816 620 -763 Q 581 -710 546 -667 Q 478 -584 437 -547 Q 437 -503 504 -455 Q 567 -411 611 -411 Q 655 -411 714 -432 Q 774 -453 838 -488 Q 902 -524 968 -570 Q 1034 -616 1099 -664 L 1339 -852 Q 1482 -956 1571 -956 Q 1607 -956 1626 -930 Q 1645 -904 1645 -870 Q 1645 -836 1610 -776 Q 1576 -717 1516 -644 Q 1457 -572 1377 -493 Q 1297 -415 1203 -339 Q 1110 -263 1010 -194 Q 910 -125 810 -73 Z"/>
		<path character="n" fill="#CAD1D8" fill-opacity="1.0" stroke="none" stroke-width="0" stroke-linecap="butt" stroke-opacity="1.0" transform="matrix(1,0,0,1,10435,0)" d="M 1461 -705 Q 1461 -585 1530 -585 Q 1701 -585 1974 -816 L 2009 -847 Q 2116 -917 2182 -917 Q 2248 -917 2266 -897 Q 2284 -878 2284 -835 Q 2284 -738 2185 -629 Q 2038 -450 1782 -290 Q 1486 -104 1251 -104 Q 1087 -104 1045 -286 Q 1033 -333 1028 -377 Q 1015 -482 1000 -493 Q 986 -505 943 -491 Q 900 -478 842 -445 Q 784 -413 713 -368 Q 337 -118 281 -83 Q 146 1 98 1 Q 51 1 6 -18 Q -39 -38 -74 -68 Q -144 -135 -144 -205 Q -144 -602 29 -900 Q 144 -1101 312 -1179 Q 398 -1219 496 -1219 Q 676 -1219 676 -1101 Q 676 -1029 591 -865 L 551 -788 Q 509 -707 511 -697 Q 518 -658 546 -658 Q 576 -658 635 -702 L 877 -882 L 998 -966 Q 1206 -1103 1305 -1103 Q 1357 -1103 1400 -1061 Q 1481 -984 1481 -928 Q 1481 -910 1477 -883 Q 1474 -857 1470 -827 L 1465 -765 Q 1461 -734 1461 -705 Z"/>
		<path character="e" fill="#CAD1D8" fill-opacity="1.0" stroke="none" stroke-width="0" stroke-linecap="butt" stroke-opacity="1.0" transform="matrix(1,0,0,1,12440,0)" d="M 1815 -965 Q 1878 -965 1878 -894 Q 1878 -847 1846 -775 Q 1814 -704 1753 -641 Q 1693 -579 1615 -512 Q 1537 -445 1432 -371 Q 1328 -298 1202 -226 Q 1076 -154 935 -96 Q 621 33 327 33 Q 102 33 -66 -84 Q -242 -206 -242 -381 Q -242 -655 54 -902 Q 308 -1114 654 -1231 Q 864 -1302 1009 -1302 Q 1127 -1302 1209 -1244 Q 1295 -1181 1295 -1075 Q 1295 -908 1032 -706 Q 990 -673 956 -651 L 908 -620 Q 777 -528 509 -413 Q 592 -370 663 -370 Q 735 -370 792 -387 Q 849 -404 921 -435 Q 994 -467 1076 -511 Q 1158 -555 1242 -608 Q 1429 -725 1567 -847 Q 1639 -914 1751 -953 Q 1788 -965 1815 -965 M 368 -596 L 440 -633 Q 475 -651 503 -667 Q 768 -819 804 -854 Q 841 -890 841 -903 Q 841 -917 833 -935 Q 826 -954 812 -969 Q 781 -1005 745 -1005 Q 710 -1005 667 -992 Q 625 -979 581 -956 Q 538 -933 498 -901 Q 458 -869 428 -832 Q 358 -749 358 -689 Q 358 -629 368 -596 Z"/>
</g>
</svg>