<svg xmlns="http://www.w3.org/2000/svg" xmlns:xlink="http://www.w3.org/1999/xlink" viewBox="0 0 17040 3687">
<title>headline</title>
<g transform="matrix(1,0,0,1,0,2688)">
  		<path character="h" fill="#CAD1D8" fill-opacity="1.0" stroke="none" stroke-width="0" stroke-linecap="butt" stroke-opacity="1.0" transform="matrix(1,0,0,1,0,0)" d="M 699 -1952 L 1278 -1952 Q 1307 -1952 1325 -1933 Q 1344 -1914 1344 -1871 Q 1344 -1829 1304 -1620 Q 1265 -1411 1216 -1211 Q 1385 -1286 1591 -1347 Q 1798 -1408 1963 -1408 Q 2088 -1408 2190 -1336 Q 2304 -1258 2304 -1098 Q 2304 -938 2176 -668 Q 2048 -398 2048 -324 Q 2048 -214 2150 -214 Q 2350 -214 2604 -349 Q 2643 -370 2667 -370 Q 2720 -370 2720 -321 Q 2720 -272 2661 -234 Q 2603 -197 2515 -153 Q 2428 -109 2295 -58 Q 1985 64 1632 64 Q 1280 64 1280 -117 Q 1280 -235 1408 -537 Q 1536 -840 1536 -946 Q 1536 -1073 1352 -1073 Q 1249 -1073 1150 -1041 Q 931 -389 835 -19 Q 829 7 806 19 Q 783 31 765 31 L 82 31 Q 68 31 50 13 Q 32 -5 32 -31 Q 32 -58 117 -297 Q 202 -536 304 -816 Q 406 -1096 491 -1398 Q 576 -1701 576 -1848 L 576 -1886 Q 576 -1952 699 -1952 Z"/>
		<path character="e" fill="#CAD1D8" fill-opacity="1.0" stroke="none" stroke-width="0" stroke-linecap="butt" stroke-opacity="1.0" transform="matrix(1,0,0,1,2516,0)" d="M 2194 -394 Q 2240 -394 2240 -348 Q 2240 -303 2178 -264 Q 2116 -225 2025 -180 Q 1934 -136 1774 -75 Q 1406 64 943 64 Q 64 64 64 -492 Q 64 -763 229 -973 Q 395 -1184 674 -1296 Q 954 -1408 1283 -1408 Q 1613 -1408 1766 -1305 Q 1920 -1202 1920 -1022 Q 1920 -837 1770 -720 Q 1621 -603 1374 -545 Q 1126 -488 805 -464 Q 826 -255 1098 -204 Q 1169 -192 1247 -192 Q 1557 -192 2139 -382 Q 2175 -394 2194 -394 M 791 -623 Q 1017 -687 1148 -818 Q 1280 -949 1280 -1135 Q 1280 -1184 1249 -1213 Q 1218 -1243 1154 -1243 Q 1091 -1243 1023 -1187 Q 955 -1131 908 -1041 Q 809 -854 791 -623 Z"/>
		<path character="a" fill="#CAD1D8" fill-opacity="1.0" stroke="none" stroke-width="0" stroke-linecap="butt" stroke-opacity="1.0" transform="matrix(1,0,0,1,4521,0)" d="M 1039 -256 Q 1288 -256 1456 -655 Q 1532 -838 1532 -952 Q 1532 -1066 1496 -1109 Q 1460 -1152 1353 -1152 Q 1246 -1152 1121 -1048 Q 997 -945 921 -788 Q 846 -631 846 -505 Q 846 -380 899 -318 Q 952 -256 1039 -256 M 1722 -1408 L 2302 -1408 Q 2335 -1408 2351 -1386 Q 2368 -1365 2368 -1338 Q 2368 -1238 2291 -1016 Q 2215 -795 2138 -578 Q 2062 -362 2062 -292 Q 2062 -222 2082 -202 Q 2103 -183 2161 -183 Q 2220 -183 2374 -239 Q 2529 -296 2584 -325 Q 2640 -354 2668 -354 Q 2720 -354 2720 -309 Q 2720 -214 2327 -59 Q 2196 -7 2009 28 Q 1823 64 1631 64 Q 1310 64 1245 -133 Q 1043 64 701 64 Q 466 64 305 -52 Q 128 -179 128 -452 Q 128 -739 294 -981 Q 475 -1250 778 -1352 Q 947 -1408 1140 -1408 Q 1436 -1408 1600 -1272 Q 1600 -1279 1600 -1295 L 1600 -1347 Q 1600 -1408 1722 -1408 Z"/>
		<path character="d" fill="#CAD1D8" fill-opacity="1.0" stroke="none" stroke-width="0" stroke-linecap="butt" stroke-opacity="1.0" transform="matrix(1,0,0,1,7037,0)" d="M 2660 -372 Q 2720 -372 2720 -317 Q 2720 -278 2665 -236 Q 2517 -126 2225 -31 Q 1934 64 1716 64 Q 1499 64 1395 18 Q 1292 -28 1253 -145 Q 1179 -66 1038 -1 Q 897 64 740 64 Q 584 64 484 35 Q 385 7 304 -52 Q 223 -111 175 -213 Q 128 -316 128 -452 Q 128 -588 168 -723 Q 209 -858 292 -982 Q 376 -1106 492 -1200 Q 609 -1295 775 -1351 Q 941 -1408 1133 -1408 Q 1447 -1408 1656 -1249 Q 1728 -1709 1728 -1850 L 1728 -1888 Q 1728 -1952 1853 -1952 L 2429 -1952 Q 2460 -1952 2478 -1933 Q 2496 -1914 2496 -1889 Q 2496 -1680 2283 -1031 Q 2071 -383 2071 -320 Q 2071 -257 2089 -230 Q 2108 -203 2165 -203 Q 2222 -203 2361 -251 Q 2501 -299 2571 -335 Q 2641 -372 2660 -372 M 1036 -277 Q 1282 -277 1447 -663 Q 1541 -849 1541 -991 Q 1541 -1069 1505 -1110 Q 1469 -1152 1362 -1152 Q 1256 -1152 1129 -1050 Q 1002 -948 924 -794 Q 846 -640 846 -518 Q 846 -397 898 -337 Q 950 -277 1036 -277 Z"/>
		<path character="l" fill="#CAD1D8" fill-opacity="1.0" stroke="none" stroke-width="0" stroke-linecap="butt" stroke-opacity="1.0" transform="matrix(1,0,0,1,9554,0)" d="M 703 -1952 L 1340 -1952 Q 1374 -1952 1391 -1931 Q 1408 -1911 1408 -1886 Q 1408 -1745 1152 -1077 Q 896 -409 896 -291 Q 896 -241 915 -216 Q 934 -192 982 -192 Q 1134 -192 1454 -338 Q 1486 -352 1515 -352 Q 1568 -352 1568 -311 Q 1568 -277 1514 -239 Q 1461 -202 1367 -157 Q 1273 -113 1138 -60 Q 1003 -7 832 28 Q 662 64 475 64 Q 289 64 176 13 Q 64 -38 64 -176 Q 64 -271 320 -928 Q 416 -1174 496 -1438 Q 576 -1703 576 -1835 L 576 -1886 Q 576 -1952 703 -1952 Z"/>
		<path character="i" fill="#CAD1D8" fill-opacity="1.0" stroke="none" stroke-width="0" stroke-linecap="butt" stroke-opacity="1.0" transform="matrix(1,0,0,1,10918,0)" d="M 1344 -1843 Q 1344 -1694 1191 -1583 Q 1038 -1472 869 -1472 Q 700 -1472 606 -1546 Q 512 -1621 512 -1728 Q 512 -1836 584 -1923 Q 656 -2011 771 -2061 Q 887 -2112 1022 -2112 Q 1157 -2112 1250 -2035 Q 1344 -1958 1344 -1843 M 979 -221 Q 1069 -221 1223 -265 Q 1377 -310 1447 -345 Q 1517 -380 1544 -380 Q 1600 -380 1600 -322 Q 1600 -296 1560 -263 Q 1426 -160 1079 -48 Q 733 64 461 64 Q 292 64 178 7 Q 64 -49 64 -164 Q 64 -234 176 -507 Q 384 -1025 384 -1287 L 384 -1340 Q 384 -1408 509 -1408 L 1148 -1408 Q 1182 -1408 1199 -1387 Q 1216 -1366 1216 -1339 Q 1216 -1246 1136 -1031 Q 1056 -816 976 -608 Q 896 -400 896 -310 Q 896 -221 979 -221 Z"/>
		<path character="n" fill="#CAD1D8" fill-opacity="1.0" stroke="none" stroke-width="0" stroke-linecap="butt" stroke-opacity="1.0" transform="matrix(1,0,0,1,12283,0)" d="M 2702 -381 Q 2752 -381 2752 -334 Q 2752 -287 2704 -251 Q 2657 -216 2564 -170 Q 2471 -124 2333 -69 Q 2195 -14 2013 25 Q 1832 64 1668 64 Q 1280 64 1280 -122 Q 1280 -243 1408 -553 Q 1536 -864 1536 -972 Q 1536 -1094 1356 -1094 Q 1274 -1094 1170 -1072 Q 1121 -887 994 -483 Q 868 -80 851 -25 Q 835 30 782 30 L 113 30 Q 99 30 81 11 Q 64 -7 64 -32 Q 64 -58 119 -212 Q 174 -367 240 -544 Q 307 -722 362 -935 Q 418 -1148 418 -1287 L 418 -1340 Q 418 -1408 544 -1408 L 1162 -1408 Q 1196 -1408 1213 -1387 Q 1230 -1367 1230 -1337 Q 1230 -1308 1216 -1243 Q 1671 -1408 1963 -1408 Q 2087 -1408 2190 -1337 Q 2304 -1259 2304 -1099 Q 2304 -936 2176 -671 Q 2048 -407 2048 -344 Q 2048 -221 2148 -221 Q 2211 -221 2365 -269 Q 2519 -318 2593 -349 Q 2667 -381 2702 -381 Z"/>
		<path character="e" fill="#CAD1D8" fill-opacity="1.0" stroke="none" stroke-width="0" stroke-linecap="butt" stroke-opacity="1.0" transform="matrix(1,0,0,1,14799,0)" d="M 2194 -394 Q 2240 -394 2240 -348 Q 2240 -303 2178 -264 Q 2116 -225 2025 -180 Q 1934 -136 1774 -75 Q 1406 64 943 64 Q 64 64 64 -492 Q 64 -763 229 -973 Q 395 -1184 674 -1296 Q 954 -1408 1283 -1408 Q 1613 -1408 1766 -1305 Q 1920 -1202 1920 -1022 Q 1920 -837 1770 -720 Q 1621 -603 1374 -545 Q 1126 -488 805 -464 Q 826 -255 1098 -204 Q 1169 -192 1247 -192 Q 1557 -192 2139 -382 Q 2175 -394 2194 -394 M 791 -623 Q 1017 -687 1148 -818 Q 1280 -949 1280 -1135 Q 1280 -1184 1249 -1213 Q 1218 -1243 1154 -1243 Q 1091 -1243 1023 -1187 Q 955 -1131 908 -1041 Q 809 -854 791 -623 Z"/>
</g>
</svg>