<svg xmlns="http://www.w3.org/2000/svg" xmlns:xlink="http://www.w3.org/1999/xlink" viewBox="0 0 8428 2957">
<title>headline</title>
<g transform="matrix(1,0,0,1,0,2112)">
  		<path character="h" fill="#CAD1D8" fill-opacity="1.0" stroke="none" stroke-width="0" stroke-linecap="butt" stroke-opacity="1.0" transform="matrix(1,0,0,1,0,0)" d="M 72 -1726 Q 55 -1751 75 -1764 Q 95 -1778 114 -1755 Q 172 -1683 207 -1600 Q 211 -1587 226 -1587 Q 238 -1584 247 -1597 Q 323 -1734 486 -1808 Q 650 -1882 818 -1868 Q 852 -1866 852 -1840 Q 852 -1814 819 -1817 Q 681 -1826 579 -1753 Q 477 -1681 478 -1475 L 481 -1181 Q 481 -1168 491 -1162 Q 502 -1156 512 -1163 Q 584 -1202 657 -1249 Q 730 -1297 792 -1356 Q 840 -1404 847 -1339 Q 852 -1290 887 -1252 Q 923 -1214 953 -1177 Q 1130 -952 1135 -689 Q 1145 -303 864 -7 Q 583 289 353 445 Q 322 467 306 452 Q 291 437 315 417 Q 500 253 688 59 Q 877 -135 860 -557 Q 852 -722 809 -868 Q 767 -1015 654 -1112 Q 596 -1160 494 -1110 Q 482 -1106 482 -1091 L 487 -298 Q 487 -192 572 -210 Q 591 -215 605 -229 Q 620 -244 637 -255 Q 655 -266 669 -253 Q 684 -240 669 -226 Q 605 -155 539 -94 Q 474 -34 438 38 Q 423 70 391 38 Q 275 -88 137 -151 Q 92 -175 130 -194 Q 214 -223 213 -368 L 210 -1244 Q 209 -1421 170 -1534 Q 131 -1647 72 -1726 Z"/>
		<path character="e" fill="#CAD1D8" fill-opacity="1.0" stroke="none" stroke-width="0" stroke-linecap="butt" stroke-opacity="1.0" transform="matrix(1,0,0,1,1231,0)" d="M 446 37 Q 444 5 413 -10 Q 382 -26 361 -42 Q 210 -144 147 -292 Q 85 -440 77 -605 Q 62 -979 280 -1175 Q 357 -1244 458 -1288 Q 559 -1332 665 -1360 Q 698 -1366 714 -1327 L 903 -883 Q 916 -848 894 -839 L 891 -839 L 353 -630 Q 337 -622 340 -605 Q 404 -314 555 -232 Q 706 -150 856 -207 Q 882 -219 889 -203 Q 896 -188 879 -180 Q 773 -126 676 -69 Q 580 -13 504 49 Q 492 56 469 53 Q 446 51 446 37 M 324 -705 Q 326 -694 333 -688 Q 341 -683 353 -688 L 633 -793 Q 652 -801 644 -820 L 484 -1213 Q 473 -1242 437 -1221 Q 361 -1176 333 -1017 Q 306 -858 324 -705 Z"/>
		<path character="a" fill="#CAD1D8" fill-opacity="1.0" stroke="none" stroke-width="0" stroke-linecap="butt" stroke-opacity="1.0" transform="matrix(1,0,0,1,2207,0)" d="M 701 -185 Q 634 -134 554 -73 Q 474 -12 406 39 Q 382 58 368 55 Q 354 53 357 32 Q 357 4 276 -74 Q 62 -274 70 -596 Q 77 -872 326 -1062 Q 402 -1120 468 -1184 Q 534 -1248 585 -1340 Q 606 -1381 643 -1343 Q 843 -1117 1042 -1076 Q 1105 -1064 1055 -1026 Q 994 -982 988 -916 L 988 -914 L 992 -314 Q 992 -253 1036 -231 Q 1080 -209 1131 -265 Q 1151 -287 1169 -276 Q 1187 -265 1169 -236 Q 1122 -165 1078 -97 Q 1034 -29 1004 45 L 1003 46 Q 984 76 958 46 Q 943 30 924 25 Q 774 -8 735 -173 Q 732 -181 722 -189 Q 710 -190 701 -185 M 715 -958 Q 634 -980 525 -1084 Q 473 -1147 441 -1096 Q 302 -889 332 -638 Q 374 -280 584 -196 Q 585 -196 587 -194 Q 641 -177 717 -259 Q 722 -266 722 -273 Q 721 -293 721 -335 L 732 -937 Q 732 -953 715 -958 Z"/>
		<path character="d" fill="#CAD1D8" fill-opacity="1.0" stroke="none" stroke-width="0" stroke-linecap="butt" stroke-opacity="1.0" transform="matrix(1,0,0,1,3438,0)" d="M 339 -1828 Q 235 -1799 238 -1706 Q 239 -1647 305 -1596 Q 371 -1546 461 -1529 Q 462 -1529 463 -1528 Q 739 -1425 943 -1260 Q 1147 -1095 1175 -780 L 1175 -776 Q 1147 -539 1060 -381 Q 974 -224 856 -142 L 854 -139 Q 799 -92 724 -55 Q 650 -18 592 21 Q 555 46 545 21 Q 471 -154 139 -245 Q 119 -249 118 -265 Q 117 -281 133 -287 Q 215 -319 215 -462 L 213 -1008 Q 213 -1054 255 -1051 Q 386 -1034 517 -1141 Q 525 -1146 525 -1160 Q 522 -1171 512 -1176 Q 462 -1197 412 -1217 Q 362 -1238 315 -1261 Q 193 -1316 134 -1404 Q 76 -1492 66 -1579 L 66 -1586 Q 98 -1836 318 -1865 Q 352 -1870 355 -1852 Q 358 -1834 339 -1828 M 595 -1139 Q 583 -1145 572 -1137 L 511 -1088 Q 484 -1068 484 -1041 L 490 -392 Q 490 -373 505 -365 L 789 -198 Q 823 -177 852 -214 Q 970 -381 943 -657 Q 916 -933 715 -1075 Q 679 -1100 595 -1139 Z"/>
		<path character="l" fill="#CAD1D8" fill-opacity="1.0" stroke="none" stroke-width="0" stroke-linecap="butt" stroke-opacity="1.0" transform="matrix(1,0,0,1,4669,0)" d="M 68 -1725 Q 51 -1743 67 -1760 Q 84 -1777 109 -1754 Q 139 -1717 171 -1675 Q 203 -1633 226 -1588 Q 232 -1575 244 -1575 Q 257 -1575 264 -1586 Q 341 -1717 479 -1797 Q 617 -1878 777 -1873 Q 807 -1872 808 -1847 Q 810 -1823 777 -1823 Q 647 -1823 569 -1748 Q 491 -1673 491 -1475 L 490 -339 Q 490 -297 509 -285 L 604 -231 Q 637 -219 694 -294 Q 709 -314 730 -302 Q 751 -291 728 -268 Q 591 -114 517 34 Q 501 62 470 34 Q 406 -49 337 -96 Q 269 -144 146 -169 Q 125 -172 124 -188 Q 123 -205 138 -211 Q 171 -223 197 -255 Q 224 -287 224 -362 L 223 -1244 Q 223 -1433 182 -1542 Q 142 -1651 68 -1725 Z"/>
		<path character="i" fill="#CAD1D8" fill-opacity="1.0" stroke="none" stroke-width="0" stroke-linecap="butt" stroke-opacity="1.0" transform="matrix(1,0,0,1,5389,0)" d="M 216 -308 L 207 -1028 Q 207 -1053 200 -1068 Q 168 -1120 146 -1093 L 93 -1040 Q 72 -1016 53 -1034 Q 34 -1053 59 -1085 Q 117 -1158 162 -1230 Q 208 -1302 257 -1373 Q 278 -1398 306 -1372 Q 361 -1305 413 -1254 Q 466 -1204 563 -1147 Q 591 -1137 587 -1122 Q 584 -1108 570 -1106 Q 536 -1093 509 -1061 Q 483 -1029 483 -954 L 483 -399 Q 483 -265 533 -235 Q 591 -201 627 -264 Q 641 -289 660 -275 Q 679 -261 659 -230 Q 620 -168 585 -105 Q 551 -43 516 18 Q 491 55 454 34 Q 336 -22 276 -103 Q 216 -185 216 -308 M 407 -1866 Q 553 -1866 539 -1726 Q 532 -1655 451 -1583 Q 370 -1512 323 -1513 Q 276 -1513 251 -1588 Q 226 -1663 231 -1726 Q 235 -1786 289 -1826 Q 344 -1866 407 -1866 Z"/>
		<path character="n" fill="#CAD1D8" fill-opacity="1.0" stroke="none" stroke-width="0" stroke-linecap="butt" stroke-opacity="1.0" transform="matrix(1,0,0,1,6108,0)" d="M 524 -474 Q 523 -263 602 -230 Q 612 -223 612 -212 Q 612 -201 602 -196 Q 485 -106 411 42 Q 403 53 391 53 Q 380 53 372 42 Q 298 -106 172 -194 Q 164 -200 164 -211 Q 164 -223 173 -230 Q 259 -263 259 -474 L 259 -910 Q 259 -1043 209 -1074 Q 151 -1112 114 -1046 Q 100 -1019 81 -1033 Q 63 -1047 83 -1079 Q 121 -1139 155 -1202 Q 190 -1265 227 -1328 Q 248 -1366 286 -1344 L 288 -1343 Q 480 -1246 518 -1105 Q 521 -1091 531 -1088 Q 542 -1085 552 -1093 Q 624 -1154 700 -1221 Q 777 -1288 804 -1344 Q 819 -1378 851 -1343 Q 930 -1260 986 -1211 Q 1042 -1163 1176 -1139 Q 1200 -1134 1200 -1119 Q 1201 -1104 1184 -1099 Q 1150 -1085 1123 -1053 Q 1097 -1021 1097 -946 L 1097 -391 Q 1097 -257 1147 -227 Q 1205 -192 1240 -256 Q 1255 -281 1274 -267 Q 1293 -253 1273 -222 Q 1234 -160 1199 -97 Q 1164 -35 1129 26 Q 1105 63 1069 43 Q 831 -72 831 -299 L 832 -971 Q 832 -1011 812 -1022 L 811 -1022 L 811 -1025 L 699 -1117 Q 685 -1127 669 -1118 L 533 -1012 Q 524 -1005 524 -996 L 524 -474 Z"/>
		<path character="e" fill="#CAD1D8" fill-opacity="1.0" stroke="none" stroke-width="0" stroke-linecap="butt" stroke-opacity="1.0" transform="matrix(1,0,0,1,7468,0)" d="M 446 37 Q 444 5 413 -10 Q 382 -26 361 -42 Q 210 -144 147 -292 Q 85 -440 77 -605 Q 62 -979 280 -1175 Q 357 -1244 458 -1288 Q 559 -1332 665 -1360 Q 698 -1366 714 -1327 L 903 -883 Q 916 -848 894 -839 L 891 -839 L 353 -630 Q 337 -622 340 -605 Q 404 -314 555 -232 Q 706 -150 856 -207 Q 882 -219 889 -203 Q 896 -188 879 -180 Q 773 -126 676 -69 Q 580 -13 504 49 Q 492 56 469 53 Q 446 51 446 37 M 324 -705 Q 326 -694 333 -688 Q 341 -683 353 -688 L 633 -793 Q 652 -801 644 -820 L 484 -1213 Q 473 -1242 437 -1221 Q 361 -1176 333 -1017 Q 306 -858 324 -705 Z"/>
</g>
</svg>