<svg xmlns="http://www.w3.org/2000/svg" xmlns:xlink="http://www.w3.org/1999/xlink" viewBox="0 0 6810 3405">
<title>headline</title>
<g transform="matrix(1,0,0,1,0,2560)">
  		<path character="h" fill="none" fill-opacity="1.0" stroke="#A5834B" stroke-width="20" stroke-linecap="butt" stroke-opacity="1.0" transform="matrix(1,0,0,1,-192,0)" d="M 671 -1612 Q 921 -1334 921 -1024 L 921 -554 Q 921 -349 798 -99 Q 675 150 478 369 L 429 326 Q 723 3 823 -339 Q 856 -452 856 -554 L 856 -1024 Q 856 -1297 665 -1520 L 278 -1201 L 278 0 L 214 0 L 214 -1700 Q 214 -1964 402 -2138 Q 458 -2191 522 -2226 L 555 -2167 Q 361 -2063 299 -1853 Q 278 -1782 278 -1700 L 278 -1286 L 671 -1612 Z"/>
		<path character="e" fill="none" fill-opacity="1.0" stroke="#A5834B" stroke-width="20" stroke-linecap="butt" stroke-opacity="1.0" transform="matrix(1,0,0,1,909,0)" d="M 753 -185 L 466 39 Q 323 -3 242 -102 Q 161 -201 161 -357 L 161 -1047 Q 161 -1185 205 -1283 Q 249 -1381 356 -1456 L 584 -1614 L 794 -1217 L 227 -789 L 227 -357 Q 227 -113 449 -34 L 714 -240 L 753 -185 M 227 -872 L 715 -1232 L 563 -1523 L 394 -1402 Q 227 -1286 227 -1047 L 227 -872 Z"/>
		<path character="a" fill="none" fill-opacity="1.0" stroke="#A5834B" stroke-width="20" stroke-linecap="butt" stroke-opacity="1.0" transform="matrix(1,0,0,1,1818,0)" d="M 917 41 Q 770 -68 743 -223 L 394 41 Q 234 12 176 -113 Q 156 -155 156 -211 Q 156 -215 156 -218 L 156 -916 Q 156 -1164 335 -1299 L 751 -1614 L 799 -1588 L 799 -320 Q 799 -231 832 -156 Q 866 -81 956 -13 L 917 41 M 222 -218 Q 222 -72 374 -30 L 735 -302 L 735 -1529 L 382 -1255 Q 307 -1197 264 -1119 Q 222 -1041 222 -916 L 222 -218 Z"/>
		<path character="d" fill="none" fill-opacity="1.0" stroke="#A5834B" stroke-width="20" stroke-linecap="butt" stroke-opacity="1.0" transform="matrix(1,0,0,1,2854,0)" d="M 185 18 L 185 -1118 Q 185 -1204 231 -1252 L 410 -1450 Q 179 -1643 137 -1814 Q 121 -1874 121 -1932 Q 121 -2032 161 -2112 Q 202 -2192 251 -2226 L 287 -2172 Q 222 -2130 194 -2021 Q 185 -1985 185 -1929 Q 185 -1811 252 -1709 Q 320 -1607 489 -1465 Q 658 -1323 717 -1229 Q 828 -1053 828 -864 Q 828 -673 793 -575 Q 731 -402 600 -280 L 256 41 L 185 18 M 757 -718 Q 764 -790 764 -874 Q 764 -1030 678 -1167 Q 593 -1305 459 -1410 L 280 -1210 Q 251 -1179 251 -1118 L 251 -41 L 557 -323 Q 736 -486 757 -718 Z"/>
		<path character="l" fill="none" fill-opacity="1.0" stroke="#A5834B" stroke-width="20" stroke-linecap="butt" stroke-opacity="1.0" transform="matrix(1,0,0,1,3827,0)" d="M 555 -2167 Q 361 -2063 299 -1853 Q 278 -1782 278 -1700 L 278 0 L 213 0 L 213 -1700 Q 213 -1962 402 -2138 Q 458 -2191 522 -2226 L 555 -2167 Z"/>
		<path character="i" fill="none" fill-opacity="1.0" stroke="#A5834B" stroke-width="20" stroke-linecap="butt" stroke-opacity="1.0" transform="matrix(1,0,0,1,4352,0)" d="M 385 41 Q 201 -97 201 -320 L 201 -1575 L 266 -1575 L 266 -320 Q 266 -231 299 -156 Q 333 -81 423 -13 L 385 41 M 264 -1760 L 202 -1780 L 302 -2019 L 382 -1986 L 264 -1760 Z"/>
		<path character="n" fill="none" fill-opacity="1.0" stroke="#A5834B" stroke-width="20" stroke-linecap="butt" stroke-opacity="1.0" transform="matrix(1,0,0,1,4877,0)" d="M 656 -1609 Q 898 -1344 898 -1047 Q 898 -932 877 -692 Q 856 -453 856 -329 Q 856 -146 1011 -22 L 971 30 Q 824 -83 798 -230 Q 790 -277 790 -348 Q 790 -450 811 -689 Q 832 -928 832 -1024 Q 832 -1294 647 -1519 L 277 -1230 L 277 0 L 211 0 L 211 -1310 Q 211 -1474 88 -1559 L 125 -1614 Q 277 -1511 277 -1313 L 656 -1609 Z"/>
		<path character="e" fill="none" fill-opacity="1.0" stroke="#A5834B" stroke-width="20" stroke-linecap="butt" stroke-opacity="1.0" transform="matrix(1,0,0,1,5978,0)" d="M 753 -185 L 466 39 Q 323 -3 242 -102 Q 161 -201 161 -357 L 161 -1047 Q 161 -1185 205 -1283 Q 249 -1381 356 -1456 L 584 -1614 L 794 -1217 L 227 -789 L 227 -357 Q 227 -113 449 -34 L 714 -240 L 753 -185 M 227 -872 L 715 -1232 L 563 -1523 L 394 -1402 Q 227 -1286 227 -1047 L 227 -872 Z"/>
</g>
</svg>