<svg xmlns="http://www.w3.org/2000/svg" xmlns:xlink="http://www.w3.org/1999/xlink" viewBox="0 0 8136 4634">
<title>headline</title>
<g transform="matrix(1,0,0,1,0,2944)">
  		<path character="h" fill="none" fill-opacity="1.0" stroke="#A5834B" stroke-width="20" stroke-linecap="butt" stroke-opacity="1.0" transform="matrix(1,0,0,1,-128,0)" d="M 1109 -895 Q 1109 -679 1044 -389 Q 979 -100 909 60 Q 864 55 820 41 Q 776 28 736 7 Q 816 -211 860 -450 Q 904 -690 904 -900 Q 904 -1110 862 -1195 Q 821 -1280 717 -1280 Q 608 -1280 501 -1157 Q 395 -1035 336 -827 L 336 -819 Q 336 -668 349 -444 Q 363 -220 376 -118 Q 347 -110 293 -103 Q 240 -97 192 -97 Q 171 -378 160 -626 Q 149 -874 149 -1083 Q 149 -1300 165 -1585 Q 181 -1871 203 -2010 Q 237 -2029 274 -2038 Q 312 -2048 349 -2048 Q 376 -2048 410 -2038 Q 445 -2029 456 -2027 Q 413 -1824 384 -1588 Q 355 -1352 344 -1117 Q 427 -1267 533 -1347 Q 640 -1428 755 -1428 Q 941 -1428 1025 -1301 Q 1109 -1175 1109 -895 Z"/>
		<path character="e" fill="none" fill-opacity="1.0" stroke="#A5834B" stroke-width="20" stroke-linecap="butt" stroke-opacity="1.0" transform="matrix(1,0,0,1,1098,0)" d="M 317 -824 Q 395 -797 484 -782 Q 573 -768 672 -768 Q 699 -768 735 -770 Q 771 -773 787 -779 Q 808 -856 817 -921 Q 827 -987 827 -1041 Q 827 -1158 788 -1209 Q 749 -1260 664 -1260 Q 552 -1260 458 -1139 Q 365 -1019 317 -824 M 912 -420 Q 955 -412 999 -388 Q 1043 -364 1075 -332 Q 1024 -179 868 -57 Q 712 64 544 64 Q 328 64 204 -107 Q 80 -279 80 -567 Q 80 -891 257 -1149 Q 435 -1408 680 -1408 Q 837 -1408 929 -1305 Q 1021 -1202 1021 -1026 Q 1021 -933 1004 -838 Q 987 -744 957 -658 Q 904 -639 828 -629 Q 752 -620 640 -620 Q 555 -620 465 -637 Q 376 -654 293 -687 Q 288 -654 286 -623 Q 285 -592 285 -562 Q 285 -347 358 -215 Q 432 -84 555 -84 Q 661 -84 768 -183 Q 875 -282 912 -420 Z"/>
		<path character="a" fill="none" fill-opacity="1.0" stroke="#A5834B" stroke-width="20" stroke-linecap="butt" stroke-opacity="1.0" transform="matrix(1,0,0,1,2260,0)" d="M 1053 -949 Q 1053 -773 1005 -482 Q 957 -192 891 51 Q 851 51 805 44 Q 760 37 717 26 Q 720 17 722 4 Q 725 -9 733 -30 Q 741 -70 746 -90 Q 752 -110 755 -126 Q 699 -86 628 -65 Q 557 -44 477 -44 Q 296 -44 184 -142 Q 72 -240 72 -401 Q 72 -575 218 -666 Q 365 -758 651 -758 Q 693 -758 733 -758 Q 773 -758 840 -758 Q 843 -785 843 -817 Q 843 -849 843 -918 Q 843 -1132 791 -1228 Q 739 -1324 619 -1324 Q 496 -1324 413 -1215 Q 331 -1106 325 -939 Q 251 -950 205 -975 Q 160 -1000 136 -1042 Q 168 -1222 313 -1347 Q 459 -1472 645 -1472 Q 848 -1472 950 -1340 Q 1053 -1208 1053 -949 M 283 -394 Q 283 -301 347 -246 Q 411 -192 515 -192 Q 589 -192 657 -214 Q 725 -237 784 -281 Q 805 -388 817 -472 Q 829 -556 835 -640 Q 560 -640 421 -583 Q 283 -526 283 -394 Z"/>
		<path character="d" fill="none" fill-opacity="1.0" stroke="#A5834B" stroke-width="20" stroke-linecap="butt" stroke-opacity="1.0" transform="matrix(1,0,0,1,3487,0)" d="M 1048 73 Q 1016 83 972 89 Q 928 95 896 95 Q 888 11 882 -74 Q 877 -159 875 -243 Q 824 -86 741 -11 Q 659 64 533 64 Q 328 64 208 -131 Q 88 -326 88 -648 Q 88 -1003 246 -1215 Q 405 -1428 669 -1428 Q 712 -1428 757 -1422 Q 803 -1416 840 -1404 Q 837 -1658 836 -1763 Q 835 -1868 835 -1952 Q 859 -1967 896 -1975 Q 933 -1984 968 -1984 Q 989 -1984 1013 -1979 Q 1037 -1975 1067 -1969 Q 1053 -1801 1046 -1489 Q 1040 -1177 1040 -346 Q 1040 -225 1041 -134 Q 1043 -43 1048 73 M 291 -672 Q 291 -392 363 -238 Q 435 -84 563 -84 Q 680 -84 756 -217 Q 832 -351 859 -609 Q 853 -760 849 -921 Q 845 -1082 843 -1246 Q 811 -1265 773 -1272 Q 736 -1280 693 -1280 Q 512 -1280 401 -1118 Q 291 -956 291 -672 Z"/>
		<path character="l" fill="none" fill-opacity="1.0" stroke="#A5834B" stroke-width="20" stroke-linecap="butt" stroke-opacity="1.0" transform="matrix(1,0,0,1,4713,0)" d="M 373 171 Q 346 179 289 185 Q 232 192 192 192 Q 149 -408 142 -909 Q 136 -1411 165 -1935 Q 192 -1955 225 -1969 Q 258 -1984 290 -1984 Q 317 -1984 342 -1976 Q 368 -1968 397 -1951 Q 354 -1534 347 -965 Q 341 -396 373 171 Z"/>
		<path character="i" fill="none" fill-opacity="1.0" stroke="#A5834B" stroke-width="20" stroke-linecap="butt" stroke-opacity="1.0" transform="matrix(1,0,0,1,5235,0)" d="M 405 -1938 Q 442 -1936 470 -1929 Q 498 -1922 522 -1909 Q 496 -1849 468 -1766 Q 440 -1684 424 -1605 Q 394 -1600 349 -1600 Q 304 -1600 256 -1600 Q 250 -1624 249 -1644 Q 248 -1665 248 -1687 Q 248 -1744 260 -1809 Q 272 -1874 293 -1920 Q 322 -1933 346 -1937 Q 370 -1941 405 -1938 M 200 -1306 Q 232 -1325 265 -1334 Q 298 -1344 336 -1344 Q 357 -1344 374 -1339 Q 392 -1335 410 -1326 Q 357 -1043 335 -663 Q 314 -284 336 44 Q 317 54 287 59 Q 258 64 229 64 Q 216 64 204 62 Q 192 61 176 59 Q 130 -285 137 -651 Q 144 -1017 200 -1306 Z"/>
		<path character="n" fill="none" fill-opacity="1.0" stroke="#A5834B" stroke-width="20" stroke-linecap="butt" stroke-opacity="1.0" transform="matrix(1,0,0,1,5821,0)" d="M 336 -418 Q 336 -291 341 -131 Q 347 28 355 101 Q 320 111 272 119 Q 224 127 179 127 Q 160 -157 146 -609 Q 133 -1061 133 -1375 Q 160 -1389 197 -1397 Q 235 -1405 275 -1405 Q 301 -1405 326 -1402 Q 352 -1400 379 -1394 Q 373 -1344 366 -1233 Q 360 -1123 357 -1090 Q 445 -1249 544 -1327 Q 643 -1405 752 -1405 Q 917 -1405 993 -1281 Q 1069 -1157 1069 -892 Q 1069 -679 1036 -414 Q 1003 -149 965 1 Q 923 1 871 -9 Q 819 -19 776 -33 Q 824 -299 845 -505 Q 867 -711 867 -893 Q 867 -1064 825 -1140 Q 784 -1216 691 -1216 Q 597 -1216 505 -1119 Q 413 -1022 347 -853 Q 341 -660 338 -571 Q 336 -482 336 -418 Z"/>
		<path character="e" fill="none" fill-opacity="1.0" stroke="#A5834B" stroke-width="20" stroke-linecap="butt" stroke-opacity="1.0" transform="matrix(1,0,0,1,7048,0)" d="M 317 -824 Q 395 -797 484 -782 Q 573 -768 672 -768 Q 699 -768 735 -770 Q 771 -773 787 -779 Q 808 -856 817 -921 Q 827 -987 827 -1041 Q 827 -1158 788 -1209 Q 749 -1260 664 -1260 Q 552 -1260 458 -1139 Q 365 -1019 317 -824 M 912 -420 Q 955 -412 999 -388 Q 1043 -364 1075 -332 Q 1024 -179 868 -57 Q 712 64 544 64 Q 328 64 204 -107 Q 80 -279 80 -567 Q 80 -891 257 -1149 Q 435 -1408 680 -1408 Q 837 -1408 929 -1305 Q 1021 -1202 1021 -1026 Q 1021 -933 1004 -838 Q 987 -744 957 -658 Q 904 -639 828 -629 Q 752 -620 640 -620 Q 555 -620 465 -637 Q 376 -654 293 -687 Q 288 -654 286 -623 Q 285 -592 285 -562 Q 285 -347 358 -215 Q 432 -84 555 -84 Q 661 -84 768 -183 Q 875 -282 912 -420 Z"/>
</g>
</svg>