<svg xmlns="http://www.w3.org/2000/svg" xmlns:xlink="http://www.w3.org/1999/xlink" viewBox="0 0 7807 3431">
<title>headline</title>
<g transform="matrix(1,0,0,1,0,2432)">
  		<path character="h" fill="#CAD1D8" fill-opacity="1.0" stroke="none" stroke-width="0" stroke-linecap="butt" stroke-opacity="1.0" transform="matrix(1,0,0,1,-64,0)" d="M 110 -1920 L 406 -1920 L 406 -1102 L 723 -1102 L 723 -1920 L 1019 -1920 L 1019 0 L 723 0 L 723 -832 L 406 -832 L 406 0 L 110 0 L 110 -1920 Z"/>
		<path character="e" fill="#CAD1D8" fill-opacity="1.0" stroke="none" stroke-width="0" stroke-linecap="butt" stroke-opacity="1.0" transform="matrix(1,0,0,1,1097,0)" d="M 110 -1920 L 917 -1920 L 917 -1650 L 406 -1650 L 406 -1102 L 812 -1102 L 812 -832 L 406 -832 L 406 -270 L 917 -270 L 917 0 L 110 0 L 110 -1920 Z"/>
		<path character="a" fill="#CAD1D8" fill-opacity="1.0" stroke="none" stroke-width="0" stroke-linecap="butt" stroke-opacity="1.0" transform="matrix(1,0,0,1,2066,0)" d="M 339 -1920 L 739 -1920 L 1046 0 L 750 0 L 696 -370 L 696 -370 L 360 -370 L 306 0 L 32 0 L 339 -1920 M 661 -640 L 530 -1576 L 524 -1576 L 395 -640 L 661 -640 Z"/>
		<path character="d" fill="#CAD1D8" fill-opacity="1.0" stroke="none" stroke-width="0" stroke-linecap="butt" stroke-opacity="1.0" transform="matrix(1,0,0,1,3163,0)" d="M 110 -1920 L 562 -1920 Q 782 -1920 892 -1799 Q 1003 -1679 1003 -1445 L 1003 -475 Q 1003 -241 892 -120 Q 782 0 562 0 L 110 0 L 110 -1920 M 556 -270 Q 629 -270 668 -314 Q 707 -358 707 -458 L 707 -1462 Q 707 -1562 668 -1606 Q 629 -1650 556 -1650 L 406 -1650 L 406 -270 L 556 -270 Z"/>
		<path character="l" fill="#CAD1D8" fill-opacity="1.0" stroke="none" stroke-width="0" stroke-linecap="butt" stroke-opacity="1.0" transform="matrix(1,0,0,1,4260,0)" d="M 110 -1920 L 406 -1920 L 406 -270 L 892 -270 L 892 0 L 110 0 L 110 -1920 Z"/>
		<path character="i" fill="#CAD1D8" fill-opacity="1.0" stroke="none" stroke-width="0" stroke-linecap="butt" stroke-opacity="1.0" transform="matrix(1,0,0,1,5165,0)" d="M 110 -1920 L 406 -1920 L 406 0 L 110 0 L 110 -1920 Z"/>
		<path character="n" fill="#CAD1D8" fill-opacity="1.0" stroke="none" stroke-width="0" stroke-linecap="butt" stroke-opacity="1.0" transform="matrix(1,0,0,1,5686,0)" d="M 110 -1920 L 481 -1920 L 769 -759 L 774 -759 L 774 -1920 L 1038 -1920 L 1038 0 L 734 0 L 379 -1382 L 374 -1382 L 374 0 L 110 0 L 110 -1920 Z"/>
		<path character="e" fill="#CAD1D8" fill-opacity="1.0" stroke="none" stroke-width="0" stroke-linecap="butt" stroke-opacity="1.0" transform="matrix(1,0,0,1,6847,0)" d="M 110 -1920 L 917 -1920 L 917 -1650 L 406 -1650 L 406 -1102 L 812 -1102 L 812 -832 L 406 -832 L 406 -270 L 917 -270 L 917 0 L 110 0 L 110 -1920 Z"/>
</g>
</svg>