<svg xmlns="http://www.w3.org/2000/svg" xmlns:xlink="http://www.w3.org/1999/xlink" viewBox="0 0 14161 2765">
<title>headline</title>
<g transform="matrix(1,0,0,1,0,2304)">
  		<path character="h" fill="#CAD1D8" fill-opacity="1.0" stroke="none" stroke-width="0" stroke-linecap="butt" stroke-opacity="1.0" transform="matrix(1,0,0,1,-448,0)" d="M 472 -256 L 472 -1664 L 499 -1664 L 499 -1006 L 1523 -1006 L 1523 -1664 L 1550 -1664 L 1550 -256 L 1523 -256 L 1523 -979 L 499 -979 L 499 -256 L 472 -256 Z"/>
		<path character="e" fill="#CAD1D8" fill-opacity="1.0" stroke="none" stroke-width="0" stroke-linecap="butt" stroke-opacity="1.0" transform="matrix(1,0,0,1,1612,0)" d="M 1374 -283 L 1374 -256 L 475 -256 L 475 -1664 L 1374 -1664 L 1374 -1638 L 501 -1638 L 501 -1006 L 1157 -1006 L 1157 -978 L 501 -978 L 501 -283 L 1374 -283 Z"/>
		<path character="a" fill="#CAD1D8" fill-opacity="1.0" stroke="none" stroke-width="0" stroke-linecap="butt" stroke-opacity="1.0" transform="matrix(1,0,0,1,3351,0)" d="M 453 -828 L 453 -749 L 1494 -749 L 1494 -828 Q 1494 -897 1482 -956 Q 1470 -1015 1451 -1066 L 1267 -1482 Q 1237 -1549 1205 -1593 Q 1173 -1638 1099 -1638 L 837 -1638 Q 757 -1638 725 -1593 Q 693 -1549 667 -1485 L 496 -1066 Q 477 -1015 465 -956 Q 453 -897 453 -828 M 1494 -256 L 1494 -723 L 453 -723 L 453 -256 L 427 -256 L 427 -811 Q 427 -884 439 -945 Q 451 -1007 472 -1064 L 643 -1492 Q 672 -1565 709 -1614 Q 747 -1664 837 -1664 L 1099 -1664 Q 1187 -1664 1223 -1614 Q 1259 -1565 1291 -1489 L 1475 -1064 Q 1496 -1007 1508 -945 Q 1520 -884 1520 -811 L 1520 -256 L 1494 -256 Z"/>
		<path character="d" fill="#CAD1D8" fill-opacity="1.0" stroke="none" stroke-width="0" stroke-linecap="butt" stroke-opacity="1.0" transform="matrix(1,0,0,1,5283,0)" d="M 475 -256 L 475 -1664 L 1120 -1664 Q 1256 -1664 1340 -1635 Q 1424 -1607 1469 -1558 Q 1515 -1510 1531 -1443 Q 1547 -1377 1547 -1302 L 1547 -611 Q 1547 -535 1532 -470 Q 1518 -405 1472 -358 Q 1427 -311 1341 -283 Q 1256 -256 1120 -256 L 475 -256 M 1120 -1638 L 501 -1638 L 501 -283 L 1120 -283 Q 1248 -283 1327 -308 Q 1406 -333 1448 -376 Q 1491 -419 1505 -480 Q 1520 -541 1520 -611 L 1520 -1302 Q 1520 -1372 1504 -1434 Q 1488 -1497 1445 -1541 Q 1403 -1586 1324 -1612 Q 1245 -1638 1120 -1638 Z"/>
		<path character="l" fill="#CAD1D8" fill-opacity="1.0" stroke="none" stroke-width="0" stroke-linecap="butt" stroke-opacity="1.0" transform="matrix(1,0,0,1,7278,0)" d="M 475 -256 L 475 -1664 L 501 -1664 L 501 -283 L 1430 -283 L 1430 -797 L 1456 -797 L 1456 -256 L 475 -256 Z"/>
		<path character="i" fill="#CAD1D8" fill-opacity="1.0" stroke="none" stroke-width="0" stroke-linecap="butt" stroke-opacity="1.0" transform="matrix(1,0,0,1,9146,0)" d="M 1229 -256 L 381 -256 L 381 -283 L 795 -283 L 795 -1638 L 381 -1638 L 381 -1664 L 1229 -1664 L 1229 -1638 L 821 -1638 L 821 -283 L 1229 -283 L 1229 -256 Z"/>
		<path character="n" fill="#CAD1D8" fill-opacity="1.0" stroke="none" stroke-width="0" stroke-linecap="butt" stroke-opacity="1.0" transform="matrix(1,0,0,1,10757,0)" d="M 536 -1641 L 1518 -564 L 1518 -1664 L 1544 -1664 L 1544 -256 L 1518 -256 L 1518 -524 L 509 -1631 Q 507 -1634 503 -1636 Q 499 -1639 496 -1639 Q 493 -1639 492 -1636 Q 491 -1634 491 -1631 L 491 -256 L 464 -256 L 464 -1633 Q 464 -1648 474 -1656 Q 485 -1664 496 -1664 Q 507 -1664 515 -1659 Q 523 -1654 536 -1641 Z"/>
		<path character="e" fill="#CAD1D8" fill-opacity="1.0" stroke="none" stroke-width="0" stroke-linecap="butt" stroke-opacity="1.0" transform="matrix(1,0,0,1,12753,0)" d="M 1374 -283 L 1374 -256 L 475 -256 L 475 -1664 L 1374 -1664 L 1374 -1638 L 501 -1638 L 501 -1006 L 1157 -1006 L 1157 -978 L 501 -978 L 501 -283 L 1374 -283 Z"/>
</g>
</svg>