<svg xmlns="http://www.w3.org/2000/svg" xmlns:xlink="http://www.w3.org/1999/xlink" viewBox="0 0 19625 3546">
<title>Xml Tree Viewer</title>
<g transform="matrix(1,0,0,1,0,2624)">
  		<path character="X" fill="#EA8872" fill-opacity="1.0" stroke="none" stroke-width="0" stroke-linecap="butt" stroke-opacity="1.0" transform="matrix(1,0,0,1,192,0)" d="M 1212 0 Q 857 0 712 -690 Q 563 -460 370 -249 Q 139 0 6 0 Q -71 0 -102 -25 Q -186 -93 -102 -134 Q -55 -155 49 -242 Q 153 -330 252 -435 Q 494 -685 649 -949 Q 598 -1177 582 -1396 Q 566 -1616 566 -1668 Q 566 -1753 572 -1799 Q 579 -1845 607 -1892 Q 636 -1939 678 -1974 Q 764 -2048 872 -2048 Q 894 -2048 901 -2036 Q 909 -2025 909 -2002 Q 909 -1969 895 -1879 Q 869 -1702 869 -1572 Q 869 -1382 886 -1210 L 1129 -1544 Q 1452 -1984 1684 -2036 Q 1699 -2039 1716 -2043 Q 1734 -2048 1760 -2048 Q 1787 -2048 1821 -2040 Q 1856 -2032 1882 -2019 Q 1943 -1988 1919 -1948 Q 1915 -1940 1898 -1932 Q 1881 -1924 1852 -1908 Q 1766 -1861 1686 -1798 Q 1472 -1645 1126 -1197 L 941 -948 Q 1058 -432 1231 -289 Q 1272 -256 1310 -256 Q 1348 -256 1372 -263 Q 1396 -270 1415 -280 L 1447 -295 Q 1461 -303 1474 -303 Q 1502 -303 1502 -272 Q 1502 -149 1384 -60 Q 1304 0 1212 0 Z"/>
		<path character="m" fill="#EA8872" fill-opacity="1.0" stroke="none" stroke-width="0" stroke-linecap="butt" stroke-opacity="1.0" transform="matrix(1,0,0,1,1681,0)" d="M 1084 -1088 Q 1008 -1088 806 -874 Q 655 -708 587 -624 L 469 -479 Q 392 -339 349 -247 L 278 -99 Q 251 -44 230 -22 Q 210 0 175 0 Q 140 0 108 -12 Q 76 -24 53 -44 Q 3 -85 3 -134 Q 3 -153 32 -210 L 81 -314 Q 105 -360 137 -432 L 210 -608 Q 365 -988 365 -1098 Q 365 -1158 326 -1186 L 299 -1204 Q 286 -1213 286 -1235 Q 286 -1258 304 -1278 Q 322 -1299 350 -1314 Q 410 -1344 469 -1344 Q 529 -1344 563 -1331 Q 597 -1318 622 -1296 Q 672 -1250 672 -1200 Q 672 -1150 659 -1099 Q 646 -1049 626 -997 Q 606 -945 584 -897 Q 532 -784 519 -758 Q 507 -733 512 -739 Q 752 -1050 801 -1107 Q 902 -1224 958 -1267 Q 1062 -1344 1154 -1344 Q 1247 -1344 1302 -1287 Q 1357 -1231 1357 -1139 Q 1357 -1058 1315 -949 Q 1273 -841 1259 -797 L 1452 -1046 L 1559 -1171 Q 1656 -1277 1729 -1310 Q 1803 -1344 1850 -1344 Q 1897 -1344 1942 -1327 Q 1987 -1311 2019 -1281 Q 2086 -1220 2086 -1119 Q 2086 -1021 2038 -918 Q 1991 -816 1955 -750 Q 1920 -685 1887 -619 Q 1792 -420 1792 -324 Q 1792 -256 1849 -256 Q 1904 -256 1949 -278 Q 1995 -301 2008 -301 Q 2036 -301 2036 -271 Q 2036 -144 1916 -58 Q 1836 0 1770 0 Q 1704 0 1663 -15 Q 1622 -31 1589 -64 Q 1516 -137 1516 -247 Q 1516 -358 1545 -451 Q 1574 -544 1613 -631 Q 1652 -718 1692 -791 Q 1733 -864 1754 -908 Q 1796 -996 1796 -1038 Q 1796 -1088 1742 -1088 Q 1671 -1088 1487 -860 Q 1348 -684 1294 -606 L 1204 -479 Q 1127 -339 1087 -247 L 1020 -99 Q 995 -44 976 -22 Q 958 0 925 0 Q 893 0 862 -10 Q 831 -20 809 -37 Q 757 -74 757 -115 Q 757 -156 785 -228 Q 814 -300 856 -389 L 1040 -765 Q 1138 -975 1138 -1031 Q 1138 -1088 1084 -1088 M 1214 -744 Q 1215 -744 1215 -746 L 1217 -748 Q 1214 -745 1214 -744 Z"/>
		<path character="l" fill="#EA8872" fill-opacity="1.0" stroke="none" stroke-width="0" stroke-linecap="butt" stroke-opacity="1.0" transform="matrix(1,0,0,1,3873,0)" d="M 159 -65 Q 126 -99 105 -151 Q 85 -204 85 -274 Q 85 -344 117 -461 Q 150 -578 200 -728 L 310 -1052 Q 545 -1729 581 -2099 Q 593 -2208 689 -2208 Q 749 -2208 789 -2180 Q 865 -2123 862 -2054 Q 860 -1985 837 -1885 Q 815 -1786 779 -1668 Q 744 -1551 698 -1420 L 517 -899 Q 361 -455 361 -325 Q 361 -256 419 -256 Q 474 -256 519 -272 Q 564 -288 578 -288 Q 605 -288 605 -259 Q 605 -138 486 -56 Q 406 0 339 0 Q 273 0 232 -15 Q 192 -31 159 -65 Z"/>
		<path character="T" fill="#EA8872" fill-opacity="1.0" stroke="none" stroke-width="0" stroke-linecap="butt" stroke-opacity="1.0" transform="matrix(1,0,0,1,5507,0)" d="M 1600 -1790 Q 1562 -1759 1511 -1743 Q 1461 -1728 1376 -1728 Q 1292 -1728 1156 -1744 Q 1125 -1659 1092 -1546 L 941 -1037 Q 662 -121 345 -9 Q 323 0 288 0 Q 253 0 231 -8 Q 210 -17 196 -30 Q 167 -54 167 -77 Q 167 -101 179 -109 L 213 -130 Q 402 -252 559 -784 L 654 -1103 Q 781 -1533 891 -1779 Q 788 -1792 734 -1792 Q 579 -1792 511 -1745 Q 444 -1698 417 -1643 Q 390 -1589 389 -1568 Q 385 -1532 365 -1522 Q 345 -1513 317 -1513 Q 289 -1513 258 -1534 Q 228 -1555 209 -1587 Q 167 -1654 176 -1737 Q 185 -1820 229 -1880 Q 273 -1940 333 -1978 Q 445 -2048 569 -2048 Q 693 -2048 804 -2028 Q 915 -2008 1025 -1983 Q 1318 -1920 1398 -1920 Q 1478 -1920 1516 -1937 Q 1555 -1955 1582 -1990 Q 1610 -2025 1621 -2036 Q 1633 -2048 1658 -2048 Q 1697 -2048 1692 -1982 Q 1687 -1916 1663 -1868 Q 1639 -1821 1600 -1790 Z"/>
		<path character="r" fill="#EA8872" fill-opacity="1.0" stroke="none" stroke-width="0" stroke-linecap="butt" stroke-opacity="1.0" transform="matrix(1,0,0,1,6803,0)" d="M 99 -43 Q 73 -63 57 -87 Q 42 -111 40 -128 Q 39 -145 47 -170 Q 56 -195 71 -232 Q 338 -877 338 -1098 Q 334 -1160 295 -1186 L 269 -1204 Q 257 -1213 256 -1235 Q 256 -1258 273 -1278 Q 290 -1299 317 -1314 Q 374 -1344 433 -1344 Q 493 -1344 526 -1331 Q 560 -1318 584 -1296 Q 634 -1250 634 -1198 Q 635 -1146 622 -1093 Q 610 -1040 593 -989 Q 576 -938 559 -892 Q 542 -846 537 -824 Q 526 -779 529 -767 Q 560 -794 567 -820 L 618 -916 Q 789 -1219 951 -1317 Q 999 -1344 1065 -1344 Q 1131 -1344 1171 -1298 Q 1212 -1252 1214 -1196 Q 1216 -1140 1206 -1102 Q 1197 -1065 1177 -1033 Q 1134 -960 1072 -960 Q 1055 -960 1041 -972 L 1012 -997 Q 968 -1035 928 -1035 Q 888 -1035 831 -983 Q 774 -932 712 -852 Q 505 -584 374 -251 L 316 -103 Q 294 -47 277 -23 Q 260 0 226 0 Q 193 0 159 -12 Q 126 -24 99 -43 Z"/>
		<path character="e" fill="#EA8872" fill-opacity="1.0" stroke="none" stroke-width="0" stroke-linecap="butt" stroke-opacity="1.0" transform="matrix(1,0,0,1,7908,0)" d="M 108 -463 Q 113 -575 146 -677 Q 179 -779 234 -875 Q 289 -971 363 -1056 Q 437 -1142 524 -1206 Q 712 -1344 903 -1344 Q 1128 -1344 1202 -1164 Q 1229 -1102 1227 -1018 Q 1226 -935 1194 -864 Q 1163 -793 1107 -735 Q 1051 -677 974 -631 Q 898 -585 807 -553 Q 621 -489 408 -489 Q 403 -471 401 -434 Q 400 -397 409 -351 Q 419 -306 441 -271 Q 488 -192 578 -192 Q 730 -192 874 -281 Q 925 -311 957 -343 Q 990 -375 1013 -375 Q 1037 -375 1054 -347 Q 1072 -319 1072 -284 Q 1072 -215 1033 -164 Q 868 0 541 0 Q 348 0 231 -113 Q 100 -242 108 -463 M 874 -1194 Q 736 -1194 609 -1004 Q 502 -841 436 -617 Q 655 -639 817 -791 Q 965 -933 965 -1063 Q 965 -1194 874 -1194 Z"/>
		<path character="e" fill="#EA8872" fill-opacity="1.0" stroke="none" stroke-width="0" stroke-linecap="butt" stroke-opacity="1.0" transform="matrix(1,0,0,1,9204,0)" d="M 108 -463 Q 113 -575 146 -677 Q 179 -779 234 -875 Q 289 -971 363 -1056 Q 437 -1142 524 -1206 Q 712 -1344 903 -1344 Q 1128 -1344 1202 -1164 Q 1229 -1102 1227 -1018 Q 1226 -935 1194 -864 Q 1163 -793 1107 -735 Q 1051 -677 974 -631 Q 898 -585 807 -553 Q 621 -489 408 -489 Q 403 -471 401 -434 Q 400 -397 409 -351 Q 419 -306 441 -271 Q 488 -192 578 -192 Q 730 -192 874 -281 Q 925 -311 957 -343 Q 990 -375 1013 -375 Q 1037 -375 1054 -347 Q 1072 -319 1072 -284 Q 1072 -215 1033 -164 Q 868 0 541 0 Q 348 0 231 -113 Q 100 -242 108 -463 M 874 -1194 Q 736 -1194 609 -1004 Q 502 -841 436 -617 Q 655 -639 817 -791 Q 965 -933 965 -1063 Q 965 -1194 874 -1194 Z"/>
		<path character="V" fill="#EA8872" fill-opacity="1.0" stroke="none" stroke-width="0" stroke-linecap="butt" stroke-opacity="1.0" transform="matrix(1,0,0,1,11350,0)" d="M 276 -134 Q 247 -191 232 -254 Q 218 -317 218 -387 Q 218 -457 242 -572 Q 266 -687 308 -814 Q 350 -942 406 -1075 Q 462 -1208 525 -1335 Q 654 -1599 781 -1792 L 767 -1792 Q 610 -1792 476 -1721 Q 444 -1696 413 -1696 Q 350 -1696 291 -1759 Q 155 -1905 454 -2001 Q 595 -2048 681 -2048 Q 767 -2048 819 -2021 Q 872 -1994 908 -1958 Q 966 -1900 990 -1843 Q 1015 -1787 1015 -1744 Q 1015 -1702 989 -1630 Q 963 -1559 924 -1478 L 835 -1304 Q 788 -1214 740 -1114 Q 693 -1015 646 -915 Q 599 -815 562 -721 Q 482 -510 482 -363 Q 482 -274 499 -216 Q 557 -304 641 -400 L 824 -599 Q 1143 -929 1239 -1038 Q 1463 -1292 1583 -1516 Q 1631 -1606 1631 -1679 Q 1631 -1814 1554 -1883 Q 1526 -1909 1546 -1947 Q 1567 -1985 1588 -2004 Q 1639 -2048 1703 -2048 Q 1768 -2048 1812 -2022 Q 1857 -1997 1885 -1958 Q 1941 -1881 1941 -1766 Q 1941 -1652 1890 -1524 Q 1840 -1396 1758 -1273 Q 1676 -1151 1571 -1036 Q 1467 -922 1358 -818 L 962 -457 Q 782 -282 722 -218 Q 606 -94 573 -54 Q 541 -15 514 -7 Q 488 0 443 0 Q 399 0 352 -39 Q 306 -78 276 -134 Z"/>
		<path character="i" fill="#EA8872" fill-opacity="1.0" stroke="none" stroke-width="0" stroke-linecap="butt" stroke-opacity="1.0" transform="matrix(1,0,0,1,12966,0)" d="M 803 -1732 Q 774 -1701 737 -1682 Q 701 -1663 660 -1658 Q 620 -1654 583 -1671 Q 547 -1688 521 -1720 Q 465 -1785 465 -1852 Q 465 -1919 486 -1952 Q 508 -1986 541 -2007 Q 604 -2048 659 -2048 Q 715 -2048 746 -2040 Q 777 -2032 803 -2014 Q 868 -1970 868 -1908 Q 868 -1846 850 -1804 Q 832 -1763 803 -1732 M 534 -256 Q 568 -256 568 -212 Q 568 -153 515 -91 Q 436 0 303 0 Q 151 0 95 -121 Q 74 -163 74 -223 Q 74 -284 95 -358 Q 117 -432 149 -513 Q 181 -595 219 -679 L 289 -841 Q 365 -1022 365 -1080 Q 365 -1138 352 -1157 Q 340 -1176 326 -1186 L 299 -1204 Q 286 -1213 286 -1235 Q 286 -1258 304 -1278 Q 322 -1299 350 -1314 Q 410 -1344 488 -1344 Q 681 -1344 681 -1248 Q 681 -1135 619 -990 Q 558 -846 515 -757 L 436 -585 Q 349 -395 349 -311 Q 349 -256 407 -256 Q 463 -256 492 -256 Q 521 -256 534 -256 Z"/>
		<path character="e" fill="#EA8872" fill-opacity="1.0" stroke="none" stroke-width="0" stroke-linecap="butt" stroke-opacity="1.0" transform="matrix(1,0,0,1,13751,0)" d="M 108 -463 Q 113 -575 146 -677 Q 179 -779 234 -875 Q 289 -971 363 -1056 Q 437 -1142 524 -1206 Q 712 -1344 903 -1344 Q 1128 -1344 1202 -1164 Q 1229 -1102 1227 -1018 Q 1226 -935 1194 -864 Q 1163 -793 1107 -735 Q 1051 -677 974 -631 Q 898 -585 807 -553 Q 621 -489 408 -489 Q 403 -471 401 -434 Q 400 -397 409 -351 Q 419 -306 441 -271 Q 488 -192 578 -192 Q 730 -192 874 -281 Q 925 -311 957 -343 Q 990 -375 1013 -375 Q 1037 -375 1054 -347 Q 1072 -319 1072 -284 Q 1072 -215 1033 -164 Q 868 0 541 0 Q 348 0 231 -113 Q 100 -242 108 -463 M 874 -1194 Q 736 -1194 609 -1004 Q 502 -841 436 -617 Q 655 -639 817 -791 Q 965 -933 965 -1063 Q 965 -1194 874 -1194 Z"/>
		<path character="w" fill="#EA8872" fill-opacity="1.0" stroke="none" stroke-width="0" stroke-linecap="butt" stroke-opacity="1.0" transform="matrix(1,0,0,1,15048,0)" d="M 529 -153 Q 350 0 248 0 Q 147 0 108 -103 Q 93 -139 93 -170 Q 93 -254 120 -333 Q 147 -412 173 -480 L 289 -773 Q 356 -953 370 -1024 Q 385 -1095 366 -1120 Q 348 -1145 323 -1164 Q 299 -1183 277 -1197 Q 256 -1212 256 -1234 Q 256 -1257 275 -1278 Q 294 -1299 326 -1314 Q 389 -1344 456 -1344 Q 524 -1344 562 -1330 Q 601 -1317 626 -1296 Q 675 -1253 675 -1192 Q 675 -1132 654 -1056 Q 634 -981 603 -896 Q 572 -812 534 -721 L 462 -541 Q 377 -324 358 -216 Q 482 -257 685 -514 Q 907 -795 1078 -1156 Q 1097 -1201 1126 -1214 Q 1173 -1236 1246 -1236 Q 1360 -1236 1364 -1169 Q 1366 -1129 1342 -1080 Q 1318 -1031 1302 -998 L 1251 -894 Q 1097 -585 1097 -392 Q 1097 -257 1171 -208 Q 1192 -192 1235 -192 Q 1278 -192 1337 -222 Q 1397 -253 1450 -306 Q 1504 -360 1550 -431 Q 1597 -502 1631 -583 Q 1704 -753 1704 -885 Q 1704 -1110 1618 -1216 Q 1589 -1250 1635 -1296 Q 1684 -1344 1788 -1344 Q 1915 -1344 1961 -1204 Q 1979 -1151 1979 -1045 Q 1979 -940 1941 -811 Q 1903 -682 1838 -563 Q 1773 -444 1688 -341 Q 1604 -238 1511 -162 Q 1311 0 1141 0 Q 848 0 848 -363 Q 848 -447 864 -526 Q 709 -307 529 -153 Z"/>
		<path character="e" fill="#EA8872" fill-opacity="1.0" stroke="none" stroke-width="0" stroke-linecap="butt" stroke-opacity="1.0" transform="matrix(1,0,0,1,17112,0)" d="M 108 -463 Q 113 -575 146 -677 Q 179 -779 234 -875 Q 289 -971 363 -1056 Q 437 -1142 524 -1206 Q 712 -1344 903 -1344 Q 1128 -1344 1202 -1164 Q 1229 -1102 1227 -1018 Q 1226 -935 1194 -864 Q 1163 -793 1107 -735 Q 1051 -677 974 -631 Q 898 -585 807 -553 Q 621 -489 408 -489 Q 403 -471 401 -434 Q 400 -397 409 -351 Q 419 -306 441 -271 Q 488 -192 578 -192 Q 730 -192 874 -281 Q 925 -311 957 -343 Q 990 -375 1013 -375 Q 1037 -375 1054 -347 Q 1072 -319 1072 -284 Q 1072 -215 1033 -164 Q 868 0 541 0 Q 348 0 231 -113 Q 100 -242 108 -463 M 874 -1194 Q 736 -1194 609 -1004 Q 502 -841 436 -617 Q 655 -639 817 -791 Q 965 -933 965 -1063 Q 965 -1194 874 -1194 Z"/>
		<path character="r" fill="#EA8872" fill-opacity="1.0" stroke="none" stroke-width="0" stroke-linecap="butt" stroke-opacity="1.0" transform="matrix(1,0,0,1,18409,0)" d="M 99 -43 Q 73 -63 57 -87 Q 42 -111 40 -128 Q 39 -145 47 -170 Q 56 -195 71 -232 Q 338 -877 338 -1098 Q 334 -1160 295 -1186 L 269 -1204 Q 257 -1213 256 -1235 Q 256 -1258 273 -1278 Q 290 -1299 317 -1314 Q 374 -1344 433 -1344 Q 493 -1344 526 -1331 Q 560 -1318 584 -1296 Q 634 -1250 634 -1198 Q 635 -1146 622 -1093 Q 610 -1040 593 -989 Q 576 -938 559 -892 Q 542 -846 537 -824 Q 526 -779 529 -767 Q 560 -794 567 -820 L 618 -916 Q 789 -1219 951 -1317 Q 999 -1344 1065 -1344 Q 1131 -1344 1171 -1298 Q 1212 -1252 1214 -1196 Q 1216 -1140 1206 -1102 Q 1197 -1065 1177 -1033 Q 1134 -960 1072 -960 Q 1055 -960 1041 -972 L 1012 -997 Q 968 -1035 928 -1035 Q 888 -1035 831 -983 Q 774 -932 712 -852 Q 505 -584 374 -251 L 316 -103 Q 294 -47 277 -23 Q 260 0 226 0 Q 193 0 159 -12 Q 126 -24 99 -43 Z"/>
</g>
</svg>