<svg xmlns="http://www.w3.org/2000/svg" xmlns:xlink="http://www.w3.org/1999/xlink" viewBox="0 0 12999 3597">
<title>Import your Data</title>
<g transform="matrix(1,0,0,1,0,2752)">
  		<path character="I" fill="#EA8872" fill-opacity="1.0" stroke="none" stroke-width="10px" stroke-linecap="butt" stroke-opacity="1.0" transform="matrix(1,0,0,1,-128,0)" d="M 381 0 Q 317 0 219 0 Q 200 0 185 -14 Q 171 -28 171 -44 Q 171 -80 216 -80 L 320 -80 Q 320 -394 301 -872 Q 291 -1255 280 -1473 L 283 -1613 L 283 -1793 Q 283 -1930 277 -1968 L 184 -1968 Q 157 -1968 157 -2004 Q 157 -2027 179 -2040 Q 197 -2048 277 -2048 L 352 -2048 Q 392 -2048 453 -2048 Q 475 -2048 488 -2038 Q 501 -2029 501 -2011 Q 501 -1995 493 -1981 Q 485 -1968 469 -1968 Q 451 -1968 437 -1968 L 405 -1968 L 379 -1968 Q 352 -1968 347 -1955 L 341 -1930 Q 341 -1719 376 -1080 Q 408 -489 408 -230 L 408 -154 Q 405 -118 405 -80 L 501 -80 Q 563 -80 563 -44 Q 563 -28 551 -14 Q 539 0 525 0 L 381 0 Z"/>
		<path character="m" fill="#EA8872" fill-opacity="1.0" stroke="none" stroke-width="10px" stroke-linecap="butt" stroke-opacity="1.0" transform="matrix(1,0,0,1,585,0)" d="M 1245 127 Q 1192 127 1192 -44 L 1192 -221 Q 1192 -606 1176 -823 L 1168 -921 Q 1157 -988 1157 -1039 Q 1157 -1130 1163 -1205 L 1168 -1371 Q 1168 -1454 1157 -1496 Q 1104 -1459 835 -376 L 832 -335 Q 824 -269 811 -229 Q 803 -200 788 -184 Q 773 -168 755 -168 Q 712 -168 693 -189 Q 675 -211 675 -256 Q 675 -327 607 -627 Q 539 -928 460 -1204 Q 381 -1481 352 -1510 Q 349 -1417 331 -1071 Q 293 -459 293 -108 L 296 -2 Q 285 32 240 32 Q 232 32 213 17 Q 195 3 195 -5 Q 195 -244 237 -845 Q 277 -1404 277 -1683 Q 277 -1699 272 -1715 Q 264 -1734 264 -1744 Q 264 -1792 333 -1792 Q 379 -1792 387 -1746 Q 397 -1684 397 -1653 L 400 -1621 Q 413 -1552 477 -1409 Q 528 -1294 555 -1209 Q 571 -1146 584 -1106 Q 627 -952 640 -877 L 675 -808 Q 683 -768 707 -678 Q 731 -577 741 -513 Q 752 -449 752 -391 Q 781 -437 918 -944 Q 1056 -1451 1080 -1592 Q 1083 -1597 1084 -1606 Q 1085 -1616 1088 -1632 Q 1093 -1668 1112 -1738 Q 1133 -1792 1176 -1792 Q 1195 -1792 1219 -1775 Q 1243 -1759 1243 -1743 Q 1243 -614 1277 -549 L 1277 -410 Q 1275 -349 1275 -269 Q 1275 -99 1293 -13 Q 1296 -11 1297 -5 Q 1299 0 1301 8 Q 1304 19 1304 32 Q 1304 64 1286 95 Q 1269 127 1245 127 M 1157 -1496 L 1155 -1496 L 1149 -1494 L 1157 -1491 L 1157 -1496 Z"/>
		<path character="p" fill="#EA8872" fill-opacity="1.0" stroke="none" stroke-width="10px" stroke-linecap="butt" stroke-opacity="1.0" transform="matrix(1,0,0,1,2130,0)" d="M 229 42 Q 200 -130 200 -352 Q 200 -439 208 -606 L 213 -860 Q 195 -898 195 -922 Q 221 -967 221 -1181 Q 221 -1693 208 -1727 Q 232 -1792 245 -1792 L 363 -1792 Q 392 -1792 446 -1762 Q 501 -1733 539 -1700 Q 605 -1636 605 -1371 Q 605 -1228 597 -1153 Q 592 -1100 580 -1069 Q 568 -1038 544 -999 Q 504 -935 408 -888 Q 368 -865 296 -843 L 296 -518 Q 296 -450 309 -250 L 315 -163 L 320 15 Q 320 64 269 64 L 229 42 M 315 -948 Q 392 -948 445 -1023 Q 464 -1051 480 -1098 Q 496 -1145 501 -1190 Q 517 -1270 517 -1376 L 517 -1451 Q 517 -1490 514 -1526 Q 512 -1562 504 -1595 Q 493 -1631 476 -1655 Q 459 -1679 429 -1695 Q 397 -1712 352 -1712 Q 320 -1712 306 -1695 Q 293 -1679 293 -1637 Q 293 -1570 301 -1436 L 307 -1235 Q 307 -1163 301 -1104 L 296 -975 L 315 -948 Z"/>
		<path character="o" fill="#EA8872" fill-opacity="1.0" stroke="none" stroke-width="10px" stroke-linecap="butt" stroke-opacity="1.0" transform="matrix(1,0,0,1,2843,0)" d="M 469 32 Q 157 32 157 -952 L 157 -1046 Q 157 -1792 349 -1792 Q 363 -1792 387 -1784 Q 472 -1755 555 -1747 Q 605 -1736 656 -1642 Q 712 -1546 740 -1388 Q 768 -1230 768 -1065 L 763 -1051 Q 763 -963 765 -893 L 768 -733 Q 768 -597 757 -487 Q 741 -321 704 -201 Q 680 -128 649 -80 Q 619 -32 573 0 Q 531 32 469 32 M 459 -48 Q 563 -48 613 -194 Q 664 -343 675 -497 Q 685 -656 685 -752 Q 685 -858 669 -1065 Q 656 -1297 656 -1379 L 645 -1400 L 651 -1414 Q 651 -1535 585 -1623 Q 520 -1712 427 -1712 Q 304 -1712 280 -1589 Q 275 -1547 269 -1469 Q 269 -1273 253 -1201 Q 253 -1161 245 -1076 L 240 -951 Q 240 -893 243 -848 L 245 -741 Q 245 -616 267 -454 Q 283 -335 304 -252 Q 325 -170 365 -112 Q 405 -48 459 -48 Z"/>
		<path character="r" fill="#EA8872" fill-opacity="1.0" stroke="none" stroke-width="10px" stroke-linecap="butt" stroke-opacity="1.0" transform="matrix(1,0,0,1,3748,0)" d="M 600 19 Q 568 -16 530 -165 Q 493 -314 461 -500 Q 440 -652 400 -801 Q 368 -934 339 -934 L 331 -934 Q 272 -934 272 -897 Q 272 -707 293 -320 Q 304 -83 317 -43 L 296 0 L 259 0 L 237 -19 Q 195 -1245 195 -1691 Q 195 -1720 199 -1738 Q 203 -1757 216 -1773 Q 227 -1792 253 -1792 Q 389 -1792 472 -1725 Q 555 -1658 555 -1532 L 555 -1337 Q 555 -1286 521 -1200 Q 488 -1115 448 -1043 L 413 -976 Q 443 -840 529 -488 Q 616 -136 624 -114 Q 627 -112 631 -101 Q 635 -90 648 -69 Q 667 -32 667 -5 Q 667 32 637 32 L 600 19 M 285 -999 Q 336 -999 376 -1049 Q 416 -1100 440 -1179 Q 483 -1340 483 -1435 Q 483 -1496 476 -1535 Q 469 -1575 453 -1620 Q 421 -1712 301 -1712 Q 288 -1712 280 -1689 Q 272 -1667 272 -1643 Q 272 -1467 277 -1324 Q 280 -1182 280 -1005 L 285 -999 Z"/>
		<path character="t" fill="#EA8872" fill-opacity="1.0" stroke="none" stroke-width="10px" stroke-linecap="butt" stroke-opacity="1.0" transform="matrix(1,0,0,1,4525,0)" d="M 368 -38 L 365 -138 Q 363 -181 363 -235 Q 363 -262 365 -280 L 368 -329 Q 368 -356 357 -394 Q 357 -575 331 -1067 Q 304 -1542 301 -1712 Q 136 -1712 80 -1723 Q 27 -1742 27 -1783 Q 40 -1792 77 -1792 Q 157 -1792 309 -1792 Q 448 -1792 541 -1792 L 597 -1792 L 653 -1792 Q 701 -1792 701 -1745 Q 701 -1730 684 -1721 Q 667 -1712 643 -1712 Q 589 -1712 531 -1712 L 416 -1712 Q 405 -1712 405 -1704 Q 403 -1696 403 -1653 Q 403 -1391 435 -859 Q 464 -308 464 -68 Q 464 -49 441 -33 Q 419 -17 397 -17 L 368 -38 Z"/>
		<path character="y" fill="#EA8872" fill-opacity="1.0" stroke="none" stroke-width="10px" stroke-linecap="butt" stroke-opacity="1.0" transform="matrix(1,0,0,1,5759,0)" d="M 368 0 Q 360 0 346 -10 Q 333 -21 331 -29 Q 355 -91 355 -485 Q 355 -561 347 -702 L 333 -887 L 317 -920 L 325 -951 Q 309 -988 277 -1074 Q 245 -1161 213 -1250 Q 117 -1499 88 -1609 Q 72 -1661 64 -1706 L 101 -1734 Q 128 -1729 179 -1567 Q 219 -1451 251 -1339 L 283 -1239 Q 331 -1077 352 -1072 L 363 -1120 L 357 -1134 Q 379 -1161 411 -1325 Q 445 -1513 477 -1642 Q 512 -1792 547 -1792 Q 560 -1792 570 -1784 Q 581 -1776 581 -1765 Q 581 -1725 501 -1450 Q 461 -1318 435 -1203 Q 403 -1067 403 -960 Q 416 -934 416 -916 Q 416 -903 408 -879 Q 400 -856 400 -840 Q 400 -827 411 -723 Q 421 -652 421 -603 Q 421 -488 424 -397 L 424 -188 L 424 -177 Q 424 0 368 0 Z"/>
		<path character="o" fill="#EA8872" fill-opacity="1.0" stroke="none" stroke-width="10px" stroke-linecap="butt" stroke-opacity="1.0" transform="matrix(1,0,0,1,6472,0)" d="M 469 32 Q 157 32 157 -952 L 157 -1046 Q 157 -1792 349 -1792 Q 363 -1792 387 -1784 Q 472 -1755 555 -1747 Q 605 -1736 656 -1642 Q 712 -1546 740 -1388 Q 768 -1230 768 -1065 L 763 -1051 Q 763 -963 765 -893 L 768 -733 Q 768 -597 757 -487 Q 741 -321 704 -201 Q 680 -128 649 -80 Q 619 -32 573 0 Q 531 32 469 32 M 459 -48 Q 563 -48 613 -194 Q 664 -343 675 -497 Q 685 -656 685 -752 Q 685 -858 669 -1065 Q 656 -1297 656 -1379 L 645 -1400 L 651 -1414 Q 651 -1535 585 -1623 Q 520 -1712 427 -1712 Q 304 -1712 280 -1589 Q 275 -1547 269 -1469 Q 269 -1273 253 -1201 Q 253 -1161 245 -1076 L 240 -951 Q 240 -893 243 -848 L 245 -741 Q 245 -616 267 -454 Q 283 -335 304 -252 Q 325 -170 365 -112 Q 405 -48 459 -48 Z"/>
		<path character="u" fill="#EA8872" fill-opacity="1.0" stroke="none" stroke-width="10px" stroke-linecap="butt" stroke-opacity="1.0" transform="matrix(1,0,0,1,7377,0)" d="M 472 0 Q 429 0 380 -28 Q 331 -56 299 -94 Q 261 -142 240 -364 Q 219 -586 213 -873 Q 213 -937 211 -969 Q 205 -1637 189 -1759 L 205 -1796 Q 267 -1788 267 -1650 L 275 -946 Q 275 -872 288 -665 Q 304 -479 304 -383 Q 304 -80 504 -80 Q 627 -80 661 -638 L 664 -691 Q 683 -1421 683 -1772 L 680 -1796 Q 677 -1807 677 -1820 Q 677 -1856 723 -1856 Q 755 -1856 763 -1840 Q 768 -1813 768 -1745 Q 768 -1539 752 -1469 L 755 -1453 Q 755 -1419 747 -1347 L 741 -1241 L 741 -1214 Q 744 -1203 744 -1187 Q 739 -1123 739 -1064 Q 736 -1045 736 -1005 Q 731 -751 725 -564 Q 717 -332 661 -171 Q 603 0 472 0 Z"/>
		<path character="r" fill="#EA8872" fill-opacity="1.0" stroke="none" stroke-width="10px" stroke-linecap="butt" stroke-opacity="1.0" transform="matrix(1,0,0,1,8346,0)" d="M 600 19 Q 568 -16 530 -165 Q 493 -314 461 -500 Q 440 -652 400 -801 Q 368 -934 339 -934 L 331 -934 Q 272 -934 272 -897 Q 272 -707 293 -320 Q 304 -83 317 -43 L 296 0 L 259 0 L 237 -19 Q 195 -1245 195 -1691 Q 195 -1720 199 -1738 Q 203 -1757 216 -1773 Q 227 -1792 253 -1792 Q 389 -1792 472 -1725 Q 555 -1658 555 -1532 L 555 -1337 Q 555 -1286 521 -1200 Q 488 -1115 448 -1043 L 413 -976 Q 443 -840 529 -488 Q 616 -136 624 -114 Q 627 -112 631 -101 Q 635 -90 648 -69 Q 667 -32 667 -5 Q 667 32 637 32 L 600 19 M 285 -999 Q 336 -999 376 -1049 Q 416 -1100 440 -1179 Q 483 -1340 483 -1435 Q 483 -1496 476 -1535 Q 469 -1575 453 -1620 Q 421 -1712 301 -1712 Q 288 -1712 280 -1689 Q 272 -1667 272 -1643 Q 272 -1467 277 -1324 Q 280 -1182 280 -1005 L 285 -999 Z"/>
		<path character="D" fill="#EA8872" fill-opacity="1.0" stroke="none" stroke-width="10px" stroke-linecap="butt" stroke-opacity="1.0" transform="matrix(1,0,0,1,9580,0)" d="M 309 0 Q 277 0 245 -16 Q 213 -32 213 -54 Q 213 -70 235 -108 Q 256 -143 253 -162 L 245 -400 L 227 -1139 L 221 -1466 Q 219 -1767 208 -1842 Q 203 -1872 187 -1910 Q 168 -1961 168 -1983 Q 168 -2048 371 -2048 L 384 -2048 Q 520 -2048 619 -1953 Q 696 -1880 757 -1723 Q 800 -1599 821 -1445 Q 832 -1364 840 -1196 L 840 -1112 Q 840 -944 796 -748 Q 752 -552 672 -381 Q 624 -273 548 -186 Q 472 -100 402 -50 Q 333 0 309 0 M 349 -136 Q 448 -188 525 -288 Q 603 -388 648 -508 Q 688 -609 714 -739 Q 741 -869 752 -981 Q 760 -1079 760 -1170 Q 760 -1968 331 -1968 Q 275 -1968 275 -1938 Q 275 -1842 285 -1711 Q 296 -1577 296 -1484 Q 296 -1334 317 -962 Q 336 -639 336 -442 L 336 -136 L 349 -136 Z"/>
		<path character="a" fill="#EA8872" fill-opacity="1.0" stroke="none" stroke-width="10px" stroke-linecap="butt" stroke-opacity="1.0" transform="matrix(1,0,0,1,10612,0)" d="M 717 0 Q 677 0 666 -9 Q 656 -19 651 -60 Q 627 -261 621 -310 L 608 -420 Q 549 -434 475 -434 L 379 -434 Q 315 -434 285 -434 Q 269 -434 267 -421 Q 267 -413 264 -413 L 259 -362 Q 256 -312 229 -163 Q 216 -88 197 -47 Q 176 0 157 0 Q 141 0 122 -14 Q 104 -29 104 -45 L 107 -53 L 109 -61 Q 157 -251 189 -438 L 221 -604 L 253 -807 Q 253 -807 283 -983 Q 296 -1055 331 -1215 Q 368 -1397 376 -1464 Q 379 -1472 387 -1562 Q 397 -1664 405 -1712 Q 413 -1781 421 -1792 L 440 -1792 Q 448 -1792 459 -1792 Q 491 -1792 507 -1807 Q 525 -1807 540 -1795 Q 555 -1783 555 -1767 Q 555 -1639 573 -1473 Q 584 -1387 589 -1331 Q 619 -986 739 -37 L 739 -31 Q 739 -10 717 0 M 595 -514 Q 568 -884 493 -1607 L 349 -920 Q 288 -624 288 -547 Q 288 -534 389 -524 Q 491 -514 568 -514 L 595 -514 Z"/>
		<path character="t" fill="#EA8872" fill-opacity="1.0" stroke="none" stroke-width="10px" stroke-linecap="butt" stroke-opacity="1.0" transform="matrix(1,0,0,1,11453,0)" d="M 368 -38 L 365 -138 Q 363 -181 363 -235 Q 363 -262 365 -280 L 368 -329 Q 368 -356 357 -394 Q 357 -575 331 -1067 Q 304 -1542 301 -1712 Q 136 -1712 80 -1723 Q 27 -1742 27 -1783 Q 40 -1792 77 -1792 Q 157 -1792 309 -1792 Q 448 -1792 541 -1792 L 597 -1792 L 653 -1792 Q 701 -1792 701 -1745 Q 701 -1730 684 -1721 Q 667 -1712 643 -1712 Q 589 -1712 531 -1712 L 416 -1712 Q 405 -1712 405 -1704 Q 403 -1696 403 -1653 Q 403 -1391 435 -859 Q 464 -308 464 -68 Q 464 -49 441 -33 Q 419 -17 397 -17 L 368 -38 Z"/>
		<path character="a" fill="#EA8872" fill-opacity="1.0" stroke="none" stroke-width="10px" stroke-linecap="butt" stroke-opacity="1.0" transform="matrix(1,0,0,1,12230,0)" d="M 717 0 Q 677 0 666 -9 Q 656 -19 651 -60 Q 627 -261 621 -310 L 608 -420 Q 549 -434 475 -434 L 379 -434 Q 315 -434 285 -434 Q 269 -434 267 -421 Q 267 -413 264 -413 L 259 -362 Q 256 -312 229 -163 Q 216 -88 197 -47 Q 176 0 157 0 Q 141 0 122 -14 Q 104 -29 104 -45 L 107 -53 L 109 -61 Q 157 -251 189 -438 L 221 -604 L 253 -807 Q 253 -807 283 -983 Q 296 -1055 331 -1215 Q 368 -1397 376 -1464 Q 379 -1472 387 -1562 Q 397 -1664 405 -1712 Q 413 -1781 421 -1792 L 440 -1792 Q 448 -1792 459 -1792 Q 491 -1792 507 -1807 Q 525 -1807 540 -1795 Q 555 -1783 555 -1767 Q 555 -1639 573 -1473 Q 584 -1387 589 -1331 Q 619 -986 739 -37 L 739 -31 Q 739 -10 717 0 M 595 -514 Q 568 -884 493 -1607 L 349 -920 Q 288 -624 288 -547 Q 288 -534 389 -524 Q 491 -514 568 -514 L 595 -514 Z"/>
</g>
</svg>