<svg xmlns="http://www.w3.org/2000/svg" xmlns:xlink="http://www.w3.org/1999/xlink" viewBox="0 0 41493 3546">
<title>Statosio for Wordpress Shortcodes</title>
<g transform="matrix(1,0,0,1,0,2624)">
  		<path character="S" fill="#EA8872" fill-opacity="1.0" stroke="none" stroke-width="0" stroke-linecap="butt" stroke-opacity="1.0" transform="matrix(1,0,0,1,0,0)" d="M 331 -494 L 319 -391 Q 319 -229 425 -170 Q 462 -150 513 -150 Q 564 -150 605 -168 Q 646 -186 672 -215 Q 727 -275 727 -354 Q 727 -433 695 -497 Q 664 -561 617 -625 L 512 -755 Q 385 -910 341 -1037 Q 298 -1164 298 -1271 Q 298 -1378 323 -1473 Q 349 -1568 395 -1654 Q 441 -1740 505 -1812 Q 570 -1884 648 -1936 Q 812 -2048 973 -2048 Q 1135 -2048 1225 -2003 Q 1316 -1959 1372 -1891 Q 1474 -1763 1474 -1581 Q 1474 -1412 1378 -1263 Q 1290 -1126 1181 -1090 Q 1158 -1078 1116 -1078 Q 1075 -1078 1047 -1091 Q 1019 -1104 998 -1126 Q 952 -1173 952 -1229 Q 952 -1267 974 -1280 Q 1074 -1335 1147 -1442 Q 1227 -1557 1231 -1672 Q 1235 -1788 1178 -1843 Q 1121 -1898 1026 -1898 Q 932 -1898 856 -1855 Q 780 -1812 725 -1738 Q 606 -1581 606 -1367 Q 606 -1225 704 -1067 Q 744 -999 792 -933 Q 840 -867 882 -798 Q 978 -637 978 -509 Q 978 -382 932 -294 Q 887 -206 812 -141 Q 651 0 445 0 Q 251 0 146 -109 Q 62 -197 62 -300 Q 62 -411 129 -488 Q 180 -549 227 -561 Q 331 -588 331 -494 Z"/>
		<path character="t" fill="#EA8872" fill-opacity="1.0" stroke="none" stroke-width="0" stroke-linecap="butt" stroke-opacity="1.0" transform="matrix(1,0,0,1,1297,0)" d="M 858 -382 Q 897 -382 897 -327 Q 897 -281 870 -237 Q 835 -156 729 -83 Q 608 0 486 0 Q 274 0 218 -193 Q 151 -421 419 -1162 Q 268 -1175 255 -1214 Q 251 -1226 251 -1239 Q 251 -1253 263 -1271 Q 276 -1289 295 -1306 Q 341 -1344 389 -1344 L 492 -1344 Q 634 -1637 694 -1677 Q 723 -1696 758 -1696 Q 794 -1696 817 -1688 Q 841 -1680 860 -1664 Q 902 -1629 902 -1586 Q 902 -1563 886 -1532 L 789 -1344 L 820 -1344 Q 902 -1344 952 -1344 Q 952 -1344 1026 -1344 Q 1051 -1344 1088 -1344 Q 1126 -1344 1126 -1318 Q 1126 -1153 717 -1153 L 706 -1153 L 617 -923 Q 466 -516 466 -353 Q 466 -307 487 -281 Q 508 -256 566 -256 Q 624 -256 671 -275 Q 718 -295 753 -319 Q 789 -343 814 -362 Q 840 -382 858 -382 Z"/>
		<path character="a" fill="#EA8872" fill-opacity="1.0" stroke="none" stroke-width="0" stroke-linecap="butt" stroke-opacity="1.0" transform="matrix(1,0,0,1,2273,0)" d="M 1108 -353 Q 1108 -233 1193 -233 Q 1252 -233 1291 -251 Q 1330 -270 1343 -270 Q 1370 -270 1370 -241 Q 1370 -128 1252 -47 Q 1128 38 998 -5 Q 912 -35 872 -135 Q 852 -186 852 -228 Q 852 -296 865 -372 Q 743 -128 562 -36 Q 490 0 408 0 Q 327 0 267 -33 Q 208 -66 166 -123 Q 80 -244 88 -427 Q 96 -656 226 -876 Q 345 -1082 528 -1212 Q 710 -1344 869 -1344 Q 1028 -1344 1125 -1216 Q 1216 -1344 1285 -1344 Q 1360 -1344 1398 -1317 Q 1470 -1265 1449 -1227 Q 1120 -564 1111 -402 Q 1108 -379 1108 -353 M 379 -350 Q 379 -192 481 -192 Q 558 -192 671 -322 Q 836 -513 964 -836 Q 1004 -938 1032 -1039 Q 1027 -1134 957 -1179 Q 933 -1194 886 -1194 Q 840 -1194 777 -1160 Q 715 -1126 657 -1067 Q 599 -1008 548 -927 Q 498 -846 460 -751 Q 379 -549 379 -350 Z"/>
		<path character="t" fill="#EA8872" fill-opacity="1.0" stroke="none" stroke-width="0" stroke-linecap="butt" stroke-opacity="1.0" transform="matrix(1,0,0,1,3762,0)" d="M 858 -382 Q 897 -382 897 -327 Q 897 -281 870 -237 Q 835 -156 729 -83 Q 608 0 486 0 Q 274 0 218 -193 Q 151 -421 419 -1162 Q 268 -1175 255 -1214 Q 251 -1226 251 -1239 Q 251 -1253 263 -1271 Q 276 -1289 295 -1306 Q 341 -1344 389 -1344 L 492 -1344 Q 634 -1637 694 -1677 Q 723 -1696 758 -1696 Q 794 -1696 817 -1688 Q 841 -1680 860 -1664 Q 902 -1629 902 -1586 Q 902 -1563 886 -1532 L 789 -1344 L 820 -1344 Q 902 -1344 952 -1344 Q 952 -1344 1026 -1344 Q 1051 -1344 1088 -1344 Q 1126 -1344 1126 -1318 Q 1126 -1153 717 -1153 L 706 -1153 L 617 -923 Q 466 -516 466 -353 Q 466 -307 487 -281 Q 508 -256 566 -256 Q 624 -256 671 -275 Q 718 -295 753 -319 Q 789 -343 814 -362 Q 840 -382 858 -382 Z"/>
		<path character="o" fill="#EA8872" fill-opacity="1.0" stroke="none" stroke-width="0" stroke-linecap="butt" stroke-opacity="1.0" transform="matrix(1,0,0,1,4739,0)" d="M 216 -100 Q 161 -152 129 -231 Q 98 -310 97 -418 Q 96 -526 124 -636 Q 152 -747 204 -850 Q 256 -953 328 -1043 Q 401 -1133 489 -1200 Q 681 -1344 887 -1344 Q 1157 -1344 1253 -1111 Q 1321 -943 1261 -704 Q 1206 -484 1059 -300 Q 913 -116 715 -39 Q 615 0 518 0 Q 422 0 346 -24 Q 271 -49 216 -100 M 467 -724 Q 428 -629 405 -529 Q 382 -429 383 -340 Q 384 -251 411 -200 Q 438 -150 498 -150 Q 559 -150 617 -190 Q 676 -231 731 -297 Q 786 -364 834 -451 Q 883 -538 920 -633 Q 1000 -839 997 -999 Q 997 -1140 938 -1179 Q 915 -1194 872 -1194 Q 829 -1194 774 -1156 Q 719 -1118 664 -1054 Q 609 -990 557 -904 Q 506 -819 467 -724 Z"/>
		<path character="s" fill="#EA8872" fill-opacity="1.0" stroke="none" stroke-width="0" stroke-linecap="butt" stroke-opacity="1.0" transform="matrix(1,0,0,1,6163,0)" d="M 32 -240 Q 32 -280 49 -314 Q 67 -349 93 -372 Q 148 -423 209 -423 Q 261 -423 261 -370 Q 261 -235 352 -182 Q 385 -163 420 -163 Q 455 -163 480 -170 Q 505 -178 526 -195 Q 574 -232 574 -283 Q 574 -335 550 -378 Q 526 -421 491 -469 L 416 -572 Q 259 -777 259 -951 Q 259 -1095 383 -1212 Q 525 -1344 747 -1344 Q 941 -1344 1050 -1254 Q 1139 -1181 1139 -1081 Q 1139 -978 1061 -916 Q 990 -861 919 -875 Q 887 -882 870 -907 Q 853 -933 863 -966 Q 874 -999 874 -1034 Q 874 -1070 861 -1100 Q 848 -1130 826 -1151 Q 780 -1194 729 -1194 Q 679 -1194 646 -1183 Q 613 -1172 588 -1151 Q 537 -1105 537 -1037 Q 537 -969 560 -919 Q 584 -870 619 -821 Q 654 -772 694 -721 Q 735 -671 769 -615 Q 852 -484 852 -385 Q 852 -286 810 -219 Q 768 -153 701 -105 Q 558 0 381 0 Q 211 0 113 -80 Q 32 -148 32 -240 Z"/>
		<path character="i" fill="#EA8872" fill-opacity="1.0" stroke="none" stroke-width="0" stroke-linecap="butt" stroke-opacity="1.0" transform="matrix(1,0,0,1,7332,0)" d="M 803 -1732 Q 774 -1701 737 -1682 Q 701 -1663 660 -1658 Q 620 -1654 583 -1671 Q 547 -1688 521 -1720 Q 465 -1785 465 -1852 Q 465 -1919 486 -1952 Q 508 -1986 541 -2007 Q 604 -2048 659 -2048 Q 715 -2048 746 -2040 Q 777 -2032 803 -2014 Q 868 -1970 868 -1908 Q 868 -1846 850 -1804 Q 832 -1763 803 -1732 M 534 -256 Q 568 -256 568 -212 Q 568 -153 515 -91 Q 436 0 303 0 Q 151 0 95 -121 Q 74 -163 74 -223 Q 74 -284 95 -358 Q 117 -432 149 -513 Q 181 -595 219 -679 L 289 -841 Q 365 -1022 365 -1080 Q 365 -1138 352 -1157 Q 340 -1176 326 -1186 L 299 -1204 Q 286 -1213 286 -1235 Q 286 -1258 304 -1278 Q 322 -1299 350 -1314 Q 410 -1344 488 -1344 Q 681 -1344 681 -1248 Q 681 -1135 619 -990 Q 558 -846 515 -757 L 436 -585 Q 349 -395 349 -311 Q 349 -256 407 -256 Q 463 -256 492 -256 Q 521 -256 534 -256 Z"/>
		<path character="o" fill="#EA8872" fill-opacity="1.0" stroke="none" stroke-width="0" stroke-linecap="butt" stroke-opacity="1.0" transform="matrix(1,0,0,1,8116,0)" d="M 216 -100 Q 161 -152 129 -231 Q 98 -310 97 -418 Q 96 -526 124 -636 Q 152 -747 204 -850 Q 256 -953 328 -1043 Q 401 -1133 489 -1200 Q 681 -1344 887 -1344 Q 1157 -1344 1253 -1111 Q 1321 -943 1261 -704 Q 1206 -484 1059 -300 Q 913 -116 715 -39 Q 615 0 518 0 Q 422 0 346 -24 Q 271 -49 216 -100 M 467 -724 Q 428 -629 405 -529 Q 382 -429 383 -340 Q 384 -251 411 -200 Q 438 -150 498 -150 Q 559 -150 617 -190 Q 676 -231 731 -297 Q 786 -364 834 -451 Q 883 -538 920 -633 Q 1000 -839 997 -999 Q 997 -1140 938 -1179 Q 915 -1194 872 -1194 Q 829 -1194 774 -1156 Q 719 -1118 664 -1054 Q 609 -990 557 -904 Q 506 -819 467 -724 Z"/>
		<path character="f" fill="#EA8872" fill-opacity="1.0" stroke="none" stroke-width="0" stroke-linecap="butt" stroke-opacity="1.0" transform="matrix(1,0,0,1,10390,0)" d="M -54 305 Q -54 278 -12 197 Q 29 116 78 -9 Q 127 -135 172 -271 Q 217 -408 263 -563 L 365 -905 L 228 -869 Q 177 -869 144 -923 Q 137 -937 137 -956 Q 137 -976 168 -1003 Q 200 -1030 245 -1053 Q 337 -1100 434 -1125 L 446 -1162 Q 482 -1272 514 -1390 Q 546 -1508 582 -1620 Q 618 -1733 664 -1834 Q 710 -1936 772 -2011 Q 908 -2176 1114 -2176 Q 1267 -2176 1356 -2095 Q 1445 -2014 1445 -1876 Q 1445 -1732 1362 -1626 Q 1293 -1539 1208 -1539 Q 1101 -1539 1063 -1633 Q 1053 -1657 1053 -1674 Q 1053 -1702 1092 -1725 Q 1164 -1778 1193 -1867 Q 1202 -1895 1202 -1922 Q 1202 -2026 1118 -2026 Q 1003 -2026 906 -1772 Q 877 -1695 848 -1602 L 725 -1195 Q 844 -1216 898 -1216 Q 953 -1216 995 -1203 Q 1037 -1190 1071 -1167 Q 1148 -1114 1148 -1037 Q 1148 -960 1075 -960 L 908 -960 Q 772 -960 656 -948 L 549 -574 Q 442 -192 376 -19 Q 310 154 247 274 Q 188 384 67 384 Q -54 384 -54 305 Z"/>
		<path character="o" fill="#EA8872" fill-opacity="1.0" stroke="none" stroke-width="0" stroke-linecap="butt" stroke-opacity="1.0" transform="matrix(1,0,0,1,11494,0)" d="M 216 -100 Q 161 -152 129 -231 Q 98 -310 97 -418 Q 96 -526 124 -636 Q 152 -747 204 -850 Q 256 -953 328 -1043 Q 401 -1133 489 -1200 Q 681 -1344 887 -1344 Q 1157 -1344 1253 -1111 Q 1321 -943 1261 -704 Q 1206 -484 1059 -300 Q 913 -116 715 -39 Q 615 0 518 0 Q 422 0 346 -24 Q 271 -49 216 -100 M 467 -724 Q 428 -629 405 -529 Q 382 -429 383 -340 Q 384 -251 411 -200 Q 438 -150 498 -150 Q 559 -150 617 -190 Q 676 -231 731 -297 Q 786 -364 834 -451 Q 883 -538 920 -633 Q 1000 -839 997 -999 Q 997 -1140 938 -1179 Q 915 -1194 872 -1194 Q 829 -1194 774 -1156 Q 719 -1118 664 -1054 Q 609 -990 557 -904 Q 506 -819 467 -724 Z"/>
		<path character="r" fill="#EA8872" fill-opacity="1.0" stroke="none" stroke-width="0" stroke-linecap="butt" stroke-opacity="1.0" transform="matrix(1,0,0,1,12919,0)" d="M 99 -43 Q 73 -63 57 -87 Q 42 -111 40 -128 Q 39 -145 47 -170 Q 56 -195 71 -232 Q 338 -877 338 -1098 Q 334 -1160 295 -1186 L 269 -1204 Q 257 -1213 256 -1235 Q 256 -1258 273 -1278 Q 290 -1299 317 -1314 Q 374 -1344 433 -1344 Q 493 -1344 526 -1331 Q 560 -1318 584 -1296 Q 634 -1250 634 -1198 Q 635 -1146 622 -1093 Q 610 -1040 593 -989 Q 576 -938 559 -892 Q 542 -846 537 -824 Q 526 -779 529 -767 Q 560 -794 567 -820 L 618 -916 Q 789 -1219 951 -1317 Q 999 -1344 1065 -1344 Q 1131 -1344 1171 -1298 Q 1212 -1252 1214 -1196 Q 1216 -1140 1206 -1102 Q 1197 -1065 1177 -1033 Q 1134 -960 1072 -960 Q 1055 -960 1041 -972 L 1012 -997 Q 968 -1035 928 -1035 Q 888 -1035 831 -983 Q 774 -932 712 -852 Q 505 -584 374 -251 L 316 -103 Q 294 -47 277 -23 Q 260 0 226 0 Q 193 0 159 -12 Q 126 -24 99 -43 Z"/>
		<path character="W" fill="#EA8872" fill-opacity="1.0" stroke="none" stroke-width="0" stroke-linecap="butt" stroke-opacity="1.0" transform="matrix(1,0,0,1,14872,0)" d="M 528 -37 Q 501 0 435 0 Q 369 0 323 -36 Q 277 -73 247 -128 Q 186 -238 186 -347 Q 186 -457 210 -572 Q 235 -687 277 -814 Q 319 -942 375 -1075 Q 431 -1208 494 -1335 Q 622 -1599 749 -1792 L 735 -1792 Q 579 -1792 445 -1720 Q 412 -1694 382 -1694 Q 319 -1694 260 -1757 Q 123 -1905 423 -2001 Q 563 -2048 649 -2048 Q 735 -2048 787 -2020 Q 840 -1993 877 -1956 Q 935 -1897 959 -1839 Q 983 -1782 983 -1738 Q 983 -1695 957 -1622 Q 932 -1549 893 -1466 L 803 -1289 Q 756 -1197 709 -1095 Q 662 -993 614 -891 Q 567 -790 530 -694 Q 450 -478 450 -328 Q 450 -245 466 -185 L 604 -419 Q 1024 -1110 1433 -1458 Q 1549 -1557 1662 -1614 Q 1680 -1623 1705 -1623 Q 1730 -1623 1758 -1617 Q 1786 -1611 1811 -1599 Q 1869 -1571 1869 -1531 Q 1869 -1512 1856 -1496 L 1810 -1445 Q 1547 -1161 1457 -653 Q 1428 -497 1428 -405 Q 1428 -313 1433 -279 Q 1439 -246 1454 -217 Q 1490 -150 1560 -150 Q 1631 -150 1718 -205 Q 1805 -260 1893 -356 Q 1982 -452 2065 -581 Q 2149 -711 2213 -859 Q 2357 -1187 2357 -1484 Q 2357 -1713 2260 -1872 Q 2234 -1914 2311 -1979 Q 2390 -2048 2489 -2048 Q 2618 -2048 2664 -1812 Q 2680 -1735 2680 -1609 Q 2680 -1483 2650 -1332 Q 2620 -1181 2565 -1037 Q 2511 -893 2437 -760 Q 2363 -628 2275 -513 Q 2187 -398 2088 -303 Q 1990 -209 1887 -142 Q 1676 0 1487 0 Q 1314 0 1229 -131 Q 1154 -245 1154 -421 Q 1154 -712 1271 -986 Q 1162 -868 1058 -743 Q 801 -418 700 -278 L 528 -37 Z"/>
		<path character="o" fill="#EA8872" fill-opacity="1.0" stroke="none" stroke-width="0" stroke-linecap="butt" stroke-opacity="1.0" transform="matrix(1,0,0,1,17449,0)" d="M 216 -100 Q 161 -152 129 -231 Q 98 -310 97 -418 Q 96 -526 124 -636 Q 152 -747 204 -850 Q 256 -953 328 -1043 Q 401 -1133 489 -1200 Q 681 -1344 887 -1344 Q 1157 -1344 1253 -1111 Q 1321 -943 1261 -704 Q 1206 -484 1059 -300 Q 913 -116 715 -39 Q 615 0 518 0 Q 422 0 346 -24 Q 271 -49 216 -100 M 467 -724 Q 428 -629 405 -529 Q 382 -429 383 -340 Q 384 -251 411 -200 Q 438 -150 498 -150 Q 559 -150 617 -190 Q 676 -231 731 -297 Q 786 -364 834 -451 Q 883 -538 920 -633 Q 1000 -839 997 -999 Q 997 -1140 938 -1179 Q 915 -1194 872 -1194 Q 829 -1194 774 -1156 Q 719 -1118 664 -1054 Q 609 -990 557 -904 Q 506 -819 467 -724 Z"/>
		<path character="r" fill="#EA8872" fill-opacity="1.0" stroke="none" stroke-width="0" stroke-linecap="butt" stroke-opacity="1.0" transform="matrix(1,0,0,1,18874,0)" d="M 99 -43 Q 73 -63 57 -87 Q 42 -111 40 -128 Q 39 -145 47 -170 Q 56 -195 71 -232 Q 338 -877 338 -1098 Q 334 -1160 295 -1186 L 269 -1204 Q 257 -1213 256 -1235 Q 256 -1258 273 -1278 Q 290 -1299 317 -1314 Q 374 -1344 433 -1344 Q 493 -1344 526 -1331 Q 560 -1318 584 -1296 Q 634 -1250 634 -1198 Q 635 -1146 622 -1093 Q 610 -1040 593 -989 Q 576 -938 559 -892 Q 542 -846 537 -824 Q 526 -779 529 -767 Q 560 -794 567 -820 L 618 -916 Q 789 -1219 951 -1317 Q 999 -1344 1065 -1344 Q 1131 -1344 1171 -1298 Q 1212 -1252 1214 -1196 Q 1216 -1140 1206 -1102 Q 1197 -1065 1177 -1033 Q 1134 -960 1072 -960 Q 1055 -960 1041 -972 L 1012 -997 Q 968 -1035 928 -1035 Q 888 -1035 831 -983 Q 774 -932 712 -852 Q 505 -584 374 -251 L 316 -103 Q 294 -47 277 -23 Q 260 0 226 0 Q 193 0 159 -12 Q 126 -24 99 -43 Z"/>
		<path character="d" fill="#EA8872" fill-opacity="1.0" stroke="none" stroke-width="0" stroke-linecap="butt" stroke-opacity="1.0" transform="matrix(1,0,0,1,19978,0)" d="M 1406 -302 Q 1433 -302 1433 -271 Q 1433 -148 1316 -60 Q 1239 0 1170 0 Q 1101 0 1060 -16 Q 1020 -33 987 -69 Q 914 -152 914 -297 Q 914 -326 924 -390 Q 818 -217 742 -147 Q 588 0 441 0 Q 209 0 137 -206 Q 110 -282 110 -396 Q 110 -511 145 -628 Q 181 -745 242 -850 Q 303 -956 384 -1046 Q 465 -1137 554 -1204 Q 746 -1344 900 -1344 Q 1055 -1344 1148 -1233 Q 1377 -2011 1492 -2151 Q 1541 -2208 1595 -2208 Q 1684 -2208 1730 -2158 Q 1744 -2141 1744 -2124 Q 1744 -2108 1723 -2063 Q 1702 -2018 1662 -1918 Q 1545 -1616 1498 -1476 Q 1377 -1118 1335 -983 L 1263 -745 Q 1169 -428 1169 -342 Q 1169 -256 1234 -256 Q 1293 -256 1328 -271 L 1378 -294 Q 1393 -302 1406 -302 M 504 -192 Q 639 -192 814 -455 Q 996 -727 1068 -1047 Q 1063 -1137 994 -1179 Q 970 -1194 922 -1194 Q 874 -1194 810 -1159 Q 747 -1125 687 -1066 Q 627 -1007 575 -927 Q 524 -848 486 -759 Q 403 -565 403 -378 Q 403 -192 504 -192 Z"/>
		<path character="p" fill="#EA8872" fill-opacity="1.0" stroke="none" stroke-width="0" stroke-linecap="butt" stroke-opacity="1.0" transform="matrix(1,0,0,1,21467,0)" d="M 329 -137 Q 327 -118 272 65 Q 218 249 181 357 Q 98 599 45 658 Q 1 704 -60 704 Q -135 704 -175 632 Q -186 612 -186 586 Q -186 561 -147 478 Q -43 266 130 -357 Q 200 -603 222 -692 L 264 -852 Q 305 -1011 312 -1068 Q 319 -1126 304 -1149 Q 290 -1173 271 -1185 Q 253 -1198 237 -1207 Q 222 -1216 224 -1239 Q 227 -1263 246 -1283 Q 265 -1303 294 -1317 Q 353 -1344 413 -1344 Q 473 -1344 507 -1329 Q 541 -1315 563 -1291 Q 610 -1240 605 -1192 Q 592 -1092 576 -1021 Q 806 -1344 1053 -1344 Q 1277 -1344 1353 -1116 Q 1379 -1037 1379 -922 Q 1379 -808 1344 -692 Q 1309 -577 1248 -474 Q 1188 -372 1108 -285 Q 1028 -198 938 -134 Q 749 0 581 0 Q 413 0 329 -137 M 532 -685 Q 484 -595 454 -505 Q 425 -415 425 -340 Q 425 -266 458 -218 Q 491 -170 555 -170 Q 620 -170 683 -204 Q 747 -238 806 -296 Q 866 -354 918 -431 Q 970 -509 1008 -596 Q 1091 -786 1091 -957 Q 1091 -1049 1066 -1100 Q 1041 -1152 989 -1152 Q 937 -1152 880 -1113 Q 824 -1074 762 -1009 Q 701 -944 640 -860 Q 580 -776 532 -685 Z"/>
		<path character="r" fill="#EA8872" fill-opacity="1.0" stroke="none" stroke-width="0" stroke-linecap="butt" stroke-opacity="1.0" transform="matrix(1,0,0,1,22956,0)" d="M 99 -43 Q 73 -63 57 -87 Q 42 -111 40 -128 Q 39 -145 47 -170 Q 56 -195 71 -232 Q 338 -877 338 -1098 Q 334 -1160 295 -1186 L 269 -1204 Q 257 -1213 256 -1235 Q 256 -1258 273 -1278 Q 290 -1299 317 -1314 Q 374 -1344 433 -1344 Q 493 -1344 526 -1331 Q 560 -1318 584 -1296 Q 634 -1250 634 -1198 Q 635 -1146 622 -1093 Q 610 -1040 593 -989 Q 576 -938 559 -892 Q 542 -846 537 -824 Q 526 -779 529 -767 Q 560 -794 567 -820 L 618 -916 Q 789 -1219 951 -1317 Q 999 -1344 1065 -1344 Q 1131 -1344 1171 -1298 Q 1212 -1252 1214 -1196 Q 1216 -1140 1206 -1102 Q 1197 -1065 1177 -1033 Q 1134 -960 1072 -960 Q 1055 -960 1041 -972 L 1012 -997 Q 968 -1035 928 -1035 Q 888 -1035 831 -983 Q 774 -932 712 -852 Q 505 -584 374 -251 L 316 -103 Q 294 -47 277 -23 Q 260 0 226 0 Q 193 0 159 -12 Q 126 -24 99 -43 Z"/>
		<path character="e" fill="#EA8872" fill-opacity="1.0" stroke="none" stroke-width="0" stroke-linecap="butt" stroke-opacity="1.0" transform="matrix(1,0,0,1,24060,0)" d="M 108 -463 Q 113 -575 146 -677 Q 179 -779 234 -875 Q 289 -971 363 -1056 Q 437 -1142 524 -1206 Q 712 -1344 903 -1344 Q 1128 -1344 1202 -1164 Q 1229 -1102 1227 -1018 Q 1226 -935 1194 -864 Q 1163 -793 1107 -735 Q 1051 -677 974 -631 Q 898 -585 807 -553 Q 621 -489 408 -489 Q 403 -471 401 -434 Q 400 -397 409 -351 Q 419 -306 441 -271 Q 488 -192 578 -192 Q 730 -192 874 -281 Q 925 -311 957 -343 Q 990 -375 1013 -375 Q 1037 -375 1054 -347 Q 1072 -319 1072 -284 Q 1072 -215 1033 -164 Q 868 0 541 0 Q 348 0 231 -113 Q 100 -242 108 -463 M 874 -1194 Q 736 -1194 609 -1004 Q 502 -841 436 -617 Q 655 -639 817 -791 Q 965 -933 965 -1063 Q 965 -1194 874 -1194 Z"/>
		<path character="s" fill="#EA8872" fill-opacity="1.0" stroke="none" stroke-width="0" stroke-linecap="butt" stroke-opacity="1.0" transform="matrix(1,0,0,1,25357,0)" d="M 32 -240 Q 32 -280 49 -314 Q 67 -349 93 -372 Q 148 -423 209 -423 Q 261 -423 261 -370 Q 261 -235 352 -182 Q 385 -163 420 -163 Q 455 -163 480 -170 Q 505 -178 526 -195 Q 574 -232 574 -283 Q 574 -335 550 -378 Q 526 -421 491 -469 L 416 -572 Q 259 -777 259 -951 Q 259 -1095 383 -1212 Q 525 -1344 747 -1344 Q 941 -1344 1050 -1254 Q 1139 -1181 1139 -1081 Q 1139 -978 1061 -916 Q 990 -861 919 -875 Q 887 -882 870 -907 Q 853 -933 863 -966 Q 874 -999 874 -1034 Q 874 -1070 861 -1100 Q 848 -1130 826 -1151 Q 780 -1194 729 -1194 Q 679 -1194 646 -1183 Q 613 -1172 588 -1151 Q 537 -1105 537 -1037 Q 537 -969 560 -919 Q 584 -870 619 -821 Q 654 -772 694 -721 Q 735 -671 769 -615 Q 852 -484 852 -385 Q 852 -286 810 -219 Q 768 -153 701 -105 Q 558 0 381 0 Q 211 0 113 -80 Q 32 -148 32 -240 Z"/>
		<path character="s" fill="#EA8872" fill-opacity="1.0" stroke="none" stroke-width="0" stroke-linecap="butt" stroke-opacity="1.0" transform="matrix(1,0,0,1,26525,0)" d="M 32 -240 Q 32 -280 49 -314 Q 67 -349 93 -372 Q 148 -423 209 -423 Q 261 -423 261 -370 Q 261 -235 352 -182 Q 385 -163 420 -163 Q 455 -163 480 -170 Q 505 -178 526 -195 Q 574 -232 574 -283 Q 574 -335 550 -378 Q 526 -421 491 -469 L 416 -572 Q 259 -777 259 -951 Q 259 -1095 383 -1212 Q 525 -1344 747 -1344 Q 941 -1344 1050 -1254 Q 1139 -1181 1139 -1081 Q 1139 -978 1061 -916 Q 990 -861 919 -875 Q 887 -882 870 -907 Q 853 -933 863 -966 Q 874 -999 874 -1034 Q 874 -1070 861 -1100 Q 848 -1130 826 -1151 Q 780 -1194 729 -1194 Q 679 -1194 646 -1183 Q 613 -1172 588 -1151 Q 537 -1105 537 -1037 Q 537 -969 560 -919 Q 584 -870 619 -821 Q 654 -772 694 -721 Q 735 -671 769 -615 Q 852 -484 852 -385 Q 852 -286 810 -219 Q 768 -153 701 -105 Q 558 0 381 0 Q 211 0 113 -80 Q 32 -148 32 -240 Z"/>
		<path character="S" fill="#EA8872" fill-opacity="1.0" stroke="none" stroke-width="0" stroke-linecap="butt" stroke-opacity="1.0" transform="matrix(1,0,0,1,28543,0)" d="M 331 -494 L 319 -391 Q 319 -229 425 -170 Q 462 -150 513 -150 Q 564 -150 605 -168 Q 646 -186 672 -215 Q 727 -275 727 -354 Q 727 -433 695 -497 Q 664 -561 617 -625 L 512 -755 Q 385 -910 341 -1037 Q 298 -1164 298 -1271 Q 298 -1378 323 -1473 Q 349 -1568 395 -1654 Q 441 -1740 505 -1812 Q 570 -1884 648 -1936 Q 812 -2048 973 -2048 Q 1135 -2048 1225 -2003 Q 1316 -1959 1372 -1891 Q 1474 -1763 1474 -1581 Q 1474 -1412 1378 -1263 Q 1290 -1126 1181 -1090 Q 1158 -1078 1116 -1078 Q 1075 -1078 1047 -1091 Q 1019 -1104 998 -1126 Q 952 -1173 952 -1229 Q 952 -1267 974 -1280 Q 1074 -1335 1147 -1442 Q 1227 -1557 1231 -1672 Q 1235 -1788 1178 -1843 Q 1121 -1898 1026 -1898 Q 932 -1898 856 -1855 Q 780 -1812 725 -1738 Q 606 -1581 606 -1367 Q 606 -1225 704 -1067 Q 744 -999 792 -933 Q 840 -867 882 -798 Q 978 -637 978 -509 Q 978 -382 932 -294 Q 887 -206 812 -141 Q 651 0 445 0 Q 251 0 146 -109 Q 62 -197 62 -300 Q 62 -411 129 -488 Q 180 -549 227 -561 Q 331 -588 331 -494 Z"/>
		<path character="h" fill="#EA8872" fill-opacity="1.0" stroke="none" stroke-width="0" stroke-linecap="butt" stroke-opacity="1.0" transform="matrix(1,0,0,1,29839,0)" d="M 1042 -1088 Q 970 -1088 784 -874 L 675 -745 L 465 -479 Q 389 -339 345 -247 L 274 -99 Q 247 -44 226 -22 Q 206 0 171 0 Q 137 0 104 -12 Q 72 -25 49 -44 Q -1 -86 -1 -135 Q -1 -155 26 -212 L 79 -318 Q 324 -819 524 -1588 Q 597 -1872 630 -2099 Q 644 -2208 738 -2208 Q 798 -2208 837 -2179 Q 914 -2123 911 -2059 Q 908 -1995 892 -1915 Q 877 -1836 852 -1742 Q 827 -1649 795 -1546 Q 709 -1283 667 -1167 Q 538 -815 508 -755 Q 528 -778 559 -818 Q 798 -1123 854 -1182 Q 911 -1242 950 -1274 Q 1033 -1344 1160 -1344 Q 1264 -1344 1327 -1278 Q 1386 -1214 1386 -1138 Q 1386 -1063 1368 -1002 Q 1351 -941 1323 -878 Q 1295 -816 1263 -750 L 1197 -619 Q 1105 -420 1105 -324 Q 1105 -256 1163 -256 Q 1218 -256 1263 -278 Q 1309 -301 1322 -301 Q 1349 -301 1349 -271 Q 1349 -144 1231 -58 Q 1150 0 1083 0 Q 1016 0 972 -13 Q 928 -27 894 -57 Q 816 -126 816 -259 Q 816 -403 914 -620 L 1055 -913 Q 1096 -994 1096 -1041 Q 1096 -1088 1042 -1088 Z"/>
		<path character="o" fill="#EA8872" fill-opacity="1.0" stroke="none" stroke-width="0" stroke-linecap="butt" stroke-opacity="1.0" transform="matrix(1,0,0,1,31328,0)" d="M 216 -100 Q 161 -152 129 -231 Q 98 -310 97 -418 Q 96 -526 124 -636 Q 152 -747 204 -850 Q 256 -953 328 -1043 Q 401 -1133 489 -1200 Q 681 -1344 887 -1344 Q 1157 -1344 1253 -1111 Q 1321 -943 1261 -704 Q 1206 -484 1059 -300 Q 913 -116 715 -39 Q 615 0 518 0 Q 422 0 346 -24 Q 271 -49 216 -100 M 467 -724 Q 428 -629 405 -529 Q 382 -429 383 -340 Q 384 -251 411 -200 Q 438 -150 498 -150 Q 559 -150 617 -190 Q 676 -231 731 -297 Q 786 -364 834 -451 Q 883 -538 920 -633 Q 1000 -839 997 -999 Q 997 -1140 938 -1179 Q 915 -1194 872 -1194 Q 829 -1194 774 -1156 Q 719 -1118 664 -1054 Q 609 -990 557 -904 Q 506 -819 467 -724 Z"/>
		<path character="r" fill="#EA8872" fill-opacity="1.0" stroke="none" stroke-width="0" stroke-linecap="butt" stroke-opacity="1.0" transform="matrix(1,0,0,1,32753,0)" d="M 99 -43 Q 73 -63 57 -87 Q 42 -111 40 -128 Q 39 -145 47 -170 Q 56 -195 71 -232 Q 338 -877 338 -1098 Q 334 -1160 295 -1186 L 269 -1204 Q 257 -1213 256 -1235 Q 256 -1258 273 -1278 Q 290 -1299 317 -1314 Q 374 -1344 433 -1344 Q 493 -1344 526 -1331 Q 560 -1318 584 -1296 Q 634 -1250 634 -1198 Q 635 -1146 622 -1093 Q 610 -1040 593 -989 Q 576 -938 559 -892 Q 542 -846 537 -824 Q 526 -779 529 -767 Q 560 -794 567 -820 L 618 -916 Q 789 -1219 951 -1317 Q 999 -1344 1065 -1344 Q 1131 -1344 1171 -1298 Q 1212 -1252 1214 -1196 Q 1216 -1140 1206 -1102 Q 1197 -1065 1177 -1033 Q 1134 -960 1072 -960 Q 1055 -960 1041 -972 L 1012 -997 Q 968 -1035 928 -1035 Q 888 -1035 831 -983 Q 774 -932 712 -852 Q 505 -584 374 -251 L 316 -103 Q 294 -47 277 -23 Q 260 0 226 0 Q 193 0 159 -12 Q 126 -24 99 -43 Z"/>
		<path character="t" fill="#EA8872" fill-opacity="1.0" stroke="none" stroke-width="0" stroke-linecap="butt" stroke-opacity="1.0" transform="matrix(1,0,0,1,33857,0)" d="M 858 -382 Q 897 -382 897 -327 Q 897 -281 870 -237 Q 835 -156 729 -83 Q 608 0 486 0 Q 274 0 218 -193 Q 151 -421 419 -1162 Q 268 -1175 255 -1214 Q 251 -1226 251 -1239 Q 251 -1253 263 -1271 Q 276 -1289 295 -1306 Q 341 -1344 389 -1344 L 492 -1344 Q 634 -1637 694 -1677 Q 723 -1696 758 -1696 Q 794 -1696 817 -1688 Q 841 -1680 860 -1664 Q 902 -1629 902 -1586 Q 902 -1563 886 -1532 L 789 -1344 L 820 -1344 Q 902 -1344 952 -1344 Q 952 -1344 1026 -1344 Q 1051 -1344 1088 -1344 Q 1126 -1344 1126 -1318 Q 1126 -1153 717 -1153 L 706 -1153 L 617 -923 Q 466 -516 466 -353 Q 466 -307 487 -281 Q 508 -256 566 -256 Q 624 -256 671 -275 Q 718 -295 753 -319 Q 789 -343 814 -362 Q 840 -382 858 -382 Z"/>
		<path character="c" fill="#EA8872" fill-opacity="1.0" stroke="none" stroke-width="0" stroke-linecap="butt" stroke-opacity="1.0" transform="matrix(1,0,0,1,34834,0)" d="M 89 -457 Q 92 -568 125 -679 Q 159 -791 214 -890 Q 270 -989 347 -1072 Q 424 -1156 514 -1217 Q 703 -1344 912 -1344 Q 1127 -1344 1205 -1178 Q 1232 -1118 1230 -1042 Q 1228 -967 1204 -904 Q 1181 -841 1146 -792 Q 1066 -680 984 -680 Q 894 -680 850 -730 Q 812 -773 827 -830 Q 831 -847 850 -861 Q 870 -875 900 -905 Q 985 -994 989 -1113 Q 992 -1194 890 -1194 Q 779 -1194 659 -1071 Q 483 -892 411 -613 Q 348 -370 434 -257 Q 485 -192 573 -192 Q 722 -192 859 -296 Q 901 -329 927 -363 Q 954 -397 976 -397 Q 999 -397 1014 -375 Q 1029 -354 1029 -320 Q 1029 -243 959 -169 Q 781 0 530 0 Q 316 0 199 -120 Q 84 -238 89 -457 Z"/>
		<path character="o" fill="#EA8872" fill-opacity="1.0" stroke="none" stroke-width="0" stroke-linecap="butt" stroke-opacity="1.0" transform="matrix(1,0,0,1,36131,0)" d="M 216 -100 Q 161 -152 129 -231 Q 98 -310 97 -418 Q 96 -526 124 -636 Q 152 -747 204 -850 Q 256 -953 328 -1043 Q 401 -1133 489 -1200 Q 681 -1344 887 -1344 Q 1157 -1344 1253 -1111 Q 1321 -943 1261 -704 Q 1206 -484 1059 -300 Q 913 -116 715 -39 Q 615 0 518 0 Q 422 0 346 -24 Q 271 -49 216 -100 M 467 -724 Q 428 -629 405 -529 Q 382 -429 383 -340 Q 384 -251 411 -200 Q 438 -150 498 -150 Q 559 -150 617 -190 Q 676 -231 731 -297 Q 786 -364 834 -451 Q 883 -538 920 -633 Q 1000 -839 997 -999 Q 997 -1140 938 -1179 Q 915 -1194 872 -1194 Q 829 -1194 774 -1156 Q 719 -1118 664 -1054 Q 609 -990 557 -904 Q 506 -819 467 -724 Z"/>
		<path character="d" fill="#EA8872" fill-opacity="1.0" stroke="none" stroke-width="0" stroke-linecap="butt" stroke-opacity="1.0" transform="matrix(1,0,0,1,37555,0)" d="M 1406 -302 Q 1433 -302 1433 -271 Q 1433 -148 1316 -60 Q 1239 0 1170 0 Q 1101 0 1060 -16 Q 1020 -33 987 -69 Q 914 -152 914 -297 Q 914 -326 924 -390 Q 818 -217 742 -147 Q 588 0 441 0 Q 209 0 137 -206 Q 110 -282 110 -396 Q 110 -511 145 -628 Q 181 -745 242 -850 Q 303 -956 384 -1046 Q 465 -1137 554 -1204 Q 746 -1344 900 -1344 Q 1055 -1344 1148 -1233 Q 1377 -2011 1492 -2151 Q 1541 -2208 1595 -2208 Q 1684 -2208 1730 -2158 Q 1744 -2141 1744 -2124 Q 1744 -2108 1723 -2063 Q 1702 -2018 1662 -1918 Q 1545 -1616 1498 -1476 Q 1377 -1118 1335 -983 L 1263 -745 Q 1169 -428 1169 -342 Q 1169 -256 1234 -256 Q 1293 -256 1328 -271 L 1378 -294 Q 1393 -302 1406 -302 M 504 -192 Q 639 -192 814 -455 Q 996 -727 1068 -1047 Q 1063 -1137 994 -1179 Q 970 -1194 922 -1194 Q 874 -1194 810 -1159 Q 747 -1125 687 -1066 Q 627 -1007 575 -927 Q 524 -848 486 -759 Q 403 -565 403 -378 Q 403 -192 504 -192 Z"/>
		<path character="e" fill="#EA8872" fill-opacity="1.0" stroke="none" stroke-width="0" stroke-linecap="butt" stroke-opacity="1.0" transform="matrix(1,0,0,1,39044,0)" d="M 108 -463 Q 113 -575 146 -677 Q 179 -779 234 -875 Q 289 -971 363 -1056 Q 437 -1142 524 -1206 Q 712 -1344 903 -1344 Q 1128 -1344 1202 -1164 Q 1229 -1102 1227 -1018 Q 1226 -935 1194 -864 Q 1163 -793 1107 -735 Q 1051 -677 974 -631 Q 898 -585 807 -553 Q 621 -489 408 -489 Q 403 -471 401 -434 Q 400 -397 409 -351 Q 419 -306 441 -271 Q 488 -192 578 -192 Q 730 -192 874 -281 Q 925 -311 957 -343 Q 990 -375 1013 -375 Q 1037 -375 1054 -347 Q 1072 -319 1072 -284 Q 1072 -215 1033 -164 Q 868 0 541 0 Q 348 0 231 -113 Q 100 -242 108 -463 M 874 -1194 Q 736 -1194 609 -1004 Q 502 -841 436 -617 Q 655 -639 817 -791 Q 965 -933 965 -1063 Q 965 -1194 874 -1194 Z"/>
		<path character="s" fill="#EA8872" fill-opacity="1.0" stroke="none" stroke-width="0" stroke-linecap="butt" stroke-opacity="1.0" transform="matrix(1,0,0,1,40340,0)" d="M 32 -240 Q 32 -280 49 -314 Q 67 -349 93 -372 Q 148 -423 209 -423 Q 261 -423 261 -370 Q 261 -235 352 -182 Q 385 -163 420 -163 Q 455 -163 480 -170 Q 505 -178 526 -195 Q 574 -232 574 -283 Q 574 -335 550 -378 Q 526 -421 491 -469 L 416 -572 Q 259 -777 259 -951 Q 259 -1095 383 -1212 Q 525 -1344 747 -1344 Q 941 -1344 1050 -1254 Q 1139 -1181 1139 -1081 Q 1139 -978 1061 -916 Q 990 -861 919 -875 Q 887 -882 870 -907 Q 853 -933 863 -966 Q 874 -999 874 -1034 Q 874 -1070 861 -1100 Q 848 -1130 826 -1151 Q 780 -1194 729 -1194 Q 679 -1194 646 -1183 Q 613 -1172 588 -1151 Q 537 -1105 537 -1037 Q 537 -969 560 -919 Q 584 -870 619 -821 Q 654 -772 694 -721 Q 735 -671 769 -615 Q 852 -484 852 -385 Q 852 -286 810 -219 Q 768 -153 701 -105 Q 558 0 381 0 Q 211 0 113 -80 Q 32 -148 32 -240 Z"/>
</g>
</svg>