<svg xmlns="http://www.w3.org/2000/svg" xmlns:xlink="http://www.w3.org/1999/xlink" viewBox="0 0 11171 3909">
<title>Channels</title>
<g transform="matrix(1,0,0,1,0,2752)">
  		<path character="C" fill="#CAD1D8" fill-opacity="1.0" stroke="none" stroke-width="10px" stroke-linecap="butt" stroke-opacity="1.0" transform="matrix(1,0,0,1,-128,0)" d="M 1045 24 Q 768 24 570 -93 Q 373 -211 268 -427 Q 163 -643 163 -941 Q 163 -1165 223 -1342 Q 283 -1520 396 -1644 Q 509 -1768 674 -1836 Q 840 -1904 1045 -1904 Q 1211 -1904 1360 -1857 Q 1510 -1811 1619 -1720 Q 1654 -1694 1666 -1660 Q 1678 -1627 1668 -1596 Q 1659 -1566 1636 -1546 Q 1614 -1526 1582 -1526 Q 1550 -1526 1510 -1552 Q 1414 -1630 1299 -1667 Q 1184 -1704 1051 -1704 Q 840 -1704 693 -1615 Q 547 -1526 472 -1355 Q 397 -1184 397 -941 Q 397 -699 472 -527 Q 547 -355 693 -265 Q 840 -176 1051 -176 Q 1181 -176 1298 -214 Q 1416 -253 1515 -331 Q 1555 -357 1587 -356 Q 1619 -355 1640 -336 Q 1662 -317 1671 -288 Q 1680 -259 1671 -227 Q 1662 -195 1630 -171 Q 1518 -75 1367 -25 Q 1216 24 1045 24 Z"/>
		<path character="h" fill="#CAD1D8" fill-opacity="1.0" stroke="none" stroke-width="10px" stroke-linecap="butt" stroke-opacity="1.0" transform="matrix(1,0,0,1,1678,0)" d="M 309 19 Q 256 19 229 -10 Q 203 -40 203 -93 L 203 -1790 Q 203 -1843 229 -1871 Q 256 -1899 309 -1899 Q 360 -1899 389 -1871 Q 419 -1843 419 -1790 L 419 -1008 L 384 -1008 Q 440 -1163 566 -1241 Q 693 -1320 859 -1320 Q 1013 -1320 1116 -1264 Q 1219 -1208 1269 -1094 Q 1320 -981 1320 -808 L 1320 -93 Q 1320 -40 1292 -10 Q 1264 19 1213 19 Q 1160 19 1132 -10 Q 1104 -40 1104 -93 L 1104 -795 Q 1104 -976 1033 -1060 Q 963 -1144 808 -1144 Q 629 -1144 524 -1033 Q 419 -923 419 -739 L 419 -93 Q 419 19 309 19 Z"/>
		<path character="a" fill="#CAD1D8" fill-opacity="1.0" stroke="none" stroke-width="10px" stroke-linecap="butt" stroke-opacity="1.0" transform="matrix(1,0,0,1,3228,0)" d="M 611 24 Q 477 24 372 -28 Q 267 -80 205 -170 Q 144 -261 144 -373 Q 144 -517 217 -600 Q 291 -683 460 -717 Q 629 -752 923 -752 L 1043 -752 L 1043 -611 L 925 -611 Q 709 -611 585 -591 Q 461 -571 412 -523 Q 363 -475 363 -387 Q 363 -277 439 -208 Q 515 -139 645 -139 Q 752 -139 833 -189 Q 915 -240 961 -328 Q 1008 -416 1008 -531 L 1008 -835 Q 1008 -1000 941 -1073 Q 875 -1147 723 -1147 Q 629 -1147 536 -1123 Q 443 -1099 339 -1045 Q 301 -1027 274 -1033 Q 248 -1040 232 -1061 Q 216 -1083 213 -1111 Q 211 -1139 225 -1165 Q 240 -1192 272 -1208 Q 389 -1267 504 -1293 Q 619 -1320 723 -1320 Q 891 -1320 1000 -1265 Q 1109 -1211 1162 -1100 Q 1216 -989 1216 -816 L 1216 -93 Q 1216 -40 1190 -10 Q 1165 19 1117 19 Q 1067 19 1040 -10 Q 1013 -40 1013 -93 L 1013 -301 L 1037 -301 Q 1016 -200 956 -128 Q 896 -56 808 -16 Q 720 24 611 24 Z"/>
		<path character="n" fill="#CAD1D8" fill-opacity="1.0" stroke="none" stroke-width="10px" stroke-linecap="butt" stroke-opacity="1.0" transform="matrix(1,0,0,1,4650,0)" d="M 309 19 Q 256 19 229 -10 Q 203 -40 203 -93 L 203 -1205 Q 203 -1259 229 -1287 Q 256 -1315 307 -1315 Q 357 -1315 385 -1287 Q 413 -1259 413 -1205 L 413 -976 L 384 -1008 Q 440 -1163 566 -1241 Q 693 -1320 859 -1320 Q 1013 -1320 1116 -1264 Q 1219 -1208 1269 -1094 Q 1320 -981 1320 -808 L 1320 -93 Q 1320 -40 1292 -10 Q 1264 19 1213 19 Q 1160 19 1132 -10 Q 1104 -40 1104 -93 L 1104 -795 Q 1104 -976 1033 -1060 Q 963 -1144 808 -1144 Q 629 -1144 524 -1033 Q 419 -923 419 -739 L 419 -93 Q 419 19 309 19 Z"/>
		<path character="n" fill="#CAD1D8" fill-opacity="1.0" stroke="none" stroke-width="10px" stroke-linecap="butt" stroke-opacity="1.0" transform="matrix(1,0,0,1,6200,0)" d="M 309 19 Q 256 19 229 -10 Q 203 -40 203 -93 L 203 -1205 Q 203 -1259 229 -1287 Q 256 -1315 307 -1315 Q 357 -1315 385 -1287 Q 413 -1259 413 -1205 L 413 -976 L 384 -1008 Q 440 -1163 566 -1241 Q 693 -1320 859 -1320 Q 1013 -1320 1116 -1264 Q 1219 -1208 1269 -1094 Q 1320 -981 1320 -808 L 1320 -93 Q 1320 -40 1292 -10 Q 1264 19 1213 19 Q 1160 19 1132 -10 Q 1104 -40 1104 -93 L 1104 -795 Q 1104 -976 1033 -1060 Q 963 -1144 808 -1144 Q 629 -1144 524 -1033 Q 419 -923 419 -739 L 419 -93 Q 419 19 309 19 Z"/>
		<path character="e" fill="#CAD1D8" fill-opacity="1.0" stroke="none" stroke-width="10px" stroke-linecap="butt" stroke-opacity="1.0" transform="matrix(1,0,0,1,7750,0)" d="M 787 24 Q 581 24 433 -57 Q 285 -139 204 -288 Q 123 -437 123 -645 Q 123 -848 203 -998 Q 283 -1149 423 -1234 Q 563 -1320 747 -1320 Q 877 -1320 981 -1276 Q 1085 -1232 1158 -1149 Q 1232 -1067 1271 -949 Q 1310 -832 1310 -685 Q 1310 -643 1285 -623 Q 1261 -603 1216 -603 L 288 -603 L 288 -744 L 1165 -744 L 1123 -709 Q 1123 -853 1080 -953 Q 1037 -1053 956 -1106 Q 875 -1160 752 -1160 Q 616 -1160 521 -1097 Q 427 -1035 379 -924 Q 331 -813 331 -667 L 331 -651 Q 331 -405 449 -277 Q 568 -149 787 -149 Q 877 -149 966 -173 Q 1056 -197 1141 -253 Q 1179 -277 1209 -276 Q 1240 -275 1258 -257 Q 1277 -240 1284 -214 Q 1291 -189 1279 -160 Q 1267 -131 1232 -109 Q 1144 -45 1024 -10 Q 904 24 787 24 Z"/>
		<path character="l" fill="#CAD1D8" fill-opacity="1.0" stroke="none" stroke-width="10px" stroke-linecap="butt" stroke-opacity="1.0" transform="matrix(1,0,0,1,9172,0)" d="M 597 24 Q 405 24 304 -93 Q 203 -211 203 -429 L 203 -1790 Q 203 -1843 229 -1871 Q 256 -1899 309 -1899 Q 360 -1899 389 -1871 Q 419 -1843 419 -1790 L 419 -445 Q 419 -301 476 -230 Q 533 -160 645 -160 Q 669 -160 688 -162 Q 707 -165 725 -165 Q 755 -168 767 -152 Q 779 -136 779 -88 Q 779 -40 757 -16 Q 736 8 688 16 Q 667 19 643 21 Q 619 24 597 24 Z"/>
		<path character="s" fill="#CAD1D8" fill-opacity="1.0" stroke="none" stroke-width="10px" stroke-linecap="butt" stroke-opacity="1.0" transform="matrix(1,0,0,1,9955,0)" d="M 640 24 Q 520 24 398 -5 Q 277 -35 173 -107 Q 147 -125 136 -150 Q 125 -176 129 -201 Q 133 -227 150 -245 Q 168 -264 193 -268 Q 219 -272 251 -256 Q 355 -192 452 -166 Q 549 -141 645 -141 Q 797 -141 874 -197 Q 952 -253 952 -349 Q 952 -424 901 -468 Q 851 -512 741 -536 L 499 -589 Q 331 -624 249 -709 Q 168 -795 168 -931 Q 168 -1051 230 -1137 Q 293 -1224 408 -1272 Q 523 -1320 675 -1320 Q 792 -1320 897 -1289 Q 1003 -1259 1088 -1192 Q 1115 -1173 1124 -1148 Q 1133 -1123 1126 -1097 Q 1120 -1072 1101 -1054 Q 1083 -1037 1056 -1034 Q 1029 -1032 1000 -1051 Q 920 -1104 837 -1129 Q 755 -1155 675 -1155 Q 525 -1155 448 -1096 Q 371 -1037 371 -941 Q 371 -867 419 -819 Q 467 -771 568 -749 L 811 -699 Q 984 -661 1070 -580 Q 1157 -499 1157 -360 Q 1157 -184 1016 -80 Q 875 24 640 24 Z"/>
</g>
</svg>