<svg xmlns="http://www.w3.org/2000/svg" xmlns:xlink="http://www.w3.org/1999/xlink" viewBox="0 0 7687 3909">
<title>Config</title>
<g transform="matrix(1,0,0,1,0,2752)">
  		<path character="C" fill="#CAD1D8" fill-opacity="1.0" stroke="none" stroke-width="10px" stroke-linecap="butt" stroke-opacity="1.0" transform="matrix(1,0,0,1,-128,0)" d="M 1045 24 Q 768 24 570 -93 Q 373 -211 268 -427 Q 163 -643 163 -941 Q 163 -1165 223 -1342 Q 283 -1520 396 -1644 Q 509 -1768 674 -1836 Q 840 -1904 1045 -1904 Q 1211 -1904 1360 -1857 Q 1510 -1811 1619 -1720 Q 1654 -1694 1666 -1660 Q 1678 -1627 1668 -1596 Q 1659 -1566 1636 -1546 Q 1614 -1526 1582 -1526 Q 1550 -1526 1510 -1552 Q 1414 -1630 1299 -1667 Q 1184 -1704 1051 -1704 Q 840 -1704 693 -1615 Q 547 -1526 472 -1355 Q 397 -1184 397 -941 Q 397 -699 472 -527 Q 547 -355 693 -265 Q 840 -176 1051 -176 Q 1181 -176 1298 -214 Q 1416 -253 1515 -331 Q 1555 -357 1587 -356 Q 1619 -355 1640 -336 Q 1662 -317 1671 -288 Q 1680 -259 1671 -227 Q 1662 -195 1630 -171 Q 1518 -75 1367 -25 Q 1216 24 1045 24 Z"/>
		<path character="o" fill="#CAD1D8" fill-opacity="1.0" stroke="none" stroke-width="10px" stroke-linecap="butt" stroke-opacity="1.0" transform="matrix(1,0,0,1,1678,0)" d="M 741 24 Q 552 24 413 -58 Q 275 -141 199 -292 Q 123 -443 123 -648 Q 123 -803 165 -927 Q 208 -1051 290 -1139 Q 373 -1227 486 -1273 Q 600 -1320 741 -1320 Q 931 -1320 1069 -1237 Q 1208 -1155 1284 -1004 Q 1360 -853 1360 -648 Q 1360 -493 1317 -370 Q 1275 -248 1192 -158 Q 1109 -69 996 -22 Q 883 24 741 24 M 741 -149 Q 861 -149 952 -208 Q 1043 -267 1092 -379 Q 1141 -491 1141 -648 Q 1141 -891 1033 -1019 Q 925 -1147 741 -1147 Q 619 -1147 529 -1089 Q 440 -1032 390 -921 Q 341 -811 341 -648 Q 341 -408 450 -278 Q 560 -149 741 -149 Z"/>
		<path character="n" fill="#CAD1D8" fill-opacity="1.0" stroke="none" stroke-width="10px" stroke-linecap="butt" stroke-opacity="1.0" transform="matrix(1,0,0,1,3164,0)" d="M 309 19 Q 256 19 229 -10 Q 203 -40 203 -93 L 203 -1205 Q 203 -1259 229 -1287 Q 256 -1315 307 -1315 Q 357 -1315 385 -1287 Q 413 -1259 413 -1205 L 413 -976 L 384 -1008 Q 440 -1163 566 -1241 Q 693 -1320 859 -1320 Q 1013 -1320 1116 -1264 Q 1219 -1208 1269 -1094 Q 1320 -981 1320 -808 L 1320 -93 Q 1320 -40 1292 -10 Q 1264 19 1213 19 Q 1160 19 1132 -10 Q 1104 -40 1104 -93 L 1104 -795 Q 1104 -976 1033 -1060 Q 963 -1144 808 -1144 Q 629 -1144 524 -1033 Q 419 -923 419 -739 L 419 -93 Q 419 19 309 19 Z"/>
		<path character="f" fill="#CAD1D8" fill-opacity="1.0" stroke="none" stroke-width="10px" stroke-linecap="butt" stroke-opacity="1.0" transform="matrix(1,0,0,1,4714,0)" d="M 379 19 Q 328 19 300 -10 Q 272 -40 272 -93 L 272 -1128 L 101 -1128 Q 59 -1128 33 -1150 Q 8 -1173 8 -1213 Q 8 -1253 33 -1274 Q 59 -1296 101 -1296 L 331 -1296 L 272 -1240 L 272 -1342 Q 272 -1595 396 -1728 Q 520 -1862 760 -1883 L 837 -1891 Q 875 -1894 897 -1878 Q 920 -1862 926 -1838 Q 933 -1814 928 -1788 Q 923 -1763 904 -1744 Q 885 -1726 859 -1723 L 797 -1718 Q 635 -1704 561 -1619 Q 488 -1534 488 -1368 L 488 -1256 L 456 -1296 L 776 -1296 Q 821 -1296 845 -1274 Q 869 -1253 869 -1213 Q 869 -1173 845 -1150 Q 821 -1128 776 -1128 L 488 -1128 L 488 -93 Q 488 19 379 19 Z"/>
		<path character="i" fill="#CAD1D8" fill-opacity="1.0" stroke="none" stroke-width="10px" stroke-linecap="butt" stroke-opacity="1.0" transform="matrix(1,0,0,1,5624,0)" d="M 309 13 Q 256 13 229 -17 Q 203 -48 203 -104 L 203 -1195 Q 203 -1251 229 -1280 Q 256 -1310 309 -1310 Q 360 -1310 389 -1280 Q 419 -1251 419 -1195 L 419 -104 Q 419 -48 391 -17 Q 363 13 309 13 M 309 -1608 Q 243 -1608 205 -1644 Q 168 -1680 168 -1742 Q 168 -1806 205 -1839 Q 243 -1872 309 -1872 Q 379 -1872 415 -1839 Q 451 -1806 451 -1742 Q 451 -1680 415 -1644 Q 379 -1608 309 -1608 Z"/>
		<path character="g" fill="#CAD1D8" fill-opacity="1.0" stroke="none" stroke-width="10px" stroke-linecap="butt" stroke-opacity="1.0" transform="matrix(1,0,0,1,6278,0)" d="M 776 504 Q 635 504 500 470 Q 365 437 256 365 Q 224 347 214 320 Q 205 293 210 268 Q 216 243 234 223 Q 253 203 278 197 Q 304 192 331 205 Q 448 277 554 304 Q 661 331 765 331 Q 955 331 1052 229 Q 1149 128 1149 -64 L 1149 -365 L 1176 -365 Q 1136 -211 1006 -120 Q 877 -29 704 -29 Q 525 -29 394 -110 Q 264 -192 193 -338 Q 123 -485 123 -677 Q 123 -821 163 -940 Q 203 -1059 279 -1143 Q 355 -1227 463 -1273 Q 571 -1320 704 -1320 Q 880 -1320 1008 -1230 Q 1136 -1141 1173 -989 L 1147 -957 L 1147 -1205 Q 1147 -1259 1175 -1287 Q 1203 -1315 1253 -1315 Q 1307 -1315 1333 -1287 Q 1360 -1259 1360 -1205 L 1360 -93 Q 1360 203 1212 353 Q 1064 504 776 504 M 744 -205 Q 869 -205 960 -262 Q 1051 -320 1100 -426 Q 1149 -533 1149 -677 Q 1149 -893 1040 -1020 Q 931 -1147 744 -1147 Q 621 -1147 530 -1089 Q 440 -1032 390 -926 Q 341 -821 341 -677 Q 341 -461 450 -333 Q 560 -205 744 -205 Z"/>
</g>
</svg>