<svg xmlns="http://www.w3.org/2000/svg" xmlns:xlink="http://www.w3.org/1999/xlink" viewBox="0 0 8469 3909">
<title>Credits</title>
<g transform="matrix(1,0,0,1,0,2752)">
  		<path character="C" fill="#CAD1D8" fill-opacity="1.0" stroke="none" stroke-width="10px" stroke-linecap="butt" stroke-opacity="1.0" transform="matrix(1,0,0,1,-128,0)" d="M 1045 24 Q 768 24 570 -93 Q 373 -211 268 -427 Q 163 -643 163 -941 Q 163 -1165 223 -1342 Q 283 -1520 396 -1644 Q 509 -1768 674 -1836 Q 840 -1904 1045 -1904 Q 1211 -1904 1360 -1857 Q 1510 -1811 1619 -1720 Q 1654 -1694 1666 -1660 Q 1678 -1627 1668 -1596 Q 1659 -1566 1636 -1546 Q 1614 -1526 1582 -1526 Q 1550 -1526 1510 -1552 Q 1414 -1630 1299 -1667 Q 1184 -1704 1051 -1704 Q 840 -1704 693 -1615 Q 547 -1526 472 -1355 Q 397 -1184 397 -941 Q 397 -699 472 -527 Q 547 -355 693 -265 Q 840 -176 1051 -176 Q 1181 -176 1298 -214 Q 1416 -253 1515 -331 Q 1555 -357 1587 -356 Q 1619 -355 1640 -336 Q 1662 -317 1671 -288 Q 1680 -259 1671 -227 Q 1662 -195 1630 -171 Q 1518 -75 1367 -25 Q 1216 24 1045 24 Z"/>
		<path character="r" fill="#CAD1D8" fill-opacity="1.0" stroke="none" stroke-width="10px" stroke-linecap="butt" stroke-opacity="1.0" transform="matrix(1,0,0,1,1678,0)" d="M 312 19 Q 259 19 231 -10 Q 203 -40 203 -93 L 203 -1205 Q 203 -1259 229 -1287 Q 256 -1315 307 -1315 Q 357 -1315 385 -1287 Q 413 -1259 413 -1205 L 413 -989 L 387 -989 Q 429 -1147 549 -1232 Q 669 -1318 845 -1323 Q 885 -1326 909 -1305 Q 933 -1285 936 -1237 Q 939 -1192 915 -1165 Q 891 -1139 840 -1133 L 797 -1128 Q 616 -1112 518 -1012 Q 421 -912 421 -739 L 421 -93 Q 421 -40 393 -10 Q 365 19 312 19 Z"/>
		<path character="e" fill="#CAD1D8" fill-opacity="1.0" stroke="none" stroke-width="10px" stroke-linecap="butt" stroke-opacity="1.0" transform="matrix(1,0,0,1,2652,0)" d="M 787 24 Q 581 24 433 -57 Q 285 -139 204 -288 Q 123 -437 123 -645 Q 123 -848 203 -998 Q 283 -1149 423 -1234 Q 563 -1320 747 -1320 Q 877 -1320 981 -1276 Q 1085 -1232 1158 -1149 Q 1232 -1067 1271 -949 Q 1310 -832 1310 -685 Q 1310 -643 1285 -623 Q 1261 -603 1216 -603 L 288 -603 L 288 -744 L 1165 -744 L 1123 -709 Q 1123 -853 1080 -953 Q 1037 -1053 956 -1106 Q 875 -1160 752 -1160 Q 616 -1160 521 -1097 Q 427 -1035 379 -924 Q 331 -813 331 -667 L 331 -651 Q 331 -405 449 -277 Q 568 -149 787 -149 Q 877 -149 966 -173 Q 1056 -197 1141 -253 Q 1179 -277 1209 -276 Q 1240 -275 1258 -257 Q 1277 -240 1284 -214 Q 1291 -189 1279 -160 Q 1267 -131 1232 -109 Q 1144 -45 1024 -10 Q 904 24 787 24 Z"/>
		<path character="d" fill="#CAD1D8" fill-opacity="1.0" stroke="none" stroke-width="10px" stroke-linecap="butt" stroke-opacity="1.0" transform="matrix(1,0,0,1,4074,0)" d="M 696 24 Q 523 24 393 -58 Q 264 -141 193 -292 Q 123 -443 123 -648 Q 123 -856 193 -1006 Q 264 -1157 393 -1238 Q 523 -1320 696 -1320 Q 872 -1320 997 -1232 Q 1123 -1144 1165 -995 L 1136 -995 L 1136 -1790 Q 1136 -1843 1164 -1871 Q 1192 -1899 1245 -1899 Q 1296 -1899 1324 -1871 Q 1352 -1843 1352 -1790 L 1352 -93 Q 1352 -40 1325 -10 Q 1299 19 1245 19 Q 1195 19 1167 -10 Q 1139 -40 1139 -93 L 1139 -347 L 1168 -309 Q 1125 -157 998 -66 Q 872 24 696 24 M 741 -149 Q 861 -149 952 -208 Q 1043 -267 1092 -379 Q 1141 -491 1141 -648 Q 1141 -891 1033 -1019 Q 925 -1147 741 -1147 Q 619 -1147 529 -1089 Q 440 -1032 390 -921 Q 341 -811 341 -648 Q 341 -408 450 -278 Q 560 -149 741 -149 Z"/>
		<path character="i" fill="#CAD1D8" fill-opacity="1.0" stroke="none" stroke-width="10px" stroke-linecap="butt" stroke-opacity="1.0" transform="matrix(1,0,0,1,5624,0)" d="M 309 13 Q 256 13 229 -17 Q 203 -48 203 -104 L 203 -1195 Q 203 -1251 229 -1280 Q 256 -1310 309 -1310 Q 360 -1310 389 -1280 Q 419 -1251 419 -1195 L 419 -104 Q 419 -48 391 -17 Q 363 13 309 13 M 309 -1608 Q 243 -1608 205 -1644 Q 168 -1680 168 -1742 Q 168 -1806 205 -1839 Q 243 -1872 309 -1872 Q 379 -1872 415 -1839 Q 451 -1806 451 -1742 Q 451 -1680 415 -1644 Q 379 -1608 309 -1608 Z"/>
		<path character="t" fill="#CAD1D8" fill-opacity="1.0" stroke="none" stroke-width="10px" stroke-linecap="butt" stroke-opacity="1.0" transform="matrix(1,0,0,1,6278,0)" d="M 723 24 Q 571 24 468 -30 Q 365 -85 314 -190 Q 264 -296 264 -448 L 264 -1128 L 85 -1128 Q 40 -1128 16 -1150 Q -8 -1173 -8 -1213 Q -8 -1253 16 -1274 Q 40 -1296 85 -1296 L 264 -1296 L 264 -1603 Q 264 -1656 293 -1684 Q 323 -1712 373 -1712 Q 424 -1712 452 -1684 Q 480 -1656 480 -1603 L 480 -1296 L 816 -1296 Q 861 -1296 885 -1274 Q 909 -1253 909 -1213 Q 909 -1173 885 -1150 Q 861 -1128 816 -1128 L 480 -1128 L 480 -469 Q 480 -317 544 -238 Q 608 -160 752 -160 Q 803 -160 839 -170 Q 875 -181 899 -181 Q 923 -184 939 -165 Q 955 -147 955 -101 Q 955 -69 943 -42 Q 931 -16 901 -5 Q 869 5 817 14 Q 765 24 723 24 Z"/>
		<path character="s" fill="#CAD1D8" fill-opacity="1.0" stroke="none" stroke-width="10px" stroke-linecap="butt" stroke-opacity="1.0" transform="matrix(1,0,0,1,7252,0)" d="M 640 24 Q 520 24 398 -5 Q 277 -35 173 -107 Q 147 -125 136 -150 Q 125 -176 129 -201 Q 133 -227 150 -245 Q 168 -264 193 -268 Q 219 -272 251 -256 Q 355 -192 452 -166 Q 549 -141 645 -141 Q 797 -141 874 -197 Q 952 -253 952 -349 Q 952 -424 901 -468 Q 851 -512 741 -536 L 499 -589 Q 331 -624 249 -709 Q 168 -795 168 -931 Q 168 -1051 230 -1137 Q 293 -1224 408 -1272 Q 523 -1320 675 -1320 Q 792 -1320 897 -1289 Q 1003 -1259 1088 -1192 Q 1115 -1173 1124 -1148 Q 1133 -1123 1126 -1097 Q 1120 -1072 1101 -1054 Q 1083 -1037 1056 -1034 Q 1029 -1032 1000 -1051 Q 920 -1104 837 -1129 Q 755 -1155 675 -1155 Q 525 -1155 448 -1096 Q 371 -1037 371 -941 Q 371 -867 419 -819 Q 467 -771 568 -749 L 811 -699 Q 984 -661 1070 -580 Q 1157 -499 1157 -360 Q 1157 -184 1016 -80 Q 875 24 640 24 Z"/>
</g>
</svg>