<svg xmlns="http://www.w3.org/2000/svg" xmlns:xlink="http://www.w3.org/1999/xlink" viewBox="0 0 11491 3909">
<title>Examples</title>
<g transform="matrix(1,0,0,1,0,2752)">
  		<path character="E" fill="#CAD1D8" fill-opacity="1.0" stroke="none" stroke-width="10px" stroke-linecap="butt" stroke-opacity="1.0" transform="matrix(1,0,0,1,-192,0)" d="M 352 0 Q 293 0 262 -30 Q 232 -61 232 -120 L 232 -1760 Q 232 -1819 262 -1849 Q 293 -1880 352 -1880 L 1344 -1880 Q 1390 -1880 1414 -1856 Q 1438 -1832 1438 -1790 Q 1438 -1744 1414 -1720 Q 1390 -1696 1344 -1696 L 445 -1696 L 445 -1045 L 1288 -1045 Q 1334 -1045 1358 -1022 Q 1382 -1000 1382 -955 Q 1382 -909 1358 -885 Q 1334 -861 1288 -861 L 445 -861 L 445 -184 L 1344 -184 Q 1390 -184 1414 -160 Q 1438 -136 1438 -93 Q 1438 -48 1414 -24 Q 1390 0 1344 0 L 352 0 Z"/>
		<path character="x" fill="#CAD1D8" fill-opacity="1.0" stroke="none" stroke-width="10px" stroke-linecap="butt" stroke-opacity="1.0" transform="matrix(1,0,0,1,1358,0)" d="M 208 16 Q 173 16 146 -5 Q 120 -27 118 -63 Q 117 -99 152 -139 L 619 -725 L 619 -613 L 181 -1160 Q 147 -1203 148 -1237 Q 149 -1272 176 -1293 Q 203 -1315 237 -1315 Q 277 -1315 305 -1300 Q 333 -1285 357 -1253 L 739 -771 L 664 -771 L 1048 -1253 Q 1072 -1285 1098 -1300 Q 1125 -1315 1165 -1315 Q 1203 -1315 1228 -1293 Q 1253 -1272 1254 -1236 Q 1256 -1200 1221 -1157 L 787 -619 L 787 -717 L 1253 -139 Q 1285 -99 1284 -63 Q 1283 -27 1256 -5 Q 1229 16 1192 16 Q 1155 16 1127 1 Q 1099 -13 1072 -45 L 661 -563 L 739 -563 L 328 -45 Q 304 -16 276 0 Q 248 16 208 16 Z"/>
		<path character="a" fill="#CAD1D8" fill-opacity="1.0" stroke="none" stroke-width="10px" stroke-linecap="butt" stroke-opacity="1.0" transform="matrix(1,0,0,1,2780,0)" d="M 611 24 Q 477 24 372 -28 Q 267 -80 205 -170 Q 144 -261 144 -373 Q 144 -517 217 -600 Q 291 -683 460 -717 Q 629 -752 923 -752 L 1043 -752 L 1043 -611 L 925 -611 Q 709 -611 585 -591 Q 461 -571 412 -523 Q 363 -475 363 -387 Q 363 -277 439 -208 Q 515 -139 645 -139 Q 752 -139 833 -189 Q 915 -240 961 -328 Q 1008 -416 1008 -531 L 1008 -835 Q 1008 -1000 941 -1073 Q 875 -1147 723 -1147 Q 629 -1147 536 -1123 Q 443 -1099 339 -1045 Q 301 -1027 274 -1033 Q 248 -1040 232 -1061 Q 216 -1083 213 -1111 Q 211 -1139 225 -1165 Q 240 -1192 272 -1208 Q 389 -1267 504 -1293 Q 619 -1320 723 -1320 Q 891 -1320 1000 -1265 Q 1109 -1211 1162 -1100 Q 1216 -989 1216 -816 L 1216 -93 Q 1216 -40 1190 -10 Q 1165 19 1117 19 Q 1067 19 1040 -10 Q 1013 -40 1013 -93 L 1013 -301 L 1037 -301 Q 1016 -200 956 -128 Q 896 -56 808 -16 Q 720 24 611 24 Z"/>
		<path character="m" fill="#CAD1D8" fill-opacity="1.0" stroke="none" stroke-width="10px" stroke-linecap="butt" stroke-opacity="1.0" transform="matrix(1,0,0,1,4202,0)" d="M 315 19 Q 261 19 234 -10 Q 208 -40 208 -93 L 208 -1205 Q 208 -1259 234 -1287 Q 261 -1315 312 -1315 Q 363 -1315 391 -1287 Q 419 -1259 419 -1205 L 419 -971 L 389 -1008 Q 440 -1157 553 -1238 Q 667 -1320 824 -1320 Q 989 -1320 1092 -1241 Q 1195 -1163 1229 -997 L 1189 -997 Q 1237 -1147 1361 -1233 Q 1486 -1320 1651 -1320 Q 1798 -1320 1892 -1264 Q 1987 -1208 2035 -1094 Q 2083 -981 2083 -808 L 2083 -93 Q 2083 -40 2055 -10 Q 2027 19 1974 19 Q 1923 19 1895 -10 Q 1867 -40 1867 -93 L 1867 -797 Q 1867 -976 1805 -1060 Q 1744 -1144 1598 -1144 Q 1438 -1144 1345 -1033 Q 1253 -923 1253 -733 L 1253 -93 Q 1253 -40 1225 -10 Q 1197 19 1144 19 Q 1093 19 1065 -10 Q 1037 -40 1037 -93 L 1037 -797 Q 1037 -976 974 -1060 Q 912 -1144 768 -1144 Q 608 -1144 516 -1033 Q 424 -923 424 -733 L 424 -93 Q 424 19 315 19 Z"/>
		<path character="p" fill="#CAD1D8" fill-opacity="1.0" stroke="none" stroke-width="10px" stroke-linecap="butt" stroke-opacity="1.0" transform="matrix(1,0,0,1,6520,0)" d="M 309 499 Q 256 499 229 471 Q 203 443 203 389 L 203 -1205 Q 203 -1259 229 -1287 Q 256 -1315 307 -1315 Q 360 -1315 388 -1287 Q 416 -1259 416 -1205 L 416 -952 L 387 -989 Q 429 -1141 556 -1230 Q 683 -1320 859 -1320 Q 1032 -1320 1161 -1238 Q 1291 -1157 1361 -1006 Q 1432 -856 1432 -648 Q 1432 -443 1361 -292 Q 1291 -141 1163 -58 Q 1035 24 859 24 Q 683 24 557 -65 Q 432 -155 387 -304 L 419 -304 L 419 389 Q 419 443 389 471 Q 360 499 309 499 M 813 -149 Q 936 -149 1025 -208 Q 1115 -267 1164 -379 Q 1213 -491 1213 -648 Q 1213 -891 1105 -1019 Q 997 -1147 813 -1147 Q 693 -1147 602 -1089 Q 512 -1032 462 -921 Q 413 -811 413 -648 Q 413 -408 522 -278 Q 632 -149 813 -149 Z"/>
		<path character="l" fill="#CAD1D8" fill-opacity="1.0" stroke="none" stroke-width="10px" stroke-linecap="butt" stroke-opacity="1.0" transform="matrix(1,0,0,1,8070,0)" d="M 597 24 Q 405 24 304 -93 Q 203 -211 203 -429 L 203 -1790 Q 203 -1843 229 -1871 Q 256 -1899 309 -1899 Q 360 -1899 389 -1871 Q 419 -1843 419 -1790 L 419 -445 Q 419 -301 476 -230 Q 533 -160 645 -160 Q 669 -160 688 -162 Q 707 -165 725 -165 Q 755 -168 767 -152 Q 779 -136 779 -88 Q 779 -40 757 -16 Q 736 8 688 16 Q 667 19 643 21 Q 619 24 597 24 Z"/>
		<path character="e" fill="#CAD1D8" fill-opacity="1.0" stroke="none" stroke-width="10px" stroke-linecap="butt" stroke-opacity="1.0" transform="matrix(1,0,0,1,8852,0)" d="M 787 24 Q 581 24 433 -57 Q 285 -139 204 -288 Q 123 -437 123 -645 Q 123 -848 203 -998 Q 283 -1149 423 -1234 Q 563 -1320 747 -1320 Q 877 -1320 981 -1276 Q 1085 -1232 1158 -1149 Q 1232 -1067 1271 -949 Q 1310 -832 1310 -685 Q 1310 -643 1285 -623 Q 1261 -603 1216 -603 L 288 -603 L 288 -744 L 1165 -744 L 1123 -709 Q 1123 -853 1080 -953 Q 1037 -1053 956 -1106 Q 875 -1160 752 -1160 Q 616 -1160 521 -1097 Q 427 -1035 379 -924 Q 331 -813 331 -667 L 331 -651 Q 331 -405 449 -277 Q 568 -149 787 -149 Q 877 -149 966 -173 Q 1056 -197 1141 -253 Q 1179 -277 1209 -276 Q 1240 -275 1258 -257 Q 1277 -240 1284 -214 Q 1291 -189 1279 -160 Q 1267 -131 1232 -109 Q 1144 -45 1024 -10 Q 904 24 787 24 Z"/>
		<path character="s" fill="#CAD1D8" fill-opacity="1.0" stroke="none" stroke-width="10px" stroke-linecap="butt" stroke-opacity="1.0" transform="matrix(1,0,0,1,10275,0)" d="M 640 24 Q 520 24 398 -5 Q 277 -35 173 -107 Q 147 -125 136 -150 Q 125 -176 129 -201 Q 133 -227 150 -245 Q 168 -264 193 -268 Q 219 -272 251 -256 Q 355 -192 452 -166 Q 549 -141 645 -141 Q 797 -141 874 -197 Q 952 -253 952 -349 Q 952 -424 901 -468 Q 851 -512 741 -536 L 499 -589 Q 331 -624 249 -709 Q 168 -795 168 -931 Q 168 -1051 230 -1137 Q 293 -1224 408 -1272 Q 523 -1320 675 -1320 Q 792 -1320 897 -1289 Q 1003 -1259 1088 -1192 Q 1115 -1173 1124 -1148 Q 1133 -1123 1126 -1097 Q 1120 -1072 1101 -1054 Q 1083 -1037 1056 -1034 Q 1029 -1032 1000 -1051 Q 920 -1104 837 -1129 Q 755 -1155 675 -1155 Q 525 -1155 448 -1096 Q 371 -1037 371 -941 Q 371 -867 419 -819 Q 467 -771 568 -749 L 811 -699 Q 984 -661 1070 -580 Q 1157 -499 1157 -360 Q 1157 -184 1016 -80 Q 875 24 640 24 Z"/>
</g>
</svg>