<svg xmlns="http://www.w3.org/2000/svg" xmlns:xlink="http://www.w3.org/1999/xlink" viewBox="0 0 17897 3909">
<title>Generate Code</title>
<g transform="matrix(1,0,0,1,0,2752)">
  		<path character="G" fill="#CAD1D8" fill-opacity="1.0" stroke="none" stroke-width="10px" stroke-linecap="butt" stroke-opacity="1.0" transform="matrix(1,0,0,1,-128,0)" d="M 1091 24 Q 789 24 582 -90 Q 376 -205 269 -421 Q 163 -637 163 -939 Q 163 -1163 223 -1341 Q 283 -1520 399 -1644 Q 515 -1768 681 -1836 Q 848 -1904 1059 -1904 Q 1227 -1904 1384 -1857 Q 1542 -1811 1664 -1710 Q 1696 -1686 1704 -1656 Q 1712 -1627 1703 -1597 Q 1694 -1568 1674 -1548 Q 1654 -1528 1623 -1525 Q 1592 -1523 1560 -1544 Q 1451 -1630 1328 -1668 Q 1205 -1707 1056 -1707 Q 843 -1707 695 -1616 Q 547 -1526 471 -1355 Q 395 -1184 395 -939 Q 395 -565 569 -368 Q 744 -171 1096 -171 Q 1224 -171 1347 -196 Q 1470 -221 1579 -267 L 1531 -141 L 1531 -805 L 1149 -805 Q 1101 -805 1077 -829 Q 1053 -853 1053 -893 Q 1053 -936 1077 -957 Q 1101 -979 1149 -979 L 1627 -979 Q 1672 -979 1696 -955 Q 1720 -931 1720 -885 L 1720 -189 Q 1720 -149 1707 -122 Q 1694 -96 1662 -83 Q 1550 -37 1393 -6 Q 1237 24 1091 24 Z"/>
		<path character="e" fill="#CAD1D8" fill-opacity="1.0" stroke="none" stroke-width="10px" stroke-linecap="butt" stroke-opacity="1.0" transform="matrix(1,0,0,1,1806,0)" d="M 787 24 Q 581 24 433 -57 Q 285 -139 204 -288 Q 123 -437 123 -645 Q 123 -848 203 -998 Q 283 -1149 423 -1234 Q 563 -1320 747 -1320 Q 877 -1320 981 -1276 Q 1085 -1232 1158 -1149 Q 1232 -1067 1271 -949 Q 1310 -832 1310 -685 Q 1310 -643 1285 -623 Q 1261 -603 1216 -603 L 288 -603 L 288 -744 L 1165 -744 L 1123 -709 Q 1123 -853 1080 -953 Q 1037 -1053 956 -1106 Q 875 -1160 752 -1160 Q 616 -1160 521 -1097 Q 427 -1035 379 -924 Q 331 -813 331 -667 L 331 -651 Q 331 -405 449 -277 Q 568 -149 787 -149 Q 877 -149 966 -173 Q 1056 -197 1141 -253 Q 1179 -277 1209 -276 Q 1240 -275 1258 -257 Q 1277 -240 1284 -214 Q 1291 -189 1279 -160 Q 1267 -131 1232 -109 Q 1144 -45 1024 -10 Q 904 24 787 24 Z"/>
		<path character="n" fill="#CAD1D8" fill-opacity="1.0" stroke="none" stroke-width="10px" stroke-linecap="butt" stroke-opacity="1.0" transform="matrix(1,0,0,1,3228,0)" d="M 309 19 Q 256 19 229 -10 Q 203 -40 203 -93 L 203 -1205 Q 203 -1259 229 -1287 Q 256 -1315 307 -1315 Q 357 -1315 385 -1287 Q 413 -1259 413 -1205 L 413 -976 L 384 -1008 Q 440 -1163 566 -1241 Q 693 -1320 859 -1320 Q 1013 -1320 1116 -1264 Q 1219 -1208 1269 -1094 Q 1320 -981 1320 -808 L 1320 -93 Q 1320 -40 1292 -10 Q 1264 19 1213 19 Q 1160 19 1132 -10 Q 1104 -40 1104 -93 L 1104 -795 Q 1104 -976 1033 -1060 Q 963 -1144 808 -1144 Q 629 -1144 524 -1033 Q 419 -923 419 -739 L 419 -93 Q 419 19 309 19 Z"/>
		<path character="e" fill="#CAD1D8" fill-opacity="1.0" stroke="none" stroke-width="10px" stroke-linecap="butt" stroke-opacity="1.0" transform="matrix(1,0,0,1,4778,0)" d="M 787 24 Q 581 24 433 -57 Q 285 -139 204 -288 Q 123 -437 123 -645 Q 123 -848 203 -998 Q 283 -1149 423 -1234 Q 563 -1320 747 -1320 Q 877 -1320 981 -1276 Q 1085 -1232 1158 -1149 Q 1232 -1067 1271 -949 Q 1310 -832 1310 -685 Q 1310 -643 1285 -623 Q 1261 -603 1216 -603 L 288 -603 L 288 -744 L 1165 -744 L 1123 -709 Q 1123 -853 1080 -953 Q 1037 -1053 956 -1106 Q 875 -1160 752 -1160 Q 616 -1160 521 -1097 Q 427 -1035 379 -924 Q 331 -813 331 -667 L 331 -651 Q 331 -405 449 -277 Q 568 -149 787 -149 Q 877 -149 966 -173 Q 1056 -197 1141 -253 Q 1179 -277 1209 -276 Q 1240 -275 1258 -257 Q 1277 -240 1284 -214 Q 1291 -189 1279 -160 Q 1267 -131 1232 -109 Q 1144 -45 1024 -10 Q 904 24 787 24 Z"/>
		<path character="r" fill="#CAD1D8" fill-opacity="1.0" stroke="none" stroke-width="10px" stroke-linecap="butt" stroke-opacity="1.0" transform="matrix(1,0,0,1,6200,0)" d="M 312 19 Q 259 19 231 -10 Q 203 -40 203 -93 L 203 -1205 Q 203 -1259 229 -1287 Q 256 -1315 307 -1315 Q 357 -1315 385 -1287 Q 413 -1259 413 -1205 L 413 -989 L 387 -989 Q 429 -1147 549 -1232 Q 669 -1318 845 -1323 Q 885 -1326 909 -1305 Q 933 -1285 936 -1237 Q 939 -1192 915 -1165 Q 891 -1139 840 -1133 L 797 -1128 Q 616 -1112 518 -1012 Q 421 -912 421 -739 L 421 -93 Q 421 -40 393 -10 Q 365 19 312 19 Z"/>
		<path character="a" fill="#CAD1D8" fill-opacity="1.0" stroke="none" stroke-width="10px" stroke-linecap="butt" stroke-opacity="1.0" transform="matrix(1,0,0,1,7174,0)" d="M 611 24 Q 477 24 372 -28 Q 267 -80 205 -170 Q 144 -261 144 -373 Q 144 -517 217 -600 Q 291 -683 460 -717 Q 629 -752 923 -752 L 1043 -752 L 1043 -611 L 925 -611 Q 709 -611 585 -591 Q 461 -571 412 -523 Q 363 -475 363 -387 Q 363 -277 439 -208 Q 515 -139 645 -139 Q 752 -139 833 -189 Q 915 -240 961 -328 Q 1008 -416 1008 -531 L 1008 -835 Q 1008 -1000 941 -1073 Q 875 -1147 723 -1147 Q 629 -1147 536 -1123 Q 443 -1099 339 -1045 Q 301 -1027 274 -1033 Q 248 -1040 232 -1061 Q 216 -1083 213 -1111 Q 211 -1139 225 -1165 Q 240 -1192 272 -1208 Q 389 -1267 504 -1293 Q 619 -1320 723 -1320 Q 891 -1320 1000 -1265 Q 1109 -1211 1162 -1100 Q 1216 -989 1216 -816 L 1216 -93 Q 1216 -40 1190 -10 Q 1165 19 1117 19 Q 1067 19 1040 -10 Q 1013 -40 1013 -93 L 1013 -301 L 1037 -301 Q 1016 -200 956 -128 Q 896 -56 808 -16 Q 720 24 611 24 Z"/>
		<path character="t" fill="#CAD1D8" fill-opacity="1.0" stroke="none" stroke-width="10px" stroke-linecap="butt" stroke-opacity="1.0" transform="matrix(1,0,0,1,8596,0)" d="M 723 24 Q 571 24 468 -30 Q 365 -85 314 -190 Q 264 -296 264 -448 L 264 -1128 L 85 -1128 Q 40 -1128 16 -1150 Q -8 -1173 -8 -1213 Q -8 -1253 16 -1274 Q 40 -1296 85 -1296 L 264 -1296 L 264 -1603 Q 264 -1656 293 -1684 Q 323 -1712 373 -1712 Q 424 -1712 452 -1684 Q 480 -1656 480 -1603 L 480 -1296 L 816 -1296 Q 861 -1296 885 -1274 Q 909 -1253 909 -1213 Q 909 -1173 885 -1150 Q 861 -1128 816 -1128 L 480 -1128 L 480 -469 Q 480 -317 544 -238 Q 608 -160 752 -160 Q 803 -160 839 -170 Q 875 -181 899 -181 Q 923 -184 939 -165 Q 955 -147 955 -101 Q 955 -69 943 -42 Q 931 -16 901 -5 Q 869 5 817 14 Q 765 24 723 24 Z"/>
		<path character="e" fill="#CAD1D8" fill-opacity="1.0" stroke="none" stroke-width="10px" stroke-linecap="butt" stroke-opacity="1.0" transform="matrix(1,0,0,1,9571,0)" d="M 787 24 Q 581 24 433 -57 Q 285 -139 204 -288 Q 123 -437 123 -645 Q 123 -848 203 -998 Q 283 -1149 423 -1234 Q 563 -1320 747 -1320 Q 877 -1320 981 -1276 Q 1085 -1232 1158 -1149 Q 1232 -1067 1271 -949 Q 1310 -832 1310 -685 Q 1310 -643 1285 -623 Q 1261 -603 1216 -603 L 288 -603 L 288 -744 L 1165 -744 L 1123 -709 Q 1123 -853 1080 -953 Q 1037 -1053 956 -1106 Q 875 -1160 752 -1160 Q 616 -1160 521 -1097 Q 427 -1035 379 -924 Q 331 -813 331 -667 L 331 -651 Q 331 -405 449 -277 Q 568 -149 787 -149 Q 877 -149 966 -173 Q 1056 -197 1141 -253 Q 1179 -277 1209 -276 Q 1240 -275 1258 -257 Q 1277 -240 1284 -214 Q 1291 -189 1279 -160 Q 1267 -131 1232 -109 Q 1144 -45 1024 -10 Q 904 24 787 24 Z"/>
		<path character="C" fill="#CAD1D8" fill-opacity="1.0" stroke="none" stroke-width="10px" stroke-linecap="butt" stroke-opacity="1.0" transform="matrix(1,0,0,1,11711,0)" d="M 1045 24 Q 768 24 570 -93 Q 373 -211 268 -427 Q 163 -643 163 -941 Q 163 -1165 223 -1342 Q 283 -1520 396 -1644 Q 509 -1768 674 -1836 Q 840 -1904 1045 -1904 Q 1211 -1904 1360 -1857 Q 1510 -1811 1619 -1720 Q 1654 -1694 1666 -1660 Q 1678 -1627 1668 -1596 Q 1659 -1566 1636 -1546 Q 1614 -1526 1582 -1526 Q 1550 -1526 1510 -1552 Q 1414 -1630 1299 -1667 Q 1184 -1704 1051 -1704 Q 840 -1704 693 -1615 Q 547 -1526 472 -1355 Q 397 -1184 397 -941 Q 397 -699 472 -527 Q 547 -355 693 -265 Q 840 -176 1051 -176 Q 1181 -176 1298 -214 Q 1416 -253 1515 -331 Q 1555 -357 1587 -356 Q 1619 -355 1640 -336 Q 1662 -317 1671 -288 Q 1680 -259 1671 -227 Q 1662 -195 1630 -171 Q 1518 -75 1367 -25 Q 1216 24 1045 24 Z"/>
		<path character="o" fill="#CAD1D8" fill-opacity="1.0" stroke="none" stroke-width="10px" stroke-linecap="butt" stroke-opacity="1.0" transform="matrix(1,0,0,1,13517,0)" d="M 741 24 Q 552 24 413 -58 Q 275 -141 199 -292 Q 123 -443 123 -648 Q 123 -803 165 -927 Q 208 -1051 290 -1139 Q 373 -1227 486 -1273 Q 600 -1320 741 -1320 Q 931 -1320 1069 -1237 Q 1208 -1155 1284 -1004 Q 1360 -853 1360 -648 Q 1360 -493 1317 -370 Q 1275 -248 1192 -158 Q 1109 -69 996 -22 Q 883 24 741 24 M 741 -149 Q 861 -149 952 -208 Q 1043 -267 1092 -379 Q 1141 -491 1141 -648 Q 1141 -891 1033 -1019 Q 925 -1147 741 -1147 Q 619 -1147 529 -1089 Q 440 -1032 390 -921 Q 341 -811 341 -648 Q 341 -408 450 -278 Q 560 -149 741 -149 Z"/>
		<path character="d" fill="#CAD1D8" fill-opacity="1.0" stroke="none" stroke-width="10px" stroke-linecap="butt" stroke-opacity="1.0" transform="matrix(1,0,0,1,15003,0)" d="M 696 24 Q 523 24 393 -58 Q 264 -141 193 -292 Q 123 -443 123 -648 Q 123 -856 193 -1006 Q 264 -1157 393 -1238 Q 523 -1320 696 -1320 Q 872 -1320 997 -1232 Q 1123 -1144 1165 -995 L 1136 -995 L 1136 -1790 Q 1136 -1843 1164 -1871 Q 1192 -1899 1245 -1899 Q 1296 -1899 1324 -1871 Q 1352 -1843 1352 -1790 L 1352 -93 Q 1352 -40 1325 -10 Q 1299 19 1245 19 Q 1195 19 1167 -10 Q 1139 -40 1139 -93 L 1139 -347 L 1168 -309 Q 1125 -157 998 -66 Q 872 24 696 24 M 741 -149 Q 861 -149 952 -208 Q 1043 -267 1092 -379 Q 1141 -491 1141 -648 Q 1141 -891 1033 -1019 Q 925 -1147 741 -1147 Q 619 -1147 529 -1089 Q 440 -1032 390 -921 Q 341 -811 341 -648 Q 341 -408 450 -278 Q 560 -149 741 -149 Z"/>
		<path character="e" fill="#CAD1D8" fill-opacity="1.0" stroke="none" stroke-width="10px" stroke-linecap="butt" stroke-opacity="1.0" transform="matrix(1,0,0,1,16553,0)" d="M 787 24 Q 581 24 433 -57 Q 285 -139 204 -288 Q 123 -437 123 -645 Q 123 -848 203 -998 Q 283 -1149 423 -1234 Q 563 -1320 747 -1320 Q 877 -1320 981 -1276 Q 1085 -1232 1158 -1149 Q 1232 -1067 1271 -949 Q 1310 -832 1310 -685 Q 1310 -643 1285 -623 Q 1261 -603 1216 -603 L 288 -603 L 288 -744 L 1165 -744 L 1123 -709 Q 1123 -853 1080 -953 Q 1037 -1053 956 -1106 Q 875 -1160 752 -1160 Q 616 -1160 521 -1097 Q 427 -1035 379 -924 Q 331 -813 331 -667 L 331 -651 Q 331 -405 449 -277 Q 568 -149 787 -149 Q 877 -149 966 -173 Q 1056 -197 1141 -253 Q 1179 -277 1209 -276 Q 1240 -275 1258 -257 Q 1277 -240 1284 -214 Q 1291 -189 1279 -160 Q 1267 -131 1232 -109 Q 1144 -45 1024 -10 Q 904 24 787 24 Z"/>
</g>
</svg>