<svg xmlns="http://www.w3.org/2000/svg" xmlns:xlink="http://www.w3.org/1999/xlink" viewBox="0 0 20436 3909">
<title>Import Your Data</title>
<g transform="matrix(1,0,0,1,0,2752)">
  		<path character="I" fill="#CAD1D8" fill-opacity="1.0" stroke="none" stroke-width="10px" stroke-linecap="butt" stroke-opacity="1.0" transform="matrix(1,0,0,1,-192,0)" d="M 341 19 Q 288 19 260 -12 Q 232 -43 232 -96 L 232 -1784 Q 232 -1840 260 -1869 Q 288 -1899 341 -1899 Q 395 -1899 423 -1869 Q 451 -1840 451 -1784 L 451 -96 Q 451 -43 424 -12 Q 397 19 341 19 Z"/>
		<path character="m" fill="#CAD1D8" fill-opacity="1.0" stroke="none" stroke-width="10px" stroke-linecap="butt" stroke-opacity="1.0" transform="matrix(1,0,0,1,526,0)" d="M 315 19 Q 261 19 234 -10 Q 208 -40 208 -93 L 208 -1205 Q 208 -1259 234 -1287 Q 261 -1315 312 -1315 Q 363 -1315 391 -1287 Q 419 -1259 419 -1205 L 419 -971 L 389 -1008 Q 440 -1157 553 -1238 Q 667 -1320 824 -1320 Q 989 -1320 1092 -1241 Q 1195 -1163 1229 -997 L 1189 -997 Q 1237 -1147 1361 -1233 Q 1486 -1320 1651 -1320 Q 1798 -1320 1892 -1264 Q 1987 -1208 2035 -1094 Q 2083 -981 2083 -808 L 2083 -93 Q 2083 -40 2055 -10 Q 2027 19 1974 19 Q 1923 19 1895 -10 Q 1867 -40 1867 -93 L 1867 -797 Q 1867 -976 1805 -1060 Q 1744 -1144 1598 -1144 Q 1438 -1144 1345 -1033 Q 1253 -923 1253 -733 L 1253 -93 Q 1253 -40 1225 -10 Q 1197 19 1144 19 Q 1093 19 1065 -10 Q 1037 -40 1037 -93 L 1037 -797 Q 1037 -976 974 -1060 Q 912 -1144 768 -1144 Q 608 -1144 516 -1033 Q 424 -923 424 -733 L 424 -93 Q 424 19 315 19 Z"/>
		<path character="p" fill="#CAD1D8" fill-opacity="1.0" stroke="none" stroke-width="10px" stroke-linecap="butt" stroke-opacity="1.0" transform="matrix(1,0,0,1,2844,0)" d="M 309 499 Q 256 499 229 471 Q 203 443 203 389 L 203 -1205 Q 203 -1259 229 -1287 Q 256 -1315 307 -1315 Q 360 -1315 388 -1287 Q 416 -1259 416 -1205 L 416 -952 L 387 -989 Q 429 -1141 556 -1230 Q 683 -1320 859 -1320 Q 1032 -1320 1161 -1238 Q 1291 -1157 1361 -1006 Q 1432 -856 1432 -648 Q 1432 -443 1361 -292 Q 1291 -141 1163 -58 Q 1035 24 859 24 Q 683 24 557 -65 Q 432 -155 387 -304 L 419 -304 L 419 389 Q 419 443 389 471 Q 360 499 309 499 M 813 -149 Q 936 -149 1025 -208 Q 1115 -267 1164 -379 Q 1213 -491 1213 -648 Q 1213 -891 1105 -1019 Q 997 -1147 813 -1147 Q 693 -1147 602 -1089 Q 512 -1032 462 -921 Q 413 -811 413 -648 Q 413 -408 522 -278 Q 632 -149 813 -149 Z"/>
		<path character="o" fill="#CAD1D8" fill-opacity="1.0" stroke="none" stroke-width="10px" stroke-linecap="butt" stroke-opacity="1.0" transform="matrix(1,0,0,1,4394,0)" d="M 741 24 Q 552 24 413 -58 Q 275 -141 199 -292 Q 123 -443 123 -648 Q 123 -803 165 -927 Q 208 -1051 290 -1139 Q 373 -1227 486 -1273 Q 600 -1320 741 -1320 Q 931 -1320 1069 -1237 Q 1208 -1155 1284 -1004 Q 1360 -853 1360 -648 Q 1360 -493 1317 -370 Q 1275 -248 1192 -158 Q 1109 -69 996 -22 Q 883 24 741 24 M 741 -149 Q 861 -149 952 -208 Q 1043 -267 1092 -379 Q 1141 -491 1141 -648 Q 1141 -891 1033 -1019 Q 925 -1147 741 -1147 Q 619 -1147 529 -1089 Q 440 -1032 390 -921 Q 341 -811 341 -648 Q 341 -408 450 -278 Q 560 -149 741 -149 Z"/>
		<path character="r" fill="#CAD1D8" fill-opacity="1.0" stroke="none" stroke-width="10px" stroke-linecap="butt" stroke-opacity="1.0" transform="matrix(1,0,0,1,5880,0)" d="M 312 19 Q 259 19 231 -10 Q 203 -40 203 -93 L 203 -1205 Q 203 -1259 229 -1287 Q 256 -1315 307 -1315 Q 357 -1315 385 -1287 Q 413 -1259 413 -1205 L 413 -989 L 387 -989 Q 429 -1147 549 -1232 Q 669 -1318 845 -1323 Q 885 -1326 909 -1305 Q 933 -1285 936 -1237 Q 939 -1192 915 -1165 Q 891 -1139 840 -1133 L 797 -1128 Q 616 -1112 518 -1012 Q 421 -912 421 -739 L 421 -93 Q 421 -40 393 -10 Q 365 19 312 19 Z"/>
		<path character="t" fill="#CAD1D8" fill-opacity="1.0" stroke="none" stroke-width="10px" stroke-linecap="butt" stroke-opacity="1.0" transform="matrix(1,0,0,1,6854,0)" d="M 723 24 Q 571 24 468 -30 Q 365 -85 314 -190 Q 264 -296 264 -448 L 264 -1128 L 85 -1128 Q 40 -1128 16 -1150 Q -8 -1173 -8 -1213 Q -8 -1253 16 -1274 Q 40 -1296 85 -1296 L 264 -1296 L 264 -1603 Q 264 -1656 293 -1684 Q 323 -1712 373 -1712 Q 424 -1712 452 -1684 Q 480 -1656 480 -1603 L 480 -1296 L 816 -1296 Q 861 -1296 885 -1274 Q 909 -1253 909 -1213 Q 909 -1173 885 -1150 Q 861 -1128 816 -1128 L 480 -1128 L 480 -469 Q 480 -317 544 -238 Q 608 -160 752 -160 Q 803 -160 839 -170 Q 875 -181 899 -181 Q 923 -184 939 -165 Q 955 -147 955 -101 Q 955 -69 943 -42 Q 931 -16 901 -5 Q 869 5 817 14 Q 765 24 723 24 Z"/>
		<path character="Y" fill="#CAD1D8" fill-opacity="1.0" stroke="none" stroke-width="10px" stroke-linecap="butt" stroke-opacity="1.0" transform="matrix(1,0,0,1,8547,0)" d="M 795 19 Q 741 19 713 -12 Q 685 -43 685 -99 L 685 -973 L 733 -821 L 64 -1744 Q 40 -1779 41 -1815 Q 43 -1851 69 -1875 Q 96 -1899 139 -1899 Q 176 -1899 205 -1881 Q 235 -1864 259 -1827 L 827 -1043 L 771 -1043 L 1339 -1827 Q 1368 -1867 1395 -1883 Q 1422 -1899 1459 -1899 Q 1502 -1899 1526 -1876 Q 1550 -1854 1551 -1818 Q 1552 -1782 1526 -1742 L 859 -821 L 904 -973 L 904 -99 Q 904 19 795 19 Z"/>
		<path character="o" fill="#CAD1D8" fill-opacity="1.0" stroke="none" stroke-width="10px" stroke-linecap="butt" stroke-opacity="1.0" transform="matrix(1,0,0,1,10161,0)" d="M 741 24 Q 552 24 413 -58 Q 275 -141 199 -292 Q 123 -443 123 -648 Q 123 -803 165 -927 Q 208 -1051 290 -1139 Q 373 -1227 486 -1273 Q 600 -1320 741 -1320 Q 931 -1320 1069 -1237 Q 1208 -1155 1284 -1004 Q 1360 -853 1360 -648 Q 1360 -493 1317 -370 Q 1275 -248 1192 -158 Q 1109 -69 996 -22 Q 883 24 741 24 M 741 -149 Q 861 -149 952 -208 Q 1043 -267 1092 -379 Q 1141 -491 1141 -648 Q 1141 -891 1033 -1019 Q 925 -1147 741 -1147 Q 619 -1147 529 -1089 Q 440 -1032 390 -921 Q 341 -811 341 -648 Q 341 -408 450 -278 Q 560 -149 741 -149 Z"/>
		<path character="u" fill="#CAD1D8" fill-opacity="1.0" stroke="none" stroke-width="10px" stroke-linecap="butt" stroke-opacity="1.0" transform="matrix(1,0,0,1,11647,0)" d="M 661 24 Q 504 24 401 -33 Q 299 -91 247 -205 Q 195 -320 195 -491 L 195 -1205 Q 195 -1261 223 -1288 Q 251 -1315 301 -1315 Q 355 -1315 383 -1288 Q 411 -1261 411 -1205 L 411 -493 Q 411 -323 481 -239 Q 552 -155 704 -155 Q 869 -155 973 -267 Q 1077 -379 1077 -560 L 1077 -1205 Q 1077 -1261 1105 -1288 Q 1133 -1315 1187 -1315 Q 1237 -1315 1265 -1288 Q 1293 -1261 1293 -1205 L 1293 -93 Q 1293 19 1189 19 Q 1139 19 1111 -10 Q 1083 -40 1083 -93 L 1083 -336 L 1117 -299 Q 1064 -141 942 -58 Q 821 24 661 24 Z"/>
		<path character="r" fill="#CAD1D8" fill-opacity="1.0" stroke="none" stroke-width="10px" stroke-linecap="butt" stroke-opacity="1.0" transform="matrix(1,0,0,1,13133,0)" d="M 312 19 Q 259 19 231 -10 Q 203 -40 203 -93 L 203 -1205 Q 203 -1259 229 -1287 Q 256 -1315 307 -1315 Q 357 -1315 385 -1287 Q 413 -1259 413 -1205 L 413 -989 L 387 -989 Q 429 -1147 549 -1232 Q 669 -1318 845 -1323 Q 885 -1326 909 -1305 Q 933 -1285 936 -1237 Q 939 -1192 915 -1165 Q 891 -1139 840 -1133 L 797 -1128 Q 616 -1112 518 -1012 Q 421 -912 421 -739 L 421 -93 Q 421 -40 393 -10 Q 365 19 312 19 Z"/>
		<path character="D" fill="#CAD1D8" fill-opacity="1.0" stroke="none" stroke-width="10px" stroke-linecap="butt" stroke-opacity="1.0" transform="matrix(1,0,0,1,14825,0)" d="M 352 0 Q 293 0 262 -30 Q 232 -61 232 -120 L 232 -1760 Q 232 -1819 262 -1849 Q 293 -1880 352 -1880 L 867 -1880 Q 1323 -1880 1571 -1640 Q 1819 -1400 1819 -941 Q 1819 -712 1756 -537 Q 1694 -363 1571 -243 Q 1448 -123 1272 -61 Q 1096 0 867 0 L 352 0 M 451 -187 L 851 -187 Q 1037 -187 1174 -235 Q 1312 -283 1404 -376 Q 1496 -469 1541 -612 Q 1587 -755 1587 -941 Q 1587 -1318 1403 -1506 Q 1219 -1694 851 -1694 L 451 -1694 L 451 -187 Z"/>
		<path character="a" fill="#CAD1D8" fill-opacity="1.0" stroke="none" stroke-width="10px" stroke-linecap="butt" stroke-opacity="1.0" transform="matrix(1,0,0,1,16823,0)" d="M 611 24 Q 477 24 372 -28 Q 267 -80 205 -170 Q 144 -261 144 -373 Q 144 -517 217 -600 Q 291 -683 460 -717 Q 629 -752 923 -752 L 1043 -752 L 1043 -611 L 925 -611 Q 709 -611 585 -591 Q 461 -571 412 -523 Q 363 -475 363 -387 Q 363 -277 439 -208 Q 515 -139 645 -139 Q 752 -139 833 -189 Q 915 -240 961 -328 Q 1008 -416 1008 -531 L 1008 -835 Q 1008 -1000 941 -1073 Q 875 -1147 723 -1147 Q 629 -1147 536 -1123 Q 443 -1099 339 -1045 Q 301 -1027 274 -1033 Q 248 -1040 232 -1061 Q 216 -1083 213 -1111 Q 211 -1139 225 -1165 Q 240 -1192 272 -1208 Q 389 -1267 504 -1293 Q 619 -1320 723 -1320 Q 891 -1320 1000 -1265 Q 1109 -1211 1162 -1100 Q 1216 -989 1216 -816 L 1216 -93 Q 1216 -40 1190 -10 Q 1165 19 1117 19 Q 1067 19 1040 -10 Q 1013 -40 1013 -93 L 1013 -301 L 1037 -301 Q 1016 -200 956 -128 Q 896 -56 808 -16 Q 720 24 611 24 Z"/>
		<path character="t" fill="#CAD1D8" fill-opacity="1.0" stroke="none" stroke-width="10px" stroke-linecap="butt" stroke-opacity="1.0" transform="matrix(1,0,0,1,18245,0)" d="M 723 24 Q 571 24 468 -30 Q 365 -85 314 -190 Q 264 -296 264 -448 L 264 -1128 L 85 -1128 Q 40 -1128 16 -1150 Q -8 -1173 -8 -1213 Q -8 -1253 16 -1274 Q 40 -1296 85 -1296 L 264 -1296 L 264 -1603 Q 264 -1656 293 -1684 Q 323 -1712 373 -1712 Q 424 -1712 452 -1684 Q 480 -1656 480 -1603 L 480 -1296 L 816 -1296 Q 861 -1296 885 -1274 Q 909 -1253 909 -1213 Q 909 -1173 885 -1150 Q 861 -1128 816 -1128 L 480 -1128 L 480 -469 Q 480 -317 544 -238 Q 608 -160 752 -160 Q 803 -160 839 -170 Q 875 -181 899 -181 Q 923 -184 939 -165 Q 955 -147 955 -101 Q 955 -69 943 -42 Q 931 -16 901 -5 Q 869 5 817 14 Q 765 24 723 24 Z"/>
		<path character="a" fill="#CAD1D8" fill-opacity="1.0" stroke="none" stroke-width="10px" stroke-linecap="butt" stroke-opacity="1.0" transform="matrix(1,0,0,1,19219,0)" d="M 611 24 Q 477 24 372 -28 Q 267 -80 205 -170 Q 144 -261 144 -373 Q 144 -517 217 -600 Q 291 -683 460 -717 Q 629 -752 923 -752 L 1043 -752 L 1043 -611 L 925 -611 Q 709 -611 585 -591 Q 461 -571 412 -523 Q 363 -475 363 -387 Q 363 -277 439 -208 Q 515 -139 645 -139 Q 752 -139 833 -189 Q 915 -240 961 -328 Q 1008 -416 1008 -531 L 1008 -835 Q 1008 -1000 941 -1073 Q 875 -1147 723 -1147 Q 629 -1147 536 -1123 Q 443 -1099 339 -1045 Q 301 -1027 274 -1033 Q 248 -1040 232 -1061 Q 216 -1083 213 -1111 Q 211 -1139 225 -1165 Q 240 -1192 272 -1208 Q 389 -1267 504 -1293 Q 619 -1320 723 -1320 Q 891 -1320 1000 -1265 Q 1109 -1211 1162 -1100 Q 1216 -989 1216 -816 L 1216 -93 Q 1216 -40 1190 -10 Q 1165 19 1117 19 Q 1067 19 1040 -10 Q 1013 -40 1013 -93 L 1013 -301 L 1037 -301 Q 1016 -200 956 -128 Q 896 -56 808 -16 Q 720 24 611 24 Z"/>
</g>
</svg>