<svg xmlns="http://www.w3.org/2000/svg" xmlns:xlink="http://www.w3.org/1999/xlink" viewBox="0 0 13965 3909">
<title>Input Types</title>
<g transform="matrix(1,0,0,1,0,2752)">
  		<path character="I" fill="#CAD1D8" fill-opacity="1.0" stroke="none" stroke-width="10px" stroke-linecap="butt" stroke-opacity="1.0" transform="matrix(1,0,0,1,-192,0)" d="M 341 19 Q 288 19 260 -12 Q 232 -43 232 -96 L 232 -1784 Q 232 -1840 260 -1869 Q 288 -1899 341 -1899 Q 395 -1899 423 -1869 Q 451 -1840 451 -1784 L 451 -96 Q 451 -43 424 -12 Q 397 19 341 19 Z"/>
		<path character="n" fill="#CAD1D8" fill-opacity="1.0" stroke="none" stroke-width="10px" stroke-linecap="butt" stroke-opacity="1.0" transform="matrix(1,0,0,1,526,0)" d="M 309 19 Q 256 19 229 -10 Q 203 -40 203 -93 L 203 -1205 Q 203 -1259 229 -1287 Q 256 -1315 307 -1315 Q 357 -1315 385 -1287 Q 413 -1259 413 -1205 L 413 -976 L 384 -1008 Q 440 -1163 566 -1241 Q 693 -1320 859 -1320 Q 1013 -1320 1116 -1264 Q 1219 -1208 1269 -1094 Q 1320 -981 1320 -808 L 1320 -93 Q 1320 -40 1292 -10 Q 1264 19 1213 19 Q 1160 19 1132 -10 Q 1104 -40 1104 -93 L 1104 -795 Q 1104 -976 1033 -1060 Q 963 -1144 808 -1144 Q 629 -1144 524 -1033 Q 419 -923 419 -739 L 419 -93 Q 419 19 309 19 Z"/>
		<path character="p" fill="#CAD1D8" fill-opacity="1.0" stroke="none" stroke-width="10px" stroke-linecap="butt" stroke-opacity="1.0" transform="matrix(1,0,0,1,2076,0)" d="M 309 499 Q 256 499 229 471 Q 203 443 203 389 L 203 -1205 Q 203 -1259 229 -1287 Q 256 -1315 307 -1315 Q 360 -1315 388 -1287 Q 416 -1259 416 -1205 L 416 -952 L 387 -989 Q 429 -1141 556 -1230 Q 683 -1320 859 -1320 Q 1032 -1320 1161 -1238 Q 1291 -1157 1361 -1006 Q 1432 -856 1432 -648 Q 1432 -443 1361 -292 Q 1291 -141 1163 -58 Q 1035 24 859 24 Q 683 24 557 -65 Q 432 -155 387 -304 L 419 -304 L 419 389 Q 419 443 389 471 Q 360 499 309 499 M 813 -149 Q 936 -149 1025 -208 Q 1115 -267 1164 -379 Q 1213 -491 1213 -648 Q 1213 -891 1105 -1019 Q 997 -1147 813 -1147 Q 693 -1147 602 -1089 Q 512 -1032 462 -921 Q 413 -811 413 -648 Q 413 -408 522 -278 Q 632 -149 813 -149 Z"/>
		<path character="u" fill="#CAD1D8" fill-opacity="1.0" stroke="none" stroke-width="10px" stroke-linecap="butt" stroke-opacity="1.0" transform="matrix(1,0,0,1,3626,0)" d="M 661 24 Q 504 24 401 -33 Q 299 -91 247 -205 Q 195 -320 195 -491 L 195 -1205 Q 195 -1261 223 -1288 Q 251 -1315 301 -1315 Q 355 -1315 383 -1288 Q 411 -1261 411 -1205 L 411 -493 Q 411 -323 481 -239 Q 552 -155 704 -155 Q 869 -155 973 -267 Q 1077 -379 1077 -560 L 1077 -1205 Q 1077 -1261 1105 -1288 Q 1133 -1315 1187 -1315 Q 1237 -1315 1265 -1288 Q 1293 -1261 1293 -1205 L 1293 -93 Q 1293 19 1189 19 Q 1139 19 1111 -10 Q 1083 -40 1083 -93 L 1083 -336 L 1117 -299 Q 1064 -141 942 -58 Q 821 24 661 24 Z"/>
		<path character="t" fill="#CAD1D8" fill-opacity="1.0" stroke="none" stroke-width="10px" stroke-linecap="butt" stroke-opacity="1.0" transform="matrix(1,0,0,1,5112,0)" d="M 723 24 Q 571 24 468 -30 Q 365 -85 314 -190 Q 264 -296 264 -448 L 264 -1128 L 85 -1128 Q 40 -1128 16 -1150 Q -8 -1173 -8 -1213 Q -8 -1253 16 -1274 Q 40 -1296 85 -1296 L 264 -1296 L 264 -1603 Q 264 -1656 293 -1684 Q 323 -1712 373 -1712 Q 424 -1712 452 -1684 Q 480 -1656 480 -1603 L 480 -1296 L 816 -1296 Q 861 -1296 885 -1274 Q 909 -1253 909 -1213 Q 909 -1173 885 -1150 Q 861 -1128 816 -1128 L 480 -1128 L 480 -469 Q 480 -317 544 -238 Q 608 -160 752 -160 Q 803 -160 839 -170 Q 875 -181 899 -181 Q 923 -184 939 -165 Q 955 -147 955 -101 Q 955 -69 943 -42 Q 931 -16 901 -5 Q 869 5 817 14 Q 765 24 723 24 Z"/>
		<path character="T" fill="#CAD1D8" fill-opacity="1.0" stroke="none" stroke-width="10px" stroke-linecap="butt" stroke-opacity="1.0" transform="matrix(1,0,0,1,6804,0)" d="M 803 19 Q 752 19 722 -12 Q 693 -43 693 -96 L 693 -1691 L 93 -1691 Q 45 -1691 18 -1717 Q -8 -1744 -8 -1787 Q -8 -1832 18 -1856 Q 45 -1880 93 -1880 L 1515 -1880 Q 1563 -1880 1589 -1856 Q 1616 -1832 1616 -1787 Q 1616 -1742 1589 -1716 Q 1563 -1691 1515 -1691 L 915 -1691 L 915 -96 Q 915 -43 887 -12 Q 859 19 803 19 Z"/>
		<path character="y" fill="#CAD1D8" fill-opacity="1.0" stroke="none" stroke-width="10px" stroke-linecap="butt" stroke-opacity="1.0" transform="matrix(1,0,0,1,8419,0)" d="M 491 499 Q 451 499 427 477 Q 403 456 399 420 Q 395 384 411 347 L 595 -67 L 595 27 L 83 -1163 Q 67 -1203 72 -1237 Q 77 -1272 104 -1293 Q 131 -1315 179 -1315 Q 221 -1315 245 -1296 Q 269 -1277 288 -1229 L 725 -157 L 653 -157 L 1096 -1229 Q 1117 -1277 1141 -1296 Q 1165 -1315 1211 -1315 Q 1253 -1315 1276 -1293 Q 1299 -1272 1303 -1238 Q 1307 -1205 1291 -1165 L 608 413 Q 587 461 561 480 Q 536 499 491 499 Z"/>
		<path character="p" fill="#CAD1D8" fill-opacity="1.0" stroke="none" stroke-width="10px" stroke-linecap="butt" stroke-opacity="1.0" transform="matrix(1,0,0,1,9777,0)" d="M 309 499 Q 256 499 229 471 Q 203 443 203 389 L 203 -1205 Q 203 -1259 229 -1287 Q 256 -1315 307 -1315 Q 360 -1315 388 -1287 Q 416 -1259 416 -1205 L 416 -952 L 387 -989 Q 429 -1141 556 -1230 Q 683 -1320 859 -1320 Q 1032 -1320 1161 -1238 Q 1291 -1157 1361 -1006 Q 1432 -856 1432 -648 Q 1432 -443 1361 -292 Q 1291 -141 1163 -58 Q 1035 24 859 24 Q 683 24 557 -65 Q 432 -155 387 -304 L 419 -304 L 419 389 Q 419 443 389 471 Q 360 499 309 499 M 813 -149 Q 936 -149 1025 -208 Q 1115 -267 1164 -379 Q 1213 -491 1213 -648 Q 1213 -891 1105 -1019 Q 997 -1147 813 -1147 Q 693 -1147 602 -1089 Q 512 -1032 462 -921 Q 413 -811 413 -648 Q 413 -408 522 -278 Q 632 -149 813 -149 Z"/>
		<path character="e" fill="#CAD1D8" fill-opacity="1.0" stroke="none" stroke-width="10px" stroke-linecap="butt" stroke-opacity="1.0" transform="matrix(1,0,0,1,11327,0)" d="M 787 24 Q 581 24 433 -57 Q 285 -139 204 -288 Q 123 -437 123 -645 Q 123 -848 203 -998 Q 283 -1149 423 -1234 Q 563 -1320 747 -1320 Q 877 -1320 981 -1276 Q 1085 -1232 1158 -1149 Q 1232 -1067 1271 -949 Q 1310 -832 1310 -685 Q 1310 -643 1285 -623 Q 1261 -603 1216 -603 L 288 -603 L 288 -744 L 1165 -744 L 1123 -709 Q 1123 -853 1080 -953 Q 1037 -1053 956 -1106 Q 875 -1160 752 -1160 Q 616 -1160 521 -1097 Q 427 -1035 379 -924 Q 331 -813 331 -667 L 331 -651 Q 331 -405 449 -277 Q 568 -149 787 -149 Q 877 -149 966 -173 Q 1056 -197 1141 -253 Q 1179 -277 1209 -276 Q 1240 -275 1258 -257 Q 1277 -240 1284 -214 Q 1291 -189 1279 -160 Q 1267 -131 1232 -109 Q 1144 -45 1024 -10 Q 904 24 787 24 Z"/>
		<path character="s" fill="#CAD1D8" fill-opacity="1.0" stroke="none" stroke-width="10px" stroke-linecap="butt" stroke-opacity="1.0" transform="matrix(1,0,0,1,12749,0)" d="M 640 24 Q 520 24 398 -5 Q 277 -35 173 -107 Q 147 -125 136 -150 Q 125 -176 129 -201 Q 133 -227 150 -245 Q 168 -264 193 -268 Q 219 -272 251 -256 Q 355 -192 452 -166 Q 549 -141 645 -141 Q 797 -141 874 -197 Q 952 -253 952 -349 Q 952 -424 901 -468 Q 851 -512 741 -536 L 499 -589 Q 331 -624 249 -709 Q 168 -795 168 -931 Q 168 -1051 230 -1137 Q 293 -1224 408 -1272 Q 523 -1320 675 -1320 Q 792 -1320 897 -1289 Q 1003 -1259 1088 -1192 Q 1115 -1173 1124 -1148 Q 1133 -1123 1126 -1097 Q 1120 -1072 1101 -1054 Q 1083 -1037 1056 -1034 Q 1029 -1032 1000 -1051 Q 920 -1104 837 -1129 Q 755 -1155 675 -1155 Q 525 -1155 448 -1096 Q 371 -1037 371 -941 Q 371 -867 419 -819 Q 467 -771 568 -749 L 811 -699 Q 984 -661 1070 -580 Q 1157 -499 1157 -360 Q 1157 -184 1016 -80 Q 875 24 640 24 Z"/>
</g>
</svg>