<svg xmlns="http://www.w3.org/2000/svg" xmlns:xlink="http://www.w3.org/1999/xlink" viewBox="0 0 13197 3909">
<title>Limitations</title>
<g transform="matrix(1,0,0,1,0,2752)">
  		<path character="L" fill="#CAD1D8" fill-opacity="1.0" stroke="none" stroke-width="10px" stroke-linecap="butt" stroke-opacity="1.0" transform="matrix(1,0,0,1,-192,0)" d="M 344 0 Q 291 0 261 -30 Q 232 -61 232 -115 L 232 -1779 Q 232 -1835 260 -1864 Q 288 -1894 341 -1894 Q 395 -1894 423 -1864 Q 451 -1835 451 -1779 L 451 -192 L 1326 -192 Q 1374 -192 1400 -166 Q 1427 -141 1427 -96 Q 1427 -51 1400 -25 Q 1374 0 1326 0 L 344 0 Z"/>
		<path character="i" fill="#CAD1D8" fill-opacity="1.0" stroke="none" stroke-width="10px" stroke-linecap="butt" stroke-opacity="1.0" transform="matrix(1,0,0,1,1294,0)" d="M 309 13 Q 256 13 229 -17 Q 203 -48 203 -104 L 203 -1195 Q 203 -1251 229 -1280 Q 256 -1310 309 -1310 Q 360 -1310 389 -1280 Q 419 -1251 419 -1195 L 419 -104 Q 419 -48 391 -17 Q 363 13 309 13 M 309 -1608 Q 243 -1608 205 -1644 Q 168 -1680 168 -1742 Q 168 -1806 205 -1839 Q 243 -1872 309 -1872 Q 379 -1872 415 -1839 Q 451 -1806 451 -1742 Q 451 -1680 415 -1644 Q 379 -1608 309 -1608 Z"/>
		<path character="m" fill="#CAD1D8" fill-opacity="1.0" stroke="none" stroke-width="10px" stroke-linecap="butt" stroke-opacity="1.0" transform="matrix(1,0,0,1,1948,0)" d="M 315 19 Q 261 19 234 -10 Q 208 -40 208 -93 L 208 -1205 Q 208 -1259 234 -1287 Q 261 -1315 312 -1315 Q 363 -1315 391 -1287 Q 419 -1259 419 -1205 L 419 -971 L 389 -1008 Q 440 -1157 553 -1238 Q 667 -1320 824 -1320 Q 989 -1320 1092 -1241 Q 1195 -1163 1229 -997 L 1189 -997 Q 1237 -1147 1361 -1233 Q 1486 -1320 1651 -1320 Q 1798 -1320 1892 -1264 Q 1987 -1208 2035 -1094 Q 2083 -981 2083 -808 L 2083 -93 Q 2083 -40 2055 -10 Q 2027 19 1974 19 Q 1923 19 1895 -10 Q 1867 -40 1867 -93 L 1867 -797 Q 1867 -976 1805 -1060 Q 1744 -1144 1598 -1144 Q 1438 -1144 1345 -1033 Q 1253 -923 1253 -733 L 1253 -93 Q 1253 -40 1225 -10 Q 1197 19 1144 19 Q 1093 19 1065 -10 Q 1037 -40 1037 -93 L 1037 -797 Q 1037 -976 974 -1060 Q 912 -1144 768 -1144 Q 608 -1144 516 -1033 Q 424 -923 424 -733 L 424 -93 Q 424 19 315 19 Z"/>
		<path character="i" fill="#CAD1D8" fill-opacity="1.0" stroke="none" stroke-width="10px" stroke-linecap="butt" stroke-opacity="1.0" transform="matrix(1,0,0,1,4266,0)" d="M 309 13 Q 256 13 229 -17 Q 203 -48 203 -104 L 203 -1195 Q 203 -1251 229 -1280 Q 256 -1310 309 -1310 Q 360 -1310 389 -1280 Q 419 -1251 419 -1195 L 419 -104 Q 419 -48 391 -17 Q 363 13 309 13 M 309 -1608 Q 243 -1608 205 -1644 Q 168 -1680 168 -1742 Q 168 -1806 205 -1839 Q 243 -1872 309 -1872 Q 379 -1872 415 -1839 Q 451 -1806 451 -1742 Q 451 -1680 415 -1644 Q 379 -1608 309 -1608 Z"/>
		<path character="t" fill="#CAD1D8" fill-opacity="1.0" stroke="none" stroke-width="10px" stroke-linecap="butt" stroke-opacity="1.0" transform="matrix(1,0,0,1,4920,0)" d="M 723 24 Q 571 24 468 -30 Q 365 -85 314 -190 Q 264 -296 264 -448 L 264 -1128 L 85 -1128 Q 40 -1128 16 -1150 Q -8 -1173 -8 -1213 Q -8 -1253 16 -1274 Q 40 -1296 85 -1296 L 264 -1296 L 264 -1603 Q 264 -1656 293 -1684 Q 323 -1712 373 -1712 Q 424 -1712 452 -1684 Q 480 -1656 480 -1603 L 480 -1296 L 816 -1296 Q 861 -1296 885 -1274 Q 909 -1253 909 -1213 Q 909 -1173 885 -1150 Q 861 -1128 816 -1128 L 480 -1128 L 480 -469 Q 480 -317 544 -238 Q 608 -160 752 -160 Q 803 -160 839 -170 Q 875 -181 899 -181 Q 923 -184 939 -165 Q 955 -147 955 -101 Q 955 -69 943 -42 Q 931 -16 901 -5 Q 869 5 817 14 Q 765 24 723 24 Z"/>
		<path character="a" fill="#CAD1D8" fill-opacity="1.0" stroke="none" stroke-width="10px" stroke-linecap="butt" stroke-opacity="1.0" transform="matrix(1,0,0,1,5894,0)" d="M 611 24 Q 477 24 372 -28 Q 267 -80 205 -170 Q 144 -261 144 -373 Q 144 -517 217 -600 Q 291 -683 460 -717 Q 629 -752 923 -752 L 1043 -752 L 1043 -611 L 925 -611 Q 709 -611 585 -591 Q 461 -571 412 -523 Q 363 -475 363 -387 Q 363 -277 439 -208 Q 515 -139 645 -139 Q 752 -139 833 -189 Q 915 -240 961 -328 Q 1008 -416 1008 -531 L 1008 -835 Q 1008 -1000 941 -1073 Q 875 -1147 723 -1147 Q 629 -1147 536 -1123 Q 443 -1099 339 -1045 Q 301 -1027 274 -1033 Q 248 -1040 232 -1061 Q 216 -1083 213 -1111 Q 211 -1139 225 -1165 Q 240 -1192 272 -1208 Q 389 -1267 504 -1293 Q 619 -1320 723 -1320 Q 891 -1320 1000 -1265 Q 1109 -1211 1162 -1100 Q 1216 -989 1216 -816 L 1216 -93 Q 1216 -40 1190 -10 Q 1165 19 1117 19 Q 1067 19 1040 -10 Q 1013 -40 1013 -93 L 1013 -301 L 1037 -301 Q 1016 -200 956 -128 Q 896 -56 808 -16 Q 720 24 611 24 Z"/>
		<path character="t" fill="#CAD1D8" fill-opacity="1.0" stroke="none" stroke-width="10px" stroke-linecap="butt" stroke-opacity="1.0" transform="matrix(1,0,0,1,7316,0)" d="M 723 24 Q 571 24 468 -30 Q 365 -85 314 -190 Q 264 -296 264 -448 L 264 -1128 L 85 -1128 Q 40 -1128 16 -1150 Q -8 -1173 -8 -1213 Q -8 -1253 16 -1274 Q 40 -1296 85 -1296 L 264 -1296 L 264 -1603 Q 264 -1656 293 -1684 Q 323 -1712 373 -1712 Q 424 -1712 452 -1684 Q 480 -1656 480 -1603 L 480 -1296 L 816 -1296 Q 861 -1296 885 -1274 Q 909 -1253 909 -1213 Q 909 -1173 885 -1150 Q 861 -1128 816 -1128 L 480 -1128 L 480 -469 Q 480 -317 544 -238 Q 608 -160 752 -160 Q 803 -160 839 -170 Q 875 -181 899 -181 Q 923 -184 939 -165 Q 955 -147 955 -101 Q 955 -69 943 -42 Q 931 -16 901 -5 Q 869 5 817 14 Q 765 24 723 24 Z"/>
		<path character="i" fill="#CAD1D8" fill-opacity="1.0" stroke="none" stroke-width="10px" stroke-linecap="butt" stroke-opacity="1.0" transform="matrix(1,0,0,1,8291,0)" d="M 309 13 Q 256 13 229 -17 Q 203 -48 203 -104 L 203 -1195 Q 203 -1251 229 -1280 Q 256 -1310 309 -1310 Q 360 -1310 389 -1280 Q 419 -1251 419 -1195 L 419 -104 Q 419 -48 391 -17 Q 363 13 309 13 M 309 -1608 Q 243 -1608 205 -1644 Q 168 -1680 168 -1742 Q 168 -1806 205 -1839 Q 243 -1872 309 -1872 Q 379 -1872 415 -1839 Q 451 -1806 451 -1742 Q 451 -1680 415 -1644 Q 379 -1608 309 -1608 Z"/>
		<path character="o" fill="#CAD1D8" fill-opacity="1.0" stroke="none" stroke-width="10px" stroke-linecap="butt" stroke-opacity="1.0" transform="matrix(1,0,0,1,8945,0)" d="M 741 24 Q 552 24 413 -58 Q 275 -141 199 -292 Q 123 -443 123 -648 Q 123 -803 165 -927 Q 208 -1051 290 -1139 Q 373 -1227 486 -1273 Q 600 -1320 741 -1320 Q 931 -1320 1069 -1237 Q 1208 -1155 1284 -1004 Q 1360 -853 1360 -648 Q 1360 -493 1317 -370 Q 1275 -248 1192 -158 Q 1109 -69 996 -22 Q 883 24 741 24 M 741 -149 Q 861 -149 952 -208 Q 1043 -267 1092 -379 Q 1141 -491 1141 -648 Q 1141 -891 1033 -1019 Q 925 -1147 741 -1147 Q 619 -1147 529 -1089 Q 440 -1032 390 -921 Q 341 -811 341 -648 Q 341 -408 450 -278 Q 560 -149 741 -149 Z"/>
		<path character="n" fill="#CAD1D8" fill-opacity="1.0" stroke="none" stroke-width="10px" stroke-linecap="butt" stroke-opacity="1.0" transform="matrix(1,0,0,1,10431,0)" d="M 309 19 Q 256 19 229 -10 Q 203 -40 203 -93 L 203 -1205 Q 203 -1259 229 -1287 Q 256 -1315 307 -1315 Q 357 -1315 385 -1287 Q 413 -1259 413 -1205 L 413 -976 L 384 -1008 Q 440 -1163 566 -1241 Q 693 -1320 859 -1320 Q 1013 -1320 1116 -1264 Q 1219 -1208 1269 -1094 Q 1320 -981 1320 -808 L 1320 -93 Q 1320 -40 1292 -10 Q 1264 19 1213 19 Q 1160 19 1132 -10 Q 1104 -40 1104 -93 L 1104 -795 Q 1104 -976 1033 -1060 Q 963 -1144 808 -1144 Q 629 -1144 524 -1033 Q 419 -923 419 -739 L 419 -93 Q 419 19 309 19 Z"/>
		<path character="s" fill="#CAD1D8" fill-opacity="1.0" stroke="none" stroke-width="10px" stroke-linecap="butt" stroke-opacity="1.0" transform="matrix(1,0,0,1,11981,0)" d="M 640 24 Q 520 24 398 -5 Q 277 -35 173 -107 Q 147 -125 136 -150 Q 125 -176 129 -201 Q 133 -227 150 -245 Q 168 -264 193 -268 Q 219 -272 251 -256 Q 355 -192 452 -166 Q 549 -141 645 -141 Q 797 -141 874 -197 Q 952 -253 952 -349 Q 952 -424 901 -468 Q 851 -512 741 -536 L 499 -589 Q 331 -624 249 -709 Q 168 -795 168 -931 Q 168 -1051 230 -1137 Q 293 -1224 408 -1272 Q 523 -1320 675 -1320 Q 792 -1320 897 -1289 Q 1003 -1259 1088 -1192 Q 1115 -1173 1124 -1148 Q 1133 -1123 1126 -1097 Q 1120 -1072 1101 -1054 Q 1083 -1037 1056 -1034 Q 1029 -1032 1000 -1051 Q 920 -1104 837 -1129 Q 755 -1155 675 -1155 Q 525 -1155 448 -1096 Q 371 -1037 371 -941 Q 371 -867 419 -819 Q 467 -771 568 -749 L 811 -699 Q 984 -661 1070 -580 Q 1157 -499 1157 -360 Q 1157 -184 1016 -80 Q 875 24 640 24 Z"/>
</g>
</svg>