<svg xmlns="http://www.w3.org/2000/svg" xmlns:xlink="http://www.w3.org/1999/xlink" viewBox="0 0 9159 3909">
<title>Naming</title>
<g transform="matrix(1,0,0,1,0,2752)">
  		<path character="N" fill="#CAD1D8" fill-opacity="1.0" stroke="none" stroke-width="10px" stroke-linecap="butt" stroke-opacity="1.0" transform="matrix(1,0,0,1,-192,0)" d="M 336 19 Q 285 19 258 -9 Q 232 -37 232 -91 L 232 -1787 Q 232 -1840 258 -1869 Q 285 -1899 328 -1899 Q 371 -1899 391 -1884 Q 411 -1870 437 -1832 L 1600 -283 L 1536 -283 L 1536 -1792 Q 1536 -1843 1563 -1871 Q 1590 -1899 1640 -1899 Q 1688 -1899 1713 -1871 Q 1739 -1843 1739 -1792 L 1739 -88 Q 1739 -37 1716 -9 Q 1694 19 1651 19 Q 1611 19 1587 3 Q 1563 -13 1536 -48 L 376 -1598 L 437 -1598 L 437 -91 Q 437 -37 410 -9 Q 384 19 336 19 Z"/>
		<path character="a" fill="#CAD1D8" fill-opacity="1.0" stroke="none" stroke-width="10px" stroke-linecap="butt" stroke-opacity="1.0" transform="matrix(1,0,0,1,1806,0)" d="M 611 24 Q 477 24 372 -28 Q 267 -80 205 -170 Q 144 -261 144 -373 Q 144 -517 217 -600 Q 291 -683 460 -717 Q 629 -752 923 -752 L 1043 -752 L 1043 -611 L 925 -611 Q 709 -611 585 -591 Q 461 -571 412 -523 Q 363 -475 363 -387 Q 363 -277 439 -208 Q 515 -139 645 -139 Q 752 -139 833 -189 Q 915 -240 961 -328 Q 1008 -416 1008 -531 L 1008 -835 Q 1008 -1000 941 -1073 Q 875 -1147 723 -1147 Q 629 -1147 536 -1123 Q 443 -1099 339 -1045 Q 301 -1027 274 -1033 Q 248 -1040 232 -1061 Q 216 -1083 213 -1111 Q 211 -1139 225 -1165 Q 240 -1192 272 -1208 Q 389 -1267 504 -1293 Q 619 -1320 723 -1320 Q 891 -1320 1000 -1265 Q 1109 -1211 1162 -1100 Q 1216 -989 1216 -816 L 1216 -93 Q 1216 -40 1190 -10 Q 1165 19 1117 19 Q 1067 19 1040 -10 Q 1013 -40 1013 -93 L 1013 -301 L 1037 -301 Q 1016 -200 956 -128 Q 896 -56 808 -16 Q 720 24 611 24 Z"/>
		<path character="m" fill="#CAD1D8" fill-opacity="1.0" stroke="none" stroke-width="10px" stroke-linecap="butt" stroke-opacity="1.0" transform="matrix(1,0,0,1,3228,0)" d="M 315 19 Q 261 19 234 -10 Q 208 -40 208 -93 L 208 -1205 Q 208 -1259 234 -1287 Q 261 -1315 312 -1315 Q 363 -1315 391 -1287 Q 419 -1259 419 -1205 L 419 -971 L 389 -1008 Q 440 -1157 553 -1238 Q 667 -1320 824 -1320 Q 989 -1320 1092 -1241 Q 1195 -1163 1229 -997 L 1189 -997 Q 1237 -1147 1361 -1233 Q 1486 -1320 1651 -1320 Q 1798 -1320 1892 -1264 Q 1987 -1208 2035 -1094 Q 2083 -981 2083 -808 L 2083 -93 Q 2083 -40 2055 -10 Q 2027 19 1974 19 Q 1923 19 1895 -10 Q 1867 -40 1867 -93 L 1867 -797 Q 1867 -976 1805 -1060 Q 1744 -1144 1598 -1144 Q 1438 -1144 1345 -1033 Q 1253 -923 1253 -733 L 1253 -93 Q 1253 -40 1225 -10 Q 1197 19 1144 19 Q 1093 19 1065 -10 Q 1037 -40 1037 -93 L 1037 -797 Q 1037 -976 974 -1060 Q 912 -1144 768 -1144 Q 608 -1144 516 -1033 Q 424 -923 424 -733 L 424 -93 Q 424 19 315 19 Z"/>
		<path character="i" fill="#CAD1D8" fill-opacity="1.0" stroke="none" stroke-width="10px" stroke-linecap="butt" stroke-opacity="1.0" transform="matrix(1,0,0,1,5546,0)" d="M 309 13 Q 256 13 229 -17 Q 203 -48 203 -104 L 203 -1195 Q 203 -1251 229 -1280 Q 256 -1310 309 -1310 Q 360 -1310 389 -1280 Q 419 -1251 419 -1195 L 419 -104 Q 419 -48 391 -17 Q 363 13 309 13 M 309 -1608 Q 243 -1608 205 -1644 Q 168 -1680 168 -1742 Q 168 -1806 205 -1839 Q 243 -1872 309 -1872 Q 379 -1872 415 -1839 Q 451 -1806 451 -1742 Q 451 -1680 415 -1644 Q 379 -1608 309 -1608 Z"/>
		<path character="n" fill="#CAD1D8" fill-opacity="1.0" stroke="none" stroke-width="10px" stroke-linecap="butt" stroke-opacity="1.0" transform="matrix(1,0,0,1,6200,0)" d="M 309 19 Q 256 19 229 -10 Q 203 -40 203 -93 L 203 -1205 Q 203 -1259 229 -1287 Q 256 -1315 307 -1315 Q 357 -1315 385 -1287 Q 413 -1259 413 -1205 L 413 -976 L 384 -1008 Q 440 -1163 566 -1241 Q 693 -1320 859 -1320 Q 1013 -1320 1116 -1264 Q 1219 -1208 1269 -1094 Q 1320 -981 1320 -808 L 1320 -93 Q 1320 -40 1292 -10 Q 1264 19 1213 19 Q 1160 19 1132 -10 Q 1104 -40 1104 -93 L 1104 -795 Q 1104 -976 1033 -1060 Q 963 -1144 808 -1144 Q 629 -1144 524 -1033 Q 419 -923 419 -739 L 419 -93 Q 419 19 309 19 Z"/>
		<path character="g" fill="#CAD1D8" fill-opacity="1.0" stroke="none" stroke-width="10px" stroke-linecap="butt" stroke-opacity="1.0" transform="matrix(1,0,0,1,7750,0)" d="M 776 504 Q 635 504 500 470 Q 365 437 256 365 Q 224 347 214 320 Q 205 293 210 268 Q 216 243 234 223 Q 253 203 278 197 Q 304 192 331 205 Q 448 277 554 304 Q 661 331 765 331 Q 955 331 1052 229 Q 1149 128 1149 -64 L 1149 -365 L 1176 -365 Q 1136 -211 1006 -120 Q 877 -29 704 -29 Q 525 -29 394 -110 Q 264 -192 193 -338 Q 123 -485 123 -677 Q 123 -821 163 -940 Q 203 -1059 279 -1143 Q 355 -1227 463 -1273 Q 571 -1320 704 -1320 Q 880 -1320 1008 -1230 Q 1136 -1141 1173 -989 L 1147 -957 L 1147 -1205 Q 1147 -1259 1175 -1287 Q 1203 -1315 1253 -1315 Q 1307 -1315 1333 -1287 Q 1360 -1259 1360 -1205 L 1360 -93 Q 1360 203 1212 353 Q 1064 504 776 504 M 744 -205 Q 869 -205 960 -262 Q 1051 -320 1100 -426 Q 1149 -533 1149 -677 Q 1149 -893 1040 -1020 Q 931 -1147 744 -1147 Q 621 -1147 530 -1089 Q 440 -1032 390 -926 Q 341 -821 341 -677 Q 341 -461 450 -333 Q 560 -205 744 -205 Z"/>
</g>
</svg>