<svg xmlns="http://www.w3.org/2000/svg" xmlns:xlink="http://www.w3.org/1999/xlink" viewBox="0 0 9365 3909">
<title>Options</title>
<g transform="matrix(1,0,0,1,0,2752)">
  		<path character="O" fill="#CAD1D8" fill-opacity="1.0" stroke="none" stroke-width="10px" stroke-linecap="butt" stroke-opacity="1.0" transform="matrix(1,0,0,1,-128,0)" d="M 1021 24 Q 760 24 566 -94 Q 373 -213 268 -429 Q 163 -645 163 -941 Q 163 -1165 223 -1342 Q 283 -1520 395 -1644 Q 507 -1768 665 -1836 Q 824 -1904 1021 -1904 Q 1288 -1904 1481 -1787 Q 1675 -1670 1780 -1455 Q 1886 -1240 1886 -944 Q 1886 -720 1824 -541 Q 1763 -363 1651 -237 Q 1539 -112 1380 -44 Q 1221 24 1021 24 M 1021 -171 Q 1224 -171 1364 -261 Q 1504 -352 1579 -525 Q 1654 -699 1654 -941 Q 1654 -1307 1490 -1508 Q 1326 -1710 1021 -1710 Q 824 -1710 684 -1619 Q 544 -1528 469 -1356 Q 395 -1184 395 -941 Q 395 -579 560 -375 Q 725 -171 1021 -171 Z"/>
		<path character="p" fill="#CAD1D8" fill-opacity="1.0" stroke="none" stroke-width="10px" stroke-linecap="butt" stroke-opacity="1.0" transform="matrix(1,0,0,1,1934,0)" d="M 309 499 Q 256 499 229 471 Q 203 443 203 389 L 203 -1205 Q 203 -1259 229 -1287 Q 256 -1315 307 -1315 Q 360 -1315 388 -1287 Q 416 -1259 416 -1205 L 416 -952 L 387 -989 Q 429 -1141 556 -1230 Q 683 -1320 859 -1320 Q 1032 -1320 1161 -1238 Q 1291 -1157 1361 -1006 Q 1432 -856 1432 -648 Q 1432 -443 1361 -292 Q 1291 -141 1163 -58 Q 1035 24 859 24 Q 683 24 557 -65 Q 432 -155 387 -304 L 419 -304 L 419 389 Q 419 443 389 471 Q 360 499 309 499 M 813 -149 Q 936 -149 1025 -208 Q 1115 -267 1164 -379 Q 1213 -491 1213 -648 Q 1213 -891 1105 -1019 Q 997 -1147 813 -1147 Q 693 -1147 602 -1089 Q 512 -1032 462 -921 Q 413 -811 413 -648 Q 413 -408 522 -278 Q 632 -149 813 -149 Z"/>
		<path character="t" fill="#CAD1D8" fill-opacity="1.0" stroke="none" stroke-width="10px" stroke-linecap="butt" stroke-opacity="1.0" transform="matrix(1,0,0,1,3484,0)" d="M 723 24 Q 571 24 468 -30 Q 365 -85 314 -190 Q 264 -296 264 -448 L 264 -1128 L 85 -1128 Q 40 -1128 16 -1150 Q -8 -1173 -8 -1213 Q -8 -1253 16 -1274 Q 40 -1296 85 -1296 L 264 -1296 L 264 -1603 Q 264 -1656 293 -1684 Q 323 -1712 373 -1712 Q 424 -1712 452 -1684 Q 480 -1656 480 -1603 L 480 -1296 L 816 -1296 Q 861 -1296 885 -1274 Q 909 -1253 909 -1213 Q 909 -1173 885 -1150 Q 861 -1128 816 -1128 L 480 -1128 L 480 -469 Q 480 -317 544 -238 Q 608 -160 752 -160 Q 803 -160 839 -170 Q 875 -181 899 -181 Q 923 -184 939 -165 Q 955 -147 955 -101 Q 955 -69 943 -42 Q 931 -16 901 -5 Q 869 5 817 14 Q 765 24 723 24 Z"/>
		<path character="i" fill="#CAD1D8" fill-opacity="1.0" stroke="none" stroke-width="10px" stroke-linecap="butt" stroke-opacity="1.0" transform="matrix(1,0,0,1,4458,0)" d="M 309 13 Q 256 13 229 -17 Q 203 -48 203 -104 L 203 -1195 Q 203 -1251 229 -1280 Q 256 -1310 309 -1310 Q 360 -1310 389 -1280 Q 419 -1251 419 -1195 L 419 -104 Q 419 -48 391 -17 Q 363 13 309 13 M 309 -1608 Q 243 -1608 205 -1644 Q 168 -1680 168 -1742 Q 168 -1806 205 -1839 Q 243 -1872 309 -1872 Q 379 -1872 415 -1839 Q 451 -1806 451 -1742 Q 451 -1680 415 -1644 Q 379 -1608 309 -1608 Z"/>
		<path character="o" fill="#CAD1D8" fill-opacity="1.0" stroke="none" stroke-width="10px" stroke-linecap="butt" stroke-opacity="1.0" transform="matrix(1,0,0,1,5112,0)" d="M 741 24 Q 552 24 413 -58 Q 275 -141 199 -292 Q 123 -443 123 -648 Q 123 -803 165 -927 Q 208 -1051 290 -1139 Q 373 -1227 486 -1273 Q 600 -1320 741 -1320 Q 931 -1320 1069 -1237 Q 1208 -1155 1284 -1004 Q 1360 -853 1360 -648 Q 1360 -493 1317 -370 Q 1275 -248 1192 -158 Q 1109 -69 996 -22 Q 883 24 741 24 M 741 -149 Q 861 -149 952 -208 Q 1043 -267 1092 -379 Q 1141 -491 1141 -648 Q 1141 -891 1033 -1019 Q 925 -1147 741 -1147 Q 619 -1147 529 -1089 Q 440 -1032 390 -921 Q 341 -811 341 -648 Q 341 -408 450 -278 Q 560 -149 741 -149 Z"/>
		<path character="n" fill="#CAD1D8" fill-opacity="1.0" stroke="none" stroke-width="10px" stroke-linecap="butt" stroke-opacity="1.0" transform="matrix(1,0,0,1,6598,0)" d="M 309 19 Q 256 19 229 -10 Q 203 -40 203 -93 L 203 -1205 Q 203 -1259 229 -1287 Q 256 -1315 307 -1315 Q 357 -1315 385 -1287 Q 413 -1259 413 -1205 L 413 -976 L 384 -1008 Q 440 -1163 566 -1241 Q 693 -1320 859 -1320 Q 1013 -1320 1116 -1264 Q 1219 -1208 1269 -1094 Q 1320 -981 1320 -808 L 1320 -93 Q 1320 -40 1292 -10 Q 1264 19 1213 19 Q 1160 19 1132 -10 Q 1104 -40 1104 -93 L 1104 -795 Q 1104 -976 1033 -1060 Q 963 -1144 808 -1144 Q 629 -1144 524 -1033 Q 419 -923 419 -739 L 419 -93 Q 419 19 309 19 Z"/>
		<path character="s" fill="#CAD1D8" fill-opacity="1.0" stroke="none" stroke-width="10px" stroke-linecap="butt" stroke-opacity="1.0" transform="matrix(1,0,0,1,8148,0)" d="M 640 24 Q 520 24 398 -5 Q 277 -35 173 -107 Q 147 -125 136 -150 Q 125 -176 129 -201 Q 133 -227 150 -245 Q 168 -264 193 -268 Q 219 -272 251 -256 Q 355 -192 452 -166 Q 549 -141 645 -141 Q 797 -141 874 -197 Q 952 -253 952 -349 Q 952 -424 901 -468 Q 851 -512 741 -536 L 499 -589 Q 331 -624 249 -709 Q 168 -795 168 -931 Q 168 -1051 230 -1137 Q 293 -1224 408 -1272 Q 523 -1320 675 -1320 Q 792 -1320 897 -1289 Q 1003 -1259 1088 -1192 Q 1115 -1173 1124 -1148 Q 1133 -1123 1126 -1097 Q 1120 -1072 1101 -1054 Q 1083 -1037 1056 -1034 Q 1029 -1032 1000 -1051 Q 920 -1104 837 -1129 Q 755 -1155 675 -1155 Q 525 -1155 448 -1096 Q 371 -1037 371 -941 Q 371 -867 419 -819 Q 467 -771 568 -749 L 811 -699 Q 984 -661 1070 -580 Q 1157 -499 1157 -360 Q 1157 -184 1016 -80 Q 875 24 640 24 Z"/>
</g>
</svg>