<svg xmlns="http://www.w3.org/2000/svg" xmlns:xlink="http://www.w3.org/1999/xlink" viewBox="0 0 12287 3909">
<title>Quickstart</title>
<g transform="matrix(1,0,0,1,0,2752)">
  		<path character="Q" fill="#CAD1D8" fill-opacity="1.0" stroke="none" stroke-width="10px" stroke-linecap="butt" stroke-opacity="1.0" transform="matrix(1,0,0,1,-128,0)" d="M 1672 355 Q 1699 395 1695 428 Q 1691 461 1668 484 Q 1646 507 1614 513 Q 1582 520 1548 505 Q 1515 491 1491 451 L 1318 176 Q 1275 101 1200 62 Q 1125 24 1021 24 L 1203 -53 Q 1328 -53 1401 -9 Q 1475 35 1547 152 L 1672 355 M 1021 24 Q 760 24 566 -94 Q 373 -213 268 -429 Q 163 -645 163 -941 Q 163 -1165 223 -1342 Q 283 -1520 395 -1644 Q 507 -1768 665 -1836 Q 824 -1904 1021 -1904 Q 1288 -1904 1481 -1787 Q 1675 -1670 1780 -1455 Q 1886 -1240 1886 -944 Q 1886 -720 1824 -541 Q 1763 -363 1651 -237 Q 1539 -112 1380 -44 Q 1221 24 1021 24 M 1021 -171 Q 1224 -171 1364 -261 Q 1504 -352 1579 -525 Q 1654 -699 1654 -941 Q 1654 -1307 1490 -1508 Q 1326 -1710 1021 -1710 Q 824 -1710 684 -1619 Q 544 -1528 469 -1356 Q 395 -1184 395 -941 Q 395 -579 560 -375 Q 725 -171 1021 -171 Z"/>
		<path character="u" fill="#CAD1D8" fill-opacity="1.0" stroke="none" stroke-width="10px" stroke-linecap="butt" stroke-opacity="1.0" transform="matrix(1,0,0,1,1934,0)" d="M 661 24 Q 504 24 401 -33 Q 299 -91 247 -205 Q 195 -320 195 -491 L 195 -1205 Q 195 -1261 223 -1288 Q 251 -1315 301 -1315 Q 355 -1315 383 -1288 Q 411 -1261 411 -1205 L 411 -493 Q 411 -323 481 -239 Q 552 -155 704 -155 Q 869 -155 973 -267 Q 1077 -379 1077 -560 L 1077 -1205 Q 1077 -1261 1105 -1288 Q 1133 -1315 1187 -1315 Q 1237 -1315 1265 -1288 Q 1293 -1261 1293 -1205 L 1293 -93 Q 1293 19 1189 19 Q 1139 19 1111 -10 Q 1083 -40 1083 -93 L 1083 -336 L 1117 -299 Q 1064 -141 942 -58 Q 821 24 661 24 Z"/>
		<path character="i" fill="#CAD1D8" fill-opacity="1.0" stroke="none" stroke-width="10px" stroke-linecap="butt" stroke-opacity="1.0" transform="matrix(1,0,0,1,3420,0)" d="M 309 13 Q 256 13 229 -17 Q 203 -48 203 -104 L 203 -1195 Q 203 -1251 229 -1280 Q 256 -1310 309 -1310 Q 360 -1310 389 -1280 Q 419 -1251 419 -1195 L 419 -104 Q 419 -48 391 -17 Q 363 13 309 13 M 309 -1608 Q 243 -1608 205 -1644 Q 168 -1680 168 -1742 Q 168 -1806 205 -1839 Q 243 -1872 309 -1872 Q 379 -1872 415 -1839 Q 451 -1806 451 -1742 Q 451 -1680 415 -1644 Q 379 -1608 309 -1608 Z"/>
		<path character="c" fill="#CAD1D8" fill-opacity="1.0" stroke="none" stroke-width="10px" stroke-linecap="butt" stroke-opacity="1.0" transform="matrix(1,0,0,1,4074,0)" d="M 752 24 Q 557 24 416 -61 Q 275 -147 199 -300 Q 123 -453 123 -656 Q 123 -811 165 -933 Q 208 -1056 290 -1142 Q 373 -1229 489 -1274 Q 605 -1320 752 -1320 Q 848 -1320 952 -1290 Q 1056 -1261 1141 -1189 Q 1168 -1171 1176 -1144 Q 1184 -1117 1176 -1092 Q 1168 -1067 1149 -1049 Q 1131 -1032 1103 -1029 Q 1075 -1027 1045 -1048 Q 976 -1101 904 -1122 Q 832 -1144 765 -1144 Q 661 -1144 584 -1110 Q 507 -1077 453 -1016 Q 400 -955 372 -864 Q 344 -773 344 -653 Q 344 -421 453 -286 Q 563 -152 765 -152 Q 832 -152 902 -173 Q 973 -195 1045 -248 Q 1075 -269 1101 -266 Q 1128 -264 1146 -246 Q 1165 -229 1172 -202 Q 1179 -176 1171 -150 Q 1163 -125 1136 -107 Q 1051 -37 949 -6 Q 848 24 752 24 Z"/>
		<path character="k" fill="#CAD1D8" fill-opacity="1.0" stroke="none" stroke-width="10px" stroke-linecap="butt" stroke-opacity="1.0" transform="matrix(1,0,0,1,5304,0)" d="M 309 19 Q 256 19 229 -10 Q 203 -40 203 -93 L 203 -1790 Q 203 -1843 229 -1871 Q 256 -1899 309 -1899 Q 360 -1899 389 -1871 Q 419 -1843 419 -1790 L 419 -720 L 424 -720 L 971 -1243 Q 1008 -1277 1036 -1296 Q 1064 -1315 1112 -1315 Q 1155 -1315 1179 -1292 Q 1203 -1269 1201 -1236 Q 1200 -1203 1168 -1165 L 587 -613 L 587 -731 L 1219 -136 Q 1256 -99 1256 -64 Q 1256 -29 1230 -5 Q 1205 19 1165 19 Q 1117 19 1088 -1 Q 1059 -21 1016 -61 L 424 -608 L 419 -608 L 419 -93 Q 419 19 309 19 Z"/>
		<path character="s" fill="#CAD1D8" fill-opacity="1.0" stroke="none" stroke-width="10px" stroke-linecap="butt" stroke-opacity="1.0" transform="matrix(1,0,0,1,6662,0)" d="M 640 24 Q 520 24 398 -5 Q 277 -35 173 -107 Q 147 -125 136 -150 Q 125 -176 129 -201 Q 133 -227 150 -245 Q 168 -264 193 -268 Q 219 -272 251 -256 Q 355 -192 452 -166 Q 549 -141 645 -141 Q 797 -141 874 -197 Q 952 -253 952 -349 Q 952 -424 901 -468 Q 851 -512 741 -536 L 499 -589 Q 331 -624 249 -709 Q 168 -795 168 -931 Q 168 -1051 230 -1137 Q 293 -1224 408 -1272 Q 523 -1320 675 -1320 Q 792 -1320 897 -1289 Q 1003 -1259 1088 -1192 Q 1115 -1173 1124 -1148 Q 1133 -1123 1126 -1097 Q 1120 -1072 1101 -1054 Q 1083 -1037 1056 -1034 Q 1029 -1032 1000 -1051 Q 920 -1104 837 -1129 Q 755 -1155 675 -1155 Q 525 -1155 448 -1096 Q 371 -1037 371 -941 Q 371 -867 419 -819 Q 467 -771 568 -749 L 811 -699 Q 984 -661 1070 -580 Q 1157 -499 1157 -360 Q 1157 -184 1016 -80 Q 875 24 640 24 Z"/>
		<path character="t" fill="#CAD1D8" fill-opacity="1.0" stroke="none" stroke-width="10px" stroke-linecap="butt" stroke-opacity="1.0" transform="matrix(1,0,0,1,7956,0)" d="M 723 24 Q 571 24 468 -30 Q 365 -85 314 -190 Q 264 -296 264 -448 L 264 -1128 L 85 -1128 Q 40 -1128 16 -1150 Q -8 -1173 -8 -1213 Q -8 -1253 16 -1274 Q 40 -1296 85 -1296 L 264 -1296 L 264 -1603 Q 264 -1656 293 -1684 Q 323 -1712 373 -1712 Q 424 -1712 452 -1684 Q 480 -1656 480 -1603 L 480 -1296 L 816 -1296 Q 861 -1296 885 -1274 Q 909 -1253 909 -1213 Q 909 -1173 885 -1150 Q 861 -1128 816 -1128 L 480 -1128 L 480 -469 Q 480 -317 544 -238 Q 608 -160 752 -160 Q 803 -160 839 -170 Q 875 -181 899 -181 Q 923 -184 939 -165 Q 955 -147 955 -101 Q 955 -69 943 -42 Q 931 -16 901 -5 Q 869 5 817 14 Q 765 24 723 24 Z"/>
		<path character="a" fill="#CAD1D8" fill-opacity="1.0" stroke="none" stroke-width="10px" stroke-linecap="butt" stroke-opacity="1.0" transform="matrix(1,0,0,1,8931,0)" d="M 611 24 Q 477 24 372 -28 Q 267 -80 205 -170 Q 144 -261 144 -373 Q 144 -517 217 -600 Q 291 -683 460 -717 Q 629 -752 923 -752 L 1043 -752 L 1043 -611 L 925 -611 Q 709 -611 585 -591 Q 461 -571 412 -523 Q 363 -475 363 -387 Q 363 -277 439 -208 Q 515 -139 645 -139 Q 752 -139 833 -189 Q 915 -240 961 -328 Q 1008 -416 1008 -531 L 1008 -835 Q 1008 -1000 941 -1073 Q 875 -1147 723 -1147 Q 629 -1147 536 -1123 Q 443 -1099 339 -1045 Q 301 -1027 274 -1033 Q 248 -1040 232 -1061 Q 216 -1083 213 -1111 Q 211 -1139 225 -1165 Q 240 -1192 272 -1208 Q 389 -1267 504 -1293 Q 619 -1320 723 -1320 Q 891 -1320 1000 -1265 Q 1109 -1211 1162 -1100 Q 1216 -989 1216 -816 L 1216 -93 Q 1216 -40 1190 -10 Q 1165 19 1117 19 Q 1067 19 1040 -10 Q 1013 -40 1013 -93 L 1013 -301 L 1037 -301 Q 1016 -200 956 -128 Q 896 -56 808 -16 Q 720 24 611 24 Z"/>
		<path character="r" fill="#CAD1D8" fill-opacity="1.0" stroke="none" stroke-width="10px" stroke-linecap="butt" stroke-opacity="1.0" transform="matrix(1,0,0,1,10353,0)" d="M 312 19 Q 259 19 231 -10 Q 203 -40 203 -93 L 203 -1205 Q 203 -1259 229 -1287 Q 256 -1315 307 -1315 Q 357 -1315 385 -1287 Q 413 -1259 413 -1205 L 413 -989 L 387 -989 Q 429 -1147 549 -1232 Q 669 -1318 845 -1323 Q 885 -1326 909 -1305 Q 933 -1285 936 -1237 Q 939 -1192 915 -1165 Q 891 -1139 840 -1133 L 797 -1128 Q 616 -1112 518 -1012 Q 421 -912 421 -739 L 421 -93 Q 421 -40 393 -10 Q 365 19 312 19 Z"/>
		<path character="t" fill="#CAD1D8" fill-opacity="1.0" stroke="none" stroke-width="10px" stroke-linecap="butt" stroke-opacity="1.0" transform="matrix(1,0,0,1,11327,0)" d="M 723 24 Q 571 24 468 -30 Q 365 -85 314 -190 Q 264 -296 264 -448 L 264 -1128 L 85 -1128 Q 40 -1128 16 -1150 Q -8 -1173 -8 -1213 Q -8 -1253 16 -1274 Q 40 -1296 85 -1296 L 264 -1296 L 264 -1603 Q 264 -1656 293 -1684 Q 323 -1712 373 -1712 Q 424 -1712 452 -1684 Q 480 -1656 480 -1603 L 480 -1296 L 816 -1296 Q 861 -1296 885 -1274 Q 909 -1253 909 -1213 Q 909 -1173 885 -1150 Q 861 -1128 816 -1128 L 480 -1128 L 480 -469 Q 480 -317 544 -238 Q 608 -160 752 -160 Q 803 -160 839 -170 Q 875 -181 899 -181 Q 923 -184 939 -165 Q 955 -147 955 -101 Q 955 -69 943 -42 Q 931 -16 901 -5 Q 869 5 817 14 Q 765 24 723 24 Z"/>
</g>
</svg>