<svg xmlns="http://www.w3.org/2000/svg" xmlns:xlink="http://www.w3.org/1999/xlink" viewBox="0 0 6905 3909">
<title>Setup</title>
<g transform="matrix(1,0,0,1,0,2752)">
  		<path character="S" fill="#CAD1D8" fill-opacity="1.0" stroke="none" stroke-width="10px" stroke-linecap="butt" stroke-opacity="1.0" transform="matrix(1,0,0,1,-128,0)" d="M 840 24 Q 715 24 595 2 Q 475 -19 372 -59 Q 269 -99 187 -160 Q 155 -184 143 -214 Q 131 -245 137 -276 Q 144 -307 164 -328 Q 184 -349 213 -352 Q 243 -355 277 -333 Q 397 -248 533 -209 Q 669 -171 840 -171 Q 1080 -171 1196 -260 Q 1312 -349 1312 -496 Q 1312 -616 1228 -684 Q 1144 -752 947 -792 L 669 -848 Q 419 -901 295 -1022 Q 171 -1144 171 -1347 Q 171 -1472 221 -1575 Q 272 -1678 362 -1751 Q 453 -1824 578 -1864 Q 704 -1904 856 -1904 Q 1024 -1904 1169 -1857 Q 1315 -1811 1432 -1718 Q 1462 -1694 1472 -1663 Q 1483 -1632 1475 -1604 Q 1467 -1576 1447 -1557 Q 1427 -1539 1396 -1536 Q 1366 -1534 1328 -1558 Q 1221 -1638 1106 -1674 Q 992 -1710 853 -1710 Q 712 -1710 609 -1667 Q 507 -1624 449 -1543 Q 392 -1462 392 -1355 Q 392 -1227 470 -1152 Q 549 -1077 728 -1043 L 1005 -984 Q 1275 -928 1404 -814 Q 1534 -701 1534 -507 Q 1534 -389 1486 -290 Q 1438 -192 1347 -121 Q 1256 -51 1128 -13 Q 1000 24 840 24 Z"/>
		<path character="e" fill="#CAD1D8" fill-opacity="1.0" stroke="none" stroke-width="10px" stroke-linecap="butt" stroke-opacity="1.0" transform="matrix(1,0,0,1,1550,0)" d="M 787 24 Q 581 24 433 -57 Q 285 -139 204 -288 Q 123 -437 123 -645 Q 123 -848 203 -998 Q 283 -1149 423 -1234 Q 563 -1320 747 -1320 Q 877 -1320 981 -1276 Q 1085 -1232 1158 -1149 Q 1232 -1067 1271 -949 Q 1310 -832 1310 -685 Q 1310 -643 1285 -623 Q 1261 -603 1216 -603 L 288 -603 L 288 -744 L 1165 -744 L 1123 -709 Q 1123 -853 1080 -953 Q 1037 -1053 956 -1106 Q 875 -1160 752 -1160 Q 616 -1160 521 -1097 Q 427 -1035 379 -924 Q 331 -813 331 -667 L 331 -651 Q 331 -405 449 -277 Q 568 -149 787 -149 Q 877 -149 966 -173 Q 1056 -197 1141 -253 Q 1179 -277 1209 -276 Q 1240 -275 1258 -257 Q 1277 -240 1284 -214 Q 1291 -189 1279 -160 Q 1267 -131 1232 -109 Q 1144 -45 1024 -10 Q 904 24 787 24 Z"/>
		<path character="t" fill="#CAD1D8" fill-opacity="1.0" stroke="none" stroke-width="10px" stroke-linecap="butt" stroke-opacity="1.0" transform="matrix(1,0,0,1,2972,0)" d="M 723 24 Q 571 24 468 -30 Q 365 -85 314 -190 Q 264 -296 264 -448 L 264 -1128 L 85 -1128 Q 40 -1128 16 -1150 Q -8 -1173 -8 -1213 Q -8 -1253 16 -1274 Q 40 -1296 85 -1296 L 264 -1296 L 264 -1603 Q 264 -1656 293 -1684 Q 323 -1712 373 -1712 Q 424 -1712 452 -1684 Q 480 -1656 480 -1603 L 480 -1296 L 816 -1296 Q 861 -1296 885 -1274 Q 909 -1253 909 -1213 Q 909 -1173 885 -1150 Q 861 -1128 816 -1128 L 480 -1128 L 480 -469 Q 480 -317 544 -238 Q 608 -160 752 -160 Q 803 -160 839 -170 Q 875 -181 899 -181 Q 923 -184 939 -165 Q 955 -147 955 -101 Q 955 -69 943 -42 Q 931 -16 901 -5 Q 869 5 817 14 Q 765 24 723 24 Z"/>
		<path character="u" fill="#CAD1D8" fill-opacity="1.0" stroke="none" stroke-width="10px" stroke-linecap="butt" stroke-opacity="1.0" transform="matrix(1,0,0,1,3946,0)" d="M 661 24 Q 504 24 401 -33 Q 299 -91 247 -205 Q 195 -320 195 -491 L 195 -1205 Q 195 -1261 223 -1288 Q 251 -1315 301 -1315 Q 355 -1315 383 -1288 Q 411 -1261 411 -1205 L 411 -493 Q 411 -323 481 -239 Q 552 -155 704 -155 Q 869 -155 973 -267 Q 1077 -379 1077 -560 L 1077 -1205 Q 1077 -1261 1105 -1288 Q 1133 -1315 1187 -1315 Q 1237 -1315 1265 -1288 Q 1293 -1261 1293 -1205 L 1293 -93 Q 1293 19 1189 19 Q 1139 19 1111 -10 Q 1083 -40 1083 -93 L 1083 -336 L 1117 -299 Q 1064 -141 942 -58 Q 821 24 661 24 Z"/>
		<path character="p" fill="#CAD1D8" fill-opacity="1.0" stroke="none" stroke-width="10px" stroke-linecap="butt" stroke-opacity="1.0" transform="matrix(1,0,0,1,5432,0)" d="M 309 499 Q 256 499 229 471 Q 203 443 203 389 L 203 -1205 Q 203 -1259 229 -1287 Q 256 -1315 307 -1315 Q 360 -1315 388 -1287 Q 416 -1259 416 -1205 L 416 -952 L 387 -989 Q 429 -1141 556 -1230 Q 683 -1320 859 -1320 Q 1032 -1320 1161 -1238 Q 1291 -1157 1361 -1006 Q 1432 -856 1432 -648 Q 1432 -443 1361 -292 Q 1291 -141 1163 -58 Q 1035 24 859 24 Q 683 24 557 -65 Q 432 -155 387 -304 L 419 -304 L 419 389 Q 419 443 389 471 Q 360 499 309 499 M 813 -149 Q 936 -149 1025 -208 Q 1115 -267 1164 -379 Q 1213 -491 1213 -648 Q 1213 -891 1105 -1019 Q 997 -1147 813 -1147 Q 693 -1147 602 -1089 Q 512 -1032 462 -921 Q 413 -811 413 -648 Q 413 -408 522 -278 Q 632 -149 813 -149 Z"/>
</g>
</svg>