<svg xmlns="http://www.w3.org/2000/svg" xmlns:xlink="http://www.w3.org/1999/xlink" viewBox="0 0 8789 3909">
<title>Star Us</title>
<g transform="matrix(1,0,0,1,0,2752)">
  		<path character="S" fill="#CAD1D8" fill-opacity="1.0" stroke="none" stroke-width="10px" stroke-linecap="butt" stroke-opacity="1.0" transform="matrix(1,0,0,1,-128,0)" d="M 840 24 Q 715 24 595 2 Q 475 -19 372 -59 Q 269 -99 187 -160 Q 155 -184 143 -214 Q 131 -245 137 -276 Q 144 -307 164 -328 Q 184 -349 213 -352 Q 243 -355 277 -333 Q 397 -248 533 -209 Q 669 -171 840 -171 Q 1080 -171 1196 -260 Q 1312 -349 1312 -496 Q 1312 -616 1228 -684 Q 1144 -752 947 -792 L 669 -848 Q 419 -901 295 -1022 Q 171 -1144 171 -1347 Q 171 -1472 221 -1575 Q 272 -1678 362 -1751 Q 453 -1824 578 -1864 Q 704 -1904 856 -1904 Q 1024 -1904 1169 -1857 Q 1315 -1811 1432 -1718 Q 1462 -1694 1472 -1663 Q 1483 -1632 1475 -1604 Q 1467 -1576 1447 -1557 Q 1427 -1539 1396 -1536 Q 1366 -1534 1328 -1558 Q 1221 -1638 1106 -1674 Q 992 -1710 853 -1710 Q 712 -1710 609 -1667 Q 507 -1624 449 -1543 Q 392 -1462 392 -1355 Q 392 -1227 470 -1152 Q 549 -1077 728 -1043 L 1005 -984 Q 1275 -928 1404 -814 Q 1534 -701 1534 -507 Q 1534 -389 1486 -290 Q 1438 -192 1347 -121 Q 1256 -51 1128 -13 Q 1000 24 840 24 Z"/>
		<path character="t" fill="#CAD1D8" fill-opacity="1.0" stroke="none" stroke-width="10px" stroke-linecap="butt" stroke-opacity="1.0" transform="matrix(1,0,0,1,1550,0)" d="M 723 24 Q 571 24 468 -30 Q 365 -85 314 -190 Q 264 -296 264 -448 L 264 -1128 L 85 -1128 Q 40 -1128 16 -1150 Q -8 -1173 -8 -1213 Q -8 -1253 16 -1274 Q 40 -1296 85 -1296 L 264 -1296 L 264 -1603 Q 264 -1656 293 -1684 Q 323 -1712 373 -1712 Q 424 -1712 452 -1684 Q 480 -1656 480 -1603 L 480 -1296 L 816 -1296 Q 861 -1296 885 -1274 Q 909 -1253 909 -1213 Q 909 -1173 885 -1150 Q 861 -1128 816 -1128 L 480 -1128 L 480 -469 Q 480 -317 544 -238 Q 608 -160 752 -160 Q 803 -160 839 -170 Q 875 -181 899 -181 Q 923 -184 939 -165 Q 955 -147 955 -101 Q 955 -69 943 -42 Q 931 -16 901 -5 Q 869 5 817 14 Q 765 24 723 24 Z"/>
		<path character="a" fill="#CAD1D8" fill-opacity="1.0" stroke="none" stroke-width="10px" stroke-linecap="butt" stroke-opacity="1.0" transform="matrix(1,0,0,1,2524,0)" d="M 611 24 Q 477 24 372 -28 Q 267 -80 205 -170 Q 144 -261 144 -373 Q 144 -517 217 -600 Q 291 -683 460 -717 Q 629 -752 923 -752 L 1043 -752 L 1043 -611 L 925 -611 Q 709 -611 585 -591 Q 461 -571 412 -523 Q 363 -475 363 -387 Q 363 -277 439 -208 Q 515 -139 645 -139 Q 752 -139 833 -189 Q 915 -240 961 -328 Q 1008 -416 1008 -531 L 1008 -835 Q 1008 -1000 941 -1073 Q 875 -1147 723 -1147 Q 629 -1147 536 -1123 Q 443 -1099 339 -1045 Q 301 -1027 274 -1033 Q 248 -1040 232 -1061 Q 216 -1083 213 -1111 Q 211 -1139 225 -1165 Q 240 -1192 272 -1208 Q 389 -1267 504 -1293 Q 619 -1320 723 -1320 Q 891 -1320 1000 -1265 Q 1109 -1211 1162 -1100 Q 1216 -989 1216 -816 L 1216 -93 Q 1216 -40 1190 -10 Q 1165 19 1117 19 Q 1067 19 1040 -10 Q 1013 -40 1013 -93 L 1013 -301 L 1037 -301 Q 1016 -200 956 -128 Q 896 -56 808 -16 Q 720 24 611 24 Z"/>
		<path character="r" fill="#CAD1D8" fill-opacity="1.0" stroke="none" stroke-width="10px" stroke-linecap="butt" stroke-opacity="1.0" transform="matrix(1,0,0,1,3946,0)" d="M 312 19 Q 259 19 231 -10 Q 203 -40 203 -93 L 203 -1205 Q 203 -1259 229 -1287 Q 256 -1315 307 -1315 Q 357 -1315 385 -1287 Q 413 -1259 413 -1205 L 413 -989 L 387 -989 Q 429 -1147 549 -1232 Q 669 -1318 845 -1323 Q 885 -1326 909 -1305 Q 933 -1285 936 -1237 Q 939 -1192 915 -1165 Q 891 -1139 840 -1133 L 797 -1128 Q 616 -1112 518 -1012 Q 421 -912 421 -739 L 421 -93 Q 421 -40 393 -10 Q 365 19 312 19 Z"/>
		<path character="U" fill="#CAD1D8" fill-opacity="1.0" stroke="none" stroke-width="10px" stroke-linecap="butt" stroke-opacity="1.0" transform="matrix(1,0,0,1,5638,0)" d="M 973 24 Q 787 24 647 -25 Q 507 -75 411 -172 Q 315 -269 267 -413 Q 219 -557 219 -744 L 219 -1787 Q 219 -1843 247 -1871 Q 275 -1899 328 -1899 Q 381 -1899 409 -1871 Q 437 -1843 437 -1787 L 437 -755 Q 437 -461 573 -316 Q 709 -171 973 -171 Q 1237 -171 1370 -316 Q 1504 -461 1504 -755 L 1504 -1787 Q 1504 -1843 1533 -1871 Q 1563 -1899 1616 -1899 Q 1667 -1899 1695 -1871 Q 1723 -1843 1723 -1787 L 1723 -744 Q 1723 -496 1639 -322 Q 1555 -149 1387 -62 Q 1219 24 973 24 Z"/>
		<path character="s" fill="#CAD1D8" fill-opacity="1.0" stroke="none" stroke-width="10px" stroke-linecap="butt" stroke-opacity="1.0" transform="matrix(1,0,0,1,7572,0)" d="M 640 24 Q 520 24 398 -5 Q 277 -35 173 -107 Q 147 -125 136 -150 Q 125 -176 129 -201 Q 133 -227 150 -245 Q 168 -264 193 -268 Q 219 -272 251 -256 Q 355 -192 452 -166 Q 549 -141 645 -141 Q 797 -141 874 -197 Q 952 -253 952 -349 Q 952 -424 901 -468 Q 851 -512 741 -536 L 499 -589 Q 331 -624 249 -709 Q 168 -795 168 -931 Q 168 -1051 230 -1137 Q 293 -1224 408 -1272 Q 523 -1320 675 -1320 Q 792 -1320 897 -1289 Q 1003 -1259 1088 -1192 Q 1115 -1173 1124 -1148 Q 1133 -1123 1126 -1097 Q 1120 -1072 1101 -1054 Q 1083 -1037 1056 -1034 Q 1029 -1032 1000 -1051 Q 920 -1104 837 -1129 Q 755 -1155 675 -1155 Q 525 -1155 448 -1096 Q 371 -1037 371 -941 Q 371 -867 419 -819 Q 467 -771 568 -749 L 811 -699 Q 984 -661 1070 -580 Q 1157 -499 1157 -360 Q 1157 -184 1016 -80 Q 875 24 640 24 Z"/>
</g>
</svg>