<svg xmlns="http://www.w3.org/2000/svg" xmlns:xlink="http://www.w3.org/1999/xlink" viewBox="0 0 21382 3909">
<title>Support My Work</title>
<g transform="matrix(1,0,0,1,0,2752)">
  		<path character="S" fill="#CAD1D8" fill-opacity="1.0" stroke="none" stroke-width="10px" stroke-linecap="butt" stroke-opacity="1.0" transform="matrix(1,0,0,1,-128,0)" d="M 840 24 Q 715 24 595 2 Q 475 -19 372 -59 Q 269 -99 187 -160 Q 155 -184 143 -214 Q 131 -245 137 -276 Q 144 -307 164 -328 Q 184 -349 213 -352 Q 243 -355 277 -333 Q 397 -248 533 -209 Q 669 -171 840 -171 Q 1080 -171 1196 -260 Q 1312 -349 1312 -496 Q 1312 -616 1228 -684 Q 1144 -752 947 -792 L 669 -848 Q 419 -901 295 -1022 Q 171 -1144 171 -1347 Q 171 -1472 221 -1575 Q 272 -1678 362 -1751 Q 453 -1824 578 -1864 Q 704 -1904 856 -1904 Q 1024 -1904 1169 -1857 Q 1315 -1811 1432 -1718 Q 1462 -1694 1472 -1663 Q 1483 -1632 1475 -1604 Q 1467 -1576 1447 -1557 Q 1427 -1539 1396 -1536 Q 1366 -1534 1328 -1558 Q 1221 -1638 1106 -1674 Q 992 -1710 853 -1710 Q 712 -1710 609 -1667 Q 507 -1624 449 -1543 Q 392 -1462 392 -1355 Q 392 -1227 470 -1152 Q 549 -1077 728 -1043 L 1005 -984 Q 1275 -928 1404 -814 Q 1534 -701 1534 -507 Q 1534 -389 1486 -290 Q 1438 -192 1347 -121 Q 1256 -51 1128 -13 Q 1000 24 840 24 Z"/>
		<path character="u" fill="#CAD1D8" fill-opacity="1.0" stroke="none" stroke-width="10px" stroke-linecap="butt" stroke-opacity="1.0" transform="matrix(1,0,0,1,1550,0)" d="M 661 24 Q 504 24 401 -33 Q 299 -91 247 -205 Q 195 -320 195 -491 L 195 -1205 Q 195 -1261 223 -1288 Q 251 -1315 301 -1315 Q 355 -1315 383 -1288 Q 411 -1261 411 -1205 L 411 -493 Q 411 -323 481 -239 Q 552 -155 704 -155 Q 869 -155 973 -267 Q 1077 -379 1077 -560 L 1077 -1205 Q 1077 -1261 1105 -1288 Q 1133 -1315 1187 -1315 Q 1237 -1315 1265 -1288 Q 1293 -1261 1293 -1205 L 1293 -93 Q 1293 19 1189 19 Q 1139 19 1111 -10 Q 1083 -40 1083 -93 L 1083 -336 L 1117 -299 Q 1064 -141 942 -58 Q 821 24 661 24 Z"/>
		<path character="p" fill="#CAD1D8" fill-opacity="1.0" stroke="none" stroke-width="10px" stroke-linecap="butt" stroke-opacity="1.0" transform="matrix(1,0,0,1,3036,0)" d="M 309 499 Q 256 499 229 471 Q 203 443 203 389 L 203 -1205 Q 203 -1259 229 -1287 Q 256 -1315 307 -1315 Q 360 -1315 388 -1287 Q 416 -1259 416 -1205 L 416 -952 L 387 -989 Q 429 -1141 556 -1230 Q 683 -1320 859 -1320 Q 1032 -1320 1161 -1238 Q 1291 -1157 1361 -1006 Q 1432 -856 1432 -648 Q 1432 -443 1361 -292 Q 1291 -141 1163 -58 Q 1035 24 859 24 Q 683 24 557 -65 Q 432 -155 387 -304 L 419 -304 L 419 389 Q 419 443 389 471 Q 360 499 309 499 M 813 -149 Q 936 -149 1025 -208 Q 1115 -267 1164 -379 Q 1213 -491 1213 -648 Q 1213 -891 1105 -1019 Q 997 -1147 813 -1147 Q 693 -1147 602 -1089 Q 512 -1032 462 -921 Q 413 -811 413 -648 Q 413 -408 522 -278 Q 632 -149 813 -149 Z"/>
		<path character="p" fill="#CAD1D8" fill-opacity="1.0" stroke="none" stroke-width="10px" stroke-linecap="butt" stroke-opacity="1.0" transform="matrix(1,0,0,1,4586,0)" d="M 309 499 Q 256 499 229 471 Q 203 443 203 389 L 203 -1205 Q 203 -1259 229 -1287 Q 256 -1315 307 -1315 Q 360 -1315 388 -1287 Q 416 -1259 416 -1205 L 416 -952 L 387 -989 Q 429 -1141 556 -1230 Q 683 -1320 859 -1320 Q 1032 -1320 1161 -1238 Q 1291 -1157 1361 -1006 Q 1432 -856 1432 -648 Q 1432 -443 1361 -292 Q 1291 -141 1163 -58 Q 1035 24 859 24 Q 683 24 557 -65 Q 432 -155 387 -304 L 419 -304 L 419 389 Q 419 443 389 471 Q 360 499 309 499 M 813 -149 Q 936 -149 1025 -208 Q 1115 -267 1164 -379 Q 1213 -491 1213 -648 Q 1213 -891 1105 -1019 Q 997 -1147 813 -1147 Q 693 -1147 602 -1089 Q 512 -1032 462 -921 Q 413 -811 413 -648 Q 413 -408 522 -278 Q 632 -149 813 -149 Z"/>
		<path character="o" fill="#CAD1D8" fill-opacity="1.0" stroke="none" stroke-width="10px" stroke-linecap="butt" stroke-opacity="1.0" transform="matrix(1,0,0,1,6136,0)" d="M 741 24 Q 552 24 413 -58 Q 275 -141 199 -292 Q 123 -443 123 -648 Q 123 -803 165 -927 Q 208 -1051 290 -1139 Q 373 -1227 486 -1273 Q 600 -1320 741 -1320 Q 931 -1320 1069 -1237 Q 1208 -1155 1284 -1004 Q 1360 -853 1360 -648 Q 1360 -493 1317 -370 Q 1275 -248 1192 -158 Q 1109 -69 996 -22 Q 883 24 741 24 M 741 -149 Q 861 -149 952 -208 Q 1043 -267 1092 -379 Q 1141 -491 1141 -648 Q 1141 -891 1033 -1019 Q 925 -1147 741 -1147 Q 619 -1147 529 -1089 Q 440 -1032 390 -921 Q 341 -811 341 -648 Q 341 -408 450 -278 Q 560 -149 741 -149 Z"/>
		<path character="r" fill="#CAD1D8" fill-opacity="1.0" stroke="none" stroke-width="10px" stroke-linecap="butt" stroke-opacity="1.0" transform="matrix(1,0,0,1,7622,0)" d="M 312 19 Q 259 19 231 -10 Q 203 -40 203 -93 L 203 -1205 Q 203 -1259 229 -1287 Q 256 -1315 307 -1315 Q 357 -1315 385 -1287 Q 413 -1259 413 -1205 L 413 -989 L 387 -989 Q 429 -1147 549 -1232 Q 669 -1318 845 -1323 Q 885 -1326 909 -1305 Q 933 -1285 936 -1237 Q 939 -1192 915 -1165 Q 891 -1139 840 -1133 L 797 -1128 Q 616 -1112 518 -1012 Q 421 -912 421 -739 L 421 -93 Q 421 -40 393 -10 Q 365 19 312 19 Z"/>
		<path character="t" fill="#CAD1D8" fill-opacity="1.0" stroke="none" stroke-width="10px" stroke-linecap="butt" stroke-opacity="1.0" transform="matrix(1,0,0,1,8596,0)" d="M 723 24 Q 571 24 468 -30 Q 365 -85 314 -190 Q 264 -296 264 -448 L 264 -1128 L 85 -1128 Q 40 -1128 16 -1150 Q -8 -1173 -8 -1213 Q -8 -1253 16 -1274 Q 40 -1296 85 -1296 L 264 -1296 L 264 -1603 Q 264 -1656 293 -1684 Q 323 -1712 373 -1712 Q 424 -1712 452 -1684 Q 480 -1656 480 -1603 L 480 -1296 L 816 -1296 Q 861 -1296 885 -1274 Q 909 -1253 909 -1213 Q 909 -1173 885 -1150 Q 861 -1128 816 -1128 L 480 -1128 L 480 -469 Q 480 -317 544 -238 Q 608 -160 752 -160 Q 803 -160 839 -170 Q 875 -181 899 -181 Q 923 -184 939 -165 Q 955 -147 955 -101 Q 955 -69 943 -42 Q 931 -16 901 -5 Q 869 5 817 14 Q 765 24 723 24 Z"/>
		<path character="M" fill="#CAD1D8" fill-opacity="1.0" stroke="none" stroke-width="10px" stroke-linecap="butt" stroke-opacity="1.0" transform="matrix(1,0,0,1,10289,0)" d="M 339 19 Q 291 19 264 -9 Q 237 -37 237 -88 L 237 -1792 Q 237 -1846 264 -1872 Q 291 -1899 339 -1899 Q 381 -1899 406 -1881 Q 432 -1864 453 -1824 L 1184 -448 L 1104 -448 L 1832 -1824 Q 1854 -1864 1878 -1881 Q 1902 -1899 1947 -1899 Q 1992 -1899 2019 -1872 Q 2046 -1846 2046 -1792 L 2046 -88 Q 2046 -37 2020 -9 Q 1995 19 1944 19 Q 1896 19 1869 -9 Q 1843 -37 1843 -88 L 1843 -1587 L 1907 -1587 L 1240 -336 Q 1221 -301 1201 -286 Q 1181 -272 1144 -272 Q 1107 -272 1085 -288 Q 1064 -304 1048 -336 L 373 -1590 L 437 -1590 L 437 -88 Q 437 -37 412 -9 Q 387 19 339 19 Z"/>
		<path character="y" fill="#CAD1D8" fill-opacity="1.0" stroke="none" stroke-width="10px" stroke-linecap="butt" stroke-opacity="1.0" transform="matrix(1,0,0,1,12607,0)" d="M 491 499 Q 451 499 427 477 Q 403 456 399 420 Q 395 384 411 347 L 595 -67 L 595 27 L 83 -1163 Q 67 -1203 72 -1237 Q 77 -1272 104 -1293 Q 131 -1315 179 -1315 Q 221 -1315 245 -1296 Q 269 -1277 288 -1229 L 725 -157 L 653 -157 L 1096 -1229 Q 1117 -1277 1141 -1296 Q 1165 -1315 1211 -1315 Q 1253 -1315 1276 -1293 Q 1299 -1272 1303 -1238 Q 1307 -1205 1291 -1165 L 608 413 Q 587 461 561 480 Q 536 499 491 499 Z"/>
		<path character="W" fill="#CAD1D8" fill-opacity="1.0" stroke="none" stroke-width="10px" stroke-linecap="butt" stroke-opacity="1.0" transform="matrix(1,0,0,1,14683,0)" d="M 835 19 Q 787 19 757 -6 Q 728 -32 709 -83 L 120 -1766 Q 101 -1822 129 -1860 Q 157 -1899 219 -1899 Q 264 -1899 290 -1876 Q 317 -1854 336 -1806 L 888 -187 L 795 -187 L 1358 -1798 Q 1376 -1848 1403 -1873 Q 1430 -1899 1475 -1899 Q 1518 -1899 1543 -1873 Q 1568 -1848 1587 -1798 L 2142 -187 L 2059 -187 L 2616 -1806 Q 2630 -1851 2658 -1875 Q 2686 -1899 2731 -1899 Q 2787 -1899 2813 -1861 Q 2840 -1824 2819 -1766 L 2227 -83 Q 2208 -32 2180 -6 Q 2152 19 2102 19 Q 2054 19 2026 -6 Q 1998 -32 1976 -83 L 1440 -1627 L 1499 -1627 L 957 -83 Q 939 -32 912 -6 Q 885 19 835 19 Z"/>
		<path character="o" fill="#CAD1D8" fill-opacity="1.0" stroke="none" stroke-width="10px" stroke-linecap="butt" stroke-opacity="1.0" transform="matrix(1,0,0,1,17641,0)" d="M 741 24 Q 552 24 413 -58 Q 275 -141 199 -292 Q 123 -443 123 -648 Q 123 -803 165 -927 Q 208 -1051 290 -1139 Q 373 -1227 486 -1273 Q 600 -1320 741 -1320 Q 931 -1320 1069 -1237 Q 1208 -1155 1284 -1004 Q 1360 -853 1360 -648 Q 1360 -493 1317 -370 Q 1275 -248 1192 -158 Q 1109 -69 996 -22 Q 883 24 741 24 M 741 -149 Q 861 -149 952 -208 Q 1043 -267 1092 -379 Q 1141 -491 1141 -648 Q 1141 -891 1033 -1019 Q 925 -1147 741 -1147 Q 619 -1147 529 -1089 Q 440 -1032 390 -921 Q 341 -811 341 -648 Q 341 -408 450 -278 Q 560 -149 741 -149 Z"/>
		<path character="r" fill="#CAD1D8" fill-opacity="1.0" stroke="none" stroke-width="10px" stroke-linecap="butt" stroke-opacity="1.0" transform="matrix(1,0,0,1,19127,0)" d="M 312 19 Q 259 19 231 -10 Q 203 -40 203 -93 L 203 -1205 Q 203 -1259 229 -1287 Q 256 -1315 307 -1315 Q 357 -1315 385 -1287 Q 413 -1259 413 -1205 L 413 -989 L 387 -989 Q 429 -1147 549 -1232 Q 669 -1318 845 -1323 Q 885 -1326 909 -1305 Q 933 -1285 936 -1237 Q 939 -1192 915 -1165 Q 891 -1139 840 -1133 L 797 -1128 Q 616 -1112 518 -1012 Q 421 -912 421 -739 L 421 -93 Q 421 -40 393 -10 Q 365 19 312 19 Z"/>
		<path character="k" fill="#CAD1D8" fill-opacity="1.0" stroke="none" stroke-width="10px" stroke-linecap="butt" stroke-opacity="1.0" transform="matrix(1,0,0,1,20101,0)" d="M 309 19 Q 256 19 229 -10 Q 203 -40 203 -93 L 203 -1790 Q 203 -1843 229 -1871 Q 256 -1899 309 -1899 Q 360 -1899 389 -1871 Q 419 -1843 419 -1790 L 419 -720 L 424 -720 L 971 -1243 Q 1008 -1277 1036 -1296 Q 1064 -1315 1112 -1315 Q 1155 -1315 1179 -1292 Q 1203 -1269 1201 -1236 Q 1200 -1203 1168 -1165 L 587 -613 L 587 -731 L 1219 -136 Q 1256 -99 1256 -64 Q 1256 -29 1230 -5 Q 1205 19 1165 19 Q 1117 19 1088 -1 Q 1059 -21 1016 -61 L 424 -608 L 419 -608 L 419 -93 Q 419 19 309 19 Z"/>
</g>
</svg>