<svg xmlns="http://www.w3.org/2000/svg" xmlns:xlink="http://www.w3.org/1999/xlink" viewBox="0 0 10261 3909">
<title>Symbols</title>
<g transform="matrix(1,0,0,1,0,2752)">
  		<path character="S" fill="#CAD1D8" fill-opacity="1.0" stroke="none" stroke-width="10px" stroke-linecap="butt" stroke-opacity="1.0" transform="matrix(1,0,0,1,-128,0)" d="M 840 24 Q 715 24 595 2 Q 475 -19 372 -59 Q 269 -99 187 -160 Q 155 -184 143 -214 Q 131 -245 137 -276 Q 144 -307 164 -328 Q 184 -349 213 -352 Q 243 -355 277 -333 Q 397 -248 533 -209 Q 669 -171 840 -171 Q 1080 -171 1196 -260 Q 1312 -349 1312 -496 Q 1312 -616 1228 -684 Q 1144 -752 947 -792 L 669 -848 Q 419 -901 295 -1022 Q 171 -1144 171 -1347 Q 171 -1472 221 -1575 Q 272 -1678 362 -1751 Q 453 -1824 578 -1864 Q 704 -1904 856 -1904 Q 1024 -1904 1169 -1857 Q 1315 -1811 1432 -1718 Q 1462 -1694 1472 -1663 Q 1483 -1632 1475 -1604 Q 1467 -1576 1447 -1557 Q 1427 -1539 1396 -1536 Q 1366 -1534 1328 -1558 Q 1221 -1638 1106 -1674 Q 992 -1710 853 -1710 Q 712 -1710 609 -1667 Q 507 -1624 449 -1543 Q 392 -1462 392 -1355 Q 392 -1227 470 -1152 Q 549 -1077 728 -1043 L 1005 -984 Q 1275 -928 1404 -814 Q 1534 -701 1534 -507 Q 1534 -389 1486 -290 Q 1438 -192 1347 -121 Q 1256 -51 1128 -13 Q 1000 24 840 24 Z"/>
		<path character="y" fill="#CAD1D8" fill-opacity="1.0" stroke="none" stroke-width="10px" stroke-linecap="butt" stroke-opacity="1.0" transform="matrix(1,0,0,1,1550,0)" d="M 491 499 Q 451 499 427 477 Q 403 456 399 420 Q 395 384 411 347 L 595 -67 L 595 27 L 83 -1163 Q 67 -1203 72 -1237 Q 77 -1272 104 -1293 Q 131 -1315 179 -1315 Q 221 -1315 245 -1296 Q 269 -1277 288 -1229 L 725 -157 L 653 -157 L 1096 -1229 Q 1117 -1277 1141 -1296 Q 1165 -1315 1211 -1315 Q 1253 -1315 1276 -1293 Q 1299 -1272 1303 -1238 Q 1307 -1205 1291 -1165 L 608 413 Q 587 461 561 480 Q 536 499 491 499 Z"/>
		<path character="m" fill="#CAD1D8" fill-opacity="1.0" stroke="none" stroke-width="10px" stroke-linecap="butt" stroke-opacity="1.0" transform="matrix(1,0,0,1,2908,0)" d="M 315 19 Q 261 19 234 -10 Q 208 -40 208 -93 L 208 -1205 Q 208 -1259 234 -1287 Q 261 -1315 312 -1315 Q 363 -1315 391 -1287 Q 419 -1259 419 -1205 L 419 -971 L 389 -1008 Q 440 -1157 553 -1238 Q 667 -1320 824 -1320 Q 989 -1320 1092 -1241 Q 1195 -1163 1229 -997 L 1189 -997 Q 1237 -1147 1361 -1233 Q 1486 -1320 1651 -1320 Q 1798 -1320 1892 -1264 Q 1987 -1208 2035 -1094 Q 2083 -981 2083 -808 L 2083 -93 Q 2083 -40 2055 -10 Q 2027 19 1974 19 Q 1923 19 1895 -10 Q 1867 -40 1867 -93 L 1867 -797 Q 1867 -976 1805 -1060 Q 1744 -1144 1598 -1144 Q 1438 -1144 1345 -1033 Q 1253 -923 1253 -733 L 1253 -93 Q 1253 -40 1225 -10 Q 1197 19 1144 19 Q 1093 19 1065 -10 Q 1037 -40 1037 -93 L 1037 -797 Q 1037 -976 974 -1060 Q 912 -1144 768 -1144 Q 608 -1144 516 -1033 Q 424 -923 424 -733 L 424 -93 Q 424 19 315 19 Z"/>
		<path character="b" fill="#CAD1D8" fill-opacity="1.0" stroke="none" stroke-width="10px" stroke-linecap="butt" stroke-opacity="1.0" transform="matrix(1,0,0,1,5226,0)" d="M 859 24 Q 683 24 556 -66 Q 429 -157 387 -309 L 416 -339 L 416 -93 Q 416 -40 388 -10 Q 360 19 309 19 Q 256 19 229 -10 Q 203 -40 203 -93 L 203 -1790 Q 203 -1843 229 -1871 Q 256 -1899 309 -1899 Q 360 -1899 389 -1871 Q 419 -1843 419 -1790 L 419 -995 L 387 -995 Q 432 -1144 557 -1232 Q 683 -1320 859 -1320 Q 1035 -1320 1163 -1238 Q 1291 -1157 1361 -1006 Q 1432 -856 1432 -648 Q 1432 -443 1361 -292 Q 1291 -141 1161 -58 Q 1032 24 859 24 M 813 -149 Q 936 -149 1025 -208 Q 1115 -267 1164 -379 Q 1213 -491 1213 -648 Q 1213 -891 1105 -1019 Q 997 -1147 813 -1147 Q 693 -1147 602 -1089 Q 512 -1032 462 -921 Q 413 -811 413 -648 Q 413 -408 522 -278 Q 632 -149 813 -149 Z"/>
		<path character="o" fill="#CAD1D8" fill-opacity="1.0" stroke="none" stroke-width="10px" stroke-linecap="butt" stroke-opacity="1.0" transform="matrix(1,0,0,1,6776,0)" d="M 741 24 Q 552 24 413 -58 Q 275 -141 199 -292 Q 123 -443 123 -648 Q 123 -803 165 -927 Q 208 -1051 290 -1139 Q 373 -1227 486 -1273 Q 600 -1320 741 -1320 Q 931 -1320 1069 -1237 Q 1208 -1155 1284 -1004 Q 1360 -853 1360 -648 Q 1360 -493 1317 -370 Q 1275 -248 1192 -158 Q 1109 -69 996 -22 Q 883 24 741 24 M 741 -149 Q 861 -149 952 -208 Q 1043 -267 1092 -379 Q 1141 -491 1141 -648 Q 1141 -891 1033 -1019 Q 925 -1147 741 -1147 Q 619 -1147 529 -1089 Q 440 -1032 390 -921 Q 341 -811 341 -648 Q 341 -408 450 -278 Q 560 -149 741 -149 Z"/>
		<path character="l" fill="#CAD1D8" fill-opacity="1.0" stroke="none" stroke-width="10px" stroke-linecap="butt" stroke-opacity="1.0" transform="matrix(1,0,0,1,8262,0)" d="M 597 24 Q 405 24 304 -93 Q 203 -211 203 -429 L 203 -1790 Q 203 -1843 229 -1871 Q 256 -1899 309 -1899 Q 360 -1899 389 -1871 Q 419 -1843 419 -1790 L 419 -445 Q 419 -301 476 -230 Q 533 -160 645 -160 Q 669 -160 688 -162 Q 707 -165 725 -165 Q 755 -168 767 -152 Q 779 -136 779 -88 Q 779 -40 757 -16 Q 736 8 688 16 Q 667 19 643 21 Q 619 24 597 24 Z"/>
		<path character="s" fill="#CAD1D8" fill-opacity="1.0" stroke="none" stroke-width="10px" stroke-linecap="butt" stroke-opacity="1.0" transform="matrix(1,0,0,1,9044,0)" d="M 640 24 Q 520 24 398 -5 Q 277 -35 173 -107 Q 147 -125 136 -150 Q 125 -176 129 -201 Q 133 -227 150 -245 Q 168 -264 193 -268 Q 219 -272 251 -256 Q 355 -192 452 -166 Q 549 -141 645 -141 Q 797 -141 874 -197 Q 952 -253 952 -349 Q 952 -424 901 -468 Q 851 -512 741 -536 L 499 -589 Q 331 -624 249 -709 Q 168 -795 168 -931 Q 168 -1051 230 -1137 Q 293 -1224 408 -1272 Q 523 -1320 675 -1320 Q 792 -1320 897 -1289 Q 1003 -1259 1088 -1192 Q 1115 -1173 1124 -1148 Q 1133 -1123 1126 -1097 Q 1120 -1072 1101 -1054 Q 1083 -1037 1056 -1034 Q 1029 -1032 1000 -1051 Q 920 -1104 837 -1129 Q 755 -1155 675 -1155 Q 525 -1155 448 -1096 Q 371 -1037 371 -941 Q 371 -867 419 -819 Q 467 -771 568 -749 L 811 -699 Q 984 -661 1070 -580 Q 1157 -499 1157 -360 Q 1157 -184 1016 -80 Q 875 24 640 24 Z"/>
</g>
</svg>