<svg xmlns="http://www.w3.org/2000/svg" xmlns:xlink="http://www.w3.org/1999/xlink" viewBox="0 0 17336 3909">
<title>Tree Structure</title>
<g transform="matrix(1,0,0,1,0,2752)">
  		<path character="T" fill="#CAD1D8" fill-opacity="1.0" stroke="none" stroke-width="10px" stroke-linecap="butt" stroke-opacity="1.0" transform="matrix(1,0,0,1,64,0)" d="M 803 19 Q 752 19 722 -12 Q 693 -43 693 -96 L 693 -1691 L 93 -1691 Q 45 -1691 18 -1717 Q -8 -1744 -8 -1787 Q -8 -1832 18 -1856 Q 45 -1880 93 -1880 L 1515 -1880 Q 1563 -1880 1589 -1856 Q 1616 -1832 1616 -1787 Q 1616 -1742 1589 -1716 Q 1563 -1691 1515 -1691 L 915 -1691 L 915 -96 Q 915 -43 887 -12 Q 859 19 803 19 Z"/>
		<path character="r" fill="#CAD1D8" fill-opacity="1.0" stroke="none" stroke-width="10px" stroke-linecap="butt" stroke-opacity="1.0" transform="matrix(1,0,0,1,1678,0)" d="M 312 19 Q 259 19 231 -10 Q 203 -40 203 -93 L 203 -1205 Q 203 -1259 229 -1287 Q 256 -1315 307 -1315 Q 357 -1315 385 -1287 Q 413 -1259 413 -1205 L 413 -989 L 387 -989 Q 429 -1147 549 -1232 Q 669 -1318 845 -1323 Q 885 -1326 909 -1305 Q 933 -1285 936 -1237 Q 939 -1192 915 -1165 Q 891 -1139 840 -1133 L 797 -1128 Q 616 -1112 518 -1012 Q 421 -912 421 -739 L 421 -93 Q 421 -40 393 -10 Q 365 19 312 19 Z"/>
		<path character="e" fill="#CAD1D8" fill-opacity="1.0" stroke="none" stroke-width="10px" stroke-linecap="butt" stroke-opacity="1.0" transform="matrix(1,0,0,1,2652,0)" d="M 787 24 Q 581 24 433 -57 Q 285 -139 204 -288 Q 123 -437 123 -645 Q 123 -848 203 -998 Q 283 -1149 423 -1234 Q 563 -1320 747 -1320 Q 877 -1320 981 -1276 Q 1085 -1232 1158 -1149 Q 1232 -1067 1271 -949 Q 1310 -832 1310 -685 Q 1310 -643 1285 -623 Q 1261 -603 1216 -603 L 288 -603 L 288 -744 L 1165 -744 L 1123 -709 Q 1123 -853 1080 -953 Q 1037 -1053 956 -1106 Q 875 -1160 752 -1160 Q 616 -1160 521 -1097 Q 427 -1035 379 -924 Q 331 -813 331 -667 L 331 -651 Q 331 -405 449 -277 Q 568 -149 787 -149 Q 877 -149 966 -173 Q 1056 -197 1141 -253 Q 1179 -277 1209 -276 Q 1240 -275 1258 -257 Q 1277 -240 1284 -214 Q 1291 -189 1279 -160 Q 1267 -131 1232 -109 Q 1144 -45 1024 -10 Q 904 24 787 24 Z"/>
		<path character="e" fill="#CAD1D8" fill-opacity="1.0" stroke="none" stroke-width="10px" stroke-linecap="butt" stroke-opacity="1.0" transform="matrix(1,0,0,1,4074,0)" d="M 787 24 Q 581 24 433 -57 Q 285 -139 204 -288 Q 123 -437 123 -645 Q 123 -848 203 -998 Q 283 -1149 423 -1234 Q 563 -1320 747 -1320 Q 877 -1320 981 -1276 Q 1085 -1232 1158 -1149 Q 1232 -1067 1271 -949 Q 1310 -832 1310 -685 Q 1310 -643 1285 -623 Q 1261 -603 1216 -603 L 288 -603 L 288 -744 L 1165 -744 L 1123 -709 Q 1123 -853 1080 -953 Q 1037 -1053 956 -1106 Q 875 -1160 752 -1160 Q 616 -1160 521 -1097 Q 427 -1035 379 -924 Q 331 -813 331 -667 L 331 -651 Q 331 -405 449 -277 Q 568 -149 787 -149 Q 877 -149 966 -173 Q 1056 -197 1141 -253 Q 1179 -277 1209 -276 Q 1240 -275 1258 -257 Q 1277 -240 1284 -214 Q 1291 -189 1279 -160 Q 1267 -131 1232 -109 Q 1144 -45 1024 -10 Q 904 24 787 24 Z"/>
		<path character="S" fill="#CAD1D8" fill-opacity="1.0" stroke="none" stroke-width="10px" stroke-linecap="butt" stroke-opacity="1.0" transform="matrix(1,0,0,1,6214,0)" d="M 840 24 Q 715 24 595 2 Q 475 -19 372 -59 Q 269 -99 187 -160 Q 155 -184 143 -214 Q 131 -245 137 -276 Q 144 -307 164 -328 Q 184 -349 213 -352 Q 243 -355 277 -333 Q 397 -248 533 -209 Q 669 -171 840 -171 Q 1080 -171 1196 -260 Q 1312 -349 1312 -496 Q 1312 -616 1228 -684 Q 1144 -752 947 -792 L 669 -848 Q 419 -901 295 -1022 Q 171 -1144 171 -1347 Q 171 -1472 221 -1575 Q 272 -1678 362 -1751 Q 453 -1824 578 -1864 Q 704 -1904 856 -1904 Q 1024 -1904 1169 -1857 Q 1315 -1811 1432 -1718 Q 1462 -1694 1472 -1663 Q 1483 -1632 1475 -1604 Q 1467 -1576 1447 -1557 Q 1427 -1539 1396 -1536 Q 1366 -1534 1328 -1558 Q 1221 -1638 1106 -1674 Q 992 -1710 853 -1710 Q 712 -1710 609 -1667 Q 507 -1624 449 -1543 Q 392 -1462 392 -1355 Q 392 -1227 470 -1152 Q 549 -1077 728 -1043 L 1005 -984 Q 1275 -928 1404 -814 Q 1534 -701 1534 -507 Q 1534 -389 1486 -290 Q 1438 -192 1347 -121 Q 1256 -51 1128 -13 Q 1000 24 840 24 Z"/>
		<path character="t" fill="#CAD1D8" fill-opacity="1.0" stroke="none" stroke-width="10px" stroke-linecap="butt" stroke-opacity="1.0" transform="matrix(1,0,0,1,7892,0)" d="M 723 24 Q 571 24 468 -30 Q 365 -85 314 -190 Q 264 -296 264 -448 L 264 -1128 L 85 -1128 Q 40 -1128 16 -1150 Q -8 -1173 -8 -1213 Q -8 -1253 16 -1274 Q 40 -1296 85 -1296 L 264 -1296 L 264 -1603 Q 264 -1656 293 -1684 Q 323 -1712 373 -1712 Q 424 -1712 452 -1684 Q 480 -1656 480 -1603 L 480 -1296 L 816 -1296 Q 861 -1296 885 -1274 Q 909 -1253 909 -1213 Q 909 -1173 885 -1150 Q 861 -1128 816 -1128 L 480 -1128 L 480 -469 Q 480 -317 544 -238 Q 608 -160 752 -160 Q 803 -160 839 -170 Q 875 -181 899 -181 Q 923 -184 939 -165 Q 955 -147 955 -101 Q 955 -69 943 -42 Q 931 -16 901 -5 Q 869 5 817 14 Q 765 24 723 24 Z"/>
		<path character="r" fill="#CAD1D8" fill-opacity="1.0" stroke="none" stroke-width="10px" stroke-linecap="butt" stroke-opacity="1.0" transform="matrix(1,0,0,1,8867,0)" d="M 312 19 Q 259 19 231 -10 Q 203 -40 203 -93 L 203 -1205 Q 203 -1259 229 -1287 Q 256 -1315 307 -1315 Q 357 -1315 385 -1287 Q 413 -1259 413 -1205 L 413 -989 L 387 -989 Q 429 -1147 549 -1232 Q 669 -1318 845 -1323 Q 885 -1326 909 -1305 Q 933 -1285 936 -1237 Q 939 -1192 915 -1165 Q 891 -1139 840 -1133 L 797 -1128 Q 616 -1112 518 -1012 Q 421 -912 421 -739 L 421 -93 Q 421 -40 393 -10 Q 365 19 312 19 Z"/>
		<path character="u" fill="#CAD1D8" fill-opacity="1.0" stroke="none" stroke-width="10px" stroke-linecap="butt" stroke-opacity="1.0" transform="matrix(1,0,0,1,9841,0)" d="M 661 24 Q 504 24 401 -33 Q 299 -91 247 -205 Q 195 -320 195 -491 L 195 -1205 Q 195 -1261 223 -1288 Q 251 -1315 301 -1315 Q 355 -1315 383 -1288 Q 411 -1261 411 -1205 L 411 -493 Q 411 -323 481 -239 Q 552 -155 704 -155 Q 869 -155 973 -267 Q 1077 -379 1077 -560 L 1077 -1205 Q 1077 -1261 1105 -1288 Q 1133 -1315 1187 -1315 Q 1237 -1315 1265 -1288 Q 1293 -1261 1293 -1205 L 1293 -93 Q 1293 19 1189 19 Q 1139 19 1111 -10 Q 1083 -40 1083 -93 L 1083 -336 L 1117 -299 Q 1064 -141 942 -58 Q 821 24 661 24 Z"/>
		<path character="c" fill="#CAD1D8" fill-opacity="1.0" stroke="none" stroke-width="10px" stroke-linecap="butt" stroke-opacity="1.0" transform="matrix(1,0,0,1,11327,0)" d="M 752 24 Q 557 24 416 -61 Q 275 -147 199 -300 Q 123 -453 123 -656 Q 123 -811 165 -933 Q 208 -1056 290 -1142 Q 373 -1229 489 -1274 Q 605 -1320 752 -1320 Q 848 -1320 952 -1290 Q 1056 -1261 1141 -1189 Q 1168 -1171 1176 -1144 Q 1184 -1117 1176 -1092 Q 1168 -1067 1149 -1049 Q 1131 -1032 1103 -1029 Q 1075 -1027 1045 -1048 Q 976 -1101 904 -1122 Q 832 -1144 765 -1144 Q 661 -1144 584 -1110 Q 507 -1077 453 -1016 Q 400 -955 372 -864 Q 344 -773 344 -653 Q 344 -421 453 -286 Q 563 -152 765 -152 Q 832 -152 902 -173 Q 973 -195 1045 -248 Q 1075 -269 1101 -266 Q 1128 -264 1146 -246 Q 1165 -229 1172 -202 Q 1179 -176 1171 -150 Q 1163 -125 1136 -107 Q 1051 -37 949 -6 Q 848 24 752 24 Z"/>
		<path character="t" fill="#CAD1D8" fill-opacity="1.0" stroke="none" stroke-width="10px" stroke-linecap="butt" stroke-opacity="1.0" transform="matrix(1,0,0,1,12557,0)" d="M 723 24 Q 571 24 468 -30 Q 365 -85 314 -190 Q 264 -296 264 -448 L 264 -1128 L 85 -1128 Q 40 -1128 16 -1150 Q -8 -1173 -8 -1213 Q -8 -1253 16 -1274 Q 40 -1296 85 -1296 L 264 -1296 L 264 -1603 Q 264 -1656 293 -1684 Q 323 -1712 373 -1712 Q 424 -1712 452 -1684 Q 480 -1656 480 -1603 L 480 -1296 L 816 -1296 Q 861 -1296 885 -1274 Q 909 -1253 909 -1213 Q 909 -1173 885 -1150 Q 861 -1128 816 -1128 L 480 -1128 L 480 -469 Q 480 -317 544 -238 Q 608 -160 752 -160 Q 803 -160 839 -170 Q 875 -181 899 -181 Q 923 -184 939 -165 Q 955 -147 955 -101 Q 955 -69 943 -42 Q 931 -16 901 -5 Q 869 5 817 14 Q 765 24 723 24 Z"/>
		<path character="u" fill="#CAD1D8" fill-opacity="1.0" stroke="none" stroke-width="10px" stroke-linecap="butt" stroke-opacity="1.0" transform="matrix(1,0,0,1,13531,0)" d="M 661 24 Q 504 24 401 -33 Q 299 -91 247 -205 Q 195 -320 195 -491 L 195 -1205 Q 195 -1261 223 -1288 Q 251 -1315 301 -1315 Q 355 -1315 383 -1288 Q 411 -1261 411 -1205 L 411 -493 Q 411 -323 481 -239 Q 552 -155 704 -155 Q 869 -155 973 -267 Q 1077 -379 1077 -560 L 1077 -1205 Q 1077 -1261 1105 -1288 Q 1133 -1315 1187 -1315 Q 1237 -1315 1265 -1288 Q 1293 -1261 1293 -1205 L 1293 -93 Q 1293 19 1189 19 Q 1139 19 1111 -10 Q 1083 -40 1083 -93 L 1083 -336 L 1117 -299 Q 1064 -141 942 -58 Q 821 24 661 24 Z"/>
		<path character="r" fill="#CAD1D8" fill-opacity="1.0" stroke="none" stroke-width="10px" stroke-linecap="butt" stroke-opacity="1.0" transform="matrix(1,0,0,1,15017,0)" d="M 312 19 Q 259 19 231 -10 Q 203 -40 203 -93 L 203 -1205 Q 203 -1259 229 -1287 Q 256 -1315 307 -1315 Q 357 -1315 385 -1287 Q 413 -1259 413 -1205 L 413 -989 L 387 -989 Q 429 -1147 549 -1232 Q 669 -1318 845 -1323 Q 885 -1326 909 -1305 Q 933 -1285 936 -1237 Q 939 -1192 915 -1165 Q 891 -1139 840 -1133 L 797 -1128 Q 616 -1112 518 -1012 Q 421 -912 421 -739 L 421 -93 Q 421 -40 393 -10 Q 365 19 312 19 Z"/>
		<path character="e" fill="#CAD1D8" fill-opacity="1.0" stroke="none" stroke-width="10px" stroke-linecap="butt" stroke-opacity="1.0" transform="matrix(1,0,0,1,15991,0)" d="M 787 24 Q 581 24 433 -57 Q 285 -139 204 -288 Q 123 -437 123 -645 Q 123 -848 203 -998 Q 283 -1149 423 -1234 Q 563 -1320 747 -1320 Q 877 -1320 981 -1276 Q 1085 -1232 1158 -1149 Q 1232 -1067 1271 -949 Q 1310 -832 1310 -685 Q 1310 -643 1285 -623 Q 1261 -603 1216 -603 L 288 -603 L 288 -744 L 1165 -744 L 1123 -709 Q 1123 -853 1080 -953 Q 1037 -1053 956 -1106 Q 875 -1160 752 -1160 Q 616 -1160 521 -1097 Q 427 -1035 379 -924 Q 331 -813 331 -667 L 331 -651 Q 331 -405 449 -277 Q 568 -149 787 -149 Q 877 -149 966 -173 Q 1056 -197 1141 -253 Q 1179 -277 1209 -276 Q 1240 -275 1258 -257 Q 1277 -240 1284 -214 Q 1291 -189 1279 -160 Q 1267 -131 1232 -109 Q 1144 -45 1024 -10 Q 904 24 787 24 Z"/>
</g>
</svg>