<svg xmlns="http://www.w3.org/2000/svg" xmlns:xlink="http://www.w3.org/1999/xlink" viewBox="0 0 10403 3597">
<title>Introduction</title>
<g transform="matrix(1,0,0,1,0,2752)">
  		<path character="I" fill="#EA8872" fill-opacity="1.0" stroke="none" stroke-width="10px" stroke-linecap="butt" stroke-opacity="1.0" transform="matrix(1,0,0,1,-128,0)" d="M 381 0 Q 317 0 219 0 Q 200 0 185 -14 Q 171 -28 171 -44 Q 171 -80 216 -80 L 320 -80 Q 320 -394 301 -872 Q 291 -1255 280 -1473 L 283 -1613 L 283 -1793 Q 283 -1930 277 -1968 L 184 -1968 Q 157 -1968 157 -2004 Q 157 -2027 179 -2040 Q 197 -2048 277 -2048 L 352 -2048 Q 392 -2048 453 -2048 Q 475 -2048 488 -2038 Q 501 -2029 501 -2011 Q 501 -1995 493 -1981 Q 485 -1968 469 -1968 Q 451 -1968 437 -1968 L 405 -1968 L 379 -1968 Q 352 -1968 347 -1955 L 341 -1930 Q 341 -1719 376 -1080 Q 408 -489 408 -230 L 408 -154 Q 405 -118 405 -80 L 501 -80 Q 563 -80 563 -44 Q 563 -28 551 -14 Q 539 0 525 0 L 381 0 Z"/>
		<path character="n" fill="#EA8872" fill-opacity="1.0" stroke="none" stroke-width="10px" stroke-linecap="butt" stroke-opacity="1.0" transform="matrix(1,0,0,1,585,0)" d="M 872 -10 Q 851 -10 841 -26 Q 832 -42 824 -74 Q 821 -96 813 -112 L 816 -120 Q 795 -245 725 -426 L 677 -565 Q 672 -570 627 -701 L 605 -765 Q 365 -1507 304 -1569 Q 283 -1496 283 -1380 Q 283 -1317 285 -1271 L 288 -1166 L 285 -1101 Q 283 -1071 283 -1036 Q 283 -977 288 -934 Q 293 -848 293 -848 L 285 -848 Q 285 -398 304 -352 L 304 -109 Q 315 -87 315 -52 Q 315 -31 300 -15 Q 285 0 264 0 Q 208 0 208 -144 L 213 -230 Q 219 -270 219 -318 Q 219 -446 211 -702 Q 203 -958 203 -1086 Q 203 -1163 211 -1324 Q 219 -1481 219 -1558 L 219 -1593 Q 219 -1724 267 -1764 L 275 -1756 L 301 -1761 Q 312 -1758 325 -1745 Q 336 -1734 336 -1721 L 341 -1705 Q 341 -1700 342 -1696 Q 344 -1692 344 -1692 Q 387 -1502 536 -1161 Q 688 -801 725 -683 Q 752 -590 768 -518 Q 819 -291 888 -168 L 893 -176 Q 955 -775 955 -1647 L 952 -1680 Q 949 -1693 949 -1715 Q 949 -1792 987 -1792 Q 1011 -1792 1028 -1766 Q 1045 -1740 1045 -1707 L 1045 -1512 L 1032 -1491 Q 1032 -1237 1002 -658 Q 973 -80 947 -29 L 901 -18 L 901 -16 L 899 -18 L 872 -10 Z"/>
		<path character="t" fill="#EA8872" fill-opacity="1.0" stroke="none" stroke-width="10px" stroke-linecap="butt" stroke-opacity="1.0" transform="matrix(1,0,0,1,1810,0)" d="M 368 -38 L 365 -138 Q 363 -181 363 -235 Q 363 -262 365 -280 L 368 -329 Q 368 -356 357 -394 Q 357 -575 331 -1067 Q 304 -1542 301 -1712 Q 136 -1712 80 -1723 Q 27 -1742 27 -1783 Q 40 -1792 77 -1792 Q 157 -1792 309 -1792 Q 448 -1792 541 -1792 L 597 -1792 L 653 -1792 Q 701 -1792 701 -1745 Q 701 -1730 684 -1721 Q 667 -1712 643 -1712 Q 589 -1712 531 -1712 L 416 -1712 Q 405 -1712 405 -1704 Q 403 -1696 403 -1653 Q 403 -1391 435 -859 Q 464 -308 464 -68 Q 464 -49 441 -33 Q 419 -17 397 -17 L 368 -38 Z"/>
		<path character="r" fill="#EA8872" fill-opacity="1.0" stroke="none" stroke-width="10px" stroke-linecap="butt" stroke-opacity="1.0" transform="matrix(1,0,0,1,2587,0)" d="M 600 19 Q 568 -16 530 -165 Q 493 -314 461 -500 Q 440 -652 400 -801 Q 368 -934 339 -934 L 331 -934 Q 272 -934 272 -897 Q 272 -707 293 -320 Q 304 -83 317 -43 L 296 0 L 259 0 L 237 -19 Q 195 -1245 195 -1691 Q 195 -1720 199 -1738 Q 203 -1757 216 -1773 Q 227 -1792 253 -1792 Q 389 -1792 472 -1725 Q 555 -1658 555 -1532 L 555 -1337 Q 555 -1286 521 -1200 Q 488 -1115 448 -1043 L 413 -976 Q 443 -840 529 -488 Q 616 -136 624 -114 Q 627 -112 631 -101 Q 635 -90 648 -69 Q 667 -32 667 -5 Q 667 32 637 32 L 600 19 M 285 -999 Q 336 -999 376 -1049 Q 416 -1100 440 -1179 Q 483 -1340 483 -1435 Q 483 -1496 476 -1535 Q 469 -1575 453 -1620 Q 421 -1712 301 -1712 Q 288 -1712 280 -1689 Q 272 -1667 272 -1643 Q 272 -1467 277 -1324 Q 280 -1182 280 -1005 L 285 -999 Z"/>
		<path character="o" fill="#EA8872" fill-opacity="1.0" stroke="none" stroke-width="10px" stroke-linecap="butt" stroke-opacity="1.0" transform="matrix(1,0,0,1,3364,0)" d="M 469 32 Q 157 32 157 -952 L 157 -1046 Q 157 -1792 349 -1792 Q 363 -1792 387 -1784 Q 472 -1755 555 -1747 Q 605 -1736 656 -1642 Q 712 -1546 740 -1388 Q 768 -1230 768 -1065 L 763 -1051 Q 763 -963 765 -893 L 768 -733 Q 768 -597 757 -487 Q 741 -321 704 -201 Q 680 -128 649 -80 Q 619 -32 573 0 Q 531 32 469 32 M 459 -48 Q 563 -48 613 -194 Q 664 -343 675 -497 Q 685 -656 685 -752 Q 685 -858 669 -1065 Q 656 -1297 656 -1379 L 645 -1400 L 651 -1414 Q 651 -1535 585 -1623 Q 520 -1712 427 -1712 Q 304 -1712 280 -1589 Q 275 -1547 269 -1469 Q 269 -1273 253 -1201 Q 253 -1161 245 -1076 L 240 -951 Q 240 -893 243 -848 L 245 -741 Q 245 -616 267 -454 Q 283 -335 304 -252 Q 325 -170 365 -112 Q 405 -48 459 -48 Z"/>
		<path character="d" fill="#EA8872" fill-opacity="1.0" stroke="none" stroke-width="10px" stroke-linecap="butt" stroke-opacity="1.0" transform="matrix(1,0,0,1,4269,0)" d="M 243 0 Q 221 0 221 -74 Q 211 -259 211 -541 Q 211 -719 213 -858 L 216 -1175 Q 216 -1379 205 -1680 Q 181 -1701 181 -1733 Q 181 -1752 204 -1772 Q 227 -1792 245 -1792 Q 267 -1792 285 -1770 L 315 -1746 Q 331 -1738 376 -1729 Q 421 -1721 440 -1713 Q 480 -1691 547 -1629 Q 611 -1564 635 -1547 L 632 -1542 Q 635 -1526 672 -1471 Q 701 -1430 720 -1395 Q 763 -1270 763 -1072 Q 763 -1036 760 -1009 L 760 -945 L 760 -924 L 757 -897 Q 757 -847 773 -817 Q 757 -732 733 -495 Q 725 -426 706 -349 Q 688 -272 661 -221 Q 592 -91 429 0 L 243 0 M 419 -80 Q 437 -101 453 -115 Q 453 -115 472 -128 L 493 -146 Q 680 -314 680 -784 L 680 -834 Q 677 -856 677 -880 L 667 -1154 Q 659 -1311 573 -1479 Q 533 -1563 465 -1616 Q 397 -1669 323 -1669 Q 291 -1669 291 -1172 Q 291 -598 323 -171 L 320 -120 L 331 -115 L 336 -80 L 419 -80 Z"/>
		<path character="u" fill="#EA8872" fill-opacity="1.0" stroke="none" stroke-width="10px" stroke-linecap="butt" stroke-opacity="1.0" transform="matrix(1,0,0,1,5238,0)" d="M 472 0 Q 429 0 380 -28 Q 331 -56 299 -94 Q 261 -142 240 -364 Q 219 -586 213 -873 Q 213 -937 211 -969 Q 205 -1637 189 -1759 L 205 -1796 Q 267 -1788 267 -1650 L 275 -946 Q 275 -872 288 -665 Q 304 -479 304 -383 Q 304 -80 504 -80 Q 627 -80 661 -638 L 664 -691 Q 683 -1421 683 -1772 L 680 -1796 Q 677 -1807 677 -1820 Q 677 -1856 723 -1856 Q 755 -1856 763 -1840 Q 768 -1813 768 -1745 Q 768 -1539 752 -1469 L 755 -1453 Q 755 -1419 747 -1347 L 741 -1241 L 741 -1214 Q 744 -1203 744 -1187 Q 739 -1123 739 -1064 Q 736 -1045 736 -1005 Q 731 -751 725 -564 Q 717 -332 661 -171 Q 603 0 472 0 Z"/>
		<path character="c" fill="#EA8872" fill-opacity="1.0" stroke="none" stroke-width="10px" stroke-linecap="butt" stroke-opacity="1.0" transform="matrix(1,0,0,1,6207,0)" d="M 389 -24 Q 339 -39 303 -68 Q 267 -97 235 -155 Q 179 -260 168 -457 Q 163 -547 163 -615 L 163 -914 Q 163 -1085 173 -1245 Q 181 -1364 197 -1445 Q 213 -1527 248 -1608 Q 285 -1692 331 -1726 Q 349 -1742 403 -1763 Q 437 -1776 469 -1792 L 576 -1792 L 584 -1792 Q 587 -1789 592 -1789 L 605 -1787 L 616 -1779 Q 624 -1771 624 -1768 Q 627 -1763 627 -1752 L 592 -1712 L 480 -1712 Q 429 -1712 388 -1663 Q 347 -1614 325 -1541 Q 304 -1475 290 -1385 Q 277 -1295 275 -1230 Q 269 -1145 269 -1114 L 264 -1100 Q 264 -953 259 -834 L 253 -568 Q 253 -452 269 -354 Q 283 -249 347 -164 Q 408 -80 536 -80 Q 576 -80 603 -104 Q 643 -104 643 -74 Q 643 -57 609 -34 Q 576 -12 541 0 L 453 0 L 389 -24 Z"/>
		<path character="t" fill="#EA8872" fill-opacity="1.0" stroke="none" stroke-width="10px" stroke-linecap="butt" stroke-opacity="1.0" transform="matrix(1,0,0,1,6984,0)" d="M 368 -38 L 365 -138 Q 363 -181 363 -235 Q 363 -262 365 -280 L 368 -329 Q 368 -356 357 -394 Q 357 -575 331 -1067 Q 304 -1542 301 -1712 Q 136 -1712 80 -1723 Q 27 -1742 27 -1783 Q 40 -1792 77 -1792 Q 157 -1792 309 -1792 Q 448 -1792 541 -1792 L 597 -1792 L 653 -1792 Q 701 -1792 701 -1745 Q 701 -1730 684 -1721 Q 667 -1712 643 -1712 Q 589 -1712 531 -1712 L 416 -1712 Q 405 -1712 405 -1704 Q 403 -1696 403 -1653 Q 403 -1391 435 -859 Q 464 -308 464 -68 Q 464 -49 441 -33 Q 419 -17 397 -17 L 368 -38 Z"/>
		<path character="i" fill="#EA8872" fill-opacity="1.0" stroke="none" stroke-width="10px" stroke-linecap="butt" stroke-opacity="1.0" transform="matrix(1,0,0,1,7761,0)" d="M 336 0 Q 275 0 264 -53 Q 251 -53 243 -50 L 221 -50 Q 163 -50 147 -80 Q 147 -101 168 -115 L 181 -130 L 259 -130 L 269 -141 L 275 -164 L 277 -196 Q 277 -358 269 -485 L 264 -584 L 259 -777 Q 259 -881 267 -1088 L 272 -1396 Q 272 -1598 259 -1704 Q 235 -1712 179 -1712 L 149 -1712 Q 133 -1712 115 -1712 Q 64 -1712 64 -1757 Q 64 -1769 88 -1780 Q 112 -1792 128 -1792 Q 229 -1792 331 -1792 Q 392 -1792 453 -1766 Q 501 -1747 501 -1712 Q 501 -1705 493 -1685 L 432 -1678 Q 413 -1712 355 -1712 L 341 -1704 Q 349 -1680 349 -1561 Q 349 -1384 347 -1242 L 341 -922 Q 341 -801 352 -629 Q 360 -432 360 -333 L 360 -298 Q 357 -279 357 -250 Q 357 -188 365 -174 L 363 -169 Q 363 -130 421 -130 Q 445 -130 461 -130 L 501 -130 Q 579 -130 579 -97 Q 579 -76 563 -63 Q 547 -50 520 -50 Q 496 -50 477 -50 Q 456 -50 432 -50 Q 416 -50 384 -27 Q 352 0 336 0 Z"/>
		<path character="o" fill="#EA8872" fill-opacity="1.0" stroke="none" stroke-width="10px" stroke-linecap="butt" stroke-opacity="1.0" transform="matrix(1,0,0,1,8410,0)" d="M 469 32 Q 157 32 157 -952 L 157 -1046 Q 157 -1792 349 -1792 Q 363 -1792 387 -1784 Q 472 -1755 555 -1747 Q 605 -1736 656 -1642 Q 712 -1546 740 -1388 Q 768 -1230 768 -1065 L 763 -1051 Q 763 -963 765 -893 L 768 -733 Q 768 -597 757 -487 Q 741 -321 704 -201 Q 680 -128 649 -80 Q 619 -32 573 0 Q 531 32 469 32 M 459 -48 Q 563 -48 613 -194 Q 664 -343 675 -497 Q 685 -656 685 -752 Q 685 -858 669 -1065 Q 656 -1297 656 -1379 L 645 -1400 L 651 -1414 Q 651 -1535 585 -1623 Q 520 -1712 427 -1712 Q 304 -1712 280 -1589 Q 275 -1547 269 -1469 Q 269 -1273 253 -1201 Q 253 -1161 245 -1076 L 240 -951 Q 240 -893 243 -848 L 245 -741 Q 245 -616 267 -454 Q 283 -335 304 -252 Q 325 -170 365 -112 Q 405 -48 459 -48 Z"/>
		<path character="n" fill="#EA8872" fill-opacity="1.0" stroke="none" stroke-width="10px" stroke-linecap="butt" stroke-opacity="1.0" transform="matrix(1,0,0,1,9315,0)" d="M 872 -10 Q 851 -10 841 -26 Q 832 -42 824 -74 Q 821 -96 813 -112 L 816 -120 Q 795 -245 725 -426 L 677 -565 Q 672 -570 627 -701 L 605 -765 Q 365 -1507 304 -1569 Q 283 -1496 283 -1380 Q 283 -1317 285 -1271 L 288 -1166 L 285 -1101 Q 283 -1071 283 -1036 Q 283 -977 288 -934 Q 293 -848 293 -848 L 285 -848 Q 285 -398 304 -352 L 304 -109 Q 315 -87 315 -52 Q 315 -31 300 -15 Q 285 0 264 0 Q 208 0 208 -144 L 213 -230 Q 219 -270 219 -318 Q 219 -446 211 -702 Q 203 -958 203 -1086 Q 203 -1163 211 -1324 Q 219 -1481 219 -1558 L 219 -1593 Q 219 -1724 267 -1764 L 275 -1756 L 301 -1761 Q 312 -1758 325 -1745 Q 336 -1734 336 -1721 L 341 -1705 Q 341 -1700 342 -1696 Q 344 -1692 344 -1692 Q 387 -1502 536 -1161 Q 688 -801 725 -683 Q 752 -590 768 -518 Q 819 -291 888 -168 L 893 -176 Q 955 -775 955 -1647 L 952 -1680 Q 949 -1693 949 -1715 Q 949 -1792 987 -1792 Q 1011 -1792 1028 -1766 Q 1045 -1740 1045 -1707 L 1045 -1512 L 1032 -1491 Q 1032 -1237 1002 -658 Q 973 -80 947 -29 L 901 -18 L 901 -16 L 899 -18 L 872 -10 Z"/>
</g>
</svg>