<svg xmlns="http://www.w3.org/2000/svg" xmlns:xlink="http://www.w3.org/1999/xlink" viewBox="0 0 32651 3092">
<title>Open Source Projects</title>
<g transform="matrix(1,0,0,1,0,2816)">
  		<path character="O" fill="#A5834B" fill-opacity="1.0" stroke="none" stroke-width="10px" stroke-linecap="butt" stroke-opacity="1.0" transform="matrix(1,0,0,1,0,0)" d="M 1111 32 Q 601 32 319 -243 Q 37 -518 37 -1111 Q 37 -1704 319 -1979 Q 601 -2254 1111 -2254 Q 1621 -2254 1903 -1979 Q 2185 -1704 2185 -1111 Q 2185 -518 1903 -243 Q 1621 32 1111 32 M 1111 -557 Q 1178 -557 1207 -589 Q 1237 -621 1237 -702 L 1237 -1520 Q 1237 -1601 1207 -1633 Q 1178 -1665 1111 -1665 Q 1044 -1665 1014 -1633 Q 985 -1601 985 -1520 L 985 -702 Q 985 -619 1014 -588 Q 1044 -557 1111 -557 Z"/>
		<path character="p" fill="#A5834B" fill-opacity="1.0" stroke="none" stroke-width="10px" stroke-linecap="butt" stroke-opacity="1.0" transform="matrix(1,0,0,1,2240,0)" d="M 37 -13 L 155 -13 L 155 -993 L 37 -993 L 37 -1582 L 878 -1582 L 860 -1440 Q 851 -1458 967 -1536 Q 1083 -1614 1236 -1614 Q 1538 -1614 1688 -1395 Q 1838 -1176 1838 -791 Q 1838 -406 1688 -187 Q 1538 32 1236 32 Q 1085 32 969 -36 Q 854 -104 861 -123 L 878 -13 L 1062 -13 L 1062 576 L 37 576 L 37 -13 M 978 -527 Q 1032 -527 1054 -550 Q 1077 -573 1077 -634 L 1077 -886 Q 1077 -947 1054 -970 Q 1032 -993 978 -993 Q 923 -993 900 -970 Q 878 -947 878 -886 L 878 -634 Q 878 -573 900 -550 Q 923 -527 978 -527 Z"/>
		<path character="e" fill="#A5834B" fill-opacity="1.0" stroke="none" stroke-width="10px" stroke-linecap="butt" stroke-opacity="1.0" transform="matrix(1,0,0,1,4095,0)" d="M 898 32 Q 498 32 267 -179 Q 37 -391 37 -791 Q 37 -1191 267 -1402 Q 498 -1614 898 -1614 Q 1299 -1614 1480 -1403 Q 1662 -1192 1662 -885 L 1662 -640 L 758 -680 L 798 -680 Q 798 -617 838 -587 Q 878 -557 996 -557 Q 1155 -557 1297 -578 Q 1440 -600 1617 -656 L 1617 -123 Q 1489 -53 1301 -10 Q 1114 32 898 32 M 1027 -1040 L 997 -1040 Q 997 -1086 976 -1103 Q 955 -1120 898 -1120 Q 840 -1120 819 -1102 Q 798 -1084 798 -1040 L 768 -1040 L 1027 -1040 Z"/>
		<path character="n" fill="#A5834B" fill-opacity="1.0" stroke="none" stroke-width="10px" stroke-linecap="butt" stroke-opacity="1.0" transform="matrix(1,0,0,1,5823,0)" d="M 1929 -589 L 1929 0 L 976 0 L 976 -589 L 1088 -589 L 1088 -927 Q 1088 -983 1066 -1004 Q 1045 -1025 994 -1025 Q 889 -1025 889 -927 L 889 -589 L 1001 -589 L 1001 0 L 48 0 L 48 -589 L 165 -589 L 165 -1025 L 48 -1025 L 48 -1582 L 889 -1582 L 889 -1473 Q 999 -1614 1314 -1614 Q 1561 -1614 1686 -1465 Q 1812 -1316 1812 -1067 L 1812 -589 L 1929 -589 Z"/>
		<path character="S" fill="#A5834B" fill-opacity="1.0" stroke="none" stroke-width="10px" stroke-linecap="butt" stroke-opacity="1.0" transform="matrix(1,0,0,1,8655,0)" d="M 935 32 Q 674 32 440 -9 Q 207 -51 45 -120 L 45 -723 L 742 -723 Q 742 -603 764 -580 Q 786 -557 860 -557 Q 925 -557 942 -570 Q 960 -583 960 -607 Q 960 -627 938 -647 Q 916 -667 841 -696 L 612 -780 Q 302 -902 161 -1072 Q 21 -1243 21 -1532 Q 21 -1884 245 -2069 Q 470 -2254 972 -2254 Q 1210 -2254 1422 -2206 Q 1634 -2159 1793 -2061 L 1793 -1490 L 1149 -1490 Q 1149 -1632 1039 -1632 Q 974 -1632 960 -1623 Q 947 -1615 947 -1595 Q 947 -1578 971 -1561 Q 995 -1544 1076 -1516 L 1308 -1435 Q 1606 -1332 1746 -1162 Q 1886 -993 1886 -721 Q 1886 -349 1640 -158 Q 1394 32 935 32 Z"/>
		<path character="o" fill="#A5834B" fill-opacity="1.0" stroke="none" stroke-width="10px" stroke-linecap="butt" stroke-opacity="1.0" transform="matrix(1,0,0,1,10575,0)" d="M 898 32 Q 498 32 267 -179 Q 37 -391 37 -791 Q 37 -1191 267 -1402 Q 498 -1614 898 -1614 Q 1304 -1614 1531 -1400 Q 1758 -1186 1758 -791 Q 1758 -391 1527 -179 Q 1297 32 898 32 M 898 -557 Q 952 -557 974 -580 Q 997 -603 997 -664 L 997 -918 Q 997 -979 974 -1002 Q 952 -1025 898 -1025 Q 843 -1025 820 -1002 Q 798 -979 798 -918 L 798 -664 Q 798 -603 820 -580 Q 843 -557 898 -557 Z"/>
		<path character="u" fill="#A5834B" fill-opacity="1.0" stroke="none" stroke-width="10px" stroke-linecap="butt" stroke-opacity="1.0" transform="matrix(1,0,0,1,12366,0)" d="M 1913 -589 L 1913 0 L 1072 0 L 1072 -115 Q 963 32 647 32 Q 400 32 274 -117 Q 149 -266 149 -515 L 149 -993 L 32 -993 L 32 -1582 L 873 -1582 L 873 -696 Q 873 -635 895 -612 Q 918 -589 972 -589 Q 1029 -589 1050 -608 Q 1072 -628 1072 -678 L 1072 -993 L 928 -993 L 928 -1582 L 1796 -1582 L 1796 -589 L 1913 -589 Z"/>
		<path character="r" fill="#A5834B" fill-opacity="1.0" stroke="none" stroke-width="10px" stroke-linecap="butt" stroke-opacity="1.0" transform="matrix(1,0,0,1,14350,0)" d="M 1242 -1614 Q 1300 -1614 1353 -1604 Q 1407 -1594 1478 -1563 L 1478 -951 Q 1303 -1025 1188 -1025 Q 1041 -1025 967 -958 Q 894 -891 894 -752 L 894 -589 L 1134 -589 L 1134 0 L 53 0 L 53 -589 L 171 -589 L 171 -993 L 53 -993 L 53 -1582 L 894 -1582 L 880 -1454 Q 874 -1471 981 -1542 Q 1089 -1614 1242 -1614 Z"/>
		<path character="c" fill="#A5834B" fill-opacity="1.0" stroke="none" stroke-width="10px" stroke-linecap="butt" stroke-opacity="1.0" transform="matrix(1,0,0,1,15886,0)" d="M 900 32 Q 498 32 267 -179 Q 37 -391 37 -791 Q 37 -1191 267 -1402 Q 498 -1614 898 -1614 Q 1090 -1614 1266 -1559 Q 1443 -1505 1566 -1417 L 1566 -818 L 997 -818 L 997 -918 Q 997 -980 975 -1002 Q 954 -1025 898 -1025 Q 798 -1025 798 -918 L 798 -700 Q 798 -557 980 -557 Q 1198 -557 1550 -612 L 1550 -90 Q 1422 -33 1251 0 Q 1081 32 900 32 Z"/>
		<path character="e" fill="#A5834B" fill-opacity="1.0" stroke="none" stroke-width="10px" stroke-linecap="butt" stroke-opacity="1.0" transform="matrix(1,0,0,1,17485,0)" d="M 898 32 Q 498 32 267 -179 Q 37 -391 37 -791 Q 37 -1191 267 -1402 Q 498 -1614 898 -1614 Q 1299 -1614 1480 -1403 Q 1662 -1192 1662 -885 L 1662 -640 L 758 -680 L 798 -680 Q 798 -617 838 -587 Q 878 -557 996 -557 Q 1155 -557 1297 -578 Q 1440 -600 1617 -656 L 1617 -123 Q 1489 -53 1301 -10 Q 1114 32 898 32 M 1027 -1040 L 997 -1040 Q 997 -1086 976 -1103 Q 955 -1120 898 -1120 Q 840 -1120 819 -1102 Q 798 -1084 798 -1040 L 768 -1040 L 1027 -1040 Z"/>
		<path character="P" fill="#A5834B" fill-opacity="1.0" stroke="none" stroke-width="10px" stroke-linecap="butt" stroke-opacity="1.0" transform="matrix(1,0,0,1,20062,0)" d="M 53 -589 L 187 -589 L 187 -1633 L 53 -1633 L 53 -2222 L 1279 -2222 Q 1643 -2222 1842 -2056 Q 2041 -1891 2041 -1527 Q 2041 -1163 1842 -997 Q 1643 -832 1279 -832 L 1043 -832 L 1043 -589 L 1299 -589 L 1299 0 L 53 0 L 53 -589 M 1079 -1326 Q 1179 -1326 1179 -1434 L 1179 -1525 Q 1179 -1586 1156 -1609 Q 1133 -1633 1079 -1633 L 1043 -1633 L 1043 -1326 L 1079 -1326 Z"/>
		<path character="r" fill="#A5834B" fill-opacity="1.0" stroke="none" stroke-width="10px" stroke-linecap="butt" stroke-opacity="1.0" transform="matrix(1,0,0,1,22173,0)" d="M 1242 -1614 Q 1300 -1614 1353 -1604 Q 1407 -1594 1478 -1563 L 1478 -951 Q 1303 -1025 1188 -1025 Q 1041 -1025 967 -958 Q 894 -891 894 -752 L 894 -589 L 1134 -589 L 1134 0 L 53 0 L 53 -589 L 171 -589 L 171 -993 L 53 -993 L 53 -1582 L 894 -1582 L 880 -1454 Q 874 -1471 981 -1542 Q 1089 -1614 1242 -1614 Z"/>
		<path character="o" fill="#A5834B" fill-opacity="1.0" stroke="none" stroke-width="10px" stroke-linecap="butt" stroke-opacity="1.0" transform="matrix(1,0,0,1,23709,0)" d="M 898 32 Q 498 32 267 -179 Q 37 -391 37 -791 Q 37 -1191 267 -1402 Q 498 -1614 898 -1614 Q 1304 -1614 1531 -1400 Q 1758 -1186 1758 -791 Q 1758 -391 1527 -179 Q 1297 32 898 32 M 898 -557 Q 952 -557 974 -580 Q 997 -603 997 -664 L 997 -918 Q 997 -979 974 -1002 Q 952 -1025 898 -1025 Q 843 -1025 820 -1002 Q 798 -979 798 -918 L 798 -664 Q 798 -603 820 -580 Q 843 -557 898 -557 Z"/>
		<path character="j" fill="#A5834B" fill-opacity="1.0" stroke="none" stroke-width="10px" stroke-linecap="butt" stroke-opacity="1.0" transform="matrix(1,0,0,1,25501,0)" d="M 163 -1633 L 163 -2222 L 817 -2222 L 817 -1633 L 163 -1633 M 199 608 Q 86 608 -33 589 Q -153 570 -277 537 L -277 -6 Q -93 19 2 19 Q 152 19 152 -106 L 152 -993 L -27 -993 L -27 -1582 L 875 -1582 L 875 -156 Q 875 225 705 416 Q 536 608 199 608 Z"/>
		<path character="e" fill="#A5834B" fill-opacity="1.0" stroke="none" stroke-width="10px" stroke-linecap="butt" stroke-opacity="1.0" transform="matrix(1,0,0,1,26460,0)" d="M 898 32 Q 498 32 267 -179 Q 37 -391 37 -791 Q 37 -1191 267 -1402 Q 498 -1614 898 -1614 Q 1299 -1614 1480 -1403 Q 1662 -1192 1662 -885 L 1662 -640 L 758 -680 L 798 -680 Q 798 -617 838 -587 Q 878 -557 996 -557 Q 1155 -557 1297 -578 Q 1440 -600 1617 -656 L 1617 -123 Q 1489 -53 1301 -10 Q 1114 32 898 32 M 1027 -1040 L 997 -1040 Q 997 -1086 976 -1103 Q 955 -1120 898 -1120 Q 840 -1120 819 -1102 Q 798 -1084 798 -1040 L 768 -1040 L 1027 -1040 Z"/>
		<path character="c" fill="#A5834B" fill-opacity="1.0" stroke="none" stroke-width="10px" stroke-linecap="butt" stroke-opacity="1.0" transform="matrix(1,0,0,1,28188,0)" d="M 900 32 Q 498 32 267 -179 Q 37 -391 37 -791 Q 37 -1191 267 -1402 Q 498 -1614 898 -1614 Q 1090 -1614 1266 -1559 Q 1443 -1505 1566 -1417 L 1566 -818 L 997 -818 L 997 -918 Q 997 -980 975 -1002 Q 954 -1025 898 -1025 Q 798 -1025 798 -918 L 798 -700 Q 798 -557 980 -557 Q 1198 -557 1550 -612 L 1550 -90 Q 1422 -33 1251 0 Q 1081 32 900 32 Z"/>
		<path character="t" fill="#A5834B" fill-opacity="1.0" stroke="none" stroke-width="10px" stroke-linecap="butt" stroke-opacity="1.0" transform="matrix(1,0,0,1,29788,0)" d="M 762 32 Q 458 32 298 -113 Q 139 -259 139 -591 L 139 -993 L 21 -993 L 21 -1582 Q 153 -1582 188 -1623 Q 224 -1664 224 -1745 L 224 -1934 L 899 -1934 L 899 -1582 L 1259 -1582 L 1259 -993 L 899 -993 L 899 -634 Q 899 -573 922 -550 Q 945 -527 999 -527 Q 1095 -527 1275 -562 L 1275 -59 Q 1161 -17 1029 7 Q 897 32 762 32 Z"/>
		<path character="s" fill="#A5834B" fill-opacity="1.0" stroke="none" stroke-width="10px" stroke-linecap="butt" stroke-opacity="1.0" transform="matrix(1,0,0,1,31131,0)" d="M 751 32 Q 407 32 48 -77 L 48 -558 L 590 -558 L 590 -475 Q 590 -398 698 -398 Q 787 -398 787 -442 Q 787 -466 762 -481 Q 738 -497 645 -514 L 512 -538 Q 48 -621 48 -1069 Q 48 -1330 242 -1472 Q 437 -1614 754 -1614 Q 1099 -1614 1371 -1489 L 1371 -1042 L 856 -1042 L 856 -1125 Q 856 -1155 838 -1169 Q 820 -1184 770 -1184 Q 691 -1184 691 -1153 Q 691 -1138 711 -1125 Q 732 -1112 821 -1092 L 972 -1063 Q 1229 -1013 1343 -875 Q 1457 -737 1457 -524 Q 1457 -253 1269 -110 Q 1081 32 751 32 Z"/>
</g>
</svg>