<svg xmlns="http://www.w3.org/2000/svg" xmlns:xlink="http://www.w3.org/1999/xlink" viewBox="0 0 17337 2797">
<title>Open Source Projects</title>
<g transform="matrix(1,0,0,1,0,2752)">
  		<path character="O" fill="#A5834B" fill-opacity="1.0" stroke="none" stroke-width="10px" stroke-linecap="butt" stroke-opacity="1.0" transform="matrix(1,0,0,1,-128,0)" d="M 588 64 Q 163 64 163 -1300 L 163 -1409 Q 163 -1641 190 -1814 Q 207 -1927 238 -2004 Q 270 -2081 327 -2129 Q 387 -2190 482 -2190 Q 559 -2190 622 -2158 Q 686 -2127 730 -2077 Q 765 -2031 791 -1963 Q 817 -1895 832 -1833 L 853 -1702 Q 918 -1233 918 -870 L 918 -862 Q 918 -725 913 -609 Q 907 -469 882 -318 Q 872 -239 850 -179 Q 828 -119 794 -61 Q 722 64 588 64 M 594 -126 Q 607 -126 630 -159 Q 654 -193 670 -272 Q 712 -457 723 -634 Q 728 -777 728 -914 L 728 -925 L 725 -1194 Q 720 -1337 693 -1567 Q 673 -1725 609 -1892 Q 588 -1946 557 -1973 Q 526 -2000 495 -2000 Q 476 -2000 453 -1971 Q 430 -1943 412 -1876 Q 366 -1701 361 -1552 Q 353 -1421 353 -1282 L 353 -1149 Q 353 -971 387 -697 Q 408 -524 438 -400 Q 469 -276 519 -193 Q 556 -126 594 -126 Z"/>
		<path character="p" fill="#A5834B" fill-opacity="1.0" stroke="none" stroke-width="10px" stroke-linecap="butt" stroke-opacity="1.0" transform="matrix(1,0,0,1,952,0)" d="M 234 22 Q 200 -180 200 -407 Q 200 -495 208 -663 L 213 -903 Q 195 -941 195 -992 Q 221 -1037 221 -1236 Q 221 -1738 204 -1782 Q 249 -1902 300 -1902 L 418 -1902 Q 461 -1902 524 -1867 Q 587 -1833 631 -1796 Q 715 -1714 715 -1426 Q 715 -1280 707 -1203 Q 701 -1142 686 -1105 Q 672 -1068 646 -1025 Q 597 -948 489 -894 Q 445 -869 406 -857 L 406 -573 Q 406 -507 419 -309 L 425 -221 L 430 -41 Q 430 64 310 64 L 234 22 M 399 -1058 Q 419 -1058 455 -1109 Q 469 -1131 483 -1171 Q 497 -1212 502 -1253 Q 517 -1330 517 -1431 L 517 -1506 Q 517 -1543 514 -1576 Q 512 -1609 506 -1635 Q 498 -1661 487 -1676 Q 477 -1692 458 -1701 Q 438 -1712 407 -1712 Q 401 -1712 402 -1713 Q 403 -1714 403 -1692 Q 403 -1627 411 -1493 L 417 -1291 Q 417 -1215 411 -1155 L 407 -1046 L 399 -1058 Z"/>
		<path character="e" fill="#A5834B" fill-opacity="1.0" stroke="none" stroke-width="10px" stroke-linecap="butt" stroke-opacity="1.0" transform="matrix(1,0,0,1,1776,0)" d="M 298 0 Q 201 0 189 -108 L 189 -153 Q 192 -166 208 -163 L 172 -177 Q 203 -256 203 -300 Q 203 -359 195 -473 L 189 -652 Q 189 -788 197 -1057 Q 208 -1294 208 -1458 L 203 -1617 Q 197 -1688 197 -1775 Q 197 -1838 233 -1870 Q 269 -1902 330 -1902 Q 378 -1902 400 -1872 Q 389 -1866 456 -1877 Q 528 -1868 580 -1852 Q 670 -1825 670 -1761 Q 670 -1702 567 -1651 Q 402 -1712 374 -1722 L 392 -1733 Q 393 -1723 393 -1630 Q 393 -1514 387 -1424 Q 385 -1332 385 -1219 Q 367 -1182 367 -1200 L 410 -1200 Q 431 -1200 455 -1200 Q 614 -1200 614 -1112 Q 614 -1069 584 -1039 Q 555 -1010 506 -1010 Q 449 -1010 424 -1027 L 356 -1034 L 359 -1045 L 347 -1072 L 387 -1075 Q 393 -1028 393 -853 Q 393 -744 390 -656 L 387 -460 Q 387 -354 395 -242 Q 397 -202 404 -196 Q 411 -190 455 -190 L 503 -190 Q 527 -190 556 -190 Q 689 -190 689 -101 Q 689 0 516 0 L 298 0 Z"/>
		<path character="n" fill="#A5834B" fill-opacity="1.0" stroke="none" stroke-width="10px" stroke-linecap="butt" stroke-opacity="1.0" transform="matrix(1,0,0,1,2600,0)" d="M 935 -10 Q 875 -10 855 -43 Q 836 -76 825 -119 Q 823 -135 808 -164 L 836 -178 Q 797 -285 728 -462 L 706 -603 Q 679 -595 630 -738 L 608 -803 Q 372 -1533 381 -1539 Q 393 -1543 393 -1435 Q 393 -1373 395 -1328 L 398 -1221 L 395 -1153 Q 393 -1124 393 -1091 Q 393 -1035 398 -994 Q 406 -848 406 -848 L 348 -895 Q 395 -464 414 -418 L 414 -177 Q 425 -155 425 -107 Q 425 -64 394 -32 Q 363 0 319 0 Q 208 0 208 -201 L 213 -291 Q 219 -329 219 -373 Q 219 -500 211 -755 Q 203 -1012 203 -1141 Q 203 -1219 211 -1382 Q 219 -1537 219 -1613 L 219 -1648 Q 219 -1805 325 -1893 L 337 -1833 L 358 -1872 Q 396 -1862 419 -1839 Q 446 -1812 446 -1784 L 451 -1768 Q 424 -1760 438 -1761 Q 452 -1763 452 -1763 Q 494 -1574 642 -1238 Q 795 -875 833 -754 Q 860 -659 877 -585 Q 926 -366 943 -233 L 910 -244 Q 955 -833 955 -1700 L 953 -1726 Q 949 -1742 949 -1770 Q 949 -1902 1042 -1902 Q 1096 -1902 1125 -1856 Q 1155 -1811 1155 -1762 L 1155 -1551 L 1142 -1530 Q 1142 -1291 1112 -705 Q 1082 -120 1039 -36 L 959 -71 L 1011 62 L 953 -67 L 935 -10 Z"/>
		<path character="S" fill="#A5834B" fill-opacity="1.0" stroke="none" stroke-width="10px" stroke-linecap="butt" stroke-opacity="1.0" transform="matrix(1,0,0,1,4393,0)" d="M 362 64 Q 308 64 275 57 Q 243 50 205 28 Q 158 -3 131 -68 Q 131 -166 215 -166 Q 255 -166 313 -142 Q 345 -126 362 -126 Q 398 -126 434 -162 Q 471 -198 494 -264 Q 544 -408 544 -517 Q 544 -641 508 -769 Q 473 -898 413 -1012 Q 401 -1041 369 -1100 Q 301 -1235 265 -1312 Q 230 -1390 202 -1485 Q 163 -1614 163 -1761 Q 163 -1859 194 -1951 Q 226 -2044 297 -2113 Q 380 -2190 484 -2190 Q 534 -2190 598 -2143 Q 662 -2097 662 -2037 Q 662 -1961 591 -1961 Q 558 -1961 515 -1991 Q 504 -2000 503 -2000 Q 464 -2000 430 -1966 Q 396 -1933 379 -1879 Q 363 -1830 363 -1771 Q 363 -1673 388 -1566 Q 414 -1460 457 -1367 L 550 -1171 L 577 -1115 Q 633 -996 665 -918 Q 697 -840 720 -741 Q 750 -608 750 -485 Q 750 -316 664 -142 Q 618 -51 539 6 Q 460 64 362 64 Z"/>
		<path character="o" fill="#A5834B" fill-opacity="1.0" stroke="none" stroke-width="10px" stroke-linecap="butt" stroke-opacity="1.0" transform="matrix(1,0,0,1,5345,0)" d="M 524 32 Q 157 32 157 -1007 L 157 -1101 Q 157 -1902 404 -1902 Q 427 -1902 460 -1891 Q 539 -1864 619 -1856 Q 696 -1839 759 -1724 Q 819 -1620 848 -1455 Q 878 -1290 878 -1110 L 873 -1096 Q 873 -1019 875 -949 L 878 -789 Q 878 -649 867 -537 Q 850 -365 811 -239 Q 785 -159 749 -103 Q 714 -48 660 -11 Q 605 32 524 32 M 514 -158 Q 579 -158 616 -267 Q 665 -409 675 -556 Q 685 -713 685 -807 Q 685 -911 669 -1116 Q 656 -1350 656 -1420 L 639 -1453 L 651 -1480 Q 651 -1572 599 -1642 Q 547 -1712 482 -1712 Q 404 -1712 389 -1635 Q 385 -1597 379 -1522 Q 379 -1322 363 -1250 Q 363 -1213 355 -1127 L 350 -1005 Q 350 -950 353 -905 L 355 -797 Q 355 -675 377 -516 Q 392 -400 411 -324 Q 431 -248 466 -197 Q 490 -158 514 -158 Z"/>
		<path character="u" fill="#A5834B" fill-opacity="1.0" stroke="none" stroke-width="10px" stroke-linecap="butt" stroke-opacity="1.0" transform="matrix(1,0,0,1,6361,0)" d="M 527 0 Q 469 0 409 -34 Q 350 -68 311 -114 Q 263 -176 241 -407 Q 219 -638 213 -927 Q 213 -990 211 -1022 Q 205 -1688 187 -1822 L 226 -1911 Q 377 -1891 377 -1705 L 385 -1001 Q 385 -929 398 -724 Q 414 -536 414 -438 Q 414 -190 559 -190 Q 630 -190 661 -696 L 664 -748 Q 683 -1477 683 -1824 L 681 -1840 Q 677 -1855 677 -1875 Q 677 -1966 778 -1966 Q 844 -1966 871 -1913 Q 878 -1873 878 -1800 Q 878 -1588 863 -1523 L 865 -1513 Q 865 -1471 857 -1397 L 851 -1294 L 851 -1276 Q 854 -1265 854 -1240 Q 849 -1176 849 -1115 Q 846 -1096 846 -1059 Q 841 -805 835 -617 Q 827 -377 768 -208 Q 697 0 527 0 Z"/>
		<path character="r" fill="#A5834B" fill-opacity="1.0" stroke="none" stroke-width="10px" stroke-linecap="butt" stroke-opacity="1.0" transform="matrix(1,0,0,1,7441,0)" d="M 624 11 Q 573 -44 533 -201 Q 494 -358 462 -547 Q 441 -696 402 -842 Q 394 -952 394 -934 L 386 -934 Q 364 -952 382 -952 Q 382 -763 403 -378 Q 414 -148 431 -94 L 385 0 L 294 0 L 238 -48 Q 195 -1299 195 -1746 Q 195 -1781 201 -1808 Q 207 -1836 226 -1859 Q 250 -1902 308 -1902 Q 463 -1902 564 -1820 Q 665 -1739 665 -1587 L 665 -1392 Q 665 -1331 629 -1239 Q 593 -1147 551 -1072 L 526 -1023 Q 552 -907 638 -557 Q 724 -207 689 -177 Q 728 -203 734 -186 Q 740 -169 751 -151 Q 777 -100 777 -60 Q 777 32 683 32 L 624 11 M 348 -1071 Q 364 -1109 392 -1145 Q 421 -1181 442 -1249 Q 483 -1402 483 -1490 Q 483 -1546 477 -1581 Q 471 -1616 456 -1657 Q 437 -1712 356 -1712 Q 356 -1749 369 -1731 Q 382 -1713 382 -1698 Q 382 -1523 387 -1381 Q 390 -1238 357 -1068 L 348 -1071 Z"/>
		<path character="c" fill="#A5834B" fill-opacity="1.0" stroke="none" stroke-width="10px" stroke-linecap="butt" stroke-opacity="1.0" transform="matrix(1,0,0,1,8329,0)" d="M 426 -27 Q 368 -44 323 -80 Q 279 -116 242 -184 Q 180 -300 168 -509 Q 163 -600 163 -670 L 163 -969 Q 163 -1142 173 -1304 Q 181 -1426 198 -1512 Q 215 -1598 253 -1685 Q 296 -1783 351 -1824 Q 375 -1845 438 -1869 Q 470 -1881 511 -1902 L 631 -1902 L 662 -1902 Q 646 -1854 651 -1899 L 682 -1894 L 707 -1876 Q 734 -1849 690 -1826 Q 737 -1833 737 -1786 L 672 -1712 L 535 -1712 Q 510 -1712 480 -1677 Q 451 -1642 433 -1580 Q 413 -1518 400 -1431 Q 387 -1345 385 -1282 Q 379 -1198 379 -1159 L 374 -1145 Q 374 -1007 369 -887 L 363 -622 Q 363 -511 378 -417 Q 391 -326 446 -252 Q 491 -190 591 -190 Q 610 -190 637 -214 Q 753 -214 753 -129 Q 753 -83 704 -50 Q 656 -17 605 0 L 498 0 L 426 -27 Z"/>
		<path character="e" fill="#A5834B" fill-opacity="1.0" stroke="none" stroke-width="10px" stroke-linecap="butt" stroke-opacity="1.0" transform="matrix(1,0,0,1,9217,0)" d="M 298 0 Q 201 0 189 -108 L 189 -153 Q 192 -166 208 -163 L 172 -177 Q 203 -256 203 -300 Q 203 -359 195 -473 L 189 -652 Q 189 -788 197 -1057 Q 208 -1294 208 -1458 L 203 -1617 Q 197 -1688 197 -1775 Q 197 -1838 233 -1870 Q 269 -1902 330 -1902 Q 378 -1902 400 -1872 Q 389 -1866 456 -1877 Q 528 -1868 580 -1852 Q 670 -1825 670 -1761 Q 670 -1702 567 -1651 Q 402 -1712 374 -1722 L 392 -1733 Q 393 -1723 393 -1630 Q 393 -1514 387 -1424 Q 385 -1332 385 -1219 Q 367 -1182 367 -1200 L 410 -1200 Q 431 -1200 455 -1200 Q 614 -1200 614 -1112 Q 614 -1069 584 -1039 Q 555 -1010 506 -1010 Q 449 -1010 424 -1027 L 356 -1034 L 359 -1045 L 347 -1072 L 387 -1075 Q 393 -1028 393 -853 Q 393 -744 390 -656 L 387 -460 Q 387 -354 395 -242 Q 397 -202 404 -196 Q 411 -190 455 -190 L 503 -190 Q 527 -190 556 -190 Q 689 -190 689 -101 Q 689 0 516 0 L 298 0 Z"/>
		<path character="P" fill="#A5834B" fill-opacity="1.0" stroke="none" stroke-width="10px" stroke-linecap="butt" stroke-opacity="1.0" transform="matrix(1,0,0,1,10498,0)" d="M 290 0 Q 203 0 203 -149 Q 203 -283 200 -389 L 195 -631 L 195 -850 Q 192 -947 192 -1070 Q 192 -1430 179 -1737 L 176 -1834 Q 168 -1994 168 -2113 L 184 -2135 Q 188 -2143 212 -2137 Q 198 -2174 238 -2172 Q 245 -2190 274 -2190 Q 382 -2190 470 -2139 Q 558 -2089 613 -2002 Q 715 -1840 715 -1634 Q 715 -1504 674 -1368 Q 633 -1233 550 -1122 Q 458 -994 383 -980 L 387 -728 L 393 -582 Q 403 -323 403 -139 Q 403 -80 379 -40 Q 355 0 290 0 M 333 -1141 Q 330 -1180 344 -1191 Q 359 -1172 352 -1203 Q 352 -1203 372 -1225 Q 531 -1386 531 -1628 Q 531 -1767 477 -1886 Q 452 -1939 404 -1969 Q 356 -2000 345 -2000 Q 345 -1902 361 -1596 Q 377 -1285 339 -1137 L 333 -1141 Z"/>
		<path character="r" fill="#A5834B" fill-opacity="1.0" stroke="none" stroke-width="10px" stroke-linecap="butt" stroke-opacity="1.0" transform="matrix(1,0,0,1,11385,0)" d="M 624 11 Q 573 -44 533 -201 Q 494 -358 462 -547 Q 441 -696 402 -842 Q 394 -952 394 -934 L 386 -934 Q 364 -952 382 -952 Q 382 -763 403 -378 Q 414 -148 431 -94 L 385 0 L 294 0 L 238 -48 Q 195 -1299 195 -1746 Q 195 -1781 201 -1808 Q 207 -1836 226 -1859 Q 250 -1902 308 -1902 Q 463 -1902 564 -1820 Q 665 -1739 665 -1587 L 665 -1392 Q 665 -1331 629 -1239 Q 593 -1147 551 -1072 L 526 -1023 Q 552 -907 638 -557 Q 724 -207 689 -177 Q 728 -203 734 -186 Q 740 -169 751 -151 Q 777 -100 777 -60 Q 777 32 683 32 L 624 11 M 348 -1071 Q 364 -1109 392 -1145 Q 421 -1181 442 -1249 Q 483 -1402 483 -1490 Q 483 -1546 477 -1581 Q 471 -1616 456 -1657 Q 437 -1712 356 -1712 Q 356 -1749 369 -1731 Q 382 -1713 382 -1698 Q 382 -1523 387 -1381 Q 390 -1238 357 -1068 L 348 -1071 Z"/>
		<path character="o" fill="#A5834B" fill-opacity="1.0" stroke="none" stroke-width="10px" stroke-linecap="butt" stroke-opacity="1.0" transform="matrix(1,0,0,1,12273,0)" d="M 524 32 Q 157 32 157 -1007 L 157 -1101 Q 157 -1902 404 -1902 Q 427 -1902 460 -1891 Q 539 -1864 619 -1856 Q 696 -1839 759 -1724 Q 819 -1620 848 -1455 Q 878 -1290 878 -1110 L 873 -1096 Q 873 -1019 875 -949 L 878 -789 Q 878 -649 867 -537 Q 850 -365 811 -239 Q 785 -159 749 -103 Q 714 -48 660 -11 Q 605 32 524 32 M 514 -158 Q 579 -158 616 -267 Q 665 -409 675 -556 Q 685 -713 685 -807 Q 685 -911 669 -1116 Q 656 -1350 656 -1420 L 639 -1453 L 651 -1480 Q 651 -1572 599 -1642 Q 547 -1712 482 -1712 Q 404 -1712 389 -1635 Q 385 -1597 379 -1522 Q 379 -1322 363 -1250 Q 363 -1213 355 -1127 L 350 -1005 Q 350 -950 353 -905 L 355 -797 Q 355 -675 377 -516 Q 392 -400 411 -324 Q 431 -248 466 -197 Q 490 -158 514 -158 Z"/>
		<path character="j" fill="#A5834B" fill-opacity="1.0" stroke="none" stroke-width="10px" stroke-linecap="butt" stroke-opacity="1.0" transform="matrix(1,0,0,1,13289,0)" d="M 21 241 L 50 217 L 19 218 Q 19 170 87 124 Q 131 91 185 58 Q 260 52 228 29 Q 265 -14 286 -103 Q 307 -193 307 -282 Q 307 -571 296 -1001 Q 283 -1404 283 -1709 L 288 -1713 Q 290 -1705 253 -1712 Q 195 -1712 148 -1733 Q 72 -1756 72 -1817 Q 72 -1862 115 -1882 Q 158 -1902 183 -1902 Q 238 -1902 352 -1883 Q 467 -1865 575 -1833 Q 683 -1801 683 -1739 Q 683 -1696 652 -1673 Q 622 -1651 586 -1651 Q 560 -1651 498 -1666 Q 465 -1678 442 -1678 Q 442 -1709 473 -1679 Q 473 -1530 486 -1114 Q 499 -800 499 -549 L 499 -237 Q 483 -202 483 -136 Q 483 -11 414 142 Q 374 226 306 280 Q 239 335 156 335 L 115 335 L 21 241 Z"/>
		<path character="e" fill="#A5834B" fill-opacity="1.0" stroke="none" stroke-width="10px" stroke-linecap="butt" stroke-opacity="1.0" transform="matrix(1,0,0,1,14049,0)" d="M 298 0 Q 201 0 189 -108 L 189 -153 Q 192 -166 208 -163 L 172 -177 Q 203 -256 203 -300 Q 203 -359 195 -473 L 189 -652 Q 189 -788 197 -1057 Q 208 -1294 208 -1458 L 203 -1617 Q 197 -1688 197 -1775 Q 197 -1838 233 -1870 Q 269 -1902 330 -1902 Q 378 -1902 400 -1872 Q 389 -1866 456 -1877 Q 528 -1868 580 -1852 Q 670 -1825 670 -1761 Q 670 -1702 567 -1651 Q 402 -1712 374 -1722 L 392 -1733 Q 393 -1723 393 -1630 Q 393 -1514 387 -1424 Q 385 -1332 385 -1219 Q 367 -1182 367 -1200 L 410 -1200 Q 431 -1200 455 -1200 Q 614 -1200 614 -1112 Q 614 -1069 584 -1039 Q 555 -1010 506 -1010 Q 449 -1010 424 -1027 L 356 -1034 L 359 -1045 L 347 -1072 L 387 -1075 Q 393 -1028 393 -853 Q 393 -744 390 -656 L 387 -460 Q 387 -354 395 -242 Q 397 -202 404 -196 Q 411 -190 455 -190 L 503 -190 Q 527 -190 556 -190 Q 689 -190 689 -101 Q 689 0 516 0 L 298 0 Z"/>
		<path character="c" fill="#A5834B" fill-opacity="1.0" stroke="none" stroke-width="10px" stroke-linecap="butt" stroke-opacity="1.0" transform="matrix(1,0,0,1,14873,0)" d="M 426 -27 Q 368 -44 323 -80 Q 279 -116 242 -184 Q 180 -300 168 -509 Q 163 -600 163 -670 L 163 -969 Q 163 -1142 173 -1304 Q 181 -1426 198 -1512 Q 215 -1598 253 -1685 Q 296 -1783 351 -1824 Q 375 -1845 438 -1869 Q 470 -1881 511 -1902 L 631 -1902 L 662 -1902 Q 646 -1854 651 -1899 L 682 -1894 L 707 -1876 Q 734 -1849 690 -1826 Q 737 -1833 737 -1786 L 672 -1712 L 535 -1712 Q 510 -1712 480 -1677 Q 451 -1642 433 -1580 Q 413 -1518 400 -1431 Q 387 -1345 385 -1282 Q 379 -1198 379 -1159 L 374 -1145 Q 374 -1007 369 -887 L 363 -622 Q 363 -511 378 -417 Q 391 -326 446 -252 Q 491 -190 591 -190 Q 610 -190 637 -214 Q 753 -214 753 -129 Q 753 -83 704 -50 Q 656 -17 605 0 L 498 0 L 426 -27 Z"/>
		<path character="t" fill="#A5834B" fill-opacity="1.0" stroke="none" stroke-width="10px" stroke-linecap="butt" stroke-opacity="1.0" transform="matrix(1,0,0,1,15761,0)" d="M 369 -64 L 365 -191 Q 363 -235 363 -290 Q 363 -320 365 -340 L 368 -386 Q 368 -403 357 -441 Q 357 -629 331 -1119 Q 304 -1595 302 -1712 Q 186 -1712 120 -1725 Q 27 -1758 27 -1867 Q 78 -1902 132 -1902 Q 212 -1902 364 -1902 Q 503 -1902 596 -1902 L 652 -1902 L 708 -1902 Q 811 -1902 811 -1800 Q 811 -1752 773 -1732 Q 736 -1712 698 -1712 Q 644 -1712 586 -1712 L 471 -1712 Q 468 -1759 515 -1752 Q 513 -1744 513 -1708 Q 513 -1448 545 -917 Q 574 -364 574 -123 Q 574 -76 533 -46 Q 492 -17 434 -17 L 369 -64 Z"/>
		<path character="s" fill="#A5834B" fill-opacity="1.0" stroke="none" stroke-width="10px" stroke-linecap="butt" stroke-opacity="1.0" transform="matrix(1,0,0,1,16649,0)" d="M 276 0 Q 227 0 184 -36 Q 141 -73 134 -144 L 173 -207 Q 220 -207 266 -198 Q 291 -190 300 -190 Q 336 -190 369 -223 Q 402 -256 421 -314 Q 456 -440 456 -553 Q 456 -718 351 -910 Q 282 -1029 243 -1101 Q 204 -1174 174 -1270 Q 136 -1384 136 -1492 Q 136 -1595 188 -1732 Q 217 -1805 274 -1853 Q 331 -1902 402 -1902 Q 454 -1902 506 -1864 Q 558 -1827 558 -1772 Q 558 -1685 468 -1685 Q 437 -1685 407 -1712 Q 412 -1728 412 -1712 Q 395 -1712 375 -1693 Q 356 -1674 344 -1637 Q 315 -1548 315 -1476 Q 315 -1433 328 -1385 Q 330 -1369 333 -1357 Q 337 -1345 316 -1337 L 351 -1294 L 363 -1251 L 382 -1207 Q 388 -1193 396 -1180 Q 405 -1167 414 -1153 L 445 -1099 Q 456 -1084 492 -1022 Q 528 -961 558 -893 Q 587 -835 601 -782 Q 616 -729 627 -657 Q 635 -588 635 -506 Q 635 -372 598 -252 Q 543 -101 435 -39 Q 371 0 290 0 L 276 0 M 487 -1765 Q 487 -1762 490 -1762 L 490 -1765 L 487 -1765 Z"/>
</g>
</svg>