<svg xmlns="http://www.w3.org/2000/svg" xmlns:xlink="http://www.w3.org/1999/xlink" viewBox="0 0 6655 3597">
<title>Overview</title>
<g transform="matrix(1,0,0,1,0,2752)">
  		<path character="O" fill="#A5834B" fill-opacity="1.0" stroke="none" stroke-width="0px" stroke-linecap="butt" stroke-opacity="1.0" transform="matrix(1,0,0,1,-128,0)" d="M 533 64 Q 163 64 163 -1245 L 163 -1354 Q 163 -1582 189 -1751 Q 205 -1857 233 -1925 Q 261 -1993 309 -2034 Q 355 -2080 427 -2080 Q 491 -2080 544 -2054 Q 597 -2028 632 -1987 Q 661 -1949 685 -1886 Q 709 -1824 723 -1767 L 744 -1639 Q 808 -1174 808 -815 L 808 -807 Q 808 -671 803 -556 Q 797 -420 773 -271 Q 763 -197 743 -142 Q 723 -88 691 -34 Q 635 64 533 64 M 539 -16 Q 581 -16 616 -66 Q 651 -116 669 -205 Q 712 -394 723 -576 Q 728 -721 728 -859 L 728 -870 L 725 -1140 Q 720 -1286 693 -1519 Q 672 -1684 605 -1857 Q 579 -1924 535 -1962 Q 491 -2000 440 -2000 Q 395 -2000 360 -1957 Q 325 -1914 304 -1835 Q 256 -1654 251 -1500 Q 243 -1368 243 -1227 L 243 -1094 Q 243 -913 277 -635 Q 299 -459 331 -329 Q 363 -200 416 -111 Q 469 -16 539 -16 Z"/>
		<path character="v" fill="#A5834B" fill-opacity="1.0" stroke="none" stroke-width="0px" stroke-linecap="butt" stroke-opacity="1.0" transform="matrix(1,0,0,1,841,0)" d="M 400 -22 Q 400 -225 334 -621 Q 269 -1018 163 -1488 L 141 -1570 L 107 -1692 Q 91 -1747 91 -1760 Q 91 -1768 103 -1780 Q 115 -1792 125 -1792 Q 163 -1792 184 -1710 Q 195 -1676 204 -1632 Q 213 -1588 219 -1570 Q 224 -1530 227 -1522 Q 277 -1318 288 -1263 L 315 -1128 L 339 -1001 L 363 -866 Q 371 -795 384 -742 L 424 -483 Q 424 -472 443 -348 L 461 -218 Q 515 -390 552 -745 Q 589 -1076 659 -1409 Q 717 -1697 741 -1828 L 776 -1841 Q 787 -1839 796 -1831 Q 805 -1823 805 -1815 Q 805 -1756 781 -1655 L 765 -1585 L 720 -1375 Q 680 -1201 665 -1107 Q 651 -1014 632 -838 L 627 -777 Q 613 -633 606 -582 Q 600 -532 576 -452 Q 555 -372 541 -310 L 536 -249 Q 531 -158 515 -88 Q 493 0 429 0 L 400 -22 M 459 -184 L 456 -179 L 459 -173 L 459 -184 Z"/>
		<path character="e" fill="#A5834B" fill-opacity="1.0" stroke="none" stroke-width="0px" stroke-linecap="butt" stroke-opacity="1.0" transform="matrix(1,0,0,1,1810,0)" d="M 243 0 Q 195 0 189 -56 L 189 -92 Q 192 -105 192 -124 L 181 -135 Q 203 -191 203 -245 Q 203 -306 195 -421 L 189 -598 Q 189 -732 197 -1000 Q 208 -1238 208 -1404 L 203 -1565 Q 197 -1635 197 -1720 Q 197 -1758 216 -1775 Q 235 -1792 275 -1792 Q 301 -1792 317 -1777 Q 323 -1774 395 -1767 Q 461 -1759 509 -1744 Q 560 -1729 560 -1706 Q 560 -1681 509 -1656 Q 357 -1712 293 -1712 L 280 -1689 Q 283 -1665 283 -1575 Q 283 -1461 277 -1371 Q 275 -1278 275 -1164 Q 275 -1090 312 -1090 L 355 -1090 Q 376 -1090 400 -1090 Q 504 -1090 504 -1057 Q 504 -1037 490 -1023 Q 477 -1010 451 -1010 Q 411 -1010 389 -1025 L 304 -1034 L 291 -1034 L 277 -1025 L 277 -1017 Q 283 -970 283 -798 Q 283 -690 280 -602 L 277 -405 Q 277 -297 285 -184 Q 288 -121 312 -100 Q 336 -80 400 -80 L 448 -80 Q 472 -80 501 -80 Q 579 -80 579 -46 Q 579 0 461 0 L 243 0 Z"/>
		<path character="r" fill="#A5834B" fill-opacity="1.0" stroke="none" stroke-width="0px" stroke-linecap="butt" stroke-opacity="1.0" transform="matrix(1,0,0,1,2523,0)" d="M 600 19 Q 568 -16 530 -165 Q 493 -314 461 -500 Q 440 -652 400 -801 Q 368 -934 339 -934 L 331 -934 Q 272 -934 272 -897 Q 272 -707 293 -320 Q 304 -83 317 -43 L 296 0 L 259 0 L 237 -19 Q 195 -1245 195 -1691 Q 195 -1720 199 -1738 Q 203 -1757 216 -1773 Q 227 -1792 253 -1792 Q 389 -1792 472 -1725 Q 555 -1658 555 -1532 L 555 -1337 Q 555 -1286 521 -1200 Q 488 -1115 448 -1043 L 413 -976 Q 443 -840 529 -488 Q 616 -136 624 -114 Q 627 -112 631 -101 Q 635 -90 648 -69 Q 667 -32 667 -5 Q 667 32 637 32 L 600 19 M 285 -999 Q 336 -999 376 -1049 Q 416 -1100 440 -1179 Q 483 -1340 483 -1435 Q 483 -1496 476 -1535 Q 469 -1575 453 -1620 Q 421 -1712 301 -1712 Q 288 -1712 280 -1689 Q 272 -1667 272 -1643 Q 272 -1467 277 -1324 Q 280 -1182 280 -1005 L 285 -999 Z"/>
		<path character="v" fill="#A5834B" fill-opacity="1.0" stroke="none" stroke-width="0px" stroke-linecap="butt" stroke-opacity="1.0" transform="matrix(1,0,0,1,3300,0)" d="M 400 -22 Q 400 -225 334 -621 Q 269 -1018 163 -1488 L 141 -1570 L 107 -1692 Q 91 -1747 91 -1760 Q 91 -1768 103 -1780 Q 115 -1792 125 -1792 Q 163 -1792 184 -1710 Q 195 -1676 204 -1632 Q 213 -1588 219 -1570 Q 224 -1530 227 -1522 Q 277 -1318 288 -1263 L 315 -1128 L 339 -1001 L 363 -866 Q 371 -795 384 -742 L 424 -483 Q 424 -472 443 -348 L 461 -218 Q 515 -390 552 -745 Q 589 -1076 659 -1409 Q 717 -1697 741 -1828 L 776 -1841 Q 787 -1839 796 -1831 Q 805 -1823 805 -1815 Q 805 -1756 781 -1655 L 765 -1585 L 720 -1375 Q 680 -1201 665 -1107 Q 651 -1014 632 -838 L 627 -777 Q 613 -633 606 -582 Q 600 -532 576 -452 Q 555 -372 541 -310 L 536 -249 Q 531 -158 515 -88 Q 493 0 429 0 L 400 -22 M 459 -184 L 456 -179 L 459 -173 L 459 -184 Z"/>
		<path character="i" fill="#A5834B" fill-opacity="1.0" stroke="none" stroke-width="0px" stroke-linecap="butt" stroke-opacity="1.0" transform="matrix(1,0,0,1,4269,0)" d="M 336 0 Q 275 0 264 -53 Q 251 -53 243 -50 L 221 -50 Q 163 -50 147 -80 Q 147 -101 168 -115 L 181 -130 L 259 -130 L 269 -141 L 275 -164 L 277 -196 Q 277 -358 269 -485 L 264 -584 L 259 -777 Q 259 -881 267 -1088 L 272 -1396 Q 272 -1598 259 -1704 Q 235 -1712 179 -1712 L 149 -1712 Q 133 -1712 115 -1712 Q 64 -1712 64 -1757 Q 64 -1769 88 -1780 Q 112 -1792 128 -1792 Q 229 -1792 331 -1792 Q 392 -1792 453 -1766 Q 501 -1747 501 -1712 Q 501 -1705 493 -1685 L 432 -1678 Q 413 -1712 355 -1712 L 341 -1704 Q 349 -1680 349 -1561 Q 349 -1384 347 -1242 L 341 -922 Q 341 -801 352 -629 Q 360 -432 360 -333 L 360 -298 Q 357 -279 357 -250 Q 357 -188 365 -174 L 363 -169 Q 363 -130 421 -130 Q 445 -130 461 -130 L 501 -130 Q 579 -130 579 -97 Q 579 -76 563 -63 Q 547 -50 520 -50 Q 496 -50 477 -50 Q 456 -50 432 -50 Q 416 -50 384 -27 Q 352 0 336 0 Z"/>
		<path character="e" fill="#A5834B" fill-opacity="1.0" stroke="none" stroke-width="0px" stroke-linecap="butt" stroke-opacity="1.0" transform="matrix(1,0,0,1,4918,0)" d="M 243 0 Q 195 0 189 -56 L 189 -92 Q 192 -105 192 -124 L 181 -135 Q 203 -191 203 -245 Q 203 -306 195 -421 L 189 -598 Q 189 -732 197 -1000 Q 208 -1238 208 -1404 L 203 -1565 Q 197 -1635 197 -1720 Q 197 -1758 216 -1775 Q 235 -1792 275 -1792 Q 301 -1792 317 -1777 Q 323 -1774 395 -1767 Q 461 -1759 509 -1744 Q 560 -1729 560 -1706 Q 560 -1681 509 -1656 Q 357 -1712 293 -1712 L 280 -1689 Q 283 -1665 283 -1575 Q 283 -1461 277 -1371 Q 275 -1278 275 -1164 Q 275 -1090 312 -1090 L 355 -1090 Q 376 -1090 400 -1090 Q 504 -1090 504 -1057 Q 504 -1037 490 -1023 Q 477 -1010 451 -1010 Q 411 -1010 389 -1025 L 304 -1034 L 291 -1034 L 277 -1025 L 277 -1017 Q 283 -970 283 -798 Q 283 -690 280 -602 L 277 -405 Q 277 -297 285 -184 Q 288 -121 312 -100 Q 336 -80 400 -80 L 448 -80 Q 472 -80 501 -80 Q 579 -80 579 -46 Q 579 0 461 0 L 243 0 Z"/>
		<path character="w" fill="#A5834B" fill-opacity="1.0" stroke="none" stroke-width="0px" stroke-linecap="butt" stroke-opacity="1.0" transform="matrix(1,0,0,1,5631,0)" d="M 768 95 Q 739 95 731 63 Q 723 32 723 3 L 723 -21 Q 712 -131 693 -227 Q 669 -361 661 -435 Q 653 -509 637 -704 Q 613 -1011 592 -1171 Q 568 -1374 541 -1401 L 525 -1253 Q 512 -1122 512 -1067 Q 512 -952 501 -837 Q 491 -722 464 -544 L 432 -317 Q 429 -311 428 -296 Q 427 -281 424 -259 Q 419 -182 395 -56 Q 387 -2 371 31 Q 360 64 339 64 Q 301 64 277 -61 Q 259 -172 243 -413 Q 235 -566 229 -641 Q 224 -716 208 -818 L 197 -904 Q 176 -1054 170 -1118 Q 165 -1182 160 -1304 Q 157 -1395 152 -1468 Q 147 -1542 133 -1623 Q 123 -1692 99 -1770 Q 109 -1792 141 -1792 Q 173 -1792 187 -1720 Q 189 -1708 195 -1595 L 195 -1559 Q 197 -1502 256 -1017 Q 309 -578 317 -301 Q 328 -276 331 -226 Q 336 -171 344 -152 L 347 -152 L 389 -441 Q 389 -479 405 -573 Q 424 -718 437 -858 Q 451 -1025 453 -1148 Q 461 -1345 472 -1411 L 480 -1480 Q 491 -1584 491 -1581 L 539 -1603 Q 557 -1603 570 -1592 Q 584 -1581 584 -1565 Q 584 -1556 576 -1543 Q 683 -1173 720 -657 L 725 -556 Q 728 -433 744 -345 Q 760 -274 773 -241 Q 805 -334 826 -695 Q 848 -1056 848 -1322 Q 848 -1371 867 -1532 Q 885 -1666 885 -1745 Q 885 -1770 875 -1792 Q 875 -1792 928 -1792 Q 949 -1792 956 -1787 Q 963 -1782 963 -1762 Q 963 -1692 949 -1655 L 955 -1640 Q 933 -1533 933 -1405 Q 933 -1383 939 -1378 L 923 -1328 L 931 -1310 Q 923 -1294 923 -1277 L 931 -1225 L 923 -1214 Q 923 -1118 901 -786 Q 880 -454 869 -364 L 853 -290 Q 837 -232 837 -199 Q 837 -112 829 -32 Q 827 21 808 61 Q 789 95 768 95 M 776 -229 L 773 -232 L 773 -229 L 776 -229 Z"/>
</g>
</svg>