<svg xmlns="http://www.w3.org/2000/svg" xmlns:xlink="http://www.w3.org/1999/xlink" viewBox="0 0 7543 2797">
<title>Overview</title>
<g transform="matrix(1,0,0,1,0,2752)">
  		<path character="O" fill="#CAD1D8" fill-opacity="1.0" stroke="none" stroke-width="10px" stroke-linecap="butt" stroke-opacity="1.0" transform="matrix(1,0,0,1,-128,0)" d="M 588 64 Q 163 64 163 -1300 L 163 -1409 Q 163 -1641 190 -1814 Q 207 -1927 238 -2004 Q 270 -2081 327 -2129 Q 387 -2190 482 -2190 Q 559 -2190 622 -2158 Q 686 -2127 730 -2077 Q 765 -2031 791 -1963 Q 817 -1895 832 -1833 L 853 -1702 Q 918 -1233 918 -870 L 918 -862 Q 918 -725 913 -609 Q 907 -469 882 -318 Q 872 -239 850 -179 Q 828 -119 794 -61 Q 722 64 588 64 M 594 -126 Q 607 -126 630 -159 Q 654 -193 670 -272 Q 712 -457 723 -634 Q 728 -777 728 -914 L 728 -925 L 725 -1194 Q 720 -1337 693 -1567 Q 673 -1725 609 -1892 Q 588 -1946 557 -1973 Q 526 -2000 495 -2000 Q 476 -2000 453 -1971 Q 430 -1943 412 -1876 Q 366 -1701 361 -1552 Q 353 -1421 353 -1282 L 353 -1149 Q 353 -971 387 -697 Q 408 -524 438 -400 Q 469 -276 519 -193 Q 556 -126 594 -126 Z"/>
		<path character="v" fill="#CAD1D8" fill-opacity="1.0" stroke="none" stroke-width="10px" stroke-linecap="butt" stroke-opacity="1.0" transform="matrix(1,0,0,1,952,0)" d="M 400 -50 Q 400 -275 335 -668 Q 270 -1062 165 -1530 L 143 -1610 L 109 -1732 Q 91 -1794 91 -1815 Q 91 -1846 119 -1874 Q 147 -1902 180 -1902 Q 261 -1902 292 -1780 Q 303 -1745 312 -1701 Q 321 -1657 328 -1637 Q 333 -1598 335 -1593 Q 386 -1385 397 -1329 L 424 -1193 L 448 -1066 L 472 -929 Q 480 -860 493 -808 L 534 -542 Q 534 -531 552 -411 L 527 -407 Q 516 -456 552 -806 Q 590 -1140 660 -1475 Q 718 -1762 748 -1924 L 826 -1953 Q 867 -1945 891 -1924 Q 915 -1903 915 -1870 Q 915 -1805 890 -1698 L 874 -1628 L 829 -1418 Q 789 -1246 775 -1154 Q 761 -1062 742 -888 L 737 -827 Q 723 -682 716 -629 Q 709 -576 684 -492 Q 663 -414 651 -357 L 646 -300 Q 641 -205 623 -130 Q 591 0 465 0 L 400 -50 M 512 -233 L 523 -234 L 512 -235 L 512 -233 Z"/>
		<path character="e" fill="#CAD1D8" fill-opacity="1.0" stroke="none" stroke-width="10px" stroke-linecap="butt" stroke-opacity="1.0" transform="matrix(1,0,0,1,2032,0)" d="M 298 0 Q 201 0 189 -108 L 189 -153 Q 192 -166 208 -163 L 172 -177 Q 203 -256 203 -300 Q 203 -359 195 -473 L 189 -652 Q 189 -788 197 -1057 Q 208 -1294 208 -1458 L 203 -1617 Q 197 -1688 197 -1775 Q 197 -1838 233 -1870 Q 269 -1902 330 -1902 Q 378 -1902 400 -1872 Q 389 -1866 456 -1877 Q 528 -1868 580 -1852 Q 670 -1825 670 -1761 Q 670 -1702 567 -1651 Q 402 -1712 374 -1722 L 392 -1733 Q 393 -1723 393 -1630 Q 393 -1514 387 -1424 Q 385 -1332 385 -1219 Q 367 -1182 367 -1200 L 410 -1200 Q 431 -1200 455 -1200 Q 614 -1200 614 -1112 Q 614 -1069 584 -1039 Q 555 -1010 506 -1010 Q 449 -1010 424 -1027 L 356 -1034 L 359 -1045 L 347 -1072 L 387 -1075 Q 393 -1028 393 -853 Q 393 -744 390 -656 L 387 -460 Q 387 -354 395 -242 Q 397 -202 404 -196 Q 411 -190 455 -190 L 503 -190 Q 527 -190 556 -190 Q 689 -190 689 -101 Q 689 0 516 0 L 298 0 Z"/>
		<path character="r" fill="#CAD1D8" fill-opacity="1.0" stroke="none" stroke-width="10px" stroke-linecap="butt" stroke-opacity="1.0" transform="matrix(1,0,0,1,2856,0)" d="M 624 11 Q 573 -44 533 -201 Q 494 -358 462 -547 Q 441 -696 402 -842 Q 394 -952 394 -934 L 386 -934 Q 364 -952 382 -952 Q 382 -763 403 -378 Q 414 -148 431 -94 L 385 0 L 294 0 L 238 -48 Q 195 -1299 195 -1746 Q 195 -1781 201 -1808 Q 207 -1836 226 -1859 Q 250 -1902 308 -1902 Q 463 -1902 564 -1820 Q 665 -1739 665 -1587 L 665 -1392 Q 665 -1331 629 -1239 Q 593 -1147 551 -1072 L 526 -1023 Q 552 -907 638 -557 Q 724 -207 689 -177 Q 728 -203 734 -186 Q 740 -169 751 -151 Q 777 -100 777 -60 Q 777 32 683 32 L 624 11 M 348 -1071 Q 364 -1109 392 -1145 Q 421 -1181 442 -1249 Q 483 -1402 483 -1490 Q 483 -1546 477 -1581 Q 471 -1616 456 -1657 Q 437 -1712 356 -1712 Q 356 -1749 369 -1731 Q 382 -1713 382 -1698 Q 382 -1523 387 -1381 Q 390 -1238 357 -1068 L 348 -1071 Z"/>
		<path character="v" fill="#CAD1D8" fill-opacity="1.0" stroke="none" stroke-width="10px" stroke-linecap="butt" stroke-opacity="1.0" transform="matrix(1,0,0,1,3744,0)" d="M 400 -50 Q 400 -275 335 -668 Q 270 -1062 165 -1530 L 143 -1610 L 109 -1732 Q 91 -1794 91 -1815 Q 91 -1846 119 -1874 Q 147 -1902 180 -1902 Q 261 -1902 292 -1780 Q 303 -1745 312 -1701 Q 321 -1657 328 -1637 Q 333 -1598 335 -1593 Q 386 -1385 397 -1329 L 424 -1193 L 448 -1066 L 472 -929 Q 480 -860 493 -808 L 534 -542 Q 534 -531 552 -411 L 527 -407 Q 516 -456 552 -806 Q 590 -1140 660 -1475 Q 718 -1762 748 -1924 L 826 -1953 Q 867 -1945 891 -1924 Q 915 -1903 915 -1870 Q 915 -1805 890 -1698 L 874 -1628 L 829 -1418 Q 789 -1246 775 -1154 Q 761 -1062 742 -888 L 737 -827 Q 723 -682 716 -629 Q 709 -576 684 -492 Q 663 -414 651 -357 L 646 -300 Q 641 -205 623 -130 Q 591 0 465 0 L 400 -50 M 512 -233 L 523 -234 L 512 -235 L 512 -233 Z"/>
		<path character="i" fill="#CAD1D8" fill-opacity="1.0" stroke="none" stroke-width="10px" stroke-linecap="butt" stroke-opacity="1.0" transform="matrix(1,0,0,1,4824,0)" d="M 391 0 Q 285 0 306 -92 Q 315 -58 308 -50 L 276 -50 Q 185 -50 147 -121 Q 147 -185 186 -212 L 211 -240 L 299 -219 L 274 -223 L 275 -228 L 277 -253 Q 277 -411 269 -537 L 264 -637 L 259 -831 Q 259 -937 267 -1145 L 272 -1451 Q 272 -1650 278 -1729 Q 281 -1712 234 -1712 L 204 -1712 Q 188 -1712 170 -1712 Q 64 -1712 64 -1812 Q 64 -1859 109 -1880 Q 155 -1902 183 -1902 Q 284 -1902 386 -1902 Q 458 -1902 529 -1872 Q 611 -1839 611 -1767 Q 611 -1749 587 -1689 L 457 -1674 Q 436 -1712 425 -1712 L 420 -1750 Q 459 -1744 459 -1616 Q 459 -1439 457 -1296 L 451 -976 Q 451 -858 462 -687 Q 470 -488 470 -388 L 470 -349 Q 467 -330 467 -305 Q 467 -258 481 -233 L 444 -219 Q 457 -224 476 -240 Q 500 -240 516 -240 L 556 -240 Q 689 -240 689 -152 Q 689 -105 655 -77 Q 622 -50 575 -50 Q 551 -50 532 -50 Q 511 -50 487 -50 Q 487 -55 473 -39 Q 427 0 391 0 Z"/>
		<path character="e" fill="#CAD1D8" fill-opacity="1.0" stroke="none" stroke-width="10px" stroke-linecap="butt" stroke-opacity="1.0" transform="matrix(1,0,0,1,5584,0)" d="M 298 0 Q 201 0 189 -108 L 189 -153 Q 192 -166 208 -163 L 172 -177 Q 203 -256 203 -300 Q 203 -359 195 -473 L 189 -652 Q 189 -788 197 -1057 Q 208 -1294 208 -1458 L 203 -1617 Q 197 -1688 197 -1775 Q 197 -1838 233 -1870 Q 269 -1902 330 -1902 Q 378 -1902 400 -1872 Q 389 -1866 456 -1877 Q 528 -1868 580 -1852 Q 670 -1825 670 -1761 Q 670 -1702 567 -1651 Q 402 -1712 374 -1722 L 392 -1733 Q 393 -1723 393 -1630 Q 393 -1514 387 -1424 Q 385 -1332 385 -1219 Q 367 -1182 367 -1200 L 410 -1200 Q 431 -1200 455 -1200 Q 614 -1200 614 -1112 Q 614 -1069 584 -1039 Q 555 -1010 506 -1010 Q 449 -1010 424 -1027 L 356 -1034 L 359 -1045 L 347 -1072 L 387 -1075 Q 393 -1028 393 -853 Q 393 -744 390 -656 L 387 -460 Q 387 -354 395 -242 Q 397 -202 404 -196 Q 411 -190 455 -190 L 503 -190 Q 527 -190 556 -190 Q 689 -190 689 -101 Q 689 0 516 0 L 298 0 Z"/>
		<path character="w" fill="#CAD1D8" fill-opacity="1.0" stroke="none" stroke-width="10px" stroke-linecap="butt" stroke-opacity="1.0" transform="matrix(1,0,0,1,6408,0)" d="M 823 95 Q 751 95 733 22 Q 723 -16 723 -52 L 723 -73 Q 713 -178 694 -272 Q 670 -408 661 -483 Q 653 -559 637 -755 Q 613 -1060 592 -1219 Q 571 -1404 610 -1416 L 635 -1302 Q 622 -1174 622 -1122 Q 622 -1004 611 -887 Q 601 -770 573 -591 L 540 -355 Q 518 -357 527 -343 Q 537 -330 534 -308 Q 529 -230 504 -102 Q 495 -41 477 -3 Q 455 64 394 64 Q 311 64 278 -106 Q 259 -221 243 -465 Q 235 -618 229 -691 Q 224 -765 209 -865 L 197 -952 Q 176 -1103 170 -1168 Q 165 -1234 160 -1357 Q 157 -1447 152 -1518 Q 147 -1590 134 -1669 Q 124 -1735 95 -1829 Q 129 -1902 196 -1902 Q 273 -1902 296 -1785 Q 299 -1769 305 -1651 L 305 -1615 Q 307 -1561 366 -1079 Q 419 -637 427 -368 Q 437 -344 441 -285 Q 445 -239 402 -212 L 399 -210 L 389 -500 Q 389 -539 406 -636 Q 424 -779 437 -918 Q 451 -1083 453 -1205 Q 461 -1406 473 -1474 L 480 -1541 Q 546 -1639 548 -1639 L 582 -1713 Q 632 -1713 663 -1687 Q 694 -1662 694 -1620 Q 694 -1595 668 -1593 Q 792 -1238 830 -715 L 835 -613 Q 838 -494 853 -411 Q 868 -345 827 -333 Q 806 -400 827 -756 Q 848 -1113 848 -1377 Q 848 -1429 867 -1594 Q 885 -1725 885 -1800 Q 885 -1813 845 -1902 Q 845 -1902 983 -1902 Q 1022 -1902 1047 -1883 Q 1073 -1865 1073 -1817 Q 1073 -1737 1048 -1710 L 1067 -1700 Q 1043 -1582 1043 -1460 Q 1005 -1446 1058 -1452 L 1034 -1386 L 1047 -1364 Q 1033 -1336 1033 -1336 L 1044 -1266 L 1021 -1255 Q 1033 -1171 1011 -837 Q 990 -504 978 -410 L 961 -332 Q 947 -280 947 -254 Q 947 -164 939 -83 Q 937 -21 912 31 Q 876 95 823 95 M 828 -285 L 829 -284 L 831 -287 L 828 -285 Z"/>
</g>
</svg>