<svg xmlns="http://www.w3.org/2000/svg" xmlns:xlink="http://www.w3.org/1999/xlink" viewBox="0 0 14637 3092">
<title>Overview</title>
<g transform="matrix(1,0,0,1,0,2816)">
  		<path character="O" fill="#A5834B" fill-opacity="1.0" stroke="none" stroke-width="10px" stroke-linecap="butt" stroke-opacity="1.0" transform="matrix(1,0,0,1,0,0)" d="M 1111 32 Q 601 32 319 -243 Q 37 -518 37 -1111 Q 37 -1704 319 -1979 Q 601 -2254 1111 -2254 Q 1621 -2254 1903 -1979 Q 2185 -1704 2185 -1111 Q 2185 -518 1903 -243 Q 1621 32 1111 32 M 1111 -557 Q 1178 -557 1207 -589 Q 1237 -621 1237 -702 L 1237 -1520 Q 1237 -1601 1207 -1633 Q 1178 -1665 1111 -1665 Q 1044 -1665 1014 -1633 Q 985 -1601 985 -1520 L 985 -702 Q 985 -619 1014 -588 Q 1044 -557 1111 -557 Z"/>
		<path character="v" fill="#A5834B" fill-opacity="1.0" stroke="none" stroke-width="10px" stroke-linecap="butt" stroke-opacity="1.0" transform="matrix(1,0,0,1,2240,0)" d="M 491 0 L 155 -993 L 27 -993 L 27 -1582 L 961 -1582 L 961 -993 L 867 -993 L 962 -603 L 935 -603 L 1030 -993 L 936 -993 L 936 -1582 L 1820 -1582 L 1820 -993 L 1693 -993 L 1364 0 L 491 0 Z"/>
		<path character="e" fill="#A5834B" fill-opacity="1.0" stroke="none" stroke-width="10px" stroke-linecap="butt" stroke-opacity="1.0" transform="matrix(1,0,0,1,4095,0)" d="M 898 32 Q 498 32 267 -179 Q 37 -391 37 -791 Q 37 -1191 267 -1402 Q 498 -1614 898 -1614 Q 1299 -1614 1480 -1403 Q 1662 -1192 1662 -885 L 1662 -640 L 758 -680 L 798 -680 Q 798 -617 838 -587 Q 878 -557 996 -557 Q 1155 -557 1297 -578 Q 1440 -600 1617 -656 L 1617 -123 Q 1489 -53 1301 -10 Q 1114 32 898 32 M 1027 -1040 L 997 -1040 Q 997 -1086 976 -1103 Q 955 -1120 898 -1120 Q 840 -1120 819 -1102 Q 798 -1084 798 -1040 L 768 -1040 L 1027 -1040 Z"/>
		<path character="r" fill="#A5834B" fill-opacity="1.0" stroke="none" stroke-width="10px" stroke-linecap="butt" stroke-opacity="1.0" transform="matrix(1,0,0,1,5823,0)" d="M 1242 -1614 Q 1300 -1614 1353 -1604 Q 1407 -1594 1478 -1563 L 1478 -951 Q 1303 -1025 1188 -1025 Q 1041 -1025 967 -958 Q 894 -891 894 -752 L 894 -589 L 1134 -589 L 1134 0 L 53 0 L 53 -589 L 171 -589 L 171 -993 L 53 -993 L 53 -1582 L 894 -1582 L 880 -1454 Q 874 -1471 981 -1542 Q 1089 -1614 1242 -1614 Z"/>
		<path character="v" fill="#A5834B" fill-opacity="1.0" stroke="none" stroke-width="10px" stroke-linecap="butt" stroke-opacity="1.0" transform="matrix(1,0,0,1,7359,0)" d="M 491 0 L 155 -993 L 27 -993 L 27 -1582 L 961 -1582 L 961 -993 L 867 -993 L 962 -603 L 935 -603 L 1030 -993 L 936 -993 L 936 -1582 L 1820 -1582 L 1820 -993 L 1693 -993 L 1364 0 L 491 0 Z"/>
		<path character="i" fill="#A5834B" fill-opacity="1.0" stroke="none" stroke-width="10px" stroke-linecap="butt" stroke-opacity="1.0" transform="matrix(1,0,0,1,9214,0)" d="M 176 -1633 L 176 -2222 L 830 -2222 L 830 -1633 L 176 -1633 M 48 0 L 48 -589 L 165 -589 L 165 -993 L 48 -993 L 48 -1582 L 889 -1582 L 889 -589 L 1006 -589 L 1006 0 L 48 0 Z"/>
		<path character="e" fill="#A5834B" fill-opacity="1.0" stroke="none" stroke-width="10px" stroke-linecap="butt" stroke-opacity="1.0" transform="matrix(1,0,0,1,10238,0)" d="M 898 32 Q 498 32 267 -179 Q 37 -391 37 -791 Q 37 -1191 267 -1402 Q 498 -1614 898 -1614 Q 1299 -1614 1480 -1403 Q 1662 -1192 1662 -885 L 1662 -640 L 758 -680 L 798 -680 Q 798 -617 838 -587 Q 878 -557 996 -557 Q 1155 -557 1297 -578 Q 1440 -600 1617 -656 L 1617 -123 Q 1489 -53 1301 -10 Q 1114 32 898 32 M 1027 -1040 L 997 -1040 Q 997 -1086 976 -1103 Q 955 -1120 898 -1120 Q 840 -1120 819 -1102 Q 798 -1084 798 -1040 L 768 -1040 L 1027 -1040 Z"/>
		<path character="w" fill="#A5834B" fill-opacity="1.0" stroke="none" stroke-width="10px" stroke-linecap="butt" stroke-opacity="1.0" transform="matrix(1,0,0,1,11965,0)" d="M 507 0 L 155 -993 L 27 -993 L 27 -1582 L 961 -1582 L 961 -993 L 866 -993 L 916 -729 L 890 -728 L 1067 -1582 L 1646 -1582 L 1823 -728 L 1797 -729 L 1845 -993 L 1750 -993 L 1750 -1582 L 2633 -1582 L 2633 -993 L 2505 -993 L 2166 0 L 1434 0 L 1306 -727 L 1332 -727 L 1204 0 L 507 0 Z"/>
</g>
</svg>