<svg xmlns="http://www.w3.org/2000/svg" xmlns:xlink="http://www.w3.org/1999/xlink" viewBox="0 0 19609 3546">
<title>Release Sommer</title>
<g transform="matrix(1,0,0,1,0,2624)">
  		<path character="R" fill="#EA8872" fill-opacity="1.0" stroke="none" stroke-width="0px" stroke-linecap="butt" stroke-opacity="1.0" transform="matrix(1,0,0,1,128,0)" d="M 1406 -1595 Q 1406 -1858 1061 -1858 Q 844 -1858 622 -1727 Q 558 -1689 522 -1657 Q 486 -1625 453 -1625 Q 420 -1625 390 -1641 Q 360 -1658 336 -1682 Q 249 -1778 354 -1867 Q 512 -2001 877 -2040 Q 950 -2048 1063 -2048 Q 1176 -2048 1301 -2007 Q 1427 -1966 1512 -1896 Q 1683 -1755 1683 -1537 Q 1683 -1277 1446 -1064 Q 1242 -876 962 -796 Q 1038 -734 1105 -617 L 1210 -431 Q 1348 -177 1457 -155 Q 1495 -148 1535 -157 Q 1576 -167 1588 -167 Q 1601 -167 1605 -146 Q 1610 -125 1594 -93 Q 1579 -62 1544 -34 Q 1461 32 1362 24 Q 1264 17 1203 -16 Q 1142 -50 1094 -101 Q 1046 -153 1008 -215 Q 971 -278 940 -344 L 881 -472 Q 853 -535 829 -580 Q 806 -626 789 -663 Q 772 -701 751 -731 Q 706 -799 637 -818 Q 361 -109 76 -9 Q 53 0 28 0 Q 4 0 -15 -8 Q -35 -17 -49 -30 Q -76 -55 -76 -85 Q -76 -115 -56 -130 Q 140 -273 381 -964 L 459 -1186 Q 595 -1569 688 -1658 Q 721 -1683 756 -1683 Q 791 -1683 817 -1671 Q 844 -1660 864 -1643 Q 908 -1604 908 -1562 Q 908 -1521 890 -1489 Q 873 -1457 851 -1398 Q 786 -1229 751 -1127 L 684 -936 Q 963 -973 1179 -1157 Q 1406 -1350 1406 -1595 Z"/>
		<path character="e" fill="#EA8872" fill-opacity="1.0" stroke="none" stroke-width="0px" stroke-linecap="butt" stroke-opacity="1.0" transform="matrix(1,0,0,1,1809,0)" d="M 108 -463 Q 113 -575 146 -677 Q 179 -779 234 -875 Q 289 -971 363 -1056 Q 437 -1142 524 -1206 Q 712 -1344 903 -1344 Q 1128 -1344 1202 -1164 Q 1229 -1102 1227 -1018 Q 1226 -935 1194 -864 Q 1163 -793 1107 -735 Q 1051 -677 974 -631 Q 898 -585 807 -553 Q 621 -489 408 -489 Q 403 -471 401 -434 Q 400 -397 409 -351 Q 419 -306 441 -271 Q 488 -192 578 -192 Q 730 -192 874 -281 Q 925 -311 957 -343 Q 990 -375 1013 -375 Q 1037 -375 1054 -347 Q 1072 -319 1072 -284 Q 1072 -215 1033 -164 Q 868 0 541 0 Q 348 0 231 -113 Q 100 -242 108 -463 M 874 -1194 Q 736 -1194 609 -1004 Q 502 -841 436 -617 Q 655 -639 817 -791 Q 965 -933 965 -1063 Q 965 -1194 874 -1194 Z"/>
		<path character="l" fill="#EA8872" fill-opacity="1.0" stroke="none" stroke-width="0px" stroke-linecap="butt" stroke-opacity="1.0" transform="matrix(1,0,0,1,3105,0)" d="M 159 -65 Q 126 -99 105 -151 Q 85 -204 85 -274 Q 85 -344 117 -461 Q 150 -578 200 -728 L 310 -1052 Q 545 -1729 581 -2099 Q 593 -2208 689 -2208 Q 749 -2208 789 -2180 Q 865 -2123 862 -2054 Q 860 -1985 837 -1885 Q 815 -1786 779 -1668 Q 744 -1551 698 -1420 L 517 -899 Q 361 -455 361 -325 Q 361 -256 419 -256 Q 474 -256 519 -272 Q 564 -288 578 -288 Q 605 -288 605 -259 Q 605 -138 486 -56 Q 406 0 339 0 Q 273 0 232 -15 Q 192 -31 159 -65 Z"/>
		<path character="e" fill="#EA8872" fill-opacity="1.0" stroke="none" stroke-width="0px" stroke-linecap="butt" stroke-opacity="1.0" transform="matrix(1,0,0,1,3890,0)" d="M 108 -463 Q 113 -575 146 -677 Q 179 -779 234 -875 Q 289 -971 363 -1056 Q 437 -1142 524 -1206 Q 712 -1344 903 -1344 Q 1128 -1344 1202 -1164 Q 1229 -1102 1227 -1018 Q 1226 -935 1194 -864 Q 1163 -793 1107 -735 Q 1051 -677 974 -631 Q 898 -585 807 -553 Q 621 -489 408 -489 Q 403 -471 401 -434 Q 400 -397 409 -351 Q 419 -306 441 -271 Q 488 -192 578 -192 Q 730 -192 874 -281 Q 925 -311 957 -343 Q 990 -375 1013 -375 Q 1037 -375 1054 -347 Q 1072 -319 1072 -284 Q 1072 -215 1033 -164 Q 868 0 541 0 Q 348 0 231 -113 Q 100 -242 108 -463 M 874 -1194 Q 736 -1194 609 -1004 Q 502 -841 436 -617 Q 655 -639 817 -791 Q 965 -933 965 -1063 Q 965 -1194 874 -1194 Z"/>
		<path character="a" fill="#EA8872" fill-opacity="1.0" stroke="none" stroke-width="0px" stroke-linecap="butt" stroke-opacity="1.0" transform="matrix(1,0,0,1,5187,0)" d="M 1108 -353 Q 1108 -233 1193 -233 Q 1252 -233 1291 -251 Q 1330 -270 1343 -270 Q 1370 -270 1370 -241 Q 1370 -128 1252 -47 Q 1128 38 998 -5 Q 912 -35 872 -135 Q 852 -186 852 -228 Q 852 -296 865 -372 Q 743 -128 562 -36 Q 490 0 408 0 Q 327 0 267 -33 Q 208 -66 166 -123 Q 80 -244 88 -427 Q 96 -656 226 -876 Q 345 -1082 528 -1212 Q 710 -1344 869 -1344 Q 1028 -1344 1125 -1216 Q 1216 -1344 1285 -1344 Q 1360 -1344 1398 -1317 Q 1470 -1265 1449 -1227 Q 1120 -564 1111 -402 Q 1108 -379 1108 -353 M 379 -350 Q 379 -192 481 -192 Q 558 -192 671 -322 Q 836 -513 964 -836 Q 1004 -938 1032 -1039 Q 1027 -1134 957 -1179 Q 933 -1194 886 -1194 Q 840 -1194 777 -1160 Q 715 -1126 657 -1067 Q 599 -1008 548 -927 Q 498 -846 460 -751 Q 379 -549 379 -350 Z"/>
		<path character="s" fill="#EA8872" fill-opacity="1.0" stroke="none" stroke-width="0px" stroke-linecap="butt" stroke-opacity="1.0" transform="matrix(1,0,0,1,6675,0)" d="M 32 -240 Q 32 -280 49 -314 Q 67 -349 93 -372 Q 148 -423 209 -423 Q 261 -423 261 -370 Q 261 -235 352 -182 Q 385 -163 420 -163 Q 455 -163 480 -170 Q 505 -178 526 -195 Q 574 -232 574 -283 Q 574 -335 550 -378 Q 526 -421 491 -469 L 416 -572 Q 259 -777 259 -951 Q 259 -1095 383 -1212 Q 525 -1344 747 -1344 Q 941 -1344 1050 -1254 Q 1139 -1181 1139 -1081 Q 1139 -978 1061 -916 Q 990 -861 919 -875 Q 887 -882 870 -907 Q 853 -933 863 -966 Q 874 -999 874 -1034 Q 874 -1070 861 -1100 Q 848 -1130 826 -1151 Q 780 -1194 729 -1194 Q 679 -1194 646 -1183 Q 613 -1172 588 -1151 Q 537 -1105 537 -1037 Q 537 -969 560 -919 Q 584 -870 619 -821 Q 654 -772 694 -721 Q 735 -671 769 -615 Q 852 -484 852 -385 Q 852 -286 810 -219 Q 768 -153 701 -105 Q 558 0 381 0 Q 211 0 113 -80 Q 32 -148 32 -240 Z"/>
		<path character="e" fill="#EA8872" fill-opacity="1.0" stroke="none" stroke-width="0px" stroke-linecap="butt" stroke-opacity="1.0" transform="matrix(1,0,0,1,7844,0)" d="M 108 -463 Q 113 -575 146 -677 Q 179 -779 234 -875 Q 289 -971 363 -1056 Q 437 -1142 524 -1206 Q 712 -1344 903 -1344 Q 1128 -1344 1202 -1164 Q 1229 -1102 1227 -1018 Q 1226 -935 1194 -864 Q 1163 -793 1107 -735 Q 1051 -677 974 -631 Q 898 -585 807 -553 Q 621 -489 408 -489 Q 403 -471 401 -434 Q 400 -397 409 -351 Q 419 -306 441 -271 Q 488 -192 578 -192 Q 730 -192 874 -281 Q 925 -311 957 -343 Q 990 -375 1013 -375 Q 1037 -375 1054 -347 Q 1072 -319 1072 -284 Q 1072 -215 1033 -164 Q 868 0 541 0 Q 348 0 231 -113 Q 100 -242 108 -463 M 874 -1194 Q 736 -1194 609 -1004 Q 502 -841 436 -617 Q 655 -639 817 -791 Q 965 -933 965 -1063 Q 965 -1194 874 -1194 Z"/>
		<path character="S" fill="#EA8872" fill-opacity="1.0" stroke="none" stroke-width="0px" stroke-linecap="butt" stroke-opacity="1.0" transform="matrix(1,0,0,1,9989,0)" d="M 331 -494 L 319 -391 Q 319 -229 425 -170 Q 462 -150 513 -150 Q 564 -150 605 -168 Q 646 -186 672 -215 Q 727 -275 727 -354 Q 727 -433 695 -497 Q 664 -561 617 -625 L 512 -755 Q 385 -910 341 -1037 Q 298 -1164 298 -1271 Q 298 -1378 323 -1473 Q 349 -1568 395 -1654 Q 441 -1740 505 -1812 Q 570 -1884 648 -1936 Q 812 -2048 973 -2048 Q 1135 -2048 1225 -2003 Q 1316 -1959 1372 -1891 Q 1474 -1763 1474 -1581 Q 1474 -1412 1378 -1263 Q 1290 -1126 1181 -1090 Q 1158 -1078 1116 -1078 Q 1075 -1078 1047 -1091 Q 1019 -1104 998 -1126 Q 952 -1173 952 -1229 Q 952 -1267 974 -1280 Q 1074 -1335 1147 -1442 Q 1227 -1557 1231 -1672 Q 1235 -1788 1178 -1843 Q 1121 -1898 1026 -1898 Q 932 -1898 856 -1855 Q 780 -1812 725 -1738 Q 606 -1581 606 -1367 Q 606 -1225 704 -1067 Q 744 -999 792 -933 Q 840 -867 882 -798 Q 978 -637 978 -509 Q 978 -382 932 -294 Q 887 -206 812 -141 Q 651 0 445 0 Q 251 0 146 -109 Q 62 -197 62 -300 Q 62 -411 129 -488 Q 180 -549 227 -561 Q 331 -588 331 -494 Z"/>
		<path character="o" fill="#EA8872" fill-opacity="1.0" stroke="none" stroke-width="0px" stroke-linecap="butt" stroke-opacity="1.0" transform="matrix(1,0,0,1,11286,0)" d="M 216 -100 Q 161 -152 129 -231 Q 98 -310 97 -418 Q 96 -526 124 -636 Q 152 -747 204 -850 Q 256 -953 328 -1043 Q 401 -1133 489 -1200 Q 681 -1344 887 -1344 Q 1157 -1344 1253 -1111 Q 1321 -943 1261 -704 Q 1206 -484 1059 -300 Q 913 -116 715 -39 Q 615 0 518 0 Q 422 0 346 -24 Q 271 -49 216 -100 M 467 -724 Q 428 -629 405 -529 Q 382 -429 383 -340 Q 384 -251 411 -200 Q 438 -150 498 -150 Q 559 -150 617 -190 Q 676 -231 731 -297 Q 786 -364 834 -451 Q 883 -538 920 -633 Q 1000 -839 997 -999 Q 997 -1140 938 -1179 Q 915 -1194 872 -1194 Q 829 -1194 774 -1156 Q 719 -1118 664 -1054 Q 609 -990 557 -904 Q 506 -819 467 -724 Z"/>
		<path character="m" fill="#EA8872" fill-opacity="1.0" stroke="none" stroke-width="0px" stroke-linecap="butt" stroke-opacity="1.0" transform="matrix(1,0,0,1,12710,0)" d="M 1084 -1088 Q 1008 -1088 806 -874 Q 655 -708 587 -624 L 469 -479 Q 392 -339 349 -247 L 278 -99 Q 251 -44 230 -22 Q 210 0 175 0 Q 140 0 108 -12 Q 76 -24 53 -44 Q 3 -85 3 -134 Q 3 -153 32 -210 L 81 -314 Q 105 -360 137 -432 L 210 -608 Q 365 -988 365 -1098 Q 365 -1158 326 -1186 L 299 -1204 Q 286 -1213 286 -1235 Q 286 -1258 304 -1278 Q 322 -1299 350 -1314 Q 410 -1344 469 -1344 Q 529 -1344 563 -1331 Q 597 -1318 622 -1296 Q 672 -1250 672 -1200 Q 672 -1150 659 -1099 Q 646 -1049 626 -997 Q 606 -945 584 -897 Q 532 -784 519 -758 Q 507 -733 512 -739 Q 752 -1050 801 -1107 Q 902 -1224 958 -1267 Q 1062 -1344 1154 -1344 Q 1247 -1344 1302 -1287 Q 1357 -1231 1357 -1139 Q 1357 -1058 1315 -949 Q 1273 -841 1259 -797 L 1452 -1046 L 1559 -1171 Q 1656 -1277 1729 -1310 Q 1803 -1344 1850 -1344 Q 1897 -1344 1942 -1327 Q 1987 -1311 2019 -1281 Q 2086 -1220 2086 -1119 Q 2086 -1021 2038 -918 Q 1991 -816 1955 -750 Q 1920 -685 1887 -619 Q 1792 -420 1792 -324 Q 1792 -256 1849 -256 Q 1904 -256 1949 -278 Q 1995 -301 2008 -301 Q 2036 -301 2036 -271 Q 2036 -144 1916 -58 Q 1836 0 1770 0 Q 1704 0 1663 -15 Q 1622 -31 1589 -64 Q 1516 -137 1516 -247 Q 1516 -358 1545 -451 Q 1574 -544 1613 -631 Q 1652 -718 1692 -791 Q 1733 -864 1754 -908 Q 1796 -996 1796 -1038 Q 1796 -1088 1742 -1088 Q 1671 -1088 1487 -860 Q 1348 -684 1294 -606 L 1204 -479 Q 1127 -339 1087 -247 L 1020 -99 Q 995 -44 976 -22 Q 958 0 925 0 Q 893 0 862 -10 Q 831 -20 809 -37 Q 757 -74 757 -115 Q 757 -156 785 -228 Q 814 -300 856 -389 L 1040 -765 Q 1138 -975 1138 -1031 Q 1138 -1088 1084 -1088 M 1214 -744 Q 1215 -744 1215 -746 L 1217 -748 Q 1214 -745 1214 -744 Z"/>
		<path character="m" fill="#EA8872" fill-opacity="1.0" stroke="none" stroke-width="0px" stroke-linecap="butt" stroke-opacity="1.0" transform="matrix(1,0,0,1,14903,0)" d="M 1084 -1088 Q 1008 -1088 806 -874 Q 655 -708 587 -624 L 469 -479 Q 392 -339 349 -247 L 278 -99 Q 251 -44 230 -22 Q 210 0 175 0 Q 140 0 108 -12 Q 76 -24 53 -44 Q 3 -85 3 -134 Q 3 -153 32 -210 L 81 -314 Q 105 -360 137 -432 L 210 -608 Q 365 -988 365 -1098 Q 365 -1158 326 -1186 L 299 -1204 Q 286 -1213 286 -1235 Q 286 -1258 304 -1278 Q 322 -1299 350 -1314 Q 410 -1344 469 -1344 Q 529 -1344 563 -1331 Q 597 -1318 622 -1296 Q 672 -1250 672 -1200 Q 672 -1150 659 -1099 Q 646 -1049 626 -997 Q 606 -945 584 -897 Q 532 -784 519 -758 Q 507 -733 512 -739 Q 752 -1050 801 -1107 Q 902 -1224 958 -1267 Q 1062 -1344 1154 -1344 Q 1247 -1344 1302 -1287 Q 1357 -1231 1357 -1139 Q 1357 -1058 1315 -949 Q 1273 -841 1259 -797 L 1452 -1046 L 1559 -1171 Q 1656 -1277 1729 -1310 Q 1803 -1344 1850 -1344 Q 1897 -1344 1942 -1327 Q 1987 -1311 2019 -1281 Q 2086 -1220 2086 -1119 Q 2086 -1021 2038 -918 Q 1991 -816 1955 -750 Q 1920 -685 1887 -619 Q 1792 -420 1792 -324 Q 1792 -256 1849 -256 Q 1904 -256 1949 -278 Q 1995 -301 2008 -301 Q 2036 -301 2036 -271 Q 2036 -144 1916 -58 Q 1836 0 1770 0 Q 1704 0 1663 -15 Q 1622 -31 1589 -64 Q 1516 -137 1516 -247 Q 1516 -358 1545 -451 Q 1574 -544 1613 -631 Q 1652 -718 1692 -791 Q 1733 -864 1754 -908 Q 1796 -996 1796 -1038 Q 1796 -1088 1742 -1088 Q 1671 -1088 1487 -860 Q 1348 -684 1294 -606 L 1204 -479 Q 1127 -339 1087 -247 L 1020 -99 Q 995 -44 976 -22 Q 958 0 925 0 Q 893 0 862 -10 Q 831 -20 809 -37 Q 757 -74 757 -115 Q 757 -156 785 -228 Q 814 -300 856 -389 L 1040 -765 Q 1138 -975 1138 -1031 Q 1138 -1088 1084 -1088 M 1214 -744 Q 1215 -744 1215 -746 L 1217 -748 Q 1214 -745 1214 -744 Z"/>
		<path character="e" fill="#EA8872" fill-opacity="1.0" stroke="none" stroke-width="0px" stroke-linecap="butt" stroke-opacity="1.0" transform="matrix(1,0,0,1,17096,0)" d="M 108 -463 Q 113 -575 146 -677 Q 179 -779 234 -875 Q 289 -971 363 -1056 Q 437 -1142 524 -1206 Q 712 -1344 903 -1344 Q 1128 -1344 1202 -1164 Q 1229 -1102 1227 -1018 Q 1226 -935 1194 -864 Q 1163 -793 1107 -735 Q 1051 -677 974 -631 Q 898 -585 807 -553 Q 621 -489 408 -489 Q 403 -471 401 -434 Q 400 -397 409 -351 Q 419 -306 441 -271 Q 488 -192 578 -192 Q 730 -192 874 -281 Q 925 -311 957 -343 Q 990 -375 1013 -375 Q 1037 -375 1054 -347 Q 1072 -319 1072 -284 Q 1072 -215 1033 -164 Q 868 0 541 0 Q 348 0 231 -113 Q 100 -242 108 -463 M 874 -1194 Q 736 -1194 609 -1004 Q 502 -841 436 -617 Q 655 -639 817 -791 Q 965 -933 965 -1063 Q 965 -1194 874 -1194 Z"/>
		<path character="r" fill="#EA8872" fill-opacity="1.0" stroke="none" stroke-width="0px" stroke-linecap="butt" stroke-opacity="1.0" transform="matrix(1,0,0,1,18392,0)" d="M 99 -43 Q 73 -63 57 -87 Q 42 -111 40 -128 Q 39 -145 47 -170 Q 56 -195 71 -232 Q 338 -877 338 -1098 Q 334 -1160 295 -1186 L 269 -1204 Q 257 -1213 256 -1235 Q 256 -1258 273 -1278 Q 290 -1299 317 -1314 Q 374 -1344 433 -1344 Q 493 -1344 526 -1331 Q 560 -1318 584 -1296 Q 634 -1250 634 -1198 Q 635 -1146 622 -1093 Q 610 -1040 593 -989 Q 576 -938 559 -892 Q 542 -846 537 -824 Q 526 -779 529 -767 Q 560 -794 567 -820 L 618 -916 Q 789 -1219 951 -1317 Q 999 -1344 1065 -1344 Q 1131 -1344 1171 -1298 Q 1212 -1252 1214 -1196 Q 1216 -1140 1206 -1102 Q 1197 -1065 1177 -1033 Q 1134 -960 1072 -960 Q 1055 -960 1041 -972 L 1012 -997 Q 968 -1035 928 -1035 Q 888 -1035 831 -983 Q 774 -932 712 -852 Q 505 -584 374 -251 L 316 -103 Q 294 -47 277 -23 Q 260 0 226 0 Q 193 0 159 -12 Q 126 -24 99 -43 Z"/>
</g>
</svg>