<svg xmlns="http://www.w3.org/2000/svg" xmlns:xlink="http://www.w3.org/1999/xlink" viewBox="0 0 25404 3092">
<title>Release Sommer</title>
<g transform="matrix(1,0,0,1,0,2816)">
  		<path character="R" fill="#A5834B" fill-opacity="1.0" stroke="none" stroke-width="10px" stroke-linecap="butt" stroke-opacity="1.0" transform="matrix(1,0,0,1,0,0)" d="M 53 -589 L 187 -589 L 187 -1633 L 53 -1633 L 53 -2222 L 1332 -2222 Q 1696 -2222 1895 -2064 Q 2094 -1907 2094 -1557 Q 2094 -1361 2014 -1213 Q 1934 -1066 1799 -1036 L 1796 -1062 Q 2076 -1041 2076 -731 L 2076 -589 L 2201 -589 L 2201 0 L 1245 0 L 1245 -697 Q 1245 -789 1223 -827 Q 1202 -866 1151 -881 Q 1100 -896 1043 -896 L 1043 -589 L 1219 -589 L 1219 0 L 53 0 L 53 -589 M 1132 -1326 Q 1187 -1326 1209 -1349 Q 1232 -1372 1232 -1434 L 1232 -1525 Q 1232 -1587 1209 -1610 Q 1187 -1633 1132 -1633 L 1043 -1633 L 1043 -1326 L 1132 -1326 Z"/>
		<path character="e" fill="#A5834B" fill-opacity="1.0" stroke="none" stroke-width="10px" stroke-linecap="butt" stroke-opacity="1.0" transform="matrix(1,0,0,1,2240,0)" d="M 898 32 Q 498 32 267 -179 Q 37 -391 37 -791 Q 37 -1191 267 -1402 Q 498 -1614 898 -1614 Q 1299 -1614 1480 -1403 Q 1662 -1192 1662 -885 L 1662 -640 L 758 -680 L 798 -680 Q 798 -617 838 -587 Q 878 -557 996 -557 Q 1155 -557 1297 -578 Q 1440 -600 1617 -656 L 1617 -123 Q 1489 -53 1301 -10 Q 1114 32 898 32 M 1027 -1040 L 997 -1040 Q 997 -1086 976 -1103 Q 955 -1120 898 -1120 Q 840 -1120 819 -1102 Q 798 -1084 798 -1040 L 768 -1040 L 1027 -1040 Z"/>
		<path character="l" fill="#A5834B" fill-opacity="1.0" stroke="none" stroke-width="10px" stroke-linecap="butt" stroke-opacity="1.0" transform="matrix(1,0,0,1,3967,0)" d="M 48 0 L 48 -589 L 165 -589 L 165 -1633 L 48 -1633 L 48 -2222 L 889 -2222 L 889 -589 L 1006 -589 L 1006 0 L 48 0 Z"/>
		<path character="e" fill="#A5834B" fill-opacity="1.0" stroke="none" stroke-width="10px" stroke-linecap="butt" stroke-opacity="1.0" transform="matrix(1,0,0,1,5055,0)" d="M 898 32 Q 498 32 267 -179 Q 37 -391 37 -791 Q 37 -1191 267 -1402 Q 498 -1614 898 -1614 Q 1299 -1614 1480 -1403 Q 1662 -1192 1662 -885 L 1662 -640 L 758 -680 L 798 -680 Q 798 -617 838 -587 Q 878 -557 996 -557 Q 1155 -557 1297 -578 Q 1440 -600 1617 -656 L 1617 -123 Q 1489 -53 1301 -10 Q 1114 32 898 32 M 1027 -1040 L 997 -1040 Q 997 -1086 976 -1103 Q 955 -1120 898 -1120 Q 840 -1120 819 -1102 Q 798 -1084 798 -1040 L 768 -1040 L 1027 -1040 Z"/>
		<path character="a" fill="#A5834B" fill-opacity="1.0" stroke="none" stroke-width="10px" stroke-linecap="butt" stroke-opacity="1.0" transform="matrix(1,0,0,1,6783,0)" d="M 1713 -589 L 1713 0 L 899 0 L 922 -144 Q 935 -122 817 -45 Q 700 32 532 32 Q 311 32 179 -88 Q 48 -209 48 -424 Q 48 -974 899 -974 Q 899 -978 856 -1001 Q 814 -1025 682 -1025 Q 567 -1025 434 -1001 Q 301 -978 117 -910 L 117 -1520 Q 303 -1568 471 -1591 Q 640 -1614 802 -1614 Q 1218 -1614 1407 -1463 Q 1596 -1312 1596 -1001 L 1596 -589 L 1713 -589 M 938 -680 Q 846 -641 802 -621 Q 758 -601 758 -568 Q 758 -551 769 -541 Q 780 -531 810 -531 Q 850 -531 874 -565 Q 899 -600 899 -680 L 938 -680 Z"/>
		<path character="s" fill="#A5834B" fill-opacity="1.0" stroke="none" stroke-width="10px" stroke-linecap="butt" stroke-opacity="1.0" transform="matrix(1,0,0,1,8574,0)" d="M 751 32 Q 407 32 48 -77 L 48 -558 L 590 -558 L 590 -475 Q 590 -398 698 -398 Q 787 -398 787 -442 Q 787 -466 762 -481 Q 738 -497 645 -514 L 512 -538 Q 48 -621 48 -1069 Q 48 -1330 242 -1472 Q 437 -1614 754 -1614 Q 1099 -1614 1371 -1489 L 1371 -1042 L 856 -1042 L 856 -1125 Q 856 -1155 838 -1169 Q 820 -1184 770 -1184 Q 691 -1184 691 -1153 Q 691 -1138 711 -1125 Q 732 -1112 821 -1092 L 972 -1063 Q 1229 -1013 1343 -875 Q 1457 -737 1457 -524 Q 1457 -253 1269 -110 Q 1081 32 751 32 Z"/>
		<path character="e" fill="#A5834B" fill-opacity="1.0" stroke="none" stroke-width="10px" stroke-linecap="butt" stroke-opacity="1.0" transform="matrix(1,0,0,1,10110,0)" d="M 898 32 Q 498 32 267 -179 Q 37 -391 37 -791 Q 37 -1191 267 -1402 Q 498 -1614 898 -1614 Q 1299 -1614 1480 -1403 Q 1662 -1192 1662 -885 L 1662 -640 L 758 -680 L 798 -680 Q 798 -617 838 -587 Q 878 -557 996 -557 Q 1155 -557 1297 -578 Q 1440 -600 1617 -656 L 1617 -123 Q 1489 -53 1301 -10 Q 1114 32 898 32 M 1027 -1040 L 997 -1040 Q 997 -1086 976 -1103 Q 955 -1120 898 -1120 Q 840 -1120 819 -1102 Q 798 -1084 798 -1040 L 768 -1040 L 1027 -1040 Z"/>
		<path character="S" fill="#A5834B" fill-opacity="1.0" stroke="none" stroke-width="10px" stroke-linecap="butt" stroke-opacity="1.0" transform="matrix(1,0,0,1,12686,0)" d="M 935 32 Q 674 32 440 -9 Q 207 -51 45 -120 L 45 -723 L 742 -723 Q 742 -603 764 -580 Q 786 -557 860 -557 Q 925 -557 942 -570 Q 960 -583 960 -607 Q 960 -627 938 -647 Q 916 -667 841 -696 L 612 -780 Q 302 -902 161 -1072 Q 21 -1243 21 -1532 Q 21 -1884 245 -2069 Q 470 -2254 972 -2254 Q 1210 -2254 1422 -2206 Q 1634 -2159 1793 -2061 L 1793 -1490 L 1149 -1490 Q 1149 -1632 1039 -1632 Q 974 -1632 960 -1623 Q 947 -1615 947 -1595 Q 947 -1578 971 -1561 Q 995 -1544 1076 -1516 L 1308 -1435 Q 1606 -1332 1746 -1162 Q 1886 -993 1886 -721 Q 1886 -349 1640 -158 Q 1394 32 935 32 Z"/>
		<path character="o" fill="#A5834B" fill-opacity="1.0" stroke="none" stroke-width="10px" stroke-linecap="butt" stroke-opacity="1.0" transform="matrix(1,0,0,1,14606,0)" d="M 898 32 Q 498 32 267 -179 Q 37 -391 37 -791 Q 37 -1191 267 -1402 Q 498 -1614 898 -1614 Q 1304 -1614 1531 -1400 Q 1758 -1186 1758 -791 Q 1758 -391 1527 -179 Q 1297 32 898 32 M 898 -557 Q 952 -557 974 -580 Q 997 -603 997 -664 L 997 -918 Q 997 -979 974 -1002 Q 952 -1025 898 -1025 Q 843 -1025 820 -1002 Q 798 -979 798 -918 L 798 -664 Q 798 -603 820 -580 Q 843 -557 898 -557 Z"/>
		<path character="m" fill="#A5834B" fill-opacity="1.0" stroke="none" stroke-width="10px" stroke-linecap="butt" stroke-opacity="1.0" transform="matrix(1,0,0,1,16397,0)" d="M 2852 -589 L 2852 0 L 1899 0 L 1899 -589 L 2011 -589 L 2011 -927 Q 2011 -983 1989 -1004 Q 1968 -1025 1917 -1025 Q 1812 -1025 1812 -927 L 1812 -589 L 1924 -589 L 1924 0 L 976 0 L 976 -589 L 1088 -589 L 1088 -927 Q 1088 -983 1066 -1004 Q 1045 -1025 994 -1025 Q 889 -1025 889 -927 L 889 -589 L 1001 -589 L 1001 0 L 48 0 L 48 -589 L 165 -589 L 165 -1025 L 48 -1025 L 48 -1582 L 889 -1582 L 889 -1473 Q 999 -1614 1314 -1614 Q 1495 -1614 1612 -1526 Q 1729 -1439 1744 -1392 Q 1782 -1448 1917 -1531 Q 2053 -1614 2237 -1614 Q 2484 -1614 2609 -1465 Q 2734 -1316 2734 -1065 L 2734 -589 L 2852 -589 Z"/>
		<path character="m" fill="#A5834B" fill-opacity="1.0" stroke="none" stroke-width="10px" stroke-linecap="butt" stroke-opacity="1.0" transform="matrix(1,0,0,1,19277,0)" d="M 2852 -589 L 2852 0 L 1899 0 L 1899 -589 L 2011 -589 L 2011 -927 Q 2011 -983 1989 -1004 Q 1968 -1025 1917 -1025 Q 1812 -1025 1812 -927 L 1812 -589 L 1924 -589 L 1924 0 L 976 0 L 976 -589 L 1088 -589 L 1088 -927 Q 1088 -983 1066 -1004 Q 1045 -1025 994 -1025 Q 889 -1025 889 -927 L 889 -589 L 1001 -589 L 1001 0 L 48 0 L 48 -589 L 165 -589 L 165 -1025 L 48 -1025 L 48 -1582 L 889 -1582 L 889 -1473 Q 999 -1614 1314 -1614 Q 1495 -1614 1612 -1526 Q 1729 -1439 1744 -1392 Q 1782 -1448 1917 -1531 Q 2053 -1614 2237 -1614 Q 2484 -1614 2609 -1465 Q 2734 -1316 2734 -1065 L 2734 -589 L 2852 -589 Z"/>
		<path character="e" fill="#A5834B" fill-opacity="1.0" stroke="none" stroke-width="10px" stroke-linecap="butt" stroke-opacity="1.0" transform="matrix(1,0,0,1,22157,0)" d="M 898 32 Q 498 32 267 -179 Q 37 -391 37 -791 Q 37 -1191 267 -1402 Q 498 -1614 898 -1614 Q 1299 -1614 1480 -1403 Q 1662 -1192 1662 -885 L 1662 -640 L 758 -680 L 798 -680 Q 798 -617 838 -587 Q 878 -557 996 -557 Q 1155 -557 1297 -578 Q 1440 -600 1617 -656 L 1617 -123 Q 1489 -53 1301 -10 Q 1114 32 898 32 M 1027 -1040 L 997 -1040 Q 997 -1086 976 -1103 Q 955 -1120 898 -1120 Q 840 -1120 819 -1102 Q 798 -1084 798 -1040 L 768 -1040 L 1027 -1040 Z"/>
		<path character="r" fill="#A5834B" fill-opacity="1.0" stroke="none" stroke-width="10px" stroke-linecap="butt" stroke-opacity="1.0" transform="matrix(1,0,0,1,23884,0)" d="M 1242 -1614 Q 1300 -1614 1353 -1604 Q 1407 -1594 1478 -1563 L 1478 -951 Q 1303 -1025 1188 -1025 Q 1041 -1025 967 -958 Q 894 -891 894 -752 L 894 -589 L 1134 -589 L 1134 0 L 53 0 L 53 -589 L 171 -589 L 171 -993 L 53 -993 L 53 -1582 L 894 -1582 L 880 -1454 Q 874 -1471 981 -1542 Q 1089 -1614 1242 -1614 Z"/>
</g>
</svg>