<svg xmlns="http://www.w3.org/2000/svg" xmlns:xlink="http://www.w3.org/1999/xlink" viewBox="0 0 19553 3482">
<title>Release Sommer</title>
<g transform="matrix(1,0,0,1,0,2560)">
  		<path character="R" fill="#EA8872" fill-opacity="1.0" stroke="none" stroke-width="0px" stroke-linecap="butt" stroke-opacity="1.0" transform="matrix(1,0,0,1,-192,0)" d="M 1472 -1226 Q 1472 -1051 1370 -929 Q 1269 -808 1056 -749 L 1056 -744 L 1536 0 L 1216 0 L 734 -704 L 512 -704 L 512 0 L 192 0 L 192 -1728 L 718 -1728 Q 849 -1728 961 -1713 Q 1074 -1699 1154 -1671 Q 1306 -1614 1389 -1503 Q 1472 -1393 1472 -1226 M 669 -960 Q 778 -960 854 -969 Q 930 -979 982 -997 Q 1078 -1032 1115 -1093 Q 1152 -1154 1152 -1232 Q 1152 -1300 1123 -1351 Q 1094 -1403 1023 -1433 Q 978 -1453 909 -1462 Q 840 -1472 739 -1472 L 512 -1472 L 512 -960 L 669 -960 Z"/>
		<path character="e" fill="#EA8872" fill-opacity="1.0" stroke="none" stroke-width="0px" stroke-linecap="butt" stroke-opacity="1.0" transform="matrix(1,0,0,1,1432,0)" d="M 837 -256 Q 927 -256 1025 -272 Q 1124 -289 1225 -320 L 1225 -73 Q 1165 -47 1040 -23 Q 915 0 781 0 Q 646 0 525 -31 Q 405 -63 317 -133 Q 230 -204 179 -316 Q 128 -429 128 -589 Q 128 -747 178 -865 Q 228 -983 312 -1060 Q 396 -1138 504 -1177 Q 613 -1216 728 -1216 Q 849 -1216 951 -1182 Q 1053 -1148 1127 -1075 Q 1201 -1002 1242 -887 Q 1284 -772 1284 -615 Q 1283 -555 1280 -512 L 434 -512 Q 440 -443 473 -394 Q 506 -345 559 -314 Q 612 -284 683 -270 Q 754 -256 837 -256 M 718 -960 Q 658 -960 611 -945 Q 564 -930 529 -903 Q 495 -877 475 -842 Q 455 -808 448 -768 L 960 -768 Q 960 -808 944 -842 Q 929 -877 899 -903 Q 869 -930 824 -945 Q 779 -960 718 -960 Z"/>
		<path character="l" fill="#EA8872" fill-opacity="1.0" stroke="none" stroke-width="0px" stroke-linecap="butt" stroke-opacity="1.0" transform="matrix(1,0,0,1,2851,0)" d="M 192 0 L 192 -1920 L 512 -1920 L 512 0 L 192 0 Z"/>
		<path character="e" fill="#EA8872" fill-opacity="1.0" stroke="none" stroke-width="0px" stroke-linecap="butt" stroke-opacity="1.0" transform="matrix(1,0,0,1,3567,0)" d="M 837 -256 Q 927 -256 1025 -272 Q 1124 -289 1225 -320 L 1225 -73 Q 1165 -47 1040 -23 Q 915 0 781 0 Q 646 0 525 -31 Q 405 -63 317 -133 Q 230 -204 179 -316 Q 128 -429 128 -589 Q 128 -747 178 -865 Q 228 -983 312 -1060 Q 396 -1138 504 -1177 Q 613 -1216 728 -1216 Q 849 -1216 951 -1182 Q 1053 -1148 1127 -1075 Q 1201 -1002 1242 -887 Q 1284 -772 1284 -615 Q 1283 -555 1280 -512 L 434 -512 Q 440 -443 473 -394 Q 506 -345 559 -314 Q 612 -284 683 -270 Q 754 -256 837 -256 M 718 -960 Q 658 -960 611 -945 Q 564 -930 529 -903 Q 495 -877 475 -842 Q 455 -808 448 -768 L 960 -768 Q 960 -808 944 -842 Q 929 -877 899 -903 Q 869 -930 824 -945 Q 779 -960 718 -960 Z"/>
		<path character="a" fill="#EA8872" fill-opacity="1.0" stroke="none" stroke-width="0px" stroke-linecap="butt" stroke-opacity="1.0" transform="matrix(1,0,0,1,4986,0)" d="M 926 -135 L 920 -135 Q 894 -108 858 -79 Q 822 -50 775 -25 Q 728 0 671 0 Q 614 0 548 0 Q 459 0 381 -25 Q 303 -51 247 -99 Q 192 -148 160 -216 Q 128 -285 128 -370 Q 128 -463 164 -537 Q 201 -612 267 -663 Q 333 -714 424 -741 Q 516 -768 627 -768 Q 708 -768 776 -757 Q 844 -747 896 -733 L 896 -780 Q 896 -815 881 -847 Q 866 -880 832 -905 Q 799 -930 745 -945 Q 691 -960 614 -960 Q 519 -960 424 -944 Q 330 -928 220 -896 L 220 -1131 Q 316 -1172 423 -1193 Q 531 -1215 649 -1216 Q 788 -1216 892 -1184 Q 997 -1152 1067 -1096 Q 1138 -1041 1173 -965 Q 1208 -889 1208 -800 L 1208 -353 Q 1208 -235 1210 -150 Q 1213 -66 1216 0 L 938 0 L 926 -135 M 896 -497 Q 853 -503 797 -507 Q 742 -512 685 -512 Q 575 -512 511 -479 Q 448 -447 448 -379 Q 448 -348 462 -325 Q 477 -302 501 -286 Q 526 -271 559 -263 Q 592 -256 628 -256 Q 674 -256 714 -268 Q 755 -281 789 -300 Q 823 -319 850 -343 Q 877 -367 896 -389 L 896 -497 Z"/>
		<path character="s" fill="#EA8872" fill-opacity="1.0" stroke="none" stroke-width="0px" stroke-linecap="butt" stroke-opacity="1.0" transform="matrix(1,0,0,1,6406,0)" d="M 704 -366 Q 704 -403 682 -427 Q 661 -451 626 -467 Q 591 -483 545 -495 Q 499 -507 449 -519 Q 386 -536 327 -558 Q 269 -580 224 -615 Q 180 -651 154 -705 Q 128 -760 128 -839 Q 128 -936 168 -1007 Q 209 -1078 278 -1124 Q 347 -1171 436 -1193 Q 526 -1216 622 -1216 Q 739 -1216 841 -1197 Q 943 -1178 1026 -1148 L 1026 -896 Q 983 -909 935 -920 Q 887 -932 837 -940 Q 788 -949 739 -954 Q 691 -960 648 -960 Q 593 -960 555 -952 Q 517 -945 493 -933 Q 469 -921 458 -904 Q 448 -888 448 -871 Q 448 -832 469 -806 Q 490 -781 527 -765 Q 565 -750 606 -740 Q 647 -730 685 -720 Q 746 -706 806 -685 Q 866 -665 914 -629 Q 963 -593 993 -535 Q 1024 -477 1024 -387 Q 1024 -289 981 -216 Q 939 -143 863 -95 Q 787 -47 683 -23 Q 580 0 458 0 Q 338 0 241 -19 Q 145 -38 82 -67 L 82 -320 Q 184 -283 270 -269 Q 357 -256 432 -256 Q 490 -256 540 -262 Q 590 -269 626 -282 Q 662 -296 683 -316 Q 704 -337 704 -366 Z"/>
		<path character="e" fill="#EA8872" fill-opacity="1.0" stroke="none" stroke-width="0px" stroke-linecap="butt" stroke-opacity="1.0" transform="matrix(1,0,0,1,7569,0)" d="M 837 -256 Q 927 -256 1025 -272 Q 1124 -289 1225 -320 L 1225 -73 Q 1165 -47 1040 -23 Q 915 0 781 0 Q 646 0 525 -31 Q 405 -63 317 -133 Q 230 -204 179 -316 Q 128 -429 128 -589 Q 128 -747 178 -865 Q 228 -983 312 -1060 Q 396 -1138 504 -1177 Q 613 -1216 728 -1216 Q 849 -1216 951 -1182 Q 1053 -1148 1127 -1075 Q 1201 -1002 1242 -887 Q 1284 -772 1284 -615 Q 1283 -555 1280 -512 L 434 -512 Q 440 -443 473 -394 Q 506 -345 559 -314 Q 612 -284 683 -270 Q 754 -256 837 -256 M 718 -960 Q 658 -960 611 -945 Q 564 -930 529 -903 Q 495 -877 475 -842 Q 455 -808 448 -768 L 960 -768 Q 960 -808 944 -842 Q 929 -877 899 -903 Q 869 -930 824 -945 Q 779 -960 718 -960 Z"/>
		<path character="S" fill="#EA8872" fill-opacity="1.0" stroke="none" stroke-width="0px" stroke-linecap="butt" stroke-opacity="1.0" transform="matrix(1,0,0,1,9511,0)" d="M 1088 -509 Q 1088 -573 1055 -612 Q 1023 -651 967 -676 Q 912 -701 843 -716 Q 774 -732 698 -747 Q 597 -768 505 -797 Q 414 -827 344 -878 Q 275 -930 233 -1009 Q 192 -1089 192 -1209 Q 192 -1341 239 -1438 Q 287 -1536 368 -1600 Q 450 -1665 561 -1696 Q 673 -1728 813 -1728 Q 954 -1728 1095 -1704 Q 1237 -1681 1340 -1644 L 1340 -1408 Q 1203 -1442 1078 -1457 Q 953 -1472 842 -1472 Q 684 -1472 598 -1416 Q 512 -1361 512 -1251 Q 512 -1188 539 -1146 Q 567 -1105 614 -1078 Q 662 -1052 724 -1036 Q 786 -1020 855 -1006 Q 964 -984 1064 -954 Q 1164 -925 1241 -873 Q 1318 -821 1363 -737 Q 1408 -653 1408 -522 Q 1408 -387 1357 -289 Q 1306 -191 1213 -126 Q 1120 -62 982 -31 Q 845 0 681 0 Q 538 0 399 -24 Q 261 -48 169 -91 L 169 -320 Q 299 -286 422 -271 Q 546 -256 677 -256 Q 753 -256 826 -268 Q 900 -280 958 -308 Q 1017 -337 1052 -386 Q 1088 -436 1088 -509 Z"/>
		<path character="o" fill="#EA8872" fill-opacity="1.0" stroke="none" stroke-width="0px" stroke-linecap="butt" stroke-opacity="1.0" transform="matrix(1,0,0,1,11059,0)" d="M 1088 -608 Q 1088 -694 1064 -760 Q 1040 -826 998 -870 Q 956 -915 896 -937 Q 837 -960 767 -960 Q 698 -960 639 -937 Q 580 -915 538 -870 Q 496 -826 472 -760 Q 448 -694 448 -608 Q 448 -522 472 -456 Q 496 -390 539 -346 Q 582 -302 640 -279 Q 699 -256 769 -256 Q 839 -256 897 -279 Q 956 -302 998 -346 Q 1040 -390 1064 -456 Q 1088 -522 1088 -608 M 1408 -608 Q 1408 -472 1363 -359 Q 1319 -247 1235 -167 Q 1152 -87 1033 -43 Q 915 0 769 0 Q 619 0 500 -43 Q 382 -87 299 -167 Q 216 -247 172 -359 Q 128 -472 128 -608 Q 128 -744 172 -856 Q 217 -969 300 -1049 Q 384 -1129 502 -1172 Q 621 -1216 767 -1216 Q 916 -1216 1035 -1172 Q 1154 -1129 1237 -1049 Q 1320 -969 1364 -856 Q 1408 -744 1408 -608 Z"/>
		<path character="m" fill="#EA8872" fill-opacity="1.0" stroke="none" stroke-width="0px" stroke-linecap="butt" stroke-opacity="1.0" transform="matrix(1,0,0,1,12542,0)" d="M 1792 -713 Q 1792 -751 1789 -783 Q 1787 -816 1780 -840 Q 1766 -893 1723 -926 Q 1681 -959 1604 -960 Q 1563 -960 1519 -950 Q 1476 -940 1433 -921 Q 1390 -903 1351 -876 Q 1312 -850 1280 -817 L 1280 0 L 960 0 L 960 -713 Q 960 -751 957 -783 Q 955 -816 950 -840 Q 937 -893 900 -926 Q 864 -959 796 -960 Q 760 -960 721 -950 Q 683 -940 645 -921 Q 608 -903 574 -876 Q 540 -850 512 -817 L 512 0 L 192 0 L 192 -1216 L 457 -1216 L 487 -1021 L 492 -1021 Q 518 -1058 557 -1093 Q 596 -1129 646 -1156 Q 696 -1183 755 -1199 Q 815 -1216 881 -1216 Q 999 -1216 1093 -1164 Q 1187 -1112 1236 -1002 L 1241 -1002 Q 1279 -1050 1325 -1089 Q 1371 -1128 1427 -1156 Q 1483 -1184 1547 -1200 Q 1612 -1216 1685 -1216 Q 1824 -1215 1918 -1163 Q 2012 -1111 2063 -1020 Q 2076 -997 2085 -969 Q 2095 -942 2101 -907 Q 2107 -873 2109 -831 Q 2112 -790 2112 -736 L 2112 0 L 1792 0 L 1792 -713 Z"/>
		<path character="m" fill="#EA8872" fill-opacity="1.0" stroke="none" stroke-width="0px" stroke-linecap="butt" stroke-opacity="1.0" transform="matrix(1,0,0,1,14858,0)" d="M 1792 -713 Q 1792 -751 1789 -783 Q 1787 -816 1780 -840 Q 1766 -893 1723 -926 Q 1681 -959 1604 -960 Q 1563 -960 1519 -950 Q 1476 -940 1433 -921 Q 1390 -903 1351 -876 Q 1312 -850 1280 -817 L 1280 0 L 960 0 L 960 -713 Q 960 -751 957 -783 Q 955 -816 950 -840 Q 937 -893 900 -926 Q 864 -959 796 -960 Q 760 -960 721 -950 Q 683 -940 645 -921 Q 608 -903 574 -876 Q 540 -850 512 -817 L 512 0 L 192 0 L 192 -1216 L 457 -1216 L 487 -1021 L 492 -1021 Q 518 -1058 557 -1093 Q 596 -1129 646 -1156 Q 696 -1183 755 -1199 Q 815 -1216 881 -1216 Q 999 -1216 1093 -1164 Q 1187 -1112 1236 -1002 L 1241 -1002 Q 1279 -1050 1325 -1089 Q 1371 -1128 1427 -1156 Q 1483 -1184 1547 -1200 Q 1612 -1216 1685 -1216 Q 1824 -1215 1918 -1163 Q 2012 -1111 2063 -1020 Q 2076 -997 2085 -969 Q 2095 -942 2101 -907 Q 2107 -873 2109 -831 Q 2112 -790 2112 -736 L 2112 0 L 1792 0 L 1792 -713 Z"/>
		<path character="e" fill="#EA8872" fill-opacity="1.0" stroke="none" stroke-width="0px" stroke-linecap="butt" stroke-opacity="1.0" transform="matrix(1,0,0,1,17173,0)" d="M 837 -256 Q 927 -256 1025 -272 Q 1124 -289 1225 -320 L 1225 -73 Q 1165 -47 1040 -23 Q 915 0 781 0 Q 646 0 525 -31 Q 405 -63 317 -133 Q 230 -204 179 -316 Q 128 -429 128 -589 Q 128 -747 178 -865 Q 228 -983 312 -1060 Q 396 -1138 504 -1177 Q 613 -1216 728 -1216 Q 849 -1216 951 -1182 Q 1053 -1148 1127 -1075 Q 1201 -1002 1242 -887 Q 1284 -772 1284 -615 Q 1283 -555 1280 -512 L 434 -512 Q 440 -443 473 -394 Q 506 -345 559 -314 Q 612 -284 683 -270 Q 754 -256 837 -256 M 718 -960 Q 658 -960 611 -945 Q 564 -930 529 -903 Q 495 -877 475 -842 Q 455 -808 448 -768 L 960 -768 Q 960 -808 944 -842 Q 929 -877 899 -903 Q 869 -930 824 -945 Q 779 -960 718 -960 Z"/>
		<path character="r" fill="#EA8872" fill-opacity="1.0" stroke="none" stroke-width="0px" stroke-linecap="butt" stroke-opacity="1.0" transform="matrix(1,0,0,1,18593,0)" d="M 957 -960 L 930 -960 Q 787 -960 679 -919 Q 571 -879 512 -795 L 512 0 L 192 0 L 192 -1216 L 457 -1216 L 487 -1021 L 492 -1021 Q 547 -1112 643 -1164 Q 740 -1216 875 -1216 Q 923 -1216 957 -1211 L 957 -960 Z"/>
</g>
</svg>