<svg xmlns="http://www.w3.org/2000/svg" xmlns:xlink="http://www.w3.org/1999/xlink" viewBox="0 0 13080 2797">
<title>Release Sommer</title>
<g transform="matrix(1,0,0,1,0,2752)">
  		<path character="R" fill="#A5834B" fill-opacity="1.0" stroke="none" stroke-width="10px" stroke-linecap="butt" stroke-opacity="1.0" transform="matrix(1,0,0,1,-128,0)" d="M 706 0 Q 609 0 586 -94 L 554 -209 Q 479 -454 444 -625 Q 422 -717 390 -881 Q 353 -1070 360 -1165 L 374 -1136 L 369 -1134 L 374 -148 L 374 -108 Q 374 0 271 0 Q 227 0 197 -29 Q 168 -59 168 -100 L 168 -140 L 173 -681 L 179 -940 Q 189 -1407 189 -1735 L 189 -2079 Q 189 -2158 292 -2158 Q 378 -2158 451 -2112 Q 524 -2066 564 -1989 Q 643 -1845 643 -1674 Q 643 -1540 586 -1386 Q 570 -1343 543 -1285 Q 517 -1227 504 -1226 Q 561 -1050 668 -625 L 792 -150 Q 798 -135 798 -104 Q 798 -68 776 -34 Q 754 0 706 0 M 332 -1278 Q 311 -1307 350 -1350 Q 390 -1394 407 -1421 Q 421 -1450 433 -1520 Q 445 -1590 445 -1644 Q 445 -1746 410 -1855 Q 394 -1912 369 -1940 Q 345 -1968 324 -1968 L 323 -2013 Q 339 -1965 316 -2015 L 332 -1278 Z"/>
		<path character="e" fill="#A5834B" fill-opacity="1.0" stroke="none" stroke-width="10px" stroke-linecap="butt" stroke-opacity="1.0" transform="matrix(1,0,0,1,760,0)" d="M 298 0 Q 201 0 189 -108 L 189 -153 Q 192 -166 208 -163 L 172 -177 Q 203 -256 203 -300 Q 203 -359 195 -473 L 189 -652 Q 189 -788 197 -1057 Q 208 -1294 208 -1458 L 203 -1617 Q 197 -1688 197 -1775 Q 197 -1838 233 -1870 Q 269 -1902 330 -1902 Q 378 -1902 400 -1872 Q 389 -1866 456 -1877 Q 528 -1868 580 -1852 Q 670 -1825 670 -1761 Q 670 -1702 567 -1651 Q 402 -1712 374 -1722 L 392 -1733 Q 393 -1723 393 -1630 Q 393 -1514 387 -1424 Q 385 -1332 385 -1219 Q 367 -1182 367 -1200 L 410 -1200 Q 431 -1200 455 -1200 Q 614 -1200 614 -1112 Q 614 -1069 584 -1039 Q 555 -1010 506 -1010 Q 449 -1010 424 -1027 L 356 -1034 L 359 -1045 L 347 -1072 L 387 -1075 Q 393 -1028 393 -853 Q 393 -744 390 -656 L 387 -460 Q 387 -354 395 -242 Q 397 -202 404 -196 Q 411 -190 455 -190 L 503 -190 Q 527 -190 556 -190 Q 689 -190 689 -101 Q 689 0 516 0 L 298 0 Z"/>
		<path character="l" fill="#A5834B" fill-opacity="1.0" stroke="none" stroke-width="10px" stroke-linecap="butt" stroke-opacity="1.0" transform="matrix(1,0,0,1,1584,0)" d="M 295 0 Q 211 0 194 -109 Q 200 -129 200 -194 Q 200 -442 208 -931 Q 216 -1416 216 -1633 L 221 -1733 L 229 -1813 Q 229 -1884 303 -1884 Q 325 -1884 358 -1873 L 403 -1856 Q 403 -1758 401 -1709 L 401 -1605 L 401 -1311 Q 403 -1181 403 -1012 Q 401 -999 401 -956 L 398 -897 Q 395 -844 395 -789 Q 395 -729 398 -678 L 401 -551 L 338 -539 L 395 -724 Q 395 -517 351 -527 L 393 -520 Q 393 -511 401 -494 L 393 -219 L 393 -203 Q 393 -164 395 -156 Q 354 -149 354 -190 L 492 -190 Q 554 -190 576 -190 Q 599 -190 604 -190 L 612 -190 Q 651 -190 679 -158 Q 707 -126 707 -88 Q 707 0 610 0 Q 564 0 388 -55 L 394 -55 Q 367 0 343 0 Q 322 0 295 0 Z"/>
		<path character="e" fill="#A5834B" fill-opacity="1.0" stroke="none" stroke-width="10px" stroke-linecap="butt" stroke-opacity="1.0" transform="matrix(1,0,0,1,2344,0)" d="M 298 0 Q 201 0 189 -108 L 189 -153 Q 192 -166 208 -163 L 172 -177 Q 203 -256 203 -300 Q 203 -359 195 -473 L 189 -652 Q 189 -788 197 -1057 Q 208 -1294 208 -1458 L 203 -1617 Q 197 -1688 197 -1775 Q 197 -1838 233 -1870 Q 269 -1902 330 -1902 Q 378 -1902 400 -1872 Q 389 -1866 456 -1877 Q 528 -1868 580 -1852 Q 670 -1825 670 -1761 Q 670 -1702 567 -1651 Q 402 -1712 374 -1722 L 392 -1733 Q 393 -1723 393 -1630 Q 393 -1514 387 -1424 Q 385 -1332 385 -1219 Q 367 -1182 367 -1200 L 410 -1200 Q 431 -1200 455 -1200 Q 614 -1200 614 -1112 Q 614 -1069 584 -1039 Q 555 -1010 506 -1010 Q 449 -1010 424 -1027 L 356 -1034 L 359 -1045 L 347 -1072 L 387 -1075 Q 393 -1028 393 -853 Q 393 -744 390 -656 L 387 -460 Q 387 -354 395 -242 Q 397 -202 404 -196 Q 411 -190 455 -190 L 503 -190 Q 527 -190 556 -190 Q 689 -190 689 -101 Q 689 0 516 0 L 298 0 Z"/>
		<path character="a" fill="#A5834B" fill-opacity="1.0" stroke="none" stroke-width="10px" stroke-linecap="butt" stroke-opacity="1.0" transform="matrix(1,0,0,1,3168,0)" d="M 784 0 Q 711 0 685 -23 Q 659 -47 651 -108 Q 627 -309 621 -358 L 613 -430 Q 598 -434 530 -434 L 434 -434 Q 370 -434 340 -434 Q 337 -474 377 -472 Q 377 -413 322 -465 L 369 -413 Q 366 -360 338 -208 Q 324 -126 302 -79 Q 267 0 212 0 Q 177 0 140 -28 Q 104 -57 104 -110 L 109 -124 L 111 -129 Q 158 -317 190 -503 L 222 -668 L 254 -871 Q 254 -871 284 -1048 Q 297 -1121 332 -1281 Q 369 -1461 377 -1532 Q 380 -1539 387 -1622 Q 397 -1726 406 -1775 Q 415 -1857 448 -1902 L 495 -1902 Q 503 -1902 514 -1902 Q 524 -1902 540 -1917 Q 599 -1917 632 -1890 Q 665 -1864 665 -1822 Q 665 -1697 683 -1534 Q 694 -1448 699 -1391 Q 729 -1047 849 -95 L 849 -86 Q 849 -30 784 0 M 623 -594 Q 568 -934 548 -1662 L 458 -964 Q 398 -673 398 -602 Q 357 -602 453 -613 Q 549 -624 623 -624 L 623 -594 Z"/>
		<path character="s" fill="#A5834B" fill-opacity="1.0" stroke="none" stroke-width="10px" stroke-linecap="butt" stroke-opacity="1.0" transform="matrix(1,0,0,1,4120,0)" d="M 276 0 Q 227 0 184 -36 Q 141 -73 134 -144 L 173 -207 Q 220 -207 266 -198 Q 291 -190 300 -190 Q 336 -190 369 -223 Q 402 -256 421 -314 Q 456 -440 456 -553 Q 456 -718 351 -910 Q 282 -1029 243 -1101 Q 204 -1174 174 -1270 Q 136 -1384 136 -1492 Q 136 -1595 188 -1732 Q 217 -1805 274 -1853 Q 331 -1902 402 -1902 Q 454 -1902 506 -1864 Q 558 -1827 558 -1772 Q 558 -1685 468 -1685 Q 437 -1685 407 -1712 Q 412 -1728 412 -1712 Q 395 -1712 375 -1693 Q 356 -1674 344 -1637 Q 315 -1548 315 -1476 Q 315 -1433 328 -1385 Q 330 -1369 333 -1357 Q 337 -1345 316 -1337 L 351 -1294 L 363 -1251 L 382 -1207 Q 388 -1193 396 -1180 Q 405 -1167 414 -1153 L 445 -1099 Q 456 -1084 492 -1022 Q 528 -961 558 -893 Q 587 -835 601 -782 Q 616 -729 627 -657 Q 635 -588 635 -506 Q 635 -372 598 -252 Q 543 -101 435 -39 Q 371 0 290 0 L 276 0 M 487 -1765 Q 487 -1762 490 -1762 L 490 -1765 L 487 -1765 Z"/>
		<path character="e" fill="#A5834B" fill-opacity="1.0" stroke="none" stroke-width="10px" stroke-linecap="butt" stroke-opacity="1.0" transform="matrix(1,0,0,1,4880,0)" d="M 298 0 Q 201 0 189 -108 L 189 -153 Q 192 -166 208 -163 L 172 -177 Q 203 -256 203 -300 Q 203 -359 195 -473 L 189 -652 Q 189 -788 197 -1057 Q 208 -1294 208 -1458 L 203 -1617 Q 197 -1688 197 -1775 Q 197 -1838 233 -1870 Q 269 -1902 330 -1902 Q 378 -1902 400 -1872 Q 389 -1866 456 -1877 Q 528 -1868 580 -1852 Q 670 -1825 670 -1761 Q 670 -1702 567 -1651 Q 402 -1712 374 -1722 L 392 -1733 Q 393 -1723 393 -1630 Q 393 -1514 387 -1424 Q 385 -1332 385 -1219 Q 367 -1182 367 -1200 L 410 -1200 Q 431 -1200 455 -1200 Q 614 -1200 614 -1112 Q 614 -1069 584 -1039 Q 555 -1010 506 -1010 Q 449 -1010 424 -1027 L 356 -1034 L 359 -1045 L 347 -1072 L 387 -1075 Q 393 -1028 393 -853 Q 393 -744 390 -656 L 387 -460 Q 387 -354 395 -242 Q 397 -202 404 -196 Q 411 -190 455 -190 L 503 -190 Q 527 -190 556 -190 Q 689 -190 689 -101 Q 689 0 516 0 L 298 0 Z"/>
		<path character="S" fill="#A5834B" fill-opacity="1.0" stroke="none" stroke-width="10px" stroke-linecap="butt" stroke-opacity="1.0" transform="matrix(1,0,0,1,6161,0)" d="M 362 64 Q 308 64 275 57 Q 243 50 205 28 Q 158 -3 131 -68 Q 131 -166 215 -166 Q 255 -166 313 -142 Q 345 -126 362 -126 Q 398 -126 434 -162 Q 471 -198 494 -264 Q 544 -408 544 -517 Q 544 -641 508 -769 Q 473 -898 413 -1012 Q 401 -1041 369 -1100 Q 301 -1235 265 -1312 Q 230 -1390 202 -1485 Q 163 -1614 163 -1761 Q 163 -1859 194 -1951 Q 226 -2044 297 -2113 Q 380 -2190 484 -2190 Q 534 -2190 598 -2143 Q 662 -2097 662 -2037 Q 662 -1961 591 -1961 Q 558 -1961 515 -1991 Q 504 -2000 503 -2000 Q 464 -2000 430 -1966 Q 396 -1933 379 -1879 Q 363 -1830 363 -1771 Q 363 -1673 388 -1566 Q 414 -1460 457 -1367 L 550 -1171 L 577 -1115 Q 633 -996 665 -918 Q 697 -840 720 -741 Q 750 -608 750 -485 Q 750 -316 664 -142 Q 618 -51 539 6 Q 460 64 362 64 Z"/>
		<path character="o" fill="#A5834B" fill-opacity="1.0" stroke="none" stroke-width="10px" stroke-linecap="butt" stroke-opacity="1.0" transform="matrix(1,0,0,1,7113,0)" d="M 524 32 Q 157 32 157 -1007 L 157 -1101 Q 157 -1902 404 -1902 Q 427 -1902 460 -1891 Q 539 -1864 619 -1856 Q 696 -1839 759 -1724 Q 819 -1620 848 -1455 Q 878 -1290 878 -1110 L 873 -1096 Q 873 -1019 875 -949 L 878 -789 Q 878 -649 867 -537 Q 850 -365 811 -239 Q 785 -159 749 -103 Q 714 -48 660 -11 Q 605 32 524 32 M 514 -158 Q 579 -158 616 -267 Q 665 -409 675 -556 Q 685 -713 685 -807 Q 685 -911 669 -1116 Q 656 -1350 656 -1420 L 639 -1453 L 651 -1480 Q 651 -1572 599 -1642 Q 547 -1712 482 -1712 Q 404 -1712 389 -1635 Q 385 -1597 379 -1522 Q 379 -1322 363 -1250 Q 363 -1213 355 -1127 L 350 -1005 Q 350 -950 353 -905 L 355 -797 Q 355 -675 377 -516 Q 392 -400 411 -324 Q 431 -248 466 -197 Q 490 -158 514 -158 Z"/>
		<path character="m" fill="#A5834B" fill-opacity="1.0" stroke="none" stroke-width="10px" stroke-linecap="butt" stroke-opacity="1.0" transform="matrix(1,0,0,1,8129,0)" d="M 1300 127 Q 1192 127 1192 -99 L 1192 -276 Q 1192 -659 1176 -874 L 1168 -969 Q 1157 -1039 1157 -1094 Q 1157 -1187 1163 -1263 L 1168 -1427 Q 1168 -1502 1194 -1502 Q 1207 -1481 945 -422 L 942 -385 Q 933 -312 919 -268 Q 907 -227 879 -197 Q 852 -168 810 -168 Q 742 -168 708 -207 Q 675 -246 675 -311 Q 675 -376 608 -672 Q 541 -969 464 -1238 Q 387 -1507 423 -1523 Q 459 -1470 441 -1123 Q 403 -512 403 -164 L 406 -49 Q 380 32 295 32 Q 268 32 231 3 Q 195 -25 195 -60 Q 195 -301 237 -904 Q 277 -1461 277 -1738 Q 277 -1746 275 -1751 Q 264 -1778 264 -1799 Q 264 -1902 388 -1902 Q 480 -1902 496 -1810 Q 507 -1743 507 -1711 L 510 -1684 Q 521 -1624 582 -1486 Q 635 -1369 663 -1279 Q 679 -1216 692 -1177 Q 736 -1019 748 -950 L 782 -881 Q 792 -835 815 -746 Q 840 -643 851 -575 Q 862 -508 823 -500 Q 785 -514 921 -1016 Q 1057 -1518 1083 -1666 Q 1112 -1661 1099 -1670 Q 1086 -1679 1089 -1696 Q 1094 -1734 1115 -1810 Q 1150 -1902 1231 -1902 Q 1267 -1902 1310 -1872 Q 1353 -1843 1353 -1798 Q 1353 -683 1387 -618 L 1387 -464 Q 1385 -403 1385 -324 Q 1385 -160 1357 -74 Q 1399 -100 1403 -84 Q 1407 -69 1409 -61 Q 1414 -43 1414 -23 Q 1414 23 1385 75 Q 1356 127 1300 127 M 1210 -1549 L 1212 -1539 L 1210 -1549 L 1209 -1551 L 1210 -1549 Z"/>
		<path character="m" fill="#A5834B" fill-opacity="1.0" stroke="none" stroke-width="10px" stroke-linecap="butt" stroke-opacity="1.0" transform="matrix(1,0,0,1,9785,0)" d="M 1300 127 Q 1192 127 1192 -99 L 1192 -276 Q 1192 -659 1176 -874 L 1168 -969 Q 1157 -1039 1157 -1094 Q 1157 -1187 1163 -1263 L 1168 -1427 Q 1168 -1502 1194 -1502 Q 1207 -1481 945 -422 L 942 -385 Q 933 -312 919 -268 Q 907 -227 879 -197 Q 852 -168 810 -168 Q 742 -168 708 -207 Q 675 -246 675 -311 Q 675 -376 608 -672 Q 541 -969 464 -1238 Q 387 -1507 423 -1523 Q 459 -1470 441 -1123 Q 403 -512 403 -164 L 406 -49 Q 380 32 295 32 Q 268 32 231 3 Q 195 -25 195 -60 Q 195 -301 237 -904 Q 277 -1461 277 -1738 Q 277 -1746 275 -1751 Q 264 -1778 264 -1799 Q 264 -1902 388 -1902 Q 480 -1902 496 -1810 Q 507 -1743 507 -1711 L 510 -1684 Q 521 -1624 582 -1486 Q 635 -1369 663 -1279 Q 679 -1216 692 -1177 Q 736 -1019 748 -950 L 782 -881 Q 792 -835 815 -746 Q 840 -643 851 -575 Q 862 -508 823 -500 Q 785 -514 921 -1016 Q 1057 -1518 1083 -1666 Q 1112 -1661 1099 -1670 Q 1086 -1679 1089 -1696 Q 1094 -1734 1115 -1810 Q 1150 -1902 1231 -1902 Q 1267 -1902 1310 -1872 Q 1353 -1843 1353 -1798 Q 1353 -683 1387 -618 L 1387 -464 Q 1385 -403 1385 -324 Q 1385 -160 1357 -74 Q 1399 -100 1403 -84 Q 1407 -69 1409 -61 Q 1414 -43 1414 -23 Q 1414 23 1385 75 Q 1356 127 1300 127 M 1210 -1549 L 1212 -1539 L 1210 -1549 L 1209 -1551 L 1210 -1549 Z"/>
		<path character="e" fill="#A5834B" fill-opacity="1.0" stroke="none" stroke-width="10px" stroke-linecap="butt" stroke-opacity="1.0" transform="matrix(1,0,0,1,11441,0)" d="M 298 0 Q 201 0 189 -108 L 189 -153 Q 192 -166 208 -163 L 172 -177 Q 203 -256 203 -300 Q 203 -359 195 -473 L 189 -652 Q 189 -788 197 -1057 Q 208 -1294 208 -1458 L 203 -1617 Q 197 -1688 197 -1775 Q 197 -1838 233 -1870 Q 269 -1902 330 -1902 Q 378 -1902 400 -1872 Q 389 -1866 456 -1877 Q 528 -1868 580 -1852 Q 670 -1825 670 -1761 Q 670 -1702 567 -1651 Q 402 -1712 374 -1722 L 392 -1733 Q 393 -1723 393 -1630 Q 393 -1514 387 -1424 Q 385 -1332 385 -1219 Q 367 -1182 367 -1200 L 410 -1200 Q 431 -1200 455 -1200 Q 614 -1200 614 -1112 Q 614 -1069 584 -1039 Q 555 -1010 506 -1010 Q 449 -1010 424 -1027 L 356 -1034 L 359 -1045 L 347 -1072 L 387 -1075 Q 393 -1028 393 -853 Q 393 -744 390 -656 L 387 -460 Q 387 -354 395 -242 Q 397 -202 404 -196 Q 411 -190 455 -190 L 503 -190 Q 527 -190 556 -190 Q 689 -190 689 -101 Q 689 0 516 0 L 298 0 Z"/>
		<path character="r" fill="#A5834B" fill-opacity="1.0" stroke="none" stroke-width="10px" stroke-linecap="butt" stroke-opacity="1.0" transform="matrix(1,0,0,1,12264,0)" d="M 624 11 Q 573 -44 533 -201 Q 494 -358 462 -547 Q 441 -696 402 -842 Q 394 -952 394 -934 L 386 -934 Q 364 -952 382 -952 Q 382 -763 403 -378 Q 414 -148 431 -94 L 385 0 L 294 0 L 238 -48 Q 195 -1299 195 -1746 Q 195 -1781 201 -1808 Q 207 -1836 226 -1859 Q 250 -1902 308 -1902 Q 463 -1902 564 -1820 Q 665 -1739 665 -1587 L 665 -1392 Q 665 -1331 629 -1239 Q 593 -1147 551 -1072 L 526 -1023 Q 552 -907 638 -557 Q 724 -207 689 -177 Q 728 -203 734 -186 Q 740 -169 751 -151 Q 777 -100 777 -60 Q 777 32 683 32 L 624 11 M 348 -1071 Q 364 -1109 392 -1145 Q 421 -1181 442 -1249 Q 483 -1402 483 -1490 Q 483 -1546 477 -1581 Q 471 -1616 456 -1657 Q 437 -1712 356 -1712 Q 356 -1749 369 -1731 Q 382 -1713 382 -1698 Q 382 -1523 387 -1381 Q 390 -1238 357 -1068 L 348 -1071 Z"/>
</g>
</svg>