<svg xmlns="http://www.w3.org/2000/svg" xmlns:xlink="http://www.w3.org/1999/xlink" viewBox="0 0 11637 3597">
<title>Release Sommer</title>
<g transform="matrix(1,0,0,1,0,2752)">
  		<path character="R" fill="#EA8872" fill-opacity="1.0" stroke="none" stroke-width="10px" stroke-linecap="butt" stroke-opacity="1.0" transform="matrix(1,0,0,1,-128,0)" d="M 651 0 Q 597 0 584 -53 L 552 -169 Q 477 -413 443 -582 Q 421 -674 389 -837 Q 352 -1027 320 -1146 L 293 -1130 L 259 -1114 L 264 -93 L 264 -53 Q 264 0 216 0 Q 195 0 181 -13 Q 168 -27 168 -45 L 168 -85 L 173 -625 L 179 -884 Q 189 -1351 189 -1680 L 189 -2024 Q 189 -2048 237 -2048 Q 307 -2048 367 -2010 Q 427 -1972 461 -1908 Q 533 -1776 533 -1619 Q 533 -1495 480 -1350 Q 464 -1309 440 -1256 Q 416 -1204 397 -1185 Q 453 -981 560 -556 L 685 -78 Q 688 -70 688 -49 Q 688 -29 678 -14 Q 669 0 651 0 M 256 -1202 Q 277 -1202 328 -1253 Q 379 -1305 400 -1340 Q 419 -1378 432 -1454 Q 445 -1530 445 -1589 Q 445 -1700 408 -1816 Q 389 -1884 352 -1926 Q 315 -1968 269 -1968 L 264 -1968 Q 261 -1965 256 -1965 L 256 -1202 Z"/>
		<path character="e" fill="#EA8872" fill-opacity="1.0" stroke="none" stroke-width="10px" stroke-linecap="butt" stroke-opacity="1.0" transform="matrix(1,0,0,1,649,0)" d="M 243 0 Q 195 0 189 -56 L 189 -92 Q 192 -105 192 -124 L 181 -135 Q 203 -191 203 -245 Q 203 -306 195 -421 L 189 -598 Q 189 -732 197 -1000 Q 208 -1238 208 -1404 L 203 -1565 Q 197 -1635 197 -1720 Q 197 -1758 216 -1775 Q 235 -1792 275 -1792 Q 301 -1792 317 -1777 Q 323 -1774 395 -1767 Q 461 -1759 509 -1744 Q 560 -1729 560 -1706 Q 560 -1681 509 -1656 Q 357 -1712 293 -1712 L 280 -1689 Q 283 -1665 283 -1575 Q 283 -1461 277 -1371 Q 275 -1278 275 -1164 Q 275 -1090 312 -1090 L 355 -1090 Q 376 -1090 400 -1090 Q 504 -1090 504 -1057 Q 504 -1037 490 -1023 Q 477 -1010 451 -1010 Q 411 -1010 389 -1025 L 304 -1034 L 291 -1034 L 277 -1025 L 277 -1017 Q 283 -970 283 -798 Q 283 -690 280 -602 L 277 -405 Q 277 -297 285 -184 Q 288 -121 312 -100 Q 336 -80 400 -80 L 448 -80 Q 472 -80 501 -80 Q 579 -80 579 -46 Q 579 0 461 0 L 243 0 Z"/>
		<path character="l" fill="#EA8872" fill-opacity="1.0" stroke="none" stroke-width="10px" stroke-linecap="butt" stroke-opacity="1.0" transform="matrix(1,0,0,1,1362,0)" d="M 240 0 Q 203 0 195 -50 Q 200 -66 200 -139 Q 200 -387 208 -875 Q 216 -1361 216 -1577 L 221 -1674 L 229 -1755 Q 229 -1774 248 -1774 Q 261 -1774 285 -1766 L 293 -1763 Q 293 -1704 291 -1655 L 291 -1550 L 291 -1256 Q 293 -1126 293 -961 Q 291 -948 291 -902 L 288 -845 Q 285 -791 285 -734 Q 285 -672 288 -621 L 291 -505 L 283 -484 L 285 -487 Q 285 -479 283 -476 L 283 -465 Q 283 -443 291 -427 L 283 -165 L 283 -148 Q 283 -102 285 -94 Q 285 -80 299 -80 L 437 -80 Q 499 -80 521 -80 Q 544 -80 549 -80 L 557 -80 Q 571 -80 584 -65 Q 597 -50 597 -33 Q 597 0 555 0 Q 509 0 333 0 L 339 0 Q 312 0 288 0 Q 267 0 240 0 Z"/>
		<path character="e" fill="#EA8872" fill-opacity="1.0" stroke="none" stroke-width="10px" stroke-linecap="butt" stroke-opacity="1.0" transform="matrix(1,0,0,1,2011,0)" d="M 243 0 Q 195 0 189 -56 L 189 -92 Q 192 -105 192 -124 L 181 -135 Q 203 -191 203 -245 Q 203 -306 195 -421 L 189 -598 Q 189 -732 197 -1000 Q 208 -1238 208 -1404 L 203 -1565 Q 197 -1635 197 -1720 Q 197 -1758 216 -1775 Q 235 -1792 275 -1792 Q 301 -1792 317 -1777 Q 323 -1774 395 -1767 Q 461 -1759 509 -1744 Q 560 -1729 560 -1706 Q 560 -1681 509 -1656 Q 357 -1712 293 -1712 L 280 -1689 Q 283 -1665 283 -1575 Q 283 -1461 277 -1371 Q 275 -1278 275 -1164 Q 275 -1090 312 -1090 L 355 -1090 Q 376 -1090 400 -1090 Q 504 -1090 504 -1057 Q 504 -1037 490 -1023 Q 477 -1010 451 -1010 Q 411 -1010 389 -1025 L 304 -1034 L 291 -1034 L 277 -1025 L 277 -1017 Q 283 -970 283 -798 Q 283 -690 280 -602 L 277 -405 Q 277 -297 285 -184 Q 288 -121 312 -100 Q 336 -80 400 -80 L 448 -80 Q 472 -80 501 -80 Q 579 -80 579 -46 Q 579 0 461 0 L 243 0 Z"/>
		<path character="a" fill="#EA8872" fill-opacity="1.0" stroke="none" stroke-width="10px" stroke-linecap="butt" stroke-opacity="1.0" transform="matrix(1,0,0,1,2724,0)" d="M 717 0 Q 677 0 666 -9 Q 656 -19 651 -60 Q 627 -261 621 -310 L 608 -420 Q 549 -434 475 -434 L 379 -434 Q 315 -434 285 -434 Q 269 -434 267 -421 Q 267 -413 264 -413 L 259 -362 Q 256 -312 229 -163 Q 216 -88 197 -47 Q 176 0 157 0 Q 141 0 122 -14 Q 104 -29 104 -45 L 107 -53 L 109 -61 Q 157 -251 189 -438 L 221 -604 L 253 -807 Q 253 -807 283 -983 Q 296 -1055 331 -1215 Q 368 -1397 376 -1464 Q 379 -1472 387 -1562 Q 397 -1664 405 -1712 Q 413 -1781 421 -1792 L 440 -1792 Q 448 -1792 459 -1792 Q 491 -1792 507 -1807 Q 525 -1807 540 -1795 Q 555 -1783 555 -1767 Q 555 -1639 573 -1473 Q 584 -1387 589 -1331 Q 619 -986 739 -37 L 739 -31 Q 739 -10 717 0 M 595 -514 Q 568 -884 493 -1607 L 349 -920 Q 288 -624 288 -547 Q 288 -534 389 -524 Q 491 -514 568 -514 L 595 -514 Z"/>
		<path character="s" fill="#EA8872" fill-opacity="1.0" stroke="none" stroke-width="10px" stroke-linecap="butt" stroke-opacity="1.0" transform="matrix(1,0,0,1,3565,0)" d="M 221 0 Q 192 0 165 -22 Q 139 -45 136 -76 L 149 -97 Q 160 -97 197 -90 Q 227 -80 245 -80 Q 304 -80 349 -125 Q 395 -171 419 -243 Q 456 -378 456 -498 Q 456 -677 344 -882 Q 275 -1001 237 -1071 Q 200 -1141 171 -1232 Q 136 -1338 136 -1437 Q 136 -1530 184 -1657 Q 208 -1717 252 -1754 Q 296 -1792 347 -1792 Q 381 -1792 414 -1768 Q 448 -1744 448 -1717 Q 448 -1685 413 -1685 Q 403 -1685 387 -1699 Q 371 -1712 357 -1712 Q 317 -1712 285 -1680 Q 253 -1649 237 -1599 Q 205 -1502 205 -1421 Q 205 -1371 219 -1319 Q 221 -1303 224 -1292 Q 227 -1282 227 -1277 L 243 -1224 L 256 -1177 L 277 -1130 Q 285 -1112 294 -1097 Q 304 -1083 312 -1070 L 344 -1015 Q 355 -999 389 -940 Q 424 -881 453 -815 Q 480 -760 493 -711 Q 507 -663 517 -595 Q 525 -530 525 -451 Q 525 -325 491 -215 Q 443 -84 352 -31 Q 301 0 235 0 L 221 0 M 435 -1707 Q 435 -1710 432 -1710 L 432 -1707 L 435 -1707 Z"/>
		<path character="e" fill="#EA8872" fill-opacity="1.0" stroke="none" stroke-width="10px" stroke-linecap="butt" stroke-opacity="1.0" transform="matrix(1,0,0,1,4214,0)" d="M 243 0 Q 195 0 189 -56 L 189 -92 Q 192 -105 192 -124 L 181 -135 Q 203 -191 203 -245 Q 203 -306 195 -421 L 189 -598 Q 189 -732 197 -1000 Q 208 -1238 208 -1404 L 203 -1565 Q 197 -1635 197 -1720 Q 197 -1758 216 -1775 Q 235 -1792 275 -1792 Q 301 -1792 317 -1777 Q 323 -1774 395 -1767 Q 461 -1759 509 -1744 Q 560 -1729 560 -1706 Q 560 -1681 509 -1656 Q 357 -1712 293 -1712 L 280 -1689 Q 283 -1665 283 -1575 Q 283 -1461 277 -1371 Q 275 -1278 275 -1164 Q 275 -1090 312 -1090 L 355 -1090 Q 376 -1090 400 -1090 Q 504 -1090 504 -1057 Q 504 -1037 490 -1023 Q 477 -1010 451 -1010 Q 411 -1010 389 -1025 L 304 -1034 L 291 -1034 L 277 -1025 L 277 -1017 Q 283 -970 283 -798 Q 283 -690 280 -602 L 277 -405 Q 277 -297 285 -184 Q 288 -121 312 -100 Q 336 -80 400 -80 L 448 -80 Q 472 -80 501 -80 Q 579 -80 579 -46 Q 579 0 461 0 L 243 0 Z"/>
		<path character="S" fill="#EA8872" fill-opacity="1.0" stroke="none" stroke-width="10px" stroke-linecap="butt" stroke-opacity="1.0" transform="matrix(1,0,0,1,5384,0)" d="M 307 64 Q 259 64 233 58 Q 208 53 179 36 Q 147 15 131 -24 Q 131 -56 160 -56 Q 189 -56 235 -37 Q 277 -16 307 -16 Q 365 -16 414 -64 Q 464 -113 491 -191 Q 544 -344 544 -462 Q 544 -594 506 -728 Q 469 -863 408 -981 Q 395 -1010 363 -1070 Q 296 -1204 261 -1279 Q 227 -1354 200 -1446 Q 163 -1567 163 -1706 Q 163 -1795 191 -1877 Q 219 -1959 280 -2018 Q 347 -2080 429 -2080 Q 461 -2080 506 -2047 Q 552 -2014 552 -1982 Q 552 -1961 536 -1961 Q 520 -1961 493 -1980 Q 469 -2000 448 -2000 Q 387 -2000 340 -1954 Q 293 -1908 272 -1841 Q 253 -1784 253 -1716 Q 253 -1611 280 -1499 Q 307 -1387 352 -1289 L 445 -1092 L 472 -1036 Q 528 -919 558 -843 Q 589 -768 611 -674 Q 640 -547 640 -430 Q 640 -274 560 -112 Q 520 -33 453 15 Q 387 64 307 64 Z"/>
		<path character="o" fill="#EA8872" fill-opacity="1.0" stroke="none" stroke-width="10px" stroke-linecap="butt" stroke-opacity="1.0" transform="matrix(1,0,0,1,6225,0)" d="M 469 32 Q 157 32 157 -952 L 157 -1046 Q 157 -1792 349 -1792 Q 363 -1792 387 -1784 Q 472 -1755 555 -1747 Q 605 -1736 656 -1642 Q 712 -1546 740 -1388 Q 768 -1230 768 -1065 L 763 -1051 Q 763 -963 765 -893 L 768 -733 Q 768 -597 757 -487 Q 741 -321 704 -201 Q 680 -128 649 -80 Q 619 -32 573 0 Q 531 32 469 32 M 459 -48 Q 563 -48 613 -194 Q 664 -343 675 -497 Q 685 -656 685 -752 Q 685 -858 669 -1065 Q 656 -1297 656 -1379 L 645 -1400 L 651 -1414 Q 651 -1535 585 -1623 Q 520 -1712 427 -1712 Q 304 -1712 280 -1589 Q 275 -1547 269 -1469 Q 269 -1273 253 -1201 Q 253 -1161 245 -1076 L 240 -951 Q 240 -893 243 -848 L 245 -741 Q 245 -616 267 -454 Q 283 -335 304 -252 Q 325 -170 365 -112 Q 405 -48 459 -48 Z"/>
		<path character="m" fill="#EA8872" fill-opacity="1.0" stroke="none" stroke-width="10px" stroke-linecap="butt" stroke-opacity="1.0" transform="matrix(1,0,0,1,7130,0)" d="M 1245 127 Q 1192 127 1192 -44 L 1192 -221 Q 1192 -606 1176 -823 L 1168 -921 Q 1157 -988 1157 -1039 Q 1157 -1130 1163 -1205 L 1168 -1371 Q 1168 -1454 1157 -1496 Q 1104 -1459 835 -376 L 832 -335 Q 824 -269 811 -229 Q 803 -200 788 -184 Q 773 -168 755 -168 Q 712 -168 693 -189 Q 675 -211 675 -256 Q 675 -327 607 -627 Q 539 -928 460 -1204 Q 381 -1481 352 -1510 Q 349 -1417 331 -1071 Q 293 -459 293 -108 L 296 -2 Q 285 32 240 32 Q 232 32 213 17 Q 195 3 195 -5 Q 195 -244 237 -845 Q 277 -1404 277 -1683 Q 277 -1699 272 -1715 Q 264 -1734 264 -1744 Q 264 -1792 333 -1792 Q 379 -1792 387 -1746 Q 397 -1684 397 -1653 L 400 -1621 Q 413 -1552 477 -1409 Q 528 -1294 555 -1209 Q 571 -1146 584 -1106 Q 627 -952 640 -877 L 675 -808 Q 683 -768 707 -678 Q 731 -577 741 -513 Q 752 -449 752 -391 Q 781 -437 918 -944 Q 1056 -1451 1080 -1592 Q 1083 -1597 1084 -1606 Q 1085 -1616 1088 -1632 Q 1093 -1668 1112 -1738 Q 1133 -1792 1176 -1792 Q 1195 -1792 1219 -1775 Q 1243 -1759 1243 -1743 Q 1243 -614 1277 -549 L 1277 -410 Q 1275 -349 1275 -269 Q 1275 -99 1293 -13 Q 1296 -11 1297 -5 Q 1299 0 1301 8 Q 1304 19 1304 32 Q 1304 64 1286 95 Q 1269 127 1245 127 M 1157 -1496 L 1155 -1496 L 1149 -1494 L 1157 -1491 L 1157 -1496 Z"/>
		<path character="m" fill="#EA8872" fill-opacity="1.0" stroke="none" stroke-width="10px" stroke-linecap="butt" stroke-opacity="1.0" transform="matrix(1,0,0,1,8675,0)" d="M 1245 127 Q 1192 127 1192 -44 L 1192 -221 Q 1192 -606 1176 -823 L 1168 -921 Q 1157 -988 1157 -1039 Q 1157 -1130 1163 -1205 L 1168 -1371 Q 1168 -1454 1157 -1496 Q 1104 -1459 835 -376 L 832 -335 Q 824 -269 811 -229 Q 803 -200 788 -184 Q 773 -168 755 -168 Q 712 -168 693 -189 Q 675 -211 675 -256 Q 675 -327 607 -627 Q 539 -928 460 -1204 Q 381 -1481 352 -1510 Q 349 -1417 331 -1071 Q 293 -459 293 -108 L 296 -2 Q 285 32 240 32 Q 232 32 213 17 Q 195 3 195 -5 Q 195 -244 237 -845 Q 277 -1404 277 -1683 Q 277 -1699 272 -1715 Q 264 -1734 264 -1744 Q 264 -1792 333 -1792 Q 379 -1792 387 -1746 Q 397 -1684 397 -1653 L 400 -1621 Q 413 -1552 477 -1409 Q 528 -1294 555 -1209 Q 571 -1146 584 -1106 Q 627 -952 640 -877 L 675 -808 Q 683 -768 707 -678 Q 731 -577 741 -513 Q 752 -449 752 -391 Q 781 -437 918 -944 Q 1056 -1451 1080 -1592 Q 1083 -1597 1084 -1606 Q 1085 -1616 1088 -1632 Q 1093 -1668 1112 -1738 Q 1133 -1792 1176 -1792 Q 1195 -1792 1219 -1775 Q 1243 -1759 1243 -1743 Q 1243 -614 1277 -549 L 1277 -410 Q 1275 -349 1275 -269 Q 1275 -99 1293 -13 Q 1296 -11 1297 -5 Q 1299 0 1301 8 Q 1304 19 1304 32 Q 1304 64 1286 95 Q 1269 127 1245 127 M 1157 -1496 L 1155 -1496 L 1149 -1494 L 1157 -1491 L 1157 -1496 Z"/>
		<path character="e" fill="#EA8872" fill-opacity="1.0" stroke="none" stroke-width="10px" stroke-linecap="butt" stroke-opacity="1.0" transform="matrix(1,0,0,1,10220,0)" d="M 243 0 Q 195 0 189 -56 L 189 -92 Q 192 -105 192 -124 L 181 -135 Q 203 -191 203 -245 Q 203 -306 195 -421 L 189 -598 Q 189 -732 197 -1000 Q 208 -1238 208 -1404 L 203 -1565 Q 197 -1635 197 -1720 Q 197 -1758 216 -1775 Q 235 -1792 275 -1792 Q 301 -1792 317 -1777 Q 323 -1774 395 -1767 Q 461 -1759 509 -1744 Q 560 -1729 560 -1706 Q 560 -1681 509 -1656 Q 357 -1712 293 -1712 L 280 -1689 Q 283 -1665 283 -1575 Q 283 -1461 277 -1371 Q 275 -1278 275 -1164 Q 275 -1090 312 -1090 L 355 -1090 Q 376 -1090 400 -1090 Q 504 -1090 504 -1057 Q 504 -1037 490 -1023 Q 477 -1010 451 -1010 Q 411 -1010 389 -1025 L 304 -1034 L 291 -1034 L 277 -1025 L 277 -1017 Q 283 -970 283 -798 Q 283 -690 280 -602 L 277 -405 Q 277 -297 285 -184 Q 288 -121 312 -100 Q 336 -80 400 -80 L 448 -80 Q 472 -80 501 -80 Q 579 -80 579 -46 Q 579 0 461 0 L 243 0 Z"/>
		<path character="r" fill="#EA8872" fill-opacity="1.0" stroke="none" stroke-width="10px" stroke-linecap="butt" stroke-opacity="1.0" transform="matrix(1,0,0,1,10932,0)" d="M 600 19 Q 568 -16 530 -165 Q 493 -314 461 -500 Q 440 -652 400 -801 Q 368 -934 339 -934 L 331 -934 Q 272 -934 272 -897 Q 272 -707 293 -320 Q 304 -83 317 -43 L 296 0 L 259 0 L 237 -19 Q 195 -1245 195 -1691 Q 195 -1720 199 -1738 Q 203 -1757 216 -1773 Q 227 -1792 253 -1792 Q 389 -1792 472 -1725 Q 555 -1658 555 -1532 L 555 -1337 Q 555 -1286 521 -1200 Q 488 -1115 448 -1043 L 413 -976 Q 443 -840 529 -488 Q 616 -136 624 -114 Q 627 -112 631 -101 Q 635 -90 648 -69 Q 667 -32 667 -5 Q 667 32 637 32 L 600 19 M 285 -999 Q 336 -999 376 -1049 Q 416 -1100 440 -1179 Q 483 -1340 483 -1435 Q 483 -1496 476 -1535 Q 469 -1575 453 -1620 Q 421 -1712 301 -1712 Q 288 -1712 280 -1689 Q 272 -1667 272 -1643 Q 272 -1467 277 -1324 Q 280 -1182 280 -1005 L 285 -999 Z"/>
</g>
</svg>