<svg xmlns="http://www.w3.org/2000/svg" xmlns:xlink="http://www.w3.org/1999/xlink" viewBox="0 0 27212 3092">
<title>Support my Work</title>
<g transform="matrix(1,0,0,1,0,2816)">
  		<path character="S" fill="#A5834B" fill-opacity="1.0" stroke="none" stroke-width="10px" stroke-linecap="butt" stroke-opacity="1.0" transform="matrix(1,0,0,1,0,0)" d="M 935 32 Q 674 32 440 -9 Q 207 -51 45 -120 L 45 -723 L 742 -723 Q 742 -603 764 -580 Q 786 -557 860 -557 Q 925 -557 942 -570 Q 960 -583 960 -607 Q 960 -627 938 -647 Q 916 -667 841 -696 L 612 -780 Q 302 -902 161 -1072 Q 21 -1243 21 -1532 Q 21 -1884 245 -2069 Q 470 -2254 972 -2254 Q 1210 -2254 1422 -2206 Q 1634 -2159 1793 -2061 L 1793 -1490 L 1149 -1490 Q 1149 -1632 1039 -1632 Q 974 -1632 960 -1623 Q 947 -1615 947 -1595 Q 947 -1578 971 -1561 Q 995 -1544 1076 -1516 L 1308 -1435 Q 1606 -1332 1746 -1162 Q 1886 -993 1886 -721 Q 1886 -349 1640 -158 Q 1394 32 935 32 Z"/>
		<path character="u" fill="#A5834B" fill-opacity="1.0" stroke="none" stroke-width="10px" stroke-linecap="butt" stroke-opacity="1.0" transform="matrix(1,0,0,1,1920,0)" d="M 1913 -589 L 1913 0 L 1072 0 L 1072 -115 Q 963 32 647 32 Q 400 32 274 -117 Q 149 -266 149 -515 L 149 -993 L 32 -993 L 32 -1582 L 873 -1582 L 873 -696 Q 873 -635 895 -612 Q 918 -589 972 -589 Q 1029 -589 1050 -608 Q 1072 -628 1072 -678 L 1072 -993 L 928 -993 L 928 -1582 L 1796 -1582 L 1796 -589 L 1913 -589 Z"/>
		<path character="p" fill="#A5834B" fill-opacity="1.0" stroke="none" stroke-width="10px" stroke-linecap="butt" stroke-opacity="1.0" transform="matrix(1,0,0,1,3903,0)" d="M 37 -13 L 155 -13 L 155 -993 L 37 -993 L 37 -1582 L 878 -1582 L 860 -1440 Q 851 -1458 967 -1536 Q 1083 -1614 1236 -1614 Q 1538 -1614 1688 -1395 Q 1838 -1176 1838 -791 Q 1838 -406 1688 -187 Q 1538 32 1236 32 Q 1085 32 969 -36 Q 854 -104 861 -123 L 878 -13 L 1062 -13 L 1062 576 L 37 576 L 37 -13 M 978 -527 Q 1032 -527 1054 -550 Q 1077 -573 1077 -634 L 1077 -886 Q 1077 -947 1054 -970 Q 1032 -993 978 -993 Q 923 -993 900 -970 Q 878 -947 878 -886 L 878 -634 Q 878 -573 900 -550 Q 923 -527 978 -527 Z"/>
		<path character="p" fill="#A5834B" fill-opacity="1.0" stroke="none" stroke-width="10px" stroke-linecap="butt" stroke-opacity="1.0" transform="matrix(1,0,0,1,5759,0)" d="M 37 -13 L 155 -13 L 155 -993 L 37 -993 L 37 -1582 L 878 -1582 L 860 -1440 Q 851 -1458 967 -1536 Q 1083 -1614 1236 -1614 Q 1538 -1614 1688 -1395 Q 1838 -1176 1838 -791 Q 1838 -406 1688 -187 Q 1538 32 1236 32 Q 1085 32 969 -36 Q 854 -104 861 -123 L 878 -13 L 1062 -13 L 1062 576 L 37 576 L 37 -13 M 978 -527 Q 1032 -527 1054 -550 Q 1077 -573 1077 -634 L 1077 -886 Q 1077 -947 1054 -970 Q 1032 -993 978 -993 Q 923 -993 900 -970 Q 878 -947 878 -886 L 878 -634 Q 878 -573 900 -550 Q 923 -527 978 -527 Z"/>
		<path character="o" fill="#A5834B" fill-opacity="1.0" stroke="none" stroke-width="10px" stroke-linecap="butt" stroke-opacity="1.0" transform="matrix(1,0,0,1,7615,0)" d="M 898 32 Q 498 32 267 -179 Q 37 -391 37 -791 Q 37 -1191 267 -1402 Q 498 -1614 898 -1614 Q 1304 -1614 1531 -1400 Q 1758 -1186 1758 -791 Q 1758 -391 1527 -179 Q 1297 32 898 32 M 898 -557 Q 952 -557 974 -580 Q 997 -603 997 -664 L 997 -918 Q 997 -979 974 -1002 Q 952 -1025 898 -1025 Q 843 -1025 820 -1002 Q 798 -979 798 -918 L 798 -664 Q 798 -603 820 -580 Q 843 -557 898 -557 Z"/>
		<path character="r" fill="#A5834B" fill-opacity="1.0" stroke="none" stroke-width="10px" stroke-linecap="butt" stroke-opacity="1.0" transform="matrix(1,0,0,1,9406,0)" d="M 1242 -1614 Q 1300 -1614 1353 -1604 Q 1407 -1594 1478 -1563 L 1478 -951 Q 1303 -1025 1188 -1025 Q 1041 -1025 967 -958 Q 894 -891 894 -752 L 894 -589 L 1134 -589 L 1134 0 L 53 0 L 53 -589 L 171 -589 L 171 -993 L 53 -993 L 53 -1582 L 894 -1582 L 880 -1454 Q 874 -1471 981 -1542 Q 1089 -1614 1242 -1614 Z"/>
		<path character="t" fill="#A5834B" fill-opacity="1.0" stroke="none" stroke-width="10px" stroke-linecap="butt" stroke-opacity="1.0" transform="matrix(1,0,0,1,10942,0)" d="M 762 32 Q 458 32 298 -113 Q 139 -259 139 -591 L 139 -993 L 21 -993 L 21 -1582 Q 153 -1582 188 -1623 Q 224 -1664 224 -1745 L 224 -1934 L 899 -1934 L 899 -1582 L 1259 -1582 L 1259 -993 L 899 -993 L 899 -634 Q 899 -573 922 -550 Q 945 -527 999 -527 Q 1095 -527 1275 -562 L 1275 -59 Q 1161 -17 1029 7 Q 897 32 762 32 Z"/>
		<path character="m" fill="#A5834B" fill-opacity="1.0" stroke="none" stroke-width="10px" stroke-linecap="butt" stroke-opacity="1.0" transform="matrix(1,0,0,1,13134,0)" d="M 2852 -589 L 2852 0 L 1899 0 L 1899 -589 L 2011 -589 L 2011 -927 Q 2011 -983 1989 -1004 Q 1968 -1025 1917 -1025 Q 1812 -1025 1812 -927 L 1812 -589 L 1924 -589 L 1924 0 L 976 0 L 976 -589 L 1088 -589 L 1088 -927 Q 1088 -983 1066 -1004 Q 1045 -1025 994 -1025 Q 889 -1025 889 -927 L 889 -589 L 1001 -589 L 1001 0 L 48 0 L 48 -589 L 165 -589 L 165 -1025 L 48 -1025 L 48 -1582 L 889 -1582 L 889 -1473 Q 999 -1614 1314 -1614 Q 1495 -1614 1612 -1526 Q 1729 -1439 1744 -1392 Q 1782 -1448 1917 -1531 Q 2053 -1614 2237 -1614 Q 2484 -1614 2609 -1465 Q 2734 -1316 2734 -1065 L 2734 -589 L 2852 -589 Z"/>
		<path character="y" fill="#A5834B" fill-opacity="1.0" stroke="none" stroke-width="10px" stroke-linecap="butt" stroke-opacity="1.0" transform="matrix(1,0,0,1,16014,0)" d="M 1764 -1582 L 1764 -993 L 1645 -993 L 1309 -134 Q 1174 214 994 395 Q 814 576 516 576 Q 399 576 279 552 Q 159 529 27 472 L 27 -102 L 505 -102 L 505 -22 Q 505 -13 519 -13 Q 548 -13 551 -18 L 154 -993 L 35 -993 L 35 -1582 L 937 -1582 L 937 -993 L 869 -993 L 928 -824 L 982 -993 L 912 -993 L 912 -1582 L 1764 -1582 Z"/>
		<path character="W" fill="#A5834B" fill-opacity="1.0" stroke="none" stroke-width="10px" stroke-linecap="butt" stroke-opacity="1.0" transform="matrix(1,0,0,1,18654,0)" d="M 2334 -2222 L 3297 -2222 L 3297 -1633 L 3178 -1633 L 2781 0 L 1896 0 L 1671 -1174 L 1698 -1173 L 1459 0 L 575 0 L 151 -1633 L 32 -1633 L 32 -2222 L 1129 -2222 L 1129 -1633 L 1036 -1633 L 1103 -1046 L 1076 -1049 L 1312 -2222 L 2170 -2222 L 2386 -1048 L 2359 -1046 L 2426 -1633 L 2334 -1633 L 2334 -2222 Z"/>
		<path character="o" fill="#A5834B" fill-opacity="1.0" stroke="none" stroke-width="10px" stroke-linecap="butt" stroke-opacity="1.0" transform="matrix(1,0,0,1,21982,0)" d="M 898 32 Q 498 32 267 -179 Q 37 -391 37 -791 Q 37 -1191 267 -1402 Q 498 -1614 898 -1614 Q 1304 -1614 1531 -1400 Q 1758 -1186 1758 -791 Q 1758 -391 1527 -179 Q 1297 32 898 32 M 898 -557 Q 952 -557 974 -580 Q 997 -603 997 -664 L 997 -918 Q 997 -979 974 -1002 Q 952 -1025 898 -1025 Q 843 -1025 820 -1002 Q 798 -979 798 -918 L 798 -664 Q 798 -603 820 -580 Q 843 -557 898 -557 Z"/>
		<path character="r" fill="#A5834B" fill-opacity="1.0" stroke="none" stroke-width="10px" stroke-linecap="butt" stroke-opacity="1.0" transform="matrix(1,0,0,1,23773,0)" d="M 1242 -1614 Q 1300 -1614 1353 -1604 Q 1407 -1594 1478 -1563 L 1478 -951 Q 1303 -1025 1188 -1025 Q 1041 -1025 967 -958 Q 894 -891 894 -752 L 894 -589 L 1134 -589 L 1134 0 L 53 0 L 53 -589 L 171 -589 L 171 -993 L 53 -993 L 53 -1582 L 894 -1582 L 880 -1454 Q 874 -1471 981 -1542 Q 1089 -1614 1242 -1614 Z"/>
		<path character="k" fill="#A5834B" fill-opacity="1.0" stroke="none" stroke-width="10px" stroke-linecap="butt" stroke-opacity="1.0" transform="matrix(1,0,0,1,25309,0)" d="M 1737 -589 L 1881 -589 L 1881 0 L 1139 0 L 865 -512 L 889 -512 L 889 0 L 48 0 L 48 -589 L 165 -589 L 165 -1633 L 48 -1633 L 48 -2222 L 889 -2222 L 889 -1101 L 869 -1101 L 1199 -1582 L 1846 -1582 L 1846 -993 L 1703 -993 L 1531 -840 L 1737 -589 Z"/>
</g>
</svg>