<svg xmlns="http://www.w3.org/2000/svg" xmlns:xlink="http://www.w3.org/1999/xlink" viewBox="0 0 13921 2797">
<title>Support my Work</title>
<g transform="matrix(1,0,0,1,0,2752)">
  		<path character="S" fill="#CAD1D8" fill-opacity="1.0" stroke="none" stroke-width="10px" stroke-linecap="butt" stroke-opacity="1.0" transform="matrix(1,0,0,1,-128,0)" d="M 362 64 Q 308 64 275 57 Q 243 50 205 28 Q 158 -3 131 -68 Q 131 -166 215 -166 Q 255 -166 313 -142 Q 345 -126 362 -126 Q 398 -126 434 -162 Q 471 -198 494 -264 Q 544 -408 544 -517 Q 544 -641 508 -769 Q 473 -898 413 -1012 Q 401 -1041 369 -1100 Q 301 -1235 265 -1312 Q 230 -1390 202 -1485 Q 163 -1614 163 -1761 Q 163 -1859 194 -1951 Q 226 -2044 297 -2113 Q 380 -2190 484 -2190 Q 534 -2190 598 -2143 Q 662 -2097 662 -2037 Q 662 -1961 591 -1961 Q 558 -1961 515 -1991 Q 504 -2000 503 -2000 Q 464 -2000 430 -1966 Q 396 -1933 379 -1879 Q 363 -1830 363 -1771 Q 363 -1673 388 -1566 Q 414 -1460 457 -1367 L 550 -1171 L 577 -1115 Q 633 -996 665 -918 Q 697 -840 720 -741 Q 750 -608 750 -485 Q 750 -316 664 -142 Q 618 -51 539 6 Q 460 64 362 64 Z"/>
		<path character="u" fill="#CAD1D8" fill-opacity="1.0" stroke="none" stroke-width="10px" stroke-linecap="butt" stroke-opacity="1.0" transform="matrix(1,0,0,1,824,0)" d="M 527 0 Q 469 0 409 -34 Q 350 -68 311 -114 Q 263 -176 241 -407 Q 219 -638 213 -927 Q 213 -990 211 -1022 Q 205 -1688 187 -1822 L 226 -1911 Q 377 -1891 377 -1705 L 385 -1001 Q 385 -929 398 -724 Q 414 -536 414 -438 Q 414 -190 559 -190 Q 630 -190 661 -696 L 664 -748 Q 683 -1477 683 -1824 L 681 -1840 Q 677 -1855 677 -1875 Q 677 -1966 778 -1966 Q 844 -1966 871 -1913 Q 878 -1873 878 -1800 Q 878 -1588 863 -1523 L 865 -1513 Q 865 -1471 857 -1397 L 851 -1294 L 851 -1276 Q 854 -1265 854 -1240 Q 849 -1176 849 -1115 Q 846 -1096 846 -1059 Q 841 -805 835 -617 Q 827 -377 768 -208 Q 697 0 527 0 Z"/>
		<path character="p" fill="#CAD1D8" fill-opacity="1.0" stroke="none" stroke-width="10px" stroke-linecap="butt" stroke-opacity="1.0" transform="matrix(1,0,0,1,1904,0)" d="M 234 22 Q 200 -180 200 -407 Q 200 -495 208 -663 L 213 -903 Q 195 -941 195 -992 Q 221 -1037 221 -1236 Q 221 -1738 204 -1782 Q 249 -1902 300 -1902 L 418 -1902 Q 461 -1902 524 -1867 Q 587 -1833 631 -1796 Q 715 -1714 715 -1426 Q 715 -1280 707 -1203 Q 701 -1142 686 -1105 Q 672 -1068 646 -1025 Q 597 -948 489 -894 Q 445 -869 406 -857 L 406 -573 Q 406 -507 419 -309 L 425 -221 L 430 -41 Q 430 64 310 64 L 234 22 M 399 -1058 Q 419 -1058 455 -1109 Q 469 -1131 483 -1171 Q 497 -1212 502 -1253 Q 517 -1330 517 -1431 L 517 -1506 Q 517 -1543 514 -1576 Q 512 -1609 506 -1635 Q 498 -1661 487 -1676 Q 477 -1692 458 -1701 Q 438 -1712 407 -1712 Q 401 -1712 402 -1713 Q 403 -1714 403 -1692 Q 403 -1627 411 -1493 L 417 -1291 Q 417 -1215 411 -1155 L 407 -1046 L 399 -1058 Z"/>
		<path character="p" fill="#CAD1D8" fill-opacity="1.0" stroke="none" stroke-width="10px" stroke-linecap="butt" stroke-opacity="1.0" transform="matrix(1,0,0,1,2728,0)" d="M 234 22 Q 200 -180 200 -407 Q 200 -495 208 -663 L 213 -903 Q 195 -941 195 -992 Q 221 -1037 221 -1236 Q 221 -1738 204 -1782 Q 249 -1902 300 -1902 L 418 -1902 Q 461 -1902 524 -1867 Q 587 -1833 631 -1796 Q 715 -1714 715 -1426 Q 715 -1280 707 -1203 Q 701 -1142 686 -1105 Q 672 -1068 646 -1025 Q 597 -948 489 -894 Q 445 -869 406 -857 L 406 -573 Q 406 -507 419 -309 L 425 -221 L 430 -41 Q 430 64 310 64 L 234 22 M 399 -1058 Q 419 -1058 455 -1109 Q 469 -1131 483 -1171 Q 497 -1212 502 -1253 Q 517 -1330 517 -1431 L 517 -1506 Q 517 -1543 514 -1576 Q 512 -1609 506 -1635 Q 498 -1661 487 -1676 Q 477 -1692 458 -1701 Q 438 -1712 407 -1712 Q 401 -1712 402 -1713 Q 403 -1714 403 -1692 Q 403 -1627 411 -1493 L 417 -1291 Q 417 -1215 411 -1155 L 407 -1046 L 399 -1058 Z"/>
		<path character="o" fill="#CAD1D8" fill-opacity="1.0" stroke="none" stroke-width="10px" stroke-linecap="butt" stroke-opacity="1.0" transform="matrix(1,0,0,1,3552,0)" d="M 524 32 Q 157 32 157 -1007 L 157 -1101 Q 157 -1902 404 -1902 Q 427 -1902 460 -1891 Q 539 -1864 619 -1856 Q 696 -1839 759 -1724 Q 819 -1620 848 -1455 Q 878 -1290 878 -1110 L 873 -1096 Q 873 -1019 875 -949 L 878 -789 Q 878 -649 867 -537 Q 850 -365 811 -239 Q 785 -159 749 -103 Q 714 -48 660 -11 Q 605 32 524 32 M 514 -158 Q 579 -158 616 -267 Q 665 -409 675 -556 Q 685 -713 685 -807 Q 685 -911 669 -1116 Q 656 -1350 656 -1420 L 639 -1453 L 651 -1480 Q 651 -1572 599 -1642 Q 547 -1712 482 -1712 Q 404 -1712 389 -1635 Q 385 -1597 379 -1522 Q 379 -1322 363 -1250 Q 363 -1213 355 -1127 L 350 -1005 Q 350 -950 353 -905 L 355 -797 Q 355 -675 377 -516 Q 392 -400 411 -324 Q 431 -248 466 -197 Q 490 -158 514 -158 Z"/>
		<path character="r" fill="#CAD1D8" fill-opacity="1.0" stroke="none" stroke-width="10px" stroke-linecap="butt" stroke-opacity="1.0" transform="matrix(1,0,0,1,4568,0)" d="M 624 11 Q 573 -44 533 -201 Q 494 -358 462 -547 Q 441 -696 402 -842 Q 394 -952 394 -934 L 386 -934 Q 364 -952 382 -952 Q 382 -763 403 -378 Q 414 -148 431 -94 L 385 0 L 294 0 L 238 -48 Q 195 -1299 195 -1746 Q 195 -1781 201 -1808 Q 207 -1836 226 -1859 Q 250 -1902 308 -1902 Q 463 -1902 564 -1820 Q 665 -1739 665 -1587 L 665 -1392 Q 665 -1331 629 -1239 Q 593 -1147 551 -1072 L 526 -1023 Q 552 -907 638 -557 Q 724 -207 689 -177 Q 728 -203 734 -186 Q 740 -169 751 -151 Q 777 -100 777 -60 Q 777 32 683 32 L 624 11 M 348 -1071 Q 364 -1109 392 -1145 Q 421 -1181 442 -1249 Q 483 -1402 483 -1490 Q 483 -1546 477 -1581 Q 471 -1616 456 -1657 Q 437 -1712 356 -1712 Q 356 -1749 369 -1731 Q 382 -1713 382 -1698 Q 382 -1523 387 -1381 Q 390 -1238 357 -1068 L 348 -1071 Z"/>
		<path character="t" fill="#CAD1D8" fill-opacity="1.0" stroke="none" stroke-width="10px" stroke-linecap="butt" stroke-opacity="1.0" transform="matrix(1,0,0,1,5456,0)" d="M 369 -64 L 365 -191 Q 363 -235 363 -290 Q 363 -320 365 -340 L 368 -386 Q 368 -403 357 -441 Q 357 -629 331 -1119 Q 304 -1595 302 -1712 Q 186 -1712 120 -1725 Q 27 -1758 27 -1867 Q 78 -1902 132 -1902 Q 212 -1902 364 -1902 Q 503 -1902 596 -1902 L 652 -1902 L 708 -1902 Q 811 -1902 811 -1800 Q 811 -1752 773 -1732 Q 736 -1712 698 -1712 Q 644 -1712 586 -1712 L 471 -1712 Q 468 -1759 515 -1752 Q 513 -1744 513 -1708 Q 513 -1448 545 -917 Q 574 -364 574 -123 Q 574 -76 533 -46 Q 492 -17 434 -17 L 369 -64 Z"/>
		<path character="m" fill="#CAD1D8" fill-opacity="1.0" stroke="none" stroke-width="10px" stroke-linecap="butt" stroke-opacity="1.0" transform="matrix(1,0,0,1,6801,0)" d="M 1300 127 Q 1192 127 1192 -99 L 1192 -276 Q 1192 -659 1176 -874 L 1168 -969 Q 1157 -1039 1157 -1094 Q 1157 -1187 1163 -1263 L 1168 -1427 Q 1168 -1502 1194 -1502 Q 1207 -1481 945 -422 L 942 -385 Q 933 -312 919 -268 Q 907 -227 879 -197 Q 852 -168 810 -168 Q 742 -168 708 -207 Q 675 -246 675 -311 Q 675 -376 608 -672 Q 541 -969 464 -1238 Q 387 -1507 423 -1523 Q 459 -1470 441 -1123 Q 403 -512 403 -164 L 406 -49 Q 380 32 295 32 Q 268 32 231 3 Q 195 -25 195 -60 Q 195 -301 237 -904 Q 277 -1461 277 -1738 Q 277 -1746 275 -1751 Q 264 -1778 264 -1799 Q 264 -1902 388 -1902 Q 480 -1902 496 -1810 Q 507 -1743 507 -1711 L 510 -1684 Q 521 -1624 582 -1486 Q 635 -1369 663 -1279 Q 679 -1216 692 -1177 Q 736 -1019 748 -950 L 782 -881 Q 792 -835 815 -746 Q 840 -643 851 -575 Q 862 -508 823 -500 Q 785 -514 921 -1016 Q 1057 -1518 1083 -1666 Q 1112 -1661 1099 -1670 Q 1086 -1679 1089 -1696 Q 1094 -1734 1115 -1810 Q 1150 -1902 1231 -1902 Q 1267 -1902 1310 -1872 Q 1353 -1843 1353 -1798 Q 1353 -683 1387 -618 L 1387 -464 Q 1385 -403 1385 -324 Q 1385 -160 1357 -74 Q 1399 -100 1403 -84 Q 1407 -69 1409 -61 Q 1414 -43 1414 -23 Q 1414 23 1385 75 Q 1356 127 1300 127 M 1210 -1549 L 1212 -1539 L 1210 -1549 L 1209 -1551 L 1210 -1549 Z"/>
		<path character="y" fill="#CAD1D8" fill-opacity="1.0" stroke="none" stroke-width="10px" stroke-linecap="butt" stroke-opacity="1.0" transform="matrix(1,0,0,1,8457,0)" d="M 423 0 Q 396 0 367 -22 Q 339 -44 328 -88 Q 355 -156 355 -540 Q 355 -614 347 -753 L 334 -927 L 314 -969 L 322 -1001 Q 313 -1023 280 -1110 Q 248 -1197 216 -1286 Q 120 -1537 90 -1649 Q 73 -1703 59 -1785 L 142 -1847 Q 226 -1832 286 -1639 Q 326 -1523 359 -1410 L 391 -1310 Q 416 -1164 391 -1153 L 370 -1171 L 348 -1198 Q 383 -1240 412 -1390 Q 446 -1580 479 -1710 Q 523 -1902 602 -1902 Q 634 -1902 662 -1880 Q 691 -1858 691 -1820 Q 691 -1772 609 -1489 Q 569 -1359 544 -1246 Q 513 -1116 513 -1028 Q 526 -1002 526 -971 Q 526 -949 515 -916 Q 510 -902 510 -895 Q 510 -885 521 -785 Q 531 -711 531 -658 Q 531 -544 534 -453 L 534 -243 L 534 -232 Q 534 0 423 0 Z"/>
		<path character="W" fill="#CAD1D8" fill-opacity="1.0" stroke="none" stroke-width="10px" stroke-linecap="butt" stroke-opacity="1.0" transform="matrix(1,0,0,1,9738,0)" d="M 458 0 Q 352 0 352 -111 L 352 -148 Q 355 -159 355 -168 L 355 -177 L 308 -497 Q 289 -600 283 -648 Q 259 -835 232 -1066 Q 211 -1248 157 -1667 L 149 -1728 Q 111 -2020 82 -2067 Q 113 -2121 141 -2139 Q 170 -2158 202 -2158 Q 267 -2158 296 -2123 Q 326 -2089 326 -2024 L 326 -1994 L 326 -1960 L 326 -1925 Q 409 -1067 450 -317 L 444 -317 Q 403 -390 427 -723 L 432 -797 Q 451 -1126 453 -1145 Q 461 -1223 486 -1374 L 517 -1580 L 525 -1696 Q 528 -1731 529 -1757 Q 531 -1783 533 -1796 L 536 -1829 Q 536 -1846 547 -1862 Q 558 -1879 589 -1902 Q 675 -1902 699 -1863 Q 712 -1850 717 -1830 Q 723 -1810 723 -1797 Q 728 -1778 728 -1778 Q 754 -1637 842 -1056 Q 931 -475 917 -295 L 898 -287 L 947 -1323 Q 952 -1432 981 -1666 Q 1008 -1898 1008 -2040 L 1005 -2073 L 1005 -2091 Q 1005 -2145 1040 -2167 Q 1076 -2190 1130 -2190 Q 1160 -2190 1197 -2169 Q 1235 -2148 1235 -2104 Q 1235 -2053 1156 -2067 Q 1209 -2088 1209 -2052 Q 1209 -2030 1204 -2007 Q 1199 -1985 1197 -1980 Q 1169 -1747 1126 -1280 L 1073 -727 L 1051 -515 L 1019 -245 L 1006 -112 Q 1006 -69 984 -34 Q 962 0 903 0 Q 818 0 799 -69 Q 793 -89 787 -151 L 784 -188 Q 721 -583 629 -1594 L 640 -1604 L 641 -1605 L 691 -1602 L 558 -197 L 558 -154 Q 558 0 458 0 Z"/>
		<path character="o" fill="#CAD1D8" fill-opacity="1.0" stroke="none" stroke-width="10px" stroke-linecap="butt" stroke-opacity="1.0" transform="matrix(1,0,0,1,11074,0)" d="M 524 32 Q 157 32 157 -1007 L 157 -1101 Q 157 -1902 404 -1902 Q 427 -1902 460 -1891 Q 539 -1864 619 -1856 Q 696 -1839 759 -1724 Q 819 -1620 848 -1455 Q 878 -1290 878 -1110 L 873 -1096 Q 873 -1019 875 -949 L 878 -789 Q 878 -649 867 -537 Q 850 -365 811 -239 Q 785 -159 749 -103 Q 714 -48 660 -11 Q 605 32 524 32 M 514 -158 Q 579 -158 616 -267 Q 665 -409 675 -556 Q 685 -713 685 -807 Q 685 -911 669 -1116 Q 656 -1350 656 -1420 L 639 -1453 L 651 -1480 Q 651 -1572 599 -1642 Q 547 -1712 482 -1712 Q 404 -1712 389 -1635 Q 385 -1597 379 -1522 Q 379 -1322 363 -1250 Q 363 -1213 355 -1127 L 350 -1005 Q 350 -950 353 -905 L 355 -797 Q 355 -675 377 -516 Q 392 -400 411 -324 Q 431 -248 466 -197 Q 490 -158 514 -158 Z"/>
		<path character="r" fill="#CAD1D8" fill-opacity="1.0" stroke="none" stroke-width="10px" stroke-linecap="butt" stroke-opacity="1.0" transform="matrix(1,0,0,1,12089,0)" d="M 624 11 Q 573 -44 533 -201 Q 494 -358 462 -547 Q 441 -696 402 -842 Q 394 -952 394 -934 L 386 -934 Q 364 -952 382 -952 Q 382 -763 403 -378 Q 414 -148 431 -94 L 385 0 L 294 0 L 238 -48 Q 195 -1299 195 -1746 Q 195 -1781 201 -1808 Q 207 -1836 226 -1859 Q 250 -1902 308 -1902 Q 463 -1902 564 -1820 Q 665 -1739 665 -1587 L 665 -1392 Q 665 -1331 629 -1239 Q 593 -1147 551 -1072 L 526 -1023 Q 552 -907 638 -557 Q 724 -207 689 -177 Q 728 -203 734 -186 Q 740 -169 751 -151 Q 777 -100 777 -60 Q 777 32 683 32 L 624 11 M 348 -1071 Q 364 -1109 392 -1145 Q 421 -1181 442 -1249 Q 483 -1402 483 -1490 Q 483 -1546 477 -1581 Q 471 -1616 456 -1657 Q 437 -1712 356 -1712 Q 356 -1749 369 -1731 Q 382 -1713 382 -1698 Q 382 -1523 387 -1381 Q 390 -1238 357 -1068 L 348 -1071 Z"/>
		<path character="k" fill="#CAD1D8" fill-opacity="1.0" stroke="none" stroke-width="10px" stroke-linecap="butt" stroke-opacity="1.0" transform="matrix(1,0,0,1,12977,0)" d="M 831 32 Q 729 32 627 -245 Q 543 -471 481 -735 Q 419 -999 428 -1097 L 462 -1107 L 469 -1012 Q 441 -957 427 -923 Q 414 -890 401 -838 Q 387 -793 387 -747 Q 387 -690 382 -645 L 377 -552 L 377 -208 Q 377 -187 384 -139 Q 393 -85 393 -54 Q 393 -12 360 10 Q 328 32 295 32 Q 239 32 210 5 Q 181 -21 181 -80 L 181 -586 Q 181 -633 195 -762 Q 208 -886 208 -926 Q 208 -1041 221 -1192 Q 232 -1340 232 -1446 L 232 -1837 Q 272 -1902 338 -1902 Q 382 -1902 412 -1870 Q 443 -1839 443 -1784 Q 422 -1736 422 -1667 L 417 -1383 Q 411 -1256 377 -1129 Q 344 -1155 515 -1503 Q 712 -1902 764 -1902 Q 889 -1902 889 -1772 Q 711 -1506 606 -1277 L 603 -1201 Q 601 -1164 601 -1117 Q 601 -1005 690 -685 Q 779 -366 838 -247 Q 861 -216 867 -210 Q 900 -162 915 -129 Q 931 -96 931 -57 Q 931 -12 899 10 Q 867 32 831 32 Z"/>
</g>
</svg>