<svg xmlns="http://www.w3.org/2000/svg" xmlns:xlink="http://www.w3.org/1999/xlink" viewBox="0 0 12478 3597">
<title>Support my Work</title>
<g transform="matrix(1,0,0,1,0,2752)">
  		<path character="S" fill="#EA8872" fill-opacity="1.0" stroke="none" stroke-width="10px" stroke-linecap="butt" stroke-opacity="1.0" transform="matrix(1,0,0,1,-128,0)" d="M 307 64 Q 259 64 233 58 Q 208 53 179 36 Q 147 15 131 -24 Q 131 -56 160 -56 Q 189 -56 235 -37 Q 277 -16 307 -16 Q 365 -16 414 -64 Q 464 -113 491 -191 Q 544 -344 544 -462 Q 544 -594 506 -728 Q 469 -863 408 -981 Q 395 -1010 363 -1070 Q 296 -1204 261 -1279 Q 227 -1354 200 -1446 Q 163 -1567 163 -1706 Q 163 -1795 191 -1877 Q 219 -1959 280 -2018 Q 347 -2080 429 -2080 Q 461 -2080 506 -2047 Q 552 -2014 552 -1982 Q 552 -1961 536 -1961 Q 520 -1961 493 -1980 Q 469 -2000 448 -2000 Q 387 -2000 340 -1954 Q 293 -1908 272 -1841 Q 253 -1784 253 -1716 Q 253 -1611 280 -1499 Q 307 -1387 352 -1289 L 445 -1092 L 472 -1036 Q 528 -919 558 -843 Q 589 -768 611 -674 Q 640 -547 640 -430 Q 640 -274 560 -112 Q 520 -33 453 15 Q 387 64 307 64 Z"/>
		<path character="u" fill="#EA8872" fill-opacity="1.0" stroke="none" stroke-width="10px" stroke-linecap="butt" stroke-opacity="1.0" transform="matrix(1,0,0,1,713,0)" d="M 472 0 Q 429 0 380 -28 Q 331 -56 299 -94 Q 261 -142 240 -364 Q 219 -586 213 -873 Q 213 -937 211 -969 Q 205 -1637 189 -1759 L 205 -1796 Q 267 -1788 267 -1650 L 275 -946 Q 275 -872 288 -665 Q 304 -479 304 -383 Q 304 -80 504 -80 Q 627 -80 661 -638 L 664 -691 Q 683 -1421 683 -1772 L 680 -1796 Q 677 -1807 677 -1820 Q 677 -1856 723 -1856 Q 755 -1856 763 -1840 Q 768 -1813 768 -1745 Q 768 -1539 752 -1469 L 755 -1453 Q 755 -1419 747 -1347 L 741 -1241 L 741 -1214 Q 744 -1203 744 -1187 Q 739 -1123 739 -1064 Q 736 -1045 736 -1005 Q 731 -751 725 -564 Q 717 -332 661 -171 Q 603 0 472 0 Z"/>
		<path character="p" fill="#EA8872" fill-opacity="1.0" stroke="none" stroke-width="10px" stroke-linecap="butt" stroke-opacity="1.0" transform="matrix(1,0,0,1,1682,0)" d="M 229 42 Q 200 -130 200 -352 Q 200 -439 208 -606 L 213 -860 Q 195 -898 195 -922 Q 221 -967 221 -1181 Q 221 -1693 208 -1727 Q 232 -1792 245 -1792 L 363 -1792 Q 392 -1792 446 -1762 Q 501 -1733 539 -1700 Q 605 -1636 605 -1371 Q 605 -1228 597 -1153 Q 592 -1100 580 -1069 Q 568 -1038 544 -999 Q 504 -935 408 -888 Q 368 -865 296 -843 L 296 -518 Q 296 -450 309 -250 L 315 -163 L 320 15 Q 320 64 269 64 L 229 42 M 315 -948 Q 392 -948 445 -1023 Q 464 -1051 480 -1098 Q 496 -1145 501 -1190 Q 517 -1270 517 -1376 L 517 -1451 Q 517 -1490 514 -1526 Q 512 -1562 504 -1595 Q 493 -1631 476 -1655 Q 459 -1679 429 -1695 Q 397 -1712 352 -1712 Q 320 -1712 306 -1695 Q 293 -1679 293 -1637 Q 293 -1570 301 -1436 L 307 -1235 Q 307 -1163 301 -1104 L 296 -975 L 315 -948 Z"/>
		<path character="p" fill="#EA8872" fill-opacity="1.0" stroke="none" stroke-width="10px" stroke-linecap="butt" stroke-opacity="1.0" transform="matrix(1,0,0,1,2395,0)" d="M 229 42 Q 200 -130 200 -352 Q 200 -439 208 -606 L 213 -860 Q 195 -898 195 -922 Q 221 -967 221 -1181 Q 221 -1693 208 -1727 Q 232 -1792 245 -1792 L 363 -1792 Q 392 -1792 446 -1762 Q 501 -1733 539 -1700 Q 605 -1636 605 -1371 Q 605 -1228 597 -1153 Q 592 -1100 580 -1069 Q 568 -1038 544 -999 Q 504 -935 408 -888 Q 368 -865 296 -843 L 296 -518 Q 296 -450 309 -250 L 315 -163 L 320 15 Q 320 64 269 64 L 229 42 M 315 -948 Q 392 -948 445 -1023 Q 464 -1051 480 -1098 Q 496 -1145 501 -1190 Q 517 -1270 517 -1376 L 517 -1451 Q 517 -1490 514 -1526 Q 512 -1562 504 -1595 Q 493 -1631 476 -1655 Q 459 -1679 429 -1695 Q 397 -1712 352 -1712 Q 320 -1712 306 -1695 Q 293 -1679 293 -1637 Q 293 -1570 301 -1436 L 307 -1235 Q 307 -1163 301 -1104 L 296 -975 L 315 -948 Z"/>
		<path character="o" fill="#EA8872" fill-opacity="1.0" stroke="none" stroke-width="10px" stroke-linecap="butt" stroke-opacity="1.0" transform="matrix(1,0,0,1,3108,0)" d="M 469 32 Q 157 32 157 -952 L 157 -1046 Q 157 -1792 349 -1792 Q 363 -1792 387 -1784 Q 472 -1755 555 -1747 Q 605 -1736 656 -1642 Q 712 -1546 740 -1388 Q 768 -1230 768 -1065 L 763 -1051 Q 763 -963 765 -893 L 768 -733 Q 768 -597 757 -487 Q 741 -321 704 -201 Q 680 -128 649 -80 Q 619 -32 573 0 Q 531 32 469 32 M 459 -48 Q 563 -48 613 -194 Q 664 -343 675 -497 Q 685 -656 685 -752 Q 685 -858 669 -1065 Q 656 -1297 656 -1379 L 645 -1400 L 651 -1414 Q 651 -1535 585 -1623 Q 520 -1712 427 -1712 Q 304 -1712 280 -1589 Q 275 -1547 269 -1469 Q 269 -1273 253 -1201 Q 253 -1161 245 -1076 L 240 -951 Q 240 -893 243 -848 L 245 -741 Q 245 -616 267 -454 Q 283 -335 304 -252 Q 325 -170 365 -112 Q 405 -48 459 -48 Z"/>
		<path character="r" fill="#EA8872" fill-opacity="1.0" stroke="none" stroke-width="10px" stroke-linecap="butt" stroke-opacity="1.0" transform="matrix(1,0,0,1,4013,0)" d="M 600 19 Q 568 -16 530 -165 Q 493 -314 461 -500 Q 440 -652 400 -801 Q 368 -934 339 -934 L 331 -934 Q 272 -934 272 -897 Q 272 -707 293 -320 Q 304 -83 317 -43 L 296 0 L 259 0 L 237 -19 Q 195 -1245 195 -1691 Q 195 -1720 199 -1738 Q 203 -1757 216 -1773 Q 227 -1792 253 -1792 Q 389 -1792 472 -1725 Q 555 -1658 555 -1532 L 555 -1337 Q 555 -1286 521 -1200 Q 488 -1115 448 -1043 L 413 -976 Q 443 -840 529 -488 Q 616 -136 624 -114 Q 627 -112 631 -101 Q 635 -90 648 -69 Q 667 -32 667 -5 Q 667 32 637 32 L 600 19 M 285 -999 Q 336 -999 376 -1049 Q 416 -1100 440 -1179 Q 483 -1340 483 -1435 Q 483 -1496 476 -1535 Q 469 -1575 453 -1620 Q 421 -1712 301 -1712 Q 288 -1712 280 -1689 Q 272 -1667 272 -1643 Q 272 -1467 277 -1324 Q 280 -1182 280 -1005 L 285 -999 Z"/>
		<path character="t" fill="#EA8872" fill-opacity="1.0" stroke="none" stroke-width="10px" stroke-linecap="butt" stroke-opacity="1.0" transform="matrix(1,0,0,1,4790,0)" d="M 368 -38 L 365 -138 Q 363 -181 363 -235 Q 363 -262 365 -280 L 368 -329 Q 368 -356 357 -394 Q 357 -575 331 -1067 Q 304 -1542 301 -1712 Q 136 -1712 80 -1723 Q 27 -1742 27 -1783 Q 40 -1792 77 -1792 Q 157 -1792 309 -1792 Q 448 -1792 541 -1792 L 597 -1792 L 653 -1792 Q 701 -1792 701 -1745 Q 701 -1730 684 -1721 Q 667 -1712 643 -1712 Q 589 -1712 531 -1712 L 416 -1712 Q 405 -1712 405 -1704 Q 403 -1696 403 -1653 Q 403 -1391 435 -859 Q 464 -308 464 -68 Q 464 -49 441 -33 Q 419 -17 397 -17 L 368 -38 Z"/>
		<path character="m" fill="#EA8872" fill-opacity="1.0" stroke="none" stroke-width="10px" stroke-linecap="butt" stroke-opacity="1.0" transform="matrix(1,0,0,1,6024,0)" d="M 1245 127 Q 1192 127 1192 -44 L 1192 -221 Q 1192 -606 1176 -823 L 1168 -921 Q 1157 -988 1157 -1039 Q 1157 -1130 1163 -1205 L 1168 -1371 Q 1168 -1454 1157 -1496 Q 1104 -1459 835 -376 L 832 -335 Q 824 -269 811 -229 Q 803 -200 788 -184 Q 773 -168 755 -168 Q 712 -168 693 -189 Q 675 -211 675 -256 Q 675 -327 607 -627 Q 539 -928 460 -1204 Q 381 -1481 352 -1510 Q 349 -1417 331 -1071 Q 293 -459 293 -108 L 296 -2 Q 285 32 240 32 Q 232 32 213 17 Q 195 3 195 -5 Q 195 -244 237 -845 Q 277 -1404 277 -1683 Q 277 -1699 272 -1715 Q 264 -1734 264 -1744 Q 264 -1792 333 -1792 Q 379 -1792 387 -1746 Q 397 -1684 397 -1653 L 400 -1621 Q 413 -1552 477 -1409 Q 528 -1294 555 -1209 Q 571 -1146 584 -1106 Q 627 -952 640 -877 L 675 -808 Q 683 -768 707 -678 Q 731 -577 741 -513 Q 752 -449 752 -391 Q 781 -437 918 -944 Q 1056 -1451 1080 -1592 Q 1083 -1597 1084 -1606 Q 1085 -1616 1088 -1632 Q 1093 -1668 1112 -1738 Q 1133 -1792 1176 -1792 Q 1195 -1792 1219 -1775 Q 1243 -1759 1243 -1743 Q 1243 -614 1277 -549 L 1277 -410 Q 1275 -349 1275 -269 Q 1275 -99 1293 -13 Q 1296 -11 1297 -5 Q 1299 0 1301 8 Q 1304 19 1304 32 Q 1304 64 1286 95 Q 1269 127 1245 127 M 1157 -1496 L 1155 -1496 L 1149 -1494 L 1157 -1491 L 1157 -1496 Z"/>
		<path character="y" fill="#EA8872" fill-opacity="1.0" stroke="none" stroke-width="10px" stroke-linecap="butt" stroke-opacity="1.0" transform="matrix(1,0,0,1,7569,0)" d="M 368 0 Q 360 0 346 -10 Q 333 -21 331 -29 Q 355 -91 355 -485 Q 355 -561 347 -702 L 333 -887 L 317 -920 L 325 -951 Q 309 -988 277 -1074 Q 245 -1161 213 -1250 Q 117 -1499 88 -1609 Q 72 -1661 64 -1706 L 101 -1734 Q 128 -1729 179 -1567 Q 219 -1451 251 -1339 L 283 -1239 Q 331 -1077 352 -1072 L 363 -1120 L 357 -1134 Q 379 -1161 411 -1325 Q 445 -1513 477 -1642 Q 512 -1792 547 -1792 Q 560 -1792 570 -1784 Q 581 -1776 581 -1765 Q 581 -1725 501 -1450 Q 461 -1318 435 -1203 Q 403 -1067 403 -960 Q 416 -934 416 -916 Q 416 -903 408 -879 Q 400 -856 400 -840 Q 400 -827 411 -723 Q 421 -652 421 -603 Q 421 -488 424 -397 L 424 -188 L 424 -177 Q 424 0 368 0 Z"/>
		<path character="W" fill="#EA8872" fill-opacity="1.0" stroke="none" stroke-width="10px" stroke-linecap="butt" stroke-opacity="1.0" transform="matrix(1,0,0,1,8739,0)" d="M 403 0 Q 352 0 352 -56 L 352 -86 Q 355 -97 355 -113 L 355 -126 L 307 -451 Q 288 -553 283 -599 Q 259 -787 232 -1017 Q 211 -1200 157 -1619 L 149 -1680 Q 109 -1984 91 -2013 Q 99 -2027 115 -2037 Q 131 -2048 147 -2048 Q 187 -2048 201 -2031 Q 216 -2014 216 -1969 L 216 -1939 L 216 -1905 L 216 -1867 Q 299 -1006 389 -255 L 395 -255 Q 403 -330 427 -664 L 432 -739 Q 451 -1066 453 -1084 Q 461 -1161 485 -1310 L 517 -1519 L 525 -1637 Q 528 -1672 529 -1697 Q 531 -1722 533 -1734 L 536 -1772 Q 536 -1774 540 -1780 Q 544 -1786 552 -1792 Q 589 -1792 600 -1774 Q 608 -1766 610 -1757 Q 613 -1748 613 -1735 Q 619 -1711 619 -1711 Q 645 -1573 733 -993 Q 821 -413 840 -228 L 848 -222 L 947 -1264 Q 952 -1372 981 -1604 Q 1008 -1840 1008 -1987 L 1005 -2020 L 1005 -2036 Q 1005 -2060 1021 -2070 Q 1037 -2080 1075 -2080 Q 1091 -2080 1108 -2070 Q 1125 -2061 1125 -2049 Q 1125 -2030 1096 -2013 Q 1099 -2010 1099 -1997 Q 1099 -1981 1095 -1963 Q 1091 -1946 1088 -1938 Q 1059 -1698 1016 -1230 L 963 -677 L 941 -466 L 909 -196 L 896 -60 Q 896 -30 886 -15 Q 877 0 848 0 Q 805 0 797 -30 Q 792 -45 787 -101 L 784 -140 Q 720 -536 592 -1550 L 584 -1555 L 581 -1552 L 581 -1550 L 448 -145 L 448 -99 Q 448 0 403 0 Z"/>
		<path character="o" fill="#EA8872" fill-opacity="1.0" stroke="none" stroke-width="10px" stroke-linecap="butt" stroke-opacity="1.0" transform="matrix(1,0,0,1,9964,0)" d="M 469 32 Q 157 32 157 -952 L 157 -1046 Q 157 -1792 349 -1792 Q 363 -1792 387 -1784 Q 472 -1755 555 -1747 Q 605 -1736 656 -1642 Q 712 -1546 740 -1388 Q 768 -1230 768 -1065 L 763 -1051 Q 763 -963 765 -893 L 768 -733 Q 768 -597 757 -487 Q 741 -321 704 -201 Q 680 -128 649 -80 Q 619 -32 573 0 Q 531 32 469 32 M 459 -48 Q 563 -48 613 -194 Q 664 -343 675 -497 Q 685 -656 685 -752 Q 685 -858 669 -1065 Q 656 -1297 656 -1379 L 645 -1400 L 651 -1414 Q 651 -1535 585 -1623 Q 520 -1712 427 -1712 Q 304 -1712 280 -1589 Q 275 -1547 269 -1469 Q 269 -1273 253 -1201 Q 253 -1161 245 -1076 L 240 -951 Q 240 -893 243 -848 L 245 -741 Q 245 -616 267 -454 Q 283 -335 304 -252 Q 325 -170 365 -112 Q 405 -48 459 -48 Z"/>
		<path character="r" fill="#EA8872" fill-opacity="1.0" stroke="none" stroke-width="10px" stroke-linecap="butt" stroke-opacity="1.0" transform="matrix(1,0,0,1,10868,0)" d="M 600 19 Q 568 -16 530 -165 Q 493 -314 461 -500 Q 440 -652 400 -801 Q 368 -934 339 -934 L 331 -934 Q 272 -934 272 -897 Q 272 -707 293 -320 Q 304 -83 317 -43 L 296 0 L 259 0 L 237 -19 Q 195 -1245 195 -1691 Q 195 -1720 199 -1738 Q 203 -1757 216 -1773 Q 227 -1792 253 -1792 Q 389 -1792 472 -1725 Q 555 -1658 555 -1532 L 555 -1337 Q 555 -1286 521 -1200 Q 488 -1115 448 -1043 L 413 -976 Q 443 -840 529 -488 Q 616 -136 624 -114 Q 627 -112 631 -101 Q 635 -90 648 -69 Q 667 -32 667 -5 Q 667 32 637 32 L 600 19 M 285 -999 Q 336 -999 376 -1049 Q 416 -1100 440 -1179 Q 483 -1340 483 -1435 Q 483 -1496 476 -1535 Q 469 -1575 453 -1620 Q 421 -1712 301 -1712 Q 288 -1712 280 -1689 Q 272 -1667 272 -1643 Q 272 -1467 277 -1324 Q 280 -1182 280 -1005 L 285 -999 Z"/>
		<path character="k" fill="#EA8872" fill-opacity="1.0" stroke="none" stroke-width="10px" stroke-linecap="butt" stroke-opacity="1.0" transform="matrix(1,0,0,1,11645,0)" d="M 776 32 Q 712 32 624 -209 Q 541 -432 480 -692 Q 419 -952 413 -1057 L 405 -1067 L 365 -981 Q 336 -925 321 -888 Q 307 -852 293 -798 Q 277 -746 277 -692 Q 277 -638 272 -595 L 267 -498 L 267 -153 Q 267 -128 275 -75 Q 283 -26 283 1 Q 283 14 269 23 Q 256 32 240 32 Q 205 32 193 21 Q 181 10 181 -25 L 181 -531 Q 181 -575 195 -701 Q 208 -828 208 -871 Q 208 -984 221 -1133 Q 232 -1283 232 -1391 L 232 -1766 Q 248 -1792 283 -1792 Q 304 -1792 318 -1777 Q 333 -1762 333 -1741 Q 312 -1693 312 -1612 L 307 -1330 Q 301 -1202 301 -1046 Q 328 -1054 509 -1424 Q 691 -1792 709 -1792 Q 779 -1792 779 -1734 Q 608 -1478 496 -1235 L 493 -1148 Q 491 -1110 491 -1062 Q 491 -943 581 -617 Q 672 -291 736 -164 Q 765 -123 771 -118 Q 797 -80 809 -54 Q 821 -29 821 -2 Q 821 14 808 23 Q 795 32 776 32 Z"/>
</g>
</svg>