<svg xmlns="http://www.w3.org/2000/svg" xmlns:xlink="http://www.w3.org/1999/xlink" viewBox="0 0 6390 3597">
<title>Welcome</title>
<g transform="matrix(1,0,0,1,0,2752)">
  		<path character="W" fill="#EA8872" fill-opacity="1.0" stroke="none" stroke-width="10px" stroke-linecap="butt" stroke-opacity="1.0" transform="matrix(1,0,0,1,-64,0)" d="M 403 0 Q 352 0 352 -56 L 352 -86 Q 355 -97 355 -113 L 355 -126 L 307 -451 Q 288 -553 283 -599 Q 259 -787 232 -1017 Q 211 -1200 157 -1619 L 149 -1680 Q 109 -1984 91 -2013 Q 99 -2027 115 -2037 Q 131 -2048 147 -2048 Q 187 -2048 201 -2031 Q 216 -2014 216 -1969 L 216 -1939 L 216 -1905 L 216 -1867 Q 299 -1006 389 -255 L 395 -255 Q 403 -330 427 -664 L 432 -739 Q 451 -1066 453 -1084 Q 461 -1161 485 -1310 L 517 -1519 L 525 -1637 Q 528 -1672 529 -1697 Q 531 -1722 533 -1734 L 536 -1772 Q 536 -1774 540 -1780 Q 544 -1786 552 -1792 Q 589 -1792 600 -1774 Q 608 -1766 610 -1757 Q 613 -1748 613 -1735 Q 619 -1711 619 -1711 Q 645 -1573 733 -993 Q 821 -413 840 -228 L 848 -222 L 947 -1264 Q 952 -1372 981 -1604 Q 1008 -1840 1008 -1987 L 1005 -2020 L 1005 -2036 Q 1005 -2060 1021 -2070 Q 1037 -2080 1075 -2080 Q 1091 -2080 1108 -2070 Q 1125 -2061 1125 -2049 Q 1125 -2030 1096 -2013 Q 1099 -2010 1099 -1997 Q 1099 -1981 1095 -1963 Q 1091 -1946 1088 -1938 Q 1059 -1698 1016 -1230 L 963 -677 L 941 -466 L 909 -196 L 896 -60 Q 896 -30 886 -15 Q 877 0 848 0 Q 805 0 797 -30 Q 792 -45 787 -101 L 784 -140 Q 720 -536 592 -1550 L 584 -1555 L 581 -1552 L 581 -1550 L 448 -145 L 448 -99 Q 448 0 403 0 Z"/>
		<path character="e" fill="#EA8872" fill-opacity="1.0" stroke="none" stroke-width="10px" stroke-linecap="butt" stroke-opacity="1.0" transform="matrix(1,0,0,1,1161,0)" d="M 243 0 Q 195 0 189 -56 L 189 -92 Q 192 -105 192 -124 L 181 -135 Q 203 -191 203 -245 Q 203 -306 195 -421 L 189 -598 Q 189 -732 197 -1000 Q 208 -1238 208 -1404 L 203 -1565 Q 197 -1635 197 -1720 Q 197 -1758 216 -1775 Q 235 -1792 275 -1792 Q 301 -1792 317 -1777 Q 323 -1774 395 -1767 Q 461 -1759 509 -1744 Q 560 -1729 560 -1706 Q 560 -1681 509 -1656 Q 357 -1712 293 -1712 L 280 -1689 Q 283 -1665 283 -1575 Q 283 -1461 277 -1371 Q 275 -1278 275 -1164 Q 275 -1090 312 -1090 L 355 -1090 Q 376 -1090 400 -1090 Q 504 -1090 504 -1057 Q 504 -1037 490 -1023 Q 477 -1010 451 -1010 Q 411 -1010 389 -1025 L 304 -1034 L 291 -1034 L 277 -1025 L 277 -1017 Q 283 -970 283 -798 Q 283 -690 280 -602 L 277 -405 Q 277 -297 285 -184 Q 288 -121 312 -100 Q 336 -80 400 -80 L 448 -80 Q 472 -80 501 -80 Q 579 -80 579 -46 Q 579 0 461 0 L 243 0 Z"/>
		<path character="l" fill="#EA8872" fill-opacity="1.0" stroke="none" stroke-width="10px" stroke-linecap="butt" stroke-opacity="1.0" transform="matrix(1,0,0,1,1874,0)" d="M 240 0 Q 203 0 195 -50 Q 200 -66 200 -139 Q 200 -387 208 -875 Q 216 -1361 216 -1577 L 221 -1674 L 229 -1755 Q 229 -1774 248 -1774 Q 261 -1774 285 -1766 L 293 -1763 Q 293 -1704 291 -1655 L 291 -1550 L 291 -1256 Q 293 -1126 293 -961 Q 291 -948 291 -902 L 288 -845 Q 285 -791 285 -734 Q 285 -672 288 -621 L 291 -505 L 283 -484 L 285 -487 Q 285 -479 283 -476 L 283 -465 Q 283 -443 291 -427 L 283 -165 L 283 -148 Q 283 -102 285 -94 Q 285 -80 299 -80 L 437 -80 Q 499 -80 521 -80 Q 544 -80 549 -80 L 557 -80 Q 571 -80 584 -65 Q 597 -50 597 -33 Q 597 0 555 0 Q 509 0 333 0 L 339 0 Q 312 0 288 0 Q 267 0 240 0 Z"/>
		<path character="c" fill="#EA8872" fill-opacity="1.0" stroke="none" stroke-width="10px" stroke-linecap="butt" stroke-opacity="1.0" transform="matrix(1,0,0,1,2523,0)" d="M 389 -24 Q 339 -39 303 -68 Q 267 -97 235 -155 Q 179 -260 168 -457 Q 163 -547 163 -615 L 163 -914 Q 163 -1085 173 -1245 Q 181 -1364 197 -1445 Q 213 -1527 248 -1608 Q 285 -1692 331 -1726 Q 349 -1742 403 -1763 Q 437 -1776 469 -1792 L 576 -1792 L 584 -1792 Q 587 -1789 592 -1789 L 605 -1787 L 616 -1779 Q 624 -1771 624 -1768 Q 627 -1763 627 -1752 L 592 -1712 L 480 -1712 Q 429 -1712 388 -1663 Q 347 -1614 325 -1541 Q 304 -1475 290 -1385 Q 277 -1295 275 -1230 Q 269 -1145 269 -1114 L 264 -1100 Q 264 -953 259 -834 L 253 -568 Q 253 -452 269 -354 Q 283 -249 347 -164 Q 408 -80 536 -80 Q 576 -80 603 -104 Q 643 -104 643 -74 Q 643 -57 609 -34 Q 576 -12 541 0 L 453 0 L 389 -24 Z"/>
		<path character="o" fill="#EA8872" fill-opacity="1.0" stroke="none" stroke-width="10px" stroke-linecap="butt" stroke-opacity="1.0" transform="matrix(1,0,0,1,3300,0)" d="M 469 32 Q 157 32 157 -952 L 157 -1046 Q 157 -1792 349 -1792 Q 363 -1792 387 -1784 Q 472 -1755 555 -1747 Q 605 -1736 656 -1642 Q 712 -1546 740 -1388 Q 768 -1230 768 -1065 L 763 -1051 Q 763 -963 765 -893 L 768 -733 Q 768 -597 757 -487 Q 741 -321 704 -201 Q 680 -128 649 -80 Q 619 -32 573 0 Q 531 32 469 32 M 459 -48 Q 563 -48 613 -194 Q 664 -343 675 -497 Q 685 -656 685 -752 Q 685 -858 669 -1065 Q 656 -1297 656 -1379 L 645 -1400 L 651 -1414 Q 651 -1535 585 -1623 Q 520 -1712 427 -1712 Q 304 -1712 280 -1589 Q 275 -1547 269 -1469 Q 269 -1273 253 -1201 Q 253 -1161 245 -1076 L 240 -951 Q 240 -893 243 -848 L 245 -741 Q 245 -616 267 -454 Q 283 -335 304 -252 Q 325 -170 365 -112 Q 405 -48 459 -48 Z"/>
		<path character="m" fill="#EA8872" fill-opacity="1.0" stroke="none" stroke-width="10px" stroke-linecap="butt" stroke-opacity="1.0" transform="matrix(1,0,0,1,4205,0)" d="M 1245 127 Q 1192 127 1192 -44 L 1192 -221 Q 1192 -606 1176 -823 L 1168 -921 Q 1157 -988 1157 -1039 Q 1157 -1130 1163 -1205 L 1168 -1371 Q 1168 -1454 1157 -1496 Q 1104 -1459 835 -376 L 832 -335 Q 824 -269 811 -229 Q 803 -200 788 -184 Q 773 -168 755 -168 Q 712 -168 693 -189 Q 675 -211 675 -256 Q 675 -327 607 -627 Q 539 -928 460 -1204 Q 381 -1481 352 -1510 Q 349 -1417 331 -1071 Q 293 -459 293 -108 L 296 -2 Q 285 32 240 32 Q 232 32 213 17 Q 195 3 195 -5 Q 195 -244 237 -845 Q 277 -1404 277 -1683 Q 277 -1699 272 -1715 Q 264 -1734 264 -1744 Q 264 -1792 333 -1792 Q 379 -1792 387 -1746 Q 397 -1684 397 -1653 L 400 -1621 Q 413 -1552 477 -1409 Q 528 -1294 555 -1209 Q 571 -1146 584 -1106 Q 627 -952 640 -877 L 675 -808 Q 683 -768 707 -678 Q 731 -577 741 -513 Q 752 -449 752 -391 Q 781 -437 918 -944 Q 1056 -1451 1080 -1592 Q 1083 -1597 1084 -1606 Q 1085 -1616 1088 -1632 Q 1093 -1668 1112 -1738 Q 1133 -1792 1176 -1792 Q 1195 -1792 1219 -1775 Q 1243 -1759 1243 -1743 Q 1243 -614 1277 -549 L 1277 -410 Q 1275 -349 1275 -269 Q 1275 -99 1293 -13 Q 1296 -11 1297 -5 Q 1299 0 1301 8 Q 1304 19 1304 32 Q 1304 64 1286 95 Q 1269 127 1245 127 M 1157 -1496 L 1155 -1496 L 1149 -1494 L 1157 -1491 L 1157 -1496 Z"/>
		<path character="e" fill="#EA8872" fill-opacity="1.0" stroke="none" stroke-width="10px" stroke-linecap="butt" stroke-opacity="1.0" transform="matrix(1,0,0,1,5750,0)" d="M 243 0 Q 195 0 189 -56 L 189 -92 Q 192 -105 192 -124 L 181 -135 Q 203 -191 203 -245 Q 203 -306 195 -421 L 189 -598 Q 189 -732 197 -1000 Q 208 -1238 208 -1404 L 203 -1565 Q 197 -1635 197 -1720 Q 197 -1758 216 -1775 Q 235 -1792 275 -1792 Q 301 -1792 317 -1777 Q 323 -1774 395 -1767 Q 461 -1759 509 -1744 Q 560 -1729 560 -1706 Q 560 -1681 509 -1656 Q 357 -1712 293 -1712 L 280 -1689 Q 283 -1665 283 -1575 Q 283 -1461 277 -1371 Q 275 -1278 275 -1164 Q 275 -1090 312 -1090 L 355 -1090 Q 376 -1090 400 -1090 Q 504 -1090 504 -1057 Q 504 -1037 490 -1023 Q 477 -1010 451 -1010 Q 411 -1010 389 -1025 L 304 -1034 L 291 -1034 L 277 -1025 L 277 -1017 Q 283 -970 283 -798 Q 283 -690 280 -602 L 277 -405 Q 277 -297 285 -184 Q 288 -121 312 -100 Q 336 -80 400 -80 L 448 -80 Q 472 -80 501 -80 Q 579 -80 579 -46 Q 579 0 461 0 L 243 0 Z"/>
</g>
</svg>