<svg xmlns="http://www.w3.org/2000/svg" xmlns:xlink="http://www.w3.org/1999/xlink" viewBox="0 0 7167 2797">
<title>Welcome</title>
<g transform="matrix(1,0,0,1,0,2752)">
  		<path character="W" fill="#CAD1D8" fill-opacity="1.0" stroke="none" stroke-width="10px" stroke-linecap="butt" stroke-opacity="1.0" transform="matrix(1,0,0,1,-64,0)" d="M 458 0 Q 352 0 352 -111 L 352 -148 Q 355 -159 355 -168 L 355 -177 L 308 -497 Q 289 -600 283 -648 Q 259 -835 232 -1066 Q 211 -1248 157 -1667 L 149 -1728 Q 111 -2020 82 -2067 Q 113 -2121 141 -2139 Q 170 -2158 202 -2158 Q 267 -2158 296 -2123 Q 326 -2089 326 -2024 L 326 -1994 L 326 -1960 L 326 -1925 Q 409 -1067 450 -317 L 444 -317 Q 403 -390 427 -723 L 432 -797 Q 451 -1126 453 -1145 Q 461 -1223 486 -1374 L 517 -1580 L 525 -1696 Q 528 -1731 529 -1757 Q 531 -1783 533 -1796 L 536 -1829 Q 536 -1846 547 -1862 Q 558 -1879 589 -1902 Q 675 -1902 699 -1863 Q 712 -1850 717 -1830 Q 723 -1810 723 -1797 Q 728 -1778 728 -1778 Q 754 -1637 842 -1056 Q 931 -475 917 -295 L 898 -287 L 947 -1323 Q 952 -1432 981 -1666 Q 1008 -1898 1008 -2040 L 1005 -2073 L 1005 -2091 Q 1005 -2145 1040 -2167 Q 1076 -2190 1130 -2190 Q 1160 -2190 1197 -2169 Q 1235 -2148 1235 -2104 Q 1235 -2053 1156 -2067 Q 1209 -2088 1209 -2052 Q 1209 -2030 1204 -2007 Q 1199 -1985 1197 -1980 Q 1169 -1747 1126 -1280 L 1073 -727 L 1051 -515 L 1019 -245 L 1006 -112 Q 1006 -69 984 -34 Q 962 0 903 0 Q 818 0 799 -69 Q 793 -89 787 -151 L 784 -188 Q 721 -583 629 -1594 L 640 -1604 L 641 -1605 L 691 -1602 L 558 -197 L 558 -154 Q 558 0 458 0 Z"/>
		<path character="e" fill="#CAD1D8" fill-opacity="1.0" stroke="none" stroke-width="10px" stroke-linecap="butt" stroke-opacity="1.0" transform="matrix(1,0,0,1,1272,0)" d="M 298 0 Q 201 0 189 -108 L 189 -153 Q 192 -166 208 -163 L 172 -177 Q 203 -256 203 -300 Q 203 -359 195 -473 L 189 -652 Q 189 -788 197 -1057 Q 208 -1294 208 -1458 L 203 -1617 Q 197 -1688 197 -1775 Q 197 -1838 233 -1870 Q 269 -1902 330 -1902 Q 378 -1902 400 -1872 Q 389 -1866 456 -1877 Q 528 -1868 580 -1852 Q 670 -1825 670 -1761 Q 670 -1702 567 -1651 Q 402 -1712 374 -1722 L 392 -1733 Q 393 -1723 393 -1630 Q 393 -1514 387 -1424 Q 385 -1332 385 -1219 Q 367 -1182 367 -1200 L 410 -1200 Q 431 -1200 455 -1200 Q 614 -1200 614 -1112 Q 614 -1069 584 -1039 Q 555 -1010 506 -1010 Q 449 -1010 424 -1027 L 356 -1034 L 359 -1045 L 347 -1072 L 387 -1075 Q 393 -1028 393 -853 Q 393 -744 390 -656 L 387 -460 Q 387 -354 395 -242 Q 397 -202 404 -196 Q 411 -190 455 -190 L 503 -190 Q 527 -190 556 -190 Q 689 -190 689 -101 Q 689 0 516 0 L 298 0 Z"/>
		<path character="l" fill="#CAD1D8" fill-opacity="1.0" stroke="none" stroke-width="10px" stroke-linecap="butt" stroke-opacity="1.0" transform="matrix(1,0,0,1,2096,0)" d="M 295 0 Q 211 0 194 -109 Q 200 -129 200 -194 Q 200 -442 208 -931 Q 216 -1416 216 -1633 L 221 -1733 L 229 -1813 Q 229 -1884 303 -1884 Q 325 -1884 358 -1873 L 403 -1856 Q 403 -1758 401 -1709 L 401 -1605 L 401 -1311 Q 403 -1181 403 -1012 Q 401 -999 401 -956 L 398 -897 Q 395 -844 395 -789 Q 395 -729 398 -678 L 401 -551 L 338 -539 L 395 -724 Q 395 -517 351 -527 L 393 -520 Q 393 -511 401 -494 L 393 -219 L 393 -203 Q 393 -164 395 -156 Q 354 -149 354 -190 L 492 -190 Q 554 -190 576 -190 Q 599 -190 604 -190 L 612 -190 Q 651 -190 679 -158 Q 707 -126 707 -88 Q 707 0 610 0 Q 564 0 388 -55 L 394 -55 Q 367 0 343 0 Q 322 0 295 0 Z"/>
		<path character="c" fill="#CAD1D8" fill-opacity="1.0" stroke="none" stroke-width="10px" stroke-linecap="butt" stroke-opacity="1.0" transform="matrix(1,0,0,1,2856,0)" d="M 426 -27 Q 368 -44 323 -80 Q 279 -116 242 -184 Q 180 -300 168 -509 Q 163 -600 163 -670 L 163 -969 Q 163 -1142 173 -1304 Q 181 -1426 198 -1512 Q 215 -1598 253 -1685 Q 296 -1783 351 -1824 Q 375 -1845 438 -1869 Q 470 -1881 511 -1902 L 631 -1902 L 662 -1902 Q 646 -1854 651 -1899 L 682 -1894 L 707 -1876 Q 734 -1849 690 -1826 Q 737 -1833 737 -1786 L 672 -1712 L 535 -1712 Q 510 -1712 480 -1677 Q 451 -1642 433 -1580 Q 413 -1518 400 -1431 Q 387 -1345 385 -1282 Q 379 -1198 379 -1159 L 374 -1145 Q 374 -1007 369 -887 L 363 -622 Q 363 -511 378 -417 Q 391 -326 446 -252 Q 491 -190 591 -190 Q 610 -190 637 -214 Q 753 -214 753 -129 Q 753 -83 704 -50 Q 656 -17 605 0 L 498 0 L 426 -27 Z"/>
		<path character="o" fill="#CAD1D8" fill-opacity="1.0" stroke="none" stroke-width="10px" stroke-linecap="butt" stroke-opacity="1.0" transform="matrix(1,0,0,1,3744,0)" d="M 524 32 Q 157 32 157 -1007 L 157 -1101 Q 157 -1902 404 -1902 Q 427 -1902 460 -1891 Q 539 -1864 619 -1856 Q 696 -1839 759 -1724 Q 819 -1620 848 -1455 Q 878 -1290 878 -1110 L 873 -1096 Q 873 -1019 875 -949 L 878 -789 Q 878 -649 867 -537 Q 850 -365 811 -239 Q 785 -159 749 -103 Q 714 -48 660 -11 Q 605 32 524 32 M 514 -158 Q 579 -158 616 -267 Q 665 -409 675 -556 Q 685 -713 685 -807 Q 685 -911 669 -1116 Q 656 -1350 656 -1420 L 639 -1453 L 651 -1480 Q 651 -1572 599 -1642 Q 547 -1712 482 -1712 Q 404 -1712 389 -1635 Q 385 -1597 379 -1522 Q 379 -1322 363 -1250 Q 363 -1213 355 -1127 L 350 -1005 Q 350 -950 353 -905 L 355 -797 Q 355 -675 377 -516 Q 392 -400 411 -324 Q 431 -248 466 -197 Q 490 -158 514 -158 Z"/>
		<path character="m" fill="#CAD1D8" fill-opacity="1.0" stroke="none" stroke-width="10px" stroke-linecap="butt" stroke-opacity="1.0" transform="matrix(1,0,0,1,4760,0)" d="M 1300 127 Q 1192 127 1192 -99 L 1192 -276 Q 1192 -659 1176 -874 L 1168 -969 Q 1157 -1039 1157 -1094 Q 1157 -1187 1163 -1263 L 1168 -1427 Q 1168 -1502 1194 -1502 Q 1207 -1481 945 -422 L 942 -385 Q 933 -312 919 -268 Q 907 -227 879 -197 Q 852 -168 810 -168 Q 742 -168 708 -207 Q 675 -246 675 -311 Q 675 -376 608 -672 Q 541 -969 464 -1238 Q 387 -1507 423 -1523 Q 459 -1470 441 -1123 Q 403 -512 403 -164 L 406 -49 Q 380 32 295 32 Q 268 32 231 3 Q 195 -25 195 -60 Q 195 -301 237 -904 Q 277 -1461 277 -1738 Q 277 -1746 275 -1751 Q 264 -1778 264 -1799 Q 264 -1902 388 -1902 Q 480 -1902 496 -1810 Q 507 -1743 507 -1711 L 510 -1684 Q 521 -1624 582 -1486 Q 635 -1369 663 -1279 Q 679 -1216 692 -1177 Q 736 -1019 748 -950 L 782 -881 Q 792 -835 815 -746 Q 840 -643 851 -575 Q 862 -508 823 -500 Q 785 -514 921 -1016 Q 1057 -1518 1083 -1666 Q 1112 -1661 1099 -1670 Q 1086 -1679 1089 -1696 Q 1094 -1734 1115 -1810 Q 1150 -1902 1231 -1902 Q 1267 -1902 1310 -1872 Q 1353 -1843 1353 -1798 Q 1353 -683 1387 -618 L 1387 -464 Q 1385 -403 1385 -324 Q 1385 -160 1357 -74 Q 1399 -100 1403 -84 Q 1407 -69 1409 -61 Q 1414 -43 1414 -23 Q 1414 23 1385 75 Q 1356 127 1300 127 M 1210 -1549 L 1212 -1539 L 1210 -1549 L 1209 -1551 L 1210 -1549 Z"/>
		<path character="e" fill="#CAD1D8" fill-opacity="1.0" stroke="none" stroke-width="10px" stroke-linecap="butt" stroke-opacity="1.0" transform="matrix(1,0,0,1,6416,0)" d="M 298 0 Q 201 0 189 -108 L 189 -153 Q 192 -166 208 -163 L 172 -177 Q 203 -256 203 -300 Q 203 -359 195 -473 L 189 -652 Q 189 -788 197 -1057 Q 208 -1294 208 -1458 L 203 -1617 Q 197 -1688 197 -1775 Q 197 -1838 233 -1870 Q 269 -1902 330 -1902 Q 378 -1902 400 -1872 Q 389 -1866 456 -1877 Q 528 -1868 580 -1852 Q 670 -1825 670 -1761 Q 670 -1702 567 -1651 Q 402 -1712 374 -1722 L 392 -1733 Q 393 -1723 393 -1630 Q 393 -1514 387 -1424 Q 385 -1332 385 -1219 Q 367 -1182 367 -1200 L 410 -1200 Q 431 -1200 455 -1200 Q 614 -1200 614 -1112 Q 614 -1069 584 -1039 Q 555 -1010 506 -1010 Q 449 -1010 424 -1027 L 356 -1034 L 359 -1045 L 347 -1072 L 387 -1075 Q 393 -1028 393 -853 Q 393 -744 390 -656 L 387 -460 Q 387 -354 395 -242 Q 397 -202 404 -196 Q 411 -190 455 -190 L 503 -190 Q 527 -190 556 -190 Q 689 -190 689 -101 Q 689 0 516 0 L 298 0 Z"/>
</g>
</svg>