<svg xmlns="http://www.w3.org/2000/svg" xmlns:xlink="http://www.w3.org/1999/xlink" viewBox="0 0 10788 3546">
<title>Welcome</title>
<g transform="matrix(1,0,0,1,0,2624)">
  		<path character="W" fill="#EA8872" fill-opacity="1.0" stroke="none" stroke-width="0" stroke-linecap="butt" stroke-opacity="1.0" transform="matrix(1,0,0,1,-64,0)" d="M 528 -37 Q 501 0 435 0 Q 369 0 323 -36 Q 277 -73 247 -128 Q 186 -238 186 -347 Q 186 -457 210 -572 Q 235 -687 277 -814 Q 319 -942 375 -1075 Q 431 -1208 494 -1335 Q 622 -1599 749 -1792 L 735 -1792 Q 579 -1792 445 -1720 Q 412 -1694 382 -1694 Q 319 -1694 260 -1757 Q 123 -1905 423 -2001 Q 563 -2048 649 -2048 Q 735 -2048 787 -2020 Q 840 -1993 877 -1956 Q 935 -1897 959 -1839 Q 983 -1782 983 -1738 Q 983 -1695 957 -1622 Q 932 -1549 893 -1466 L 803 -1289 Q 756 -1197 709 -1095 Q 662 -993 614 -891 Q 567 -790 530 -694 Q 450 -478 450 -328 Q 450 -245 466 -185 L 604 -419 Q 1024 -1110 1433 -1458 Q 1549 -1557 1662 -1614 Q 1680 -1623 1705 -1623 Q 1730 -1623 1758 -1617 Q 1786 -1611 1811 -1599 Q 1869 -1571 1869 -1531 Q 1869 -1512 1856 -1496 L 1810 -1445 Q 1547 -1161 1457 -653 Q 1428 -497 1428 -405 Q 1428 -313 1433 -279 Q 1439 -246 1454 -217 Q 1490 -150 1560 -150 Q 1631 -150 1718 -205 Q 1805 -260 1893 -356 Q 1982 -452 2065 -581 Q 2149 -711 2213 -859 Q 2357 -1187 2357 -1484 Q 2357 -1713 2260 -1872 Q 2234 -1914 2311 -1979 Q 2390 -2048 2489 -2048 Q 2618 -2048 2664 -1812 Q 2680 -1735 2680 -1609 Q 2680 -1483 2650 -1332 Q 2620 -1181 2565 -1037 Q 2511 -893 2437 -760 Q 2363 -628 2275 -513 Q 2187 -398 2088 -303 Q 1990 -209 1887 -142 Q 1676 0 1487 0 Q 1314 0 1229 -131 Q 1154 -245 1154 -421 Q 1154 -712 1271 -986 Q 1162 -868 1058 -743 Q 801 -418 700 -278 L 528 -37 Z"/>
		<path character="e" fill="#EA8872" fill-opacity="1.0" stroke="none" stroke-width="0" stroke-linecap="butt" stroke-opacity="1.0" transform="matrix(1,0,0,1,2513,0)" d="M 108 -463 Q 113 -575 146 -677 Q 179 -779 234 -875 Q 289 -971 363 -1056 Q 437 -1142 524 -1206 Q 712 -1344 903 -1344 Q 1128 -1344 1202 -1164 Q 1229 -1102 1227 -1018 Q 1226 -935 1194 -864 Q 1163 -793 1107 -735 Q 1051 -677 974 -631 Q 898 -585 807 -553 Q 621 -489 408 -489 Q 403 -471 401 -434 Q 400 -397 409 -351 Q 419 -306 441 -271 Q 488 -192 578 -192 Q 730 -192 874 -281 Q 925 -311 957 -343 Q 990 -375 1013 -375 Q 1037 -375 1054 -347 Q 1072 -319 1072 -284 Q 1072 -215 1033 -164 Q 868 0 541 0 Q 348 0 231 -113 Q 100 -242 108 -463 M 874 -1194 Q 736 -1194 609 -1004 Q 502 -841 436 -617 Q 655 -639 817 -791 Q 965 -933 965 -1063 Q 965 -1194 874 -1194 Z"/>
		<path character="l" fill="#EA8872" fill-opacity="1.0" stroke="none" stroke-width="0" stroke-linecap="butt" stroke-opacity="1.0" transform="matrix(1,0,0,1,3809,0)" d="M 159 -65 Q 126 -99 105 -151 Q 85 -204 85 -274 Q 85 -344 117 -461 Q 150 -578 200 -728 L 310 -1052 Q 545 -1729 581 -2099 Q 593 -2208 689 -2208 Q 749 -2208 789 -2180 Q 865 -2123 862 -2054 Q 860 -1985 837 -1885 Q 815 -1786 779 -1668 Q 744 -1551 698 -1420 L 517 -899 Q 361 -455 361 -325 Q 361 -256 419 -256 Q 474 -256 519 -272 Q 564 -288 578 -288 Q 605 -288 605 -259 Q 605 -138 486 -56 Q 406 0 339 0 Q 273 0 232 -15 Q 192 -31 159 -65 Z"/>
		<path character="c" fill="#EA8872" fill-opacity="1.0" stroke="none" stroke-width="0" stroke-linecap="butt" stroke-opacity="1.0" transform="matrix(1,0,0,1,4594,0)" d="M 89 -457 Q 92 -568 125 -679 Q 159 -791 214 -890 Q 270 -989 347 -1072 Q 424 -1156 514 -1217 Q 703 -1344 912 -1344 Q 1127 -1344 1205 -1178 Q 1232 -1118 1230 -1042 Q 1228 -967 1204 -904 Q 1181 -841 1146 -792 Q 1066 -680 984 -680 Q 894 -680 850 -730 Q 812 -773 827 -830 Q 831 -847 850 -861 Q 870 -875 900 -905 Q 985 -994 989 -1113 Q 992 -1194 890 -1194 Q 779 -1194 659 -1071 Q 483 -892 411 -613 Q 348 -370 434 -257 Q 485 -192 573 -192 Q 722 -192 859 -296 Q 901 -329 927 -363 Q 954 -397 976 -397 Q 999 -397 1014 -375 Q 1029 -354 1029 -320 Q 1029 -243 959 -169 Q 781 0 530 0 Q 316 0 199 -120 Q 84 -238 89 -457 Z"/>
		<path character="o" fill="#EA8872" fill-opacity="1.0" stroke="none" stroke-width="0" stroke-linecap="butt" stroke-opacity="1.0" transform="matrix(1,0,0,1,5891,0)" d="M 216 -100 Q 161 -152 129 -231 Q 98 -310 97 -418 Q 96 -526 124 -636 Q 152 -747 204 -850 Q 256 -953 328 -1043 Q 401 -1133 489 -1200 Q 681 -1344 887 -1344 Q 1157 -1344 1253 -1111 Q 1321 -943 1261 -704 Q 1206 -484 1059 -300 Q 913 -116 715 -39 Q 615 0 518 0 Q 422 0 346 -24 Q 271 -49 216 -100 M 467 -724 Q 428 -629 405 -529 Q 382 -429 383 -340 Q 384 -251 411 -200 Q 438 -150 498 -150 Q 559 -150 617 -190 Q 676 -231 731 -297 Q 786 -364 834 -451 Q 883 -538 920 -633 Q 1000 -839 997 -999 Q 997 -1140 938 -1179 Q 915 -1194 872 -1194 Q 829 -1194 774 -1156 Q 719 -1118 664 -1054 Q 609 -990 557 -904 Q 506 -819 467 -724 Z"/>
		<path character="m" fill="#EA8872" fill-opacity="1.0" stroke="none" stroke-width="0" stroke-linecap="butt" stroke-opacity="1.0" transform="matrix(1,0,0,1,7315,0)" d="M 1084 -1088 Q 1008 -1088 806 -874 Q 655 -708 587 -624 L 469 -479 Q 392 -339 349 -247 L 278 -99 Q 251 -44 230 -22 Q 210 0 175 0 Q 140 0 108 -12 Q 76 -24 53 -44 Q 3 -85 3 -134 Q 3 -153 32 -210 L 81 -314 Q 105 -360 137 -432 L 210 -608 Q 365 -988 365 -1098 Q 365 -1158 326 -1186 L 299 -1204 Q 286 -1213 286 -1235 Q 286 -1258 304 -1278 Q 322 -1299 350 -1314 Q 410 -1344 469 -1344 Q 529 -1344 563 -1331 Q 597 -1318 622 -1296 Q 672 -1250 672 -1200 Q 672 -1150 659 -1099 Q 646 -1049 626 -997 Q 606 -945 584 -897 Q 532 -784 519 -758 Q 507 -733 512 -739 Q 752 -1050 801 -1107 Q 902 -1224 958 -1267 Q 1062 -1344 1154 -1344 Q 1247 -1344 1302 -1287 Q 1357 -1231 1357 -1139 Q 1357 -1058 1315 -949 Q 1273 -841 1259 -797 L 1452 -1046 L 1559 -1171 Q 1656 -1277 1729 -1310 Q 1803 -1344 1850 -1344 Q 1897 -1344 1942 -1327 Q 1987 -1311 2019 -1281 Q 2086 -1220 2086 -1119 Q 2086 -1021 2038 -918 Q 1991 -816 1955 -750 Q 1920 -685 1887 -619 Q 1792 -420 1792 -324 Q 1792 -256 1849 -256 Q 1904 -256 1949 -278 Q 1995 -301 2008 -301 Q 2036 -301 2036 -271 Q 2036 -144 1916 -58 Q 1836 0 1770 0 Q 1704 0 1663 -15 Q 1622 -31 1589 -64 Q 1516 -137 1516 -247 Q 1516 -358 1545 -451 Q 1574 -544 1613 -631 Q 1652 -718 1692 -791 Q 1733 -864 1754 -908 Q 1796 -996 1796 -1038 Q 1796 -1088 1742 -1088 Q 1671 -1088 1487 -860 Q 1348 -684 1294 -606 L 1204 -479 Q 1127 -339 1087 -247 L 1020 -99 Q 995 -44 976 -22 Q 958 0 925 0 Q 893 0 862 -10 Q 831 -20 809 -37 Q 757 -74 757 -115 Q 757 -156 785 -228 Q 814 -300 856 -389 L 1040 -765 Q 1138 -975 1138 -1031 Q 1138 -1088 1084 -1088 M 1214 -744 Q 1215 -744 1215 -746 L 1217 -748 Q 1214 -745 1214 -744 Z"/>
		<path character="e" fill="#EA8872" fill-opacity="1.0" stroke="none" stroke-width="0" stroke-linecap="butt" stroke-opacity="1.0" transform="matrix(1,0,0,1,9508,0)" d="M 108 -463 Q 113 -575 146 -677 Q 179 -779 234 -875 Q 289 -971 363 -1056 Q 437 -1142 524 -1206 Q 712 -1344 903 -1344 Q 1128 -1344 1202 -1164 Q 1229 -1102 1227 -1018 Q 1226 -935 1194 -864 Q 1163 -793 1107 -735 Q 1051 -677 974 -631 Q 898 -585 807 -553 Q 621 -489 408 -489 Q 403 -471 401 -434 Q 400 -397 409 -351 Q 419 -306 441 -271 Q 488 -192 578 -192 Q 730 -192 874 -281 Q 925 -311 957 -343 Q 990 -375 1013 -375 Q 1037 -375 1054 -347 Q 1072 -319 1072 -284 Q 1072 -215 1033 -164 Q 868 0 541 0 Q 348 0 231 -113 Q 100 -242 108 -463 M 874 -1194 Q 736 -1194 609 -1004 Q 502 -841 436 -617 Q 655 -639 817 -791 Q 965 -933 965 -1063 Q 965 -1194 874 -1194 Z"/>
</g>
</svg>