<svg xmlns="http://www.w3.org/2000/svg" xmlns:xlink="http://www.w3.org/1999/xlink" viewBox="0 0 14125 3092">
<title>Welcome</title>
<g transform="matrix(1,0,0,1,0,2816)">
  		<path character="W" fill="#A5834B" fill-opacity="1.0" stroke="none" stroke-width="10px" stroke-linecap="butt" stroke-opacity="1.0" transform="matrix(1,0,0,1,0,0)" d="M 2334 -2222 L 3297 -2222 L 3297 -1633 L 3178 -1633 L 2781 0 L 1896 0 L 1671 -1174 L 1698 -1173 L 1459 0 L 575 0 L 151 -1633 L 32 -1633 L 32 -2222 L 1129 -2222 L 1129 -1633 L 1036 -1633 L 1103 -1046 L 1076 -1049 L 1312 -2222 L 2170 -2222 L 2386 -1048 L 2359 -1046 L 2426 -1633 L 2334 -1633 L 2334 -2222 Z"/>
		<path character="e" fill="#A5834B" fill-opacity="1.0" stroke="none" stroke-width="10px" stroke-linecap="butt" stroke-opacity="1.0" transform="matrix(1,0,0,1,3328,0)" d="M 898 32 Q 498 32 267 -179 Q 37 -391 37 -791 Q 37 -1191 267 -1402 Q 498 -1614 898 -1614 Q 1299 -1614 1480 -1403 Q 1662 -1192 1662 -885 L 1662 -640 L 758 -680 L 798 -680 Q 798 -617 838 -587 Q 878 -557 996 -557 Q 1155 -557 1297 -578 Q 1440 -600 1617 -656 L 1617 -123 Q 1489 -53 1301 -10 Q 1114 32 898 32 M 1027 -1040 L 997 -1040 Q 997 -1086 976 -1103 Q 955 -1120 898 -1120 Q 840 -1120 819 -1102 Q 798 -1084 798 -1040 L 768 -1040 L 1027 -1040 Z"/>
		<path character="l" fill="#A5834B" fill-opacity="1.0" stroke="none" stroke-width="10px" stroke-linecap="butt" stroke-opacity="1.0" transform="matrix(1,0,0,1,5055,0)" d="M 48 0 L 48 -589 L 165 -589 L 165 -1633 L 48 -1633 L 48 -2222 L 889 -2222 L 889 -589 L 1006 -589 L 1006 0 L 48 0 Z"/>
		<path character="c" fill="#A5834B" fill-opacity="1.0" stroke="none" stroke-width="10px" stroke-linecap="butt" stroke-opacity="1.0" transform="matrix(1,0,0,1,6143,0)" d="M 900 32 Q 498 32 267 -179 Q 37 -391 37 -791 Q 37 -1191 267 -1402 Q 498 -1614 898 -1614 Q 1090 -1614 1266 -1559 Q 1443 -1505 1566 -1417 L 1566 -818 L 997 -818 L 997 -918 Q 997 -980 975 -1002 Q 954 -1025 898 -1025 Q 798 -1025 798 -918 L 798 -700 Q 798 -557 980 -557 Q 1198 -557 1550 -612 L 1550 -90 Q 1422 -33 1251 0 Q 1081 32 900 32 Z"/>
		<path character="o" fill="#A5834B" fill-opacity="1.0" stroke="none" stroke-width="10px" stroke-linecap="butt" stroke-opacity="1.0" transform="matrix(1,0,0,1,7743,0)" d="M 898 32 Q 498 32 267 -179 Q 37 -391 37 -791 Q 37 -1191 267 -1402 Q 498 -1614 898 -1614 Q 1304 -1614 1531 -1400 Q 1758 -1186 1758 -791 Q 1758 -391 1527 -179 Q 1297 32 898 32 M 898 -557 Q 952 -557 974 -580 Q 997 -603 997 -664 L 997 -918 Q 997 -979 974 -1002 Q 952 -1025 898 -1025 Q 843 -1025 820 -1002 Q 798 -979 798 -918 L 798 -664 Q 798 -603 820 -580 Q 843 -557 898 -557 Z"/>
		<path character="m" fill="#A5834B" fill-opacity="1.0" stroke="none" stroke-width="10px" stroke-linecap="butt" stroke-opacity="1.0" transform="matrix(1,0,0,1,9534,0)" d="M 2852 -589 L 2852 0 L 1899 0 L 1899 -589 L 2011 -589 L 2011 -927 Q 2011 -983 1989 -1004 Q 1968 -1025 1917 -1025 Q 1812 -1025 1812 -927 L 1812 -589 L 1924 -589 L 1924 0 L 976 0 L 976 -589 L 1088 -589 L 1088 -927 Q 1088 -983 1066 -1004 Q 1045 -1025 994 -1025 Q 889 -1025 889 -927 L 889 -589 L 1001 -589 L 1001 0 L 48 0 L 48 -589 L 165 -589 L 165 -1025 L 48 -1025 L 48 -1582 L 889 -1582 L 889 -1473 Q 999 -1614 1314 -1614 Q 1495 -1614 1612 -1526 Q 1729 -1439 1744 -1392 Q 1782 -1448 1917 -1531 Q 2053 -1614 2237 -1614 Q 2484 -1614 2609 -1465 Q 2734 -1316 2734 -1065 L 2734 -589 L 2852 -589 Z"/>
		<path character="e" fill="#A5834B" fill-opacity="1.0" stroke="none" stroke-width="10px" stroke-linecap="butt" stroke-opacity="1.0" transform="matrix(1,0,0,1,12414,0)" d="M 898 32 Q 498 32 267 -179 Q 37 -391 37 -791 Q 37 -1191 267 -1402 Q 498 -1614 898 -1614 Q 1299 -1614 1480 -1403 Q 1662 -1192 1662 -885 L 1662 -640 L 758 -680 L 798 -680 Q 798 -617 838 -587 Q 878 -557 996 -557 Q 1155 -557 1297 -578 Q 1440 -600 1617 -656 L 1617 -123 Q 1489 -53 1301 -10 Q 1114 32 898 32 M 1027 -1040 L 997 -1040 Q 997 -1086 976 -1103 Q 955 -1120 898 -1120 Q 840 -1120 819 -1102 Q 798 -1084 798 -1040 L 768 -1040 L 1027 -1040 Z"/>
</g>
</svg>