<svg xmlns="http://www.w3.org/2000/svg" xmlns:xlink="http://www.w3.org/1999/xlink" viewBox="0 0 8611 3597">
<title>Single Files</title>
<g transform="matrix(1,0,0,1,0,2752)">
  		<path character="S" fill="#EA8872" fill-opacity="1.0" stroke="none" stroke-width="10px" stroke-linecap="butt" stroke-opacity="1.0" transform="matrix(1,0,0,1,-128,0)" d="M 307 64 Q 259 64 233 58 Q 208 53 179 36 Q 147 15 131 -24 Q 131 -56 160 -56 Q 189 -56 235 -37 Q 277 -16 307 -16 Q 365 -16 414 -64 Q 464 -113 491 -191 Q 544 -344 544 -462 Q 544 -594 506 -728 Q 469 -863 408 -981 Q 395 -1010 363 -1070 Q 296 -1204 261 -1279 Q 227 -1354 200 -1446 Q 163 -1567 163 -1706 Q 163 -1795 191 -1877 Q 219 -1959 280 -2018 Q 347 -2080 429 -2080 Q 461 -2080 506 -2047 Q 552 -2014 552 -1982 Q 552 -1961 536 -1961 Q 520 -1961 493 -1980 Q 469 -2000 448 -2000 Q 387 -2000 340 -1954 Q 293 -1908 272 -1841 Q 253 -1784 253 -1716 Q 253 -1611 280 -1499 Q 307 -1387 352 -1289 L 445 -1092 L 472 -1036 Q 528 -919 558 -843 Q 589 -768 611 -674 Q 640 -547 640 -430 Q 640 -274 560 -112 Q 520 -33 453 15 Q 387 64 307 64 Z"/>
		<path character="i" fill="#EA8872" fill-opacity="1.0" stroke="none" stroke-width="10px" stroke-linecap="butt" stroke-opacity="1.0" transform="matrix(1,0,0,1,713,0)" d="M 336 0 Q 275 0 264 -53 Q 251 -53 243 -50 L 221 -50 Q 163 -50 147 -80 Q 147 -101 168 -115 L 181 -130 L 259 -130 L 269 -141 L 275 -164 L 277 -196 Q 277 -358 269 -485 L 264 -584 L 259 -777 Q 259 -881 267 -1088 L 272 -1396 Q 272 -1598 259 -1704 Q 235 -1712 179 -1712 L 149 -1712 Q 133 -1712 115 -1712 Q 64 -1712 64 -1757 Q 64 -1769 88 -1780 Q 112 -1792 128 -1792 Q 229 -1792 331 -1792 Q 392 -1792 453 -1766 Q 501 -1747 501 -1712 Q 501 -1705 493 -1685 L 432 -1678 Q 413 -1712 355 -1712 L 341 -1704 Q 349 -1680 349 -1561 Q 349 -1384 347 -1242 L 341 -922 Q 341 -801 352 -629 Q 360 -432 360 -333 L 360 -298 Q 357 -279 357 -250 Q 357 -188 365 -174 L 363 -169 Q 363 -130 421 -130 Q 445 -130 461 -130 L 501 -130 Q 579 -130 579 -97 Q 579 -76 563 -63 Q 547 -50 520 -50 Q 496 -50 477 -50 Q 456 -50 432 -50 Q 416 -50 384 -27 Q 352 0 336 0 Z"/>
		<path character="n" fill="#EA8872" fill-opacity="1.0" stroke="none" stroke-width="10px" stroke-linecap="butt" stroke-opacity="1.0" transform="matrix(1,0,0,1,1362,0)" d="M 872 -10 Q 851 -10 841 -26 Q 832 -42 824 -74 Q 821 -96 813 -112 L 816 -120 Q 795 -245 725 -426 L 677 -565 Q 672 -570 627 -701 L 605 -765 Q 365 -1507 304 -1569 Q 283 -1496 283 -1380 Q 283 -1317 285 -1271 L 288 -1166 L 285 -1101 Q 283 -1071 283 -1036 Q 283 -977 288 -934 Q 293 -848 293 -848 L 285 -848 Q 285 -398 304 -352 L 304 -109 Q 315 -87 315 -52 Q 315 -31 300 -15 Q 285 0 264 0 Q 208 0 208 -144 L 213 -230 Q 219 -270 219 -318 Q 219 -446 211 -702 Q 203 -958 203 -1086 Q 203 -1163 211 -1324 Q 219 -1481 219 -1558 L 219 -1593 Q 219 -1724 267 -1764 L 275 -1756 L 301 -1761 Q 312 -1758 325 -1745 Q 336 -1734 336 -1721 L 341 -1705 Q 341 -1700 342 -1696 Q 344 -1692 344 -1692 Q 387 -1502 536 -1161 Q 688 -801 725 -683 Q 752 -590 768 -518 Q 819 -291 888 -168 L 893 -176 Q 955 -775 955 -1647 L 952 -1680 Q 949 -1693 949 -1715 Q 949 -1792 987 -1792 Q 1011 -1792 1028 -1766 Q 1045 -1740 1045 -1707 L 1045 -1512 L 1032 -1491 Q 1032 -1237 1002 -658 Q 973 -80 947 -29 L 901 -18 L 901 -16 L 899 -18 L 872 -10 Z"/>
		<path character="g" fill="#EA8872" fill-opacity="1.0" stroke="none" stroke-width="10px" stroke-linecap="butt" stroke-opacity="1.0" transform="matrix(1,0,0,1,2587,0)" d="M 507 0 Q 384 0 325 -30 Q 267 -60 239 -145 Q 211 -231 189 -418 Q 157 -692 157 -844 Q 157 -936 168 -1055 L 184 -1226 Q 197 -1423 214 -1523 Q 232 -1624 292 -1701 Q 352 -1779 477 -1792 Q 491 -1792 520 -1792 Q 603 -1792 603 -1753 Q 603 -1737 585 -1724 Q 568 -1712 549 -1712 L 523 -1712 L 499 -1712 Q 453 -1712 417 -1682 Q 381 -1653 357 -1598 Q 301 -1464 285 -1337 Q 264 -1169 259 -1044 L 256 -839 Q 256 -708 264 -644 Q 283 -615 289 -555 Q 296 -495 301 -391 Q 307 -298 325 -233 Q 344 -168 392 -125 Q 445 -80 539 -80 Q 616 -80 648 -168 Q 685 -261 691 -360 Q 699 -483 699 -568 L 699 -719 Q 672 -754 605 -754 L 584 -754 Q 571 -754 555 -754 Q 491 -754 491 -787 Q 491 -834 555 -834 Q 600 -834 629 -834 L 688 -834 Q 739 -826 768 -814 Q 800 -803 800 -783 Q 800 -747 784 -680 Q 771 -601 771 -573 Q 771 -455 776 -359 Q 779 -261 779 -143 Q 643 0 507 0 Z"/>
		<path character="l" fill="#EA8872" fill-opacity="1.0" stroke="none" stroke-width="10px" stroke-linecap="butt" stroke-opacity="1.0" transform="matrix(1,0,0,1,3492,0)" d="M 240 0 Q 203 0 195 -50 Q 200 -66 200 -139 Q 200 -387 208 -875 Q 216 -1361 216 -1577 L 221 -1674 L 229 -1755 Q 229 -1774 248 -1774 Q 261 -1774 285 -1766 L 293 -1763 Q 293 -1704 291 -1655 L 291 -1550 L 291 -1256 Q 293 -1126 293 -961 Q 291 -948 291 -902 L 288 -845 Q 285 -791 285 -734 Q 285 -672 288 -621 L 291 -505 L 283 -484 L 285 -487 Q 285 -479 283 -476 L 283 -465 Q 283 -443 291 -427 L 283 -165 L 283 -148 Q 283 -102 285 -94 Q 285 -80 299 -80 L 437 -80 Q 499 -80 521 -80 Q 544 -80 549 -80 L 557 -80 Q 571 -80 584 -65 Q 597 -50 597 -33 Q 597 0 555 0 Q 509 0 333 0 L 339 0 Q 312 0 288 0 Q 267 0 240 0 Z"/>
		<path character="e" fill="#EA8872" fill-opacity="1.0" stroke="none" stroke-width="10px" stroke-linecap="butt" stroke-opacity="1.0" transform="matrix(1,0,0,1,4141,0)" d="M 243 0 Q 195 0 189 -56 L 189 -92 Q 192 -105 192 -124 L 181 -135 Q 203 -191 203 -245 Q 203 -306 195 -421 L 189 -598 Q 189 -732 197 -1000 Q 208 -1238 208 -1404 L 203 -1565 Q 197 -1635 197 -1720 Q 197 -1758 216 -1775 Q 235 -1792 275 -1792 Q 301 -1792 317 -1777 Q 323 -1774 395 -1767 Q 461 -1759 509 -1744 Q 560 -1729 560 -1706 Q 560 -1681 509 -1656 Q 357 -1712 293 -1712 L 280 -1689 Q 283 -1665 283 -1575 Q 283 -1461 277 -1371 Q 275 -1278 275 -1164 Q 275 -1090 312 -1090 L 355 -1090 Q 376 -1090 400 -1090 Q 504 -1090 504 -1057 Q 504 -1037 490 -1023 Q 477 -1010 451 -1010 Q 411 -1010 389 -1025 L 304 -1034 L 291 -1034 L 277 -1025 L 277 -1017 Q 283 -970 283 -798 Q 283 -690 280 -602 L 277 -405 Q 277 -297 285 -184 Q 288 -121 312 -100 Q 336 -80 400 -80 L 448 -80 Q 472 -80 501 -80 Q 579 -80 579 -46 Q 579 0 461 0 L 243 0 Z"/>
		<path character="F" fill="#EA8872" fill-opacity="1.0" stroke="none" stroke-width="10px" stroke-linecap="butt" stroke-opacity="1.0" transform="matrix(1,0,0,1,5311,0)" d="M 296 0 Q 253 0 253 -70 L 253 -271 L 245 -436 Q 221 -880 221 -1089 Q 221 -1203 192 -1799 Q 187 -1929 184 -1965 Q 181 -2002 181 -2005 L 181 -2024 Q 181 -2043 208 -2048 Q 224 -2048 301 -2048 L 360 -2048 L 435 -2048 Q 456 -2048 466 -2032 Q 477 -2016 477 -1992 Q 477 -1968 429 -1968 L 368 -1968 L 299 -1968 Q 277 -1968 272 -1960 Q 267 -1952 267 -1916 Q 267 -1862 285 -1521 Q 304 -1179 304 -1122 Q 336 -1122 395 -1138 Q 456 -1154 485 -1154 Q 501 -1154 513 -1134 Q 525 -1115 525 -1098 Q 525 -1068 482 -1058 Q 440 -1048 360 -1048 Q 304 -1040 304 -1015 Q 304 -893 331 -559 Q 355 -255 355 -100 L 347 -87 Q 355 -68 355 -52 Q 355 0 296 0 Z"/>
		<path character="i" fill="#EA8872" fill-opacity="1.0" stroke="none" stroke-width="10px" stroke-linecap="butt" stroke-opacity="1.0" transform="matrix(1,0,0,1,6024,0)" d="M 336 0 Q 275 0 264 -53 Q 251 -53 243 -50 L 221 -50 Q 163 -50 147 -80 Q 147 -101 168 -115 L 181 -130 L 259 -130 L 269 -141 L 275 -164 L 277 -196 Q 277 -358 269 -485 L 264 -584 L 259 -777 Q 259 -881 267 -1088 L 272 -1396 Q 272 -1598 259 -1704 Q 235 -1712 179 -1712 L 149 -1712 Q 133 -1712 115 -1712 Q 64 -1712 64 -1757 Q 64 -1769 88 -1780 Q 112 -1792 128 -1792 Q 229 -1792 331 -1792 Q 392 -1792 453 -1766 Q 501 -1747 501 -1712 Q 501 -1705 493 -1685 L 432 -1678 Q 413 -1712 355 -1712 L 341 -1704 Q 349 -1680 349 -1561 Q 349 -1384 347 -1242 L 341 -922 Q 341 -801 352 -629 Q 360 -432 360 -333 L 360 -298 Q 357 -279 357 -250 Q 357 -188 365 -174 L 363 -169 Q 363 -130 421 -130 Q 445 -130 461 -130 L 501 -130 Q 579 -130 579 -97 Q 579 -76 563 -63 Q 547 -50 520 -50 Q 496 -50 477 -50 Q 456 -50 432 -50 Q 416 -50 384 -27 Q 352 0 336 0 Z"/>
		<path character="l" fill="#EA8872" fill-opacity="1.0" stroke="none" stroke-width="10px" stroke-linecap="butt" stroke-opacity="1.0" transform="matrix(1,0,0,1,6673,0)" d="M 240 0 Q 203 0 195 -50 Q 200 -66 200 -139 Q 200 -387 208 -875 Q 216 -1361 216 -1577 L 221 -1674 L 229 -1755 Q 229 -1774 248 -1774 Q 261 -1774 285 -1766 L 293 -1763 Q 293 -1704 291 -1655 L 291 -1550 L 291 -1256 Q 293 -1126 293 -961 Q 291 -948 291 -902 L 288 -845 Q 285 -791 285 -734 Q 285 -672 288 -621 L 291 -505 L 283 -484 L 285 -487 Q 285 -479 283 -476 L 283 -465 Q 283 -443 291 -427 L 283 -165 L 283 -148 Q 283 -102 285 -94 Q 285 -80 299 -80 L 437 -80 Q 499 -80 521 -80 Q 544 -80 549 -80 L 557 -80 Q 571 -80 584 -65 Q 597 -50 597 -33 Q 597 0 555 0 Q 509 0 333 0 L 339 0 Q 312 0 288 0 Q 267 0 240 0 Z"/>
		<path character="e" fill="#EA8872" fill-opacity="1.0" stroke="none" stroke-width="10px" stroke-linecap="butt" stroke-opacity="1.0" transform="matrix(1,0,0,1,7322,0)" d="M 243 0 Q 195 0 189 -56 L 189 -92 Q 192 -105 192 -124 L 181 -135 Q 203 -191 203 -245 Q 203 -306 195 -421 L 189 -598 Q 189 -732 197 -1000 Q 208 -1238 208 -1404 L 203 -1565 Q 197 -1635 197 -1720 Q 197 -1758 216 -1775 Q 235 -1792 275 -1792 Q 301 -1792 317 -1777 Q 323 -1774 395 -1767 Q 461 -1759 509 -1744 Q 560 -1729 560 -1706 Q 560 -1681 509 -1656 Q 357 -1712 293 -1712 L 280 -1689 Q 283 -1665 283 -1575 Q 283 -1461 277 -1371 Q 275 -1278 275 -1164 Q 275 -1090 312 -1090 L 355 -1090 Q 376 -1090 400 -1090 Q 504 -1090 504 -1057 Q 504 -1037 490 -1023 Q 477 -1010 451 -1010 Q 411 -1010 389 -1025 L 304 -1034 L 291 -1034 L 277 -1025 L 277 -1017 Q 283 -970 283 -798 Q 283 -690 280 -602 L 277 -405 Q 277 -297 285 -184 Q 288 -121 312 -100 Q 336 -80 400 -80 L 448 -80 Q 472 -80 501 -80 Q 579 -80 579 -46 Q 579 0 461 0 L 243 0 Z"/>
		<path character="s" fill="#EA8872" fill-opacity="1.0" stroke="none" stroke-width="10px" stroke-linecap="butt" stroke-opacity="1.0" transform="matrix(1,0,0,1,8035,0)" d="M 221 0 Q 192 0 165 -22 Q 139 -45 136 -76 L 149 -97 Q 160 -97 197 -90 Q 227 -80 245 -80 Q 304 -80 349 -125 Q 395 -171 419 -243 Q 456 -378 456 -498 Q 456 -677 344 -882 Q 275 -1001 237 -1071 Q 200 -1141 171 -1232 Q 136 -1338 136 -1437 Q 136 -1530 184 -1657 Q 208 -1717 252 -1754 Q 296 -1792 347 -1792 Q 381 -1792 414 -1768 Q 448 -1744 448 -1717 Q 448 -1685 413 -1685 Q 403 -1685 387 -1699 Q 371 -1712 357 -1712 Q 317 -1712 285 -1680 Q 253 -1649 237 -1599 Q 205 -1502 205 -1421 Q 205 -1371 219 -1319 Q 221 -1303 224 -1292 Q 227 -1282 227 -1277 L 243 -1224 L 256 -1177 L 277 -1130 Q 285 -1112 294 -1097 Q 304 -1083 312 -1070 L 344 -1015 Q 355 -999 389 -940 Q 424 -881 453 -815 Q 480 -760 493 -711 Q 507 -663 517 -595 Q 525 -530 525 -451 Q 525 -325 491 -215 Q 443 -84 352 -31 Q 301 0 235 0 L 221 0 M 435 -1707 Q 435 -1710 432 -1710 L 432 -1707 L 435 -1707 Z"/>
</g>
</svg>