<svg xmlns="http://www.w3.org/2000/svg" xmlns:xlink="http://www.w3.org/1999/xlink" viewBox="0 0 20474 3546">
<title>Statosio Sandbox</title>
<g transform="matrix(1,0,0,1,0,2624)">
  		<path character="S" fill="#EA8872" fill-opacity="1.0" stroke="none" stroke-width="0px" stroke-linecap="butt" stroke-opacity="1.0" transform="matrix(1,0,0,1,0,0)" d="M 331 -494 L 319 -391 Q 319 -229 425 -170 Q 462 -150 513 -150 Q 564 -150 605 -168 Q 646 -186 672 -215 Q 727 -275 727 -354 Q 727 -433 695 -497 Q 664 -561 617 -625 L 512 -755 Q 385 -910 341 -1037 Q 298 -1164 298 -1271 Q 298 -1378 323 -1473 Q 349 -1568 395 -1654 Q 441 -1740 505 -1812 Q 570 -1884 648 -1936 Q 812 -2048 973 -2048 Q 1135 -2048 1225 -2003 Q 1316 -1959 1372 -1891 Q 1474 -1763 1474 -1581 Q 1474 -1412 1378 -1263 Q 1290 -1126 1181 -1090 Q 1158 -1078 1116 -1078 Q 1075 -1078 1047 -1091 Q 1019 -1104 998 -1126 Q 952 -1173 952 -1229 Q 952 -1267 974 -1280 Q 1074 -1335 1147 -1442 Q 1227 -1557 1231 -1672 Q 1235 -1788 1178 -1843 Q 1121 -1898 1026 -1898 Q 932 -1898 856 -1855 Q 780 -1812 725 -1738 Q 606 -1581 606 -1367 Q 606 -1225 704 -1067 Q 744 -999 792 -933 Q 840 -867 882 -798 Q 978 -637 978 -509 Q 978 -382 932 -294 Q 887 -206 812 -141 Q 651 0 445 0 Q 251 0 146 -109 Q 62 -197 62 -300 Q 62 -411 129 -488 Q 180 -549 227 -561 Q 331 -588 331 -494 Z"/>
		<path character="t" fill="#EA8872" fill-opacity="1.0" stroke="none" stroke-width="0px" stroke-linecap="butt" stroke-opacity="1.0" transform="matrix(1,0,0,1,1297,0)" d="M 858 -382 Q 897 -382 897 -327 Q 897 -281 870 -237 Q 835 -156 729 -83 Q 608 0 486 0 Q 274 0 218 -193 Q 151 -421 419 -1162 Q 268 -1175 255 -1214 Q 251 -1226 251 -1239 Q 251 -1253 263 -1271 Q 276 -1289 295 -1306 Q 341 -1344 389 -1344 L 492 -1344 Q 634 -1637 694 -1677 Q 723 -1696 758 -1696 Q 794 -1696 817 -1688 Q 841 -1680 860 -1664 Q 902 -1629 902 -1586 Q 902 -1563 886 -1532 L 789 -1344 L 820 -1344 Q 902 -1344 952 -1344 Q 952 -1344 1026 -1344 Q 1051 -1344 1088 -1344 Q 1126 -1344 1126 -1318 Q 1126 -1153 717 -1153 L 706 -1153 L 617 -923 Q 466 -516 466 -353 Q 466 -307 487 -281 Q 508 -256 566 -256 Q 624 -256 671 -275 Q 718 -295 753 -319 Q 789 -343 814 -362 Q 840 -382 858 -382 Z"/>
		<path character="a" fill="#EA8872" fill-opacity="1.0" stroke="none" stroke-width="0px" stroke-linecap="butt" stroke-opacity="1.0" transform="matrix(1,0,0,1,2273,0)" d="M 1108 -353 Q 1108 -233 1193 -233 Q 1252 -233 1291 -251 Q 1330 -270 1343 -270 Q 1370 -270 1370 -241 Q 1370 -128 1252 -47 Q 1128 38 998 -5 Q 912 -35 872 -135 Q 852 -186 852 -228 Q 852 -296 865 -372 Q 743 -128 562 -36 Q 490 0 408 0 Q 327 0 267 -33 Q 208 -66 166 -123 Q 80 -244 88 -427 Q 96 -656 226 -876 Q 345 -1082 528 -1212 Q 710 -1344 869 -1344 Q 1028 -1344 1125 -1216 Q 1216 -1344 1285 -1344 Q 1360 -1344 1398 -1317 Q 1470 -1265 1449 -1227 Q 1120 -564 1111 -402 Q 1108 -379 1108 -353 M 379 -350 Q 379 -192 481 -192 Q 558 -192 671 -322 Q 836 -513 964 -836 Q 1004 -938 1032 -1039 Q 1027 -1134 957 -1179 Q 933 -1194 886 -1194 Q 840 -1194 777 -1160 Q 715 -1126 657 -1067 Q 599 -1008 548 -927 Q 498 -846 460 -751 Q 379 -549 379 -350 Z"/>
		<path character="t" fill="#EA8872" fill-opacity="1.0" stroke="none" stroke-width="0px" stroke-linecap="butt" stroke-opacity="1.0" transform="matrix(1,0,0,1,3762,0)" d="M 858 -382 Q 897 -382 897 -327 Q 897 -281 870 -237 Q 835 -156 729 -83 Q 608 0 486 0 Q 274 0 218 -193 Q 151 -421 419 -1162 Q 268 -1175 255 -1214 Q 251 -1226 251 -1239 Q 251 -1253 263 -1271 Q 276 -1289 295 -1306 Q 341 -1344 389 -1344 L 492 -1344 Q 634 -1637 694 -1677 Q 723 -1696 758 -1696 Q 794 -1696 817 -1688 Q 841 -1680 860 -1664 Q 902 -1629 902 -1586 Q 902 -1563 886 -1532 L 789 -1344 L 820 -1344 Q 902 -1344 952 -1344 Q 952 -1344 1026 -1344 Q 1051 -1344 1088 -1344 Q 1126 -1344 1126 -1318 Q 1126 -1153 717 -1153 L 706 -1153 L 617 -923 Q 466 -516 466 -353 Q 466 -307 487 -281 Q 508 -256 566 -256 Q 624 -256 671 -275 Q 718 -295 753 -319 Q 789 -343 814 -362 Q 840 -382 858 -382 Z"/>
		<path character="o" fill="#EA8872" fill-opacity="1.0" stroke="none" stroke-width="0px" stroke-linecap="butt" stroke-opacity="1.0" transform="matrix(1,0,0,1,4739,0)" d="M 216 -100 Q 161 -152 129 -231 Q 98 -310 97 -418 Q 96 -526 124 -636 Q 152 -747 204 -850 Q 256 -953 328 -1043 Q 401 -1133 489 -1200 Q 681 -1344 887 -1344 Q 1157 -1344 1253 -1111 Q 1321 -943 1261 -704 Q 1206 -484 1059 -300 Q 913 -116 715 -39 Q 615 0 518 0 Q 422 0 346 -24 Q 271 -49 216 -100 M 467 -724 Q 428 -629 405 -529 Q 382 -429 383 -340 Q 384 -251 411 -200 Q 438 -150 498 -150 Q 559 -150 617 -190 Q 676 -231 731 -297 Q 786 -364 834 -451 Q 883 -538 920 -633 Q 1000 -839 997 -999 Q 997 -1140 938 -1179 Q 915 -1194 872 -1194 Q 829 -1194 774 -1156 Q 719 -1118 664 -1054 Q 609 -990 557 -904 Q 506 -819 467 -724 Z"/>
		<path character="s" fill="#EA8872" fill-opacity="1.0" stroke="none" stroke-width="0px" stroke-linecap="butt" stroke-opacity="1.0" transform="matrix(1,0,0,1,6163,0)" d="M 32 -240 Q 32 -280 49 -314 Q 67 -349 93 -372 Q 148 -423 209 -423 Q 261 -423 261 -370 Q 261 -235 352 -182 Q 385 -163 420 -163 Q 455 -163 480 -170 Q 505 -178 526 -195 Q 574 -232 574 -283 Q 574 -335 550 -378 Q 526 -421 491 -469 L 416 -572 Q 259 -777 259 -951 Q 259 -1095 383 -1212 Q 525 -1344 747 -1344 Q 941 -1344 1050 -1254 Q 1139 -1181 1139 -1081 Q 1139 -978 1061 -916 Q 990 -861 919 -875 Q 887 -882 870 -907 Q 853 -933 863 -966 Q 874 -999 874 -1034 Q 874 -1070 861 -1100 Q 848 -1130 826 -1151 Q 780 -1194 729 -1194 Q 679 -1194 646 -1183 Q 613 -1172 588 -1151 Q 537 -1105 537 -1037 Q 537 -969 560 -919 Q 584 -870 619 -821 Q 654 -772 694 -721 Q 735 -671 769 -615 Q 852 -484 852 -385 Q 852 -286 810 -219 Q 768 -153 701 -105 Q 558 0 381 0 Q 211 0 113 -80 Q 32 -148 32 -240 Z"/>
		<path character="i" fill="#EA8872" fill-opacity="1.0" stroke="none" stroke-width="0px" stroke-linecap="butt" stroke-opacity="1.0" transform="matrix(1,0,0,1,7332,0)" d="M 803 -1732 Q 774 -1701 737 -1682 Q 701 -1663 660 -1658 Q 620 -1654 583 -1671 Q 547 -1688 521 -1720 Q 465 -1785 465 -1852 Q 465 -1919 486 -1952 Q 508 -1986 541 -2007 Q 604 -2048 659 -2048 Q 715 -2048 746 -2040 Q 777 -2032 803 -2014 Q 868 -1970 868 -1908 Q 868 -1846 850 -1804 Q 832 -1763 803 -1732 M 534 -256 Q 568 -256 568 -212 Q 568 -153 515 -91 Q 436 0 303 0 Q 151 0 95 -121 Q 74 -163 74 -223 Q 74 -284 95 -358 Q 117 -432 149 -513 Q 181 -595 219 -679 L 289 -841 Q 365 -1022 365 -1080 Q 365 -1138 352 -1157 Q 340 -1176 326 -1186 L 299 -1204 Q 286 -1213 286 -1235 Q 286 -1258 304 -1278 Q 322 -1299 350 -1314 Q 410 -1344 488 -1344 Q 681 -1344 681 -1248 Q 681 -1135 619 -990 Q 558 -846 515 -757 L 436 -585 Q 349 -395 349 -311 Q 349 -256 407 -256 Q 463 -256 492 -256 Q 521 -256 534 -256 Z"/>
		<path character="o" fill="#EA8872" fill-opacity="1.0" stroke="none" stroke-width="0px" stroke-linecap="butt" stroke-opacity="1.0" transform="matrix(1,0,0,1,8116,0)" d="M 216 -100 Q 161 -152 129 -231 Q 98 -310 97 -418 Q 96 -526 124 -636 Q 152 -747 204 -850 Q 256 -953 328 -1043 Q 401 -1133 489 -1200 Q 681 -1344 887 -1344 Q 1157 -1344 1253 -1111 Q 1321 -943 1261 -704 Q 1206 -484 1059 -300 Q 913 -116 715 -39 Q 615 0 518 0 Q 422 0 346 -24 Q 271 -49 216 -100 M 467 -724 Q 428 -629 405 -529 Q 382 -429 383 -340 Q 384 -251 411 -200 Q 438 -150 498 -150 Q 559 -150 617 -190 Q 676 -231 731 -297 Q 786 -364 834 -451 Q 883 -538 920 -633 Q 1000 -839 997 -999 Q 997 -1140 938 -1179 Q 915 -1194 872 -1194 Q 829 -1194 774 -1156 Q 719 -1118 664 -1054 Q 609 -990 557 -904 Q 506 -819 467 -724 Z"/>
		<path character="S" fill="#EA8872" fill-opacity="1.0" stroke="none" stroke-width="0px" stroke-linecap="butt" stroke-opacity="1.0" transform="matrix(1,0,0,1,10390,0)" d="M 331 -494 L 319 -391 Q 319 -229 425 -170 Q 462 -150 513 -150 Q 564 -150 605 -168 Q 646 -186 672 -215 Q 727 -275 727 -354 Q 727 -433 695 -497 Q 664 -561 617 -625 L 512 -755 Q 385 -910 341 -1037 Q 298 -1164 298 -1271 Q 298 -1378 323 -1473 Q 349 -1568 395 -1654 Q 441 -1740 505 -1812 Q 570 -1884 648 -1936 Q 812 -2048 973 -2048 Q 1135 -2048 1225 -2003 Q 1316 -1959 1372 -1891 Q 1474 -1763 1474 -1581 Q 1474 -1412 1378 -1263 Q 1290 -1126 1181 -1090 Q 1158 -1078 1116 -1078 Q 1075 -1078 1047 -1091 Q 1019 -1104 998 -1126 Q 952 -1173 952 -1229 Q 952 -1267 974 -1280 Q 1074 -1335 1147 -1442 Q 1227 -1557 1231 -1672 Q 1235 -1788 1178 -1843 Q 1121 -1898 1026 -1898 Q 932 -1898 856 -1855 Q 780 -1812 725 -1738 Q 606 -1581 606 -1367 Q 606 -1225 704 -1067 Q 744 -999 792 -933 Q 840 -867 882 -798 Q 978 -637 978 -509 Q 978 -382 932 -294 Q 887 -206 812 -141 Q 651 0 445 0 Q 251 0 146 -109 Q 62 -197 62 -300 Q 62 -411 129 -488 Q 180 -549 227 -561 Q 331 -588 331 -494 Z"/>
		<path character="a" fill="#EA8872" fill-opacity="1.0" stroke="none" stroke-width="0px" stroke-linecap="butt" stroke-opacity="1.0" transform="matrix(1,0,0,1,11686,0)" d="M 1108 -353 Q 1108 -233 1193 -233 Q 1252 -233 1291 -251 Q 1330 -270 1343 -270 Q 1370 -270 1370 -241 Q 1370 -128 1252 -47 Q 1128 38 998 -5 Q 912 -35 872 -135 Q 852 -186 852 -228 Q 852 -296 865 -372 Q 743 -128 562 -36 Q 490 0 408 0 Q 327 0 267 -33 Q 208 -66 166 -123 Q 80 -244 88 -427 Q 96 -656 226 -876 Q 345 -1082 528 -1212 Q 710 -1344 869 -1344 Q 1028 -1344 1125 -1216 Q 1216 -1344 1285 -1344 Q 1360 -1344 1398 -1317 Q 1470 -1265 1449 -1227 Q 1120 -564 1111 -402 Q 1108 -379 1108 -353 M 379 -350 Q 379 -192 481 -192 Q 558 -192 671 -322 Q 836 -513 964 -836 Q 1004 -938 1032 -1039 Q 1027 -1134 957 -1179 Q 933 -1194 886 -1194 Q 840 -1194 777 -1160 Q 715 -1126 657 -1067 Q 599 -1008 548 -927 Q 498 -846 460 -751 Q 379 -549 379 -350 Z"/>
		<path character="n" fill="#EA8872" fill-opacity="1.0" stroke="none" stroke-width="0px" stroke-linecap="butt" stroke-opacity="1.0" transform="matrix(1,0,0,1,13175,0)" d="M 1041 -1088 Q 1000 -1088 925 -1012 Q 851 -937 795 -874 L 684 -745 L 469 -479 Q 392 -339 349 -247 L 278 -99 Q 251 -44 230 -22 Q 210 0 175 0 Q 140 0 108 -12 Q 76 -24 53 -44 Q 3 -85 3 -134 Q 3 -153 32 -210 L 81 -314 Q 105 -360 137 -432 L 210 -608 Q 365 -988 365 -1098 Q 365 -1158 326 -1186 L 299 -1204 Q 286 -1213 286 -1235 Q 286 -1258 304 -1278 Q 322 -1299 350 -1314 Q 410 -1344 469 -1344 Q 529 -1344 562 -1331 Q 595 -1318 617 -1296 Q 665 -1250 665 -1200 Q 665 -1150 653 -1099 Q 641 -1049 621 -997 Q 602 -945 581 -895 Q 560 -846 543 -809 L 517 -753 Q 507 -732 512 -739 Q 658 -942 704 -999 L 795 -1110 Q 896 -1228 954 -1266 Q 1071 -1344 1138 -1344 Q 1205 -1344 1251 -1327 Q 1297 -1311 1331 -1281 Q 1403 -1218 1403 -1119 Q 1403 -1020 1356 -912 Q 1309 -805 1274 -738 Q 1239 -671 1208 -602 Q 1109 -394 1109 -299 Q 1109 -256 1180 -256 Q 1235 -256 1280 -278 Q 1326 -301 1339 -301 Q 1366 -301 1366 -271 Q 1366 -144 1247 -58 Q 1167 0 1100 0 Q 1033 0 989 -14 Q 945 -28 911 -58 Q 833 -126 833 -247 Q 833 -394 929 -615 Q 999 -766 1028 -822 L 1072 -913 Q 1113 -994 1113 -1041 Q 1113 -1088 1041 -1088 Z"/>
		<path character="d" fill="#EA8872" fill-opacity="1.0" stroke="none" stroke-width="0px" stroke-linecap="butt" stroke-opacity="1.0" transform="matrix(1,0,0,1,14728,0)" d="M 1406 -302 Q 1433 -302 1433 -271 Q 1433 -148 1316 -60 Q 1239 0 1170 0 Q 1101 0 1060 -16 Q 1020 -33 987 -69 Q 914 -152 914 -297 Q 914 -326 924 -390 Q 818 -217 742 -147 Q 588 0 441 0 Q 209 0 137 -206 Q 110 -282 110 -396 Q 110 -511 145 -628 Q 181 -745 242 -850 Q 303 -956 384 -1046 Q 465 -1137 554 -1204 Q 746 -1344 900 -1344 Q 1055 -1344 1148 -1233 Q 1377 -2011 1492 -2151 Q 1541 -2208 1595 -2208 Q 1684 -2208 1730 -2158 Q 1744 -2141 1744 -2124 Q 1744 -2108 1723 -2063 Q 1702 -2018 1662 -1918 Q 1545 -1616 1498 -1476 Q 1377 -1118 1335 -983 L 1263 -745 Q 1169 -428 1169 -342 Q 1169 -256 1234 -256 Q 1293 -256 1328 -271 L 1378 -294 Q 1393 -302 1406 -302 M 504 -192 Q 639 -192 814 -455 Q 996 -727 1068 -1047 Q 1063 -1137 994 -1179 Q 970 -1194 922 -1194 Q 874 -1194 810 -1159 Q 747 -1125 687 -1066 Q 627 -1007 575 -927 Q 524 -848 486 -759 Q 403 -565 403 -378 Q 403 -192 504 -192 Z"/>
		<path character="b" fill="#EA8872" fill-opacity="1.0" stroke="none" stroke-width="0px" stroke-linecap="butt" stroke-opacity="1.0" transform="matrix(1,0,0,1,16216,0)" d="M 106 -383 Q 106 -458 117 -527 Q 129 -596 146 -666 Q 164 -737 186 -807 L 333 -1252 Q 508 -1794 553 -2099 Q 567 -2208 660 -2208 Q 715 -2208 753 -2179 Q 823 -2122 821 -2058 Q 819 -1994 802 -1916 Q 786 -1838 760 -1745 Q 735 -1653 702 -1551 Q 614 -1290 571 -1174 L 496 -978 Q 610 -1153 683 -1218 Q 827 -1344 983 -1344 Q 1213 -1344 1289 -1109 Q 1314 -1028 1314 -907 Q 1314 -786 1278 -667 Q 1242 -548 1180 -445 Q 1118 -343 1036 -261 Q 954 -179 864 -121 Q 672 0 492 0 Q 311 0 207 -109 Q 106 -219 106 -383 M 474 -170 Q 597 -170 725 -278 Q 919 -442 986 -748 Q 1008 -848 1008 -956 Q 1008 -1065 983 -1108 Q 958 -1152 906 -1152 Q 854 -1152 798 -1111 Q 742 -1070 680 -1002 Q 618 -935 557 -847 Q 497 -759 449 -665 Q 343 -459 343 -314 Q 343 -170 474 -170 Z"/>
		<path character="o" fill="#EA8872" fill-opacity="1.0" stroke="none" stroke-width="0px" stroke-linecap="butt" stroke-opacity="1.0" transform="matrix(1,0,0,1,17641,0)" d="M 216 -100 Q 161 -152 129 -231 Q 98 -310 97 -418 Q 96 -526 124 -636 Q 152 -747 204 -850 Q 256 -953 328 -1043 Q 401 -1133 489 -1200 Q 681 -1344 887 -1344 Q 1157 -1344 1253 -1111 Q 1321 -943 1261 -704 Q 1206 -484 1059 -300 Q 913 -116 715 -39 Q 615 0 518 0 Q 422 0 346 -24 Q 271 -49 216 -100 M 467 -724 Q 428 -629 405 -529 Q 382 -429 383 -340 Q 384 -251 411 -200 Q 438 -150 498 -150 Q 559 -150 617 -190 Q 676 -231 731 -297 Q 786 -364 834 -451 Q 883 -538 920 -633 Q 1000 -839 997 -999 Q 997 -1140 938 -1179 Q 915 -1194 872 -1194 Q 829 -1194 774 -1156 Q 719 -1118 664 -1054 Q 609 -990 557 -904 Q 506 -819 467 -724 Z"/>
		<path character="x" fill="#EA8872" fill-opacity="1.0" stroke="none" stroke-width="0px" stroke-linecap="butt" stroke-opacity="1.0" transform="matrix(1,0,0,1,19066,0)" d="M 151 -43 Q 95 0 64 0 Q 33 0 12 -8 Q -8 -17 -25 -31 Q -64 -64 -64 -91 Q -64 -118 -35 -141 Q -35 -141 45 -206 Q 260 -385 400 -595 Q 286 -902 295 -1105 Q 301 -1206 386 -1279 Q 465 -1344 554 -1344 Q 580 -1344 588 -1326 Q 596 -1309 596 -1275 Q 596 -1242 593 -1204 Q 591 -1167 593 -1126 Q 595 -1085 599 -1037 Q 612 -908 623 -836 L 667 -906 Q 816 -1134 1016 -1268 Q 1129 -1344 1210 -1344 Q 1284 -1344 1324 -1324 Q 1400 -1286 1376 -1247 Q 1372 -1241 1360 -1237 L 1327 -1222 Q 1120 -1135 798 -797 Q 731 -726 681 -662 L 727 -517 Q 812 -256 929 -256 Q 980 -256 1013 -271 L 1061 -292 Q 1075 -298 1088 -298 Q 1116 -298 1116 -268 Q 1116 -143 998 -57 Q 919 0 819 0 Q 626 0 470 -415 Q 305 -161 151 -43 Z"/>
</g>
</svg>