<svg xmlns="http://www.w3.org/2000/svg" xmlns:xlink="http://www.w3.org/1999/xlink" viewBox="0 0 47320 3546">
<title>Documents with Footer to Pdf for Ruby</title>
<g transform="matrix(1,0,0,1,0,2624)">
  		<path character="D" fill="#EA8872" fill-opacity="1.0" stroke="none" stroke-width="0" stroke-linecap="butt" stroke-opacity="1.0" transform="matrix(1,0,0,1,-64,0)" d="M 129 -323 Q 141 -409 179 -559 Q 218 -709 279 -880 Q 416 -1271 605 -1578 Q 632 -1620 672 -1626 Q 730 -1634 774 -1634 Q 818 -1634 853 -1624 Q 888 -1614 907 -1598 Q 947 -1564 920 -1527 Q 683 -1160 506 -632 Q 439 -431 425 -352 Q 412 -274 406 -245 Q 401 -216 401 -194 Q 401 -150 456 -150 Q 511 -150 579 -176 Q 647 -202 726 -250 Q 805 -298 889 -366 Q 974 -435 1055 -520 Q 1137 -605 1209 -704 Q 1281 -804 1335 -914 Q 1455 -1156 1455 -1391 Q 1455 -1714 1199 -1820 Q 1109 -1856 1012 -1856 Q 916 -1856 849 -1843 Q 783 -1830 721 -1807 Q 596 -1761 511 -1684 Q 489 -1670 457 -1670 Q 426 -1670 389 -1688 Q 353 -1706 325 -1733 Q 259 -1796 272 -1854 Q 286 -1937 524 -1998 Q 724 -2048 926 -2048 Q 1128 -2048 1290 -1993 Q 1452 -1938 1553 -1845 Q 1742 -1670 1742 -1375 Q 1742 -985 1472 -623 Q 1224 -287 881 -113 Q 659 0 473 0 Q 327 0 222 -85 Q 109 -176 129 -323 Z"/>
		<path character="o" fill="#EA8872" fill-opacity="1.0" stroke="none" stroke-width="0" stroke-linecap="butt" stroke-opacity="1.0" transform="matrix(1,0,0,1,1617,0)" d="M 216 -100 Q 161 -152 129 -231 Q 98 -310 97 -418 Q 96 -526 124 -636 Q 152 -747 204 -850 Q 256 -953 328 -1043 Q 401 -1133 489 -1200 Q 681 -1344 887 -1344 Q 1157 -1344 1253 -1111 Q 1321 -943 1261 -704 Q 1206 -484 1059 -300 Q 913 -116 715 -39 Q 615 0 518 0 Q 422 0 346 -24 Q 271 -49 216 -100 M 467 -724 Q 428 -629 405 -529 Q 382 -429 383 -340 Q 384 -251 411 -200 Q 438 -150 498 -150 Q 559 -150 617 -190 Q 676 -231 731 -297 Q 786 -364 834 -451 Q 883 -538 920 -633 Q 1000 -839 997 -999 Q 997 -1140 938 -1179 Q 915 -1194 872 -1194 Q 829 -1194 774 -1156 Q 719 -1118 664 -1054 Q 609 -990 557 -904 Q 506 -819 467 -724 Z"/>
		<path character="c" fill="#EA8872" fill-opacity="1.0" stroke="none" stroke-width="0" stroke-linecap="butt" stroke-opacity="1.0" transform="matrix(1,0,0,1,3041,0)" d="M 89 -457 Q 92 -568 125 -679 Q 159 -791 214 -890 Q 270 -989 347 -1072 Q 424 -1156 514 -1217 Q 703 -1344 912 -1344 Q 1127 -1344 1205 -1178 Q 1232 -1118 1230 -1042 Q 1228 -967 1204 -904 Q 1181 -841 1146 -792 Q 1066 -680 984 -680 Q 894 -680 850 -730 Q 812 -773 827 -830 Q 831 -847 850 -861 Q 870 -875 900 -905 Q 985 -994 989 -1113 Q 992 -1194 890 -1194 Q 779 -1194 659 -1071 Q 483 -892 411 -613 Q 348 -370 434 -257 Q 485 -192 573 -192 Q 722 -192 859 -296 Q 901 -329 927 -363 Q 954 -397 976 -397 Q 999 -397 1014 -375 Q 1029 -354 1029 -320 Q 1029 -243 959 -169 Q 781 0 530 0 Q 316 0 199 -120 Q 84 -238 89 -457 Z"/>
		<path character="u" fill="#EA8872" fill-opacity="1.0" stroke="none" stroke-width="0" stroke-linecap="butt" stroke-opacity="1.0" transform="matrix(1,0,0,1,4338,0)" d="M 1319 -292 Q 1349 -292 1349 -260 Q 1349 -137 1236 -54 Q 1160 0 1058 0 Q 974 0 929 -39 Q 849 -110 849 -213 Q 849 -342 958 -610 Q 756 -337 674 -247 Q 593 -157 533 -108 Q 402 0 295 0 Q 133 0 79 -138 Q 63 -180 63 -234 Q 63 -289 82 -356 Q 101 -424 131 -497 Q 161 -571 197 -648 L 268 -803 Q 404 -1100 369 -1155 Q 353 -1179 310 -1204 Q 294 -1213 294 -1235 Q 294 -1258 313 -1278 Q 332 -1299 362 -1314 Q 427 -1344 491 -1344 Q 555 -1344 588 -1331 Q 622 -1318 643 -1298 Q 686 -1256 686 -1206 Q 686 -1156 669 -1093 Q 652 -1031 624 -958 Q 597 -885 564 -808 Q 474 -604 442 -539 L 394 -442 Q 353 -355 353 -320 Q 353 -285 365 -270 Q 377 -256 407 -256 Q 438 -256 479 -283 Q 520 -311 568 -357 Q 617 -404 669 -465 Q 722 -526 772 -591 Q 870 -720 916 -797 Q 1194 -1269 1213 -1290 Q 1255 -1344 1299 -1344 Q 1343 -1344 1375 -1334 Q 1408 -1325 1432 -1308 Q 1487 -1269 1467 -1230 Q 1147 -593 1122 -429 Q 1116 -372 1116 -351 Q 1116 -256 1176 -256 Q 1232 -256 1269 -274 Q 1306 -292 1319 -292 Z"/>
		<path character="m" fill="#EA8872" fill-opacity="1.0" stroke="none" stroke-width="0" stroke-linecap="butt" stroke-opacity="1.0" transform="matrix(1,0,0,1,5827,0)" d="M 1084 -1088 Q 1008 -1088 806 -874 Q 655 -708 587 -624 L 469 -479 Q 392 -339 349 -247 L 278 -99 Q 251 -44 230 -22 Q 210 0 175 0 Q 140 0 108 -12 Q 76 -24 53 -44 Q 3 -85 3 -134 Q 3 -153 32 -210 L 81 -314 Q 105 -360 137 -432 L 210 -608 Q 365 -988 365 -1098 Q 365 -1158 326 -1186 L 299 -1204 Q 286 -1213 286 -1235 Q 286 -1258 304 -1278 Q 322 -1299 350 -1314 Q 410 -1344 469 -1344 Q 529 -1344 563 -1331 Q 597 -1318 622 -1296 Q 672 -1250 672 -1200 Q 672 -1150 659 -1099 Q 646 -1049 626 -997 Q 606 -945 584 -897 Q 532 -784 519 -758 Q 507 -733 512 -739 Q 752 -1050 801 -1107 Q 902 -1224 958 -1267 Q 1062 -1344 1154 -1344 Q 1247 -1344 1302 -1287 Q 1357 -1231 1357 -1139 Q 1357 -1058 1315 -949 Q 1273 -841 1259 -797 L 1452 -1046 L 1559 -1171 Q 1656 -1277 1729 -1310 Q 1803 -1344 1850 -1344 Q 1897 -1344 1942 -1327 Q 1987 -1311 2019 -1281 Q 2086 -1220 2086 -1119 Q 2086 -1021 2038 -918 Q 1991 -816 1955 -750 Q 1920 -685 1887 -619 Q 1792 -420 1792 -324 Q 1792 -256 1849 -256 Q 1904 -256 1949 -278 Q 1995 -301 2008 -301 Q 2036 -301 2036 -271 Q 2036 -144 1916 -58 Q 1836 0 1770 0 Q 1704 0 1663 -15 Q 1622 -31 1589 -64 Q 1516 -137 1516 -247 Q 1516 -358 1545 -451 Q 1574 -544 1613 -631 Q 1652 -718 1692 -791 Q 1733 -864 1754 -908 Q 1796 -996 1796 -1038 Q 1796 -1088 1742 -1088 Q 1671 -1088 1487 -860 Q 1348 -684 1294 -606 L 1204 -479 Q 1127 -339 1087 -247 L 1020 -99 Q 995 -44 976 -22 Q 958 0 925 0 Q 893 0 862 -10 Q 831 -20 809 -37 Q 757 -74 757 -115 Q 757 -156 785 -228 Q 814 -300 856 -389 L 1040 -765 Q 1138 -975 1138 -1031 Q 1138 -1088 1084 -1088 M 1214 -744 Q 1215 -744 1215 -746 L 1217 -748 Q 1214 -745 1214 -744 Z"/>
		<path character="e" fill="#EA8872" fill-opacity="1.0" stroke="none" stroke-width="0" stroke-linecap="butt" stroke-opacity="1.0" transform="matrix(1,0,0,1,8019,0)" d="M 108 -463 Q 113 -575 146 -677 Q 179 -779 234 -875 Q 289 -971 363 -1056 Q 437 -1142 524 -1206 Q 712 -1344 903 -1344 Q 1128 -1344 1202 -1164 Q 1229 -1102 1227 -1018 Q 1226 -935 1194 -864 Q 1163 -793 1107 -735 Q 1051 -677 974 -631 Q 898 -585 807 -553 Q 621 -489 408 -489 Q 403 -471 401 -434 Q 400 -397 409 -351 Q 419 -306 441 -271 Q 488 -192 578 -192 Q 730 -192 874 -281 Q 925 -311 957 -343 Q 990 -375 1013 -375 Q 1037 -375 1054 -347 Q 1072 -319 1072 -284 Q 1072 -215 1033 -164 Q 868 0 541 0 Q 348 0 231 -113 Q 100 -242 108 -463 M 874 -1194 Q 736 -1194 609 -1004 Q 502 -841 436 -617 Q 655 -639 817 -791 Q 965 -933 965 -1063 Q 965 -1194 874 -1194 Z"/>
		<path character="n" fill="#EA8872" fill-opacity="1.0" stroke="none" stroke-width="0" stroke-linecap="butt" stroke-opacity="1.0" transform="matrix(1,0,0,1,9316,0)" d="M 1041 -1088 Q 1000 -1088 925 -1012 Q 851 -937 795 -874 L 684 -745 L 469 -479 Q 392 -339 349 -247 L 278 -99 Q 251 -44 230 -22 Q 210 0 175 0 Q 140 0 108 -12 Q 76 -24 53 -44 Q 3 -85 3 -134 Q 3 -153 32 -210 L 81 -314 Q 105 -360 137 -432 L 210 -608 Q 365 -988 365 -1098 Q 365 -1158 326 -1186 L 299 -1204 Q 286 -1213 286 -1235 Q 286 -1258 304 -1278 Q 322 -1299 350 -1314 Q 410 -1344 469 -1344 Q 529 -1344 562 -1331 Q 595 -1318 617 -1296 Q 665 -1250 665 -1200 Q 665 -1150 653 -1099 Q 641 -1049 621 -997 Q 602 -945 581 -895 Q 560 -846 543 -809 L 517 -753 Q 507 -732 512 -739 Q 658 -942 704 -999 L 795 -1110 Q 896 -1228 954 -1266 Q 1071 -1344 1138 -1344 Q 1205 -1344 1251 -1327 Q 1297 -1311 1331 -1281 Q 1403 -1218 1403 -1119 Q 1403 -1020 1356 -912 Q 1309 -805 1274 -738 Q 1239 -671 1208 -602 Q 1109 -394 1109 -299 Q 1109 -256 1180 -256 Q 1235 -256 1280 -278 Q 1326 -301 1339 -301 Q 1366 -301 1366 -271 Q 1366 -144 1247 -58 Q 1167 0 1100 0 Q 1033 0 989 -14 Q 945 -28 911 -58 Q 833 -126 833 -247 Q 833 -394 929 -615 Q 999 -766 1028 -822 L 1072 -913 Q 1113 -994 1113 -1041 Q 1113 -1088 1041 -1088 Z"/>
		<path character="t" fill="#EA8872" fill-opacity="1.0" stroke="none" stroke-width="0" stroke-linecap="butt" stroke-opacity="1.0" transform="matrix(1,0,0,1,10868,0)" d="M 858 -382 Q 897 -382 897 -327 Q 897 -281 870 -237 Q 835 -156 729 -83 Q 608 0 486 0 Q 274 0 218 -193 Q 151 -421 419 -1162 Q 268 -1175 255 -1214 Q 251 -1226 251 -1239 Q 251 -1253 263 -1271 Q 276 -1289 295 -1306 Q 341 -1344 389 -1344 L 492 -1344 Q 634 -1637 694 -1677 Q 723 -1696 758 -1696 Q 794 -1696 817 -1688 Q 841 -1680 860 -1664 Q 902 -1629 902 -1586 Q 902 -1563 886 -1532 L 789 -1344 L 820 -1344 Q 902 -1344 952 -1344 Q 952 -1344 1026 -1344 Q 1051 -1344 1088 -1344 Q 1126 -1344 1126 -1318 Q 1126 -1153 717 -1153 L 706 -1153 L 617 -923 Q 466 -516 466 -353 Q 466 -307 487 -281 Q 508 -256 566 -256 Q 624 -256 671 -275 Q 718 -295 753 -319 Q 789 -343 814 -362 Q 840 -382 858 -382 Z"/>
		<path character="s" fill="#EA8872" fill-opacity="1.0" stroke="none" stroke-width="0" stroke-linecap="butt" stroke-opacity="1.0" transform="matrix(1,0,0,1,11845,0)" d="M 32 -240 Q 32 -280 49 -314 Q 67 -349 93 -372 Q 148 -423 209 -423 Q 261 -423 261 -370 Q 261 -235 352 -182 Q 385 -163 420 -163 Q 455 -163 480 -170 Q 505 -178 526 -195 Q 574 -232 574 -283 Q 574 -335 550 -378 Q 526 -421 491 -469 L 416 -572 Q 259 -777 259 -951 Q 259 -1095 383 -1212 Q 525 -1344 747 -1344 Q 941 -1344 1050 -1254 Q 1139 -1181 1139 -1081 Q 1139 -978 1061 -916 Q 990 -861 919 -875 Q 887 -882 870 -907 Q 853 -933 863 -966 Q 874 -999 874 -1034 Q 874 -1070 861 -1100 Q 848 -1130 826 -1151 Q 780 -1194 729 -1194 Q 679 -1194 646 -1183 Q 613 -1172 588 -1151 Q 537 -1105 537 -1037 Q 537 -969 560 -919 Q 584 -870 619 -821 Q 654 -772 694 -721 Q 735 -671 769 -615 Q 852 -484 852 -385 Q 852 -286 810 -219 Q 768 -153 701 -105 Q 558 0 381 0 Q 211 0 113 -80 Q 32 -148 32 -240 Z"/>
		<path character="w" fill="#EA8872" fill-opacity="1.0" stroke="none" stroke-width="0" stroke-linecap="butt" stroke-opacity="1.0" transform="matrix(1,0,0,1,13862,0)" d="M 529 -153 Q 350 0 248 0 Q 147 0 108 -103 Q 93 -139 93 -170 Q 93 -254 120 -333 Q 147 -412 173 -480 L 289 -773 Q 356 -953 370 -1024 Q 385 -1095 366 -1120 Q 348 -1145 323 -1164 Q 299 -1183 277 -1197 Q 256 -1212 256 -1234 Q 256 -1257 275 -1278 Q 294 -1299 326 -1314 Q 389 -1344 456 -1344 Q 524 -1344 562 -1330 Q 601 -1317 626 -1296 Q 675 -1253 675 -1192 Q 675 -1132 654 -1056 Q 634 -981 603 -896 Q 572 -812 534 -721 L 462 -541 Q 377 -324 358 -216 Q 482 -257 685 -514 Q 907 -795 1078 -1156 Q 1097 -1201 1126 -1214 Q 1173 -1236 1246 -1236 Q 1360 -1236 1364 -1169 Q 1366 -1129 1342 -1080 Q 1318 -1031 1302 -998 L 1251 -894 Q 1097 -585 1097 -392 Q 1097 -257 1171 -208 Q 1192 -192 1235 -192 Q 1278 -192 1337 -222 Q 1397 -253 1450 -306 Q 1504 -360 1550 -431 Q 1597 -502 1631 -583 Q 1704 -753 1704 -885 Q 1704 -1110 1618 -1216 Q 1589 -1250 1635 -1296 Q 1684 -1344 1788 -1344 Q 1915 -1344 1961 -1204 Q 1979 -1151 1979 -1045 Q 1979 -940 1941 -811 Q 1903 -682 1838 -563 Q 1773 -444 1688 -341 Q 1604 -238 1511 -162 Q 1311 0 1141 0 Q 848 0 848 -363 Q 848 -447 864 -526 Q 709 -307 529 -153 Z"/>
		<path character="i" fill="#EA8872" fill-opacity="1.0" stroke="none" stroke-width="0" stroke-linecap="butt" stroke-opacity="1.0" transform="matrix(1,0,0,1,15927,0)" d="M 803 -1732 Q 774 -1701 737 -1682 Q 701 -1663 660 -1658 Q 620 -1654 583 -1671 Q 547 -1688 521 -1720 Q 465 -1785 465 -1852 Q 465 -1919 486 -1952 Q 508 -1986 541 -2007 Q 604 -2048 659 -2048 Q 715 -2048 746 -2040 Q 777 -2032 803 -2014 Q 868 -1970 868 -1908 Q 868 -1846 850 -1804 Q 832 -1763 803 -1732 M 534 -256 Q 568 -256 568 -212 Q 568 -153 515 -91 Q 436 0 303 0 Q 151 0 95 -121 Q 74 -163 74 -223 Q 74 -284 95 -358 Q 117 -432 149 -513 Q 181 -595 219 -679 L 289 -841 Q 365 -1022 365 -1080 Q 365 -1138 352 -1157 Q 340 -1176 326 -1186 L 299 -1204 Q 286 -1213 286 -1235 Q 286 -1258 304 -1278 Q 322 -1299 350 -1314 Q 410 -1344 488 -1344 Q 681 -1344 681 -1248 Q 681 -1135 619 -990 Q 558 -846 515 -757 L 436 -585 Q 349 -395 349 -311 Q 349 -256 407 -256 Q 463 -256 492 -256 Q 521 -256 534 -256 Z"/>
		<path character="t" fill="#EA8872" fill-opacity="1.0" stroke="none" stroke-width="0" stroke-linecap="butt" stroke-opacity="1.0" transform="matrix(1,0,0,1,16712,0)" d="M 858 -382 Q 897 -382 897 -327 Q 897 -281 870 -237 Q 835 -156 729 -83 Q 608 0 486 0 Q 274 0 218 -193 Q 151 -421 419 -1162 Q 268 -1175 255 -1214 Q 251 -1226 251 -1239 Q 251 -1253 263 -1271 Q 276 -1289 295 -1306 Q 341 -1344 389 -1344 L 492 -1344 Q 634 -1637 694 -1677 Q 723 -1696 758 -1696 Q 794 -1696 817 -1688 Q 841 -1680 860 -1664 Q 902 -1629 902 -1586 Q 902 -1563 886 -1532 L 789 -1344 L 820 -1344 Q 902 -1344 952 -1344 Q 952 -1344 1026 -1344 Q 1051 -1344 1088 -1344 Q 1126 -1344 1126 -1318 Q 1126 -1153 717 -1153 L 706 -1153 L 617 -923 Q 466 -516 466 -353 Q 466 -307 487 -281 Q 508 -256 566 -256 Q 624 -256 671 -275 Q 718 -295 753 -319 Q 789 -343 814 -362 Q 840 -382 858 -382 Z"/>
		<path character="h" fill="#EA8872" fill-opacity="1.0" stroke="none" stroke-width="0" stroke-linecap="butt" stroke-opacity="1.0" transform="matrix(1,0,0,1,17688,0)" d="M 1042 -1088 Q 970 -1088 784 -874 L 675 -745 L 465 -479 Q 389 -339 345 -247 L 274 -99 Q 247 -44 226 -22 Q 206 0 171 0 Q 137 0 104 -12 Q 72 -25 49 -44 Q -1 -86 -1 -135 Q -1 -155 26 -212 L 79 -318 Q 324 -819 524 -1588 Q 597 -1872 630 -2099 Q 644 -2208 738 -2208 Q 798 -2208 837 -2179 Q 914 -2123 911 -2059 Q 908 -1995 892 -1915 Q 877 -1836 852 -1742 Q 827 -1649 795 -1546 Q 709 -1283 667 -1167 Q 538 -815 508 -755 Q 528 -778 559 -818 Q 798 -1123 854 -1182 Q 911 -1242 950 -1274 Q 1033 -1344 1160 -1344 Q 1264 -1344 1327 -1278 Q 1386 -1214 1386 -1138 Q 1386 -1063 1368 -1002 Q 1351 -941 1323 -878 Q 1295 -816 1263 -750 L 1197 -619 Q 1105 -420 1105 -324 Q 1105 -256 1163 -256 Q 1218 -256 1263 -278 Q 1309 -301 1322 -301 Q 1349 -301 1349 -271 Q 1349 -144 1231 -58 Q 1150 0 1083 0 Q 1016 0 972 -13 Q 928 -27 894 -57 Q 816 -126 816 -259 Q 816 -403 914 -620 L 1055 -913 Q 1096 -994 1096 -1041 Q 1096 -1088 1042 -1088 Z"/>
		<path character="F" fill="#EA8872" fill-opacity="1.0" stroke="none" stroke-width="0" stroke-linecap="butt" stroke-opacity="1.0" transform="matrix(1,0,0,1,20026,0)" d="M 1256 -832 Q 1218 -832 1176 -832 Q 1135 -832 1079 -832 Q 956 -832 811 -820 Q 778 -713 702 -557 Q 627 -402 554 -294 Q 396 -63 234 -9 Q 210 0 185 0 Q 161 0 141 -8 Q 122 -16 109 -29 Q 81 -53 81 -81 Q 81 -110 101 -124 Q 287 -254 484 -777 Q 470 -773 455 -769 Q 441 -765 430 -761 Q 420 -757 406 -757 Q 392 -757 376 -766 Q 360 -775 347 -787 Q 318 -814 318 -839 Q 318 -865 341 -887 Q 364 -910 398 -930 Q 461 -968 557 -1000 L 627 -1227 Q 752 -1625 866 -1779 Q 759 -1792 707 -1792 Q 553 -1792 484 -1744 Q 417 -1696 390 -1640 Q 364 -1585 362 -1563 Q 358 -1526 338 -1516 Q 319 -1506 291 -1506 Q 263 -1506 232 -1527 Q 202 -1548 182 -1581 Q 140 -1648 149 -1732 Q 159 -1817 203 -1878 Q 247 -1939 307 -1977 Q 419 -2048 543 -2048 Q 667 -2048 778 -2028 Q 889 -2008 999 -1983 Q 1292 -1920 1372 -1920 Q 1452 -1920 1490 -1937 Q 1529 -1955 1556 -1990 Q 1584 -2025 1595 -2036 Q 1607 -2048 1631 -2048 Q 1671 -2048 1665 -1982 Q 1660 -1916 1636 -1868 Q 1613 -1821 1575 -1791 Q 1498 -1728 1378 -1728 Q 1259 -1728 1088 -1749 Q 1045 -1659 1005 -1512 L 885 -1067 Q 1008 -1088 1073 -1088 Q 1138 -1088 1180 -1074 Q 1222 -1061 1255 -1037 Q 1331 -985 1329 -908 Q 1328 -832 1256 -832 Z"/>
		<path character="o" fill="#EA8872" fill-opacity="1.0" stroke="none" stroke-width="0" stroke-linecap="butt" stroke-opacity="1.0" transform="matrix(1,0,0,1,21450,0)" d="M 216 -100 Q 161 -152 129 -231 Q 98 -310 97 -418 Q 96 -526 124 -636 Q 152 -747 204 -850 Q 256 -953 328 -1043 Q 401 -1133 489 -1200 Q 681 -1344 887 -1344 Q 1157 -1344 1253 -1111 Q 1321 -943 1261 -704 Q 1206 -484 1059 -300 Q 913 -116 715 -39 Q 615 0 518 0 Q 422 0 346 -24 Q 271 -49 216 -100 M 467 -724 Q 428 -629 405 -529 Q 382 -429 383 -340 Q 384 -251 411 -200 Q 438 -150 498 -150 Q 559 -150 617 -190 Q 676 -231 731 -297 Q 786 -364 834 -451 Q 883 -538 920 -633 Q 1000 -839 997 -999 Q 997 -1140 938 -1179 Q 915 -1194 872 -1194 Q 829 -1194 774 -1156 Q 719 -1118 664 -1054 Q 609 -990 557 -904 Q 506 -819 467 -724 Z"/>
		<path character="o" fill="#EA8872" fill-opacity="1.0" stroke="none" stroke-width="0" stroke-linecap="butt" stroke-opacity="1.0" transform="matrix(1,0,0,1,22875,0)" d="M 216 -100 Q 161 -152 129 -231 Q 98 -310 97 -418 Q 96 -526 124 -636 Q 152 -747 204 -850 Q 256 -953 328 -1043 Q 401 -1133 489 -1200 Q 681 -1344 887 -1344 Q 1157 -1344 1253 -1111 Q 1321 -943 1261 -704 Q 1206 -484 1059 -300 Q 913 -116 715 -39 Q 615 0 518 0 Q 422 0 346 -24 Q 271 -49 216 -100 M 467 -724 Q 428 -629 405 -529 Q 382 -429 383 -340 Q 384 -251 411 -200 Q 438 -150 498 -150 Q 559 -150 617 -190 Q 676 -231 731 -297 Q 786 -364 834 -451 Q 883 -538 920 -633 Q 1000 -839 997 -999 Q 997 -1140 938 -1179 Q 915 -1194 872 -1194 Q 829 -1194 774 -1156 Q 719 -1118 664 -1054 Q 609 -990 557 -904 Q 506 -819 467 -724 Z"/>
		<path character="t" fill="#EA8872" fill-opacity="1.0" stroke="none" stroke-width="0" stroke-linecap="butt" stroke-opacity="1.0" transform="matrix(1,0,0,1,24300,0)" d="M 858 -382 Q 897 -382 897 -327 Q 897 -281 870 -237 Q 835 -156 729 -83 Q 608 0 486 0 Q 274 0 218 -193 Q 151 -421 419 -1162 Q 268 -1175 255 -1214 Q 251 -1226 251 -1239 Q 251 -1253 263 -1271 Q 276 -1289 295 -1306 Q 341 -1344 389 -1344 L 492 -1344 Q 634 -1637 694 -1677 Q 723 -1696 758 -1696 Q 794 -1696 817 -1688 Q 841 -1680 860 -1664 Q 902 -1629 902 -1586 Q 902 -1563 886 -1532 L 789 -1344 L 820 -1344 Q 902 -1344 952 -1344 Q 952 -1344 1026 -1344 Q 1051 -1344 1088 -1344 Q 1126 -1344 1126 -1318 Q 1126 -1153 717 -1153 L 706 -1153 L 617 -923 Q 466 -516 466 -353 Q 466 -307 487 -281 Q 508 -256 566 -256 Q 624 -256 671 -275 Q 718 -295 753 -319 Q 789 -343 814 -362 Q 840 -382 858 -382 Z"/>
		<path character="e" fill="#EA8872" fill-opacity="1.0" stroke="none" stroke-width="0" stroke-linecap="butt" stroke-opacity="1.0" transform="matrix(1,0,0,1,25276,0)" d="M 108 -463 Q 113 -575 146 -677 Q 179 -779 234 -875 Q 289 -971 363 -1056 Q 437 -1142 524 -1206 Q 712 -1344 903 -1344 Q 1128 -1344 1202 -1164 Q 1229 -1102 1227 -1018 Q 1226 -935 1194 -864 Q 1163 -793 1107 -735 Q 1051 -677 974 -631 Q 898 -585 807 -553 Q 621 -489 408 -489 Q 403 -471 401 -434 Q 400 -397 409 -351 Q 419 -306 441 -271 Q 488 -192 578 -192 Q 730 -192 874 -281 Q 925 -311 957 -343 Q 990 -375 1013 -375 Q 1037 -375 1054 -347 Q 1072 -319 1072 -284 Q 1072 -215 1033 -164 Q 868 0 541 0 Q 348 0 231 -113 Q 100 -242 108 -463 M 874 -1194 Q 736 -1194 609 -1004 Q 502 -841 436 -617 Q 655 -639 817 -791 Q 965 -933 965 -1063 Q 965 -1194 874 -1194 Z"/>
		<path character="r" fill="#EA8872" fill-opacity="1.0" stroke="none" stroke-width="0" stroke-linecap="butt" stroke-opacity="1.0" transform="matrix(1,0,0,1,26573,0)" d="M 99 -43 Q 73 -63 57 -87 Q 42 -111 40 -128 Q 39 -145 47 -170 Q 56 -195 71 -232 Q 338 -877 338 -1098 Q 334 -1160 295 -1186 L 269 -1204 Q 257 -1213 256 -1235 Q 256 -1258 273 -1278 Q 290 -1299 317 -1314 Q 374 -1344 433 -1344 Q 493 -1344 526 -1331 Q 560 -1318 584 -1296 Q 634 -1250 634 -1198 Q 635 -1146 622 -1093 Q 610 -1040 593 -989 Q 576 -938 559 -892 Q 542 -846 537 -824 Q 526 -779 529 -767 Q 560 -794 567 -820 L 618 -916 Q 789 -1219 951 -1317 Q 999 -1344 1065 -1344 Q 1131 -1344 1171 -1298 Q 1212 -1252 1214 -1196 Q 1216 -1140 1206 -1102 Q 1197 -1065 1177 -1033 Q 1134 -960 1072 -960 Q 1055 -960 1041 -972 L 1012 -997 Q 968 -1035 928 -1035 Q 888 -1035 831 -983 Q 774 -932 712 -852 Q 505 -584 374 -251 L 316 -103 Q 294 -47 277 -23 Q 260 0 226 0 Q 193 0 159 -12 Q 126 -24 99 -43 Z"/>
		<path character="t" fill="#EA8872" fill-opacity="1.0" stroke="none" stroke-width="0" stroke-linecap="butt" stroke-opacity="1.0" transform="matrix(1,0,0,1,28526,0)" d="M 858 -382 Q 897 -382 897 -327 Q 897 -281 870 -237 Q 835 -156 729 -83 Q 608 0 486 0 Q 274 0 218 -193 Q 151 -421 419 -1162 Q 268 -1175 255 -1214 Q 251 -1226 251 -1239 Q 251 -1253 263 -1271 Q 276 -1289 295 -1306 Q 341 -1344 389 -1344 L 492 -1344 Q 634 -1637 694 -1677 Q 723 -1696 758 -1696 Q 794 -1696 817 -1688 Q 841 -1680 860 -1664 Q 902 -1629 902 -1586 Q 902 -1563 886 -1532 L 789 -1344 L 820 -1344 Q 902 -1344 952 -1344 Q 952 -1344 1026 -1344 Q 1051 -1344 1088 -1344 Q 1126 -1344 1126 -1318 Q 1126 -1153 717 -1153 L 706 -1153 L 617 -923 Q 466 -516 466 -353 Q 466 -307 487 -281 Q 508 -256 566 -256 Q 624 -256 671 -275 Q 718 -295 753 -319 Q 789 -343 814 -362 Q 840 -382 858 -382 Z"/>
		<path character="o" fill="#EA8872" fill-opacity="1.0" stroke="none" stroke-width="0" stroke-linecap="butt" stroke-opacity="1.0" transform="matrix(1,0,0,1,29503,0)" d="M 216 -100 Q 161 -152 129 -231 Q 98 -310 97 -418 Q 96 -526 124 -636 Q 152 -747 204 -850 Q 256 -953 328 -1043 Q 401 -1133 489 -1200 Q 681 -1344 887 -1344 Q 1157 -1344 1253 -1111 Q 1321 -943 1261 -704 Q 1206 -484 1059 -300 Q 913 -116 715 -39 Q 615 0 518 0 Q 422 0 346 -24 Q 271 -49 216 -100 M 467 -724 Q 428 -629 405 -529 Q 382 -429 383 -340 Q 384 -251 411 -200 Q 438 -150 498 -150 Q 559 -150 617 -190 Q 676 -231 731 -297 Q 786 -364 834 -451 Q 883 -538 920 -633 Q 1000 -839 997 -999 Q 997 -1140 938 -1179 Q 915 -1194 872 -1194 Q 829 -1194 774 -1156 Q 719 -1118 664 -1054 Q 609 -990 557 -904 Q 506 -819 467 -724 Z"/>
		<path character="P" fill="#EA8872" fill-opacity="1.0" stroke="none" stroke-width="0" stroke-linecap="butt" stroke-opacity="1.0" transform="matrix(1,0,0,1,31776,0)" d="M 384 -328 Q 286 -182 192 -91 Q 98 0 11 0 Q -34 0 -56 -21 Q -95 -54 -95 -84 Q -95 -114 -75 -128 Q 123 -270 365 -958 L 442 -1176 Q 576 -1550 669 -1639 Q 702 -1664 737 -1664 Q 773 -1664 799 -1653 Q 826 -1642 845 -1625 Q 890 -1587 890 -1535 Q 890 -1516 871 -1479 Q 853 -1443 830 -1385 L 663 -930 Q 982 -990 1189 -1203 Q 1383 -1403 1383 -1614 Q 1383 -1814 1210 -1876 Q 1151 -1898 1073 -1898 Q 995 -1898 913 -1875 Q 832 -1852 753 -1814 Q 595 -1739 494 -1636 Q 467 -1607 435 -1607 Q 404 -1607 376 -1620 Q 349 -1634 328 -1656 Q 280 -1704 280 -1753 Q 280 -1803 314 -1842 Q 348 -1882 404 -1914 Q 461 -1946 534 -1971 Q 608 -1996 685 -2014 Q 843 -2048 998 -2048 Q 1154 -2048 1283 -2009 Q 1412 -1971 1496 -1905 Q 1666 -1774 1666 -1571 L 1666 -1550 Q 1654 -1302 1478 -1113 Q 1324 -949 1082 -855 Q 862 -768 667 -768 L 633 -768 Q 616 -768 600 -771 Q 482 -474 384 -328 Z"/>
		<path character="d" fill="#EA8872" fill-opacity="1.0" stroke="none" stroke-width="0" stroke-linecap="butt" stroke-opacity="1.0" transform="matrix(1,0,0,1,33265,0)" d="M 1406 -302 Q 1433 -302 1433 -271 Q 1433 -148 1316 -60 Q 1239 0 1170 0 Q 1101 0 1060 -16 Q 1020 -33 987 -69 Q 914 -152 914 -297 Q 914 -326 924 -390 Q 818 -217 742 -147 Q 588 0 441 0 Q 209 0 137 -206 Q 110 -282 110 -396 Q 110 -511 145 -628 Q 181 -745 242 -850 Q 303 -956 384 -1046 Q 465 -1137 554 -1204 Q 746 -1344 900 -1344 Q 1055 -1344 1148 -1233 Q 1377 -2011 1492 -2151 Q 1541 -2208 1595 -2208 Q 1684 -2208 1730 -2158 Q 1744 -2141 1744 -2124 Q 1744 -2108 1723 -2063 Q 1702 -2018 1662 -1918 Q 1545 -1616 1498 -1476 Q 1377 -1118 1335 -983 L 1263 -745 Q 1169 -428 1169 -342 Q 1169 -256 1234 -256 Q 1293 -256 1328 -271 L 1378 -294 Q 1393 -302 1406 -302 M 504 -192 Q 639 -192 814 -455 Q 996 -727 1068 -1047 Q 1063 -1137 994 -1179 Q 970 -1194 922 -1194 Q 874 -1194 810 -1159 Q 747 -1125 687 -1066 Q 627 -1007 575 -927 Q 524 -848 486 -759 Q 403 -565 403 -378 Q 403 -192 504 -192 Z"/>
		<path character="f" fill="#EA8872" fill-opacity="1.0" stroke="none" stroke-width="0" stroke-linecap="butt" stroke-opacity="1.0" transform="matrix(1,0,0,1,34753,0)" d="M -54 305 Q -54 278 -12 197 Q 29 116 78 -9 Q 127 -135 172 -271 Q 217 -408 263 -563 L 365 -905 L 228 -869 Q 177 -869 144 -923 Q 137 -937 137 -956 Q 137 -976 168 -1003 Q 200 -1030 245 -1053 Q 337 -1100 434 -1125 L 446 -1162 Q 482 -1272 514 -1390 Q 546 -1508 582 -1620 Q 618 -1733 664 -1834 Q 710 -1936 772 -2011 Q 908 -2176 1114 -2176 Q 1267 -2176 1356 -2095 Q 1445 -2014 1445 -1876 Q 1445 -1732 1362 -1626 Q 1293 -1539 1208 -1539 Q 1101 -1539 1063 -1633 Q 1053 -1657 1053 -1674 Q 1053 -1702 1092 -1725 Q 1164 -1778 1193 -1867 Q 1202 -1895 1202 -1922 Q 1202 -2026 1118 -2026 Q 1003 -2026 906 -1772 Q 877 -1695 848 -1602 L 725 -1195 Q 844 -1216 898 -1216 Q 953 -1216 995 -1203 Q 1037 -1190 1071 -1167 Q 1148 -1114 1148 -1037 Q 1148 -960 1075 -960 L 908 -960 Q 772 -960 656 -948 L 549 -574 Q 442 -192 376 -19 Q 310 154 247 274 Q 188 384 67 384 Q -54 384 -54 305 Z"/>
		<path character="f" fill="#EA8872" fill-opacity="1.0" stroke="none" stroke-width="0" stroke-linecap="butt" stroke-opacity="1.0" transform="matrix(1,0,0,1,36707,0)" d="M -54 305 Q -54 278 -12 197 Q 29 116 78 -9 Q 127 -135 172 -271 Q 217 -408 263 -563 L 365 -905 L 228 -869 Q 177 -869 144 -923 Q 137 -937 137 -956 Q 137 -976 168 -1003 Q 200 -1030 245 -1053 Q 337 -1100 434 -1125 L 446 -1162 Q 482 -1272 514 -1390 Q 546 -1508 582 -1620 Q 618 -1733 664 -1834 Q 710 -1936 772 -2011 Q 908 -2176 1114 -2176 Q 1267 -2176 1356 -2095 Q 1445 -2014 1445 -1876 Q 1445 -1732 1362 -1626 Q 1293 -1539 1208 -1539 Q 1101 -1539 1063 -1633 Q 1053 -1657 1053 -1674 Q 1053 -1702 1092 -1725 Q 1164 -1778 1193 -1867 Q 1202 -1895 1202 -1922 Q 1202 -2026 1118 -2026 Q 1003 -2026 906 -1772 Q 877 -1695 848 -1602 L 725 -1195 Q 844 -1216 898 -1216 Q 953 -1216 995 -1203 Q 1037 -1190 1071 -1167 Q 1148 -1114 1148 -1037 Q 1148 -960 1075 -960 L 908 -960 Q 772 -960 656 -948 L 549 -574 Q 442 -192 376 -19 Q 310 154 247 274 Q 188 384 67 384 Q -54 384 -54 305 Z"/>
		<path character="o" fill="#EA8872" fill-opacity="1.0" stroke="none" stroke-width="0" stroke-linecap="butt" stroke-opacity="1.0" transform="matrix(1,0,0,1,37811,0)" d="M 216 -100 Q 161 -152 129 -231 Q 98 -310 97 -418 Q 96 -526 124 -636 Q 152 -747 204 -850 Q 256 -953 328 -1043 Q 401 -1133 489 -1200 Q 681 -1344 887 -1344 Q 1157 -1344 1253 -1111 Q 1321 -943 1261 -704 Q 1206 -484 1059 -300 Q 913 -116 715 -39 Q 615 0 518 0 Q 422 0 346 -24 Q 271 -49 216 -100 M 467 -724 Q 428 -629 405 -529 Q 382 -429 383 -340 Q 384 -251 411 -200 Q 438 -150 498 -150 Q 559 -150 617 -190 Q 676 -231 731 -297 Q 786 -364 834 -451 Q 883 -538 920 -633 Q 1000 -839 997 -999 Q 997 -1140 938 -1179 Q 915 -1194 872 -1194 Q 829 -1194 774 -1156 Q 719 -1118 664 -1054 Q 609 -990 557 -904 Q 506 -819 467 -724 Z"/>
		<path character="r" fill="#EA8872" fill-opacity="1.0" stroke="none" stroke-width="0" stroke-linecap="butt" stroke-opacity="1.0" transform="matrix(1,0,0,1,39236,0)" d="M 99 -43 Q 73 -63 57 -87 Q 42 -111 40 -128 Q 39 -145 47 -170 Q 56 -195 71 -232 Q 338 -877 338 -1098 Q 334 -1160 295 -1186 L 269 -1204 Q 257 -1213 256 -1235 Q 256 -1258 273 -1278 Q 290 -1299 317 -1314 Q 374 -1344 433 -1344 Q 493 -1344 526 -1331 Q 560 -1318 584 -1296 Q 634 -1250 634 -1198 Q 635 -1146 622 -1093 Q 610 -1040 593 -989 Q 576 -938 559 -892 Q 542 -846 537 -824 Q 526 -779 529 -767 Q 560 -794 567 -820 L 618 -916 Q 789 -1219 951 -1317 Q 999 -1344 1065 -1344 Q 1131 -1344 1171 -1298 Q 1212 -1252 1214 -1196 Q 1216 -1140 1206 -1102 Q 1197 -1065 1177 -1033 Q 1134 -960 1072 -960 Q 1055 -960 1041 -972 L 1012 -997 Q 968 -1035 928 -1035 Q 888 -1035 831 -983 Q 774 -932 712 -852 Q 505 -584 374 -251 L 316 -103 Q 294 -47 277 -23 Q 260 0 226 0 Q 193 0 159 -12 Q 126 -24 99 -43 Z"/>
		<path character="R" fill="#EA8872" fill-opacity="1.0" stroke="none" stroke-width="0" stroke-linecap="butt" stroke-opacity="1.0" transform="matrix(1,0,0,1,41189,0)" d="M 1406 -1595 Q 1406 -1858 1061 -1858 Q 844 -1858 622 -1727 Q 558 -1689 522 -1657 Q 486 -1625 453 -1625 Q 420 -1625 390 -1641 Q 360 -1658 336 -1682 Q 249 -1778 354 -1867 Q 512 -2001 877 -2040 Q 950 -2048 1063 -2048 Q 1176 -2048 1301 -2007 Q 1427 -1966 1512 -1896 Q 1683 -1755 1683 -1537 Q 1683 -1277 1446 -1064 Q 1242 -876 962 -796 Q 1038 -734 1105 -617 L 1210 -431 Q 1348 -177 1457 -155 Q 1495 -148 1535 -157 Q 1576 -167 1588 -167 Q 1601 -167 1605 -146 Q 1610 -125 1594 -93 Q 1579 -62 1544 -34 Q 1461 32 1362 24 Q 1264 17 1203 -16 Q 1142 -50 1094 -101 Q 1046 -153 1008 -215 Q 971 -278 940 -344 L 881 -472 Q 853 -535 829 -580 Q 806 -626 789 -663 Q 772 -701 751 -731 Q 706 -799 637 -818 Q 361 -109 76 -9 Q 53 0 28 0 Q 4 0 -15 -8 Q -35 -17 -49 -30 Q -76 -55 -76 -85 Q -76 -115 -56 -130 Q 140 -273 381 -964 L 459 -1186 Q 595 -1569 688 -1658 Q 721 -1683 756 -1683 Q 791 -1683 817 -1671 Q 844 -1660 864 -1643 Q 908 -1604 908 -1562 Q 908 -1521 890 -1489 Q 873 -1457 851 -1398 Q 786 -1229 751 -1127 L 684 -936 Q 963 -973 1179 -1157 Q 1406 -1350 1406 -1595 Z"/>
		<path character="u" fill="#EA8872" fill-opacity="1.0" stroke="none" stroke-width="0" stroke-linecap="butt" stroke-opacity="1.0" transform="matrix(1,0,0,1,42870,0)" d="M 1319 -292 Q 1349 -292 1349 -260 Q 1349 -137 1236 -54 Q 1160 0 1058 0 Q 974 0 929 -39 Q 849 -110 849 -213 Q 849 -342 958 -610 Q 756 -337 674 -247 Q 593 -157 533 -108 Q 402 0 295 0 Q 133 0 79 -138 Q 63 -180 63 -234 Q 63 -289 82 -356 Q 101 -424 131 -497 Q 161 -571 197 -648 L 268 -803 Q 404 -1100 369 -1155 Q 353 -1179 310 -1204 Q 294 -1213 294 -1235 Q 294 -1258 313 -1278 Q 332 -1299 362 -1314 Q 427 -1344 491 -1344 Q 555 -1344 588 -1331 Q 622 -1318 643 -1298 Q 686 -1256 686 -1206 Q 686 -1156 669 -1093 Q 652 -1031 624 -958 Q 597 -885 564 -808 Q 474 -604 442 -539 L 394 -442 Q 353 -355 353 -320 Q 353 -285 365 -270 Q 377 -256 407 -256 Q 438 -256 479 -283 Q 520 -311 568 -357 Q 617 -404 669 -465 Q 722 -526 772 -591 Q 870 -720 916 -797 Q 1194 -1269 1213 -1290 Q 1255 -1344 1299 -1344 Q 1343 -1344 1375 -1334 Q 1408 -1325 1432 -1308 Q 1487 -1269 1467 -1230 Q 1147 -593 1122 -429 Q 1116 -372 1116 -351 Q 1116 -256 1176 -256 Q 1232 -256 1269 -274 Q 1306 -292 1319 -292 Z"/>
		<path character="b" fill="#EA8872" fill-opacity="1.0" stroke="none" stroke-width="0" stroke-linecap="butt" stroke-opacity="1.0" transform="matrix(1,0,0,1,44358,0)" d="M 106 -383 Q 106 -458 117 -527 Q 129 -596 146 -666 Q 164 -737 186 -807 L 333 -1252 Q 508 -1794 553 -2099 Q 567 -2208 660 -2208 Q 715 -2208 753 -2179 Q 823 -2122 821 -2058 Q 819 -1994 802 -1916 Q 786 -1838 760 -1745 Q 735 -1653 702 -1551 Q 614 -1290 571 -1174 L 496 -978 Q 610 -1153 683 -1218 Q 827 -1344 983 -1344 Q 1213 -1344 1289 -1109 Q 1314 -1028 1314 -907 Q 1314 -786 1278 -667 Q 1242 -548 1180 -445 Q 1118 -343 1036 -261 Q 954 -179 864 -121 Q 672 0 492 0 Q 311 0 207 -109 Q 106 -219 106 -383 M 474 -170 Q 597 -170 725 -278 Q 919 -442 986 -748 Q 1008 -848 1008 -956 Q 1008 -1065 983 -1108 Q 958 -1152 906 -1152 Q 854 -1152 798 -1111 Q 742 -1070 680 -1002 Q 618 -935 557 -847 Q 497 -759 449 -665 Q 343 -459 343 -314 Q 343 -170 474 -170 Z"/>
		<path character="y" fill="#EA8872" fill-opacity="1.0" stroke="none" stroke-width="0" stroke-linecap="butt" stroke-opacity="1.0" transform="matrix(1,0,0,1,45783,0)" d="M 92 -138 Q 76 -180 76 -234 Q 76 -289 95 -356 Q 114 -424 144 -497 Q 175 -571 210 -648 L 281 -803 Q 417 -1100 382 -1155 Q 366 -1179 323 -1204 Q 307 -1213 307 -1235 Q 307 -1258 326 -1278 Q 345 -1299 375 -1314 Q 440 -1344 504 -1344 Q 568 -1344 601 -1331 Q 635 -1318 656 -1298 Q 700 -1256 700 -1206 Q 700 -1156 682 -1093 Q 665 -1031 637 -958 Q 610 -885 578 -808 Q 487 -604 455 -539 L 407 -442 Q 366 -355 366 -320 Q 366 -285 378 -270 Q 390 -256 421 -256 Q 452 -256 489 -278 Q 526 -301 569 -339 Q 613 -377 659 -426 Q 706 -476 751 -530 Q 868 -668 924 -767 Q 1208 -1267 1225 -1290 Q 1268 -1344 1312 -1344 Q 1356 -1344 1388 -1334 Q 1421 -1325 1445 -1307 Q 1498 -1271 1477 -1225 Q 1457 -1180 1428 -1100 Q 1179 -397 1104 -218 Q 1030 -40 975 68 Q 920 177 846 287 Q 772 397 688 488 Q 496 692 328 707 Q 264 712 226 689 Q 160 649 160 614 Q 160 578 220 564 Q 280 551 343 509 Q 407 468 466 413 Q 639 248 735 53 Q 816 -117 866 -270 L 969 -582 Q 931 -536 885 -474 L 790 -348 Q 667 -191 585 -125 Q 431 0 308 0 Q 146 0 92 -138 Z"/>
</g>
</svg>