<svg xmlns="http://www.w3.org/2000/svg" xmlns:xlink="http://www.w3.org/1999/xlink" viewBox="0 0 10613 3546">
<title>Headline</title>
<g transform="matrix(1,0,0,1,0,2624)">
  		<path character="H" fill="#EA8872" fill-opacity="1.0" stroke="none" stroke-width="0px" stroke-linecap="butt" stroke-opacity="1.0" transform="matrix(1,0,0,1,128,0)" d="M 1319 -990 Q 1158 -1002 1003 -1002 Q 849 -1002 684 -982 Q 475 -391 236 -137 Q 148 -43 54 -9 Q 30 0 6 0 Q -18 0 -37 -8 Q -56 -17 -68 -30 Q -96 -56 -96 -86 Q -96 -116 -76 -130 Q 133 -280 366 -909 Q 356 -906 346 -903 Q 337 -901 324 -897 Q 311 -893 292 -905 Q 274 -917 260 -937 Q 226 -984 251 -1006 Q 297 -1047 427 -1084 Q 602 -1629 609 -1856 Q 555 -1856 509 -1830 L 410 -1773 Q 369 -1751 302 -1809 Q 236 -1864 244 -1912 Q 253 -1984 454 -2031 Q 525 -2048 565 -2048 Q 606 -2048 646 -2048 Q 686 -2048 719 -2040 Q 851 -2008 881 -1925 Q 894 -1887 894 -1834 Q 894 -1781 883 -1709 Q 873 -1637 853 -1546 Q 811 -1347 742 -1122 Q 1028 -1152 1334 -1152 L 1390 -1152 L 1462 -1372 Q 1583 -1744 1610 -1935 Q 1628 -2048 1721 -2048 Q 1781 -2048 1820 -2017 Q 1894 -1962 1891 -1898 Q 1889 -1835 1869 -1755 Q 1849 -1676 1817 -1578 Q 1786 -1480 1746 -1368 L 1663 -1141 L 1694 -1139 Q 1714 -1137 1732 -1135 Q 1750 -1133 1763 -1129 Q 1790 -1120 1790 -1099 Q 1790 -1078 1775 -1054 Q 1760 -1031 1733 -1010 Q 1666 -960 1578 -960 Q 1418 -546 1391 -452 Q 1365 -359 1365 -326 Q 1365 -256 1421 -256 Q 1474 -256 1507 -273 L 1554 -296 Q 1568 -303 1582 -303 Q 1609 -303 1609 -273 Q 1609 -144 1474 -58 Q 1385 0 1289 0 Q 1155 0 1103 -121 Q 1084 -162 1084 -200 Q 1084 -286 1110 -374 Q 1137 -463 1168 -555 L 1319 -990 Z"/>
		<path character="e" fill="#EA8872" fill-opacity="1.0" stroke="none" stroke-width="0px" stroke-linecap="butt" stroke-opacity="1.0" transform="matrix(1,0,0,1,1937,0)" d="M 108 -463 Q 113 -575 146 -677 Q 179 -779 234 -875 Q 289 -971 363 -1056 Q 437 -1142 524 -1206 Q 712 -1344 903 -1344 Q 1128 -1344 1202 -1164 Q 1229 -1102 1227 -1018 Q 1226 -935 1194 -864 Q 1163 -793 1107 -735 Q 1051 -677 974 -631 Q 898 -585 807 -553 Q 621 -489 408 -489 Q 403 -471 401 -434 Q 400 -397 409 -351 Q 419 -306 441 -271 Q 488 -192 578 -192 Q 730 -192 874 -281 Q 925 -311 957 -343 Q 990 -375 1013 -375 Q 1037 -375 1054 -347 Q 1072 -319 1072 -284 Q 1072 -215 1033 -164 Q 868 0 541 0 Q 348 0 231 -113 Q 100 -242 108 -463 M 874 -1194 Q 736 -1194 609 -1004 Q 502 -841 436 -617 Q 655 -639 817 -791 Q 965 -933 965 -1063 Q 965 -1194 874 -1194 Z"/>
		<path character="a" fill="#EA8872" fill-opacity="1.0" stroke="none" stroke-width="0px" stroke-linecap="butt" stroke-opacity="1.0" transform="matrix(1,0,0,1,3233,0)" d="M 1108 -353 Q 1108 -233 1193 -233 Q 1252 -233 1291 -251 Q 1330 -270 1343 -270 Q 1370 -270 1370 -241 Q 1370 -128 1252 -47 Q 1128 38 998 -5 Q 912 -35 872 -135 Q 852 -186 852 -228 Q 852 -296 865 -372 Q 743 -128 562 -36 Q 490 0 408 0 Q 327 0 267 -33 Q 208 -66 166 -123 Q 80 -244 88 -427 Q 96 -656 226 -876 Q 345 -1082 528 -1212 Q 710 -1344 869 -1344 Q 1028 -1344 1125 -1216 Q 1216 -1344 1285 -1344 Q 1360 -1344 1398 -1317 Q 1470 -1265 1449 -1227 Q 1120 -564 1111 -402 Q 1108 -379 1108 -353 M 379 -350 Q 379 -192 481 -192 Q 558 -192 671 -322 Q 836 -513 964 -836 Q 1004 -938 1032 -1039 Q 1027 -1134 957 -1179 Q 933 -1194 886 -1194 Q 840 -1194 777 -1160 Q 715 -1126 657 -1067 Q 599 -1008 548 -927 Q 498 -846 460 -751 Q 379 -549 379 -350 Z"/>
		<path character="d" fill="#EA8872" fill-opacity="1.0" stroke="none" stroke-width="0px" stroke-linecap="butt" stroke-opacity="1.0" transform="matrix(1,0,0,1,4722,0)" d="M 1406 -302 Q 1433 -302 1433 -271 Q 1433 -148 1316 -60 Q 1239 0 1170 0 Q 1101 0 1060 -16 Q 1020 -33 987 -69 Q 914 -152 914 -297 Q 914 -326 924 -390 Q 818 -217 742 -147 Q 588 0 441 0 Q 209 0 137 -206 Q 110 -282 110 -396 Q 110 -511 145 -628 Q 181 -745 242 -850 Q 303 -956 384 -1046 Q 465 -1137 554 -1204 Q 746 -1344 900 -1344 Q 1055 -1344 1148 -1233 Q 1377 -2011 1492 -2151 Q 1541 -2208 1595 -2208 Q 1684 -2208 1730 -2158 Q 1744 -2141 1744 -2124 Q 1744 -2108 1723 -2063 Q 1702 -2018 1662 -1918 Q 1545 -1616 1498 -1476 Q 1377 -1118 1335 -983 L 1263 -745 Q 1169 -428 1169 -342 Q 1169 -256 1234 -256 Q 1293 -256 1328 -271 L 1378 -294 Q 1393 -302 1406 -302 M 504 -192 Q 639 -192 814 -455 Q 996 -727 1068 -1047 Q 1063 -1137 994 -1179 Q 970 -1194 922 -1194 Q 874 -1194 810 -1159 Q 747 -1125 687 -1066 Q 627 -1007 575 -927 Q 524 -848 486 -759 Q 403 -565 403 -378 Q 403 -192 504 -192 Z"/>
		<path character="l" fill="#EA8872" fill-opacity="1.0" stroke="none" stroke-width="0px" stroke-linecap="butt" stroke-opacity="1.0" transform="matrix(1,0,0,1,6211,0)" d="M 159 -65 Q 126 -99 105 -151 Q 85 -204 85 -274 Q 85 -344 117 -461 Q 150 -578 200 -728 L 310 -1052 Q 545 -1729 581 -2099 Q 593 -2208 689 -2208 Q 749 -2208 789 -2180 Q 865 -2123 862 -2054 Q 860 -1985 837 -1885 Q 815 -1786 779 -1668 Q 744 -1551 698 -1420 L 517 -899 Q 361 -455 361 -325 Q 361 -256 419 -256 Q 474 -256 519 -272 Q 564 -288 578 -288 Q 605 -288 605 -259 Q 605 -138 486 -56 Q 406 0 339 0 Q 273 0 232 -15 Q 192 -31 159 -65 Z"/>
		<path character="i" fill="#EA8872" fill-opacity="1.0" stroke="none" stroke-width="0px" stroke-linecap="butt" stroke-opacity="1.0" transform="matrix(1,0,0,1,6995,0)" d="M 803 -1732 Q 774 -1701 737 -1682 Q 701 -1663 660 -1658 Q 620 -1654 583 -1671 Q 547 -1688 521 -1720 Q 465 -1785 465 -1852 Q 465 -1919 486 -1952 Q 508 -1986 541 -2007 Q 604 -2048 659 -2048 Q 715 -2048 746 -2040 Q 777 -2032 803 -2014 Q 868 -1970 868 -1908 Q 868 -1846 850 -1804 Q 832 -1763 803 -1732 M 534 -256 Q 568 -256 568 -212 Q 568 -153 515 -91 Q 436 0 303 0 Q 151 0 95 -121 Q 74 -163 74 -223 Q 74 -284 95 -358 Q 117 -432 149 -513 Q 181 -595 219 -679 L 289 -841 Q 365 -1022 365 -1080 Q 365 -1138 352 -1157 Q 340 -1176 326 -1186 L 299 -1204 Q 286 -1213 286 -1235 Q 286 -1258 304 -1278 Q 322 -1299 350 -1314 Q 410 -1344 488 -1344 Q 681 -1344 681 -1248 Q 681 -1135 619 -990 Q 558 -846 515 -757 L 436 -585 Q 349 -395 349 -311 Q 349 -256 407 -256 Q 463 -256 492 -256 Q 521 -256 534 -256 Z"/>
		<path character="n" fill="#EA8872" fill-opacity="1.0" stroke="none" stroke-width="0px" stroke-linecap="butt" stroke-opacity="1.0" transform="matrix(1,0,0,1,7780,0)" d="M 1041 -1088 Q 1000 -1088 925 -1012 Q 851 -937 795 -874 L 684 -745 L 469 -479 Q 392 -339 349 -247 L 278 -99 Q 251 -44 230 -22 Q 210 0 175 0 Q 140 0 108 -12 Q 76 -24 53 -44 Q 3 -85 3 -134 Q 3 -153 32 -210 L 81 -314 Q 105 -360 137 -432 L 210 -608 Q 365 -988 365 -1098 Q 365 -1158 326 -1186 L 299 -1204 Q 286 -1213 286 -1235 Q 286 -1258 304 -1278 Q 322 -1299 350 -1314 Q 410 -1344 469 -1344 Q 529 -1344 562 -1331 Q 595 -1318 617 -1296 Q 665 -1250 665 -1200 Q 665 -1150 653 -1099 Q 641 -1049 621 -997 Q 602 -945 581 -895 Q 560 -846 543 -809 L 517 -753 Q 507 -732 512 -739 Q 658 -942 704 -999 L 795 -1110 Q 896 -1228 954 -1266 Q 1071 -1344 1138 -1344 Q 1205 -1344 1251 -1327 Q 1297 -1311 1331 -1281 Q 1403 -1218 1403 -1119 Q 1403 -1020 1356 -912 Q 1309 -805 1274 -738 Q 1239 -671 1208 -602 Q 1109 -394 1109 -299 Q 1109 -256 1180 -256 Q 1235 -256 1280 -278 Q 1326 -301 1339 -301 Q 1366 -301 1366 -271 Q 1366 -144 1247 -58 Q 1167 0 1100 0 Q 1033 0 989 -14 Q 945 -28 911 -58 Q 833 -126 833 -247 Q 833 -394 929 -615 Q 999 -766 1028 -822 L 1072 -913 Q 1113 -994 1113 -1041 Q 1113 -1088 1041 -1088 Z"/>
		<path character="e" fill="#EA8872" fill-opacity="1.0" stroke="none" stroke-width="0px" stroke-linecap="butt" stroke-opacity="1.0" transform="matrix(1,0,0,1,9332,0)" d="M 108 -463 Q 113 -575 146 -677 Q 179 -779 234 -875 Q 289 -971 363 -1056 Q 437 -1142 524 -1206 Q 712 -1344 903 -1344 Q 1128 -1344 1202 -1164 Q 1229 -1102 1227 -1018 Q 1226 -935 1194 -864 Q 1163 -793 1107 -735 Q 1051 -677 974 -631 Q 898 -585 807 -553 Q 621 -489 408 -489 Q 403 -471 401 -434 Q 400 -397 409 -351 Q 419 -306 441 -271 Q 488 -192 578 -192 Q 730 -192 874 -281 Q 925 -311 957 -343 Q 990 -375 1013 -375 Q 1037 -375 1054 -347 Q 1072 -319 1072 -284 Q 1072 -215 1033 -164 Q 868 0 541 0 Q 348 0 231 -113 Q 100 -242 108 -463 M 874 -1194 Q 736 -1194 609 -1004 Q 502 -841 436 -617 Q 655 -639 817 -791 Q 965 -933 965 -1063 Q 965 -1194 874 -1194 Z"/>
</g>
</svg>