<svg xmlns="http://www.w3.org/2000/svg" xmlns:xlink="http://www.w3.org/1999/xlink" viewBox="0 0 6600 3597">
<title>Selectors</title>
<g transform="matrix(1,0,0,1,0,2752)">
  		<path character="S" fill="#EA8872" fill-opacity="1.0" stroke="none" stroke-width="10px" stroke-linecap="butt" stroke-opacity="1.0" transform="matrix(1,0,0,1,-128,0)" d="M 307 64 Q 259 64 233 58 Q 208 53 179 36 Q 147 15 131 -24 Q 131 -56 160 -56 Q 189 -56 235 -37 Q 277 -16 307 -16 Q 365 -16 414 -64 Q 464 -113 491 -191 Q 544 -344 544 -462 Q 544 -594 506 -728 Q 469 -863 408 -981 Q 395 -1010 363 -1070 Q 296 -1204 261 -1279 Q 227 -1354 200 -1446 Q 163 -1567 163 -1706 Q 163 -1795 191 -1877 Q 219 -1959 280 -2018 Q 347 -2080 429 -2080 Q 461 -2080 506 -2047 Q 552 -2014 552 -1982 Q 552 -1961 536 -1961 Q 520 -1961 493 -1980 Q 469 -2000 448 -2000 Q 387 -2000 340 -1954 Q 293 -1908 272 -1841 Q 253 -1784 253 -1716 Q 253 -1611 280 -1499 Q 307 -1387 352 -1289 L 445 -1092 L 472 -1036 Q 528 -919 558 -843 Q 589 -768 611 -674 Q 640 -547 640 -430 Q 640 -274 560 -112 Q 520 -33 453 15 Q 387 64 307 64 Z"/>
		<path character="e" fill="#EA8872" fill-opacity="1.0" stroke="none" stroke-width="10px" stroke-linecap="butt" stroke-opacity="1.0" transform="matrix(1,0,0,1,713,0)" d="M 243 0 Q 195 0 189 -56 L 189 -92 Q 192 -105 192 -124 L 181 -135 Q 203 -191 203 -245 Q 203 -306 195 -421 L 189 -598 Q 189 -732 197 -1000 Q 208 -1238 208 -1404 L 203 -1565 Q 197 -1635 197 -1720 Q 197 -1758 216 -1775 Q 235 -1792 275 -1792 Q 301 -1792 317 -1777 Q 323 -1774 395 -1767 Q 461 -1759 509 -1744 Q 560 -1729 560 -1706 Q 560 -1681 509 -1656 Q 357 -1712 293 -1712 L 280 -1689 Q 283 -1665 283 -1575 Q 283 -1461 277 -1371 Q 275 -1278 275 -1164 Q 275 -1090 312 -1090 L 355 -1090 Q 376 -1090 400 -1090 Q 504 -1090 504 -1057 Q 504 -1037 490 -1023 Q 477 -1010 451 -1010 Q 411 -1010 389 -1025 L 304 -1034 L 291 -1034 L 277 -1025 L 277 -1017 Q 283 -970 283 -798 Q 283 -690 280 -602 L 277 -405 Q 277 -297 285 -184 Q 288 -121 312 -100 Q 336 -80 400 -80 L 448 -80 Q 472 -80 501 -80 Q 579 -80 579 -46 Q 579 0 461 0 L 243 0 Z"/>
		<path character="l" fill="#EA8872" fill-opacity="1.0" stroke="none" stroke-width="10px" stroke-linecap="butt" stroke-opacity="1.0" transform="matrix(1,0,0,1,1426,0)" d="M 240 0 Q 203 0 195 -50 Q 200 -66 200 -139 Q 200 -387 208 -875 Q 216 -1361 216 -1577 L 221 -1674 L 229 -1755 Q 229 -1774 248 -1774 Q 261 -1774 285 -1766 L 293 -1763 Q 293 -1704 291 -1655 L 291 -1550 L 291 -1256 Q 293 -1126 293 -961 Q 291 -948 291 -902 L 288 -845 Q 285 -791 285 -734 Q 285 -672 288 -621 L 291 -505 L 283 -484 L 285 -487 Q 285 -479 283 -476 L 283 -465 Q 283 -443 291 -427 L 283 -165 L 283 -148 Q 283 -102 285 -94 Q 285 -80 299 -80 L 437 -80 Q 499 -80 521 -80 Q 544 -80 549 -80 L 557 -80 Q 571 -80 584 -65 Q 597 -50 597 -33 Q 597 0 555 0 Q 509 0 333 0 L 339 0 Q 312 0 288 0 Q 267 0 240 0 Z"/>
		<path character="e" fill="#EA8872" fill-opacity="1.0" stroke="none" stroke-width="10px" stroke-linecap="butt" stroke-opacity="1.0" transform="matrix(1,0,0,1,2075,0)" d="M 243 0 Q 195 0 189 -56 L 189 -92 Q 192 -105 192 -124 L 181 -135 Q 203 -191 203 -245 Q 203 -306 195 -421 L 189 -598 Q 189 -732 197 -1000 Q 208 -1238 208 -1404 L 203 -1565 Q 197 -1635 197 -1720 Q 197 -1758 216 -1775 Q 235 -1792 275 -1792 Q 301 -1792 317 -1777 Q 323 -1774 395 -1767 Q 461 -1759 509 -1744 Q 560 -1729 560 -1706 Q 560 -1681 509 -1656 Q 357 -1712 293 -1712 L 280 -1689 Q 283 -1665 283 -1575 Q 283 -1461 277 -1371 Q 275 -1278 275 -1164 Q 275 -1090 312 -1090 L 355 -1090 Q 376 -1090 400 -1090 Q 504 -1090 504 -1057 Q 504 -1037 490 -1023 Q 477 -1010 451 -1010 Q 411 -1010 389 -1025 L 304 -1034 L 291 -1034 L 277 -1025 L 277 -1017 Q 283 -970 283 -798 Q 283 -690 280 -602 L 277 -405 Q 277 -297 285 -184 Q 288 -121 312 -100 Q 336 -80 400 -80 L 448 -80 Q 472 -80 501 -80 Q 579 -80 579 -46 Q 579 0 461 0 L 243 0 Z"/>
		<path character="c" fill="#EA8872" fill-opacity="1.0" stroke="none" stroke-width="10px" stroke-linecap="butt" stroke-opacity="1.0" transform="matrix(1,0,0,1,2788,0)" d="M 389 -24 Q 339 -39 303 -68 Q 267 -97 235 -155 Q 179 -260 168 -457 Q 163 -547 163 -615 L 163 -914 Q 163 -1085 173 -1245 Q 181 -1364 197 -1445 Q 213 -1527 248 -1608 Q 285 -1692 331 -1726 Q 349 -1742 403 -1763 Q 437 -1776 469 -1792 L 576 -1792 L 584 -1792 Q 587 -1789 592 -1789 L 605 -1787 L 616 -1779 Q 624 -1771 624 -1768 Q 627 -1763 627 -1752 L 592 -1712 L 480 -1712 Q 429 -1712 388 -1663 Q 347 -1614 325 -1541 Q 304 -1475 290 -1385 Q 277 -1295 275 -1230 Q 269 -1145 269 -1114 L 264 -1100 Q 264 -953 259 -834 L 253 -568 Q 253 -452 269 -354 Q 283 -249 347 -164 Q 408 -80 536 -80 Q 576 -80 603 -104 Q 643 -104 643 -74 Q 643 -57 609 -34 Q 576 -12 541 0 L 453 0 L 389 -24 Z"/>
		<path character="t" fill="#EA8872" fill-opacity="1.0" stroke="none" stroke-width="10px" stroke-linecap="butt" stroke-opacity="1.0" transform="matrix(1,0,0,1,3565,0)" d="M 368 -38 L 365 -138 Q 363 -181 363 -235 Q 363 -262 365 -280 L 368 -329 Q 368 -356 357 -394 Q 357 -575 331 -1067 Q 304 -1542 301 -1712 Q 136 -1712 80 -1723 Q 27 -1742 27 -1783 Q 40 -1792 77 -1792 Q 157 -1792 309 -1792 Q 448 -1792 541 -1792 L 597 -1792 L 653 -1792 Q 701 -1792 701 -1745 Q 701 -1730 684 -1721 Q 667 -1712 643 -1712 Q 589 -1712 531 -1712 L 416 -1712 Q 405 -1712 405 -1704 Q 403 -1696 403 -1653 Q 403 -1391 435 -859 Q 464 -308 464 -68 Q 464 -49 441 -33 Q 419 -17 397 -17 L 368 -38 Z"/>
		<path character="o" fill="#EA8872" fill-opacity="1.0" stroke="none" stroke-width="10px" stroke-linecap="butt" stroke-opacity="1.0" transform="matrix(1,0,0,1,4342,0)" d="M 469 32 Q 157 32 157 -952 L 157 -1046 Q 157 -1792 349 -1792 Q 363 -1792 387 -1784 Q 472 -1755 555 -1747 Q 605 -1736 656 -1642 Q 712 -1546 740 -1388 Q 768 -1230 768 -1065 L 763 -1051 Q 763 -963 765 -893 L 768 -733 Q 768 -597 757 -487 Q 741 -321 704 -201 Q 680 -128 649 -80 Q 619 -32 573 0 Q 531 32 469 32 M 459 -48 Q 563 -48 613 -194 Q 664 -343 675 -497 Q 685 -656 685 -752 Q 685 -858 669 -1065 Q 656 -1297 656 -1379 L 645 -1400 L 651 -1414 Q 651 -1535 585 -1623 Q 520 -1712 427 -1712 Q 304 -1712 280 -1589 Q 275 -1547 269 -1469 Q 269 -1273 253 -1201 Q 253 -1161 245 -1076 L 240 -951 Q 240 -893 243 -848 L 245 -741 Q 245 -616 267 -454 Q 283 -335 304 -252 Q 325 -170 365 -112 Q 405 -48 459 -48 Z"/>
		<path character="r" fill="#EA8872" fill-opacity="1.0" stroke="none" stroke-width="10px" stroke-linecap="butt" stroke-opacity="1.0" transform="matrix(1,0,0,1,5247,0)" d="M 600 19 Q 568 -16 530 -165 Q 493 -314 461 -500 Q 440 -652 400 -801 Q 368 -934 339 -934 L 331 -934 Q 272 -934 272 -897 Q 272 -707 293 -320 Q 304 -83 317 -43 L 296 0 L 259 0 L 237 -19 Q 195 -1245 195 -1691 Q 195 -1720 199 -1738 Q 203 -1757 216 -1773 Q 227 -1792 253 -1792 Q 389 -1792 472 -1725 Q 555 -1658 555 -1532 L 555 -1337 Q 555 -1286 521 -1200 Q 488 -1115 448 -1043 L 413 -976 Q 443 -840 529 -488 Q 616 -136 624 -114 Q 627 -112 631 -101 Q 635 -90 648 -69 Q 667 -32 667 -5 Q 667 32 637 32 L 600 19 M 285 -999 Q 336 -999 376 -1049 Q 416 -1100 440 -1179 Q 483 -1340 483 -1435 Q 483 -1496 476 -1535 Q 469 -1575 453 -1620 Q 421 -1712 301 -1712 Q 288 -1712 280 -1689 Q 272 -1667 272 -1643 Q 272 -1467 277 -1324 Q 280 -1182 280 -1005 L 285 -999 Z"/>
		<path character="s" fill="#EA8872" fill-opacity="1.0" stroke="none" stroke-width="10px" stroke-linecap="butt" stroke-opacity="1.0" transform="matrix(1,0,0,1,6024,0)" d="M 221 0 Q 192 0 165 -22 Q 139 -45 136 -76 L 149 -97 Q 160 -97 197 -90 Q 227 -80 245 -80 Q 304 -80 349 -125 Q 395 -171 419 -243 Q 456 -378 456 -498 Q 456 -677 344 -882 Q 275 -1001 237 -1071 Q 200 -1141 171 -1232 Q 136 -1338 136 -1437 Q 136 -1530 184 -1657 Q 208 -1717 252 -1754 Q 296 -1792 347 -1792 Q 381 -1792 414 -1768 Q 448 -1744 448 -1717 Q 448 -1685 413 -1685 Q 403 -1685 387 -1699 Q 371 -1712 357 -1712 Q 317 -1712 285 -1680 Q 253 -1649 237 -1599 Q 205 -1502 205 -1421 Q 205 -1371 219 -1319 Q 221 -1303 224 -1292 Q 227 -1282 227 -1277 L 243 -1224 L 256 -1177 L 277 -1130 Q 285 -1112 294 -1097 Q 304 -1083 312 -1070 L 344 -1015 Q 355 -999 389 -940 Q 424 -881 453 -815 Q 480 -760 493 -711 Q 507 -663 517 -595 Q 525 -530 525 -451 Q 525 -325 491 -215 Q 443 -84 352 -31 Q 301 0 235 0 L 221 0 M 435 -1707 Q 435 -1710 432 -1710 L 432 -1707 L 435 -1707 Z"/>
</g>
</svg>